<svg viewBox="0 0 600 400" xmlns="http://www.w3.org/2000/svg">
<g transform="translate(50, 360)">
<g>
<circle cx="0.0000000000000000000000000000000000000002713343173330466" cy="-0.0000000000000000000000000000007274869326121723" fill="#DD3355" r="2.5"/>
<circle cx="247.99651092409113" cy="-175.01268299873618" fill="#DD3355" r="2.5"/>
<circle cx="138.26373934469405" cy="-277.50180744265566" fill="#DD3355" r="2.5"/>
<circle cx="201.50373336327576" cy="-247.22222579847158" fill="#DD3355" r="2.5"/>
<circle cx="301.8584776083424" cy="-302.50030983285245" fill="#DD3355" r="2.5"/>
<circle cx="454.9954181250734" cy="-221.1997016724541" fill="#DD3355" r="2.5"/>
<circle cx="396.36835723745435" cy="-250.2581812414953" fill="#DD3355" r="2.5"/>
<circle cx="331.9363320180582" cy="-328.53013727396194" fill="#DD3355" r="2.5"/>
<circle cx="175.26714281927804" cy="-168.59390098821913" fill="#DD3355" r="2.5"/>
<circle cx="212.01321019344178" cy="-117.90028161370424" fill="#DD3355" r="2.5"/>
<circle cx="261.2707223120041" cy="-129.78122530578057" fill="#DD3355" r="2.5"/>
<circle cx="301.10116868618775" cy="-64.65288866600235" fill="#DD3355" r="2.5"/>
<circle cx="287.40149931862834" cy="-174.31416395639448" fill="#DD3355" r="2.5"/>
<circle cx="96.57218907134623" cy="-49.8088692321385" fill="#DD3355" r="2.5"/>
<circle cx="360.77955532065585" cy="-180.46922645556836" fill="#DD3355" r="2.5"/>
<circle cx="129.49769587539762" cy="-21.185707824945" fill="#DD3355" r="2.5"/>
<circle cx="126.93795508297" cy="-268.7786350285701" fill="#DD3355" r="2.5"/>
<circle cx="116.11668057487556" cy="-244.35429340433922" fill="#DD3355" r="2.5"/>
<circle cx="268.5083717873616" cy="-188.32192153858807" fill="#DD3355" r="2.5"/>
<circle cx="42.26035459354449" cy="-107.54624770871598" fill="#DD3355" r="2.5"/>
<circle cx="338.2564674368329" cy="-49.097972498152636" fill="#DD3355" r="2.5"/>
<circle cx="317.4365222583744" cy="-109.54495061619237" fill="#DD3355" r="2.5"/>
<circle cx="477.80836676290005" cy="-237.3409966543919" fill="#DD3355" r="2.5"/>
<circle cx="253.93538787467364" cy="-153.56621234256605" fill="#DD3355" r="2.5"/>
<circle cx="272.74157555356607" cy="-102.99903641966478" fill="#DD3355" r="2.5"/>
<circle cx="457.5638106543842" cy="-218.0949825060765" fill="#DD3355" r="2.5"/>
<circle cx="177.01383238671386" cy="-88.3504249142721" fill="#DD3355" r="2.5"/>
<circle cx="200.51949498041722" cy="-288.53498569901325" fill="#DD3355" r="2.5"/>
<circle cx="135.4100558975223" cy="-233.99460673691775" fill="#DD3355" r="2.5"/>
<circle cx="355.7375111196228" cy="-222.63485325525852" fill="#DD3355" r="2.5"/>
<circle cx="411.10741801754335" cy="-241.50084745287987" fill="#DD3355" r="2.5"/>
<circle cx="269.1306211576604" cy="-125.2389958243435" fill="#DD3355" r="2.5"/>
<circle cx="422.99426413038077" cy="-85.82005545583633" fill="#DD3355" r="2.5"/>
<circle cx="268.252532323718" cy="-87.22743179561415" fill="#DD3355" r="2.5"/>
<circle cx="332.21400582426475" cy="-147.19045751275667" fill="#DD3355" r="2.5"/>
<circle cx="142.13683968483548" cy="-18.564672977120583" fill="#DD3355" r="2.5"/>
<circle cx="143.37961890523232" cy="-270.24891742977053" fill="#DD3355" r="2.5"/>
<circle cx="203.7722720722813" cy="-72.30865080795463" fill="#DD3355" r="2.5"/>
<circle cx="293.90726238782537" cy="-184.60725165272862" fill="#DD3355" r="2.5"/>
<circle cx="58.88611246014253" cy="-205.47566054634657" fill="#DD3355" r="2.5"/>
<circle cx="469.6919103487012" cy="-209.54914891712596" fill="#DD3355" r="2.5"/>
<circle cx="384.3413561222466" cy="-204.81174767443065" fill="#DD3355" r="2.5"/>
<circle cx="58.95648335720238" cy="-181.7406518018102" fill="#DD3355" r="2.5"/>
<circle cx="268.61912280978504" cy="-59.61778406463036" fill="#DD3355" r="2.5"/>
<circle cx="477.0936496119654" cy="-121.91684159105503" fill="#DD3355" r="2.5"/>
<circle cx="60.037753209122855" cy="-240.67091151424646" fill="#DD3355" r="2.5"/>
<circle cx="266.3211255078367" cy="-286.6584307125231" fill="#DD3355" r="2.5"/>
<circle cx="250.62940917390742" cy="-326.9982633584398" fill="#DD3355" r="2.5"/>
<circle cx="403.4636811973249" cy="-71.30660549745853" fill="#DD3355" r="2.5"/>
<circle cx="383.14845380189223" cy="-132.67899286869832" fill="#DD3355" r="2.5"/>
<circle cx="50.724478141912165" cy="-255.55241828432952" fill="#DD3355" r="2.5"/>
<circle cx="330.041693452247" cy="-61.18726536635775" fill="#DD3355" r="2.5"/>
<circle cx="144.7479155960615" cy="-212.64320249701427" fill="#DD3355" r="2.5"/>
<circle cx="273.4184325149218" cy="-68.82918485031313" fill="#DD3355" r="2.5"/>
<circle cx="207.40431968697902" cy="-83.35977175388129" fill="#DD3355" r="2.5"/>
<circle cx="169.46556085665165" cy="-281.44474389942656" fill="#DD3355" r="2.5"/>
<circle cx="42.17502288422948" cy="-231.36332041480586" fill="#DD3355" r="2.5"/>
<circle cx="434.78262441739844" cy="-227.45448948815329" fill="#DD3355" r="2.5"/>
<circle cx="198.01228903167723" cy="-123.59942039725239" fill="#DD3355" r="2.5"/>
<circle cx="216.37503780679202" cy="-235.50130028382225" fill="#DD3355" r="2.5"/>
<circle cx="220.0896380138191" cy="-125.55529461734247" fill="#DD3355" r="2.5"/>
<circle cx="151.0924167968878" cy="-144.9056686723384" fill="#DD3355" r="2.5"/>
<circle cx="326.9670474231542" cy="-260.9319006409934" fill="#DD3355" r="2.5"/>
<circle cx="49.592782355882605" cy="-109.44963108894872" fill="#DD3355" r="2.5"/>
<circle cx="284.06618432229203" cy="-13.70269194274584" fill="#DD3355" r="2.5"/>
<circle cx="416.2989769912625" cy="-278.28067635191337" fill="#DD3355" r="2.5"/>
<circle cx="20.995945007940776" cy="-123.26941997458114" fill="#DD3355" r="2.5"/>
<circle cx="370.0403486920916" cy="-219.57581824456844" fill="#DD3355" r="2.5"/>
<circle cx="230.41757048990308" cy="-41.72680621707942" fill="#DD3355" r="2.5"/>
<circle cx="364.4170726107204" cy="-218.55019508050404" fill="#DD3355" r="2.5"/>
<circle cx="366.3993776679739" cy="-253.28134633388424" fill="#DD3355" r="2.5"/>
<circle cx="132.06538419756075" cy="-298.6614090156619" fill="#DD3355" r="2.5"/>
<circle cx="431.74428503396587" cy="-73.62896672725437" fill="#DD3355" r="2.5"/>
<circle cx="293.8308714914714" cy="-214.83376684366084" fill="#DD3355" r="2.5"/>
<circle cx="259.94987078377017" cy="-154.1400384816621" fill="#DD3355" r="2.5"/>
<circle cx="448.72040001723735" cy="-166.89562460465208" fill="#DD3355" r="2.5"/>
<circle cx="297.08575340188935" cy="-139.79632886749104" fill="#DD3355" r="2.5"/>
<circle cx="295.12853455440114" cy="-131.89371568444167" fill="#DD3355" r="2.5"/>
<circle cx="232.64637429800294" cy="-239.7766861830265" fill="#DD3355" r="2.5"/>
<circle cx="142.23425754921203" cy="-78.73568020026475" fill="#DD3355" r="2.5"/>
<circle cx="101.56564571489746" cy="-188.66230986613914" fill="#DD3355" r="2.5"/>
<circle cx="202.6217707304907" cy="-85.75054615228701" fill="#DD3355" r="2.5"/>
<circle cx="194.1283683790551" cy="-74.90984354110634" fill="#DD3355" r="2.5"/>
<circle cx="173.18755368591087" cy="-288.29284215147436" fill="#DD3355" r="2.5"/>
<circle cx="216.8048558610891" cy="-195.68180944590276" fill="#DD3355" r="2.5"/>
<circle cx="459.7105275931174" cy="-115.47808069548392" fill="#DD3355" r="2.5"/>
<circle cx="157.2512901120423" cy="-110.46071248537953" fill="#DD3355" r="2.5"/>
<circle cx="392.6130048210259" cy="-289.66439020717496" fill="#DD3355" r="2.5"/>
<circle cx="277.6487117164492" cy="-239.27281526869362" fill="#DD3355" r="2.5"/>
<circle cx="121.45052624013009" cy="-180.9657134049354" fill="#DD3355" r="2.5"/>
<circle cx="153.5384701865572" cy="-145.83289145039777" fill="#DD3355" r="2.5"/>
<circle cx="211.78141457258192" cy="-303.5428266528346" fill="#DD3355" r="2.5"/>
<circle cx="415.06232662611643" cy="-219.04455671508728" fill="#DD3355" r="2.5"/>
<circle cx="392.8942110403735" cy="-167.58927503687275" fill="#DD3355" r="2.5"/>
<circle cx="64.79482619781652" cy="-148.26965895529335" fill="#DD3355" r="2.5"/>
<circle cx="167.62248026303783" cy="-37.25724776175626" fill="#DD3355" r="2.5"/>
<circle cx="467.16643466735974" cy="-215.12873108100484" fill="#DD3355" r="2.5"/>
<circle cx="24.197998013220314" cy="-106.80646087017188" fill="#DD3355" r="2.5"/>
<circle cx="390.8936727312391" cy="-152.29524738609342" fill="#DD3355" r="2.5"/>
<circle cx="190.00313419469094" cy="-126.10252108436019" fill="#DD3355" r="2.5"/>
<circle cx="465.2315566241955" cy="-121.69947037015703" fill="#DD3355" r="2.5"/>
<circle cx="237.9313618662664" cy="-47.94823288862752" fill="#DD3355" r="2.5"/>
<circle cx="435.3904631533054" cy="-106.1765993518151" fill="#DD3355" r="2.5"/>
<circle cx="422.6555766398582" cy="-281.33514029644334" fill="#DD3355" r="2.5"/>
<circle cx="201.07140674293834" cy="-168.26706808811093" fill="#DD3355" r="2.5"/>
<circle cx="115.64147294621074" cy="-311.8043356764196" fill="#DD3355" r="2.5"/>
<circle cx="198.600562707692" cy="-169.57871282755303" fill="#DD3355" r="2.5"/>
<circle cx="190.32464990976615" cy="-287.60197263611394" fill="#DD3355" r="2.5"/>
<circle cx="434.7776685867011" cy="-232.0856629420747" fill="#DD3355" r="2.5"/>
<circle cx="80.92126267558508" cy="-121.9717180013762" fill="#DD3355" r="2.5"/>
<circle cx="93.84911332144364" cy="-201.95376021949502" fill="#DD3355" r="2.5"/>
<circle cx="185.10204237617145" cy="-126.96479149130644" fill="#DD3355" r="2.5"/>
<circle cx="350.60151714148947" cy="-215.06488236335173" fill="#DD3355" r="2.5"/>
<circle cx="278.0158078135469" cy="-280.65913465429867" fill="#DD3355" r="2.5"/>
<circle cx="266.055399727689" cy="-217.5133625377927" fill="#DD3355" r="2.5"/>
<circle cx="128.87932532679304" cy="-311.54560323115174" fill="#DD3355" r="2.5"/>
<circle cx="210.12368222400514" cy="-331.0525307608452" fill="#DD3355" r="2.5"/>
<circle cx="469.7113006940096" cy="-235.06790604594477" fill="#DD3355" r="2.5"/>
<circle cx="259.15682109467764" cy="-267.1294279809652" fill="#DD3355" r="2.5"/>
<circle cx="298.08335341627037" cy="-288.7142673302844" fill="#DD3355" r="2.5"/>
<circle cx="201.35209000975752" cy="-174.8291369106936" fill="#DD3355" r="2.5"/>
<circle cx="362.29874475865677" cy="-314.94567858994867" fill="#DD3355" r="2.5"/>
<circle cx="118.1730073410341" cy="-248.88605559168013" fill="#DD3355" r="2.5"/>
<circle cx="126.84176029381567" cy="-124.53091655655547" fill="#DD3355" r="2.5"/>
<circle cx="182.70605211977698" cy="-143.97642271058996" fill="#DD3355" r="2.5"/>
<circle cx="79.97879854926393" cy="-67.52631193728499" fill="#DD3355" r="2.5"/>
<circle cx="201.24479778498173" cy="-200.46055654286155" fill="#DD3355" r="2.5"/>
<circle cx="391.21136938215915" cy="-194.9984157737905" fill="#DD3355" r="2.5"/>
<circle cx="374.3598406476427" cy="-247.85375464025293" fill="#DD3355" r="2.5"/>
<circle cx="287.96562369528834" cy="-208.17506707253898" fill="#DD3355" r="2.5"/>
<circle cx="56.65056096448584" cy="-236.85145236610802" fill="#DD3355" r="2.5"/>
<circle cx="390.3527800045351" cy="-201.15648981798432" fill="#DD3355" r="2.5"/>
<circle cx="249.20757283634464" cy="-23.235286791851202" fill="#DD3355" r="2.5"/>
<circle cx="194.292228262945" cy="-38.0051872708153" fill="#DD3355" r="2.5"/>
<circle cx="290.78689345985333" cy="-2.714100776472246" fill="#DD3355" r="2.5"/>
<circle cx="307.66074682960334" cy="-221.1620819334378" fill="#DD3355" r="2.5"/>
<circle cx="169.8652018939103" cy="-266.15385009967963" fill="#DD3355" r="2.5"/>
<circle cx="294.18326404392303" cy="-241.62831156981753" fill="#DD3355" r="2.5"/>
<circle cx="141.32572067040738" cy="-267.50009211189143" fill="#DD3355" r="2.5"/>
<circle cx="269.2673546076825" cy="-294.6172686455173" fill="#DD3355" r="2.5"/>
<circle cx="174.36653204979245" cy="-233.3213315719408" fill="#DD3355" r="2.5"/>
<circle cx="281.14817369242996" cy="-29.45839201226311" fill="#DD3355" r="2.5"/>
<circle cx="63.091026992502904" cy="-262.9707604161358" fill="#DD3355" r="2.5"/>
<circle cx="149.43779309980366" cy="-74.67526026792189" fill="#DD3355" r="2.5"/>
<circle cx="378.1973812903493" cy="-80.65311571397363" fill="#DD3355" r="2.5"/>
<circle cx="361.184713097438" cy="-63.613485288159275" fill="#DD3355" r="2.5"/>
<circle cx="443.17049560179123" cy="-269.59948610040476" fill="#DD3355" r="2.5"/>
<circle cx="68.16902800001546" cy="-141.26381865899123" fill="#DD3355" r="2.5"/>
<circle cx="81.80714449544524" cy="-179.76001568433935" fill="#DD3355" r="2.5"/>
<circle cx="257.93223857541903" cy="-240.6552260677171" fill="#DD3355" r="2.5"/>
<circle cx="89.92678579696044" cy="-246.25070538302654" fill="#DD3355" r="2.5"/>
<circle cx="372.0764258878121" cy="-64.24366933145487" fill="#DD3355" r="2.5"/>
<circle cx="168.51671065467" cy="-83.87314151388361" fill="#DD3355" r="2.5"/>
<circle cx="6.3652685234124595" cy="-137.13910607865185" fill="#DD3355" r="2.5"/>
<circle cx="163.3295225353708" cy="-43.3343014674872" fill="#DD3355" r="2.5"/>
<circle cx="301.7660107767943" cy="-47.389782453094256" fill="#DD3355" r="2.5"/>
<circle cx="407.42612862925233" cy="-283.37219951558353" fill="#DD3355" r="2.5"/>
<circle cx="184.21923842831833" cy="-77.40029583158369" fill="#DD3355" r="2.5"/>
<circle cx="381.04565728224503" cy="-243.18694467960614" fill="#DD3355" r="2.5"/>
<circle cx="56.15544036688191" cy="-231.97010924792517" fill="#DD3355" r="2.5"/>
<circle cx="302.80046752606495" cy="-107.96326209868423" fill="#DD3355" r="2.5"/>
<circle cx="183.36252060782243" cy="-261.6931550076954" fill="#DD3355" r="2.5"/>
<circle cx="335.45264509428284" cy="-171.89454724185" fill="#DD3355" r="2.5"/>
<circle cx="178.31562414706147" cy="-306.3661916710774" fill="#DD3355" r="2.5"/>
<circle cx="73.95535999114311" cy="-52.8614045514733" fill="#DD3355" r="2.5"/>
<circle cx="154.86409238389575" cy="-109.20758654285864" fill="#DD3355" r="2.5"/>
<circle cx="381.95377357943914" cy="-101.9346739611847" fill="#DD3355" r="2.5"/>
<circle cx="372.82022621064294" cy="-308.48349523454704" fill="#DD3355" r="2.5"/>
<circle cx="286.8273150323929" cy="-257.3645945983243" fill="#DD3355" r="2.5"/>
<circle cx="458.8017241331982" cy="-103.74712115662325" fill="#DD3355" r="2.5"/>
<circle cx="128.6582080194467" cy="-214.0445809053128" fill="#DD3355" r="2.5"/>
<circle cx="27.99827875725125" cy="-180.9040919092359" fill="#DD3355" r="2.5"/>
<circle cx="233.29317846424047" cy="-193.38764064085365" fill="#DD3355" r="2.5"/>
<circle cx="224.47093924812256" cy="-274.0076240104425" fill="#DD3355" r="2.5"/>
<circle cx="405.3950375369927" cy="-177.91250627863909" fill="#DD3355" r="2.5"/>
<circle cx="137.79147535490932" cy="-96.54868251234224" fill="#DD3355" r="2.5"/>
<circle cx="112.50898950303345" cy="-200.26837970200862" fill="#DD3355" r="2.5"/>
<circle cx="219.66509872100858" cy="-148.81623270899308" fill="#DD3355" r="2.5"/>
<circle cx="300.7580342564843" cy="-331.9966967761353" fill="#DD3355" r="2.5"/>
<circle cx="453.29484661603783" cy="-201.61661884013444" fill="#DD3355" r="2.5"/>
<circle cx="73.60276452253788" cy="-116.3329511925448" fill="#DD3355" r="2.5"/>
<circle cx="252.38960012497503" cy="-35.895134048146964" fill="#DD3355" r="2.5"/>
<circle cx="128.96804316735478" cy="-254.61373531130087" fill="#DD3355" r="2.5"/>
<circle cx="448.64420386603166" cy="-227.9784625289164" fill="#DD3355" r="2.5"/>
<circle cx="180.05902554702158" cy="-72.51962564833742" fill="#DD3355" r="2.5"/>
<circle cx="267.7108372858529" cy="-253.81266269365068" fill="#DD3355" r="2.5"/>
<circle cx="186.2764288997707" cy="-212.12758532816747" fill="#DD3355" r="2.5"/>
<circle cx="413.81537624739315" cy="-271.5667597333991" fill="#DD3355" r="2.5"/>
<circle cx="207.92874480737188" cy="-323.1298644086417" fill="#DD3355" r="2.5"/>
<circle cx="384.00559945607824" cy="-229.2943612683231" fill="#DD3355" r="2.5"/>
<circle cx="187.72089853784468" cy="-211.98495562099606" fill="#DD3355" r="2.5"/>
<circle cx="234.6631358640533" cy="-278.0727334858957" fill="#DD3355" r="2.5"/>
<circle cx="371.9578121677498" cy="-201.35043069326122" fill="#DD3355" r="2.5"/>
<circle cx="103.0753391557585" cy="-192.63488786136176" fill="#DD3355" r="2.5"/>
<circle cx="95.81114946110847" cy="-126.18828823449473" fill="#DD3355" r="2.5"/>
<circle cx="13.968429230093559" cy="-183.46931074721851" fill="#DD3355" r="2.5"/>
<circle cx="361.10510958714383" cy="-47.21685088104764" fill="#DD3355" r="2.5"/>
<circle cx="36.430846401001475" cy="-178.49833023841128" fill="#DD3355" r="2.5"/>
<circle cx="389.47967007467355" cy="-223.30090395180633" fill="#DD3355" r="2.5"/>
<circle cx="299.18474545489903" cy="-120.35488989915103" fill="#DD3355" r="2.5"/>
<circle cx="100.5360495369828" cy="-183.50401307090544" fill="#DD3355" r="2.5"/>
<circle cx="398.5832549887506" cy="-35.4324069089991" fill="#DD3355" r="2.5"/>
<circle cx="493.3559045677463" cy="-132.52593544320118" fill="#DD3355" r="2.5"/>
<circle cx="181.60956885424272" cy="-35.720085046041376" fill="#DD3355" r="2.5"/>
<circle cx="174.83219923292194" cy="-13.92383862316668" fill="#DD3355" r="2.5"/>
<circle cx="371.6888993474251" cy="-315.0474916925546" fill="#DD3355" r="2.5"/>
<circle cx="452.1650649798954" cy="-135.1381891516041" fill="#DD3355" r="2.5"/>
<circle cx="299.4017879926969" cy="-133.21717839785086" fill="#DD3355" r="2.5"/>
<circle cx="409.74771008825064" cy="-117.16194473618896" fill="#DD3355" r="2.5"/>
<circle cx="129.07027624849744" cy="-208.8068279915438" fill="#DD3355" r="2.5"/>
<circle cx="185.6056816928031" cy="-99.24402464871802" fill="#DD3355" r="2.5"/>
<circle cx="470.85310025679684" cy="-106.09953733527485" fill="#DD3355" r="2.5"/>
<circle cx="199.65040368157761" cy="-334.12846232198257" fill="#DD3355" r="2.5"/>
<circle cx="317.71634582498484" cy="-81.04477014435729" fill="#DD3355" r="2.5"/>
<circle cx="401.52960326966735" cy="-269.7335000241287" fill="#DD3355" r="2.5"/>
<circle cx="333.3987583885221" cy="-184.88796667002208" fill="#DD3355" r="2.5"/>
<circle cx="305.2064585222084" cy="-249.209079937565" fill="#DD3355" r="2.5"/>
<circle cx="240.38245017770333" cy="-191.4342879649784" fill="#DD3355" r="2.5"/>
<circle cx="275.1290438690499" cy="-273.7113039341002" fill="#DD3355" r="2.5"/>
<circle cx="387.57718960330834" cy="-265.86183580468185" fill="#DD3355" r="2.5"/>
<circle cx="142.65255766823793" cy="-317.67548941297645" fill="#DD3355" r="2.5"/>
<circle cx="127.69954133471873" cy="-121.31847777670299" fill="#DD3355" r="2.5"/>
<circle cx="312.5241983385196" cy="-314.065120909446" fill="#DD3355" r="2.5"/>
<circle cx="111.56838078164533" cy="-94.8432963876559" fill="#DD3355" r="2.5"/>
<circle cx="219.9006552573658" cy="-37.90107785953078" fill="#DD3355" r="2.5"/>
<circle cx="84.6887594328567" cy="-111.29731266820725" fill="#DD3355" r="2.5"/>
<circle cx="359.61196972524743" cy="-197.36365851577654" fill="#DD3355" r="2.5"/>
<circle cx="417.70574995281464" cy="-93.42117945221509" fill="#DD3355" r="2.5"/>
<circle cx="121.91245860672895" cy="-301.9967484025907" fill="#DD3355" r="2.5"/>
<circle cx="85.51503756345069" cy="-70.87463393014548" fill="#DD3355" r="2.5"/>
<circle cx="269.86338894583884" cy="-114.95617735186174" fill="#DD3355" r="2.5"/>
<circle cx="132.62720472628052" cy="-20.377082129150903" fill="#DD3355" r="2.5"/>
<circle cx="306.0461108225706" cy="-143.78511963123603" fill="#DD3355" r="2.5"/>
<circle cx="314.15272997929554" cy="-285.1477729434859" fill="#DD3355" r="2.5"/>
<circle cx="281.18638612696543" cy="-29.90729138551555" fill="#DD3355" r="2.5"/>
<circle cx="339.0395329275646" cy="-273.23162268345175" fill="#DD3355" r="2.5"/>
<circle cx="271.24205993292895" cy="-309.5274689544794" fill="#DD3355" r="2.5"/>
<circle cx="278.8195384934319" cy="-256.8865319867821" fill="#DD3355" r="2.5"/>
<circle cx="125.02874263917218" cy="-74.74243283665345" fill="#DD3355" r="2.5"/>
<circle cx="311.1938585013452" cy="-19.999040336265036" fill="#DD3355" r="2.5"/>
<circle cx="397.737171805561" cy="-245.5713835451792" fill="#DD3355" r="2.5"/>
<circle cx="412.9313415590964" cy="-55.3276457799564" fill="#DD3355" r="2.5"/>
<circle cx="332.3386590106906" cy="-35.80758300105611" fill="#DD3355" r="2.5"/>
<circle cx="217.2520058998686" cy="-202.49378803121" fill="#DD3355" r="2.5"/>
<circle cx="183.39074700062673" cy="-78.39604216286418" fill="#DD3355" r="2.5"/>
<circle cx="217.24644786962867" cy="-257.4264615745343" fill="#DD3355" r="2.5"/>
<circle cx="320.0256847875697" cy="-145.7681379382467" fill="#DD3355" r="2.5"/>
<circle cx="88.2869822994804" cy="-234.47385045941337" fill="#DD3355" r="2.5"/>
<circle cx="219.72323716006503" cy="-111.11497760373838" fill="#DD3355" r="2.5"/>
<circle cx="208.0361932957604" cy="-171.20971476460977" fill="#DD3355" r="2.5"/>
<circle cx="73.86635811962583" cy="-158.45260195256952" fill="#DD3355" r="2.5"/>
<circle cx="300.892290853913" cy="-217.07705998232035" fill="#DD3355" r="2.5"/>
<circle cx="170.85685094758486" cy="-148.67786671716425" fill="#DD3355" r="2.5"/>
<circle cx="45.1450700549586" cy="-154.01036806908039" fill="#DD3355" r="2.5"/>
<circle cx="73.33219522329604" cy="-164.6947560382015" fill="#DD3355" r="2.5"/>
<circle cx="355.7172277574495" cy="-94.99945545573672" fill="#DD3355" r="2.5"/>
<circle cx="36.83846511206368" cy="-131.11908774696826" fill="#DD3355" r="2.5"/>
<circle cx="315.63979524424" cy="-294.61426615153886" fill="#DD3355" r="2.5"/>
<circle cx="358.3141370895637" cy="-63.394405480563265" fill="#DD3355" r="2.5"/>
<circle cx="272.6691776470163" cy="-294.95625853350566" fill="#DD3355" r="2.5"/>
<circle cx="288.77477774785086" cy="-309.2900364827904" fill="#DD3355" r="2.5"/>
<circle cx="441.46884131489475" cy="-210.01385648887245" fill="#DD3355" r="2.5"/>
<circle cx="201.9943589695704" cy="-26.17681589779132" fill="#DD3355" r="2.5"/>
<circle cx="233.33000009575932" cy="-99.11490693773993" fill="#DD3355" r="2.5"/>
<circle cx="442.32851519945194" cy="-126.05262815010079" fill="#DD3355" r="2.5"/>
<circle cx="403.99458979008864" cy="-139.98746006017922" fill="#DD3355" r="2.5"/>
<circle cx="233.1569257811178" cy="-325.4343290270586" fill="#DD3355" r="2.5"/>
<circle cx="211.38261533229087" cy="-250.86798328889395" fill="#DD3355" r="2.5"/>
<circle cx="367.42559061096904" cy="-277.9941260007155" fill="#DD3355" r="2.5"/>
<circle cx="251.5677301684678" cy="-10.274477045704216" fill="#DD3355" r="2.5"/>
<circle cx="177.4522568355883" cy="-328.46760222824656" fill="#DD3355" r="2.5"/>
<circle cx="229.25232261615668" cy="-41.95337619998459" fill="#DD3355" r="2.5"/>
<circle cx="367.9010911162761" cy="-307.9221553755149" fill="#DD3355" r="2.5"/>
<circle cx="228.10884262151353" cy="-331.19076774186976" fill="#DD3355" r="2.5"/>
<circle cx="77.44006942006098" cy="-109.6742955537035" fill="#DD3355" r="2.5"/>
<circle cx="146.64488451450865" cy="-65.65447865706594" fill="#DD3355" r="2.5"/>
<circle cx="354.69784082387946" cy="-104.09621796028462" fill="#DD3355" r="2.5"/>
<circle cx="228.88749069068538" cy="-88.71777884645134" fill="#DD3355" r="2.5"/>
<circle cx="279.72050544740137" cy="-234.8497772441488" fill="#DD3355" r="2.5"/>
<circle cx="316.7709920362615" cy="-31.224877903582797" fill="#DD3355" r="2.5"/>
<circle cx="218.49378080994632" cy="-176.64827708342477" fill="#DD3355" r="2.5"/>
<circle cx="340.26123269491126" cy="-147.69915750423962" fill="#DD3355" r="2.5"/>
<circle cx="366.17373675397624" cy="-64.79500159643688" fill="#DD3355" r="2.5"/>
<circle cx="368.44851301821615" cy="-250.3310826935616" fill="#DD3355" r="2.5"/>
<circle cx="79.97068584061518" cy="-272.23548382454305" fill="#DD3355" r="2.5"/>
<circle cx="363.86018676283794" cy="-200.93491845538765" fill="#DD3355" r="2.5"/>
<circle cx="241.00934704270205" cy="-95.46362821937167" fill="#DD3355" r="2.5"/>
<circle cx="309.00925993956054" cy="-87.24806078391012" fill="#DD3355" r="2.5"/>
<circle cx="362.970104262322" cy="-88.92269465538797" fill="#DD3355" r="2.5"/>
<circle cx="423.12532705043026" cy="-134.48456284577406" fill="#DD3355" r="2.5"/>
<circle cx="283.7376879808803" cy="-333.5062615788898" fill="#DD3355" r="2.5"/>
<circle cx="237.55948972658268" cy="-326.34341497739933" fill="#DD3355" r="2.5"/>
<circle cx="215.76636698038044" cy="-144.52555407591035" fill="#DD3355" r="2.5"/>
<circle cx="148.86595746522312" cy="-51.09065266103285" fill="#DD3355" r="2.5"/>
<circle cx="453.3417127369154" cy="-75.53221397300432" fill="#DD3355" r="2.5"/>
<circle cx="296.5940895362633" cy="-135.53217538405468" fill="#DD3355" r="2.5"/>
<circle cx="306.5683248641473" cy="-329.85029939873885" fill="#DD3355" r="2.5"/>
<circle cx="308.8200943006256" cy="-53.61656787745623" fill="#DD3355" r="2.5"/>
<circle cx="366.25959450825485" cy="-250.1631206301633" fill="#DD3355" r="2.5"/>
<circle cx="204.8173147884206" cy="-116.1898491912888" fill="#DD3355" r="2.5"/>
<circle cx="418.6024996616071" cy="-50.2399567043063" fill="#DD3355" r="2.5"/>
<circle cx="224.39602480097577" cy="-271.4155963164553" fill="#DD3355" r="2.5"/>
<circle cx="91.47163815773374" cy="-63.20567673203012" fill="#DD3355" r="2.5"/>
<circle cx="181.41420547945197" cy="-115.80418741348815" fill="#DD3355" r="2.5"/>
<circle cx="89.74203477318032" cy="-234.2113373391903" fill="#DD3355" r="2.5"/>
<circle cx="341.8637331684804" cy="-299.1508842727176" fill="#DD3355" r="2.5"/>
<circle cx="223.88693493829913" cy="-131.9319645783656" fill="#DD3355" r="2.5"/>
<circle cx="341.6480133452471" cy="-54.5617171491003" fill="#DD3355" r="2.5"/>
<circle cx="252.97870588201178" cy="-217.24105041289096" fill="#DD3355" r="2.5"/>
<circle cx="481.36458879618203" cy="-182.73672436480737" fill="#DD3355" r="2.5"/>
<circle cx="131.40942472087514" cy="-300.6222569748457" fill="#DD3355" r="2.5"/>
<circle cx="380.9903582836326" cy="-262.10075714170557" fill="#DD3355" r="2.5"/>
<circle cx="270.6377576938802" cy="-137.357471538217" fill="#DD3355" r="2.5"/>
<circle cx="476.061324078741" cy="-107.11467515695934" fill="#DD3355" r="2.5"/>
<circle cx="423.9711977430154" cy="-147.99472106002497" fill="#DD3355" r="2.5"/>
<circle cx="196.31151318969097" cy="-282.40903013677" fill="#DD3355" r="2.5"/>
<circle cx="382.1579622922838" cy="-38.3207400573807" fill="#DD3355" r="2.5"/>
<circle cx="426.27905235328814" cy="-171.2869596288498" fill="#DD3355" r="2.5"/>
<circle cx="382.5846337060988" cy="-268.6106603037525" fill="#DD3355" r="2.5"/>
<circle cx="250.6337342061956" cy="-2.0706552912087517" fill="#DD3355" r="2.5"/>
<circle cx="57.8195771898653" cy="-261.24881453501655" fill="#DD3355" r="2.5"/>
<circle cx="380.3815976830539" cy="-111.3342476994112" fill="#DD3355" r="2.5"/>
<circle cx="373.19399378052265" cy="-145.8040019433301" fill="#DD3355" r="2.5"/>
</g>
<g>
<g>
<line stroke="black" stroke-width="1" x1="0" x2="0" y1="0" y2="10"/>
<line stroke="black" stroke-width="1" x1="100" x2="100" y1="0" y2="10"/>
<line stroke="black" stroke-width="1" x1="200" x2="200" y1="0" y2="10"/>
<line stroke="black" stroke-width="1" x1="300.00000000000006" x2="300.00000000000006" y1="0" y2="10"/>
<line stroke="black" stroke-width="1" x1="400" x2="400" y1="0" y2="10"/>
<line stroke="black" stroke-width="1" x1="500" x2="500" y1="0" y2="10"/>
</g>
<line stroke="black" stroke-width="1" x1="0" x2="500" y1="0" y2="0"/>
<g>
<text font-size="12" text-anchor="middle" x="0" y="20">
0
</text>
<text font-size="12" text-anchor="middle" x="100" y="20">
0.4
</text>
<text font-size="12" text-anchor="middle" x="200" y="20">
0.8
</text>
<text font-size="12" text-anchor="middle" x="300.00000000000006" y="20">
1.2000000000000002
</text>
<text font-size="12" text-anchor="middle" x="400" y="20">
1.6
</text>
<text font-size="12" text-anchor="middle" x="500" y="20">
2
</text>
</g>
<text font-size="12" text-anchor="middle" x="250" y="30">
x
</text>
</g>
<g>
<g>
<line stroke="black" stroke-width="1" x1="0" x2="-10" y1="0" y2="0"/>
<line stroke="black" stroke-width="1" x1="0" x2="-10" y1="-68" y2="-68"/>
<line stroke="black" stroke-width="1" x1="0" x2="-10" y1="-136" y2="-136"/>
<line stroke="black" stroke-width="1" x1="0" x2="-10" y1="-204.00000000000003" y2="-204.00000000000003"/>
<line stroke="black" stroke-width="1" x1="0" x2="-10" y1="-272" y2="-272"/>
<line stroke="black" stroke-width="1" x1="0" x2="-10" y1="-340" y2="-340"/>
</g>
<line stroke="black" stroke-0="1" x1="0" x2="0" y1="0" y2="-340"/>
<g>
<text dominant-baseline="middle" font-size="12" text-anchor="end" x="-15" y="0">
0
</text>
<text dominant-baseline="middle" font-size="12" text-anchor="end" x="-15" y="-68">
0.4
</text>
<text dominant-baseline="middle" font-size="12" text-anchor="end" x="-15" y="-136">
0.8
</text>
<text dominant-baseline="middle" font-size="12" text-anchor="end" x="-15" y="-204.00000000000003">
1.2000000000000002
</text>
<text dominant-baseline="middle" font-size="12" text-anchor="end" x="-15" y="-272">
1.6
</text>
<text dominant-baseline="middle" font-size="12" text-anchor="end" x="-15" y="-340">
2
</text>
</g>
<text font-size="12" text-anchor="middle" transform="rotate(-90 -30 -170)" x="-30" y="-170">
y
</text>
</g>
</g>
</svg>