<svg viewBox="0 0 600 400" xmlns="http://www.w3.org/2000/svg">
<g transform="translate(50, 360)">
<g>
<path d="M0,0 L0,0 L2.5,0 L5,0 L7.5,0 L10,0 L12.5,0 L15,0 L17.5,0 L20,0 L22.5,-54.55405 L25,-50.359737 L27.5,-46.487896 L30,-42.91374 L32.5,-39.614372 L35,-36.568672 L37.5,-33.75714 L40,-31.161768 L42.5,-28.765938 L45,-26.554308 L47.5,-24.512714 L50,-22.628088 L52.5,-20.888357 L55,-19.282385 L57.5,-17.799885 L60,-16.431364 L62.5,-15.168061 L65,-14.001885 L67.5,-12.925369 L70,-11.93162 L72.5,-11.014273 L75,-10.167456 L77.5,-9.385744 L80,-8.664134 L82.5,-7.9980035 L85,-59.009773 L87.5,-54.47289 L90,-50.284813 L92.5,-46.41873 L95,-42.84989 L97.5,-39.555435 L100,-36.514267 L102.5,-33.706917 L105,-31.115408 L107.5,-28.72314 L110,-26.514801 L112.5,-24.476246 L115,-22.594423 L117.5,-20.85728 L120,-19.253696 L122.5,-70.46336 L125,-65.04588 L127.5,-60.044918 L130,-107.17864 L132.5,-98.938354 L135,-91.33161 L137.5,-135.67427 L140,-125.24313 L142.5,-115.61398 L145,-106.72516 L147.5,-98.51974 L150,-90.94518 L152.5,-83.95299 L155,-77.498375 L157.5,-124.01104 L160,-114.476616 L162.5,-105.67523 L165,-97.55054 L167.5,-90.0505 L170,-83.12708 L172.5,-128.28534 L175,-169.50777 L177.5,-156.47539 L180,-144.44499 L182.5,-133.33952 L185,-123.0879 L187.5,-113.62445 L190,-104.88859 L192.5,-96.82437 L195,-89.38016 L197.5,-82.508286 L200,-76.16475 L202.5,-70.30892 L205,-64.90331 L207.5,-59.91331 L210,-55.306957 L212.5,-51.054756 L215,-47.12948 L217.5,-43.505993 L220,-40.161095 L222.5,-37.07336 L225,-34.223026 L227.5,-31.591835 L230,-29.16294 L232.5,-26.920786 L235,-24.851017 L237.5,-22.94038 L240,-21.17664 L242.5,-72.31118 L245,-66.75163 L247.5,-61.619522 L250,-56.88199 L252.5,-52.508694 L255,-48.471634 L257.5,-44.744957 L260,-41.304802 L262.5,-38.12914 L265,-86.73216 L267.5,-80.06388 L270,-73.90828 L272.5,-68.22594 L275,-115.32593 L277.5,-106.45924 L280,-98.27427 L282.5,-90.71859 L285,-136.985 L287.5,-126.45309 L290,-170.39821 L292.5,-157.29738 L295,-145.20378 L297.5,-134.03998 L300,-123.7345 L302.5,-114.22134 L305,-105.43958 L307.5,-97.333 L310,-89.849686 L312.5,-82.94171 L315,-76.56485 L317.5,-70.67827 L320,-65.24426 L322.5,-60.228046 L325,-55.597492 L327.5,-51.322956 L330,-47.37706 L332.5,-43.73454 L335,-40.372066 L337.5,-140.87042 L340,-130.03978 L342.5,-120.041855 L345,-110.8126 L347.5,-102.292915 L350,-94.42827 L352.5,-87.168274 L355,-80.46646 L357.5,-129.3209 L360,-119.37824 L362.5,-110.200005 L365,-101.727425 L367.5,-93.90625 L370,-86.68639 L372.5,-80.02163 L375,-73.86927 L377.5,-120.23733 L380,-163.91623 L382.5,-151.31375 L385,-139.6802 L387.5,-128.94109 L390,-119.02762 L392.5,-216.6955 L395,-200.03516 L397.5,-184.65572 L400,-170.45871 L402.5,-157.35323 L405,-145.25534 L407.5,-134.08757 L410,-176.77371 L412.5,-163.18271 L415,-150.63663 L417.5,-139.05513 L420,-180.02727 L422.5,-166.18611 L425,-205.75862 L427.5,-294.07755 L430,-324.17273 L432.5,-299.24915 L435,-276.24176 L437.5,-255.0033 L440,-235.3977 L442.5,-217.29947 L445,-200.5927 L447.5,-185.1704 L450,-170.93382 L452.5,-157.7918 L455,-145.66019 L457.5,-185.76537 L460,-171.48305 L462.5,-158.29881 L465,-146.12822 L467.5,-186.32921 L470,-172.00354 L472.5,-158.77928 L475,-199.5151 L477.5,-184.17566 L480,-224.80652 L482.5,-207.52257 L485,-191.56747 L487.5,-230.26675 L490,-212.563 L492.5,-250.74577 L495,-231.46753 L497.5,-213.67145 L500,-250.78609" fill="none" stroke="#4C36EB" stroke-width="1.5"/>
</g>
<g>
<path d="M20.087929,-2 l4,4 m-4,0 l4,-4 z" fill="none" stroke="#E0A536" stroke-width="2"/>
<path d="M80.86439,-57.27818 l4,4 m-4,0 l4,-4 z" fill="none" stroke="#E0A536" stroke-width="2"/>
<path d="M119.00146,-65.183464 l4,4 m-4,0 l4,-4 z" fill="none" stroke="#E0A536" stroke-width="2"/>
<path d="M125.939064,-75.924644 l4,4 m-4,0 l4,-4 z" fill="none" stroke="#E0A536" stroke-width="2"/>
<path d="M133.20532,-116.48537 l4,4 m-4,0 l4,-4 z" fill="none" stroke="#E0A536" stroke-width="2"/>
<path d="M153.87134,-148.01169 l4,4 m-4,0 l4,-4 z" fill="none" stroke="#E0A536" stroke-width="2"/>
<path d="M168.31755,-132.64552 l4,4 m-4,0 l4,-4 z" fill="none" stroke="#E0A536" stroke-width="2"/>
<path d="M170.53505,-139.56482 l4,4 m-4,0 l4,-4 z" fill="none" stroke="#E0A536" stroke-width="2"/>
<path d="M239.04456,-185.41971 l4,4 m-4,0 l4,-4 z" fill="none" stroke="#E0A536" stroke-width="2"/>
<path d="M260.80856,-77.758675 l4,4 m-4,0 l4,-4 z" fill="none" stroke="#E0A536" stroke-width="2"/>
<path d="M271.29645,-95.032684 l4,4 m-4,0 l4,-4 z" fill="none" stroke="#E0A536" stroke-width="2"/>
<path d="M281.8267,-123.78724 l4,4 m-4,0 l4,-4 z" fill="none" stroke="#E0A536" stroke-width="2"/>
<path d="M287.0758,-144.22601 l4,4 m-4,0 l4,-4 z" fill="none" stroke="#E0A536" stroke-width="2"/>
<path d="M333.46387,-177.5129 l4,4 m-4,0 l4,-4 z" fill="none" stroke="#E0A536" stroke-width="2"/>
<path d="M333.47574,-97.05539 l4,4 m-4,0 l4,-4 z" fill="none" stroke="#E0A536" stroke-width="2"/>
<path d="M355.36563,-152.29745 l4,4 m-4,0 l4,-4 z" fill="none" stroke="#E0A536" stroke-width="2"/>
<path d="M373.618,-131.87817 l4,4 m-4,0 l4,-4 z" fill="none" stroke="#E0A536" stroke-width="2"/>
<path d="M376.6395,-129.70093 l4,4 m-4,0 l4,-4 z" fill="none" stroke="#E0A536" stroke-width="2"/>
<path d="M388.4598,-173.2102 l4,4 m-4,0 l4,-4 z" fill="none" stroke="#E0A536" stroke-width="2"/>
<path d="M390.36197,-174.56721 l4,4 m-4,0 l4,-4 z" fill="none" stroke="#E0A536" stroke-width="2"/>
<path d="M406.682,-219.65471 l4,4 m-4,0 l4,-4 z" fill="none" stroke="#E0A536" stroke-width="2"/>
<path d="M415.88647,-186.38867 l4,4 m-4,0 l4,-4 z" fill="none" stroke="#E0A536" stroke-width="2"/>
<path d="M421.2989,-194.62413 l4,4 m-4,0 l4,-4 z" fill="none" stroke="#E0A536" stroke-width="2"/>
<path d="M423.4963,-219.2697 l4,4 m-4,0 l4,-4 z" fill="none" stroke="#E0A536" stroke-width="2"/>
<path d="M423.76532,-259.79474 l4,4 m-4,0 l4,-4 z" fill="none" stroke="#E0A536" stroke-width="2"/>
<path d="M426.51035,-312.86343 l4,4 m-4,0 l4,-4 z" fill="none" stroke="#E0A536" stroke-width="2"/>
<path d="M453.1685,-342 l4,4 m-4,0 l4,-4 z" fill="none" stroke="#E0A536" stroke-width="2"/>
<path d="M463.24866,-202.15512 l4,4 m-4,0 l4,-4 z" fill="none" stroke="#E0A536" stroke-width="2"/>
<path d="M471.6514,-202.2482 l4,4 m-4,0 l4,-4 z" fill="none" stroke="#E0A536" stroke-width="2"/>
<path d="M477.72333,-210.31381 l4,4 m-4,0 l4,-4 z" fill="none" stroke="#E0A536" stroke-width="2"/>
<path d="M484.43597,-228.80557 l4,4 m-4,0 l4,-4 z" fill="none" stroke="#E0A536" stroke-width="2"/>
<path d="M490.0715,-240.24214 l4,4 m-4,0 l4,-4 z" fill="none" stroke="#E0A536" stroke-width="2"/>
<path d="M497.00302,-256.20764 l4,4 m-4,0 l4,-4 z" fill="none" stroke="#E0A536" stroke-width="2"/>
</g>
<g>
<g>
<line stroke="black" stroke-width="1" x1="0" x2="0" y1="0" y2="10"/>
<line stroke="black" stroke-width="1" x1="100" x2="100" y1="0" y2="10"/>
<line stroke="black" stroke-width="1" x1="200" x2="200" y1="0" y2="10"/>
<line stroke="black" stroke-width="1" x1="300" x2="300" y1="0" y2="10"/>
<line stroke="black" stroke-width="1" x1="400" x2="400" y1="0" y2="10"/>
<line stroke="black" stroke-width="1" x1="500" x2="500" y1="0" y2="10"/>
</g>
<line stroke="black" stroke-width="1" x1="0" x2="500" y1="0" y2="0"/>
<g>
<text font-size="12" text-anchor="middle" x="0" y="20">
0
</text>
<text font-size="12" text-anchor="middle" x="100" y="20">
4
</text>
<text font-size="12" text-anchor="middle" x="200" y="20">
8
</text>
<text font-size="12" text-anchor="middle" x="300" y="20">
12
</text>
<text font-size="12" text-anchor="middle" x="400" y="20">
16
</text>
<text font-size="12" text-anchor="middle" x="500" y="20">
20
</text>
</g>
<text font-size="12" text-anchor="middle" x="250" y="30">
Temps t
</text>
</g>
<g>
<g>
<line stroke="black" stroke-width="1" x1="0" x2="-10" y1="0" y2="0"/>
<line stroke="black" stroke-width="1" x1="0" x2="-10" y1="-92.13030101914245" y2="-92.13030101914245"/>
<line stroke="black" stroke-width="1" x1="0" x2="-10" y1="-184.2606020382849" y2="-184.2606020382849"/>
<line stroke="black" stroke-width="1" x1="0" x2="-10" y1="-276.39090305742735" y2="-276.39090305742735"/>
</g>
<line stroke="black" stroke-0="1" x1="0" x2="0" y1="0" y2="-340"/>
<g>
<text dominant-baseline="middle" font-size="12" text-anchor="end" x="-15" y="0">
1
</text>
<text dominant-baseline="middle" font-size="12" text-anchor="end" x="-15" y="-92.13030101914245">
2
</text>
<text dominant-baseline="middle" font-size="12" text-anchor="end" x="-15" y="-184.2606020382849">
3
</text>
<text dominant-baseline="middle" font-size="12" text-anchor="end" x="-15" y="-276.39090305742735">
4
</text>
</g>
<text font-size="12" text-anchor="middle" transform="rotate(-90 -30 -170)" x="-30" y="-170">
Intensité λ(t)
</text>
</g>
</g>
</svg>