<svg viewBox="0 0 600 400" xmlns="http://www.w3.org/2000/svg">
<g transform="translate(50, 360)">
<g>
<path d="M71.013466,-27.643427 l5,5 m-5,0 l5,-5 z" fill="none" stroke="#E0A536" stroke-width="2"/>
<path d="M290.3845,-100.638016 l5,5 m-5,0 l5,-5 z" fill="none" stroke="#E0A536" stroke-width="2"/>
<path d="M300.31464,-57.546585 l5,5 m-5,0 l5,-5 z" fill="none" stroke="#E0A536" stroke-width="2"/>
<path d="M228.71172,-52.582893 l5,5 m-5,0 l5,-5 z" fill="none" stroke="#E0A536" stroke-width="2"/>
<path d="M133.51422,-36.945793 l5,5 m-5,0 l5,-5 z" fill="none" stroke="#E0A536" stroke-width="2"/>
<path d="M187.4434,-123.429016 l5,5 m-5,0 l5,-5 z" fill="none" stroke="#E0A536" stroke-width="2"/>
<path d="M20.152655,-294.3988 l5,5 m-5,0 l5,-5 z" fill="none" stroke="#E0A536" stroke-width="2"/>
<path d="M33.1938,-225.38254 l5,5 m-5,0 l5,-5 z" fill="none" stroke="#E0A536" stroke-width="2"/>
<path d="M366.47293,-78.9096 l5,5 m-5,0 l5,-5 z" fill="none" stroke="#E0A536" stroke-width="2"/>
<path d="M9.407672,-244.93398 l5,5 m-5,0 l5,-5 z" fill="none" stroke="#E0A536" stroke-width="2"/>
<path d="M419.99524,-76.7008 l5,5 m-5,0 l5,-5 z" fill="none" stroke="#E0A536" stroke-width="2"/>
<path d="M150.28067,-90.812836 l5,5 m-5,0 l5,-5 z" fill="none" stroke="#E0A536" stroke-width="2"/>
<path d="M111.3176,-10.875018 l5,5 m-5,0 l5,-5 z" fill="none" stroke="#E0A536" stroke-width="2"/>
<path d="M201.90509,-92.55174 l5,5 m-5,0 l5,-5 z" fill="none" stroke="#E0A536" stroke-width="2"/>
<path d="M248.8423,-75.84248 l5,5 m-5,0 l5,-5 z" fill="none" stroke="#E0A536" stroke-width="2"/>
<path d="M439.0505,-88.77499 l5,5 m-5,0 l5,-5 z" fill="none" stroke="#E0A536" stroke-width="2"/>
<path d="M135.7942,-61.41235 l5,5 m-5,0 l5,-5 z" fill="none" stroke="#E0A536" stroke-width="2"/>
<path d="M10.295482,-131.7098 l5,5 m-5,0 l5,-5 z" fill="none" stroke="#E0A536" stroke-width="2"/>
<path d="M209.25961,-18.953882 l5,5 m-5,0 l5,-5 z" fill="none" stroke="#E0A536" stroke-width="2"/>
<path d="M249.61838,-162.08943 l5,5 m-5,0 l5,-5 z" fill="none" stroke="#E0A536" stroke-width="2"/>
<path d="M294.04315,-43.736256 l5,5 m-5,0 l5,-5 z" fill="none" stroke="#E0A536" stroke-width="2"/>
<path d="M114.36751,-179.21796 l5,5 m-5,0 l5,-5 z" fill="none" stroke="#E0A536" stroke-width="2"/>
<path d="M43.45204,-6.198301 l5,5 m-5,0 l5,-5 z" fill="none" stroke="#E0A536" stroke-width="2"/>
<path d="M122.52777,-12.90798 l5,5 m-5,0 l5,-5 z" fill="none" stroke="#E0A536" stroke-width="2"/>
<path d="M332.45712,-12.471592 l5,5 m-5,0 l5,-5 z" fill="none" stroke="#E0A536" stroke-width="2"/>
<path d="M15.280822,-27.85989 l5,5 m-5,0 l5,-5 z" fill="none" stroke="#E0A536" stroke-width="2"/>
<path d="M342.64285,-184.72328 l5,5 m-5,0 l5,-5 z" fill="none" stroke="#E0A536" stroke-width="2"/>
<path d="M117.63065,-217.00845 l5,5 m-5,0 l5,-5 z" fill="none" stroke="#E0A536" stroke-width="2"/>
<path d="M20.376991,-9.361049 l5,5 m-5,0 l5,-5 z" fill="none" stroke="#E0A536" stroke-width="2"/>
<path d="M87.034546,-47.573917 l5,5 m-5,0 l5,-5 z" fill="none" stroke="#E0A536" stroke-width="2"/>
<path d="M466.21152,-144.9387 l5,5 m-5,0 l5,-5 z" fill="none" stroke="#E0A536" stroke-width="2"/>
<path d="M121.32731,-208.79425 l5,5 m-5,0 l5,-5 z" fill="none" stroke="#E0A536" stroke-width="2"/>
<path d="M140.51324,-2.5 l5,5 m-5,0 l5,-5 z" fill="none" stroke="#E0A536" stroke-width="2"/>
<path d="M198.95949,-133.13246 l5,5 m-5,0 l5,-5 z" fill="none" stroke="#E0A536" stroke-width="2"/>
<path d="M281.5099,-150.17398 l5,5 m-5,0 l5,-5 z" fill="none" stroke="#E0A536" stroke-width="2"/>
<path d="M338.43866,-204.8972 l5,5 m-5,0 l5,-5 z" fill="none" stroke="#E0A536" stroke-width="2"/>
<path d="M203.44812,-45.79987 l5,5 m-5,0 l5,-5 z" fill="none" stroke="#E0A536" stroke-width="2"/>
<path d="M427.3275,-123.72753 l5,5 m-5,0 l5,-5 z" fill="none" stroke="#E0A536" stroke-width="2"/>
<path d="M144.98227,-116.962395 l5,5 m-5,0 l5,-5 z" fill="none" stroke="#E0A536" stroke-width="2"/>
<path d="M361.07138,-56.613026 l5,5 m-5,0 l5,-5 z" fill="none" stroke="#E0A536" stroke-width="2"/>
<path d="M408.68762,-122.994675 l5,5 m-5,0 l5,-5 z" fill="none" stroke="#E0A536" stroke-width="2"/>
<path d="M7.260744,-56.775356 l5,5 m-5,0 l5,-5 z" fill="none" stroke="#E0A536" stroke-width="2"/>
<path d="M392.40582,-110.74073 l5,5 m-5,0 l5,-5 z" fill="none" stroke="#E0A536" stroke-width="2"/>
<path d="M153.24731,-40.289146 l5,5 m-5,0 l5,-5 z" fill="none" stroke="#E0A536" stroke-width="2"/>
<path d="M377.56287,-7.434392 l5,5 m-5,0 l5,-5 z" fill="none" stroke="#E0A536" stroke-width="2"/>
<path d="M265.3011,-43.486397 l5,5 m-5,0 l5,-5 z" fill="none" stroke="#E0A536" stroke-width="2"/>
<path d="M219.43312,-191.67332 l5,5 m-5,0 l5,-5 z" fill="none" stroke="#E0A536" stroke-width="2"/>
<path d="M432.81287,-164.5804 l5,5 m-5,0 l5,-5 z" fill="none" stroke="#E0A536" stroke-width="2"/>
<path d="M244.81314,-176.63455 l5,5 m-5,0 l5,-5 z" fill="none" stroke="#E0A536" stroke-width="2"/>
<path d="M283.43814,-110.819084 l5,5 m-5,0 l5,-5 z" fill="none" stroke="#E0A536" stroke-width="2"/>
<path d="M434.00943,-70.88312 l5,5 m-5,0 l5,-5 z" fill="none" stroke="#E0A536" stroke-width="2"/>
<path d="M413.90076,-51.42458 l5,5 m-5,0 l5,-5 z" fill="none" stroke="#E0A536" stroke-width="2"/>
<path d="M107.21961,-5.899897 l5,5 m-5,0 l5,-5 z" fill="none" stroke="#E0A536" stroke-width="2"/>
<path d="M84.19265,-86.0923 l5,5 m-5,0 l5,-5 z" fill="none" stroke="#E0A536" stroke-width="2"/>
<path d="M497.08072,-104.36106 l5,5 m-5,0 l5,-5 z" fill="none" stroke="#E0A536" stroke-width="2"/>
<path d="M45.38086,-37.16212 l5,5 m-5,0 l5,-5 z" fill="none" stroke="#E0A536" stroke-width="2"/>
<path d="M480.37985,-120.23119 l5,5 m-5,0 l5,-5 z" fill="none" stroke="#E0A536" stroke-width="2"/>
<path d="M437.74652,-186.92653 l5,5 m-5,0 l5,-5 z" fill="none" stroke="#E0A536" stroke-width="2"/>
<path d="M423.73416,-46.250504 l5,5 m-5,0 l5,-5 z" fill="none" stroke="#E0A536" stroke-width="2"/>
<path d="M393.97375,-166.41377 l5,5 m-5,0 l5,-5 z" fill="none" stroke="#E0A536" stroke-width="2"/>
</g>
<g>
<path d="M0,-180.98788 L0,-180.98788 L2.5,-208.2532 L5,-234.10347 L7.5,-258.00287 L10,-279.47504 L12.5,-298.11188 L15,-313.58078 L17.5,-325.62967 L20,-334.09045 L22.5,-338.88007 L25,-340 L27.5,-337.5337 L30,-331.64224 L32.5,-322.5585 L35,-310.5798 L37.5,-296.05942 L40,-279.39685 L42.5,-261.02777 L45,-241.4131 L47.5,-221.02791 L50,-200.3505 L52.5,-179.85153 L55,-159.9838 L57.5,-141.17258 L60,-123.806984 L62.5,-108.232346 L65,-94.743744 L67.5,-83.580925 L70,-74.92459 L72.5,-68.89409 L75,-65.54656 L77.5,-64.87753 L80,-66.82277 L82.5,-71.26156 L85,-78.02101 L87.5,-86.8815 L90,-97.58294 L92.5,-109.8318 L95,-123.308655 L97.5,-137.67606 L100,-152.58664 L102.5,-167.69118 L105,-182.64642 L107.5,-197.12262 L110,-210.81046 L112.5,-223.42735 L115,-234.72305 L117.5,-244.48419 L120,-252.53801 L122.5,-258.755 L125,-263.05057 L127.5,-265.38544 L130,-265.76544 L132.5,-264.23984 L135,-260.89908 L137.5,-255.87138 L140,-249.31902 L142.5,-241.43344 L145,-232.43024 L147.5,-222.54364 L150,-212.02068 L152.5,-201.11526 L155,-190.08241 L157.5,-179.17241 L160,-168.62543 L162.5,-158.66638 L165,-149.50046 L167.5,-141.309 L170,-134.24629 L172.5,-128.43675 L175,-123.973175 L177.5,-120.91552 L180,-119.29055 L182.5,-119.09225 L185,-120.282875 L187.5,-122.79478 L190,-126.53277 L192.5,-131.3771 L195,-137.18681 L197.5,-143.80357 L200,-151.05566 L202.5,-158.76225 L205,-166.73773 L207.5,-174.7959 L210,-182.75429 L212.5,-190.438 L215,-197.68346 L217.5,-204.3417 L220,-210.28134 L222.5,-215.39085 L225,-219.58063 L227.5,-222.78423 L230,-224.95918 L232.5,-226.08731 L235,-226.17436 L237.5,-225.24913 L240,-223.36221 L242.5,-220.58421 L245,-217.00352 L247.5,-212.72389 L250,-207.86159 L252.5,-202.5425 L255,-196.89897 L257.5,-191.0667 L260,-185.18158 L262.5,-179.37668 L265,-173.77934 L267.5,-168.50851 L270,-163.67232 L272.5,-159.36597 L275,-155.67004 L277.5,-152.64906 L280,-150.35062 L282.5,-148.80469 L285,-148.02359 L287.5,-148.00217 L290,-148.71844 L292.5,-150.13461 L295,-152.19836 L297.5,-154.84442 L300,-157.99644 L302.5,-161.56908 L305,-165.47002 L307.5,-169.60243 L310,-173.86713 L312.5,-178.16489 L315,-182.39871 L317.5,-186.47588 L320,-190.30992 L322.5,-193.82236 L325,-196.94418 L327.5,-199.6172 L330,-201.79495 L332.5,-203.4434 L335,-204.54137 L337.5,-205.08057 L340,-205.06548 L342.5,-204.51282 L345,-203.45082 L347.5,-201.91827 L350,-199.96333 L352.5,-197.64215 L355,-195.01744 L357.5,-192.1568 L360,-189.13113 L362.5,-186.01294 L365,-182.8746 L367.5,-179.78687 L370,-176.81721 L372.5,-174.02853 L375,-171.47777 L377.5,-169.2149 L380,-167.28198 L382.5,-165.71245 L385,-164.53064 L387.5,-163.75148 L390,-163.38051 L392.5,-163.41394 L395,-163.83908 L397.5,-164.63484 L400,-165.7725 L402.5,-167.21652 L405,-168.9256 L407.5,-170.85368 L410,-172.95125 L412.5,-175.1664 L415,-177.44615 L417.5,-179.73767 L420,-181.98941 L422.5,-184.15222 L425,-186.1804 L427.5,-188.03261 L430,-189.67267 L432.5,-191.07019 L435,-192.20111 L437.5,-193.04805 L440,-193.60048 L442.5,-193.85475 L445,-193.814 L447.5,-193.48784 L450,-192.892 L452.5,-192.04779 L455,-190.98138 L457.5,-189.72319 L460,-188.30699 L462.5,-186.7691 L465,-185.14748 L467.5,-183.48083 L470,-181.80775 L472.5,-180.16579 L475,-178.59071 L477.5,-177.11577 L480,-175.77094 L482.5,-174.58241 L485,-173.57216 L487.5,-172.75746 L490,-172.15076 L492.5,-171.75945 L495,-171.5859 L497.5,-171.6276 L500,-171.8772" fill="none" stroke="#4C36EB" stroke-width="1.5"/>
</g>
<g>
<g>
<line stroke="black" stroke-width="1" x1="0" x2="0" y1="0" y2="10"/>
<line stroke="black" stroke-width="1" x1="166.66666666666666" x2="166.66666666666666" y1="0" y2="10"/>
<line stroke="black" stroke-width="1" x1="333.3333333333333" x2="333.3333333333333" y1="0" y2="10"/>
<line stroke="black" stroke-width="1" x1="500" x2="500" y1="0" y2="10"/>
</g>
<line stroke="black" stroke-width="1" x1="0" x2="500" y1="0" y2="0"/>
<g>
<text font-size="12" text-anchor="middle" x="0" y="20">
0
</text>
<text font-size="12" text-anchor="middle" x="166.66666666666666" y="20">
20
</text>
<text font-size="12" text-anchor="middle" x="333.3333333333333" y="20">
40
</text>
<text font-size="12" text-anchor="middle" x="500" y="20">
60
</text>
</g>
<text font-size="12" text-anchor="middle" x="250" y="30">
Temps t
</text>
</g>
<g>
<g>
<line stroke="black" stroke-width="1" x1="0" x2="-10" y1="-69.86208383504184" y2="-69.86208383504184"/>
<line stroke="black" stroke-width="1" x1="0" x2="-10" y1="-143.94595229529943" y2="-143.94595229529943"/>
<line stroke="black" stroke-width="1" x1="0" x2="-10" y1="-218.02982075555707" y2="-218.02982075555707"/>
<line stroke="black" stroke-width="1" x1="0" x2="-10" y1="-292.11368921581465" y2="-292.11368921581465"/>
</g>
<line stroke="black" stroke-0="1" x1="0" x2="0" y1="0" y2="-340"/>
<g>
<text dominant-baseline="middle" font-size="12" text-anchor="end" x="-15" y="-69.86208383504184">
0.4
</text>
<text dominant-baseline="middle" font-size="12" text-anchor="end" x="-15" y="-143.94595229529943">
0.8
</text>
<text dominant-baseline="middle" font-size="12" text-anchor="end" x="-15" y="-218.02982075555707">
1.2000000000000002
</text>
<text dominant-baseline="middle" font-size="12" text-anchor="end" x="-15" y="-292.11368921581465">
1.6
</text>
</g>
<text font-size="12" text-anchor="middle" transform="rotate(-90 -30 -170)" x="-30" y="-170">
Intensité λ(t)
</text>
</g>
</g>
</svg>