<svg viewBox="0 0 600 600" xmlns="http://www.w3.org/2000/svg">
<g transform="translate(48, 564)">
<g>
<circle cx="73.07294779997432" cy="-226.56964463745922" fill="#C93E3E" r="2.5"/>
<circle cx="351.5202676672913" cy="-139.61648588836252" fill="#C93E3E" r="2.5"/>
<circle cx="325.52925665091317" cy="-427.530080255069" fill="#C93E3E" r="2.5"/>
<circle cx="155.99558355358081" cy="-403.35398762788134" fill="#C93E3E" r="2.5"/>
<circle cx="142.5965917870461" cy="-373.4271936697961" fill="#C93E3E" r="2.5"/>
<circle cx="370.1082812386457" cy="-246.47332192033463" fill="#C93E3E" r="2.5"/>
<circle cx="101.45128837872474" cy="-50.34777334388027" fill="#C93E3E" r="2.5"/>
<circle cx="306.99662066308304" cy="-463.7664950511136" fill="#C93E3E" r="2.5"/>
<circle cx="106.98856847384626" cy="-462.3478368431755" fill="#C93E3E" r="2.5"/>
<circle cx="48.43936296180714" cy="-421.89860765123206" fill="#C93E3E" r="2.5"/>
<circle cx="53.43758169986498" cy="-47.85539866067143" fill="#C93E3E" r="2.5"/>
<circle cx="452.36902066694597" cy="-373.13784176335673" fill="#C93E3E" r="2.5"/>
<circle cx="18.794914677462433" cy="-501.18583866312576" fill="#C93E3E" r="2.5"/>
<circle cx="189.87412103290907" cy="-201.83794157905965" fill="#C93E3E" r="2.5"/>
<circle cx="408.3368521293766" cy="-359.8205946763731" fill="#C93E3E" r="2.5"/>
<circle cx="403.9796378172632" cy="-158.36807177480927" fill="#C93E3E" r="2.5"/>
<circle cx="144.35276395014142" cy="-121.92343813603463" fill="#C93E3E" r="2.5"/>
<circle cx="68.00311768880333" cy="-493.0446889848018" fill="#C93E3E" r="2.5"/>
<circle cx="350.3529897460049" cy="-131.22733535254966" fill="#C93E3E" r="2.5"/>
<circle cx="68.54580639533266" cy="-424.2527487284364" fill="#C93E3E" r="2.5"/>
<circle cx="136.94252337172486" cy="-480.4369465468289" fill="#C93E3E" r="2.5"/>
<circle cx="417.8989940809839" cy="-477.3153414202515" fill="#C93E3E" r="2.5"/>
<circle cx="307.5585329364512" cy="-362.48247563830074" fill="#C93E3E" r="2.5"/>
<circle cx="452.3707183556446" cy="-256.40643138221657" fill="#C93E3E" r="2.5"/>
<circle cx="31.744843426009783" cy="-303.62637296743054" fill="#C93E3E" r="2.5"/>
<circle cx="43.27893546871355" cy="-319.7427387209677" fill="#C93E3E" r="2.5"/>
<circle cx="517.5751826370761" cy="-212.19639950785844" fill="#C93E3E" r="2.5"/>
<circle cx="475.12834388769534" cy="-49.8967248066727" fill="#C93E3E" r="2.5"/>
<circle cx="8.244981025866513" cy="-468.0493010195377" fill="#C93E3E" r="2.5"/>
<circle cx="238.71985375311147" cy="-464.5251242738757" fill="#C93E3E" r="2.5"/>
<circle cx="492.10822122762903" cy="-387.026801235373" fill="#C93E3E" r="2.5"/>
<circle cx="308.8133525636981" cy="-438.05633876820093" fill="#C93E3E" r="2.5"/>
<circle cx="85.30799331296939" cy="-24.133547223441028" fill="#C93E3E" r="2.5"/>
<circle cx="215.9849827961833" cy="-243.58385479675738" fill="#C93E3E" r="2.5"/>
<circle cx="427.44533686930873" cy="-211.88176341917438" fill="#C93E3E" r="2.5"/>
<circle cx="365.3517685121795" cy="-422.2190893167411" fill="#C93E3E" r="2.5"/>
<circle cx="447.08928976300945" cy="-72.91449571791462" fill="#C93E3E" r="2.5"/>
<circle cx="144.55733367298768" cy="-227.46567979411165" fill="#C93E3E" r="2.5"/>
<circle cx="410.1449710415673" cy="-425.5205762685422" fill="#C93E3E" r="2.5"/>
<circle cx="246.4835156204247" cy="-297.4420826747237" fill="#C93E3E" r="2.5"/>
<circle cx="80.30159049064073" cy="-271.6893754776648" fill="#C93E3E" r="2.5"/>
<circle cx="299.4460229104102" cy="-67.04606315848426" fill="#C93E3E" r="2.5"/>
<circle cx="61.94830356608895" cy="-447.6807331298602" fill="#C93E3E" r="2.5"/>
<circle cx="281.7379723757381" cy="-253.73537024067696" fill="#C93E3E" r="2.5"/>
<circle cx="184.45991003000006" cy="-386.5586173324631" fill="#C93E3E" r="2.5"/>
<circle cx="133.03472896782182" cy="-453.87689427853195" fill="#C93E3E" r="2.5"/>
<circle cx="472.1673780341598" cy="-388.9972014956254" fill="#C93E3E" r="2.5"/>
<circle cx="191.74527417790713" cy="-203.54861067967514" fill="#C93E3E" r="2.5"/>
<circle cx="403.32442421843444" cy="-233.88559724881185" fill="#C93E3E" r="2.5"/>
<circle cx="144.78869176939975" cy="-441.89563007541665" fill="#C93E3E" r="2.5"/>
<circle cx="169.75211798404325" cy="-114.42859940832082" fill="#C93E3E" r="2.5"/>
<circle cx="204.65309380806886" cy="-469.41325241527846" fill="#C93E3E" r="2.5"/>
<circle cx="43.27252718726506" cy="-361.52943337548584" fill="#C93E3E" r="2.5"/>
<circle cx="340.50652567512793" cy="-421.68598259844146" fill="#C93E3E" r="2.5"/>
<circle cx="324.91136706215127" cy="-362.13289001272017" fill="#C93E3E" r="2.5"/>
<circle cx="97.83720239171033" cy="-11.067938064673498" fill="#C93E3E" r="2.5"/>
<circle cx="205.97031741328502" cy="-327.7353430807577" fill="#C93E3E" r="2.5"/>
<circle cx="431.6139730995664" cy="-373.24203781687135" fill="#C93E3E" r="2.5"/>
<circle cx="205.55905017602188" cy="-491.1862155054942" fill="#C93E3E" r="2.5"/>
<circle cx="248.38026101193498" cy="-269.53047496146297" fill="#C93E3E" r="2.5"/>
<circle cx="491.89662418656684" cy="-131.04404233396906" fill="#C93E3E" r="2.5"/>
<circle cx="254.5879214023222" cy="-409.8302529629932" fill="#C93E3E" r="2.5"/>
<circle cx="33.59949108781072" cy="-252.8821468239796" fill="#C93E3E" r="2.5"/>
<circle cx="312.4592753350414" cy="-205.8194386200549" fill="#C93E3E" r="2.5"/>
<circle cx="500.40274017126563" cy="-65.33557803731554" fill="#C93E3E" r="2.5"/>
<circle cx="279.957033582593" cy="-232.25090824031682" fill="#C93E3E" r="2.5"/>
<circle cx="205.53004573361852" cy="-493.23658124917637" fill="#C93E3E" r="2.5"/>
<circle cx="87.0690672780603" cy="-407.3285843659769" fill="#C93E3E" r="2.5"/>
<circle cx="161.69273286348323" cy="-488.70035904679133" fill="#C93E3E" r="2.5"/>
<circle cx="297.50149680930156" cy="-139.64931545842646" fill="#C93E3E" r="2.5"/>
<circle cx="177.09317191287147" cy="-457.423595187417" fill="#C93E3E" r="2.5"/>
<circle cx="192.85488410658073" cy="-439.7818649779245" fill="#C93E3E" r="2.5"/>
<circle cx="380.22141813290506" cy="-163.947459646514" fill="#C93E3E" r="2.5"/>
<circle cx="74.06131918357829" cy="-401.1848423292851" fill="#C93E3E" r="2.5"/>
<circle cx="238.0677210545258" cy="-362.5341047740698" fill="#C93E3E" r="2.5"/>
<circle cx="256.25226950708526" cy="-434.6698917422023" fill="#C93E3E" r="2.5"/>
<circle cx="57.758475350757564" cy="-264.4174590588109" fill="#C93E3E" r="2.5"/>
<circle cx="396.994914889882" cy="-512.2458989635523" fill="#C93E3E" r="2.5"/>
<circle cx="130.75119723207905" cy="-270.9162486676098" fill="#C93E3E" r="2.5"/>
<circle cx="455.8206009983316" cy="-336.8467872138267" fill="#C93E3E" r="2.5"/>
<circle cx="497.7088389688805" cy="-177.22067814653678" fill="#C93E3E" r="2.5"/>
<circle cx="465.32855787768415" cy="-478.72534554663855" fill="#C93E3E" r="2.5"/>
<circle cx="238.22148367207325" cy="-23.485487833324555" fill="#C93E3E" r="2.5"/>
<circle cx="98.75317178063626" cy="-46.14523955142848" fill="#C93E3E" r="2.5"/>
<circle cx="307.10704590264714" cy="-233.0949753863767" fill="#C93E3E" r="2.5"/>
<circle cx="129.4422838764658" cy="-303.5384398389215" fill="#C93E3E" r="2.5"/>
<circle cx="37.087656435295486" cy="-239.56599627241397" fill="#C93E3E" r="2.5"/>
<circle cx="127.50409437387768" cy="-437.7759341954754" fill="#C93E3E" r="2.5"/>
<circle cx="454.9496203650737" cy="-123.64856347239851" fill="#C93E3E" r="2.5"/>
<circle cx="514.1693318425687" cy="-491.9795537162867" fill="#C93E3E" r="2.5"/>
<circle cx="82.44900994729835" cy="-479.3319322631504" fill="#C93E3E" r="2.5"/>
<circle cx="169.41611241178168" cy="-254.15272469641286" fill="#C93E3E" r="2.5"/>
<circle cx="116.20757604668941" cy="-301.65454844601544" fill="#C93E3E" r="2.5"/>
<circle cx="335.5126946773238" cy="-257.590839990884" fill="#C93E3E" r="2.5"/>
<circle cx="167.91545213649056" cy="-336.80860175132307" fill="#C93E3E" r="2.5"/>
<circle cx="383.75791387952194" cy="-386.8527772954458" fill="#C93E3E" r="2.5"/>
<circle cx="34.92462742128984" cy="-313.1252645334707" fill="#C93E3E" r="2.5"/>
<circle cx="384.9171671400513" cy="-279.91875544604596" fill="#C93E3E" r="2.5"/>
<circle cx="510.0992612784777" cy="-233.24008589776844" fill="#C93E3E" r="2.5"/>
<circle cx="259.3137867921892" cy="-55.58269724055443" fill="#C93E3E" r="2.5"/>
<circle cx="179.61402628313436" cy="-205.30489313484466" fill="#C93E3E" r="2.5"/>
<circle cx="357.8080442930807" cy="-343.7817651124909" fill="#C93E3E" r="2.5"/>
<circle cx="229.7352843934974" cy="-382.9456230404471" fill="#C93E3E" r="2.5"/>
<circle cx="2.281421214284167" cy="-20.236918689894914" fill="#C93E3E" r="2.5"/>
<circle cx="369.25499202075537" cy="-292.74235831759336" fill="#C93E3E" r="2.5"/>
<circle cx="176.74851118099292" cy="-111.48004112749943" fill="#C93E3E" r="2.5"/>
<circle cx="476.7040825009533" cy="-156.57190968375986" fill="#C93E3E" r="2.5"/>
<circle cx="111.7214267296244" cy="-438.42398721748503" fill="#C93E3E" r="2.5"/>
<circle cx="286.58322340029923" cy="-423.8963491149678" fill="#C93E3E" r="2.5"/>
<circle cx="495.4976649224391" cy="-499.97754154483846" fill="#C93E3E" r="2.5"/>
<circle cx="64.5810979769446" cy="-234.50193904708087" fill="#C93E3E" r="2.5"/>
<circle cx="154.9640975220139" cy="-185.84903915923732" fill="#C93E3E" r="2.5"/>
<circle cx="411.68167351411626" cy="-147.33865282305644" fill="#C93E3E" r="2.5"/>
<circle cx="382.67515482725645" cy="-269.8189571172184" fill="#C93E3E" r="2.5"/>
<circle cx="185.90105397037004" cy="-129.91487944664593" fill="#C93E3E" r="2.5"/>
<circle cx="182.93381220777573" cy="-359.2381920146287" fill="#C93E3E" r="2.5"/>
<circle cx="388.4923464868266" cy="-510.4258651157735" fill="#C93E3E" r="2.5"/>
<circle cx="231.3015861830144" cy="-399.19100183634123" fill="#C93E3E" r="2.5"/>
<circle cx="239.20010170643107" cy="-174.07002342172865" fill="#C93E3E" r="2.5"/>
<circle cx="51.07005714106969" cy="-416.1524885677852" fill="#C93E3E" r="2.5"/>
<circle cx="2.9570897494693593" cy="-481.0287498738245" fill="#C93E3E" r="2.5"/>
<circle cx="102.89404203174391" cy="-4.933096172193392" fill="#C93E3E" r="2.5"/>
<circle cx="215.39465410821032" cy="-386.1972957941876" fill="#C93E3E" r="2.5"/>
<circle cx="96.27324004116241" cy="-394.3091058195164" fill="#C93E3E" r="2.5"/>
<circle cx="64.86184205624826" cy="-353.8577982710775" fill="#C93E3E" r="2.5"/>
<circle cx="115.40347966226145" cy="-202.74807460188202" fill="#C93E3E" r="2.5"/>
<circle cx="256.82777309346295" cy="-417.51441855373474" fill="#C93E3E" r="2.5"/>
<circle cx="379.62169299916013" cy="-392.3233493690203" fill="#C93E3E" r="2.5"/>
<circle cx="11.225328517344257" cy="-180.66491531688905" fill="#C93E3E" r="2.5"/>
<circle cx="74.99421225602345" cy="-91.2088569264098" fill="#C93E3E" r="2.5"/>
<circle cx="474.8035908888029" cy="-166.2657104162696" fill="#C93E3E" r="2.5"/>
<circle cx="192.8345499597814" cy="-115.97915045158041" fill="#C93E3E" r="2.5"/>
<circle cx="53.37163893182086" cy="-279.25106330306306" fill="#C93E3E" r="2.5"/>
<circle cx="323.03675765848214" cy="-58.87603680468756" fill="#C93E3E" r="2.5"/>
<circle cx="191.0608404662102" cy="-414.6655210887677" fill="#C93E3E" r="2.5"/>
<circle cx="237.11940818675632" cy="-32.33759678895727" fill="#C93E3E" r="2.5"/>
<circle cx="203.792926228703" cy="-302.11051961407196" fill="#C93E3E" r="2.5"/>
<circle cx="114.34722444596538" cy="-305.1954014099543" fill="#C93E3E" r="2.5"/>
<circle cx="366.65195859569536" cy="-244.9497869966184" fill="#C93E3E" r="2.5"/>
<circle cx="31.30988935114957" cy="-492.7137356374918" fill="#C93E3E" r="2.5"/>
<circle cx="66.8240944634686" cy="-193.67223436597894" fill="#C93E3E" r="2.5"/>
<circle cx="277.26164440967" cy="-494.6635298914356" fill="#C93E3E" r="2.5"/>
<circle cx="44.06987060506943" cy="-453.85361992895645" fill="#C93E3E" r="2.5"/>
<circle cx="251.1496661169574" cy="-250.2157546105887" fill="#C93E3E" r="2.5"/>
<circle cx="201.52842186999584" cy="-43.92544934413309" fill="#C93E3E" r="2.5"/>
<circle cx="270.24083648141595" cy="-176.48158760769076" fill="#C93E3E" r="2.5"/>
<circle cx="290.2013817427334" cy="-246.17030182589824" fill="#C93E3E" r="2.5"/>
<circle cx="393.5019967616784" cy="-72.13235109782282" fill="#C93E3E" r="2.5"/>
<circle cx="8.36447371265237" cy="-133.04929401832305" fill="#C93E3E" r="2.5"/>
<circle cx="496.3955896188847" cy="-263.65893762726745" fill="#C93E3E" r="2.5"/>
<circle cx="427.26076612669925" cy="-8.926122006413294" fill="#C93E3E" r="2.5"/>
<circle cx="158.2290469285814" cy="-170.44996614922238" fill="#C93E3E" r="2.5"/>
<circle cx="286.2863901569052" cy="-434.29106114468834" fill="#C93E3E" r="2.5"/>
<circle cx="338.1635517636149" cy="-37.71042330889538" fill="#C93E3E" r="2.5"/>
<circle cx="129.68075664573993" cy="-389.7397438669587" fill="#C93E3E" r="2.5"/>
<circle cx="302.0553404360065" cy="-374.81831878988754" fill="#C93E3E" r="2.5"/>
<circle cx="297.6360486237305" cy="-426.37209394521193" fill="#C93E3E" r="2.5"/>
<circle cx="93.30607552977854" cy="-322.2628412055765" fill="#C93E3E" r="2.5"/>
<circle cx="154.98707351066219" cy="-263.2177281507242" fill="#C93E3E" r="2.5"/>
<circle cx="74.49226530085076" cy="-23.5508566825308" fill="#C93E3E" r="2.5"/>
<circle cx="70.08186095642719" cy="-171.58849787355487" fill="#C93E3E" r="2.5"/>
<circle cx="72.42669245598285" cy="-525.7002833164363" fill="#C93E3E" r="2.5"/>
<circle cx="256.14011334949896" cy="-90.2462796265953" fill="#C93E3E" r="2.5"/>
<circle cx="400.99974000472747" cy="-41.530699338882336" fill="#C93E3E" r="2.5"/>
<circle cx="364.78615744516134" cy="-162.58130586374546" fill="#C93E3E" r="2.5"/>
<circle cx="402.9344444101275" cy="-5.146324558771718" fill="#C93E3E" r="2.5"/>
<circle cx="49.108562530220816" cy="-487.3436769263957" fill="#C93E3E" r="2.5"/>
<circle cx="280.3350887042591" cy="-4.717658133687035" fill="#C93E3E" r="2.5"/>
<circle cx="262.5524423337335" cy="-288.1292511256669" fill="#C93E3E" r="2.5"/>
<circle cx="161.4019155935347" cy="-507.89317339693207" fill="#C93E3E" r="2.5"/>
<circle cx="426.43226107475624" cy="-279.5809325064104" fill="#C93E3E" r="2.5"/>
<circle cx="519.3716095057707" cy="-9.94354122356052" fill="#C93E3E" r="2.5"/>
<circle cx="147.43601035933236" cy="-459.25470964194255" fill="#C93E3E" r="2.5"/>
<circle cx="364.6040516703312" cy="-75.61797733648321" fill="#C93E3E" r="2.5"/>
<circle cx="107.52072324963298" cy="-1.5678444218315724" fill="#C93E3E" r="2.5"/>
<circle cx="325.96514143096726" cy="-90.91481141389654" fill="#C93E3E" r="2.5"/>
<circle cx="61.248411746097716" cy="-510.3992538566141" fill="#C93E3E" r="2.5"/>
<circle cx="248.470800989268" cy="-41.16574272020308" fill="#C93E3E" r="2.5"/>
<circle cx="47.868192575181034" cy="-96.62757898171905" fill="#C93E3E" r="2.5"/>
<circle cx="75.32134535751082" cy="-13.044427209736869" fill="#C93E3E" r="2.5"/>
<circle cx="346.3701420335409" cy="-141.95104638167263" fill="#C93E3E" r="2.5"/>
<circle cx="49.681512529199196" cy="-534.7648181757045" fill="#C93E3E" r="2.5"/>
<circle cx="138.01909847114896" cy="-128.6531978303531" fill="#C93E3E" r="2.5"/>
<circle cx="193.17982845962263" cy="-92.34523881024032" fill="#C93E3E" r="2.5"/>
<circle cx="354.87298240359644" cy="-19.000256120355257" fill="#C93E3E" r="2.5"/>
</g>
<g>
<g>
<line stroke="black" stroke-width="1" x1="0" x2="0" y1="0" y2="10"/>
<line stroke="black" stroke-width="1" x1="104" x2="104" y1="0" y2="10"/>
<line stroke="black" stroke-width="1" x1="208" x2="208" y1="0" y2="10"/>
<line stroke="black" stroke-width="1" x1="312.00000000000006" x2="312.00000000000006" y1="0" y2="10"/>
<line stroke="black" stroke-width="1" x1="416" x2="416" y1="0" y2="10"/>
<line stroke="black" stroke-width="1" x1="520" x2="520" y1="0" y2="10"/>
</g>
<line stroke="black" stroke-width="1" x1="0" x2="520" y1="0" y2="0"/>
<g>
<text font-size="12" text-anchor="middle" x="0" y="20">
0
</text>
<text font-size="12" text-anchor="middle" x="104" y="20">
0.2
</text>
<text font-size="12" text-anchor="middle" x="208" y="20">
0.4
</text>
<text font-size="12" text-anchor="middle" x="312.00000000000006" y="20">
0.6000000000000001
</text>
<text font-size="12" text-anchor="middle" x="416" y="20">
0.8
</text>
<text font-size="12" text-anchor="middle" x="520" y="20">
1
</text>
</g>
<text font-size="12" text-anchor="middle" x="260" y="30">
x
</text>
</g>
<g>
<g>
<line stroke="black" stroke-width="1" x1="0" x2="-10" y1="0" y2="0"/>
<line stroke="black" stroke-width="1" x1="0" x2="-10" y1="-108" y2="-108"/>
<line stroke="black" stroke-width="1" x1="0" x2="-10" y1="-216" y2="-216"/>
<line stroke="black" stroke-width="1" x1="0" x2="-10" y1="-324.00000000000006" y2="-324.00000000000006"/>
<line stroke="black" stroke-width="1" x1="0" x2="-10" y1="-432" y2="-432"/>
<line stroke="black" stroke-width="1" x1="0" x2="-10" y1="-540" y2="-540"/>
</g>
<line stroke="black" stroke-0="1" x1="0" x2="0" y1="0" y2="-540"/>
<g>
<text dominant-baseline="middle" font-size="12" text-anchor="end" x="-15" y="0">
0
</text>
<text dominant-baseline="middle" font-size="12" text-anchor="end" x="-15" y="-108">
0.2
</text>
<text dominant-baseline="middle" font-size="12" text-anchor="end" x="-15" y="-216">
0.4
</text>
<text dominant-baseline="middle" font-size="12" text-anchor="end" x="-15" y="-324.00000000000006">
0.6000000000000001
</text>
<text dominant-baseline="middle" font-size="12" text-anchor="end" x="-15" y="-432">
0.8
</text>
<text dominant-baseline="middle" font-size="12" text-anchor="end" x="-15" y="-540">
1
</text>
</g>
<text font-size="12" text-anchor="middle" transform="rotate(-90 -30 -270)" x="-30" y="-270">
y
</text>
</g>
</g>
</svg>