<svg viewBox="0 0 600 600" xmlns="http://www.w3.org/2000/svg">
<g transform="translate(48, 564)">
<g>
<circle cx="189.879314327603" cy="-266.33773973239727" fill="#C93E3E" r="2.5"/>
<circle cx="185.48591685249167" cy="-58.6600530372412" fill="#C93E3E" r="2.5"/>
<circle cx="361.348843076652" cy="-400.3803456506384" fill="#C93E3E" r="2.5"/>
<circle cx="368.8242310961605" cy="-338.7516683521756" fill="#C93E3E" r="2.5"/>
<circle cx="253.57033123365937" cy="-497.8576203235547" fill="#C93E3E" r="2.5"/>
<circle cx="454.7990284650148" cy="-263.1385044185283" fill="#C93E3E" r="2.5"/>
<circle cx="490.8662602344616" cy="-182.79666048480698" fill="#C93E3E" r="2.5"/>
<circle cx="73.63918168178748" cy="-194.2907940380588" fill="#C93E3E" r="2.5"/>
<circle cx="45.65524954966284" cy="-255.27310768691578" fill="#C93E3E" r="2.5"/>
<circle cx="40.38159066166473" cy="-245.34110062884452" fill="#C93E3E" r="2.5"/>
<circle cx="249.22728940911233" cy="-133.3763614262737" fill="#C93E3E" r="2.5"/>
<circle cx="157.83228399614023" cy="-483.54047434599505" fill="#C93E3E" r="2.5"/>
<circle cx="253.22644472806607" cy="-450.023066109273" fill="#C93E3E" r="2.5"/>
<circle cx="136.634298223558" cy="-303.7523960738901" fill="#C93E3E" r="2.5"/>
<circle cx="88.79574540756613" cy="-73.37255020889586" fill="#C93E3E" r="2.5"/>
<circle cx="244.44093354609464" cy="-485.60018951830943" fill="#C93E3E" r="2.5"/>
<circle cx="486.5286720955969" cy="-280.47951515149293" fill="#C93E3E" r="2.5"/>
<circle cx="503.3076095920836" cy="-249.90611800474275" fill="#C93E3E" r="2.5"/>
<circle cx="415.0215514305832" cy="-185.5719422916348" fill="#C93E3E" r="2.5"/>
<circle cx="326.478137818594" cy="-15.930488628864934" fill="#C93E3E" r="2.5"/>
<circle cx="467.74578697569217" cy="-301.10904745296693" fill="#C93E3E" r="2.5"/>
<circle cx="73.17538347290692" cy="-293.7595248680225" fill="#C93E3E" r="2.5"/>
<circle cx="471.8890010838053" cy="-442.93556423575563" fill="#C93E3E" r="2.5"/>
<circle cx="80.65986322098502" cy="-388.7469841178747" fill="#C93E3E" r="2.5"/>
<circle cx="52.183681860906326" cy="-279.59502797082524" fill="#C93E3E" r="2.5"/>
<circle cx="0.9030195786994621" cy="-376.52956441969485" fill="#C93E3E" r="2.5"/>
<circle cx="360.664692550902" cy="-418.5593170998031" fill="#C93E3E" r="2.5"/>
<circle cx="24.532315883200802" cy="-311.3437784932216" fill="#C93E3E" r="2.5"/>
<circle cx="148.08224743344041" cy="-303.01972821359993" fill="#C93E3E" r="2.5"/>
<circle cx="488.47082167210283" cy="-14.318543550991652" fill="#C93E3E" r="2.5"/>
<circle cx="216.56552167293407" cy="-271.3463222584429" fill="#C93E3E" r="2.5"/>
<circle cx="510.8920373622124" cy="-435.8477693796997" fill="#C93E3E" r="2.5"/>
<circle cx="194.6362617120418" cy="-106.45903770487753" fill="#C93E3E" r="2.5"/>
<circle cx="208.48369681817852" cy="-322.6933362488125" fill="#C93E3E" r="2.5"/>
<circle cx="347.25762739690913" cy="-427.66425615907144" fill="#C93E3E" r="2.5"/>
<circle cx="185.68192366049408" cy="-529.7059758930038" fill="#C93E3E" r="2.5"/>
<circle cx="52.66601519462277" cy="-192.25911802610358" fill="#C93E3E" r="2.5"/>
<circle cx="59.29479906639979" cy="-215.75205949187904" fill="#C93E3E" r="2.5"/>
<circle cx="339.47372352809185" cy="-460.37930319469615" fill="#C93E3E" r="2.5"/>
<circle cx="46.42030582719653" cy="-327.5894746808302" fill="#C93E3E" r="2.5"/>
<circle cx="305.0430714825486" cy="-207.3063638117454" fill="#C93E3E" r="2.5"/>
<circle cx="310.53202540910377" cy="-124.79232897756131" fill="#C93E3E" r="2.5"/>
<circle cx="96.80694946191534" cy="-360.26184229581736" fill="#C93E3E" r="2.5"/>
<circle cx="39.57299197251886" cy="-50.31029691054924" fill="#C93E3E" r="2.5"/>
<circle cx="285.1079089892176" cy="-321.04102272020793" fill="#C93E3E" r="2.5"/>
<circle cx="136.70020394318934" cy="-122.02305170371315" fill="#C93E3E" r="2.5"/>
<circle cx="194.72980576090941" cy="-408.1928241861343" fill="#C93E3E" r="2.5"/>
<circle cx="65.39120189243519" cy="-274.90481326066066" fill="#C93E3E" r="2.5"/>
<circle cx="391.2389620896799" cy="-380.90920677046506" fill="#C93E3E" r="2.5"/>
<circle cx="346.56051392723964" cy="-78.3119861149963" fill="#C93E3E" r="2.5"/>
<circle cx="272.649080428186" cy="-409.0223562121817" fill="#C93E3E" r="2.5"/>
<circle cx="58.31788510871633" cy="-115.1142938540529" fill="#C93E3E" r="2.5"/>
<circle cx="60.12650747694042" cy="-155.06086658602985" fill="#C93E3E" r="2.5"/>
<circle cx="264.66396845997474" cy="-270.80678448204105" fill="#C93E3E" r="2.5"/>
<circle cx="284.8164159627942" cy="-261.13651520469966" fill="#C93E3E" r="2.5"/>
<circle cx="238.09263239116837" cy="-519.1244383076018" fill="#C93E3E" r="2.5"/>
<circle cx="262.7950121129345" cy="-237.42390888280866" fill="#C93E3E" r="2.5"/>
<circle cx="412.7012277552354" cy="-347.0911367037008" fill="#C93E3E" r="2.5"/>
<circle cx="142.18127398458824" cy="-90.27763205190655" fill="#C93E3E" r="2.5"/>
<circle cx="318.1215393417081" cy="-310.83081779127195" fill="#C93E3E" r="2.5"/>
<circle cx="494.91617146774087" cy="-274.0887748175779" fill="#C93E3E" r="2.5"/>
<circle cx="103.6588161108391" cy="-393.5901967607758" fill="#C93E3E" r="2.5"/>
<circle cx="460.4854232848537" cy="-36.325018228247274" fill="#C93E3E" r="2.5"/>
<circle cx="203.54159389100323" cy="-362.2159314310012" fill="#C93E3E" r="2.5"/>
<circle cx="407.4576739075376" cy="-376.45212749212317" fill="#C93E3E" r="2.5"/>
<circle cx="480.47726999657044" cy="-364.15697402930664" fill="#C93E3E" r="2.5"/>
<circle cx="69.24989678704988" cy="-429.79992136986675" fill="#C93E3E" r="2.5"/>
<circle cx="50.88298535792707" cy="-432.40933949137866" fill="#C93E3E" r="2.5"/>
<circle cx="294.2271682633852" cy="-456.13305987035864" fill="#C93E3E" r="2.5"/>
<circle cx="335.42771240356217" cy="-106.54717832255473" fill="#C93E3E" r="2.5"/>
<circle cx="12.811714653488009" cy="-140.00284633116814" fill="#C93E3E" r="2.5"/>
<circle cx="439.0987321706345" cy="-338.31371529927867" fill="#C93E3E" r="2.5"/>
<circle cx="445.6006572739467" cy="-0.556798517983621" fill="#C93E3E" r="2.5"/>
<circle cx="117.37894904146118" cy="-259.3077465136271" fill="#C93E3E" r="2.5"/>
<circle cx="297.4138430825312" cy="-397.9496093422497" fill="#C93E3E" r="2.5"/>
<circle cx="456.71511000989796" cy="-42.220093355403264" fill="#C93E3E" r="2.5"/>
<circle cx="95.48307269576539" cy="-330.54427072842765" fill="#C93E3E" r="2.5"/>
<circle cx="240.01843867303927" cy="-48.78681784141066" fill="#C93E3E" r="2.5"/>
<circle cx="369.1615887657927" cy="-256.9113368873919" fill="#C93E3E" r="2.5"/>
<circle cx="270.0340323449511" cy="-259.4100650308919" fill="#C93E3E" r="2.5"/>
<circle cx="16.954875238501536" cy="-16.636309088625566" fill="#C93E3E" r="2.5"/>
<circle cx="357.7087164522187" cy="-82.63922225202417" fill="#C93E3E" r="2.5"/>
<circle cx="440.7521078315916" cy="-89.8703065695694" fill="#C93E3E" r="2.5"/>
<circle cx="18.612941239144956" cy="-309.6767080006504" fill="#C93E3E" r="2.5"/>
<circle cx="213.94302086301107" cy="-477.84970959719567" fill="#C93E3E" r="2.5"/>
<circle cx="375.6902449836954" cy="-245.65705706011587" fill="#C93E3E" r="2.5"/>
<circle cx="187.37761067502498" cy="-317.3131172284277" fill="#C93E3E" r="2.5"/>
<circle cx="123.87759561513498" cy="-144.62159720779061" fill="#C93E3E" r="2.5"/>
<circle cx="76.91391931605443" cy="-193.27976943184547" fill="#C93E3E" r="2.5"/>
<circle cx="145.42969642433994" cy="-500.4208774916847" fill="#C93E3E" r="2.5"/>
<circle cx="409.0453100743462" cy="-181.16072205721443" fill="#C93E3E" r="2.5"/>
<circle cx="255.77348042510278" cy="-14.774405286138235" fill="#C93E3E" r="2.5"/>
<circle cx="237.77348883621" cy="-502.1314531228749" fill="#C93E3E" r="2.5"/>
<circle cx="350.0034968453479" cy="-483.2071502845236" fill="#C93E3E" r="2.5"/>
<circle cx="90.73704001191619" cy="-515.6724591441928" fill="#C93E3E" r="2.5"/>
<circle cx="310.6386463796218" cy="-228.89591146211978" fill="#C93E3E" r="2.5"/>
<circle cx="461.71541455742886" cy="-103.59432988049338" fill="#C93E3E" r="2.5"/>
<circle cx="91.40391013253549" cy="-473.5709730192336" fill="#C93E3E" r="2.5"/>
<circle cx="447.3693500337748" cy="-387.06595315771506" fill="#C93E3E" r="2.5"/>
<circle cx="100.0980044490264" cy="-450.65294283056164" fill="#C93E3E" r="2.5"/>
<circle cx="37.50930966097961" cy="-479.2597445752609" fill="#C93E3E" r="2.5"/>
<circle cx="486.9449467179868" cy="-169.3215385997356" fill="#C93E3E" r="2.5"/>
<circle cx="498.0554268071805" cy="-223.78738718464464" fill="#C93E3E" r="2.5"/>
<circle cx="291.68063659051614" cy="-167.89423437404233" fill="#C93E3E" r="2.5"/>
<circle cx="128.41648871958034" cy="-479.40778470385476" fill="#C93E3E" r="2.5"/>
<circle cx="109.62475020646475" cy="-61.63649652412653" fill="#C93E3E" r="2.5"/>
<circle cx="362.4179004938277" cy="-280.3946610237444" fill="#C93E3E" r="2.5"/>
<circle cx="405.1786390711669" cy="-526.6437658753997" fill="#C93E3E" r="2.5"/>
<circle cx="279.89588185196914" cy="-513.5119060597334" fill="#C93E3E" r="2.5"/>
<circle cx="190.98438190442297" cy="-392.23138334831316" fill="#C93E3E" r="2.5"/>
<circle cx="103.88191213231141" cy="-495.9232488752586" fill="#C93E3E" r="2.5"/>
<circle cx="52.99817592457462" cy="-412.888292179896" fill="#C93E3E" r="2.5"/>
<circle cx="104.86219881493334" cy="-500.03407625812" fill="#C93E3E" r="2.5"/>
<circle cx="175.71784027743138" cy="-514.0605440927169" fill="#C93E3E" r="2.5"/>
<circle cx="485.69870201215883" cy="-243.47009538380686" fill="#C93E3E" r="2.5"/>
<circle cx="176.40781201215242" cy="-287.034766735418" fill="#C93E3E" r="2.5"/>
<circle cx="471.4395620217573" cy="-109.49835160037917" fill="#C93E3E" r="2.5"/>
<circle cx="54.94064027332675" cy="-528.2000914759833" fill="#C93E3E" r="2.5"/>
<circle cx="348.91309856077567" cy="-308.3643322870159" fill="#C93E3E" r="2.5"/>
<circle cx="454.4326327425021" cy="-225.97281493138678" fill="#C93E3E" r="2.5"/>
<circle cx="385.076224722103" cy="-89.21212074932922" fill="#C93E3E" r="2.5"/>
<circle cx="369.0560118620792" cy="-50.39041409142817" fill="#C93E3E" r="2.5"/>
<circle cx="195.15588863203473" cy="-465.4819184528932" fill="#C93E3E" r="2.5"/>
<circle cx="360.5261624129241" cy="-39.7457781398244" fill="#C93E3E" r="2.5"/>
<circle cx="519.7610957307962" cy="-77.69154117333217" fill="#C93E3E" r="2.5"/>
<circle cx="341.5018948025816" cy="-177.18741561289576" fill="#C93E3E" r="2.5"/>
<circle cx="88.3641311284934" cy="-58.750668649289246" fill="#C93E3E" r="2.5"/>
<circle cx="443.99211136148494" cy="-374.91291961647875" fill="#C93E3E" r="2.5"/>
<circle cx="382.79101739584775" cy="-66.48956521334709" fill="#C93E3E" r="2.5"/>
<circle cx="289.2991488204877" cy="-94.83489851798004" fill="#C93E3E" r="2.5"/>
<circle cx="126.57348855184566" cy="-107.37529879016785" fill="#C93E3E" r="2.5"/>
<circle cx="457.62381423082974" cy="-323.1395501516383" fill="#C93E3E" r="2.5"/>
<circle cx="263.58800870092654" cy="-217.23829695267602" fill="#C93E3E" r="2.5"/>
<circle cx="383.6686142573879" cy="-374.7394160709616" fill="#C93E3E" r="2.5"/>
<circle cx="501.6954521705617" cy="-102.69987793945455" fill="#C93E3E" r="2.5"/>
<circle cx="432.0523436488534" cy="-100.17002564456111" fill="#C93E3E" r="2.5"/>
<circle cx="126.38252259218407" cy="-536.4330998656889" fill="#C93E3E" r="2.5"/>
<circle cx="323.13109879331273" cy="-218.04496005074446" fill="#C93E3E" r="2.5"/>
<circle cx="73.53137553904992" cy="-537.6950061440214" fill="#C93E3E" r="2.5"/>
<circle cx="8.13739833799267" cy="-393.77582167149507" fill="#C93E3E" r="2.5"/>
<circle cx="330.6777282678153" cy="-98.10550475693998" fill="#C93E3E" r="2.5"/>
<circle cx="226.33467930746727" cy="-154.74318795535663" fill="#C93E3E" r="2.5"/>
<circle cx="244.67104802281912" cy="-166.3844608675472" fill="#C93E3E" r="2.5"/>
<circle cx="320.43223900295436" cy="-145.45266723437655" fill="#C93E3E" r="2.5"/>
<circle cx="452.99533294784845" cy="-297.1882849905792" fill="#C93E3E" r="2.5"/>
<circle cx="258.1708679390047" cy="-263.16833718703424" fill="#C93E3E" r="2.5"/>
<circle cx="470.40651911182886" cy="-139.3944391952379" fill="#C93E3E" r="2.5"/>
<circle cx="449.36351976070017" cy="-51.25392750523349" fill="#C93E3E" r="2.5"/>
<circle cx="92.15565309973981" cy="-383.37212166212976" fill="#C93E3E" r="2.5"/>
<circle cx="381.83015197679845" cy="-241.91064097248363" fill="#C93E3E" r="2.5"/>
<circle cx="1.805503194860103" cy="-333.84368994435147" fill="#C93E3E" r="2.5"/>
<circle cx="92.15334146774778" cy="-22.686215174444" fill="#C93E3E" r="2.5"/>
<circle cx="416.3356645854482" cy="-87.33951823962812" fill="#C93E3E" r="2.5"/>
<circle cx="456.09485890306576" cy="-488.6341835017048" fill="#C93E3E" r="2.5"/>
<circle cx="71.88915659805222" cy="-361.3185796287545" fill="#C93E3E" r="2.5"/>
<circle cx="83.69863486118916" cy="-333.46654802627853" fill="#C93E3E" r="2.5"/>
<circle cx="34.129083976204456" cy="-96.12001726416675" fill="#C93E3E" r="2.5"/>
<circle cx="500.38174857505965" cy="-151.2044297942066" fill="#C93E3E" r="2.5"/>
<circle cx="327.51595058505035" cy="-281.56283429919034" fill="#C93E3E" r="2.5"/>
<circle cx="437.0770199696541" cy="-296.23357386455245" fill="#C93E3E" r="2.5"/>
<circle cx="499.1842945649267" cy="-389.84395244070026" fill="#C93E3E" r="2.5"/>
<circle cx="170.67702263042253" cy="-254.59748953229357" fill="#C93E3E" r="2.5"/>
<circle cx="96.20561514074295" cy="-20.380182015156848" fill="#C93E3E" r="2.5"/>
<circle cx="394.34163340900784" cy="-523.3673453875782" fill="#C93E3E" r="2.5"/>
<circle cx="36.620926142070864" cy="-275.2797245018854" fill="#C93E3E" r="2.5"/>
<circle cx="458.93633635917774" cy="-459.633802105258" fill="#C93E3E" r="2.5"/>
<circle cx="420.8448975799536" cy="-398.3282552736045" fill="#C93E3E" r="2.5"/>
<circle cx="21.337133447228823" cy="-514.8894964877209" fill="#C93E3E" r="2.5"/>
<circle cx="206.4994852914675" cy="-358.9966347592168" fill="#C93E3E" r="2.5"/>
<circle cx="43.760194219262026" cy="-308.5723075978279" fill="#C93E3E" r="2.5"/>
<circle cx="499.98166784171593" cy="-254.20267063328066" fill="#C93E3E" r="2.5"/>
<circle cx="212.45428809236807" cy="-472.24306713652857" fill="#C93E3E" r="2.5"/>
<circle cx="201.14806985684413" cy="-503.11156691434184" fill="#C93E3E" r="2.5"/>
<circle cx="493.75743364408333" cy="-372.90560725341646" fill="#C93E3E" r="2.5"/>
<circle cx="181.84705714510994" cy="-44.69816983153901" fill="#C93E3E" r="2.5"/>
<circle cx="38.303600318536006" cy="-211.0429836053178" fill="#C93E3E" r="2.5"/>
<circle cx="327.37928197995166" cy="-412.7317159783129" fill="#C93E3E" r="2.5"/>
<circle cx="107.82003657208196" cy="-38.581340033045755" fill="#C93E3E" r="2.5"/>
<circle cx="248.49465534957955" cy="-104.86939766895037" fill="#C93E3E" r="2.5"/>
</g>
<g>
<g>
<line stroke="black" stroke-width="1" x1="0" x2="0" y1="0" y2="10"/>
<line stroke="black" stroke-width="1" x1="104" x2="104" y1="0" y2="10"/>
<line stroke="black" stroke-width="1" x1="208" x2="208" y1="0" y2="10"/>
<line stroke="black" stroke-width="1" x1="312.00000000000006" x2="312.00000000000006" y1="0" y2="10"/>
<line stroke="black" stroke-width="1" x1="416" x2="416" y1="0" y2="10"/>
<line stroke="black" stroke-width="1" x1="520" x2="520" y1="0" y2="10"/>
</g>
<line stroke="black" stroke-width="1" x1="0" x2="520" y1="0" y2="0"/>
<g>
<text font-size="12" text-anchor="middle" x="0" y="20">
0
</text>
<text font-size="12" text-anchor="middle" x="104" y="20">
0.2
</text>
<text font-size="12" text-anchor="middle" x="208" y="20">
0.4
</text>
<text font-size="12" text-anchor="middle" x="312.00000000000006" y="20">
0.6000000000000001
</text>
<text font-size="12" text-anchor="middle" x="416" y="20">
0.8
</text>
<text font-size="12" text-anchor="middle" x="520" y="20">
1
</text>
</g>
<text font-size="12" text-anchor="middle" x="260" y="30">
x
</text>
</g>
<g>
<g>
<line stroke="black" stroke-width="1" x1="0" x2="-10" y1="0" y2="0"/>
<line stroke="black" stroke-width="1" x1="0" x2="-10" y1="-108" y2="-108"/>
<line stroke="black" stroke-width="1" x1="0" x2="-10" y1="-216" y2="-216"/>
<line stroke="black" stroke-width="1" x1="0" x2="-10" y1="-324.00000000000006" y2="-324.00000000000006"/>
<line stroke="black" stroke-width="1" x1="0" x2="-10" y1="-432" y2="-432"/>
<line stroke="black" stroke-width="1" x1="0" x2="-10" y1="-540" y2="-540"/>
</g>
<line stroke="black" stroke-0="1" x1="0" x2="0" y1="0" y2="-540"/>
<g>
<text dominant-baseline="middle" font-size="12" text-anchor="end" x="-15" y="0">
0
</text>
<text dominant-baseline="middle" font-size="12" text-anchor="end" x="-15" y="-108">
0.2
</text>
<text dominant-baseline="middle" font-size="12" text-anchor="end" x="-15" y="-216">
0.4
</text>
<text dominant-baseline="middle" font-size="12" text-anchor="end" x="-15" y="-324.00000000000006">
0.6000000000000001
</text>
<text dominant-baseline="middle" font-size="12" text-anchor="end" x="-15" y="-432">
0.8
</text>
<text dominant-baseline="middle" font-size="12" text-anchor="end" x="-15" y="-540">
1
</text>
</g>
<text font-size="12" text-anchor="middle" transform="rotate(-90 -30 -270)" x="-30" y="-270">
y
</text>
</g>
</g>
</svg>