<svg viewBox="0 0 600 600" xmlns="http://www.w3.org/2000/svg">
<g transform="translate(48, 564)">
<g>
<circle cx="251.39164439812993" cy="-447.87582017686515" fill="#C93E3E" r="2.5"/>
<circle cx="424.0695860900966" cy="-446.51503276756364" fill="#C93E3E" r="2.5"/>
<circle cx="501.7603839793605" cy="-111.37906364490988" fill="#C93E3E" r="2.5"/>
<circle cx="92.325658279994" cy="-104.5207496394235" fill="#C93E3E" r="2.5"/>
<circle cx="455.10588144161215" cy="-479.05718879832165" fill="#C93E3E" r="2.5"/>
<circle cx="377.1113823785865" cy="-307.8224182744162" fill="#C93E3E" r="2.5"/>
<circle cx="95.01149237791914" cy="-47.150280610759204" fill="#C93E3E" r="2.5"/>
<circle cx="140.05184801770463" cy="-400.0747342025727" fill="#C93E3E" r="2.5"/>
<circle cx="367.3185022100268" cy="-298.66632363956927" fill="#C93E3E" r="2.5"/>
<circle cx="386.0749590975224" cy="-90.47532160915638" fill="#C93E3E" r="2.5"/>
<circle cx="454.85119338103095" cy="-43.83668061837107" fill="#C93E3E" r="2.5"/>
<circle cx="363.7751469974492" cy="-139.08530462130784" fill="#C93E3E" r="2.5"/>
<circle cx="301.57089974161966" cy="-403.98452365083836" fill="#C93E3E" r="2.5"/>
<circle cx="15.588353156545658" cy="-417.6545720724547" fill="#C93E3E" r="2.5"/>
<circle cx="338.8110146862428" cy="-190.0482286712347" fill="#C93E3E" r="2.5"/>
<circle cx="215.65567085118877" cy="-282.4614761245143" fill="#C93E3E" r="2.5"/>
<circle cx="21.559827290214415" cy="-303.68817365083373" fill="#C93E3E" r="2.5"/>
<circle cx="205.48084392067773" cy="-534.0713527785587" fill="#C93E3E" r="2.5"/>
<circle cx="17.16957659595403" cy="-68.76915555410032" fill="#C93E3E" r="2.5"/>
<circle cx="252.98322262193858" cy="-345.5637080632504" fill="#C93E3E" r="2.5"/>
<circle cx="177.1047340429536" cy="-69.58064955810934" fill="#C93E3E" r="2.5"/>
<circle cx="360.66598949061176" cy="-18.965598044941352" fill="#C93E3E" r="2.5"/>
<circle cx="314.8296722792709" cy="-269.8141470051559" fill="#C93E3E" r="2.5"/>
<circle cx="139.092713346645" cy="-140.7336420125354" fill="#C93E3E" r="2.5"/>
<circle cx="492.06243634381497" cy="-138.72399002765258" fill="#C93E3E" r="2.5"/>
<circle cx="423.24441089379525" cy="-510.8990096447298" fill="#C93E3E" r="2.5"/>
<circle cx="83.2814501432283" cy="-300.2896797860222" fill="#C93E3E" r="2.5"/>
<circle cx="418.1884203909685" cy="-167.34862597894346" fill="#C93E3E" r="2.5"/>
<circle cx="363.025303401623" cy="-357.450404045022" fill="#C93E3E" r="2.5"/>
<circle cx="397.9325809435722" cy="-390.71852014669935" fill="#C93E3E" r="2.5"/>
<circle cx="207.08093739929967" cy="-317.9410875279201" fill="#C93E3E" r="2.5"/>
<circle cx="164.96237234363352" cy="-486.8393552633881" fill="#C93E3E" r="2.5"/>
<circle cx="227.67299055574975" cy="-365.79379533103486" fill="#C93E3E" r="2.5"/>
<circle cx="283.4887211520799" cy="-191.5810254197524" fill="#C93E3E" r="2.5"/>
<circle cx="291.24072396972684" cy="-190.75143739070646" fill="#C93E3E" r="2.5"/>
<circle cx="429.5430883989324" cy="-125.11795405634585" fill="#C93E3E" r="2.5"/>
<circle cx="86.441468945617" cy="-65.20397363196143" fill="#C93E3E" r="2.5"/>
<circle cx="475.6346036128311" cy="-407.97591457945754" fill="#C93E3E" r="2.5"/>
<circle cx="46.8726759814832" cy="-313.362087914617" fill="#C93E3E" r="2.5"/>
<circle cx="54.14602849277215" cy="-12.889954085783284" fill="#C93E3E" r="2.5"/>
<circle cx="518.4146748426749" cy="-82.45943716061211" fill="#C93E3E" r="2.5"/>
<circle cx="454.5823105279653" cy="-417.0299961507408" fill="#C93E3E" r="2.5"/>
<circle cx="63.7247290449301" cy="-278.0409305168926" fill="#C93E3E" r="2.5"/>
<circle cx="311.724887381741" cy="-102.95123672402917" fill="#C93E3E" r="2.5"/>
<circle cx="359.07111316055244" cy="-56.799393857259965" fill="#C93E3E" r="2.5"/>
<circle cx="347.2565368205774" cy="-211.40902129057798" fill="#C93E3E" r="2.5"/>
<circle cx="191.0926866598475" cy="-86.81592074208281" fill="#C93E3E" r="2.5"/>
<circle cx="61.11720911419787" cy="-269.50925332711273" fill="#C93E3E" r="2.5"/>
<circle cx="278.4746870096411" cy="-454.3166202712191" fill="#C93E3E" r="2.5"/>
<circle cx="46.81937002334641" cy="-423.2018831530224" fill="#C93E3E" r="2.5"/>
<circle cx="163.42619426316222" cy="-511.4361550067889" fill="#C93E3E" r="2.5"/>
<circle cx="487.0559235322441" cy="-43.477347196174705" fill="#C93E3E" r="2.5"/>
<circle cx="160.20978619787292" cy="-260.8900960009587" fill="#C93E3E" r="2.5"/>
<circle cx="518.441487390965" cy="-488.67080181474995" fill="#C93E3E" r="2.5"/>
<circle cx="122.12309565960555" cy="-159.4790577759926" fill="#C93E3E" r="2.5"/>
<circle cx="384.68481717889847" cy="-306.24762626998364" fill="#C93E3E" r="2.5"/>
<circle cx="385.38800679929426" cy="-224.70377535042616" fill="#C93E3E" r="2.5"/>
<circle cx="190.11546735397516" cy="-70.61801712168203" fill="#C93E3E" r="2.5"/>
<circle cx="33.9536021858143" cy="-172.8884354383376" fill="#C93E3E" r="2.5"/>
<circle cx="251.03364991647996" cy="-306.10145619618214" fill="#C93E3E" r="2.5"/>
<circle cx="255.81970374643194" cy="-65.21274467744615" fill="#C93E3E" r="2.5"/>
<circle cx="240.6396418401611" cy="-259.70555400380584" fill="#C93E3E" r="2.5"/>
<circle cx="249.93808691440233" cy="-178.19376200017203" fill="#C93E3E" r="2.5"/>
<circle cx="318.29985210084686" cy="-125.57264062202685" fill="#C93E3E" r="2.5"/>
<circle cx="282.506949343446" cy="-80.06750037162757" fill="#C93E3E" r="2.5"/>
<circle cx="212.8709240502698" cy="-507.30891178872685" fill="#C93E3E" r="2.5"/>
<circle cx="186.74721623894763" cy="-384.49174122409244" fill="#C93E3E" r="2.5"/>
<circle cx="439.3713008503538" cy="-142.7170557837457" fill="#C93E3E" r="2.5"/>
<circle cx="232.30225482965972" cy="-35.12533717548558" fill="#C93E3E" r="2.5"/>
<circle cx="515.6916192940431" cy="-345.20737339263366" fill="#C93E3E" r="2.5"/>
<circle cx="445.8632592518079" cy="-261.28165686058475" fill="#C93E3E" r="2.5"/>
<circle cx="297.5544538982117" cy="-9.988300224085958" fill="#C93E3E" r="2.5"/>
<circle cx="146.67276796458532" cy="-117.30349970604891" fill="#C93E3E" r="2.5"/>
<circle cx="208.72665778473515" cy="-70.19513612509391" fill="#C93E3E" r="2.5"/>
<circle cx="232.37073944299655" cy="-466.9794560863136" fill="#C93E3E" r="2.5"/>
<circle cx="128.8598357333054" cy="-229.3659386457094" fill="#C93E3E" r="2.5"/>
<circle cx="402.9400293277221" cy="-460.28871028532507" fill="#C93E3E" r="2.5"/>
<circle cx="238.84305222442492" cy="-386.54206524765317" fill="#C93E3E" r="2.5"/>
<circle cx="45.473645837497344" cy="-282.86569311643694" fill="#C93E3E" r="2.5"/>
<circle cx="289.0351210583622" cy="-277.87175269239407" fill="#C93E3E" r="2.5"/>
<circle cx="463.49264705972433" cy="-409.9035352624529" fill="#C93E3E" r="2.5"/>
<circle cx="288.55407630302227" cy="-236.5655497579371" fill="#C93E3E" r="2.5"/>
<circle cx="159.74305435301972" cy="-392.94926195034583" fill="#C93E3E" r="2.5"/>
<circle cx="335.5250458656531" cy="-110.50473377017002" fill="#C93E3E" r="2.5"/>
<circle cx="330.8322258381041" cy="-378.88040364595076" fill="#C93E3E" r="2.5"/>
<circle cx="39.51375387367147" cy="-497.07461834758914" fill="#C93E3E" r="2.5"/>
<circle cx="32.791351572955605" cy="-347.63245880647355" fill="#C93E3E" r="2.5"/>
<circle cx="213.8303432306415" cy="-521.7922628421525" fill="#C93E3E" r="2.5"/>
<circle cx="131.59664340332733" cy="-297.83256145838453" fill="#C93E3E" r="2.5"/>
<circle cx="53.718579606988364" cy="-313.35954046308115" fill="#C93E3E" r="2.5"/>
<circle cx="467.41203231323425" cy="-309.8670094767693" fill="#C93E3E" r="2.5"/>
<circle cx="387.25596788794735" cy="-271.48379402040297" fill="#C93E3E" r="2.5"/>
<circle cx="177.11422298089062" cy="-534.6756014337575" fill="#C93E3E" r="2.5"/>
<circle cx="270.0958770397747" cy="-534.8643168330458" fill="#C93E3E" r="2.5"/>
<circle cx="376.6705881333516" cy="-521.2182781152176" fill="#C93E3E" r="2.5"/>
<circle cx="141.42904298668753" cy="-273.14823047181034" fill="#C93E3E" r="2.5"/>
<circle cx="343.7640958853625" cy="-433.5470854949414" fill="#C93E3E" r="2.5"/>
<circle cx="489.40830432544624" cy="-525.2057970826185" fill="#C93E3E" r="2.5"/>
<circle cx="358.5203743815052" cy="-520.4134594262056" fill="#C93E3E" r="2.5"/>
<circle cx="495.41104074204554" cy="-492.1977484264519" fill="#C93E3E" r="2.5"/>
<circle cx="369.5898704287938" cy="-328.28956876371274" fill="#C93E3E" r="2.5"/>
<circle cx="268.03051166908404" cy="-227.37082213524343" fill="#C93E3E" r="2.5"/>
<circle cx="48.892197925792324" cy="-348.07744056754666" fill="#C93E3E" r="2.5"/>
<circle cx="456.7029868722512" cy="-98.14002901259738" fill="#C93E3E" r="2.5"/>
<circle cx="249.04144602262141" cy="-240.55558673560805" fill="#C93E3E" r="2.5"/>
<circle cx="2.2681123087806476" cy="-462.2430005888929" fill="#C93E3E" r="2.5"/>
<circle cx="214.24618623985722" cy="-174.52319056822972" fill="#C93E3E" r="2.5"/>
<circle cx="348.0518508398001" cy="-484.0436676874622" fill="#C93E3E" r="2.5"/>
<circle cx="270.9438397527101" cy="-458.66614574364155" fill="#C93E3E" r="2.5"/>
<circle cx="460.79428964627857" cy="-141.4277704151013" fill="#C93E3E" r="2.5"/>
<circle cx="295.3656175565421" cy="-270.56220496203264" fill="#C93E3E" r="2.5"/>
<circle cx="218.30550739670977" cy="-434.1026103798868" fill="#C93E3E" r="2.5"/>
<circle cx="205.82188894149476" cy="-99.59444630896205" fill="#C93E3E" r="2.5"/>
<circle cx="430.3644187105735" cy="-81.15882146962147" fill="#C93E3E" r="2.5"/>
<circle cx="302.78542597527746" cy="-489.7325435765485" fill="#C93E3E" r="2.5"/>
<circle cx="145.99353735435764" cy="-21.603291307422584" fill="#C93E3E" r="2.5"/>
<circle cx="412.3782680252654" cy="-347.1154721679282" fill="#C93E3E" r="2.5"/>
<circle cx="178.15531024409626" cy="-406.423926730788" fill="#C93E3E" r="2.5"/>
<circle cx="94.64382550353488" cy="-285.00137987324723" fill="#C93E3E" r="2.5"/>
<circle cx="224.50834003776373" cy="-235.17299531195695" fill="#C93E3E" r="2.5"/>
<circle cx="48.9038278564926" cy="-357.7759515757726" fill="#C93E3E" r="2.5"/>
<circle cx="167.2160174665658" cy="-397.4428776853761" fill="#C93E3E" r="2.5"/>
<circle cx="247.6891977658682" cy="-158.72355438783606" fill="#C93E3E" r="2.5"/>
<circle cx="188.02840215563995" cy="-365.58026123012945" fill="#C93E3E" r="2.5"/>
<circle cx="236.22098030775936" cy="-488.7871709121531" fill="#C93E3E" r="2.5"/>
<circle cx="143.14466667764265" cy="-368.75379240033675" fill="#C93E3E" r="2.5"/>
<circle cx="306.8913296988264" cy="-180.27078837727584" fill="#C93E3E" r="2.5"/>
<circle cx="231.57331866042276" cy="-287.58406757110134" fill="#C93E3E" r="2.5"/>
<circle cx="426.5640362413764" cy="-126.5451788828726" fill="#C93E3E" r="2.5"/>
<circle cx="418.06961264975104" cy="-526.8636104270171" fill="#C93E3E" r="2.5"/>
<circle cx="429.16211342907974" cy="-119.59065915988201" fill="#C93E3E" r="2.5"/>
<circle cx="166.98687429144513" cy="-369.1082397277449" fill="#C93E3E" r="2.5"/>
<circle cx="214.71932277405114" cy="-508.09579764087715" fill="#C93E3E" r="2.5"/>
<circle cx="294.10995651109835" cy="-120.72310044534619" fill="#C93E3E" r="2.5"/>
<circle cx="68.27204554074987" cy="-501.9221879101693" fill="#C93E3E" r="2.5"/>
<circle cx="322.7242658539545" cy="-371.33138821215687" fill="#C93E3E" r="2.5"/>
<circle cx="361.7959923286261" cy="-209.32185693427735" fill="#C93E3E" r="2.5"/>
<circle cx="387.4888310095069" cy="-471.82960524917314" fill="#C93E3E" r="2.5"/>
<circle cx="489.7785600482883" cy="-329.88892495979763" fill="#C93E3E" r="2.5"/>
<circle cx="406.5255027895007" cy="-340.00028254618206" fill="#C93E3E" r="2.5"/>
<circle cx="441.1840856280687" cy="-400.72793926074155" fill="#C93E3E" r="2.5"/>
<circle cx="342.1447631133522" cy="-321.00157056766096" fill="#C93E3E" r="2.5"/>
<circle cx="249.84521367904455" cy="-347.7715306524515" fill="#C93E3E" r="2.5"/>
<circle cx="193.04747534804955" cy="-274.4247326914848" fill="#C93E3E" r="2.5"/>
<circle cx="464.5077049307213" cy="-315.1028431207745" fill="#C93E3E" r="2.5"/>
<circle cx="371.9610173784933" cy="-508.3020780391101" fill="#C93E3E" r="2.5"/>
<circle cx="249.8710717246826" cy="-38.685587563145575" fill="#C93E3E" r="2.5"/>
<circle cx="325.84805681161936" cy="-209.84989095447258" fill="#C93E3E" r="2.5"/>
<circle cx="253.86789217665518" cy="-313.8246918956086" fill="#C93E3E" r="2.5"/>
<circle cx="475.0306873107417" cy="-463.9009662851206" fill="#C93E3E" r="2.5"/>
<circle cx="34.96091663263045" cy="-534.7268250555827" fill="#C93E3E" r="2.5"/>
<circle cx="350.06758304925575" cy="-484.56305505515" fill="#C93E3E" r="2.5"/>
<circle cx="180.80076477502837" cy="-135.9565662255277" fill="#C93E3E" r="2.5"/>
<circle cx="12.924575925767634" cy="-156.983766127179" fill="#C93E3E" r="2.5"/>
<circle cx="68.48823859131872" cy="-392.20995390126166" fill="#C93E3E" r="2.5"/>
<circle cx="290.9208012555599" cy="-208.99674491636426" fill="#C93E3E" r="2.5"/>
<circle cx="327.2048757398899" cy="-474.8884021188521" fill="#C93E3E" r="2.5"/>
<circle cx="38.52921491923571" cy="-407.6952281868633" fill="#C93E3E" r="2.5"/>
<circle cx="206.67039895625192" cy="-401.43951366429496" fill="#C93E3E" r="2.5"/>
<circle cx="378.45987746609586" cy="-412.0974114644178" fill="#C93E3E" r="2.5"/>
<circle cx="85.96377294927544" cy="-262.7936657889169" fill="#C93E3E" r="2.5"/>
<circle cx="413.2276378920792" cy="-262.96812035196535" fill="#C93E3E" r="2.5"/>
<circle cx="334.3854403312988" cy="-458.5127760211902" fill="#C93E3E" r="2.5"/>
<circle cx="506.0969829251621" cy="-7.880881006491904" fill="#C93E3E" r="2.5"/>
<circle cx="311.50454940107267" cy="-35.27140569110264" fill="#C93E3E" r="2.5"/>
<circle cx="203.0822263919702" cy="-534.6596941689146" fill="#C93E3E" r="2.5"/>
<circle cx="244.38318851921434" cy="-470.81421385783386" fill="#C93E3E" r="2.5"/>
<circle cx="505.77630905380994" cy="-287.45571310428414" fill="#C93E3E" r="2.5"/>
<circle cx="273.25619924607696" cy="-216.9583960874474" fill="#C93E3E" r="2.5"/>
<circle cx="335.1556544581662" cy="-254.64665046637708" fill="#C93E3E" r="2.5"/>
<circle cx="257.856417297285" cy="-96.99015934137928" fill="#C93E3E" r="2.5"/>
<circle cx="210.72215525124423" cy="-513.5976000860276" fill="#C93E3E" r="2.5"/>
<circle cx="459.3119060586298" cy="-385.0759580733288" fill="#C93E3E" r="2.5"/>
<circle cx="442.2811491488548" cy="-68.3869840964798" fill="#C93E3E" r="2.5"/>
<circle cx="379.8405623628712" cy="-340.1594046887617" fill="#C93E3E" r="2.5"/>
<circle cx="431.0979277494266" cy="-250.808068133725" fill="#C93E3E" r="2.5"/>
<circle cx="366.59664631427796" cy="-328.03980825998224" fill="#C93E3E" r="2.5"/>
<circle cx="305.7273941044604" cy="-133.37638047868944" fill="#C93E3E" r="2.5"/>
<circle cx="490.16309785154436" cy="-427.83859634143914" fill="#C93E3E" r="2.5"/>
<circle cx="478.5559499845605" cy="-220.47348670351977" fill="#C93E3E" r="2.5"/>
<circle cx="286.0200345999567" cy="-269.5301584829092" fill="#C93E3E" r="2.5"/>
<circle cx="212.92138893200166" cy="-73.25198215559244" fill="#C93E3E" r="2.5"/>
<circle cx="422.7062275380917" cy="-164.44334660265213" fill="#C93E3E" r="2.5"/>
<circle cx="304.4806398266057" cy="-441.2688383308705" fill="#C93E3E" r="2.5"/>
<circle cx="297.81197897219624" cy="-469.6402571012242" fill="#C93E3E" r="2.5"/>
<circle cx="470.21368993483037" cy="-384.7931423567191" fill="#C93E3E" r="2.5"/>
<circle cx="351.17478463017665" cy="-9.55262809625999" fill="#C93E3E" r="2.5"/>
<circle cx="338.654990535552" cy="-525.5617959984027" fill="#C93E3E" r="2.5"/>
<circle cx="273.8029792789079" cy="-16.828577596093407" fill="#C93E3E" r="2.5"/>
<circle cx="39.45737763533616" cy="-497.6690719209489" fill="#C93E3E" r="2.5"/>
<circle cx="444.8160944683909" cy="-51.81702890562687" fill="#C93E3E" r="2.5"/>
<circle cx="186.34719784509863" cy="-396.9432992233486" fill="#C93E3E" r="2.5"/>
<circle cx="257.9727931744806" cy="-156.88221855666478" fill="#C93E3E" r="2.5"/>
<circle cx="164.8990198238451" cy="-136.41365570077647" fill="#C93E3E" r="2.5"/>
<circle cx="251.57047143647233" cy="-389.30661054968584" fill="#C93E3E" r="2.5"/>
<circle cx="319.7183181083113" cy="-26.43917096749371" fill="#C93E3E" r="2.5"/>
<circle cx="195.52559152735466" cy="-38.225175680699365" fill="#C93E3E" r="2.5"/>
<circle cx="485.5583419750028" cy="-379.8490455137607" fill="#C93E3E" r="2.5"/>
<circle cx="127.4847215420249" cy="-431.0055557225005" fill="#C93E3E" r="2.5"/>
<circle cx="89.87250637508315" cy="-59.71438384090365" fill="#C93E3E" r="2.5"/>
<circle cx="382.8999191353028" cy="-22.149066574072553" fill="#C93E3E" r="2.5"/>
<circle cx="105.80601107865144" cy="-189.47013395761624" fill="#C93E3E" r="2.5"/>
<circle cx="382.3524202048451" cy="-9.4861298711368" fill="#C93E3E" r="2.5"/>
<circle cx="72.64688129953986" cy="-49.551241605857555" fill="#C93E3E" r="2.5"/>
<circle cx="316.02201657751" cy="-333.6914170562827" fill="#C93E3E" r="2.5"/>
<circle cx="420.27028113163425" cy="-451.7953600869739" fill="#C93E3E" r="2.5"/>
<circle cx="166.67622004386263" cy="-305.80324238965807" fill="#C93E3E" r="2.5"/>
<circle cx="361.02641715086025" cy="-182.09273177492193" fill="#C93E3E" r="2.5"/>
<circle cx="135.662542263325" cy="-52.11157698384213" fill="#C93E3E" r="2.5"/>
<circle cx="404.8384997732203" cy="-524.0428780256171" fill="#C93E3E" r="2.5"/>
</g>
<g>
<g>
<line stroke="black" stroke-width="1" x1="0" x2="0" y1="0" y2="10"/>
<line stroke="black" stroke-width="1" x1="104" x2="104" y1="0" y2="10"/>
<line stroke="black" stroke-width="1" x1="208" x2="208" y1="0" y2="10"/>
<line stroke="black" stroke-width="1" x1="312.00000000000006" x2="312.00000000000006" y1="0" y2="10"/>
<line stroke="black" stroke-width="1" x1="416" x2="416" y1="0" y2="10"/>
<line stroke="black" stroke-width="1" x1="520" x2="520" y1="0" y2="10"/>
</g>
<line stroke="black" stroke-width="1" x1="0" x2="520" y1="0" y2="0"/>
<g>
<text font-size="12" text-anchor="middle" x="0" y="20">
0
</text>
<text font-size="12" text-anchor="middle" x="104" y="20">
0.2
</text>
<text font-size="12" text-anchor="middle" x="208" y="20">
0.4
</text>
<text font-size="12" text-anchor="middle" x="312.00000000000006" y="20">
0.6000000000000001
</text>
<text font-size="12" text-anchor="middle" x="416" y="20">
0.8
</text>
<text font-size="12" text-anchor="middle" x="520" y="20">
1
</text>
</g>
<text font-size="12" text-anchor="middle" x="260" y="30">
x
</text>
</g>
<g>
<g>
<line stroke="black" stroke-width="1" x1="0" x2="-10" y1="0" y2="0"/>
<line stroke="black" stroke-width="1" x1="0" x2="-10" y1="-108" y2="-108"/>
<line stroke="black" stroke-width="1" x1="0" x2="-10" y1="-216" y2="-216"/>
<line stroke="black" stroke-width="1" x1="0" x2="-10" y1="-324.00000000000006" y2="-324.00000000000006"/>
<line stroke="black" stroke-width="1" x1="0" x2="-10" y1="-432" y2="-432"/>
<line stroke="black" stroke-width="1" x1="0" x2="-10" y1="-540" y2="-540"/>
</g>
<line stroke="black" stroke-0="1" x1="0" x2="0" y1="0" y2="-540"/>
<g>
<text dominant-baseline="middle" font-size="12" text-anchor="end" x="-15" y="0">
0
</text>
<text dominant-baseline="middle" font-size="12" text-anchor="end" x="-15" y="-108">
0.2
</text>
<text dominant-baseline="middle" font-size="12" text-anchor="end" x="-15" y="-216">
0.4
</text>
<text dominant-baseline="middle" font-size="12" text-anchor="end" x="-15" y="-324.00000000000006">
0.6000000000000001
</text>
<text dominant-baseline="middle" font-size="12" text-anchor="end" x="-15" y="-432">
0.8
</text>
<text dominant-baseline="middle" font-size="12" text-anchor="end" x="-15" y="-540">
1
</text>
</g>
<text font-size="12" text-anchor="middle" transform="rotate(-90 -30 -270)" x="-30" y="-270">
y
</text>
</g>
</g>
</svg>