<svg viewBox="0 0 600 400" xmlns="http://www.w3.org/2000/svg">
<g transform="translate(48, 364)">
<g>
<circle cx="144.21996446899365" cy="-1.9107400095477465" fill="#9B2636" r="2.5"/>
<circle cx="14.39995446382011" cy="-101.20250258272328" fill="#9B2636" r="2.5"/>
<circle cx="12.61173118672938" cy="-161.32786575903526" fill="#9B2636" r="2.5"/>
<circle cx="15.250904084446226" cy="-178.2063911198053" fill="#9B2636" r="2.5"/>
<circle cx="3.562429033591883" cy="-153.93018902443086" fill="#9B2636" r="2.5"/>
<circle cx="2.295435686789218" cy="-4.908275981095692" fill="#9B2636" r="2.5"/>
<circle cx="61.84242188208438" cy="-23.407591577489224" fill="#9B2636" r="2.5"/>
<circle cx="6.717384360781504" cy="-2.9997202933259186" fill="#9B2636" r="2.5"/>
<circle cx="69.13993008294477" cy="-22.823338680465554" fill="#9B2636" r="2.5"/>
<circle cx="22.28566394260149" cy="-30.95159598663205" fill="#9B2636" r="2.5"/>
<circle cx="16.310601947022025" cy="-115.2447810088894" fill="#9B2636" r="2.5"/>
</g>
<g>
<path d="M0,-340 L0,-340 L2.6,-310.7366 L5.2,-283.99188 L7.8,-259.54904 L10.4,-237.20995 L13,-216.79356 L15.6,-198.1344 L18.2,-181.0812 L20.8,-165.49576 L23.4,-151.25174 L26,-138.23369 L28.6,-126.336075 L31.2,-115.46248 L33.8,-105.52476 L36.4,-96.44237 L39,-88.141685 L41.6,-80.555435 L44.2,-73.62212 L46.8,-67.28555 L49.4,-61.494366 L52,-56.20162 L54.6,-51.36441 L57.2,-46.943535 L59.8,-42.90316 L62.4,-39.210537 L65,-35.83573 L67.6,-32.751392 L70.2,-29.932518 L72.8,-27.356262 L75.4,-25.00174 L78,-22.849869 L80.6,-20.883207 L83.2,-19.085815 L85.8,-17.443121 L88.4,-15.941812 L91,-14.569718 L93.6,-13.31572 L96.2,-12.169651 L98.8,-11.122223 L101.4,-10.164946 L104,-9.290061 L106.6,-8.490476 L109.2,-7.75971 L111.8,-7.0918407 L114.4,-6.481454 L117,-5.923602 L119.6,-5.4137645 L122.2,-4.947808 L124.8,-4.5219555 L127.4,-4.1327553 L130,-3.7770536 L132.6,-3.4519668 L135.2,-3.1548595 L137.8,-2.8833241 L140.4,-2.6351595 L143,-2.4083538 L145.6,-2.2010694 L148.2,-2.0116255 L150.8,-1.8384868 L153.4,-1.6802499 L156,-1.5356324 L158.6,-1.4034618 L161.2,-1.2826672 L163.8,-1.172269 L166.4,-1.0713727 L169,-0.97916055 L171.6,-0.89488494 L174.2,-0.8178628 L176.8,-0.74746984 L179.4,-0.68313557 L182,-0.62433845 L184.6,-0.57060194 L187.2,-0.52149045 L189.8,-0.47660595 L192.4,-0.4355846 L195,-0.3980939 L197.6,-0.36382997 L200.2,-0.33251512 L202.8,-0.3038955 L205.4,-0.27773914 L208,-0.253834 L210.6,-0.23198636 L213.2,-0.21201913 L215.8,-0.19377044 L218.4,-0.1770924 L221,-0.16184983 L223.6,-0.14791916 L226.2,-0.13518749 L228.8,-0.123551615 L231.4,-0.11291723 L234,-0.10319813 L236.6,-0.094315544 L239.2,-0.08619747 L241.8,-0.07877811 L244.4,-0.07199733 L247,-0.06580016 L249.6,-0.06013637 L252.2,-0.054960057 L254.8,-0.050229266 L257.4,-0.045905646 L260,-0.041954156 L262.6,-0.038342766 L265.2,-0.035042204 L267.8,-0.032025717 L270.4,-0.029268855 L273,-0.026749274 L275.6,-0.02444655 L278.2,-0.022342019 L280.8,-0.020418622 L283.4,-0.01866077 L286,-0.017054213 L288.6,-0.015585932 L291.2,-0.014244024 L293.8,-0.013017612 L296.4,-0.011896756 L299,-0.010872371 L301.6,-0.009936153 L304.2,-0.009080514 L306.8,-0.008298519 L309.4,-0.00758383 L312,-0.006930653 L314.6,-0.0063336943 L317.2,-0.005788115 L319.8,-0.005289493 L322.4,-0.004833787 L325,-0.004417303 L327.6,-0.0040366654 L330.2,-0.0036887887 L332.8,-0.0033708534 L335.4,-0.0030802824 L338,-0.0028147204 L340.6,-0.002572015 L343.2,-0.002350199 L345.8,-0.0021474746 L348.4,-0.0019621982 L351,-0.0017928685 L353.6,-0.0016381127 L356.2,-0.0014966767 L358.8,-0.0013674138 L361.4,-0.0012492765 L364,-0.0011413071 L366.6,-0.0010426304 L369.2,-0.0009524467 L371.8,-0.0008700251 L374.4,-0.0007946974 L377,-0.000725853 L379.6,-0.00066293404 L382.2,-0.0006054304 L384.8,-0.00055287604 L387.4,-0.000504845 L390,-0.0004609479 L392.6,-0.000420829 L395.2,-0.00038416305 L397.8,-0.0003506529 L400.4,-0.00032002694 L403,-0.00029203692 L405.6,-0.000266456 L408.2,-0.00024307675 L410.8,-0.00022170974 L413.4,-0.00020218176 L416,-0.00018433454 L418.6,-0.0001680234 L421.2,-0.00015311614 L423.8,-0.00013949194 L426.4,-0.00012704034 L429,-0.000115660456 L431.6,-0.00010526002 L434.2,-0.00009575473 L436.8,-0.00008706756 L439.4,-0.000079128076 L442,-0.00007187193 L444.6,-0.00006524032 L447.2,-0.00005917948 L449.8,-0.00005364029 L452.4,-0.000048577855 L455,-0.000043951135 L457.6,-0.000039722632 L460.2,-0.000035858073 L462.8,-0.00003232613 L465.4,-0.000029098177 L468,-0.00002614805 L470.6,-0.000023451837 L473.2,-0.000020987685 L475.8,-0.000018735618 L478.4,-0.000016677384 L481,-0.000014796301 L483.6,-0.0000130771205 L486.2,-0.000011505907 L488.8,-0.000010069926 L491.4,-0.000008757539 L494,-0.000007558107 L496.6,-0.0000064619085 L499.2,-0.0000054600587 L501.8,-0.000004544437 L504.4,-0.0000037076218 L507,-0.0000029428302 L509.6,-0.0000022438635 L512.2,-0.0000016050558 L514.8,-0.0000010212297 L517.4,-0.00000048765264 L520,0" fill="none" stroke="#2B2A2B" stroke-linejoin="round" stroke-width="2"/>
</g>
<g>
<g>
<line stroke="black" stroke-width="1" x1="0" x2="0" y1="0" y2="10"/>
<line stroke="black" stroke-width="1" x1="173.33333333333334" x2="173.33333333333334" y1="0" y2="10"/>
<line stroke="black" stroke-width="1" x1="346.6666666666667" x2="346.6666666666667" y1="0" y2="10"/>
<line stroke="black" stroke-width="1" x1="520" x2="520" y1="0" y2="10"/>
</g>
<line stroke="black" stroke-width="1" x1="0" x2="520" y1="0" y2="0"/>
<g>
<text font-size="12" text-anchor="middle" x="0" y="20">
0
</text>
<text font-size="12" text-anchor="middle" x="173.33333333333334" y="20">
10
</text>
<text font-size="12" text-anchor="middle" x="346.6666666666667" y="20">
20
</text>
<text font-size="12" text-anchor="middle" x="520" y="20">
30
</text>
</g>
<text font-size="12" text-anchor="middle" x="260" y="30">
Time t
</text>
</g>
<g>
<g>
<line stroke="black" stroke-width="1" x1="0" x2="-10" y1="-67.99999585744546" y2="-67.99999585744546"/>
<line stroke="black" stroke-width="1" x1="0" x2="-10" y1="-135.99999689308407" y2="-135.99999689308407"/>
<line stroke="black" stroke-width="1" x1="0" x2="-10" y1="-203.9999979287227" y2="-203.9999979287227"/>
<line stroke="black" stroke-width="1" x1="0" x2="-10" y1="-271.99999896436134" y2="-271.99999896436134"/>
<line stroke="black" stroke-width="1" x1="0" x2="-10" y1="-340" y2="-340"/>
</g>
<line stroke="black" stroke-width="1" x1="0" x2="0" y1="0" y2="-340"/>
<g>
<text dominant-baseline="middle" font-size="12" text-anchor="end" x="-15" y="-67.99999585744546">
1
</text>
<text dominant-baseline="middle" font-size="12" text-anchor="end" x="-15" y="-135.99999689308407">
2
</text>
<text dominant-baseline="middle" font-size="12" text-anchor="end" x="-15" y="-203.9999979287227">
3
</text>
<text dominant-baseline="middle" font-size="12" text-anchor="end" x="-15" y="-271.99999896436134">
4
</text>
<text dominant-baseline="middle" font-size="12" text-anchor="end" x="-15" y="-340">
5
</text>
</g>
<text font-size="12" text-anchor="middle" transform="rotate(-90 -30 -170)" x="-30" y="-170">
Intensity λ(t)
</text>
</g>
</g>
</svg>