<svg viewBox="0 0 900 400" xmlns="http://www.w3.org/2000/svg">
<g transform="translate(48, 364)">
<g>
<path d="M0,0 L0,0 L0.27342448,0 L0.54684895,0 L0.8202734,0 L1.0936979,0 L1.3671224,0 L1.6405468,0 L1.9139713,0 L2.1873958,0 L2.4608202,0 L2.7342448,0 L3.0076692,0 L3.2810936,0 L3.5545182,0 L3.8279426,0 L4.101367,0 L4.3747916,0 L4.6482162,0 L4.9216404,0 L5.195065,0 L5.4684896,0 L5.741914,0 L6.0153384,0 L6.288763,0 L6.562187,0 L6.835612,0 L7.1090364,0 L7.3824606,0 L7.655885,0 L7.92931,0 L8.202734,0 L8.476159,0 L8.749583,0 L9.023007,0 L9.2964325,0 L9.569857,0 L9.843281,0 L10.116706,-147.46489 L10.39013,-143.10664 L10.663554,-138.87721 L10.936979,-134.77277 L11.210403,-130.78963 L11.483828,-126.92421 L11.757253,-123.173035 L12.030677,-119.53272 L12.304101,-115.99999 L12.577526,-112.57168 L12.85095,-109.24468 L13.124374,-106.016014 L13.3977995,-102.88277 L13.671224,-99.842125 L13.944648,-96.89134 L14.218073,-94.02777 L14.491497,-91.248825 L14.764921,-88.55202 L15.038346,-85.93491 L15.31177,-83.39515 L15.585196,-80.93045 L15.85862,-78.5386 L16.132044,-76.21743 L16.405468,-73.96487 L16.678892,-71.77887 L16.952318,-69.657486 L17.225742,-67.59879 L17.499166,-181.465 L17.77259,-176.1019 L18.046015,-170.8973 L18.319439,-165.84651 L18.592865,-160.945 L18.86629,-156.18837 L19.139713,-151.5723 L19.413137,-147.09267 L19.686562,-142.74542 L19.959986,-138.52666 L20.233412,-134.43257 L20.506836,-130.45949 L20.78026,-126.60383 L21.053684,-122.86212 L21.327108,-119.230995 L21.600534,-115.70719 L21.873959,-112.28752 L22.147383,-108.968925 L22.420807,-105.748405 L22.694231,-102.62307 L22.967655,-99.5901 L23.241081,-96.64677 L23.514505,-93.79042 L23.78793,-91.0185 L24.061354,-88.3285 L24.334778,-85.717995 L24.608202,-83.18465 L24.881628,-80.726166 L25.155052,-78.34035 L25.428476,-76.02504 L25.7019,-73.77816 L25.975325,-71.59769 L26.248749,-69.48166 L26.522175,-67.42816 L26.795599,-65.435356 L27.069023,-63.50145 L27.342447,-61.6247 L27.615871,-59.803413 L27.889296,-58.035957 L28.162722,-56.320736 L28.436146,-54.656204 L28.70957,-142.29767 L28.982994,-138.09213 L29.256418,-134.0109 L29.529842,-130.05028 L29.803268,-126.20671 L30.076693,-122.47674 L30.350117,-118.857 L30.62354,-115.344246 L30.896965,-111.93531 L31.170391,-108.62712 L31.443815,-105.4167 L31.71724,-102.30117 L31.990664,-99.27771 L32.264088,-180.18451 L32.537514,-174.85925 L32.810936,-169.69138 L33.084362,-164.67624 L33.357784,-159.80931 L33.63121,-155.08624 L33.904636,-150.50275 L34.17806,-146.05472 L34.451485,-141.73814 L34.724907,-137.54915 L34.998333,-133.48396 L35.27176,-129.53891 L35.54518,-125.710464 L35.818607,-121.995155 L36.09203,-118.389656 L36.365456,-114.89071 L36.638878,-111.49518 L36.912304,-108.2 L37.18573,-105.002205 L37.459152,-101.89892 L37.73258,-98.88735 L38.006,-95.96479 L38.279427,-93.1286 L38.552853,-90.376236 L38.826275,-87.705215 L39.0997,-85.11313 L39.373123,-82.59766 L39.64655,-80.15653 L39.91997,-77.787544 L40.193398,-75.48858 L40.466824,-73.25755 L40.740246,-71.09246 L41.01367,-68.99136 L41.287094,-66.95236 L41.56052,-64.97362 L41.833946,-63.05336 L42.10737,-61.18985 L42.380795,-59.381416 L42.654217,-57.62643 L42.927643,-55.923313 L43.20107,-54.27053 L43.47449,-52.66659 L43.747917,-51.110058 L44.02134,-49.59953 L44.294765,-48.13364 L44.568188,-126.01466 L44.841614,-122.29037 L45.11504,-118.67614 L45.388462,-115.16873 L45.66189,-111.764984 L45.93531,-108.46183 L46.208736,-105.256294 L46.482162,-102.1455 L46.755585,-99.12665 L47.02901,-96.197014 L47.302433,-93.35396 L47.57586,-90.59493 L47.84928,-87.91745 L48.122707,-85.3191 L48.396133,-82.79754 L48.669556,-80.3505 L48.94298,-77.975784 L49.216404,-75.67125 L49.48983,-73.43483 L49.763256,-71.264496 L50.03668,-69.15832 L50.310104,-67.11438 L50.583527,-65.13085 L50.856953,-63.20594 L51.130375,-61.33792 L51.4038,-59.525112 L51.677227,-57.76588 L51.95065,-56.05864 L52.224075,-54.401855 L52.497498,-52.79404 L52.770924,-51.233738 L53.04435,-49.719555 L53.317772,-48.25012 L53.591198,-46.824112 L53.86462,-121.540596 L54.138046,-117.948524 L54.411472,-114.462616 L54.684895,-111.079735 L54.95832,-107.79684 L55.231743,-104.610954 L55.50517,-101.51923 L55.77859,-98.51889 L56.052017,-95.607216 L56.325443,-92.78159 L56.598866,-90.03948 L56.87229,-87.37842 L57.145714,-84.796 L57.41914,-82.289894 L57.692566,-79.85786 L57.96599,-77.4977 L58.239414,-75.2073 L58.512836,-72.98459 L58.786263,-148.15428 L59.059685,-143.77565 L59.33311,-139.52644 L59.606537,-135.40282 L59.87996,-131.40106 L60.153385,-127.51757 L60.426807,-123.748856 L60.700233,-120.09152 L60.97366,-116.54228 L61.24708,-113.09794 L61.520508,-109.75539 L61.79393,-106.51163 L62.067356,-103.36373 L62.340782,-100.30887 L62.614204,-97.3443 L62.88763,-94.46734 L63.161053,-91.67541 L63.43448,-88.96599 L63.7079,-86.33665 L63.981327,-83.78501 L64.25475,-81.30879 L64.528175,-78.905754 L64.8016,-76.57374 L65.07503,-74.31064 L65.34845,-72.114426 L65.62187,-69.98312 L65.8953,-67.91481 L66.168724,-65.90762 L66.44215,-63.95976 L66.71557,-62.06946 L66.989,-60.235035 L67.26242,-58.45482 L67.53584,-56.72722 L67.80927,-55.050674 L68.082695,-53.423683 L68.35612,-51.844772 L68.62954,-50.31253 L68.90297,-48.82557 L69.17639,-47.382557 L69.449814,-45.98219 L69.72324,-44.62321 L69.996666,-43.304394 L70.27009,-42.024555 L70.54352,-40.782543 L70.81694,-39.577236 L71.09036,-38.407555 L71.363785,-37.272438 L71.637215,-36.17087 L71.91064,-35.10186 L72.18406,-34.064445 L72.45749,-33.057686 L72.73091,-32.080685 L73.00433,-31.132557 L73.277756,-30.212452 L73.551186,-29.319538 L73.82461,-28.453014 L74.09803,-27.612103 L74.37146,-26.796041 L74.64488,-26.004099 L74.918304,-25.235561 L75.191734,-24.489737 L75.46516,-23.765957 L75.73858,-23.063566 L76.012,-22.381935 L76.28543,-21.720448 L76.55885,-21.078512 L76.832275,-20.455547 L77.105705,-19.850996 L77.37913,-19.264309 L77.65255,-18.694963 L77.92597,-18.142443 L78.1994,-17.606253 L78.472824,-17.08591 L78.74625,-16.580944 L79.01968,-16.090904 L79.2931,-15.615346 L79.56652,-15.153843 L79.83994,-14.705979 L80.11337,-14.271352 L80.386795,-13.849569 L80.66022,-13.440252 L80.93365,-88.38924 L81.20707,-85.77694 L81.48049,-83.24185 L81.75392,-80.781685 L82.02734,-78.394226 L82.300766,-76.077324 L82.57419,-73.828896 L82.84762,-71.64693 L83.12104,-69.52944 L83.39446,-67.47453 L83.66789,-65.48036 L83.941315,-63.54512 L84.21474,-61.66708 L84.48816,-59.844543 L84.76159,-58.075867 L85.03501,-56.359467 L85.30843,-54.693794 L85.58186,-53.077347 L85.855286,-51.508675 L86.12871,-49.986362 L86.40214,-48.509045 L86.67556,-47.075382 L86.94898,-45.684097 L87.222404,-44.333927 L87.495834,-43.023663 L87.76926,-41.75212 L88.04268,-40.518158 L88.31611,-39.320667 L88.58953,-38.158566 L88.86295,-37.030807 L89.136375,-35.936382 L89.409805,-34.874302 L89.68323,-33.843613 L89.95665,-32.84338 L90.23008,-31.872713 L90.5035,-30.93073 L90.776924,-30.01659 L91.05035,-29.129465 L91.32378,-28.26856 L91.5972,-27.433098 L91.87062,-26.622328 L92.14405,-25.835518 L92.41747,-25.071964 L92.690895,-24.330975 L92.964325,-23.611887 L93.23775,-22.91405 L93.51117,-22.236837 L93.78459,-21.57964 L94.05802,-20.941864 L94.33144,-20.322939 L94.604866,-19.722305 L94.878296,-19.139423 L95.15172,-18.573767 L95.42514,-18.02483 L95.69856,-17.492115 L95.97199,-16.975145 L96.245415,-16.473454 L96.51884,-15.986589 L96.79227,-15.514114 L97.06569,-15.055603 L97.33911,-14.610643 L97.61254,-14.178833 L97.88596,-13.759786 L98.159386,-13.353122 L98.43281,-12.958478 L98.70624,-12.575497 L98.97966,-12.203835 L99.25308,-11.843157 L99.52651,-11.493139 L99.799934,-11.153465 L100.07336,-10.823831 L100.34678,-10.503938 L100.62021,-10.1935 L100.89363,-9.892237 L101.16705,-9.599876 L101.44048,-9.316157 L101.713905,-9.040823 L101.98733,-8.773626 L102.26075,-8.514327 L102.53418,-8.262691 L102.8076,-8.018491 L103.081024,-7.7815084 L103.354454,-7.5515304 L103.62788,-7.3283486 L103.9013,-7.1117635 L104.17473,-6.901579 L104.44815,-6.6976066 L104.72157,-6.4996624 L104.994995,-6.3075686 L105.268425,-6.1211514 L105.54185,-5.940244 L105.81527,-5.7646832 L106.0887,-5.594311 L106.36212,-5.428974 L106.635544,-5.2685237 L106.908966,-5.1128154 L107.182396,-4.961709 L107.45582,-4.8150682 L107.72924,-4.6727614 L108.00267,-4.5346603 L108.27609,-4.400641 L108.549515,-4.2705827 L108.822945,-4.1443677 L109.09637,-4.021883 L109.36979,-3.9030185 L109.64321,-3.7876668 L109.91664,-3.6757245 L110.19006,-3.5670903 L110.463486,-3.4616668 L110.736916,-3.3593593 L111.01034,-3.260075 L111.28376,-3.1637254 L111.55718,-3.070223 L111.83061,-2.9794843 L112.104034,-2.8914273 L112.37746,-2.8059726 L112.65089,-2.7230437 L112.92431,-2.6425655 L113.19773,-2.564466 L113.47115,-2.4886744 L113.74458,-2.415123 L114.018005,-2.3437455 L114.29143,-2.2744772 L114.56486,-2.2072563 L114.83828,-2.142022 L115.1117,-2.0787156 L115.38513,-2.0172803 L115.658554,-1.9576607 L115.93198,-1.899803 L116.2054,-1.8436553 L116.47883,-1.7891672 L116.75225,-1.7362893 L117.02567,-1.6849742 L117.2991,-1.6351757 L117.572525,-1.5868489 L117.84595,-1.5399505 L118.11937,-76.690544 L118.3928,-74.423996 L118.66622,-72.224434 L118.939644,-70.08988 L119.21307,-68.01842 L119.486496,-66.00816 L119.75992,-140.77989 L120.03335,-136.61922 L120.30677,-132.58151 L120.58019,-128.66313 L120.853615,-124.86056 L121.127045,-121.17037 L121.40047,-117.58925 L121.67389,-114.11396 L121.94732,-110.74139 L122.22074,-107.46848 L122.49416,-104.292305 L122.767586,-178.24434 L123.041016,-172.97641 L123.31444,-167.8642 L123.58786,-162.90306 L123.86129,-158.08855 L124.13471,-153.41632 L124.408134,-148.88219 L124.681564,-144.48204 L124.95499,-140.21196 L125.22841,-136.06807 L125.50183,-132.04665 L125.77526,-128.14407 L126.04868,-124.35685 L126.322105,-120.68155 L126.595535,-117.11487 L126.86896,-113.6536 L127.14238,-110.29463 L127.4158,-107.034935 L127.68923,-103.871574 L127.962654,-100.801704 L128.23608,-97.82256 L128.5095,-94.93147 L128.78293,-92.125824 L129.05635,-89.40309 L129.32977,-86.76083 L129.6032,-84.19666 L129.87663,-81.708275 L130.15005,-79.29343 L130.42348,-76.94995 L130.6969,-74.67574 L130.97032,-72.468735 L131.24374,-70.326965 L131.51717,-68.24849 L131.7906,-66.23144 L132.06403,-64.274 L132.33745,-62.37442 L132.61087,-60.53098 L132.8843,-58.742016 L133.15771,-57.005928 L133.43114,-55.321148 L133.70457,-53.68616 L133.978,-52.099495 L134.25142,-50.559723 L134.52484,-49.065456 L134.79826,-47.615353 L135.07169,-46.208107 L135.34511,-44.842453 L135.61855,-43.517155 L135.89197,-42.23103 L136.16539,-40.982914 L136.43881,-39.771687 L136.71223,-38.596256 L136.98566,-37.455563 L137.25908,-36.348583 L137.53252,-35.274323 L137.80594,-34.231808 L138.07936,-33.220104 L138.35278,-32.238304 L138.6262,-31.285517 L138.89963,-30.36089 L139.17307,-29.46359 L139.44649,-28.59281 L139.71991,-27.747765 L139.99333,-26.927694 L140.26675,-26.13186 L140.54018,-25.359547 L140.8136,-24.61006 L141.08704,-23.88272 L141.36046,-23.17688 L141.63388,-22.491901 L141.9073,-21.827164 L142.18073,-21.182074 L142.45415,-20.55605 L142.72757,-19.948526 L143.001,-19.358957 L143.27443,-18.786814 L143.54785,-18.23158 L143.82127,-17.692755 L144.0947,-17.169855 L144.36812,-16.662409 L144.64154,-16.169962 L144.91498,-15.692066 L145.1884,-15.228296 L145.46182,-14.778232 L145.73524,-14.341469 L146.00867,-13.917614 L146.28209,-13.506287 L146.55551,-13.107116 L146.82895,-12.719742 L147.10237,-12.343817 L147.3758,-11.979002 L147.64922,-11.624969 L147.92264,-11.281399 L148.19606,-10.947984 L148.46948,-10.624421 L148.74292,-10.310422 L149.01634,-10.005703 L149.28976,-9.7099905 L149.56319,-9.423017 L149.83661,-9.144525 L150.11003,-84.31996 L150.38347,-81.82793 L150.65689,-79.409546 L150.93031,-77.06264 L151.20374,-74.785095 L151.47716,-72.57486 L151.75058,-70.42995 L152.024,-68.34843 L152.29744,-142.62498 L152.57086,-138.40977 L152.84428,-134.31915 L153.1177,-206.47382 L153.39113,-200.37158 L153.66455,-194.4497 L153.93797,-188.70285 L154.21141,-183.12584 L154.48483,-177.71365 L154.75826,-172.46143 L155.03168,-167.36441 L155.3051,-162.41805 L155.57852,-157.61787 L155.85194,-152.95956 L156.12538,-148.43892 L156.3988,-144.0519 L156.67223,-139.79451 L156.94565,-135.66296 L157.21907,-131.65352 L157.4925,-127.762566 L157.76591,-123.98661 L158.03935,-120.32225 L158.31277,-116.76619 L158.5862,-188.64378 L158.85962,-183.06851 L159.13304,-177.65802 L159.40646,-172.40744 L159.67989,-167.31203 L159.95332,-162.3672 L160.22675,-157.56853 L160.50017,-152.91168 L160.77359,-148.39246 L161.04701,-144.00679 L161.32043,-139.75075 L161.59387,-135.6205 L161.8673,-131.6123 L162.14072,-127.72257 L162.41414,-123.9478 L162.68756,-120.284584 L162.96098,-116.72964 L163.2344,-113.27976 L163.50784,-185.65576 L163.78127,-180.16881 L164.05469,-174.84401 L164.32811,-169.67659 L164.60153,-164.66188 L164.87495,-159.7954 L165.14838,-155.07272 L165.42181,-150.48964 L165.69524,-146.04199 L165.96866,-141.7258 L166.24208,-137.53717 L166.5155,-133.47234 L166.78893,-129.52763 L167.06235,-125.69951 L167.33578,-121.98453 L167.6092,-118.37934 L167.88263,-114.8807 L168.15605,-111.485466 L168.42947,-108.19057 L168.7029,-104.99306 L168.97632,-101.89004 L169.24976,-98.87874 L169.52318,-95.95643 L169.7966,-93.12048 L170.07002,-90.36836 L170.34344,-87.69757 L170.61687,-85.10571 L170.89029,-82.59046 L171.16373,-80.14954 L171.43715,-77.78077 L171.71057,-75.482 L171.984,-73.25117 L172.25742,-71.086266 L172.53084,-68.98535 L172.80428,-66.946526 L173.0777,-64.96796 L173.35112,-63.047867 L173.62454,-61.18452 L173.89796,-59.376244 L174.17139,-57.62141 L174.44481,-55.91844 L174.71825,-131.6374 L174.99167,-127.746925 L175.26509,-123.971436 L175.53851,-120.307526 L175.81194,-116.7519 L176.08536,-113.30136 L176.35878,-109.9528 L176.63222,-106.7032 L176.90564,-103.549644 L177.17906,-100.48929 L177.45248,-97.51939 L177.7259,-94.63725 L177.99933,-91.840294 L178.27275,-89.12601 L178.54619,-86.491936 L178.81961,-83.935715 L179.09303,-81.45504 L179.36646,-79.047676 L179.63988,-76.711464 L179.9133,-74.4443 L180.18672,-72.24413 L180.46016,-70.109 L180.73358,-68.036964 L181.007,-66.02617 L181.28043,-64.0748 L181.55385,-62.181103 L181.82727,-60.343376 L182.1007,-58.55996 L182.37413,-56.82925 L182.64755,-55.149693 L182.92097,-53.51977 L183.1944,-51.938023 L183.46782,-50.403023 L183.74124,-48.913387 L184.01468,-47.46778 L184.2881,-46.064896 L184.56152,-44.703472 L184.83495,-43.382286 L185.10837,-42.100143 L185.38179,-40.855896 L185.65521,-39.648422 L185.92865,-38.476635 L186.20207,-37.339478 L186.4755,-36.23593 L186.74892,-35.164997 L187.02234,-109.47483 L187.29576,-106.239365 L187.56918,-103.09952 L187.84262,-100.05246 L188.11604,-97.09547 L188.38947,-94.22586 L188.66289,-91.44106 L188.93631,-88.73857 L189.20973,-86.11595 L189.48315,-83.57084 L189.75659,-81.10095 L190.03001,-78.704056 L190.30344,-76.378 L190.57686,-74.12069 L190.85028,-71.93009 L191.1237,-69.80424 L191.39713,-144.33916 L191.67056,-140.07329 L191.94398,-135.9335 L192.2174,-131.91606 L192.49083,-128.01735 L192.76425,-124.233864 L193.03767,-120.562195 L193.3111,-116.99905 L193.58453,-113.5412 L193.85796,-110.185555 L194.13138,-106.92908 L194.4048,-103.768845 L194.67822,-100.70201 L194.95164,-97.725815 L195.22508,-94.837585 L195.4985,-92.034706 L195.77193,-89.314674 L196.04535,-86.675026 L196.31877,-84.11339 L196.5922,-81.627464 L196.86562,-79.21501 L197.13905,-76.87385 L197.41248,-74.60188 L197.6859,-72.397064 L197.95932,-70.25741 L198.23274,-68.18099 L198.50616,-66.16594 L198.77959,-64.210434 L199.05302,-62.312733 L199.32645,-60.47111 L199.59987,-58.68392 L199.87329,-56.94955 L200.14671,-55.266438 L200.42014,-53.633064 L200.69356,-52.04797 L200.967,-50.50972 L201.24042,-49.01693 L201.51384,-47.56826 L201.78726,-46.162407 L202.06068,-44.798103 L202.3341,-43.474117 L202.60753,-42.189262 L202.88097,-40.942383 L203.15439,-39.732353 L203.42781,-38.558083 L203.70123,-37.41852 L203.97466,-36.312637 L204.24808,-35.239437 L204.5215,-34.197952 L204.79494,-33.187252 L205.06836,-32.206417 L205.34178,-31.254576 L205.6152,-30.330862 L205.88863,-29.43445 L206.16205,-28.564531 L206.43549,-27.720322 L206.70891,-26.901062 L206.98233,-26.106016 L207.25575,-25.334467 L207.52917,-99.860374 L207.8026,-96.90905 L208.07602,-94.04496 L208.34946,-91.26551 L208.62288,-88.56821 L208.8963,-85.95062 L209.16972,-83.41039 L209.44315,-80.945244 L209.71657,-78.552956 L209.98999,-76.23136 L210.26343,-73.978386 L210.53685,-71.79199 L210.81027,-69.67022 L211.0837,-67.61115 L211.35712,-65.61294 L211.63054,-63.673786 L211.90396,-61.79194 L212.1774,-59.965714 L212.45082,-58.19346 L212.72424,-56.473583 L212.99767,-54.804535 L213.27109,-53.184814 L213.54451,-51.61297 L213.81793,-50.087574 L214.09137,-48.60726 L214.36479,-47.1707 L214.63821,-45.776596 L214.91164,-44.42369 L215.18506,-43.110775 L215.45848,-41.83666 L215.7319,-40.600197 L216.00534,-39.40028 L216.27876,-38.23583 L216.55219,-37.105785 L216.8256,-36.009144 L217.09903,-34.944916 L217.37245,-33.912136 L217.64589,-32.90988 L217.91931,-31.937246 L218.19273,-30.993359 L218.46616,-30.077366 L218.73958,-29.188446 L219.013,-28.325796 L219.28642,-27.488644 L219.55986,-26.676231 L219.83328,-25.887829 L220.1067,-25.122728 L220.38013,-24.38024 L220.65355,-23.659695 L220.92697,-22.960445 L221.2004,-22.28186 L221.47383,-21.623333 L221.74725,-20.984266 L222.02068,-20.364088 L222.2941,-19.762238 L222.56752,-19.178175 L222.84094,-18.611374 L223.11436,-18.061325 L223.3878,-17.527533 L223.66122,-17.009516 L223.93465,-16.50681 L224.20807,-16.018959 L224.48149,-15.545527 L224.75491,-15.086087 L225.02834,-14.640226 L225.30177,-14.207541 L225.5752,-13.787645 L225.84862,-13.380159 L226.12204,-12.984715 L226.39546,-12.600959 L226.66888,-12.228544 L226.9423,-11.867137 L227.21574,-11.51641 L227.48917,-11.176048 L227.76259,-10.845746 L228.03601,-10.525206 L228.30943,-10.214139 L228.58286,-9.912266 L228.8563,-9.619314 L229.12971,-9.33502 L229.40314,-9.059129 L229.67656,-8.791391 L229.94998,-8.531566 L230.2234,-8.27942 L230.49683,-8.034726 L230.77026,-7.797264 L231.04369,-7.56682 L231.31711,-7.343187 L231.59053,-7.126163 L231.86395,-6.915553 L232.13737,-6.711168 L232.4108,-6.5128226 L232.68423,-6.3203397 L232.95766,-6.1335454 L233.23108,-5.9522715 L233.5045,-5.7763553 L233.77792,-5.6056385 L234.05135,-5.4399667 L234.32477,-5.2791915 L234.5982,-5.1231675 L234.87163,-4.971755 L235.14505,-4.8248177 L235.41847,-4.682223 L235.6919,-4.5438423 L235.96532,-4.409551 L236.23874,-4.279229 L236.51218,-4.152759 L236.7856,-4.0300264 L237.05902,-3.910921 L237.33244,-3.795336 L237.60587,-3.683167 L237.87929,-3.574313 L238.15271,-3.4686759 L238.42615,-3.366161 L238.69957,-3.266676 L238.97299,-3.1701312 L239.24641,-3.0764396 L239.51984,-2.985517 L239.79326,-2.8972816 L240.0667,-2.811654 L240.34012,-2.728557 L240.61354,-2.647916 L240.88696,-2.5696583 L241.16039,-2.4937134 L241.4338,-2.4200132 L241.70723,-2.348491 L241.98067,-2.2790825 L242.25409,-2.2117255 L242.52751,-2.146359 L242.80093,-2.0829246 L243.07436,-2.021365 L243.34778,-1.9616245 L243.6212,-1.9036497 L243.89464,-1.8473884 L244.16806,-1.7927898 L244.44148,-1.7398049 L244.7149,-1.6883858 L244.98833,-1.6384865 L245.26175,-1.5900619 L245.53517,-1.5430684 L245.80861,-1.497464 L246.08203,-1.4532071 L246.35545,-1.4102584 L246.62888,-1.3685789 L246.9023,-1.3281313 L247.17572,-1.2888792 L247.44914,-1.250787 L247.72258,-1.2138207 L247.996,-1.1779468 L248.26942,-1.1431333 L248.54285,-1.1093485 L248.81627,-1.0765623 L249.08969,-1.0447451 L249.36313,-1.0138682 L249.63655,-0.9839039 L249.90997,-0.95482516 L250.1834,-0.92660576 L250.45682,-0.89922047 L250.73024,-0.8726445 L251.00366,-0.8468539 L251.2771,-0.8218256 L251.55052,-0.79753697 L251.82394,-0.7739662 L252.09737,-0.7510921 L252.37079,-0.72889394 L252.64421,-0.70735186 L252.91763,-0.6864464 L253.19107,-0.6661589 L253.4645,-0.6464709 L253.73792,-0.6273648 L254.01134,-0.60882336 L254.28476,-0.5908299 L254.55818,-0.57336825 L254.8316,-0.55642265 L255.10504,-0.5399779 L255.37846,-0.5240191 L255.65189,-0.50853205 L255.92531,-0.49350265 L256.19873,-0.47891745 L256.47217,-0.46476328 L256.74557,-0.45102745 L257.019,-0.4376976 L257.29242,-0.42476165 L257.56586,-0.41220805 L257.8393,-0.40002546 L258.1127,-0.38820294 L258.38614,-0.3767298 L258.65955,-0.36559576 L258.93298,-0.35479078 L259.2064,-0.34430513 L259.47983,-0.33412936 L259.75327,-0.32425433 L260.02667,-0.3146712 L260.3001,-0.30537125 L260.57352,-0.29634616 L260.84695,-0.2875878 L261.12036,-0.2790883 L261.3938,-0.27084 L261.66724,-0.26283547 L261.94064,-0.2550675 L262.21408,-0.24752912 L262.4875,-0.24021353 L262.76093,-0.23311414 L263.03433,-0.22622459 L263.30777,-0.21953863 L263.5812,-0.21305029 L263.8546,-0.2067537 L264.12805,-0.2006432 L264.40146,-0.1947133 L264.6749,-0.18895866 L264.9483,-0.18337408 L265.22174,-0.17795455 L265.49518,-0.1726952 L265.7686,-0.16759129 L266.04202,-0.16263822 L266.31543,-0.15783153 L266.58887,-0.1531669 L266.86227,-0.14864014 L267.1357,-0.14424716 L267.40915,-0.13998401 L267.68256,-0.13584685 L267.956,-0.13183197 L268.2294,-0.12793575 L268.50284,-0.12415468 L268.77625,-0.12048536 L269.04968,-0.11692448 L269.32312,-0.11346883 L269.59653,-0.11011533 L269.86996,-0.10686093 L270.14337,-0.10370271 L270.4168,-0.10063783 L270.69022,-0.09766353 L270.96365,-0.09477714 L271.2371,-0.091976054 L271.5105,-0.08925775 L271.78394,-0.08661978 L272.05734,-0.08405978 L272.33078,-0.08157544 L272.6042,-0.07916452 L272.87762,-0.07682486 L273.15106,-0.07455434 L273.42447,-0.07235093 L273.6979,-0.07021263 L273.9713,-76.99755 L274.24475,-74.72193 L274.51816,-72.513565 L274.7916,-70.37046 L275.06503,-68.2907 L275.33844,-66.27241 L275.61188,-64.31376 L275.88528,-62.413002 L276.15872,-60.56842 L276.43213,-58.77835 L276.70557,-57.041187 L276.979,-55.355366 L277.2524,-53.719368 L277.52585,-52.13172 L277.79926,-50.590996 L278.0727,-49.095806 L278.34613,-47.644806 L278.61954,-46.23669 L278.89297,-44.87019 L279.16638,-43.544075 L279.43982,-42.257153 L279.71323,-41.008266 L279.98666,-39.796288 L280.2601,-38.62013 L280.5335,-37.478733 L280.80695,-36.371067 L281.08035,-35.29614 L281.3538,-34.252983 L281.6272,-33.240654 L281.90063,-32.258244 L282.17407,-31.304869 L282.44748,-30.37967 L282.72092,-104.94485 L282.99432,-101.843254 L283.26776,-98.833336 L283.54117,-95.91237 L283.8146,-93.07773 L284.08804,-90.326866 L284.36145,-87.6573 L284.6349,-85.066635 L284.9083,-82.552536 L285.18173,-80.11274 L285.45514,-77.745056 L285.72858,-75.44734 L286.002,-73.21754 L286.27542,-71.05363 L286.54886,-68.953674 L286.82227,-66.91579 L287.0957,-64.938126 L287.3691,-63.018913 L287.64255,-61.156425 L287.916,-59.34898 L288.1894,-57.59495 L288.46283,-55.892765 L288.73624,-54.240883 L289.00967,-52.63782 L289.28308,-51.082138 L289.55652,-49.572433 L289.82996,-48.107346 L290.10336,-46.685562 L290.3768,-45.305794 L290.6502,-43.966805 L290.92365,-42.66739 L291.19705,-116.81342 L291.4705,-113.36106 L291.74393,-110.010735 L292.01733,-106.75943 L292.29077,-103.60421 L292.56418,-100.542244 L292.83762,-97.57077 L293.11102,-94.68712 L293.38446,-91.88869 L293.6579,-89.172966 L293.9313,-86.537506 L294.20474,-83.97994 L294.47815,-81.497955 L294.7516,-79.089325 L295.025,-76.751884 L295.29843,-74.48353 L295.57187,-72.2822 L295.84528,-70.14594 L296.1187,-68.072815 L296.39212,-66.06096 L296.66556,-64.10857 L296.93896,-62.21387 L297.2124,-60.37517 L297.48584,-58.590816 L297.75925,-56.859196 L298.03268,-55.178753 L298.3061,-53.547974 L298.57953,-51.965393 L298.85294,-50.42958 L299.12637,-48.939163 L299.3998,-47.492794 L299.67322,-46.08917 L299.94666,-44.727028 L300.22006,-43.405144 L300.4935,-42.12233 L300.76694,-40.877426 L301.04034,-39.669315 L301.31378,-38.49691 L301.5872,-37.359154 L301.86063,-36.255024 L302.13403,-35.183525 L302.40747,-34.143696 L302.6809,-33.134598 L302.9543,-32.155323 L303.22775,-31.204988 L303.50116,-30.282742 L303.7746,-29.38775 L304.048,-28.51921 L304.32144,-27.676342 L304.59488,-26.858381 L304.8683,-26.064596 L305.14172,-25.294271 L305.41513,-24.546713 L305.68857,-23.821247 L305.96198,-23.117224 L306.2354,-22.434006 L306.50885,-21.77098 L306.78226,-21.127552 L307.0557,-20.503138 L307.3291,-19.897179 L307.60254,-19.309128 L307.87595,-18.738457 L308.14938,-18.184652 L308.42282,-17.647215 L308.69623,-17.12566 L308.96967,-16.61952 L309.24307,-16.12834 L309.5165,-15.651675 L309.78992,-15.189098 L310.06335,-14.740192 L310.3368,-14.304554 L310.6102,-13.881791 L310.88364,-13.471521 L311.15704,-13.073379 L311.43048,-12.687001 L311.7039,-12.312044 L311.97733,-11.948168 L312.25076,-11.595046 L312.52417,-11.25236 L312.7976,-10.919804 L313.071,-10.5970745 L313.34445,-10.283883 L313.61786,-9.979949 L313.8913,-9.684997 L314.16473,-9.398762 L314.43814,-9.120986 L314.71158,-8.85142 L314.985,-8.589822 L315.25842,-8.335954 L315.53183,-8.089589 L315.80527,-7.850506 L316.0787,-7.6184883 L316.3521,-7.3933277 L316.62555,-7.174822 L316.89896,-6.962774 L317.1724,-6.756993 L317.4458,-6.5572934 L317.71924,-6.3634963 L317.99268,-6.1754265 L318.26608,-5.992915 L318.53952,-5.815798 L318.81293,-5.6439147 L319.08636,-5.477112 L319.35977,-5.315239 L319.6332,-5.1581497 L319.90665,-5.0057034 L320.18005,-4.857763 L320.4535,-4.714194 L320.7269,-4.5748687 L321.00034,-4.4396605 L321.27374,-4.308449 L321.54718,-4.181115 L321.82062,-4.057544 L322.09402,-3.937626 L322.36746,-3.8212514 L322.64087,-3.7083163 L322.9143,-3.5987191 L323.18774,-3.4923608 L323.46115,-3.3891459 L323.7346,-3.2889814 L324.008,-3.1917775 L324.28143,-3.0974462 L324.55484,-3.0059028 L324.82828,-2.917065 L325.1017,-2.8308527 L325.37512,-2.7471883 L325.64856,-2.6659966 L325.92197,-2.5872045 L326.1954,-2.510741 L326.4688,-2.4365375 L326.74225,-2.364527 L327.0157,-2.2946446 L327.2891,-2.2268276 L327.56253,-2.1610148 L327.83594,-2.0971472 L328.10938,-2.0351672 L328.38278,-1.9750189 L328.65622,-1.9166483 L328.92966,-1.8600028 L329.20306,-1.8050313 L329.4765,-78.848526 L329.7499,-76.518196 L330.02335,-74.256744 L330.29675,-72.062126 L330.5702,-69.932365 L330.84363,-143.22624 L331.11703,-138.99326 L331.39047,-134.88539 L331.66388,-207.71323 L331.93732,-201.57437 L332.21072,-195.61694 L332.48416,-189.83559 L332.7576,-184.2251 L333.031,-178.78043 L333.30444,-173.49666 L333.57785,-168.36906 L333.8513,-163.393 L334.1247,-158.56401 L334.39813,-153.87773 L334.67157,-149.32996 L334.94498,-144.9166 L335.2184,-140.63367 L335.49182,-136.47731 L335.76526,-132.4438 L336.03867,-128.5295 L336.3121,-278.7997 L336.58554,-270.55994 L336.85895,-262.5637 L337.1324,-254.80376 L337.4058,-247.27316 L337.67923,-239.96515 L337.95264,-232.8731 L338.22607,-225.99066 L338.4995,-219.31163 L338.77292,-212.82999 L339.04636,-206.53992 L339.31976,-200.43573 L339.5932,-194.51196 L339.8666,-188.76326 L340.14005,-183.18446 L340.41348,-177.77055 L340.6869,-172.51663 L340.96033,-167.418 L341.23373,-162.47005 L341.50717,-157.66833 L341.78058,-153.00853 L342.05402,-148.48645 L342.32745,-144.098 L342.60086,-139.83926 L342.8743,-135.70639 L343.1477,-131.69566 L343.42114,-127.80347 L343.69458,-124.026306 L343.968,-120.36077 L344.24142,-116.80357 L344.51483,-113.35151 L344.78827,-110.001465 L345.06168,-106.75043 L345.3351,-103.595474 L345.60855,-100.53377 L345.88196,-97.562546 L346.1554,-94.67914 L346.4288,-91.88094 L346.70224,-89.16545 L346.97565,-86.53021 L347.24908,-83.97286 L347.52252,-81.49109 L347.79593,-79.082664 L348.06937,-76.745415 L348.34277,-74.47725 L348.6162,-72.276115 L348.88962,-70.14003 L349.16306,-68.06708 L349.4365,-66.05539 L349.7099,-64.10316 L349.98334,-62.208626 L350.25674,-60.370083 L350.53018,-58.585876 L350.8036,-56.854404 L351.07703,-55.174103 L351.35046,-53.54346 L351.62387,-51.961014 L351.8973,-50.42533 L352.17072,-48.93504 L352.44415,-47.48879 L352.71756,-46.085285 L352.991,-44.72326 L353.26443,-43.401485 L353.53784,-42.11878 L353.81128,-40.87398 L354.0847,-39.66597 L354.35812,-38.493664 L354.63153,-37.356007 L354.90497,-36.25197 L355.1784,-35.18056 L355.4518,-34.14082 L355.72525,-33.131805 L355.99866,-32.15261 L356.2721,-31.202358 L356.5455,-30.28019 L356.81894,-29.385275 L357.09238,-28.516808 L357.36578,-27.67401 L357.63922,-26.85612 L357.91263,-26.0624 L358.18607,-25.29214 L358.45947,-24.544643 L358.7329,-23.81924 L359.00635,-23.115274 L359.27975,-22.432116 L359.5532,-21.769146 L359.8266,-21.12577 L360.10004,-20.50141 L360.37344,-19.895502 L360.64688,-19.3075 L360.92032,-18.736877 L361.19373,-18.183119 L361.46716,-17.645727 L361.74057,-17.124218 L362.014,-16.61812 L362.2874,-16.12698 L362.56085,-15.650356 L362.8343,-15.187819 L363.1077,-14.738951 L363.38113,-14.303349 L363.65454,-13.880621 L363.92798,-13.4703865 L364.2014,-13.072276 L364.47482,-12.685932 L364.74826,-12.311007 L365.02167,-11.947161 L365.2951,-11.594069 L365.5685,-11.251412 L365.84195,-10.918883 L366.1154,-10.596181 L366.3888,-10.283017 L366.66223,-9.979108 L366.93564,-9.68418 L367.20908,-9.397969 L367.48248,-9.120217 L367.75592,-8.850675 L368.02936,-8.589098 L368.30276,-8.335252 L368.5762,-8.088907 L368.8496,-7.849844 L369.12305,-7.617846 L369.39645,-7.392705 L369.6699,-7.174217 L369.94333,-6.9621873 L370.21674,-6.7564235 L370.49017,-6.5567408 L370.76358,-6.36296 L371.03702,-6.1749063 L371.31042,-5.99241 L371.58386,-5.8153076 L371.8573,-5.6434393 L372.1307,-5.47665 L372.40414,-5.3147907 L372.67755,-5.1577153 L372.951,-5.0052814 L373.2244,-4.857353 L373.49783,-4.7137966 L373.77127,-4.574483 L374.04468,-4.4392867 L374.3181,-4.308086 L374.59152,-4.180763 L374.86496,-4.0572023 L375.13837,-3.937294 L375.4118,-3.8209293 L375.68524,-3.7080038 L375.95865,-3.5984156 L376.2321,-3.4920664 L376.5055,-3.3888602 L376.77893,-3.2887044 L377.05234,-3.1915085 L377.32578,-3.0971851 L377.5992,-3.0056496 L377.87262,-2.916819 L378.14606,-2.830614 L378.41946,-2.7469568 L378.6929,-2.665772 L378.9663,-2.5869865 L379.23975,-2.5105295 L379.51318,-2.436332 L379.7866,-2.3643277 L380.06003,-2.2944512 L380.33344,-2.22664 L380.60687,-2.1608326 L380.88028,-2.0969706 L381.15372,-2.0349956 L381.42715,-1.9748524 L381.70056,-1.9164867 L381.974,-1.859846 L382.2474,-1.8048792 L382.52084,-1.751537 L382.79425,-1.6997713 L383.0677,-1.6495354 L383.34113,-1.6007843 L383.61453,-1.553474 L383.88797,-1.5075618 L384.16138,-1.4630066 L384.4348,-1.4197682 L384.70822,-1.3778077 L384.98166,-1.3370874 L385.2551,-1.2975705 L385.5285,-1.2592216 L385.80194,-1.2220058 L386.07535,-1.1858902 L386.3488,-1.1508418 L386.6222,-1.1168293 L386.89563,-1.083822 L387.16907,-1.0517902 L387.44247,-1.0207051 L387.7159,-0.9905387 L387.98932,-0.9612639 L388.26276,-0.93285424 L388.5362,-0.9052842 L388.8096,-0.878529 L389.08304,-0.8525646 L389.35645,-0.8273675 L389.62988,-0.8029151 L389.9033,-0.77918535 L390.17673,-0.7561569 L390.45016,-0.7338091 L390.72357,-0.7121218 L390.997,-0.6910754 L391.27042,-0.670651 L391.54385,-0.6508303 L391.81726,-0.6315954 L392.0907,-0.6129289 L392.36414,-0.5948141 L392.63754,-0.5772347 L392.91098,-0.5601748 L393.1844,-0.54361916 L393.45782,-0.5275528 L393.73123,-0.5119613 L394.00467,-0.49683052 L394.2781,-0.48214695 L394.5515,-0.46789736 L394.82495,-0.4540689 L395.09836,-0.44064912 L395.3718,-0.42762598 L395.6452,-0.41498774 L395.91864,-0.40272298 L396.19208,-0.3908207 L396.46548,-0.37927023 L396.73892,-0.3680611 L397.01233,-0.35718325 L397.28577,-0.34662688 L397.55917,-0.3363825 L397.8326,-0.3264409 L398.10605,-0.3167931 L398.37946,-0.30743048 L398.6529,-0.29834452 L398.9263,-0.28952712 L399.19974,-0.2809703 L399.47314,-0.27266636 L399.74658,-0.26460785 L400.02002,-0.2567875 L400.29343,-0.2491983 L400.56686,-0.24183337 L400.84027,-0.23468612 L401.1137,-0.2277501 L401.38712,-0.22101906 L401.66055,-0.21448696 L401.934,-0.20814791 L402.2074,-0.2019962 L402.48083,-0.19602633 L402.75424,-0.19023287 L403.02768,-0.18461064 L403.3011,-0.17915457 L403.57452,-0.17385975 L403.84796,-0.16872142 L404.12137,-0.16373494 L404.3948,-0.15889585 L404.6682,-0.15419976 L404.94165,-0.14964248 L405.21506,-0.14521988 L405.4885,-0.14092797 L405.76193,-0.13676293 L406.03534,-0.13272096 L406.30878,-0.12879847 L406.58218,-0.1249919 L406.85562,-0.12129784 L407.12903,-0.11771294 L407.40247,-0.114234 L407.6759,-0.110857874 L407.9493,-0.107581526 L408.22275,-0.10440201 L408.49615,-0.10131647 L408.7696,-0.098322116 L409.043,-0.095416255 L409.31644,-0.09259628 L409.58987,-0.08985964 L409.86328,-0.08720389 L410.13672,-0.08462663 L410.41013,-0.08212553 L410.68356,-0.079698354 L410.957,-0.07734291 L411.2304,-0.07505708 L411.50385,-0.07283881 L411.77725,-0.0706861 L412.0507,-0.06859701 L412.3241,-0.06656966 L412.59753,-0.06460223 L412.87097,-0.06269295 L413.14438,-0.06084009 L413.41782,-77.40392 L413.69122,-75.11629 L413.96466,-72.89626 L414.23807,-70.74186 L414.5115,-68.651115 L414.78494,-66.62217 L415.05835,-64.65319 L415.3318,-62.742397 L415.6052,-60.88808 L415.87863,-59.088566 L416.15204,-57.342236 L416.42548,-55.647514 L416.6989,-54.002884 L416.97232,-52.406857 L417.24576,-50.857998 L417.51917,-49.35492 L417.7926,-47.89626 L418.066,-46.480713 L418.33945,-45.107 L418.61288,-43.773888 L418.8863,-42.48017 L419.15973,-41.224693 L419.43314,-40.00632 L419.70657,-38.823956 L419.97998,-37.676533 L420.25342,-36.563023 L420.52686,-35.48242 L420.80026,-34.433758 L421.0737,-33.41609 L421.3471,-32.428493 L421.62054,-31.470085 L421.89395,-30.540005 L422.1674,-29.637411 L422.44083,-28.761492 L422.71423,-27.911463 L422.98767,-27.086554 L423.26108,-26.286024 L423.53452,-25.509155 L423.80792,-24.755245 L424.08136,-24.023619 L424.3548,-23.313612 L424.6282,-22.624592 L424.90164,-97.237976 L425.17505,-94.36416 L425.4485,-91.57528 L425.7219,-88.86882 L425.99533,-86.24235 L426.26877,-83.693504 L426.54218,-81.219986 L426.8156,-78.81957 L427.08902,-76.490105 L427.36246,-74.22948 L427.63586,-72.03567 L427.9093,-69.90669 L428.18274,-67.84064 L428.45615,-65.83564 L428.72958,-63.889904 L429.003,-62.00167 L429.27643,-60.169247 L429.54984,-58.390976 L429.82327,-56.66526 L430.0967,-54.99055 L430.37012,-53.365334 L430.64355,-51.78815 L430.91696,-50.25758 L431.1904,-48.772243 L431.4638,-47.330803 L431.73724,-45.93197 L432.01068,-44.574474 L432.2841,-43.2571 L432.55753,-41.978657 L432.83093,-40.738003 L433.10437,-39.53401 L433.3778,-38.365604 L433.6512,-37.23173 L433.92465,-36.131367 L434.19806,-35.063522 L434.4715,-34.027237 L434.7449,-33.021584 L435.01834,-32.045647 L435.29178,-31.098555 L435.5652,-30.179453 L435.83862,-29.287516 L436.11203,-28.421938 L436.38547,-27.581944 L436.65887,-26.766773 L436.9323,-25.975697 L437.20575,-25.207998 L437.47916,-24.46299 L437.7526,-23.74 L438.026,-23.038376 L438.29944,-22.357489 L438.57285,-21.696726 L438.84628,-21.05549 L439.11972,-20.433207 L439.39313,-19.829313 L439.66656,-19.243269 L439.93997,-18.674545 L440.2134,-18.12263 L440.48682,-17.587023 L440.76025,-17.06725 L441.0337,-16.562836 L441.3071,-16.07333 L441.58054,-15.59829 L441.85394,-15.137292 L442.12738,-14.689917 L442.4008,-14.255764 L442.67422,-13.834443 L442.94766,-13.425573 L443.22107,-13.028788 L443.4945,-12.643729 L443.7679,-12.27005 L444.04135,-11.907415 L444.31476,-11.555498 L444.5882,-11.213982 L444.86163,-10.882558 L445.13504,-10.56093 L445.40848,-10.248807 L445.6819,-9.9459095 L445.95532,-9.651963 L446.22873,-9.366705 L446.50217,-9.089877 L446.7756,-8.82123 L447.049,-8.560523 L447.32245,-8.307522 L447.59586,-8.061997 L447.8693,-7.8237295 L448.1427,-7.592503 L448.41614,-7.3681107 L448.68958,-7.15035 L448.96298,-6.9390254 L449.23642,-6.7339463 L449.50983,-6.534928 L449.78326,-6.3417916 L450.05667,-6.1543636 L450.3301,-5.9724746 L450.60355,-5.7959614 L450.87695,-5.624665 L451.1504,-5.458431 L451.4238,-5.2971096 L451.69724,-5.1405563 L451.97064,-4.9886303 L452.24408,-4.8411937 L452.51752,-4.698115 L452.79092,-4.5592647 L453.06436,-4.424518 L453.33777,-4.2937536 L453.6112,-4.166854 L453.8846,-4.043705 L454.15805,-3.9241955 L454.4315,-3.808218 L454.7049,-3.695668 L454.97833,-3.5864446 L455.25174,-3.4804492 L455.52518,-3.3775864 L455.7986,-79.48103 L456.07202,-77.13201 L456.34546,-74.85242 L456.61887,-72.64019 L456.8923,-70.49335 L457.1657,-68.40996 L457.43915,-66.38814 L457.7126,-64.42607 L457.986,-62.52199 L458.25943,-60.674187 L458.53284,-58.880997 L458.80627,-57.1408 L459.07968,-55.452034 L459.35312,-53.81318 L459.62656,-52.22276 L459.89996,-50.67934 L460.1734,-49.18154 L460.4468,-47.72801 L460.72025,-46.317432 L460.99365,-44.948544 L461.2671,-43.620113 L461.54053,-42.330944 L461.81393,-41.079876 L462.08737,-39.865784 L462.36078,-38.68757 L462.63422,-37.54418 L462.90762,-36.43458 L463.18106,-35.357777 L463.4545,-34.312798 L463.7279,-33.298702 L464.00134,-32.314575 L464.27475,-31.359535 L464.5482,-30.43272 L464.8216,-29.533298 L465.09503,-28.660458 L465.36847,-27.813412 L465.64188,-26.991402 L465.9153,-26.193686 L466.18872,-25.419544 L466.46216,-24.668283 L466.73557,-100.00316 L467.009,-97.047615 L467.28244,-94.17943 L467.55585,-168.19875 L467.82928,-163.22772 L468.1027,-158.40361 L468.37613,-153.72208 L468.64954,-149.17891 L468.92297,-144.77 L469.1964,-140.49141 L469.46982,-136.33925 L469.74326,-132.30981 L470.01666,-128.39948 L470.2901,-124.6047 L470.5635,-120.92207 L470.83694,-117.34828 L471.11038,-113.88012 L471.3838,-110.51445 L471.65723,-107.24825 L471.93063,-104.07859 L472.20407,-101.0026 L472.47748,-98.017525 L472.75092,-95.12067 L473.02435,-92.30943 L473.29776,-89.581276 L473.5712,-86.93375 L473.8446,-84.36446 L474.11804,-81.87112 L474.39145,-79.45146 L474.6649,-77.10332 L474.93832,-74.82457 L475.21173,-72.61317 L475.48517,-70.467125 L475.75858,-68.38451 L476.032,-66.36344 L476.30542,-64.40211 L476.57886,-62.498734 L476.8523,-60.651615 L477.1257,-58.85909 L477.39914,-57.11954 L477.67255,-55.431404 L477.94598,-53.79316 L478.21942,-52.20333 L478.49283,-50.66049 L478.76627,-49.163246 L479.03967,-47.71025 L479.3131,-46.3002 L479.58652,-44.931824 L479.85995,-43.603886 L480.1334,-42.315197 L480.4068,-41.064594 L480.68024,-39.850952 L480.95364,-38.67318 L481.22708,-37.530212 L481.5005,-36.42103 L481.77393,-35.344624 L482.04736,-34.300034 L482.32077,-33.286312 L482.5942,-32.302555 L482.8676,-31.34787 L483.14105,-30.4214 L483.41446,-29.522312 L483.6879,-28.649796 L483.96133,-27.803066 L484.23474,-26.981361 L484.50818,-26.18394 L484.7816,-25.41009 L485.05502,-24.659107 L485.32843,-23.93032 L485.60187,-23.223072 L485.8753,-22.536728 L486.1487,-21.870667 L486.42215,-21.22429 L486.69556,-20.597017 L486.969,-19.988283 L487.2424,-19.397541 L487.51584,-18.824257 L487.78928,-18.267916 L488.06268,-17.728018 L488.33612,-17.204075 L488.60953,-16.695618 L488.88297,-16.202188 L489.15637,-15.723341 L489.4298,-15.258646 L489.70325,-14.807685 L489.97665,-14.370051 L490.2501,-91.135704 L490.5235,-88.44224 L490.79694,-85.82838 L491.07034,-83.29176 L491.34378,-80.830124 L491.61722,-78.44123 L491.89063,-76.12294 L492.16406,-73.87317 L492.43747,-71.68989 L492.7109,-69.57113 L492.9843,-67.51499 L493.25775,-65.51962 L493.5312,-63.583225 L493.8046,-61.704056 L494.07803,-59.880424 L494.35144,-58.11069 L494.62488,-56.39326 L494.8983,-54.72659 L495.17172,-53.109173 L495.44516,-51.539562 L495.71857,-50.016335 L495.992,-48.53813 L496.2654,-47.10361 L496.53885,-45.71149 L496.81226,-44.36051 L497.0857,-43.04946 L497.35913,-41.777157 L497.63254,-40.542454 L497.90598,-39.344242 L498.17938,-38.181446 L498.45282,-37.053013 L498.72626,-35.95793 L498.99966,-110.86904 L499.2731,-107.59237 L499.5465,-104.41254 L499.81995,-101.326675 L500.09335,-98.33202 L500.3668,-95.42587 L500.64023,-92.60561 L500.91364,-89.8687 L501.18707,-87.21268 L501.46048,-84.635155 L501.73392,-82.13381 L502.00732,-79.70639 L502.28076,-77.35071 L502.5542,-151.70708 L502.8276,-147.22345 L503.10104,-142.87234 L503.37445,-215.11964 L503.6479,-208.76189 L503.9213,-202.59204 L504.19473,-196.60455 L504.46817,-190.794 L504.74158,-185.15518 L505.015,-179.68303 L505.28842,-174.37259 L505.56186,-169.2191 L505.83527,-164.21793 L506.1087,-159.36455 L506.38214,-154.65462 L506.65555,-150.08388 L506.929,-145.64822 L507.2024,-141.34367 L507.47583,-137.16634 L507.74924,-133.11246 L508.02267,-129.17839 L508.2961,-125.360596 L508.56952,-121.655624 L508.84296,-118.06016 L509.11636,-114.57095 L509.3898,-111.184875 L509.6632,-107.898865 L509.93665,-104.70997 L510.21008,-101.61532 L510.4835,-98.61214 L510.75693,-95.69771 L511.03033,-92.869415 L511.30377,-90.1247 L511.57718,-87.46112 L511.85062,-84.87625 L512.124,-82.36778 L512.39746,-79.93344 L512.6709,-77.57105 L512.94434,-75.27848 L513.2177,-73.053665 L513.49115,-70.89461 L513.7646,-68.799355 L514.038,-66.76602 L514.31146,-64.79279 L514.58484,-62.877872 L514.8583,-61.01955 L515.1317,-59.216152 L515.40515,-57.46605 L515.6786,-55.76767 L515.95197,-54.119488 L516.2254,-52.520016 L516.49884,-50.967815 L516.7723,-49.461487 L517.04565,-47.99968 L517.3191,-46.581074 L517.5925,-45.204395 L517.86597,-43.868404 L518.1394,-42.571896 L518.4128,-41.313705 L518.6862,-40.0927 L518.95966,-38.907784 L519.2331,-37.757885 L519.50653,-36.64197 L519.7799,-35.559036 L520.05334,-34.50811 L520.3268,-33.48824 L520.6002,-32.498512 L520.8736,-31.538036 L521.14703,-30.605947 L521.4205,-29.701405 L521.6939,-28.823595 L521.96735,-27.97173 L522.2407,-27.14504 L522.51416,-26.342783 L522.7876,-25.564236 L523.06104,-24.808699 L523.3345,-24.07549 L523.60785,-23.363953 L523.8813,-22.673443 L524.1547,-22.003342 L524.42816,-21.353045 L524.70154,-20.721966 L524.975,-20.10954 L525.2484,-19.515213 L525.52185,-18.938452 L525.7953,-18.378736 L526.06866,-17.835562 L526.3421,-17.308441 L526.61554,-16.7969 L526.889,-16.300476 L527.1624,-15.818725 L527.4358,-15.351211 L527.7092,-14.897513 L527.98267,-14.457226 L528.2561,-14.02995 L528.5295,-13.615302 L528.8029,-13.21291 L529.07635,-12.822409 L529.3498,-12.443449 L529.6232,-12.07569 L529.8966,-11.7188 L530.17004,-11.372457 L530.4435,-11.036349 L530.7169,-10.710176 L530.99036,-10.393642 L531.26373,-10.086464 L531.5372,-9.788364 L531.8106,-9.499074 L532.08405,-9.218334 L532.3575,-8.945891 L532.63086,-84.462036 L532.9043,-81.965805 L533.17773,-79.54335 L533.4512,-77.19249 L533.72455,-74.91111 L533.998,-72.69715 L534.2714,-70.54862 L534.54486,-68.4636 L534.8183,-66.44019 L535.0917,-64.476585 L535.3651,-62.57102 L535.63855,-60.721764 L535.912,-58.927166 L536.1854,-57.185604 L536.4588,-55.495514 L536.73224,-53.855373 L537.0057,-52.263706 L537.2791,-50.71908 L537.5525,-49.220104 L537.8259,-47.76543 L538.09937,-46.35375 L538.3728,-44.983788 L538.64624,-43.654316 L538.9196,-42.364136 L539.19305,-41.112087 L539.4665,-39.89704 L539.7399,-38.717907 L540.01337,-37.57362 L540.28674,-36.46315 L540.5602,-35.3855 L540.8336,-34.339703 L541.10706,-33.32481 L541.38043,-32.339912 L541.6539,-31.384125 L541.9273,-30.456583 L542.20074,-29.556456 L542.4742,-28.68293 L542.74756,-27.835222 L543.021,-27.012566 L543.29443,-26.214224 L543.5679,-25.439478 L543.8413,-24.687628 L544.1147,-23.957996 L544.3881,-23.249931 L544.66156,-22.562792 L544.935,-21.895962 L545.2084,-21.248837 L545.4818,-20.62084 L545.75525,-20.011402 L546.0287,-19.419975 L546.3021,-18.846027 L546.5755,-18.289043 L546.84894,-17.748522 L547.1224,-17.223972 L547.3958,-16.714928 L547.66925,-93.37259 L547.9426,-90.61301 L548.21606,-87.93499 L548.4895,-85.33612 L548.76294,-82.81406 L549.0363,-80.36653 L549.30975,-77.99134 L549.5832,-75.68635 L549.8566,-73.44948 L550.13007,-71.27872 L550.40344,-69.17211 L550.6769,-67.12777 L550.9503,-65.143845 L551.22375,-63.21855 L551.4972,-61.350163 L551.77057,-59.53699 L552.044,-57.777405 L552.31744,-56.069824 L552.5909,-54.412712 L552.86426,-52.804573 L553.1377,-51.24396 L553.41113,-49.729473 L553.6846,-48.259747 L553.958,-46.833454 L554.2314,-45.449318 L554.5048,-44.106087 L554.77826,-42.802555 L555.0517,-41.537548 L555.32513,-40.30993 L555.5985,-39.11859 L555.87195,-37.96246 L556.1454,-36.8405 L556.4188,-111.495155 L556.69226,-108.199974 L556.96564,-105.00218 L557.2391,-101.898895 L557.5125,-98.88733 L557.78595,-95.96477 L558.0593,-93.12858 L558.33276,-90.37621 L558.6062,-87.70519 L558.87964,-85.11311 L559.1531,-82.59764 L559.42645,-80.15651 L559.6999,-77.78753 L559.9733,-75.48856 L560.24677,-73.25754 L560.5202,-147.26138 L560.7936,-142.90916 L561.067,-138.68555 L561.34045,-134.58678 L561.6139,-130.60913 L561.88727,-126.749054 L562.1607,-123.00305 L562.43414,-119.36776 L562.7076,-192.54239 L562.981,-186.8519 L563.2544,-181.32959 L563.52783,-175.97049 L563.8013,-170.76978 L564.0747,-165.72276 L564.34814,-160.82492 L564.6215,-156.07182 L564.89496,-151.45921 L565.1684,-146.98291 L565.44183,-142.6389 L565.7152,-138.4233 L565.98865,-134.33226 L566.2621,-130.36215 L566.5355,-126.50936 L566.80896,-122.77045 L567.08234,-119.14203 L567.3558,-115.62085 L567.6292,-112.20374 L567.90265,-108.88762 L568.1761,-105.6695 L568.44946,-102.54649 L568.7229,-99.51579 L568.99634,-172.83536 L569.2698,-167.72731 L569.54315,-162.77022 L569.8166,-157.95963 L570.09,-153.29121 L570.36346,-148.76077 L570.6369,-144.36423 L570.9103,-140.09763 L571.1837,-135.9571 L571.45715,-131.93898 L571.7306,-128.03958 L572.004,-124.25545 L572.2774,-120.583145 L572.55084,-117.01937 L572.8243,-113.56093 L573.0977,-110.2047 L573.3711,-106.947655 L573.64453,-103.78687 L573.91797,-100.719505 L574.1914,-97.7428 L574.46484,-94.85406 L574.7382,-92.0507 L575.01166,-89.33019 L575.2851,-86.69009 L575.55853,-84.128006 L575.832,-81.64165 L576.10535,-79.22877 L576.3788,-76.88721 L576.6522,-74.614845 L576.92566,-72.409645 L577.1991,-70.269615 L577.4725,-68.19283 L577.7459,-66.17743 L578.01935,-64.221596 L578.2928,-62.32356 L578.56616,-60.481617 L578.8396,-58.69412 L579.11304,-56.959442 L579.3865,-55.27604 L579.6599,-53.642384 L579.9333,-52.05701 L580.2067,-50.518494 L580.48016,-49.025448 L580.7536,-47.576527 L581.02704,-46.17043 L581.3004,-44.805885 L581.57385,-120.018974 L581.8473,-116.47188 L582.1207,-113.02961 L582.3941,-109.68909 L582.66754,-106.44728 L582.941,-103.301285 L583.2144,-100.248276 L583.48785,-97.28549 L583.7612,-94.41027 L584.03467,-91.620026 L584.3081,-88.91224 L584.58154,-86.28449 L584.855,-83.7344 L585.12836,-81.259674 L585.4018,-78.858086 L585.67523,-76.52747 L585.94867,-74.26575 L586.22205,-72.07086 L586.4955,-69.94085 L586.7689,-67.87378 L587.04236,-65.86781 L587.3158,-63.92112 L587.5892,-62.031967 L587.8626,-60.198647 L588.13605,-58.419506 L588.4095,-56.692947 L588.6829,-55.017418 L588.9563,-53.391407 L589.22974,-51.813454 L589.5032,-50.282135 L589.7766,-48.796074 L590.05,-47.35393 L590.3234,-45.95441 L590.59686,-44.596252 L590.8703,-43.278236 L591.14374,-41.99917 L591.4171,-40.757908 L591.69055,-39.55333 L591.964,-38.38435 L592.2374,-37.249924 L592.51086,-36.14902 L592.78424,-35.080654 L593.0577,-34.043865 L593.3311,-33.037716 L593.60455,-32.061306 L593.8779,-31.11375 L594.15137,-30.1942 L594.4248,-29.301826 L594.69824,-28.435827 L594.9717,-27.59542 L595.24506,-26.779854 L595.5185,-25.988388 L595.79193,-25.220316 L596.06537,-24.474943 L596.3388,-23.751598 L596.6122,-23.049633 L596.8856,-22.368414 L597.15906,-21.707327 L597.4325,-21.065779 L597.7059,-20.44319 L597.9793,-19.839003 L598.25275,-19.252672 L598.5262,-18.68367 L598.7996,-18.131483 L599.073,-17.595617 L599.34644,-17.075588 L599.6199,-16.570929 L599.8933,-16.081182 L600.16675,-15.605912 L600.4401,-15.144688 L600.71356,-14.697095 L600.987,-14.26273 L601.26044,-13.841203 L601.5339,-13.432134 L601.80725,-13.035153 L602.0807,-12.649907 L602.3541,-12.276046 L602.62756,-11.913234 L602.90094,-11.561144 L603.1744,-11.2194605 L603.4478,-10.887876 L603.72125,-10.566091 L603.9947,-10.253815 L604.26807,-9.950769 L604.5415,-9.656679 L604.81494,-9.371282 L605.0884,-9.094318 L605.3618,-8.825541 L605.6352,-8.564707 L605.9086,-8.311581 L606.18207,-8.065937 L606.4555,-7.8275523 L606.7289,-7.596213 L607.0023,-7.3717113 L607.27576,-7.153844 L607.5492,-6.942416 L607.82263,-6.7372365 L608.096,-6.538121 L608.36945,-6.3448906 L608.6429,-6.1573706 L608.9163,-5.975393 L609.18976,-5.7987933 L609.46313,-5.6274133 L609.7366,-5.4610977 L610.01,-5.299698 L610.28345,-5.1430683 L610.5568,-4.991068 L610.83026,-4.8435593 L611.1037,-4.7004104 L611.37714,-4.5614924 L611.6506,-4.42668 L611.92395,-4.2958517 L612.1974,-4.16889 L612.4708,-4.045681 L612.74426,-3.926113 L613.0177,-3.8100786 L613.2911,-3.6974738 L613.5645,-3.588197 L613.83795,-3.4821498 L614.1114,-3.3792367 L614.38477,-3.279365 L614.6582,-3.1824453 L614.93164,-3.0883899 L615.2051,-2.997114 L615.4785,-2.908536 L615.7519,-2.8225758 L616.0253,-2.739156 L616.29877,-2.6582017 L616.5722,-2.57964 L616.84564,-2.5034 L617.119,-2.4294136 L617.39246,-2.3576133 L617.6659,-2.2879355 L617.93933,-2.2203166 L618.2127,-2.1546965 L618.48615,-2.0910156 L618.7596,-2.0292168 L619.033,-1.9692442 L619.30646,-1.9110444 L619.57983,-1.8545644 L619.8533,-1.7997538 L620.1267,-1.746563 L620.40015,-1.6949443 L620.6736,-1.6448511 L620.94696,-1.5962384 L621.2204,-1.5490624 L621.49384,-1.5032806 L621.7673,-1.458852 L622.0407,-1.4157364 L622.3141,-1.373895 L622.5875,-1.3332903 L622.86096,-1.2938857 L623.1344,-1.2556456 L623.4078,-1.2185357 L623.6812,-1.1825224 L623.95465,-1.1475737 L624.2281,-1.1136577 L624.5015,-1.0807441 L624.7749,-1.0488033 L625.04834,-1.0178065 L625.3218,-0.9877258 L625.5952,-0.95853406 L625.86865,-0.9302051 L626.142,-0.9027134 L626.41547,-0.8760342 L626.6889,-0.8501435 L626.96234,-0.8250179 L627.2357,-0.800635 L627.50916,-0.77697265 L627.7826,-0.7540096 L628.056,-0.7317253 L628.32947,-0.7100995 L628.60284,-0.6891129 L628.8763,-0.66874653 L629.1497,-0.6489821 L629.42316,-0.62980175 L629.6966,-0.6111883 L629.97,-0.593125 L630.2434,-0.5755955 L630.51685,-0.5585841 L630.7903,-0.5420754 L631.06366,-0.5260547 L631.3371,-0.5105074 L631.61053,-0.49541962 L631.884,-0.48077777 L632.1574,-0.46656862 L632.4308,-0.45277944 L632.7042,-0.43939778 L632.97766,-0.42641163 L633.2511,-0.41380924 L633.52454,-0.40157935 L633.7979,-0.38971087 L634.07135,-0.37819317 L634.3448,-0.36701587 L634.6182,-0.35616893 L634.8916,-0.34564254 L635.16504,-0.33542725 L635.4385,-0.3255139 L635.7119,-0.3158935 L635.98535,-76.441216 L636.2587,-74.18204 L636.53217,-71.989624 L636.8056,-69.86201 L637.07904,-67.79727 L637.3525,-65.793564 L637.62585,-63.849068 L637.8993,-61.962044 L638.1727,-60.13079 L638.44617,-58.353657 L638.71954,-56.629044 L638.993,-54.955402 L639.2664,-53.331226 L639.53986,-51.75505 L639.8133,-50.225456 L640.0867,-48.74107 L640.3601,-47.300552 L640.63354,-45.90261 L640.907,-44.545982 L641.1804,-43.22945 L641.4538,-41.951828 L641.72723,-40.711964 L642.0007,-39.508743 L642.2741,-38.341084 L642.5475,-37.207935 L642.8209,-36.108273 L643.09436,-35.04111 L643.3678,-34.00549 L643.64124,-108.88531 L643.9146,-105.66727 L644.18805,-102.54433 L644.4615,-99.51368 L644.7349,-96.57261 L645.00836,-93.71845 L645.28174,-90.948654 L645.5552,-88.26072 L645.8286,-161.36053 L646.10205,-156.5916 L646.3755,-151.96362 L646.64886,-147.47241 L646.9223,-143.11395 L647.19574,-138.8843 L647.4692,-134.77965 L647.74255,-130.7963 L648.016,-126.93069 L648.2894,-123.17932 L648.56287,-119.53882 L648.8363,-116.00591 L649.1097,-112.57742 L649.3831,-109.25025 L649.65656,-106.02142 L649.93,-102.888016 L650.2034,-99.84721 L650.4768,-96.896286 L650.75024,-94.03256 L651.0237,-91.25349 L651.2971,-88.55653 L651.5705,-85.93929 L651.84393,-83.39941 L652.1174,-80.93458 L652.3908,-78.5426 L652.66425,-76.22131 L652.9376,-73.968636 L653.21106,-71.78253 L653.4845,-69.66104 L653.75793,-67.60224 L654.0314,-65.604294 L654.30475,-63.665394 L654.5782,-138.68297 L654.8516,-134.58427 L655.12506,-130.6067 L655.39844,-126.74669 L655.6719,-123.000755 L655.9453,-119.36554 L656.21875,-115.83775 L656.4922,-112.41423 L656.76556,-109.09189 L657.039,-105.86774 L657.31244,-102.73887 L657.5859,-99.70248 L657.8593,-96.75582 L658.1327,-169.61131 L658.4061,-164.59854 L658.67957,-159.73392 L658.953,-155.01306 L659.2264,-150.43173 L659.4998,-145.98581 L659.77325,-141.67128 L660.0467,-137.48425 L660.3201,-133.42097 L660.5935,-129.4778 L660.86694,-125.651146 L661.1404,-121.9376 L661.4138,-118.33379 L661.68726,-114.8365 L661.96063,-111.44257 L662.2341,-108.14895 L662.5075,-104.95266 L662.78094,-101.850845 L663.0543,-98.8407 L663.32776,-95.91951 L663.6012,-93.08466 L663.87463,-90.333595 L664.1481,-87.66383 L664.42145,-85.072975 L664.6949,-82.558685 L664.9683,-80.11871 L665.24176,-77.75085 L665.5152,-75.45296 L665.7886,-73.222984 L666.062,-146.91017 L666.33545,-142.56833 L666.6089,-138.3548 L666.8823,-134.2658 L667.1557,-130.29764 L667.42914,-126.44676 L667.7026,-122.709694 L667.976,-119.08308 L668.2494,-115.56364 L668.5228,-112.14822 L668.79626,-108.83374 L669.0697,-105.61722 L669.34314,-102.49575 L669.6165,-99.466545 L669.88995,-96.52686 L670.1634,-93.674065 L670.4368,-90.90558 L670.71027,-88.21891 L670.98364,-85.61165 L671.2571,-83.08144 L671.5305,-80.626015 L671.80396,-78.24316 L672.07733,-75.930725 L672.35077,-73.68663 L672.6242,-71.50886 L672.89764,-69.395454 L673.1711,-67.344505 L673.44446,-65.35418 L673.7179,-139.5557 L673.99133,-135.4312 L674.2648,-131.4286 L674.5382,-127.5443 L674.8116,-123.774796 L675.085,-272.75937 L675.35846,-264.69812 L675.6319,-332.58945 L675.9053,-322.75995 L676.1787,-313.22095 L676.45215,-303.96387 L676.7256,-294.98038 L676.999,-286.2624 L677.2724,-277.80206 L677.54584,-269.59177 L677.8193,-261.62415 L678.0927,-253.89197 L678.36615,-246.38834 L678.6395,-239.10646 L678.91296,-308.4111 L679.1864,-299.29617 L679.45984,-290.45065 L679.7332,-281.86655 L680.00665,-273.53613 L680.2801,-265.4519 L680.5535,-257.60663 L680.82697,-249.9932 L681.10034,-242.60477 L681.3738,-235.43472 L681.6472,-228.47658 L681.92065,-221.72408 L682.1941,-215.17113 L682.46747,-208.81186 L682.7409,-202.64053 L683.01434,-196.65161 L683.2878,-190.83968 L683.56116,-185.19951 L683.8346,-179.72604 L684.10803,-174.41432 L684.3815,-169.25961 L684.6549,-164.25723 L684.9283,-159.4027 L685.2017,-154.69164 L685.47516,-150.11981 L685.7486,-145.68309 L686.02203,-141.3775 L686.2954,-137.19917 L686.56885,-133.14432 L686.8423,-129.20932 L687.1157,-125.3906 L687.38916,-121.684746 L687.66254,-118.08842 L687.936,-114.59838 L688.2094,-111.21149 L688.48285,-107.92469 L688.7562,-104.73503 L689.02966,-101.63965 L689.3031,-98.63574 L689.57654,-95.72061 L689.85,-92.89164 L690.12335,-90.14628 L690.3968,-87.482056 L690.6702,-84.89657 L690.94366,-82.3875 L691.2171,-79.952576 L691.4905,-77.58962 L691.7639,-75.2965 L692.03735,-73.07115 L692.3108,-70.911575 L692.58417,-68.81582 L692.8576,-66.782005 L693.13104,-64.8083 L693.4045,-62.892925 L693.6779,-61.034157 L693.9513,-59.230328 L694.22473,-133.17088 L694.49817,-129.23509 L694.7716,-125.41562 L695.04504,-121.70903 L695.3184,-118.111984 L695.59186,-114.62125 L695.8653,-111.23367 L696.13873,-107.94623 L696.4121,-104.75593 L696.68555,-101.65993 L696.959,-98.65542 L697.2324,-95.739716 L697.50586,-92.91018 L697.77924,-90.16427 L698.0527,-87.49951 L698.3261,-84.913506 L698.59955,-82.40393 L698.873,-79.96853 L699.14636,-77.6051 L699.4198,-75.31152 L699.69324,-73.08573 L699.9667,-70.92572 L700.24005,-68.82955 L700.5135,-66.795334 L700.7869,-64.82123 L701.06036,-62.90547 L701.3338,-61.046337 L701.6072,-59.242146 L701.8806,-57.491276 L702.15405,-55.79215 L702.4275,-54.14324 L702.7009,-52.543068 L702.9743,-50.990185 L703.24774,-49.483196 L703.5212,-48.02075 L703.7946,-46.60152 L704.068,-45.22424 L704.34143,-43.88766 L704.61487,-42.590584 L704.8883,-41.33184 L705.16174,-40.110302 L705.4351,-38.924862 L705.70856,-37.77446 L705.982,-36.658054 L706.25543,-35.574646 L706.5289,-34.523254 L706.80225,-33.50294 L707.0757,-32.51278 L707.3491,-31.55188 L707.62256,-30.61938 L707.89594,-29.714441 L708.1694,-28.836246 L708.4428,-27.984007 L708.71625,-27.156956 L708.9897,-26.354345 L709.26306,-25.575457 L709.5365,-24.819588 L709.80994,-24.086058 L710.0834,-23.374208 L710.3568,-22.683395 L710.6302,-22.013 L710.9036,-21.362417 L711.17706,-20.731062 L711.4505,-20.118366 L711.72394,-19.523779 L711.9973,-18.946764 L712.27075,-18.386803 L712.5442,-17.843391 L712.8176,-17.316038 L713.091,-16.804274 L713.36444,-16.30763 L713.6379,-15.825668 L713.9113,-15.357949 L714.18475,-14.904053 L714.4581,-14.463572 L714.73157,-14.036108 L715.005,-13.621279 L715.27844,-13.218709 L715.5519,-12.828037 L715.82526,-12.448912 L716.0987,-12.080991 L716.37213,-11.723943 L716.64557,-11.377448 L716.91895,-11.041194 L717.1924,-10.714877 L717.4658,-10.398205 L717.73926,-10.090892 L718.0127,-9.792661 L718.2861,-9.503243 L718.5595,-9.222381 L718.83295,-8.949818 L719.1064,-8.68531 L719.3798,-8.428621 L719.6532,-8.179518 L719.92664,-7.9377766 L720.2001,-7.70318 L720.4735,-7.4755163 L720.7469,-7.2545815 L721.0203,-7.040176 L721.29376,-6.8321075 L721.5672,-6.630188 L721.84064,-6.4342365 L722.114,-6.2440763 L722.38745,-6.0595355 L722.6609,-5.8804493 L722.9343,-5.706656 L723.20776,-5.5379987 L723.48114,-5.374326 L723.7546,-5.215491 L724.028,-5.06135 L724.30145,-4.911764 L724.5748,-4.7665997 L724.84827,-4.6257253 L725.1217,-4.4890146 L725.39514,-4.356344 L725.6686,-4.2275944 L725.94196,-4.10265 L726.2154,-3.9813986 L726.48883,-3.8637307 L726.76227,-3.74954 L727.0357,-3.6387243 L727.3091,-3.531184 L727.5825,-3.4268215 L727.85596,-3.3255436 L728.1294,-78.83468 L728.4028,-76.50476 L728.6762,-74.243706 L728.94965,-72.04947 L729.2231,-69.92009 L729.4965,-67.85364 L729.7699,-65.84826 L730.04333,-63.90215 L730.3168,-62.013554 L730.5902,-60.18078 L730.86365,-58.40217 L731.137,-56.67612 L731.41046,-55.00109 L731.6839,-53.37556 L731.95734,-51.798077 L732.2308,-50.267212 L732.50415,-48.78159 L732.7776,-47.339878 L733.051,-45.940773 L733.32446,-44.583015 L733.59784,-43.26539 L733.8713,-41.986702 L734.1447,-40.745808 L734.41815,-39.541588 L734.6916,-38.37296 L734.96497,-112.60619 L735.2384,-109.278175 L735.51184,-106.048515 L735.7853,-102.91431 L736.0587,-176.1286 L736.3321,-170.9232 L736.6055,-165.87166 L736.87897,-160.96942 L737.1524,-156.21205 L737.4258,-151.59529 L737.6992,-147.11497 L737.97266,-142.76706 L738.2461,-138.54765 L738.51953,-134.45296 L738.7929,-130.47928 L739.06635,-126.623024 L739.3398,-122.88075 L739.6132,-195.3816 L739.88666,-189.60721 L740.16003,-184.00346 L740.4335,-178.56534 L740.7069,-173.28793 L740.98035,-168.1665 L741.2537,-163.19643 L741.52716,-158.37325 L741.8006,-153.69261 L742.07404,-149.15031 L742.3475,-144.74225 L742.62085,-217.68077 L742.8943,-211.24733 L743.1677,-205.00403 L743.44116,-198.94525 L743.7146,-193.06552 L743.988,-187.35957 L744.2614,-181.82227 L744.53485,-176.44861 L744.8083,-171.23376 L745.08167,-166.17303 L745.3551,-161.26189 L745.62854,-156.49588 L745.902,-151.87073 L746.1754,-147.38226 L746.4488,-143.02646 L746.7222,-138.7994 L746.99567,-134.69725 L747.2691,-130.71634 L747.54254,-126.85309 L747.8159,-123.10401 L748.08936,-119.465744 L748.3628,-115.935 L748.6362,-112.5086 L748.9096,-109.183464 L749.18304,-105.956604 L749.4565,-102.82512 L749.7299,-99.78617 L750.00336,-96.83704 L750.27673,-93.97508 L750.5502,-91.19769 L750.8236,-88.502396 L751.09705,-85.88676 L751.3705,-83.34842 L751.64386,-80.8851 L751.9173,-78.49458 L752.19073,-76.17472 L752.4642,-73.923416 L752.73755,-71.73865 L753.011,-69.618454 L753.2844,-67.56091 L753.55786,-65.564186 L753.8313,-63.626472 L754.1047,-61.74603 L754.3781,-59.921158 L754.65155,-58.15022 L754.925,-56.43162 L755.1984,-54.763813 L755.4718,-53.145298 L755.74524,-51.574615 L756.0187,-50.050358 L756.2921,-48.571144 L756.56555,-47.13565 L756.8389,-45.74258 L757.11237,-44.390686 L757.3858,-43.078743 L757.65924,-41.805573 L757.9326,-40.57003 L758.20605,-39.371006 L758.4795,-38.207417 L758.7529,-37.078217 L759.02637,-35.98239 L759.29974,-34.91895 L759.5732,-33.88694 L759.8466,-32.88543 L760.12006,-31.913517 L760.3935,-183.90504 L760.6669,-178.46982 L760.9403,-173.19525 L761.21375,-168.07655 L761.4872,-163.10915 L761.76056,-158.28853 L762.034,-153.6104 L762.30743,-149.07053 L762.5809,-144.66483 L762.8543,-140.38934 L763.1277,-136.2402 L763.4011,-132.2137 L763.67456,-128.3062 L763.948,-124.514175 L764.22144,-120.83422 L764.4948,-117.26303 L764.76825,-113.797386 L765.0417,-110.434166 L765.3151,-107.17034 L765.5885,-104.002975 L765.86194,-100.92923 L766.1354,-97.94632 L766.4088,-95.05157 L766.68225,-92.24237 L766.9556,-89.51619 L767.22906,-86.87059 L767.5025,-84.30318 L767.77594,-81.81164 L768.0494,-79.39374 L768.32275,-77.0473 L768.5962,-74.77021 L768.8696,-72.56042 L769.14307,-70.41593 L769.41644,-68.33482 L769.6899,-66.31522 L769.9633,-64.355316 L770.23676,-62.453327 L770.5102,-60.607555 L770.78357,-58.81633 L771.057,-57.078045 L771.33044,-55.391132 L771.6039,-53.754078 L771.8773,-52.165405 L772.1507,-50.623684 L772.42413,-49.12753 L772.6976,-47.67559 L772.971,-46.266563 L773.2444,-44.89918 L773.5178,-43.57221 L773.79126,-42.284454 L774.0647,-41.03476 L774.33813,-39.822002 L774.6115,-38.645084 L774.88495,-37.50295 L775.1584,-36.39457 L775.4318,-35.318947 L775.70526,-34.275112 L775.97864,-33.26213 L776.2521,-32.279087 L776.5255,-31.325096 L776.79895,-30.3993 L777.0724,-29.500864 L777.34576,-28.62898 L777.6192,-27.782867 L777.89264,-102.91007 L778.1661,-99.86862 L778.43945,-96.91706 L778.7129,-94.05273 L778.9863,-91.27305 L779.25977,-88.57552 L779.5332,-85.95772 L779.8066,-83.41728 L780.08,-80.951935 L780.35345,-78.55944 L780.6269,-76.237656 L780.9003,-73.9845 L781.1737,-71.79792 L781.44714,-69.67597 L781.7206,-67.61674 L781.994,-65.61836 L782.2674,-63.679047 L782.54083,-61.797047 L782.8143,-59.970665 L783.0877,-58.198265 L783.36115,-56.47825 L783.6345,-54.809063 L783.90796,-53.18921 L784.1814,-51.61723 L784.45483,-50.091713 L784.7283,-48.61128 L785.00165,-47.1746 L785.2751,-45.780376 L785.5485,-44.427364 L785.82196,-43.114334 L786.09534,-41.840115 L786.3688,-40.603554 L786.6422,-39.403534 L786.91565,-38.238987 L787.1891,-37.108852 L787.46246,-36.01212 L787.7359,-34.9478 L788.00934,-33.914936 L788.2828,-32.9126 L788.5562,-31.939886 L788.8296,-30.995918 L789.103,-105.99052 L789.37646,-102.858025 L789.6499,-99.81811 L789.9233,-173.0171 L790.1967,-167.90367 L790.47015,-162.94138 L790.7436,-158.12572 L791.017,-153.45241 L791.2904,-148.9172 L791.56384,-144.51604 L791.8373,-140.24493 L792.1107,-136.10007 L792.38416,-132.07771 L792.65753,-128.17422 L792.93097,-124.3861 L793.2044,-120.70994 L793.47784,-117.14242 L793.7512,-113.680336 L794.02466,-110.32057 L794.2981,-107.06011 L794.57153,-103.896 L794.845,-100.82542 L795.11835,-97.84557 L795.3918,-94.9538 L795.6652,-92.14749 L795.93866,-89.42412 L796.2121,-86.781235 L796.4855,-84.21646 L796.7589,-158.4705 L797.03235,-153.787 L797.3058,-226.11726 L797.57916,-219.4345 L797.8526,-212.94922 L798.12604,-206.65562 L798.3995,-200.54802 L798.6729,-194.62094 L798.9463,-188.86902 L799.2197,-183.2871 L799.49316,-177.87015 L799.7666,-172.61328 L800.04004,-167.5118 L800.3134,-162.56107 L800.58685,-157.75667 L800.8603,-153.09425 L801.1337,-148.56963 L801.40717,-144.17874 L801.68054,-139.9176 L801.954,-135.78242 L802.2274,-131.76944 L802.50085,-127.87507 L802.77423,-124.09579 L803.04767,-120.4282 L803.3211,-116.86901 L803.59454,-113.41501 L803.868,-110.06309 L804.14136,-106.810234 L804.4148,-103.65351 L804.68823,-100.59009 L804.9617,-97.6172 L805.2351,-94.73218 L805.5085,-91.93242 L805.7819,-89.21541 L806.05536,-86.57869 L806.3288,-84.019905 L806.6022,-81.53674 L806.8756,-79.12697 L807.14905,-76.788414 L807.4225,-74.518974 L807.6959,-72.316605 L807.9693,-70.17932 L808.24274,-68.10521 L808.5162,-66.0924 L808.7896,-64.13908 L809.06305,-62.243477 L809.3364,-60.403904 L809.60986,-58.6187 L809.8833,-56.886253 L810.15674,-55.205013 L810.4301,-53.573456 L810.70355,-51.990124 L810.977,-50.453583 L811.2504,-48.962452 L811.52386,-47.515392 L811.79724,-46.111103 L812.0707,-44.748314 L812.3441,-43.4258 L812.61755,-42.142372 L812.891,-40.896877 L813.16437,-39.688194 L813.4378,-38.51523 L813.71124,-37.376934 L813.9847,-113.36102 L814.25806,-110.010704 L814.5315,-106.75939 L814.80493,-103.60418 L815.07837,-100.54221 L815.3518,-97.57074 L815.6252,-94.68709 L815.8986,-91.888664 L816.17206,-89.17294 L816.4455,-86.53748 L816.71893,-83.97991 L816.9923,-81.49793 L817.26575,-79.0893 L817.5392,-76.75186 L817.8126,-74.483505 L818.086,-72.28218 L818.35944,-70.14592 L818.6329,-68.07279 L818.9063,-66.06094 L819.17975,-64.10854 L819.4531,-62.213852 L819.72656,-60.375153 L820,-58.590797" fill="none" stroke="#0971B2" stroke-width="1.2"/>
</g>
<g>
<circle cx="9.887289575534277" cy="0" fill="#FF0000" r="1.2000000476837158"/>
<circle cx="17.4220901203063" cy="-77.40137837815944" fill="#FF0000" r="1.2000000476837158"/>
<circle cx="28.70743915699478" cy="-99.8399538655027" fill="#FF0000" r="1.2000000476837158"/>
<circle cx="31.99079125659533" cy="-147.04009262000355" fill="#FF0000" r="1.2000000476837158"/>
<circle cx="44.54049161877518" cy="-114.5066216077385" fill="#FF0000" r="1.2000000476837158"/>
<circle cx="53.61651550144001" cy="-119.7025904101455" fill="#FF0000" r="1.2000000476837158"/>
<circle cx="58.72139108484202" cy="-145.76944096593255" fill="#FF0000" r="1.2000000476837158"/>
<circle cx="80.68378197358348" cy="-90.49759507967988" fill="#FF0000" r="1.2000000476837158"/>
<circle cx="117.85585146910897" cy="-78.93375816665852" fill="#FF0000" r="1.2000000476837158"/>
<circle cx="119.67956576018426" cy="-142.0206025363444" fill="#FF0000" r="1.2000000476837158"/>
<circle cx="122.72421240752509" cy="-179.08995682344786" fill="#FF0000" r="1.2000000476837158"/>
<circle cx="149.87679007898214" cy="-86.50544007939611" fill="#FF0000" r="1.2000000476837158"/>
<circle cx="152.16639828402177" cy="-144.69009789370227" fill="#FF0000" r="1.2000000476837158"/>
<circle cx="152.96608190587685" cy="-209.93724528393247" fill="#FF0000" r="1.2000000476837158"/>
<circle cx="158.33878787589967" cy="-193.8346084041567" fill="#FF0000" r="1.2000000476837158"/>
<circle cx="163.30814018885758" cy="-189.76838396286823" fill="#FF0000" r="1.2000000476837158"/>
<circle cx="174.71473197238134" cy="-131.688043041349" fill="#FF0000" r="1.2000000476837158"/>
<circle cx="186.77742203377636" cy="-112.45655678444407" fill="#FF0000" r="1.2000000476837158"/>
<circle cx="191.30203246912146" cy="-145.85311590593588" fill="#FF0000" r="1.2000000476837158"/>
<circle cx="207.27524601736576" cy="-102.68171439900654" fill="#FF0000" r="1.2000000476837158"/>
<circle cx="273.9155789919328" cy="-77.46993393771245" fill="#FF0000" r="1.2000000476837158"/>
<circle cx="282.48975639529044" cy="-107.64046509600742" fill="#FF0000" r="1.2000000476837158"/>
<circle cx="290.9591506237212" cy="-119.90285601982242" fill="#FF0000" r="1.2000000476837158"/>
<circle cx="329.44056159839283" cy="-79.15998225250229" fill="#FF0000" r="1.2000000476837158"/>
<circle cx="330.6000946004721" cy="-147.10466713926834" fill="#FF0000" r="1.2000000476837158"/>
<circle cx="331.59449423596055" cy="-209.30075213312668" fill="#FF0000" r="1.2000000476837158"/>
<circle cx="336.25445714204824" cy="-202.92367010335911" fill="#FF0000" r="1.2000000476837158"/>
<circle cx="336.2831039399638" cy="-279.68823782634763" fill="#FF0000" r="1.2000000476837158"/>
<circle cx="413.41115050973445" cy="-77.46046350189518" fill="#FF0000" r="1.2000000476837158"/>
<circle cx="424.6485981658029" cy="-99.97541407109549" fill="#FF0000" r="1.2000000476837158"/>
<circle cx="455.6564163956019" cy="-80.73067682796199" fill="#FF0000" r="1.2000000476837158"/>
<circle cx="466.5767153668733" cy="-101.76153229058772" fill="#FF0000" r="1.2000000476837158"/>
<circle cx="467.48508740256085" cy="-169.50976699394263" fill="#FF0000" r="1.2000000476837158"/>
<circle cx="490.22520093504744" cy="-91.38485489110406" fill="#FF0000" r="1.2000000476837158"/>
<circle cx="498.83000085244396" cy="-112.95227274199145" fill="#FF0000" r="1.2000000476837158"/>
<circle cx="502.4643758037666" cy="-153.20935484783683" fill="#FF0000" r="1.2000000476837158"/>
<circle cx="503.26409893201685" cy="-217.7402608651158" fill="#FF0000" r="1.2000000476837158"/>
<circle cx="532.4379935121613" cy="-86.26856357578492" fill="#FF0000" r="1.2000000476837158"/>
<circle cx="547.6397707679981" cy="-93.674807745777" fill="#FF0000" r="1.2000000476837158"/>
<circle cx="556.2214617492883" cy="-113.93563448945255" fill="#FF0000" r="1.2000000476837158"/>
<circle cx="560.3738838601334" cy="-149.64412656008398" fill="#FF0000" r="1.2000000476837158"/>
<circle cx="562.6248982187433" cy="-194.2968099961578" fill="#FF0000" r="1.2000000476837158"/>
<circle cx="568.8610170699754" cy="-175.42054329924898" fill="#FF0000" r="1.2000000476837158"/>
<circle cx="581.4715393396995" cy="-121.37394016696426" fill="#FF0000" r="1.2000000476837158"/>
<circle cx="635.8349357272192" cy="-77.71303628715853" fill="#FF0000" r="1.2000000476837158"/>
<circle cx="643.4608653692068" cy="-111.06136327721768" fill="#FF0000" r="1.2000000476837158"/>
<circle cx="645.627034878543" cy="-164.96904339457592" fill="#FF0000" r="1.2000000476837158"/>
<circle cx="654.5188640829342" cy="-139.58867084396383" fill="#FF0000" r="1.2000000476837158"/>
<circle cx="657.9319481319352" cy="-173.38889191510518" fill="#FF0000" r="1.2000000476837158"/>
<circle cx="665.8776386814175" cy="-149.91248251822483" fill="#FF0000" r="1.2000000476837158"/>
<circle cx="673.567317607781" cy="-141.88065330518816" fill="#FF0000" r="1.2000000476837158"/>
<circle cx="674.850895976383" cy="-200.64371605745765" fill="#FF0000" r="1.2000000476837158"/>
<circle cx="675.0617954854473" cy="-273.4555461117821" fill="#FF0000" r="1.2000000476837158"/>
<circle cx="675.4310311654316" cy="-340" fill="#FF0000" r="1.2000000476837158"/>
<circle cx="678.7908653815283" cy="-312.5708115003467" fill="#FF0000" r="1.2000000476837158"/>
<circle cx="694.0210929974689" cy="-136.17998146901036" fill="#FF0000" r="1.2000000476837158"/>
<circle cx="727.915648185091" cy="-80.70521148762855" fill="#FF0000" r="1.2000000476837158"/>
<circle cx="734.7222716283193" cy="-115.6452660409299" fill="#FF0000" r="1.2000000476837158"/>
<circle cx="735.9227916805748" cy="-178.77439827935194" fill="#FF0000" r="1.2000000476837158"/>
<circle cx="739.4625566822084" cy="-198.63790183172196" fill="#FF0000" r="1.2000000476837158"/>
<circle cx="742.599054223646" cy="-218.20252653713402" fill="#FF0000" r="1.2000000476837158"/>
<circle cx="760.1784211762222" cy="-109.11112460540542" fill="#FF0000" r="1.2000000476837158"/>
<circle cx="760.3860219829354" cy="-184.05527656361588" fill="#FF0000" r="1.2000000476837158"/>
<circle cx="777.7199037916506" cy="-104.878976861506" fill="#FF0000" r="1.2000000476837158"/>
<circle cx="788.9257876433765" cy="-108.07193032136772" fill="#FF0000" r="1.2000000476837158"/>
<circle cx="789.7746396331606" cy="-175.86246403851194" fill="#FF0000" r="1.2000000476837158"/>
<circle cx="796.6810650617452" cy="-159.8299900918786" fill="#FF0000" r="1.2000000476837158"/>
<circle cx="797.24361743783" cy="-227.6644721371423" fill="#FF0000" r="1.2000000476837158"/>
<circle cx="813.947774350179" cy="-113.82075593949723" fill="#FF0000" r="1.2000000476837158"/>
</g>
<g>
<g>
<line stroke="black" stroke-width="1" x1="0" x2="0" y1="0" y2="10"/>
<line stroke="black" stroke-width="1" x1="182.28298321662777" x2="182.28298321662777" y1="0" y2="10"/>
<line stroke="black" stroke-width="1" x1="364.56596643325554" x2="364.56596643325554" y1="0" y2="10"/>
<line stroke="black" stroke-width="1" x1="546.8489496498833" x2="546.8489496498833" y1="0" y2="10"/>
<line stroke="black" stroke-width="1" x1="729.1319328665111" x2="729.1319328665111" y1="0" y2="10"/>
</g>
<line stroke="black" stroke-width="1" x1="0" x2="820" y1="0" y2="0"/>
<g>
<text font-size="12" text-anchor="middle" x="0" y="20">
0
</text>
<text font-size="12" text-anchor="middle" x="182.28298321662777" y="20">
20
</text>
<text font-size="12" text-anchor="middle" x="364.56596643325554" y="20">
40
</text>
<text font-size="12" text-anchor="middle" x="546.8489496498833" y="20">
60
</text>
<text font-size="12" text-anchor="middle" x="729.1319328665111" y="20">
80
</text>
</g>
<text font-size="12" text-anchor="middle" x="410" y="30">
Time t
</text>
</g>
<g>
<g>
<line stroke="black" stroke-width="1" x1="0" x2="-10" y1="-0.000000000000042966396206578164" y2="-0.000000000000042966396206578164"/>
<line stroke="black" stroke-width="1" x1="0" x2="-10" y1="-77.40137837815944" y2="-77.40137837815944"/>
<line stroke="black" stroke-width="1" x1="0" x2="-10" y1="-154.80275675631881" y2="-154.80275675631881"/>
<line stroke="black" stroke-width="1" x1="0" x2="-10" y1="-232.20413513447826" y2="-232.20413513447826"/>
<line stroke="black" stroke-width="1" x1="0" x2="-10" y1="-309.6055135126377" y2="-309.6055135126377"/>
</g>
<line stroke="black" stroke-0="1" x1="0" x2="0" y1="0" y2="-340"/>
<g>
<text dominant-baseline="middle" font-size="12" text-anchor="end" x="-15" y="-0.000000000000042966396206578164">
0.6000000000000001
</text>
<text dominant-baseline="middle" font-size="12" text-anchor="end" x="-15" y="-77.40137837815944">
0.8
</text>
<text dominant-baseline="middle" font-size="12" text-anchor="end" x="-15" y="-154.80275675631881">
1
</text>
<text dominant-baseline="middle" font-size="12" text-anchor="end" x="-15" y="-232.20413513447826">
1.2000000000000002
</text>
<text dominant-baseline="middle" font-size="12" text-anchor="end" x="-15" y="-309.6055135126377">
1.4000000000000001
</text>
</g>
<text font-size="12" text-anchor="middle" transform="rotate(-90 -30 -170)" x="-30" y="-170">
Intensity (t)
</text>
</g>
</g>
</svg>