<svg viewBox="0 0 900 400" xmlns="http://www.w3.org/2000/svg">
<g transform="translate(48, 364)">
<g>
<path d="M0,0 L0,0 L0.27289605,0 L0.5457921,0 L0.8186881,0 L1.0915842,0 L1.3644803,0 L1.6373762,0 L1.9102722,0 L2.1831684,0 L2.4560645,0 L2.7289605,0 L3.0018563,0 L3.2747524,0 L3.5476484,0 L3.8205445,-58.385426 L4.0934405,-56.659874 L4.366337,-54.98532 L4.6392326,-53.36026 L4.912129,-51.783226 L5.1850247,-50.2528 L5.457921,-48.767605 L5.730817,-142.21194 L6.0037127,-138.00894 L6.276609,-133.93016 L6.5495048,-129.97192 L6.822401,-126.13068 L7.095297,-122.402954 L7.368193,-118.7854 L7.641089,-115.27476 L7.9139853,-111.867874 L8.186881,-108.561676 L8.459777,-105.353195 L8.732674,-102.23954 L9.005569,-99.2179 L9.278465,-96.28557 L9.551361,-93.4399 L9.824258,-90.67834 L10.097154,-87.99839 L10.370049,-85.397644 L10.642945,-82.87376 L10.915842,-80.42447 L11.188738,-78.04757 L11.461634,-75.74091 L11.7345295,-73.50243 L12.007425,-71.33011 L12.280322,-69.221985 L12.553218,-67.17616 L12.826114,-65.19081 L13.0990095,-63.26413 L13.371906,-61.39439 L13.644802,-59.579914 L13.917698,-57.81906 L14.190594,-56.11025 L14.4634905,-54.45194 L14.736386,-52.842644 L15.009282,-51.280907 L15.282178,-49.765327 L15.555075,-48.29454 L15.8279705,-46.867218 L16.100866,-45.482082 L16.373762,-44.137886 L16.646658,-42.833412 L16.919554,-41.567493 L17.192451,-125.46843 L17.465347,-121.76028 L17.738243,-118.16172 L18.011139,-114.66951 L18.284035,-111.28052 L18.55693,-107.991684 L18.829826,-104.80004 L19.102722,-101.702736 L19.375618,-98.69697 L19.648516,-95.78003 L19.921412,-92.9493 L20.194307,-90.20223 L20.467203,-87.536354 L20.740099,-84.949265 L21.012995,-82.43864 L21.28589,-80.002205 L21.558786,-77.63778 L21.831684,-75.34324 L22.10458,-73.11651 L22.377476,-70.95559 L22.650372,-68.858536 L22.923267,-66.823456 L23.196163,-64.848526 L23.469059,-62.93196 L23.741955,-61.07204 L24.01485,-59.26709 L24.287748,-57.515484 L24.560644,-55.815643 L24.83354,-54.166042 L25.106436,-52.565193 L25.379332,-51.011658 L25.652227,-49.504036 L25.925123,-48.04097 L26.198019,-46.621143 L26.470917,-45.243282 L26.743813,-43.90614 L27.016708,-42.608517 L27.289604,-41.349247 L27.5625,-40.12719 L27.835396,-38.941254 L28.108292,-37.790367 L28.381187,-36.673492 L28.654085,-35.589626 L28.926981,-34.537792 L29.199877,-33.517048 L29.472773,-32.52647 L29.745668,-31.565166 L30.018564,-30.632275 L30.29146,-29.726954 L30.564356,-28.84839 L30.837252,-27.99579 L31.11015,-27.16839 L31.383045,-26.365444 L31.655941,-25.586227 L31.928837,-24.83004 L32.201733,-24.0962 L32.47463,-23.38405 L32.747524,-22.692947 L33.02042,-22.02227 L33.293316,-21.371412 L33.56621,-20.739792 L33.839108,-20.126839 L34.112003,-19.532001 L34.384903,-18.954742 L34.6578,-18.394547 L34.930695,-17.850904 L35.20359,-17.32333 L35.476486,-16.81135 L35.749382,-16.314499 L36.022278,-15.832333 L36.295174,-15.364416 L36.56807,-14.910329 L36.840965,-14.469662 L37.11386,-14.042019 L37.386757,-13.627014 L37.659653,-13.224276 L37.93255,-12.833439 L38.205444,-12.454154 L38.47834,-12.086078 L38.751236,-11.72888 L39.024136,-11.382239 L39.29703,-11.045843 L39.569927,-10.719389 L39.842823,-10.402583 L40.11572,-10.09514 L40.388615,-9.796784 L40.66151,-9.507245 L40.934406,-9.226264 L41.207302,-8.953587 L41.480198,-8.688968 L41.753094,-8.43217 L42.02599,-8.182962 L42.298885,-7.9411187 L42.57178,-7.7064233 L42.844677,-7.4786644 L43.117573,-7.257636 L43.39047,-7.043141 L43.66337,-6.8349843 L43.936264,-6.63298 L44.20916,-6.436946 L44.482056,-6.2467055 L44.75495,-6.0620875 L45.027847,-5.8829255 L45.300743,-5.709059 L45.57364,-5.540331 L45.846535,-5.3765893 L46.11943,-5.217687 L46.392326,-5.063481 L46.665222,-4.9138327 L46.938118,-4.7686067 L47.211014,-4.627673 L47.48391,-4.490905 L47.756805,-4.3581786 L48.0297,-4.229375 L48.3026,-4.1043777 L48.575497,-3.9830751 L48.848392,-3.8653576 L49.12129,-3.751119 L49.394184,-3.6402566 L49.66708,-3.5326707 L49.939976,-3.4282646 L50.21287,-3.326944 L50.485767,-3.228618 L50.758663,-3.133198 L51.03156,-3.040598 L51.304455,-2.9507346 L51.57735,-2.8635273 L51.850246,-2.7788973 L52.123142,-2.6967685 L52.396038,-2.6170669 L52.668938,-2.5397208 L52.941833,-2.464661 L53.21473,-2.391819 L53.487625,-2.32113 L53.76052,-2.2525303 L54.033417,-2.1859581 L54.306313,-2.1213531 L54.57921,-2.0586576 L54.852104,-1.9978153 L55.125,-60.191525 L55.397896,-58.412598 L55.67079,-56.686245 L55.943687,-55.010914 L56.216583,-53.385094 L56.48948,-51.807327 L56.762375,-50.276188 L57.03527,-48.790302 L57.30817,-47.34833 L57.581066,-45.948975 L57.853962,-44.59098 L58.126858,-43.273117 L58.399754,-41.9942 L58.67265,-40.753086 L58.945545,-39.54865 L59.21844,-38.37981 L59.491337,-37.245518 L59.764233,-36.144745 L60.03713,-35.076508 L60.310024,-34.03984 L60.58292,-33.03381 L60.855816,-32.057514 L61.12871,-31.110071 L61.401608,-30.190628 L61.674503,-29.29836 L61.947403,-28.432463 L62.2203,-27.592157 L62.493195,-26.776686 L62.76609,-25.985315 L63.038986,-25.217333 L63.311882,-24.472048 L63.584778,-23.748789 L63.857674,-23.046907 L64.13057,-22.365768 L64.403465,-21.70476 L64.67636,-21.063288 L64.94926,-20.440773 L65.22215,-19.836657 L65.49505,-19.250395 L65.767944,-18.68146 L66.04084,-18.12934 L66.313736,-17.593536 L66.58663,-17.073568 L66.85953,-16.568968 L67.13242,-16.07928 L67.40532,-15.604067 L67.678215,-15.142897 L67.95111,-14.695356 L68.22401,-14.261044 L68.4969,-13.839565 L68.769806,-13.430545 L69.0427,-13.033612 L69.3156,-12.648411 L69.58849,-12.274593 L69.86139,-11.911824 L70.134285,-11.559777 L70.40718,-11.218134 L70.68008,-10.886588 L70.95297,-10.56484 L71.22587,-10.252603 L71.498764,-9.949593 L71.77166,-9.655538 L72.044556,-9.370173 L72.31745,-9.093243 L72.59035,-8.824496 L72.86324,-66.72065 L73.13614,-64.74876 L73.409035,-62.835144 L73.68193,-60.978085 L73.95483,-59.17591 L74.22772,-57.427 L74.50062,-55.729774 L74.77351,-54.08271 L75.04641,-52.484325 L75.319305,-50.933178 L75.5922,-49.427876 L75.8651,-47.96706 L76.13799,-46.54942 L76.41089,-45.173676 L76.683784,-43.838593 L76.95668,-42.542965 L77.229576,-41.285633 L77.50247,-40.065456 L77.77537,-38.881344 L78.04827,-37.732227 L78.32117,-36.61707 L78.59406,-35.534874 L78.86696,-34.484657 L79.139854,-33.46548 L79.41275,-32.47643 L79.685646,-31.516605 L79.95854,-30.585148 L80.23144,-29.681221 L80.50433,-28.804008 L80.77723,-27.95272 L81.050125,-27.126593 L81.32302,-26.32488 L81.59592,-25.546864 L81.86881,-24.79184 L82.14171,-24.05913 L82.414604,-23.348074 L82.6875,-80.90935 L82.960396,-78.51812 L83.23329,-76.197556 L83.50619,-73.94558 L83.77908,-71.760155 L84.05198,-69.63932 L84.324875,-67.58117 L84.59777,-65.58385 L84.87067,-63.64555 L85.14356,-61.764538 L85.41646,-59.93912 L85.689354,-58.167652 L85.96225,-56.44854 L86.235146,-54.78023 L86.50804,-53.161232 L86.78094,-51.59008 L87.05384,-50.06536 L87.32674,-48.58571 L87.59963,-47.149784 L87.87253,-45.756298 L88.145424,-44.40399 L88.41832,-43.091656 L88.691216,-41.818108 L88.96411,-40.582195 L89.23701,-39.38281 L89.5099,-38.218872 L89.7828,-37.089333 L90.055695,-35.99318 L90.32859,-34.929417 L90.60149,-33.8971 L90.87438,-32.895287 L91.14728,-31.923084 L91.42017,-30.979614 L91.69307,-30.06403 L91.965965,-29.175503 L92.23886,-28.313236 L92.51176,-27.476454 L92.78465,-26.664402 L93.05755,-25.87635 L93.330444,-25.111588 L93.60334,-82.37156 L93.876236,-79.93711 L94.14913,-77.574615 L94.42203,-75.28194 L94.69492,-73.05702 L94.96782,-70.89786 L95.240715,-68.80251 L95.51361,-66.76909 L95.78651,-64.79576 L96.0594,-62.88076 L96.332306,-118.38184 L96.6052,-114.88313 L96.8781,-111.48782 L97.15099,-108.19286 L97.42389,-104.99528 L97.696785,-101.8922 L97.96968,-98.88083 L98.24258,-95.95846 L98.51547,-93.12246 L98.78837,-148.6028 L99.061264,-144.21092 L99.33416,-139.94884 L99.607056,-135.81273 L99.87995,-131.79886 L100.15285,-127.90361 L100.42574,-124.12348 L100.69864,-120.45508 L100.971535,-116.895096 L101.24443,-113.44032 L101.51733,-110.087654 L101.79022,-106.834076 L102.06312,-103.67665 L102.33601,-100.61254 L102.60891,-97.63899 L102.881805,-94.75333 L103.1547,-91.95294 L103.4276,-89.23532 L103.70049,-86.598015 L103.97339,-84.03866 L104.246284,-81.55494 L104.51918,-79.14463 L104.792076,-76.80555 L105.06497,-74.53561 L105.337875,-72.33274 L105.61077,-70.194984 L105.88367,-68.120415 L106.15656,-66.10715 L106.42946,-64.15339 L106.702354,-62.25737 L106.97525,-60.417385 L107.248146,-58.631783 L107.52104,-56.898952 L107.79394,-55.217335 L108.06683,-53.585415 L108.33973,-52.001728 L108.612625,-50.464844 L108.88552,-48.97338 L109.15842,-47.526 L109.43131,-46.121395 L109.70421,-44.7583 L109.977104,-43.435493 L110.25,-42.15178 L110.522896,-40.906006 L110.79579,-39.697052 L111.06869,-38.523827 L111.34158,-37.385277 L111.61448,-36.280373 L111.887375,-35.208126 L112.16027,-34.16757 L112.43317,-33.157764 L112.70606,-32.177803 L112.97896,-31.226807 L113.251854,-30.303915 L113.52475,-29.408298 L113.797646,-28.539152 L114.07054,-27.695694 L114.34344,-26.877161 L114.61634,-26.08282 L114.88924,-25.311958 L115.16213,-24.563877 L115.43503,-23.837904 L115.707924,-23.133387 L115.98082,-22.449692 L116.253716,-21.786203 L116.52661,-21.142324 L116.79951,-20.517473 L117.0724,-19.91109 L117.3453,-19.32263 L117.618195,-18.75156 L117.89109,-18.197367 L118.16399,-17.659554 L118.43688,-17.137634 L118.70978,-16.631142 L118.98267,-16.139616 L119.25557,-15.662619 L119.528465,-15.199718 L119.80136,-14.750499 L120.07426,-14.314556 L120.34715,-13.891497 L120.62005,-13.480941 L120.892944,-13.082519 L121.16584,-12.695872 L121.438736,-12.320652 L121.71163,-11.956522 L121.98453,-11.603153 L122.25742,-11.260228 L122.53032,-10.927439 L122.803215,-10.604484 L123.07611,-10.291074 L123.34901,-9.986927 L123.6219,-9.691769 L123.894806,-9.4053335 L124.1677,-9.127364 L124.4406,-8.85761 L124.71349,-8.595827 L124.98639,-8.341783 L125.259285,-8.095245 L125.53218,-7.8559947 L125.80508,-7.623815 L126.07797,-7.398497 L126.35087,-7.1798387 L126.623764,-6.9676423 L126.89666,-6.7617173 L127.169556,-6.5618787 L127.44245,-6.3679457 L127.71535,-6.1797442 L127.98824,-5.9971056 L128.26114,-5.8198643 L128.53404,-5.647861 L128.80693,-5.480942 L129.07983,-5.3189554 L129.35272,-5.1617565 L129.62563,-5.0092034 L129.89851,-4.8611593 L130.17142,-4.71749 L130.4443,-4.5780673 L130.71721,-4.4427648 L130.9901,-4.3114614 L131.263,-4.1840386 L131.53589,-4.0603814 L131.80879,-3.940379 L132.08168,-3.823923 L132.35458,-3.7109091 L132.62747,-3.6012352 L132.90038,-3.4948027 L133.17326,-3.3915157 L133.44617,-3.2912812 L133.71906,-3.194009 L133.99196,-3.099612 L134.26485,-3.0080044 L134.53775,-2.9191046 L134.81064,-2.832832 L135.08354,-2.7491093 L135.35643,-2.6678607 L135.62933,-2.5890136 L135.90222,-2.5124965 L136.17513,-2.438241 L136.44801,-2.3661802 L136.72092,-2.296249 L136.9938,-2.2283845 L137.26671,-2.162526 L137.53961,-2.0986135 L137.8125,-2.03659 L138.0854,-1.9763998 L138.35829,-1.9179884 L138.6312,-1.8613032 L138.90408,-1.8062934 L139.17699,-1.7529094 L139.44987,-1.7011031 L139.72278,-1.6508279 L139.99567,-1.6020385 L140.26857,-1.5546912 L140.54146,-1.508743 L140.81436,-1.464153 L141.08725,-1.4208807 L141.36015,-1.3788874 L141.63304,-1.3381351 L141.90594,-1.2985872 L142.17883,-1.2602081 L142.45174,-1.2229633 L142.72462,-1.1868193 L142.99753,-1.1517435 L143.27042,-1.1177044 L143.54332,-1.0846713 L143.81621,-1.0526143 L144.08911,-1.0215049 L144.362,-0.9913148 L144.6349,-0.96201706 L144.90779,-0.93358517 L145.1807,-0.9059936 L145.45358,-0.8792174 L145.72649,-0.8532326 L145.99937,-0.82801574 L146.27228,-0.8035442 L146.54518,-0.7797959 L146.81807,-0.75674945 L147.09097,-57.968155 L147.36386,-56.254936 L147.63676,-54.592354 L147.90965,-52.978905 L148.18256,-51.413143 L148.45544,-49.893654 L148.72835,-48.419075 L149.00124,-46.98807 L149.27414,-45.599365 L149.54703,-44.2517 L149.81993,-42.943867 L150.09282,-41.674683 L150.36572,-98.5847 L150.63861,-95.67108 L150.91151,-92.843575 L151.1844,-90.09963 L151.4573,-87.43678 L151.7302,-84.85264 L152.0031,-139.9737 L152.27599,-135.83685 L152.54889,-131.82227 L152.82178,-127.92633 L153.09468,-124.14554 L153.36757,-120.47648 L153.64047,-116.91586 L153.91336,-113.46048 L154.18626,-110.107216 L154.45915,-106.85305 L154.73206,-103.69507 L155.00494,-100.63042 L155.27785,-97.656334 L155.55074,-94.77016 L155.82364,-91.96928 L156.09654,-147.03435 L156.36943,-199.91258 L156.64233,-194.00427 L156.91522,-188.27058 L157.18813,-182.70634 L157.46101,-177.30655 L157.73392,-172.06635 L158.0068,-166.98102 L158.27971,-162.04599 L158.5526,-157.2568 L158.8255,-152.60916 L159.09839,-148.09888 L159.37129,-143.7219 L159.64418,-139.47427 L159.91708,-135.35219 L160.18997,-131.35193 L160.46288,-127.46989 L160.73576,-123.70258 L161.00867,-120.04662 L161.28156,-116.4987 L161.55446,-113.05565 L161.82735,-109.71435 L162.10025,-106.4718 L162.37314,-103.32508 L162.64604,-100.27136 L162.91893,-97.3079 L163.19183,-94.432014 L163.46472,-91.64113 L163.73763,-88.932724 L164.01051,-86.30437 L164.28342,-83.753685 L164.5563,-81.27839 L164.82921,-78.87625 L165.10211,-76.545105 L165.375,-74.28285 L165.6479,-72.08746 L165.92079,-69.956955 L166.1937,-67.88942 L166.46658,-65.88298 L166.73949,-63.935844 L167.01237,-62.046257 L167.28528,-60.212513 L167.55817,-58.432964 L167.83107,-56.70601 L168.10396,-55.030094 L168.37686,-53.403706 L168.64975,-51.82539 L168.92265,-50.293716 L169.19554,-48.807312 L169.46844,-47.364838 L169.74133,-45.964996 L170.01424,-44.606525 L170.28712,-43.288204 L170.56003,-42.008842 L170.83292,-40.767296 L171.10582,-39.56244 L171.37871,-38.393192 L171.65161,-37.258503 L171.9245,-36.15735 L172.1974,-35.088737 L172.47029,-34.05171 L172.7432,-33.045326 L173.01608,-90.06617 L173.28899,-87.40431 L173.56187,-84.82113 L173.83478,-82.314285 L174.10768,-79.88153 L174.38057,-77.520676 L174.65347,-75.22959 L174.92636,-73.00622 L175.19926,-70.84856 L175.47215,-68.75467 L175.74506,-66.722664 L176.01794,-64.75071 L176.29085,-62.837036 L176.56374,-60.97992 L176.83664,-59.177692 L177.10953,-57.428726 L177.38243,-55.73145 L177.65532,-54.08434 L177.92822,-52.485905 L178.20111,-50.93471 L178.47401,-49.429363 L178.7469,-47.968506 L179.0198,-46.55082 L179.2927,-45.175037 L179.5656,-43.839912 L179.83849,-42.544247 L180.11139,-41.286873 L180.38428,-40.06666 L180.65718,-38.882515 L180.93007,-37.73336 L181.20297,-36.61817 L181.47586,-35.535942 L181.74876,-34.485695 L182.02165,-33.46649 L182.29456,-32.477406 L182.56744,-31.517553 L182.84035,-30.58607 L183.11324,-29.682114 L183.38614,-28.804874 L183.65904,-27.953562 L183.93193,-27.127409 L184.20483,-26.325674 L184.47772,-25.547632 L184.75063,-24.792585 L185.02351,-24.059855 L185.29642,-23.348778 L185.5693,-22.658716 L185.84221,-79.11209 L186.1151,-76.77397 L186.388,-74.50496 L186.66089,-72.303 L186.93379,-70.16613 L187.20668,-68.09241 L187.47958,-66.07997 L187.75247,-64.127014 L188.02538,-119.96727 L188.29826,-116.4217 L188.57117,-112.98092 L188.84406,-109.64182 L189.11696,-106.40142 L189.38985,-103.25678 L189.66275,-100.205086 L189.93564,-97.243576 L190.20854,-94.36959 L190.48143,-91.58055 L190.75433,-88.87394 L191.02722,-86.247314 L191.30013,-83.69832 L191.57301,-81.22466 L191.84592,-78.82411 L192.1188,-76.49451 L192.39171,-74.23375 L192.66461,-72.03981 L192.9375,-69.91071 L193.2104,-67.84454 L193.48329,-65.83943 L193.7562,-63.89358 L194.02908,-62.00524 L194.30199,-60.17271 L194.57487,-58.394337 L194.84778,-56.668526 L195.12067,-54.993717 L195.39357,-53.368404 L195.66646,-51.79113 L195.93936,-50.26047 L196.21225,-48.77505 L196.48515,-47.33353 L196.75804,-45.934612 L197.03094,-44.57704 L197.30383,-43.25959 L197.57674,-41.981075 L197.84962,-40.74035 L198.12253,-39.53629 L198.39542,-38.367813 L198.66832,-37.233875 L198.94121,-36.133446 L199.21411,-35.06554 L199.487,-34.029198 L199.7599,-33.023483 L200.03279,-32.047493 L200.3057,-31.100346 L200.57858,-30.18119 L200.85149,-29.289202 L201.12437,-28.423576 L201.39728,-27.583532 L201.67018,-26.768316 L201.94307,-25.977192 L202.21597,-25.20945 L202.48886,-24.464397 L202.76176,-23.741365 L203.03465,-23.039703 L203.30756,-22.358776 L203.58044,-21.697975 L203.85335,-21.056704 L204.12624,-78.46925 L204.39914,-76.15014 L204.67203,-73.89956 L204.94493,-71.7155 L205.21782,-69.595985 L205.49072,-125.72873 L205.76361,-122.012886 L206.03651,-118.40686 L206.3094,-114.90741 L206.5823,-111.51138 L206.8552,-108.21572 L207.1281,-105.01746 L207.40099,-101.91373 L207.67389,-157.31192 L207.94678,-152.66266 L208.21968,-148.15079 L208.49257,-143.77228 L208.76547,-139.52316 L209.03836,-135.39963 L209.31126,-131.39796 L209.58415,-127.514565 L209.85706,-123.74594 L210.12994,-120.0887 L210.40285,-116.53954 L210.67575,-113.095276 L210.94864,-109.75281 L211.22154,-106.50912 L211.49443,-103.3613 L211.76733,-100.30651 L212.04022,-97.342 L212.31313,-94.46512 L212.58601,-91.67325 L212.85892,-88.9639 L213.1318,-86.33462 L213.40471,-83.78304 L213.6776,-81.30688 L213.9505,-78.9039 L214.22339,-76.57194 L214.49629,-74.30889 L214.76918,-72.11273 L215.04208,-69.981476 L215.31497,-67.913216 L215.58788,-65.906075 L215.86076,-63.958256 L216.13367,-62.068005 L216.40656,-60.233616 L216.67946,-58.453445 L216.95235,-56.725883 L217.22525,-55.04938 L217.49814,-53.422424 L217.77104,-51.843555 L218.04393,-50.311344 L218.31683,-48.82442 L218.58972,-104.9494 L218.86263,-101.84768 L219.13551,-98.83762 L219.40842,-95.91653 L219.6813,-93.081764 L219.95421,-90.33079 L220.22711,-87.66111 L220.5,-85.07033 L220.7729,-82.55612 L221.04579,-80.11622 L221.3187,-77.74843 L221.59158,-75.450615 L221.86449,-73.22071 L222.13737,-71.05671 L222.41028,-68.95667 L222.68317,-66.91869 L222.95607,-64.94095 L223.22896,-63.021652 L223.50186,-61.15908 L223.77475,-59.351555 L224.04765,-57.59745 L224.32054,-55.89519 L224.59344,-54.243237 L224.86633,-52.640106 L225.13924,-51.08436 L225.41212,-49.574585 L225.68503,-48.109436 L225.95792,-46.687588 L226.23082,-45.307762 L226.50371,-43.96871 L226.77661,-42.669243 L227.0495,-41.408176 L227.3224,-40.18438 L227.59529,-38.99675 L227.8682,-37.844223 L228.14108,-36.725758 L228.41399,-35.640347 L228.68687,-34.587013 L228.95978,-33.564816 L229.23268,-32.572823 L229.50557,-31.610151 L229.77847,-30.67593 L230.05136,-29.76932 L230.32426,-28.889503 L230.59715,-28.03569 L230.87006,-27.20711 L231.14294,-26.403019 L231.41585,-25.62269 L231.68874,-24.865425 L231.96164,-24.13054 L232.23453,-23.417376 L232.50743,-22.725288 L232.78032,-22.053654 L233.05322,-21.40187 L233.32611,-20.76935 L233.59901,-20.155523 L233.8719,-19.559837 L234.1448,-18.981756 L234.4177,-18.420761 L234.6906,-17.876345 L234.96349,-17.348019 L235.23639,-16.835308 L235.50928,-16.33775 L235.78218,-15.854896 L236.05507,-15.3863125 L236.32797,-14.931579 L236.60086,-14.490284 L236.87376,-14.062031 L237.14665,-13.646435 L237.41956,-13.243122 L237.69244,-12.851728 L237.96535,-12.471903 L238.23825,-12.103302 L238.51114,-11.745596 L238.78404,-11.39846 L239.05693,-11.061585 L239.32983,-10.734666 L239.60272,-10.417409 L239.87563,-10.109528 L240.14851,-9.810746 L240.42142,-9.520795 L240.6943,-9.239412 L240.96721,-8.966347 L241.2401,-8.701351 L241.513,-8.444187 L241.78589,-8.194624 L242.05879,-7.9524364 L242.33168,-7.7174063 L242.60458,-7.489322 L242.87747,-7.2679796 L243.15038,-7.0531783 L243.42326,-6.844725 L243.69617,-6.642433 L243.96906,-6.4461193 L244.24196,-6.255608 L244.51485,-6.070727 L244.78775,-5.8913097 L245.06064,-5.717195 L245.33354,-5.5482264 L245.60643,-5.3842516 L245.87933,-5.225123 L246.15222,-5.0706973 L246.42513,-4.9208355 L246.69801,-4.775403 L246.97092,-4.6342683 L247.2438,-4.497305 L247.51671,-4.3643894 L247.78961,-4.235402 L248.0625,-4.110227 L248.3354,-3.9887516 L248.60829,-3.8708663 L248.8812,-3.756465 L249.15408,-61.34725 L249.42699,-59.53417 L249.69987,-57.774666 L249.97278,-56.067165 L250.24567,-54.41013 L250.51857,-52.80207 L250.79146,-51.24153 L251.06436,-49.727116 L251.33725,-48.257458 L251.61015,-46.831234 L251.88304,-45.447163 L252.15594,-44.103996 L252.42883,-42.800526 L252.70174,-41.53558 L252.97462,-40.308018 L253.24753,-39.116734 L253.52042,-37.96066 L253.79332,-36.838753 L254.06621,-35.750004 L254.33911,-34.69343 L254.612,-33.668087 L254.8849,-32.673042 L255.15779,-31.707409 L255.4307,-30.770313 L255.70358,-29.860912 L255.97649,-28.97839 L256.2494,-28.121948 L256.52228,-27.29082 L256.79517,-26.484255 L257.06808,-25.701527 L257.34097,-24.94193 L257.61386,-24.204786 L257.88675,-23.489426 L258.15967,-22.795208 L258.43256,-22.121508 L258.70544,-21.46772 L258.97833,-20.833252 L259.25125,-20.217537 L259.52414,-19.620018 L259.79703,-19.04016 L260.06992,-18.477438 L260.34283,-17.931347 L260.61572,-17.401396 L260.8886,-16.887106 L261.1615,-16.388016 L261.43442,-15.903678 L261.7073,-15.433653 L261.9802,-14.977519 L262.25308,-14.534867 L262.526,-14.105297 L262.7989,-13.688422 L263.07178,-13.283868 L263.34467,-12.891271 L263.61758,-12.510276 L263.89047,-12.140541 L264.16336,-11.781734 L264.43625,-11.433531 L264.70917,-11.095619 L264.98206,-10.767694 L265.25494,-10.449461 L265.52783,-10.140633 L265.80075,-9.840932 L266.07364,-9.550088 L266.34653,-9.26784 L266.61945,-8.993935 L266.89233,-8.728124 L267.16522,-8.470168 L267.4381,-8.219837 L267.71103,-7.976904 L267.98392,-7.741151 L268.2568,-7.5123653 L268.5297,-7.2903414 L268.8026,-7.074879 L269.0755,-6.865785 L269.3484,-6.6628704 L269.62128,-6.465953 L269.8942,-6.274855 L270.16708,-6.089405 L270.43997,-5.9094357 L270.71286,-5.7347856 L270.98578,-5.565297 L271.25867,-5.400818 L271.53156,-5.2411995 L271.80444,-5.0862985 L272.07736,-4.9359756 L272.35025,-4.790096 L272.62314,-4.6485267 L272.89603,-4.5111423 L273.16895,-4.3778176 L273.44183,-4.2484336 L273.71472,-4.1228733 L273.9876,-4.0010242 L274.26053,-3.882776 L274.53342,-3.7680228 L274.8063,-3.6566608 L275.07922,-3.5485902 L275.3521,-3.4437134 L275.625,-3.3419363 L275.8979,-3.2431672 L276.1708,-3.1473172 L276.4437,-3.0542998 L276.71658,-2.9640317 L276.98947,-2.8764312 L277.2624,-2.7914197 L277.53528,-2.708921 L277.80817,-2.6288602 L278.08105,-2.5511656 L278.35397,-2.4757674 L278.62686,-2.4025974 L278.89975,-2.33159 L279.17264,-2.262681 L279.44556,-2.1958086 L279.71844,-2.1309128 L279.99133,-2.0679348 L280.26422,-2.006818 L280.53714,-1.9475075 L280.81003,-1.88995 L281.08292,-1.8340936 L281.3558,-1.7798879 L281.62872,-1.7272842 L281.9016,-1.6762353 L282.1745,-1.626695 L282.4474,-1.5786189 L282.7203,-1.5319637 L282.9932,-1.4866873 L283.26608,-1.442749 L283.53897,-1.4001094 L283.8119,-1.35873 L284.08478,-1.3185734 L284.35767,-1.2796036 L284.63058,-1.2417856 L284.90347,-1.2050853 L285.17636,-1.1694697 L285.44925,-1.1349066 L285.72217,-1.1013651 L285.99506,-1.0688148 L286.26794,-1.0372266 L286.54083,-1.0065719 L286.81375,-0.97682315 L287.08664,-0.9479537 L287.35953,-0.91993743 L287.63242,-0.8927492 L287.90533,-0.8663644 L288.17822,-0.8407595 L288.4511,-0.8159113 L288.724,-0.79179746 L288.99692,-0.7683963 L289.2698,-0.74568677 L289.5427,-0.7236484 L289.81558,-0.7022614 L290.0885,-0.6815064 L290.3614,-0.66136485 L290.63428,-0.6418186 L290.90717,-0.62284994 L291.18008,-0.60444194 L291.45297,-0.586578 L291.72586,-0.569242 L291.99875,-0.55241835 L292.27167,-0.5360919 L292.54456,-0.520248 L292.81744,-0.5048724 L293.09036,-0.48995113 L293.36325,-0.4754709 L293.63614,-0.4614186 L293.90903,-0.44778162 L294.18195,-0.43454766 L294.45483,-0.42170486 L294.72772,-0.4092416 L295.0006,-0.39714667 L295.27353,-0.3854092 L295.54642,-0.37401864 L295.8193,-0.36296472 L296.0922,-0.3522375 L296.3651,-0.3418273 L296.638,-0.3317248 L296.9109,-0.32192084 L297.18378,-0.31240663 L297.4567,-0.30317363 L297.72958,-0.29421347 L298.00247,-0.28551817 L298.27536,-0.27707982 L298.54828,-0.2688909 L298.82117,-0.26094395 L299.09406,-0.25323188 L299.36694,-0.24574776 L299.63986,-0.23848481 L299.91275,-0.23143652 L300.18564,-0.22459655 L300.45853,-0.21795872 L300.73145,-0.21151707 L301.00433,-0.20526579 L301.27722,-0.19919926 L301.5501,-0.19331203 L301.82303,-0.18759881 L302.09592,-0.18205442 L302.3688,-0.1766739 L302.64172,-0.1714524 L302.9146,-0.16638522 L303.1875,-0.16146779 L303.4604,-0.1566957 L303.7333,-0.15206464 L304.0062,-0.14757045 L304.27908,-0.14320908 L304.55197,-0.1389766 L304.8249,-0.13486923 L305.09778,-0.13088325 L305.37067,-0.12701505 L305.64355,-0.1232612 L305.91647,-0.119618274 L306.18936,-0.116083026 L306.46225,-0.11265225 L306.73514,-0.109322876 L307.00806,-0.106091894 L307.28094,-0.10295641 L307.55383,-0.09991358 L307.82672,-0.09696069 L308.09964,-0.09409507 L308.37253,-0.09131414 L308.64542,-0.0886154 L308.9183,-0.08599642 L309.19122,-0.08345484 L309.4641,-0.08098838 L309.737,-0.07859481 L310.0099,-0.07627198 L310.2828,-0.0740178 L310.5557,-0.07183025 L310.82858,-0.06970734 L311.10147,-0.06764718 L311.3744,-0.0656479 L311.64728,-0.06370772 L311.92017,-0.061824866 L312.19308,-0.059997667 L312.46597,-0.058224466 L312.73886,-0.056503672 L313.01175,-0.054833736 L313.28467,-0.053213157 L313.55756,-0.05164047 L313.83044,-0.050114263 L314.10333,-0.048633162 L314.37625,-0.047195837 L314.64914,-0.045800988 L314.92203,-0.044447362 L315.19492,-0.043133747 L315.46783,-0.041858952 L315.74072,-0.040621832 L316.0136,-0.039421275 L316.2865,-0.038256202 L316.55942,-0.037125558 L316.8323,-0.036028333 L317.1052,-0.034963533 L317.37808,-0.033930205 L317.651,-0.032927416 L317.9239,-0.031954266 L318.19678,-0.031009873 L318.46967,-0.030093392 L318.74258,-0.029204 L319.01547,-0.028340891 L319.28836,-0.027503291 L319.56125,-0.026690446 L319.83417,-0.025901623 L320.10706,-0.025136115 L320.37994,-0.02439323 L320.65286,-0.023672301 L320.92575,-0.022972679 L321.19864,-0.022293733 L321.47153,-0.021634854 L321.74445,-0.020995447 L322.01733,-0.020374939 L322.29022,-0.019772768 L322.5631,-0.019188395 L322.83603,-57.900597 L323.10892,-56.189377 L323.3818,-54.52873 L323.6547,-52.91716 L323.9276,-51.35322 L324.2005,-49.835506 L324.4734,-48.362644 L324.74628,-46.93331 L325.0192,-45.546223 L325.29208,-44.20013 L325.56497,-42.893818 L325.83786,-41.626114 L326.11078,-40.395874 L326.38367,-39.201996 L326.65656,-38.043404 L326.92944,-36.919052 L327.20236,-35.827927 L327.47525,-34.769054 L327.74814,-33.74147 L328.02103,-32.74426 L328.29395,-31.776522 L328.56683,-30.837383 L328.83972,-29.926 L329.1126,-29.041553 L329.38553,-28.183247 L329.65842,-27.350306 L329.9313,-26.541983 L330.20422,-25.757547 L330.4771,-24.996298 L330.75,-24.257545 L331.0229,-23.540627 L331.2958,-79.79931 L331.5687,-77.44088 L331.84158,-75.15216 L332.11447,-72.931076 L332.3874,-70.775635 L332.66028,-68.6839 L332.93317,-124.93399 L333.20605,-121.24163 L333.47897,-117.6584 L333.75186,-114.18107 L334.02475,-110.80651 L334.29764,-107.531685 L334.57056,-104.35364 L334.84344,-101.26952 L335.11633,-98.27656 L335.38922,-95.37205 L335.66214,-92.553375 L335.93503,-89.81801 L336.20792,-87.16349 L336.4808,-84.58742 L336.75372,-82.08748 L337.0266,-79.66143 L337.2995,-77.307076 L337.5724,-75.02231 L337.8453,-72.80506 L338.1182,-70.65335 L338.39108,-68.56522 L338.66397,-66.53882 L338.9369,-64.572296 L339.20978,-62.6639 L339.48267,-60.8119 L339.75558,-59.014637 L340.02847,-57.270493 L340.30136,-55.577892 L340.57425,-53.935318 L340.84717,-52.34129 L341.12006,-50.79437 L341.39294,-49.29317 L341.66583,-47.836334 L341.93875,-46.422558 L342.21164,-45.050564 L342.48453,-43.71912 L342.75742,-42.427025 L343.03033,-41.173115 L343.30322,-39.95627 L343.5761,-38.77538 L343.849,-37.629395 L344.12192,-36.517277 L344.3948,-35.43803 L344.6677,-34.39068 L344.94058,-33.37428 L345.2135,-32.38792 L345.4864,-31.430712 L345.75928,-30.501795 L346.03217,-29.60033 L346.30508,-28.725508 L346.57797,-27.876541 L346.85086,-27.052666 L347.12375,-26.253138 L347.39667,-25.47724 L347.66956,-24.724274 L347.94244,-23.99356 L348.21536,-23.284445 L348.48825,-22.596285 L348.76114,-21.928465 L349.03403,-21.28038 L349.30695,-20.65145 L349.57983,-20.041107 L349.85272,-19.448803 L350.1256,-18.874004 L350.39853,-18.316193 L350.67142,-17.774868 L350.9443,-17.24954 L351.2172,-16.73974 L351.4901,-16.245007 L351.763,-15.764894 L352.0359,-15.29897 L352.30878,-14.846817 L352.5817,-14.408028 L352.85458,-13.982206 L353.12747,-13.56897 L353.40036,-13.167946 L353.67328,-12.778774 L353.94617,-12.401104 L354.21906,-12.034596 L354.49194,-11.67892 L354.76486,-11.3337555 L355.03775,-10.998793 L355.31064,-10.673729 L355.58353,-10.358273 L355.85645,-10.052139 L356.12933,-9.755054 L356.40222,-9.466748 L356.6751,-9.186964 L356.94803,-8.915448 L357.22092,-8.651957 L357.4938,-8.396253 L357.76672,-8.148106 L358.0396,-7.9072933 L358.3125,-7.6735973 L358.5854,-7.4468083 L358.8583,-7.226722 L359.1312,-7.0131397 L359.40408,-6.80587 L359.67697,-6.6047263 L359.9499,-6.4095273 L360.22278,-6.220097 L360.49567,-6.0362654 L360.76855,-5.857867 L361.04147,-5.6847405 L361.31436,-5.5167313 L361.58725,-5.3536873 L361.86014,-5.1954618 L362.13306,-5.0419126 L362.40594,-4.892902 L362.67883,-4.7482944 L362.95172,-4.607961 L363.22464,-4.4717755 L363.49753,-4.3396144 L363.77042,-4.2113595 L364.0433,-4.086895 L364.31622,-3.966109 L364.5891,-3.8488927 L364.862,-3.7351408 L365.1349,-3.6247506 L365.4078,-3.5176232 L365.6807,-3.4136617 L365.95358,-3.3127728 L366.22647,-3.2148654 L366.4994,-3.1198518 L366.77228,-3.0276463 L367.04517,-2.938166 L367.31808,-2.8513298 L367.59097,-2.7670603 L367.86386,-2.6852813 L368.13675,-2.6059194 L368.40967,-2.5289028 L368.68256,-2.4541624 L368.95544,-2.381631 L369.22833,-2.311243 L369.50125,-2.2429357 L369.77414,-2.1766467 L370.04703,-2.112317 L370.31992,-2.0498888 L370.59283,-1.9893054 L370.86572,-1.9305125 L371.1386,-1.8734572 L371.4115,-1.8180882 L371.68442,-1.7643555 L371.9573,-1.712211 L372.2302,-1.6616075 L372.50308,-1.6124996 L372.776,-1.564843 L373.0489,-1.518595 L373.32178,-1.4737136 L373.59467,-1.4301589 L373.86758,-1.3878913 L374.14047,-1.3468729 L374.41336,-1.3070668 L374.68625,-1.2684371 L374.95917,-1.2309492 L375.23206,-1.1945691 L375.50494,-1.1592642 L375.77786,-1.1250027 L376.05075,-1.091754 L376.32364,-1.0594877 L376.59653,-1.0281751 L376.86945,-0.99778795 L377.14233,-0.96829885 L377.41522,-0.9396813 L377.6881,-0.9119095 L377.96103,-0.88495857 L378.23392,-0.85880405 L378.5068,-0.83342254 L378.7797,-0.8087912 L379.0526,-0.7848878 L379.3255,-0.76169086 L379.5984,-0.7391795 L379.87128,-0.71733344 L380.1442,-0.696133 L380.41708,-0.6755592 L380.68997,-0.6555934 L380.96286,-0.6362177 L381.23578,-0.6174146 L381.50867,-0.5991673 L381.78156,-0.58145916 L382.05444,-0.5642745 L382.32736,-0.54759765 L382.60025,-0.5314137 L382.87314,-0.515708 L383.14603,-0.5004666 L383.41895,-0.48567554 L383.69183,-0.47132167 L383.96472,-0.457392 L384.2376,-0.44387403 L384.51053,-0.43075556 L384.78342,-0.4180248 L385.0563,-0.40567032 L385.32922,-0.39368093 L385.6021,-0.38204592 L385.875,-0.37075475 L386.1479,-0.3597973 L386.4208,-0.34916368 L386.6937,-0.33884433 L386.96658,-0.32882997 L387.23947,-0.3191116 L387.5124,-0.3096804 L387.78528,-0.30052796 L388.05817,-0.291646 L388.33105,-0.28302658 L388.60397,-0.27466187 L388.87686,-0.2665444 L389.14975,-0.2586668 L389.42264,-57.610203 L389.69556,-55.907562 L389.96844,-54.255245 L390.24133,-52.65176 L390.51422,-51.095665 L390.78714,-49.58556 L391.06003,-48.120087 L391.33292,-46.69792 L391.6058,-45.31779 L391.87872,-43.978447 L392.1516,-42.678688 L392.4245,-41.417343 L392.6974,-98.50885 L392.9703,-95.59747 L393.2432,-92.77214 L393.51608,-147.85242 L393.78897,-143.48271 L394.0619,-139.24216 L394.33478,-193.2879 L394.60767,-245.75137 L394.88058,-238.48833 L395.15347,-231.43993 L395.42636,-224.59985 L395.69925,-217.96191 L395.97217,-211.52017 L396.24506,-205.26881 L396.51794,-199.2022 L396.79083,-193.31488 L397.06375,-187.60156 L397.33664,-182.0571 L397.60953,-233.72072 L397.88242,-226.81322 L398.15533,-220.10988 L398.42822,-213.60464 L398.7011,-207.29167 L398.974,-201.16528 L399.24692,-253.63835 L399.5198,-246.14221 L399.7927,-238.86761 L400.06558,-289.21628 L400.3385,-280.66864 L400.6114,-272.37363 L400.88428,-264.3238 L401.15717,-256.51184 L401.43008,-248.93077 L401.70297,-241.57375 L401.97586,-291.73315 L402.24875,-340 L402.52167,-329.95148 L402.79456,-320.19995 L403.06744,-310.7366 L403.34036,-301.55295 L403.61325,-292.64072 L403.88614,-283.99188 L404.15903,-275.59863 L404.43195,-267.45346 L404.70483,-259.54904 L404.97772,-251.87819 L405.2506,-244.43407 L405.52353,-237.20995 L405.79642,-230.19934 L406.0693,-223.39592 L406.3422,-216.79358 L406.6151,-210.38635 L406.888,-204.1685 L407.1609,-198.1344 L407.43378,-192.27866 L407.7067,-244.69583 L407.97958,-237.46397 L408.25247,-230.44585 L408.52536,-223.63515 L408.79828,-217.02573 L409.07117,-210.61165 L409.34406,-204.38713 L409.61694,-198.34659 L409.88986,-192.48456 L410.16275,-186.79578 L410.43564,-181.27513 L410.70853,-175.91763 L410.98145,-170.71849 L411.25433,-224.05261 L411.52722,-217.43086 L411.8001,-211.0048 L412.07303,-204.76868 L412.34592,-198.71684 L412.6188,-192.84387 L412.89172,-187.14447 L413.1646,-181.61353 L413.4375,-176.24603 L413.7104,-171.03717 L413.9833,-165.98225 L414.2562,-161.07674 L414.52908,-156.31621 L414.80197,-151.69637 L415.0749,-147.21306 L415.34778,-142.86226 L415.62067,-138.64003 L415.89355,-134.5426 L416.16647,-130.56627 L416.43936,-126.70745 L416.71225,-122.962685 L416.98514,-119.32858 L417.25806,-115.801895 L417.53094,-112.37943 L417.80383,-109.05811 L418.07672,-105.83496 L418.34964,-102.70707 L418.62253,-99.671616 L418.89542,-96.72587 L419.1683,-93.86719 L419.44122,-91.092995 L419.7141,-88.40079 L419.987,-85.788155 L420.2599,-83.25273 L420.5328,-80.79224 L420.8057,-78.404465 L421.07858,-76.087265 L421.3515,-73.83855 L421.6244,-71.65629 L421.89728,-127.49129 L422.17017,-123.72335 L422.44308,-120.06677 L422.71597,-116.518265 L422.98886,-113.07463 L423.26175,-109.732765 L423.53467,-106.48968 L423.80756,-161.34068 L424.08044,-156.57234 L424.35333,-151.94493 L424.62625,-205.54129 L424.89914,-199.46661 L425.17203,-193.57149 L425.44492,-187.85059 L425.71783,-182.29877 L425.99072,-176.91103 L426.2636,-171.68251 L426.5365,-166.60852 L426.80942,-161.6845 L427.0823,-156.906 L427.3552,-152.26872 L427.62808,-147.76851 L427.901,-143.40129 L428.1739,-139.16313 L428.44678,-135.05025 L428.71967,-131.05891 L428.99258,-127.18553 L429.26547,-123.42663 L429.53836,-119.778824 L429.81125,-116.23882 L430.08417,-112.80345 L430.35706,-109.469604 L430.62994,-106.23428 L430.90286,-103.09459 L431.17575,-100.04768 L431.44864,-97.09083 L431.72153,-94.22136 L431.99445,-91.4367 L432.26733,-88.73434 L432.54022,-86.11184 L432.8131,-83.56685 L433.08603,-81.09708 L433.35892,-78.700294 L433.6318,-76.37435 L433.9047,-74.11715 L434.1776,-71.92665 L434.4505,-69.8009 L434.7234,-67.73797 L434.99628,-65.736015 L435.2692,-63.79322 L435.54208,-61.907845 L435.81497,-60.07819 L436.08786,-58.302612 L436.36078,-56.57951 L436.63367,-54.907333 L436.90656,-53.284576 L437.17944,-51.709778 L437.45236,-50.181522 L437.72525,-48.698437 L437.99814,-47.25918 L438.27103,-45.86246 L438.54395,-44.50702 L438.81683,-43.19164 L439.08972,-41.91513 L439.3626,-40.676353 L439.63553,-39.474186 L439.90842,-38.307545 L440.1813,-37.17539 L440.45422,-36.076687 L440.7271,-35.01046 L441,-33.975746 L441.2729,-32.97161 L441.5458,-31.997152 L441.8187,-31.051493 L442.09158,-30.133783 L442.36447,-29.243195 L442.6374,-28.37893 L442.91028,-27.540205 L443.18317,-26.726269 L443.45605,-25.936388 L443.72897,-25.169851 L444.00186,-24.42597 L444.27475,-23.704073 L444.54764,-23.003511 L444.82056,-22.323656 L445.09344,-21.663893 L445.36633,-21.023626 L445.63922,-20.402285 L445.91214,-19.799307 L446.18503,-19.214148 L446.45792,-18.646284 L446.7308,-18.095203 L447.00372,-17.56041 L447.2766,-17.04142 L447.5495,-16.537771 L447.8224,-16.049006 L448.0953,-15.574686 L448.3682,-15.114385 L448.64108,-14.667686 L448.914,-14.234191 L449.1869,-13.813507 L449.45978,-13.405256 L449.73267,-13.009071 L450.00558,-12.624595 L450.27847,-12.251482 L450.55136,-11.889396 L450.82425,-11.538012 L451.09717,-11.197011 L451.37006,-10.86609 L451.64294,-10.544949 L451.91583,-10.233298 L452.18875,-9.930859 L452.46164,-9.637357 L452.73453,-9.3525305 L453.00742,-9.076121 L453.28033,-8.807881 L453.55322,-8.547569 L453.8261,-8.2949505 L454.099,-8.049797 L454.37192,-7.8118896 L454.6448,-7.5810137 L454.9177,-7.356961 L455.19058,-7.1395297 L455.4635,-6.9285245 L455.7364,-6.723756 L456.00928,-6.5250387 L456.28217,-6.332195 L456.55508,-63.386578 L456.82797,-61.51322 L457.10086,-59.69523 L457.37375,-57.93097 L457.64667,-113.977 L457.91956,-110.60847 L458.19244,-107.33949 L458.46536,-104.16714 L458.73825,-101.08853 L459.01114,-98.100914 L459.28403,-95.20159 L459.55695,-92.38796 L459.82983,-89.657486 L460.10272,-87.007706 L460.3756,-84.43624 L460.64853,-81.94077 L460.92142,-79.51905 L461.1943,-77.16891 L461.4672,-132.62814 L461.7401,-128.70839 L462.013,-124.90448 L462.2859,-121.213 L462.55878,-117.63061 L462.8317,-114.1541 L463.10458,-110.780334 L463.37747,-107.50628 L463.65036,-104.32899 L463.92328,-101.245605 L464.19617,-98.25334 L464.46906,-95.34952 L464.74194,-92.53152 L465.01486,-89.79679 L465.28775,-87.1429 L465.56064,-84.56744 L465.83353,-82.06809 L466.10645,-79.64261 L466.37933,-77.28882 L466.65222,-75.004585 L466.9251,-72.787865 L467.19803,-70.63666 L467.47092,-68.549034 L467.7438,-66.5231 L468.01672,-64.557045 L468.2896,-62.649097 L468.5625,-60.79754 L468.8354,-59.000698 L469.1083,-57.256966 L469.3812,-55.564766 L469.65408,-53.922577 L469.92697,-52.328926 L470.1999,-50.78237 L470.47278,-49.281525 L470.74567,-47.825035 L471.01855,-46.411594 L471.29147,-45.039925 L471.56436,-43.708794 L471.83725,-42.417004 L472.11014,-41.16339 L472.38306,-39.946827 L472.65594,-38.76622 L472.92883,-37.620506 L473.20172,-36.50865 L473.47464,-92.50486 L473.74753,-89.77093 L474.02042,-87.1178 L474.2933,-84.543076 L474.56622,-82.04445 L474.8391,-79.619675 L475.112,-77.266556 L475.3849,-74.98299 L475.6578,-72.7669 L475.9307,-70.61632 L476.20358,-68.52929 L476.4765,-66.50394 L476.7494,-64.53845 L477.02228,-62.63105 L477.29517,-60.780025 L477.56808,-58.983704 L477.84097,-57.24047 L478.11386,-55.54876 L478.38675,-53.907047 L478.65967,-52.31385 L478.93256,-50.767742 L479.20544,-49.26733 L479.47833,-47.81126 L479.75125,-46.398224 L480.02414,-45.02695 L480.29703,-43.6962 L480.56992,-42.404785 L480.84283,-41.151535 L481.11572,-39.93532 L481.3886,-38.755054 L481.6615,-37.60967 L481.93442,-36.498135 L482.2073,-35.419453 L482.4802,-34.37265 L482.75308,-33.356785 L483.026,-32.37094 L483.2989,-31.414236 L483.57178,-30.485806 L483.84467,-29.584814 L484.11758,-28.710451 L484.39047,-27.861929 L484.66336,-27.038485 L484.93625,-26.239376 L485.20917,-25.463886 L485.48206,-24.711313 L485.75494,-23.980984 L486.02786,-23.27224 L486.30075,-22.58444 L486.57364,-21.91697 L486.84653,-21.269224 L487.11945,-20.640625 L487.39233,-20.030602 L487.66522,-19.438608 L487.9381,-18.86411 L488.21103,-18.306591 L488.48392,-17.76555 L488.7568,-17.2405 L489.0297,-16.730965 L489.3026,-16.23649 L489.5755,-15.756629 L489.8484,-15.290951 L490.12128,-14.839035 L490.3942,-14.400475 L490.66708,-13.974876 L490.93997,-13.561856 L491.21286,-13.161043 L491.48578,-12.772076 L491.75867,-12.394604 L492.03156,-12.028288 L492.30444,-11.672798 L492.57736,-11.327815 L492.85025,-10.993028 L493.12314,-10.668135 L493.39603,-10.352843 L493.66895,-10.04687 L493.94183,-9.749941 L494.21472,-9.461786 L494.4876,-9.182148 L494.76053,-8.910775 L495.03342,-8.647422 L495.3063,-8.391851 L495.57922,-8.143835 L495.8521,-7.903148 L496.125,-7.6695747 L496.3979,-7.442905 L496.6708,-7.222934 L496.9437,-7.009464 L497.21658,-6.802303 L497.48947,-6.6012645 L497.7624,-6.4061675 L498.03528,-6.2168365 L498.30817,-6.033101 L498.58105,-5.8547964 L498.85397,-5.681761 L499.12686,-5.5138392 L499.39975,-5.3508806 L499.67264,-5.1927385 L499.94556,-5.03927 L500.21844,-4.890337 L500.49133,-4.7458057 L500.76422,-4.605546 L501.03714,-4.4694314 L501.31003,-4.33734 L501.58292,-4.2091517 L501.8558,-4.0847526 L502.12872,-3.96403 L502.4016,-3.8468752 L502.6745,-3.733183 L502.9474,-3.6228507 L503.2203,-3.5157793 L503.4932,-3.4118724 L503.76608,-3.311036 L504.039,-3.2131803 L504.3119,-3.1182165 L504.58478,-3.0260592 L504.85767,-2.9366257 L505.13058,-2.8498352 L505.40347,-2.76561 L505.67636,-2.683874 L505.94925,-61.06965 L506.22217,-59.264767 L506.49506,-57.51323 L506.76794,-55.813457 L507.04083,-54.16392 L507.31375,-52.563133 L507.58664,-108.31929 L507.85953,-105.11797 L508.13242,-102.01126 L508.40533,-98.996376 L508.67822,-96.07059 L508.9511,-93.23128 L509.224,-90.475876 L509.49692,-87.80191 L509.7698,-85.20697 L510.0427,-82.68872 L510.31558,-80.2449 L510.5885,-77.87331 L510.8614,-75.5718 L511.13428,-73.33832 L511.40717,-71.170845 L511.68008,-69.06743 L511.95297,-67.02618 L512.2259,-65.04526 L512.4988,-63.122875 L512.77167,-61.257313 L513.04456,-59.446884 L513.31744,-57.689964 L513.59033,-55.98497 L513.8632,-54.330364 L514.13617,-52.72466 L514.40906,-51.16641 L514.68195,-49.654213 L514.95483,-48.18671 L515.2277,-46.762577 L515.5006,-45.380535 L515.7735,-44.039337 L516.0464,-42.737778 L516.31934,-41.474686 L516.5922,-40.248924 L516.8651,-39.059387 L517.138,-37.905006 L517.4109,-36.784744 L517.6838,-35.697594 L517.95667,-34.64257 L518.22955,-33.618725 L518.5025,-32.62514 L518.7754,-31.660925 L519.0483,-30.725203 L519.32117,-29.817135 L519.59406,-28.935905 L519.86694,-28.08072 L520.13983,-27.25081 L520.4127,-26.445427 L520.68567,-25.663847 L520.95856,-24.905365 L521.23145,-24.1693 L521.50433,-23.454988 L521.7772,-22.76179 L522.0501,-22.089077 L522.323,-21.436247 L522.59595,-20.80271 L522.86884,-20.187897 L523.1417,-19.591253 L523.4146,-19.012245 L523.6875,-18.450348 L523.9604,-17.905058 L524.2333,-17.375883 L524.50616,-16.862349 L524.7791,-16.36399 L525.052,-15.880362 L525.3249,-15.411026 L525.5978,-14.955562 L525.87067,-14.513557 L526.14355,-14.084618 L526.41644,-13.668354 L526.68933,-13.264393 L526.9623,-12.872371 L527.23517,-12.491935 L527.50806,-12.122743 L527.78094,-11.7644615 L528.05383,-11.416769 L528.3267,-11.079352 L528.5996,-10.751908 L528.8725,-68.10886 L529.14545,-66.09593 L529.41833,-64.1425 L529.6912,-62.246807 L529.9641,-60.407135 L530.237,-58.621834 L530.5099,-56.889297 L530.7828,-55.207966 L531.05566,-53.576324 L531.3286,-51.992905 L531.6015,-50.45628 L531.8744,-48.965073 L532.1473,-47.517937 L532.42017,-46.113567 L532.69305,-44.750706 L532.96594,-43.428123 L533.2389,-42.144627 L533.5118,-40.899067 L533.78467,-39.690315 L534.05756,-38.51729 L534.33044,-37.378933 L534.60333,-36.27422 L534.8762,-35.202152 L535.1491,-34.16177 L535.42206,-33.152138 L535.69495,-32.172344 L535.96783,-31.221508 L536.2407,-30.298773 L536.5136,-29.403309 L536.7865,-28.53431 L537.0594,-27.690994 L537.3323,-26.8726 L537.6052,-26.078396 L537.8781,-25.307663 L538.151,-24.559708 L538.4239,-23.833858 L538.6968,-23.129463 L538.96967,-22.445883 L539.24255,-21.782507 L539.51544,-21.138737 L539.7884,-20.513992 L540.0613,-19.907713 L540.33417,-19.319351 L540.60706,-18.748379 L540.87994,-18.194279 L541.15283,-17.656557 L541.4257,-17.134727 L541.69867,-16.628319 L541.97156,-16.136879 L542.24445,-15.659962 L542.51733,-15.19714 L542.7902,-14.747996 L543.0631,-14.312127 L543.336,-13.88914 L543.6089,-13.478654 L543.88184,-13.080299 L544.1547,-12.693718 L544.4276,-12.318562 L544.7005,-11.9544935 L544.9734,-11.601185 L545.2463,-11.258318 L545.51917,-10.925585 L545.79205,-10.602685 L546.065,-10.289328 L546.3379,-9.985232 L546.6108,-9.6901245 L546.88367,-9.403738 L547.15656,-9.125815 L547.42944,-8.856107 L547.70233,-8.594369 L547.9752,-8.340367 L548.24817,-8.093872 L548.52106,-7.854662 L548.79395,-7.6225214 L549.06683,-7.397242 L549.3397,-7.1786203 L549.6126,-6.96646 L549.8855,-6.76057 L550.15845,-6.5607653 L550.43134,-6.366865 L550.7042,-6.1786957 L550.9771,-5.996088 L551.25,-5.8188767 L551.5229,-5.646903 L551.7958,-5.4800115 L552.06866,-5.318053 L552.3416,-5.1608806 L552.6145,-5.0083537 L552.8874,-4.8603344 L553.1603,-4.7166896 L553.43317,-4.5772905 L553.70605,-4.4420114 L553.97894,-61.13122 L554.25183,-59.32452 L554.5248,-57.571217 L554.79767,-55.869728 L555.07056,-54.21853 L555.34344,-52.61613 L555.61633,-51.06109 L555.8892,-49.552006 L556.1621,-48.08752 L556.435,-46.66632 L556.70795,-45.28712 L556.98083,-43.948685 L557.2537,-42.649807 L557.5266,-41.389313 L557.7995,-40.166073 L558.0724,-38.97899 L558.3453,-37.826984 L558.61816,-36.709026 L558.8911,-35.62411 L559.164,-34.57126 L559.4369,-33.549526 L559.7098,-32.557987 L559.98267,-31.595753 L560.25555,-30.661957 L560.52844,-29.75576 L560.8014,-28.876345 L561.0743,-28.022919 L561.34717,-27.194717 L561.62006,-26.390991 L561.89294,-25.61102 L562.16583,-24.8541 L562.4387,-24.11955 L562.7116,-23.40671 L562.98456,-22.714937 L563.25745,-22.04361 L563.53033,-21.392122 L563.8032,-20.75989 L564.0761,-20.146341 L564.349,-19.550926 L564.6219,-18.97311 L564.8948,-18.41237 L565.1677,-17.868202 L565.4406,-17.340117 L565.7135,-16.827639 L565.9864,-16.330307 L566.2593,-15.847673 L566.53217,-15.379304 L566.80505,-14.924777 L567.07794,-14.483683 L567.3509,-14.055626 L567.6238,-13.640219 L567.89667,-13.237089 L568.16956,-12.845875 L568.44244,-12.466222 L568.71533,-12.097789 L568.9882,-11.740245 L569.26117,-11.393269 L569.53406,-11.056546 L569.80695,-10.729776 L570.07983,-10.412663 L570.3527,-10.104922 L570.6256,-9.806277 L570.8985,-67.65029 L571.1714,-65.650925 L571.44434,-63.710648 L571.7172,-61.827713 L571.9901,-60.00043 L572.263,-58.22715 L572.5359,-114.81949 L572.8088,-111.426056 L573.08167,-108.13292 L573.35455,-104.93711 L573.6275,-101.835754 L573.9004,-98.82605 L574.1733,-95.9053 L574.44617,-93.07087 L574.71906,-90.320206 L574.99194,-87.65084 L575.26483,-85.06037 L575.5377,-82.546455 L575.81067,-80.10684 L576.08356,-77.73933 L576.35645,-75.44178 L576.62933,-73.212135 L576.9022,-71.04839 L577.1751,-68.94859 L577.448,-66.91086 L577.72095,-64.93334 L577.99384,-63.01427 L578.2667,-61.151917 L578.5396,-59.344604 L578.8125,-57.590706 L579.0854,-55.888645 L579.3583,-54.236885 L579.63116,-52.633945 L579.9041,-51.078377 L580.177,-49.568783 L580.4499,-48.1038 L580.7228,-46.68212 L580.99567,-45.302456 L581.26855,-43.963566 L581.54144,-42.664246 L581.81433,-41.403328 L582.0873,-98.446625 L582.36017,-95.53709 L582.63306,-92.71354 L582.90594,-89.97344 L583.17883,-87.31432 L583.4517,-84.733795 L583.7246,-82.22954 L583.9975,-79.799286 L584.27045,-77.44086 L584.54333,-75.15214 L584.8162,-72.93105 L585.0891,-70.77562 L585.362,-68.68388 L585.6349,-66.65397 L585.9078,-64.684044 L586.1807,-62.772343 L586.4536,-60.917137 L586.7265,-59.116764 L586.9994,-57.3696 L587.2723,-55.674072 L587.54517,-54.028656 L587.81805,-52.431866 L588.09094,-50.88227 L588.3639,-49.37847 L588.6368,-47.919117 L588.90967,-46.502895 L589.18256,-45.128525 L589.45544,-43.794777 L589.72833,-42.500446 L590.0012,-41.244366 L590.2741,-40.025414 L590.54706,-38.842484 L590.81995,-37.69451 L591.09283,-36.58047 L591.3657,-35.499355 L591.6386,-34.45019 L591.9115,-33.432034 L592.1844,-32.44397 L592.4573,-31.485104 L592.7302,-30.554579 L593.0031,-29.651554 L593.276,-28.775219 L593.5489,-27.924782 L593.8218,-27.09948 L594.09467,-26.298569 L594.36755,-25.52133 L594.64044,-24.76706 L594.9134,-81.21526 L595.1863,-78.814995 L595.45917,-76.48566 L595.73206,-74.22517 L596.00494,-72.03148 L596.27783,-69.902626 L596.5507,-67.83669 L596.82367,-65.83182 L597.09656,-63.886192 L597.36945,-61.99807 L597.64233,-60.16575 L597.9152,-58.38758 L598.1881,-56.66197 L598.461,-54.987354 L598.7339,-53.362232 L599.00684,-51.78514 L599.2797,-50.254658 L599.5526,-48.76941 L599.8255,-47.328053 L600.0984,-45.9293 L600.3713,-44.571884 L600.64417,-43.254585 L600.91705,-41.97622 L601.19,-40.735634 L601.4629,-39.531715 L601.7358,-38.363377 L602.00867,-37.229565 L602.28156,-36.129265 L602.55444,-35.061485 L602.82733,-34.02526 L603.1002,-33.01966 L603.37317,-32.043785 L603.64606,-31.096746 L603.91895,-30.1777 L604.19183,-29.285814 L604.4647,-28.420288 L604.7376,-27.580341 L605.0105,-26.765219 L605.28345,-25.974186 L605.55634,-25.206533 L605.8292,-24.461567 L606.1021,-23.738619 L606.375,-23.037037 L606.6479,-22.35619 L606.9208,-21.695465 L607.19366,-21.054266 L607.4666,-20.432018 L607.7395,-19.828161 L608.0124,-19.242151 L608.2853,-18.67346 L608.55817,-18.121574 L608.83105,-17.586002 L609.10394,-17.066257 L609.37683,-16.561872 L609.6498,-16.072395 L609.92267,-15.597384 L610.19556,-15.136412 L610.46844,-14.689063 L610.74133,-14.254936 L611.0142,-13.833639 L611.2871,-13.424793 L611.56,-13.02803 L611.83295,-12.642994 L612.10583,-12.269337 L612.3787,-11.906723 L612.6516,-11.554827 L612.9245,-11.213329 L613.1974,-10.881926 L613.4703,-10.560316 L613.7432,-10.248212 L614.0161,-9.945332 L614.289,-9.651402 L614.5619,-9.36616 L614.8348,-9.089349 L615.10767,-8.820718 L615.38055,-8.560026 L615.65344,-8.307039 L615.9264,-8.061529 L616.1993,-7.8232746 L616.47217,-7.592062 L616.74506,-7.3676825 L617.01794,-7.149935 L617.29083,-6.938622 L617.5637,-6.733555 L617.8366,-6.5345483 L618.10956,-6.341423 L618.38245,-6.154006 L618.65533,-5.9721274 L618.9282,-5.7956243 L619.2011,-5.6243377 L619.474,-5.4581137 L619.7469,-5.296802 L620.0198,-5.140258 L620.2927,-4.9883404 L620.5656,-4.8409123 L620.8385,-4.6978416 L621.1114,-4.5589995 L621.3843,-4.424261 L621.65717,-4.293504 L621.93005,-4.166612 L622.20294,-4.04347 L622.4759,-3.9239674 L622.7488,-3.8079965 L623.02167,-3.6954534 L623.29456,-3.5862362 L623.56744,-3.4802468 L623.84033,-3.37739 L624.1132,-61.190525 L624.38617,-59.382072 L624.65906,-57.627068 L624.93195,-55.92393 L625.20483,-54.27113 L625.4777,-52.667175 L625.7506,-109.436134 L626.0235,-106.201805 L626.2964,-103.06307 L626.56934,-100.0171 L626.8422,-97.06114 L627.1151,-94.19255 L627.388,-91.408745 L627.6609,-88.70721 L627.9338,-86.08551 L628.20667,-83.5413 L628.47955,-81.07228 L628.7525,-78.67623 L629.0254,-76.351 L629.2983,-74.09449 L629.57117,-71.90466 L629.84406,-69.77956 L630.11694,-67.71726 L630.38983,-65.71591 L630.6627,-63.773716 L630.93567,-61.888916 L631.20856,-60.059822 L631.48145,-58.284786 L631.75433,-56.56221 L632.0272,-54.890545 L632.3001,-53.268284 L632.573,-51.69397 L632.84595,-50.16618 L633.11884,-48.683548 L633.3917,-47.24473 L633.6646,-45.84844 L633.9375,-44.493412 L634.2104,-43.178432 L634.4833,-41.902317 L634.75616,-40.663918 L635.0291,-39.462116 L635.302,-38.295834 L635.5749,-37.16402 L635.8478,-93.34393 L636.12067,-90.585205 L636.39355,-87.90801 L636.66644,-85.30994 L636.93933,-82.78864 L637.2123,-80.34187 L637.48517,-77.96741 L637.75806,-75.663124 L638.03094,-73.42694 L638.30383,-128.36818 L638.5767,-124.57432 L638.8496,-120.89259 L639.1225,-117.31968 L639.39545,-113.852356 L639.66833,-110.48751 L639.9412,-107.22211 L640.2141,-104.053215 L640.487,-100.97798 L640.7599,-97.99363 L641.0328,-95.09748 L641.3057,-92.28693 L641.5786,-89.55943 L641.8515,-144.91942 L642.1244,-140.6364 L642.3973,-136.47997 L642.67017,-189.52904 L642.94305,-183.9276 L643.21594,-178.49171 L643.4889,-173.21649 L643.7618,-168.09717 L644.03467,-163.12915 L644.30756,-216.06296 L644.58044,-209.67734 L644.85333,-203.48044 L645.1262,-197.46667 L645.3991,-191.63066 L645.67206,-243.67262 L645.94495,-236.47101 L646.21783,-229.48224 L646.4907,-222.70001 L646.7636,-216.11823 L647.0365,-209.73097 L647.3094,-203.53249 L647.5823,-254.8135 L647.8552,-247.28264 L648.1281,-296.95444 L648.401,-288.1781 L648.6739,-337.3875 L648.9468,-327.4162 L649.21967,-317.7396 L649.49255,-308.34897 L649.76544,-299.23587 L650.0384,-290.39212 L650.3113,-281.80975 L650.58417,-273.481 L650.85706,-265.3984 L651.12994,-257.55472 L651.40283,-249.94281 L651.6757,-242.5559 L651.94867,-235.38728 L652.22156,-228.43054 L652.49445,-221.6794 L652.76733,-273.4646 L653.0402,-265.38248 L653.3131,-257.53925 L653.586,-249.92781 L653.8589,-242.54134 L654.13184,-235.37315 L654.4047,-228.41682 L654.6776,-221.66609 L654.9505,-215.11487 L655.2234,-208.75726 L655.4963,-202.58755 L655.76917,-196.60019 L656.04205,-190.78976 L656.315,-185.15108 L656.5879,-179.67903 L656.8608,-174.36871 L657.13367,-169.21535 L657.40656,-164.21428 L657.67944,-159.36101 L657.95233,-154.65118 L658.2252,-150.08055 L658.49817,-145.645 L658.77106,-199.74402 L659.04395,-193.8407 L659.31683,-188.11183 L659.5897,-182.55229 L659.8626,-177.15706 L660.1355,-171.92128 L660.40845,-166.84023 L660.68134,-161.90936 L660.9542,-157.1242 L661.2271,-210.16566 L661.5,-203.95433 L661.7729,-197.92657 L662.0458,-192.07695 L662.31866,-186.40022 L662.5916,-180.89127 L662.8645,-175.54512 L663.1374,-170.35698 L663.4103,-165.32217 L663.68317,-160.43616 L663.95605,-155.69455 L664.22894,-151.09308 L664.50183,-146.62761 L664.7748,-142.29411 L665.04767,-138.08868 L665.32056,-134.00754 L665.59344,-130.04703 L665.86633,-126.20355 L666.1392,-122.47367 L666.4121,-118.85403 L666.685,-115.34136 L666.95795,-111.93251 L667.23083,-108.624405 L667.5037,-105.41407 L667.7766,-102.298615 L668.0495,-99.27523 L668.3224,-96.3412 L668.5953,-93.49389 L668.8682,-90.73073 L669.1411,-88.04923 L669.414,-85.44698 L669.6869,-82.921646 L669.9598,-80.47094 L670.23267,-78.09266 L670.50555,-75.784676 L670.77844,-73.5449 L671.0514,-71.37132 L671.3243,-69.26198 L671.59717,-67.21497 L671.87006,-65.22848 L672.14294,-63.300682 L672.41583,-61.429863 L672.6887,-59.614338 L672.9616,-57.852467 L673.23456,-56.14267 L673.50745,-54.483402 L673.78033,-52.873173 L674.0532,-51.310535 L674.3261,-49.79408 L674.599,-48.32244 L674.8719,-46.8943 L675.1448,-45.50836 L675.4177,-44.163387 L675.6906,-42.858162 L675.9635,-41.59151 L676.2364,-40.362297 L676.5093,-39.16941 L676.78217,-38.01178 L677.05505,-36.888363 L677.32794,-35.798145 L677.6009,-34.74015 L677.8738,-33.713425 L678.14667,-32.71704 L678.41956,-31.750107 L678.69244,-30.81175 L678.96533,-29.901125 L679.2382,-29.017412 L679.51117,-28.159819 L679.78406,-27.32757 L680.05695,-26.519918 L680.32983,-25.736137 L680.6027,-24.97552 L680.8756,-24.237381 L681.1485,-23.521057 L681.4214,-22.825905 L681.69434,-22.151299 L681.9672,-21.496628 L682.2401,-20.861307 L682.513,-20.244762 L682.7859,-19.646439 L683.0588,-19.0658 L683.33167,-18.50232 L683.60455,-17.955494 L683.8775,-17.424828 L684.1504,-16.909847 L684.4233,-16.410086 L684.69617,-15.925094 L684.96906,-15.454436 L685.24194,-14.997688 L685.51483,-14.55444 L685.7877,-14.124291 L686.06067,-13.706856 L686.33356,-13.301757 L686.60645,-12.90863 L686.87933,-12.5271225 L687.1522,-12.15689 L687.4251,-11.7976 L687.698,-11.448928 L687.97095,-11.110561 L688.24384,-10.782194 L688.5167,-10.463532 L688.7896,-10.154288 L689.0625,-9.854183 L689.3354,-9.562948 L689.6083,-9.28032 L689.88116,-9.006045 L690.1541,-8.739877 L690.427,-8.481574 L690.6999,-8.230906 L690.9728,-7.987646 L691.24567,-7.7515755 L691.51855,-7.522482 L691.79144,-7.300159 L692.06433,-7.0844064 L692.3373,-6.8750305 L692.61017,-6.6718426 L692.88306,-6.47466 L693.15594,-6.2833047 L693.42883,-6.097605 L693.7017,-5.9173937 L693.9746,-5.7425084 L694.2475,-5.5727916 L694.52045,-5.4080906 L694.79333,-5.248257 L695.0662,-5.0931478 L695.3391,-4.9426227 L695.612,-4.796546 L695.8849,-4.6547866 L696.1578,-4.517217 L696.4307,-4.3837132 L696.7036,-4.2541547 L696.9765,-4.1284256 L697.2494,-4.006412 L697.5223,-61.47 L697.79517,-59.65329 L698.06805,-57.890266 L698.34094,-56.17935 L698.6139,-54.519 L698.8868,-52.90772 L699.15967,-51.344063 L699.43256,-49.826614 L699.70544,-48.354015 L699.97833,-46.92494 L700.2512,-45.538097 L700.5241,-44.19224 L700.79706,-42.886166 L701.06995,-41.618687 L701.34283,-40.388668 L701.6157,-39.195004 L701.8886,-38.036617 L702.1615,-36.912464 L702.4344,-35.821537 L702.7073,-34.762848 L702.9802,-33.73545 L703.2531,-32.73842 L703.526,-31.770853 L703.7989,-30.831882 L704.0718,-29.920662 L704.34467,-29.036373 L704.61755,-28.178219 L704.89044,-27.345427 L705.1634,-26.537247 L705.4363,-25.752953 L705.70917,-24.991838 L705.98206,-24.253218 L706.25494,-23.536427 L706.52783,-22.84082 L706.8007,-22.165771 L707.07367,-21.510674 L707.34656,-20.874937 L707.61945,-20.25799 L707.89233,-19.659275 L708.1652,-19.078257 L708.4381,-18.514408 L708.711,-17.967226 L708.9839,-17.436213 L709.25684,-16.920895 L709.5297,-16.420807 L709.8026,-15.935499 L710.0755,-15.464534 L710.3484,-15.007488 L710.6213,-14.56395 L710.89417,-14.13352 L711.16705,-13.715811 L711.44,-13.310448 L711.7129,-12.917065 L711.9858,-12.535308 L712.25867,-12.164833 L712.53156,-11.805308 L712.80444,-11.4564085 L713.07733,-11.117821 L713.3502,-10.789239 L713.62317,-10.470369 L713.89606,-10.160923 L714.16895,-9.860622 L714.44183,-9.569197 L714.7147,-9.286385 L714.9876,-9.01193 L715.2605,-8.745587 L715.53345,-8.487116 L715.80634,-8.236284 L716.0792,-7.992865 L716.3521,-7.75664 L716.625,-7.5273967 L716.8979,-7.304929 L717.1708,-7.0890355 L717.44366,-6.879523 L717.7166,-6.6762023 L717.9895,-6.4788904 L718.2624,-6.2874103 L718.5353,-6.101589 L718.80817,-5.92126 L719.08105,-5.74626 L719.35394,-5.5764327 L719.62683,-5.4116244 L719.8998,-5.2516866 L720.17267,-5.0964756 L720.44556,-4.9458523 L720.71844,-4.79968 L720.99133,-4.6578283 L721.2642,-4.5201683 L721.5371,-4.386577 L721.81,-4.256934 L722.08295,-4.131123 L722.35583,-4.00903 L722.6287,-3.8905451 L722.9016,-3.775562 L723.1745,-3.6639774 L723.4474,-3.5556905 L723.7203,-3.450604 L723.9932,-3.3486233 L724.2661,-3.2496564 L724.539,-3.1536145 L724.8119,-3.0604112 L725.0848,-2.9699624 L725.35767,-2.8821867 L725.63055,-2.7970052 L725.90344,-2.7143412 L726.1764,-2.6341202 L726.4493,-2.5562704 L726.72217,-2.480721 L726.99506,-2.4074047 L727.26794,-2.336255 L727.54083,-2.2672083 L727.8137,-2.2002022 L728.0866,-2.1351764 L728.35956,-2.0720725 L728.63245,-2.0108335 L728.90533,-1.9514043 L729.1782,-1.8937316 L729.4511,-1.8377634 L729.724,-1.7834493 L729.9969,-1.7307403 L730.2698,-1.6795893 L730.5427,-1.6299499 L730.8156,-1.5817776 L731.0885,-1.535029 L731.3614,-1.489662 L731.6343,-1.4456359 L731.90717,-1.4029108 L732.18005,-1.3614486 L732.45294,-1.3212117 L732.7259,-1.282164 L732.9988,-1.2442703 L733.27167,-1.2074965 L733.54456,-1.1718097 L733.81744,-1.1371775 L734.09033,-1.1035688 L734.3632,-1.0709534 L734.63617,-1.039302 L734.90906,-1.0085859 L735.18195,-0.9787777 L735.45483,-0.94985044 L735.7277,-0.92177814 L736.0006,-0.8945355 L736.2735,-0.86809796 L736.5464,-0.8424418 L736.81934,-0.81754386 L737.0922,-0.7933818 L737.3651,-0.7699338 L737.638,-0.74717885 L737.9109,-0.72509634 L738.1838,-0.7036665 L738.45667,-0.68287003 L738.72955,-0.6626882 L739.0025,-0.64310277 L739.2754,-0.6240962 L739.5483,-0.6056514 L739.82117,-0.5877517 L740.09406,-0.570381 L740.36694,-0.5535237 L740.63983,-0.53716457 L740.9127,-0.521289 L741.18567,-0.50588256 L741.45856,-0.49093148 L741.73145,-0.47642225 L742.00433,-0.46234185 L742.2772,-0.44867757 L742.5501,-57.6031 L742.823,-55.900673 L743.09595,-54.248558 L743.36884,-52.64527 L743.6417,-108.893616 L743.9146,-105.67532 L744.1875,-102.55215 L744.4604,-99.52127 L744.7333,-96.57997 L745.00616,-93.7256 L745.2791,-90.95559 L745.552,-88.26745 L745.8249,-85.65875 L746.0978,-83.12715 L746.37067,-80.67037 L746.64355,-78.2862 L746.91644,-133.23096 L747.18933,-129.2934 L747.4623,-125.4722 L747.73517,-121.76393 L748.00806,-118.16526 L748.28094,-114.67295 L748.55383,-111.28385 L748.8267,-107.99492 L749.0996,-104.803185 L749.3725,-101.70579 L749.64545,-98.69993 L749.91833,-95.7829 L750.1912,-92.95209 L750.4641,-90.20494 L750.737,-87.53898 L751.0099,-84.95181 L751.2828,-82.44111 L751.5557,-80.0046 L751.8286,-77.640114 L752.1015,-75.3455 L752.3744,-73.118706 L752.6473,-70.95772 L752.92017,-68.8606 L753.19305,-66.82546 L753.46594,-64.85047 L753.7389,-62.93385 L754.0118,-61.073875 L754.28467,-59.268867 L754.55756,-57.51721 L754.83044,-55.817318 L755.10333,-54.167667 L755.3762,-52.566772 L755.6491,-51.013187 L755.92206,-49.50552 L756.19495,-48.04241 L756.46783,-46.622543 L756.7407,-45.24464 L757.0136,-43.90746 L757.2865,-42.609795 L757.5594,-41.350487 L757.8323,-40.128395 L758.1052,-38.94242 L758.3781,-37.7915 L758.651,-36.67459 L758.9239,-35.590694 L759.1968,-34.53883 L759.46967,-33.51805 L759.74255,-32.527443 L760.01544,-31.566113 L760.2884,-30.633194 L760.5613,-29.727846 L760.83417,-28.849255 L761.10706,-27.996632 L761.37994,-27.169205 L761.65283,-26.366234 L761.9257,-25.586994 L762.19867,-24.830784 L762.47156,-24.096924 L762.74445,-23.384752 L763.01733,-22.693628 L763.2902,-22.02293 L763.5631,-21.372053 L763.836,-20.740414 L764.1089,-20.127443 L764.38184,-19.532587 L764.6547,-18.95531 L764.9276,-18.395098 L765.2005,-17.85144 L765.4734,-17.32385 L765.7463,-16.811853 L766.01917,-16.314987 L766.29205,-15.832808 L766.565,-15.364877 L766.8379,-14.910776 L767.1108,-14.470097 L767.38367,-14.04244 L767.65656,-13.627423 L767.92944,-71.15326 L768.20233,-69.05036 L768.4752,-67.00961 L768.74817,-65.02918 L769.02106,-63.107277 L769.29395,-61.242176 L769.56683,-59.432194 L769.8397,-57.67571 L770.1126,-55.971134 L770.3855,-54.316936 L770.65845,-52.711628 L770.93134,-51.153763 L771.2042,-107.179 L771.4771,-104.01138 L771.75,-100.93738 L772.0229,-155.27519 L772.2958,-150.68611 L772.56866,-146.23267 L772.8416,-141.91084 L773.1145,-137.71674 L773.3874,-133.64659 L773.6603,-129.69675 L773.93317,-125.863625 L774.20605,-122.14379 L774.47894,-118.5339 L774.75183,-115.03069 L775.0248,-111.63102 L775.29767,-108.331825 L775.57056,-105.130135 L775.84344,-102.02307 L776.11633,-99.007835 L776.3892,-96.08171 L776.6621,-93.242065 L776.935,-90.48634 L777.20795,-87.81207 L777.48083,-85.21683 L777.7537,-82.698296 L778.0266,-80.25419 L778.2995,-77.88232 L778.5724,-75.58055 L778.8453,-73.34681 L779.1182,-71.17908 L779.3911,-69.075424 L779.664,-67.033936 L779.9369,-65.05278 L780.2098,-63.13018 L780.48267,-61.2644 L780.75555,-59.453766 L781.02844,-57.69664 L781.3014,-55.991447 L781.5743,-54.33665 L781.84717,-52.73076 L782.12006,-51.17233 L782.39294,-49.659958 L782.66583,-48.192287 L782.9387,-46.76799 L783.2116,-45.385784 L783.48456,-102.1652 L783.75745,-156.82722 L784.03033,-152.19229 L784.3032,-147.69432 L784.5761,-143.3293 L784.849,-139.09328 L785.1219,-134.98245 L785.3948,-130.99312 L785.6677,-127.12168 L785.9406,-123.36467 L786.2135,-119.71869 L786.4864,-116.180466 L786.7593,-112.74682 L787.03217,-109.41464 L787.30505,-106.180954 L787.57794,-103.04283 L787.8509,-99.99746 L788.1238,-97.04208 L788.39667,-94.17406 L788.66956,-91.39079 L788.94244,-88.68979 L789.21533,-86.06861 L789.4882,-83.524895 L789.76117,-81.056366 L790.03406,-78.66078 L790.30695,-76.336006 L790.57983,-74.07994 L790.8527,-71.89054 L791.1256,-69.76586 L791.3985,-67.703964 L791.6714,-65.70301 L791.94434,-63.761192 L792.2172,-61.876766 L792.4901,-60.04803 L792.763,-58.273342 L793.0359,-56.551105 L793.3088,-54.87977 L793.58167,-53.257824 L793.85455,-51.68382 L794.1275,-50.15633 L794.4004,-48.67399 L794.6733,-47.235455 L794.94617,-45.839436 L795.21906,-44.484676 L795.49194,-43.169952 L795.76483,-41.89409 L796.0377,-40.655933 L796.31067,-39.45437 L796.58356,-38.288315 L796.85645,-37.156723 L797.12933,-36.05858 L797.4022,-34.992886 L797.6751,-33.95869 L797.948,-32.95506 L798.22095,-31.981089 L798.49384,-31.035904 L798.7667,-30.118654 L799.0396,-29.228514 L799.3125,-28.364681 L799.5854,-27.526379 L799.8583,-26.71285 L800.13116,-25.923367 L800.4041,-25.157215 L800.677,-24.413708 L800.9499,-23.692173 L801.2228,-22.991964 L801.49567,-22.312449 L801.76855,-21.653015 L802.04144,-21.013073 L802.31433,-20.392042 L802.5873,-19.789366 L802.86017,-19.204502 L803.13306,-18.636923 L803.40594,-18.086119 L803.67883,-17.551594 L803.9517,-17.032866 L804.2246,-16.529469 L804.4975,-16.040949 L804.77045,-15.566867 L805.04333,-15.106796 L805.3162,-14.660323 L805.5891,-14.227045 L805.862,-13.806573 L806.1349,-13.398526 L806.4078,-13.002541 L806.6807,-12.6182575 L806.9536,-12.245332 L807.2265,-11.883427 L807.4994,-11.532219 L807.7723,-68.52102 L808.04517,-66.49592 L808.31805,-64.53066 L808.59094,-62.623497 L808.8639,-60.772694 L809.1368,-58.97659 L809.40967,-57.233566 L809.68256,-55.542057 L809.95544,-53.900543 L810.22833,-52.30754 L810.5012,-50.76162 L810.7741,-49.261387 L811.04706,-47.805492 L811.31995,-46.392628 L811.59283,-45.02152 L811.8657,-43.69093 L812.1386,-42.39967 L812.4115,-41.14657 L812.6844,-39.930504 L812.9573,-38.750378 L813.2302,-37.605133 L813.5031,-36.493732 L813.776,-35.41518 L814.0489,-34.368504 L814.3218,-33.35276 L814.59467,-32.36704 L814.86755,-31.410446 L815.1405,-30.482128 L815.4134,-29.581245 L815.6863,-28.706987 L815.95917,-27.858568 L816.23206,-27.035223 L816.50494,-26.23621 L816.77783,-25.460814 L817.0507,-24.708332 L817.32367,-23.97809 L817.59656,-23.269432 L817.86945,-22.581717 L818.14233,-21.914326 L818.4152,-21.266659" fill="none" stroke="#0971B2" stroke-width="1.2"/>
</g>
<g>
<circle cx="3.796977372526417" cy="0" fill="#FF0000" r="1.2000000476837158"/>
<circle cx="17.020972207433136" cy="-13.679758171658392" fill="#FF0000" r="1.2000000476837158"/>
<circle cx="55.01541344986718" cy="-1.1083436198834296" fill="#FF0000" r="1.2000000476837158"/>
<circle cx="72.79458816471313" cy="-8.44787062476643" fill="#FF0000" r="1.2000000476837158"/>
<circle cx="82.63972469446662" cy="-22.695570870671542" fill="#FF0000" r="1.2000000476837158"/>
<circle cx="93.51886110746085" cy="-24.56567017887408" fill="#FF0000" r="1.2000000476837158"/>
<circle cx="96.14666055177896" cy="-62.252349355830525" fill="#FF0000" r="1.2000000476837158"/>
<circle cx="98.74029375854094" cy="-90.82403460810063" fill="#FF0000" r="1.2000000476837158"/>
<circle cx="146.88617324982067" cy="-0.7509577831052179" fill="#FF0000" r="1.2000000476837158"/>
<circle cx="150.3040951201349" cy="-40.71780159764889" fill="#FF0000" r="1.2000000476837158"/>
<circle cx="151.86087766666273" cy="-83.64226579843971" fill="#FF0000" r="1.2000000476837158"/>
<circle cx="155.9786476484569" cy="-90.4152829663854" fill="#FF0000" r="1.2000000476837158"/>
<circle cx="156.16304827901058" cy="-145.9630795692922" fill="#FF0000" r="1.2000000476837158"/>
<circle cx="172.93187827446104" cy="-32.3669307288928" fill="#FF0000" r="1.2000000476837158"/>
<circle cx="185.61979701272713" cy="-22.5332961769112" fill="#FF0000" r="1.2000000476837158"/>
<circle cx="187.89997653624377" cy="-63.09557139051254" fill="#FF0000" r="1.2000000476837158"/>
<circle cx="204.0478898062352" cy="-20.611143760398996" fill="#FF0000" r="1.2000000476837158"/>
<circle cx="205.4365927246065" cy="-67.94217881256628" fill="#FF0000" r="1.2000000476837158"/>
<circle cx="207.65417888494363" cy="-99.1162269846434" fill="#FF0000" r="1.2000000476837158"/>
<circle cx="218.43789866272542" cy="-48.17891805182306" fill="#FF0000" r="1.2000000476837158"/>
<circle cx="249.0233805509487" cy="-3.6982025424293994" fill="#FF0000" r="1.2000000476837158"/>
<circle cx="322.73367028366835" cy="-0.01883198373138616" fill="#FF0000" r="1.2000000476837158"/>
<circle cx="331.0464942489411" cy="-23.479638416174826" fill="#FF0000" r="1.2000000476837158"/>
<circle cx="332.8931625605035" cy="-66.94777540849638" fill="#FF0000" r="1.2000000476837158"/>
<circle cx="389.23777005759086" cy="-0.25617606488375494" fill="#FF0000" r="1.2000000476837158"/>
<circle cx="392.6629457849223" cy="-40.34580877893078" fill="#FF0000" r="1.2000000476837158"/>
<circle cx="393.4043312416174" cy="-91.14323428606335" fill="#FF0000" r="1.2000000476837158"/>
<circle cx="394.276173393645" cy="-136.00030827815186" fill="#FF0000" r="1.2000000476837158"/>
<circle cx="394.5514187428082" cy="-188.7389996666063" fill="#FF0000" r="1.2000000476837158"/>
<circle cx="397.374563286034" cy="-181.29958117384496" fill="#FF0000" r="1.2000000476837158"/>
<circle cx="399.22847709979385" cy="-195.6158717871414" fill="#FF0000" r="1.2000000476837158"/>
<circle cx="399.8884992123113" cy="-236.3651745312194" fill="#FF0000" r="1.2000000476837158"/>
<circle cx="401.7814350573002" cy="-239.49897303930842" fill="#FF0000" r="1.2000000476837158"/>
<circle cx="401.98899166986587" cy="-291.3125369478172" fill="#FF0000" r="1.2000000476837158"/>
<circle cx="407.6385182223812" cy="-187.99948843574802" fill="#FF0000" r="1.2000000476837158"/>
<circle cx="411.229861589437" cy="-166.11927966938896" fill="#FF0000" r="1.2000000476837158"/>
<circle cx="421.80605070430727" cy="-70.23942380872879" fill="#FF0000" r="1.2000000476837158"/>
<circle cx="423.7234597700489" cy="-104.30218380078493" fill="#FF0000" r="1.2000000476837158"/>
<circle cx="424.55605845676826" cy="-148.59629364790692" fill="#FF0000" r="1.2000000476837158"/>
<circle cx="456.35151822054024" cy="-6.284110809522852" fill="#FF0000" r="1.2000000476837158"/>
<circle cx="457.52483308131275" cy="-56.97683294901071" fill="#FF0000" r="1.2000000476837158"/>
<circle cx="461.3425057010543" cy="-75.92188729214669" fill="#FF0000" r="1.2000000476837158"/>
<circle cx="473.24460286673536" cy="-36.33700375341279" fill="#FF0000" r="1.2000000476837158"/>
<circle cx="505.93809597347956" cy="-2.6077514572295426" fill="#FF0000" r="1.2000000476837158"/>
<circle cx="507.3938939228077" cy="-52.1020038432765" fill="#FF0000" r="1.2000000476837158"/>
<circle cx="528.7375496451851" cy="-10.590119796627656" fill="#FF0000" r="1.2000000476837158"/>
<circle cx="553.7082484095951" cy="-4.440945455858375" fill="#FF0000" r="1.2000000476837158"/>
<circle cx="570.8356667551027" cy="-9.582436454822906" fill="#FF0000" r="1.2000000476837158"/>
<circle cx="572.5010675731459" cy="-56.72301859914404" fill="#FF0000" r="1.2000000476837158"/>
<circle cx="582.0452101278888" cy="-40.3658122036844" fill="#FF0000" r="1.2000000476837158"/>
<circle cx="594.7000569655595" cy="-24.605358325258344" fill="#FF0000" r="1.2000000476837158"/>
<circle cx="624.0157658840953" cy="-3.312884338079839" fill="#FF0000" r="1.2000000476837158"/>
<circle cx="625.7177135211406" cy="-51.29585302491099" fill="#FF0000" r="1.2000000476837158"/>
<circle cx="635.6500551748139" cy="-36.858149114481854" fill="#FF0000" r="1.2000000476837158"/>
<circle cx="638.0795666277653" cy="-73.03549378514948" fill="#FF0000" r="1.2000000476837158"/>
<circle cx="641.768746222725" cy="-87.70670239996839" fill="#FF0000" r="1.2000000476837158"/>
<circle cx="642.4413370719112" cy="-135.82053254794496" fill="#FF0000" r="1.2000000476837158"/>
<circle cx="644.1852302303399" cy="-160.45109764542306" fill="#FF0000" r="1.2000000476837158"/>
<circle cx="645.5419106741214" cy="-188.6463876929243" fill="#FF0000" r="1.2000000476837158"/>
<circle cx="647.3874493115263" cy="-201.79379397438018" fill="#FF0000" r="1.2000000476837158"/>
<circle cx="647.8829001968385" cy="-246.53075997848495" fill="#FF0000" r="1.2000000476837158"/>
<circle cx="648.5470530838164" cy="-283.58783602883796" fill="#FF0000" r="1.2000000476837158"/>
<circle cx="652.7361841994239" cy="-215.8655814375305" fill="#FF0000" r="1.2000000476837158"/>
<circle cx="658.7502874247674" cy="-141.66337638572267" fill="#FF0000" r="1.2000000476837158"/>
<circle cx="661.0937787698532" cy="-154.7318389288527" fill="#FF0000" r="1.2000000476837158"/>
<circle cx="697.3726673341006" cy="-3.9524799048955934" fill="#FF0000" r="1.2000000476837158"/>
<circle cx="742.3348260476433" cy="-0.4458456727652756" fill="#FF0000" r="1.2000000476837158"/>
<circle cx="743.5271406293124" cy="-51.73689738639185" fill="#FF0000" r="1.2000000476837158"/>
<circle cx="746.7155967272348" cy="-77.6687460472638" fill="#FF0000" r="1.2000000476837158"/>
<circle cx="767.8344338406225" cy="-13.363542861115612" fill="#FF0000" r="1.2000000476837158"/>
<circle cx="771.0474959846376" cy="-50.504576626204205" fill="#FF0000" r="1.2000000476837158"/>
<circle cx="771.8319553478998" cy="-100.03208935869935" fill="#FF0000" r="1.2000000476837158"/>
<circle cx="783.419636968246" cy="-44.35976974499504" fill="#FF0000" r="1.2000000476837158"/>
<circle cx="783.6235162578292" cy="-100.61609969916204" fill="#FF0000" r="1.2000000476837158"/>
<circle cx="807.5827120884625" cy="-11.42706027951692" fill="#FF0000" r="1.2000000476837158"/>
<circle cx="820" cy="-17.866422101282406" fill="#FF0000" r="1.2000000476837158"/>
</g>
<g>
<g>
<line stroke="black" stroke-width="1" x1="0" x2="0" y1="0" y2="10"/>
<line stroke="black" stroke-width="1" x1="181.93069354490598" x2="181.93069354490598" y1="0" y2="10"/>
<line stroke="black" stroke-width="1" x1="363.86138708981196" x2="363.86138708981196" y1="0" y2="10"/>
<line stroke="black" stroke-width="1" x1="545.792080634718" x2="545.792080634718" y1="0" y2="10"/>
<line stroke="black" stroke-width="1" x1="727.7227741796239" x2="727.7227741796239" y1="0" y2="10"/>
</g>
<line stroke="black" stroke-width="1" x1="0" x2="820" y1="0" y2="0"/>
<g>
<text font-size="12" text-anchor="middle" x="0" y="20">
0
</text>
<text font-size="12" text-anchor="middle" x="181.93069354490598" y="20">
20
</text>
<text font-size="12" text-anchor="middle" x="363.86138708981196" y="20">
40
</text>
<text font-size="12" text-anchor="middle" x="545.792080634718" y="20">
60
</text>
<text font-size="12" text-anchor="middle" x="727.7227741796239" y="20">
80
</text>
</g>
<text font-size="12" text-anchor="middle" x="410" y="30">
Time t
</text>
</g>
<g>
<g>
<line stroke="black" stroke-width="1" x1="0" x2="-10" y1="-0.00000000000003249449884658195" y2="-0.00000000000003249449884658195"/>
<line stroke="black" stroke-width="1" x1="0" x2="-10" y1="-58.53688515882302" y2="-58.53688515882302"/>
<line stroke="black" stroke-width="1" x1="0" x2="-10" y1="-117.073770317646" y2="-117.073770317646"/>
<line stroke="black" stroke-width="1" x1="0" x2="-10" y1="-175.61065547646905" y2="-175.61065547646905"/>
<line stroke="black" stroke-width="1" x1="0" x2="-10" y1="-234.14754063529205" y2="-234.14754063529205"/>
<line stroke="black" stroke-width="1" x1="0" x2="-10" y1="-292.684425794115" y2="-292.684425794115"/>
</g>
<line stroke="black" stroke-0="1" x1="0" x2="0" y1="0" y2="-340"/>
<g>
<text dominant-baseline="middle" font-size="12" text-anchor="end" x="-15" y="-0.00000000000003249449884658195">
0.6000000000000001
</text>
<text dominant-baseline="middle" font-size="12" text-anchor="end" x="-15" y="-58.53688515882302">
0.8
</text>
<text dominant-baseline="middle" font-size="12" text-anchor="end" x="-15" y="-117.073770317646">
1
</text>
<text dominant-baseline="middle" font-size="12" text-anchor="end" x="-15" y="-175.61065547646905">
1.2000000000000002
</text>
<text dominant-baseline="middle" font-size="12" text-anchor="end" x="-15" y="-234.14754063529205">
1.4000000000000001
</text>
<text dominant-baseline="middle" font-size="12" text-anchor="end" x="-15" y="-292.684425794115">
1.6
</text>
</g>
<text font-size="12" text-anchor="middle" transform="rotate(-90 -30 -170)" x="-30" y="-170">
Intensity (t)
</text>
</g>
</g>
</svg>