<svg viewBox="0 0 400 250" xmlns="http://www.w3.org/2000/svg">
<g transform="translate(48, 214)">
<g>
<path d="M0,0 L0,0 L0.10670223,0 L0.21340446,0 L0.32010671,0 L0.42680892,0 L0.53351116,0 L0.64021343,0 L0.74691564,0 L0.85361785,0 L0.9603201,0 L1.0670223,0 L1.1737245,0 L1.2804269,0 L1.3871291,0 L1.4938313,0 L1.6005335,0 L1.7072357,0 L1.813938,0 L1.9206402,0 L2.0273426,0 L2.1340446,0 L2.240747,0 L2.347449,0 L2.4541514,0 L2.5608537,0 L2.6675558,0 L2.7742581,0 L2.8809602,0 L2.9876626,0 L3.094365,0 L3.201067,0 L3.3077693,0 L3.4144714,0 L3.5211737,0 L3.627876,0 L3.7345781,0 L3.8412805,0 L3.9479825,0 L4.054685,0 L4.161387,0 L4.2680893,0 L4.3747916,0 L4.481494,0 L4.5881963,0 L4.694898,0 L4.8016005,0 L4.908303,0 L5.015005,0 L5.1217074,0 L5.2284093,0 L5.3351116,0 L5.441814,0 L5.5485163,0 L5.6552186,0 L5.7619205,0 L5.868623,0 L5.975325,0 L6.0820274,0 L6.18873,0 L6.2954316,0 L6.402134,0 L6.5088363,0 L6.6155386,0 L6.722241,0 L6.828943,0 L6.935645,0 L7.0423474,0 L7.1490498,0 L7.255752,0 L7.362454,0 L7.4691563,0 L7.5758586,0 L7.682561,0 L7.7892632,0 L7.895965,0 L8.002667,0 L8.10937,0 L8.216072,0 L8.322774,0 L8.429477,0 L8.536179,0 L8.642881,0 L8.749583,0 L8.856285,0 L8.962988,0 L9.06969,0 L9.176393,0 L9.283094,0 L9.389796,0 L9.496499,0 L9.603201,0 L9.709904,0 L9.816606,0 L9.923307,0 L10.03001,0 L10.136712,0 L10.243415,0 L10.350117,0 L10.456819,0 L10.563521,0 L10.670223,0 L10.776926,0 L10.883628,0 L10.99033,0 L11.097033,0 L11.203734,0 L11.310437,0 L11.417139,0 L11.523841,0 L11.630544,0 L11.737246,0 L11.843948,0 L11.95065,0 L12.057352,0 L12.164055,0 L12.270757,0 L12.37746,0 L12.484161,0 L12.590863,0 L12.697566,0 L12.804268,0 L12.910971,0 L13.017673,0 L13.124374,0 L13.231077,0 L13.337779,0 L13.444482,0 L13.551184,0 L13.657886,0 L13.764588,0 L13.87129,0 L13.977993,0 L14.084695,0 L14.191397,0 L14.2980995,0 L14.404801,0 L14.511504,0 L14.618206,0 L14.724908,0 L14.831611,0 L14.938313,0 L15.045015,0 L15.151717,0 L15.258419,0 L15.365122,0 L15.471824,0 L15.5785265,0 L15.685228,0 L15.79193,0 L15.898633,0 L16.005335,0 L16.112038,0 L16.21874,0 L16.325441,0 L16.432144,0 L16.538847,0 L16.645548,0 L16.75225,0 L16.858953,0 L16.965654,0 L17.072357,0 L17.17906,0 L17.285763,0 L17.392464,0 L17.499166,0 L17.60587,0 L17.71257,0 L17.819273,0 L17.925976,0 L18.032677,0 L18.13938,0 L18.246082,0 L18.352785,0 L18.459486,0 L18.566189,0 L18.672892,0 L18.779593,0 L18.886295,0 L18.992998,0 L19.099699,0 L19.206402,-46.98563 L19.313105,-46.23984 L19.419807,-45.505894 L19.526508,-44.783592 L19.633211,-44.072758 L19.739914,-90.58047 L19.846615,-89.142715 L19.953318,-87.72778 L20.06002,-86.335304 L20.166721,-84.964935 L20.273424,-83.61631 L20.380127,-82.2891 L20.48683,-80.98295 L20.59353,-79.69753 L20.700233,-78.43252 L20.806936,-77.187584 L20.913637,-75.96241 L21.02034,-74.75668 L21.127043,-73.5701 L21.233744,-72.40234 L21.340446,-71.25312 L21.44715,-70.12215 L21.553852,-69.00912 L21.660553,-67.91376 L21.767256,-66.835785 L21.873959,-65.77492 L21.98066,-64.730896 L22.087362,-63.703445 L22.194065,-62.6923 L22.300766,-61.697205 L22.407469,-60.717907 L22.514172,-59.75415 L22.620874,-58.80569 L22.727575,-57.872288 L22.834278,-56.953697 L22.94098,-56.04969 L23.047682,-102.87708 L23.154385,-101.24415 L23.261087,-99.63714 L23.367788,-98.055626 L23.474491,-96.49922 L23.581194,-94.96752 L23.687897,-93.46013 L23.794598,-91.97667 L23.9013,-90.516754 L24.008003,-89.08001 L24.114704,-87.66607 L24.221407,-86.274574 L24.32811,-84.90517 L24.434813,-83.557495 L24.541513,-82.23121 L24.648216,-80.92598 L24.75492,-79.64147 L24.86162,-78.37735 L24.968323,-77.133286 L25.075026,-75.90897 L25.181726,-74.704094 L25.28843,-73.51834 L25.395132,-72.35141 L25.501835,-71.203 L25.608536,-70.072815 L25.715239,-68.96057 L25.821941,-67.86598 L25.928642,-66.78877 L26.035345,-65.72865 L26.142048,-64.68536 L26.248749,-63.658634 L26.355452,-62.6482 L26.462154,-61.653805 L26.568857,-60.675194 L26.675558,-59.712116 L26.78226,-58.764324 L26.888964,-57.831577 L26.995665,-56.913635 L27.102367,-56.01026 L27.20907,-55.12123 L27.315771,-54.246307 L27.422474,-53.385273 L27.529177,-52.537907 L27.63588,-51.70399 L27.74258,-50.88331 L27.849283,-50.075653 L27.955986,-49.28082 L28.062687,-96.2005 L28.16939,-94.673546 L28.276093,-93.17082 L28.382793,-91.69195 L28.489496,-90.23655 L28.596199,-88.80426 L28.702902,-87.39469 L28.809603,-86.00751 L28.916306,-84.642334 L29.023008,-83.298836 L29.12971,-81.97666 L29.236412,-80.67547 L29.343115,-79.394936 L29.449816,-78.13473 L29.556519,-76.894516 L29.663221,-75.673996 L29.769924,-74.47285 L29.876625,-73.290764 L29.983328,-72.12744 L30.09003,-70.98259 L30.196732,-69.8559 L30.303434,-68.7471 L30.410137,-67.6559 L30.516838,-66.58202 L30.62354,-65.525185 L30.730244,-64.48512 L30.836946,-63.461575 L30.943647,-62.45427 L31.05035,-61.46295 L31.157053,-60.48737 L31.263754,-59.527275 L31.370457,-58.582417 L31.47716,-57.652557 L31.58386,-56.737457 L31.690563,-55.83688 L31.797266,-54.9506 L31.903969,-54.078384 L32.01067,-53.220016 L32.11737,-52.37527 L32.224075,-51.543938 L32.330776,-50.725796 L32.43748,-49.920643 L32.54418,-49.12827 L32.650883,-48.34847 L32.757587,-47.58105 L32.86429,-46.825813 L32.97099,-46.08256 L33.077694,-45.35111 L33.184395,-44.631264 L33.291096,-43.922844 L33.3978,-43.225674 L33.5045,-42.539566 L33.611202,-41.86435 L33.717907,-41.19985 L33.824608,-40.5459 L33.93131,-39.902325 L34.038013,-39.268967 L34.144714,-38.645664 L34.251415,-38.032253 L34.35812,-37.42858 L34.46482,-36.834488 L34.571526,-36.249825 L34.678226,-35.674446 L34.784927,-35.108196 L34.891632,-34.550934 L34.998333,-34.002518 L35.105034,-33.462807 L35.21174,-32.931664 L35.31844,-32.40895 L35.42514,-31.894531 L35.531845,-31.38828 L35.638546,-30.890064 L35.745247,-30.399755 L35.85195,-29.91723 L35.958652,-29.442364 L36.065353,-28.975035 L36.17206,-75.652084 L36.27876,-74.45128 L36.385464,-73.26954 L36.492165,-72.10655 L36.598866,-70.96203 L36.70557,-69.83567 L36.81227,-68.727196 L36.918972,-67.63631 L37.025677,-66.56274 L37.132378,-65.50621 L37.23908,-64.46645 L37.345783,-63.443195 L37.452484,-62.436184 L37.559185,-61.445152 L37.66589,-60.469852 L37.77259,-59.510036 L37.87929,-58.565453 L37.985996,-57.63586 L38.092697,-56.721024 L38.199398,-55.82071 L38.306103,-54.934685 L38.412804,-54.062725 L38.51951,-53.204605 L38.62621,-52.360107 L38.73291,-51.52901 L38.839615,-50.711105 L38.946316,-49.906185 L39.053017,-49.11404 L39.15972,-48.33447 L39.266422,-47.567272 L39.373123,-46.812252 L39.479828,-46.069218 L39.58653,-45.337975 L39.69323,-44.61834 L39.799934,-43.910126 L39.906635,-43.213154 L40.013336,-42.527245 L40.12004,-41.852226 L40.22674,-41.18792 L40.333443,-40.534157 L40.440147,-39.89077 L40.54685,-39.257595 L40.653553,-38.63447 L40.760254,-38.02124 L40.866955,-37.41774 L40.97366,-36.823822 L41.08036,-36.23933 L41.18706,-35.664112 L41.293766,-35.09803 L41.400467,-34.540928 L41.507168,-33.992672 L41.613873,-33.453117 L41.720573,-32.922127 L41.827274,-32.399563 L41.93398,-31.885296 L42.04068,-31.37919 L42.14738,-30.881119 L42.254086,-30.390953 L42.360786,-29.908567 L42.467487,-29.433838 L42.574192,-28.966644 L42.680893,-28.506866 L42.787598,-28.054386 L42.8943,-27.609087 L43.001,-27.170856 L43.107704,-26.739582 L43.214405,-26.315153 L43.321106,-25.89746 L43.42781,-25.486399 L43.53451,-25.081861 L43.641212,-24.683746 L43.747917,-24.291948 L43.854618,-23.90637 L43.96132,-23.526913 L44.068024,-23.153477 L44.174725,-22.785969 L44.281425,-22.424295 L44.38813,-22.068361 L44.49483,-21.718077 L44.601532,-21.373352 L44.708237,-21.034101 L44.814938,-20.700233 L44.921642,-20.371664 L45.028343,-20.048311 L45.135044,-19.730091 L45.24175,-19.416922 L45.34845,-19.108723 L45.45515,-18.805416 L45.561855,-18.506924 L45.668556,-18.21317 L45.775257,-17.924078 L45.88196,-17.639574 L45.988663,-17.359587 L46.095364,-17.084045 L46.20207,-16.812876 L46.30877,-16.54601 L46.41547,-16.28338 L46.522175,-16.02492 L46.628876,-15.77056 L46.735577,-15.52024 L46.84228,-15.273891 L46.948982,-15.031454 L47.055687,-14.792865 L47.162388,-14.558063 L47.26909,-14.326987 L47.375793,-14.099579 L47.482494,-13.875781 L47.589195,-13.655536 L47.6959,-13.438786 L47.8026,-13.225476 L47.9093,-13.0155525 L48.016006,-12.80896 L48.122707,-12.605648 L48.22941,-12.405562 L48.336113,-12.2086525 L48.442814,-12.014869 L48.549515,-11.824161 L48.65622,-11.636479 L48.76292,-11.451777 L48.869625,-11.270007 L48.976326,-11.091122 L49.083027,-10.915076 L49.18973,-10.741824 L49.296432,-10.571323 L49.403133,-10.403528 L49.50984,-57.734932 L49.61654,-56.818523 L49.72324,-55.91666 L49.829945,-55.029114 L49.936646,-54.155655 L50.043346,-53.29606 L50.15005,-52.450108 L50.256752,-51.617584 L50.363453,-50.798275 L50.470158,-49.99197 L50.57686,-49.198463 L50.68356,-48.417553 L50.790264,-47.649036 L50.896965,-46.892715 L51.00367,-93.22121 L51.11037,-91.74154 L51.21707,-90.285355 L51.323776,-88.85228 L51.430477,-87.441956 L51.537178,-86.054016 L51.643883,-84.68811 L51.750584,-83.34389 L51.857285,-82.020996 L51.96399,-80.7191 L52.07069,-79.437874 L52.17739,-78.17698 L52.284096,-76.936104 L52.390797,-75.71492 L52.497498,-74.51312 L52.604202,-73.3304 L52.710903,-72.16645 L52.817604,-71.02097 L52.92431,-69.89368 L53.03101,-68.78428 L53.137714,-115.12121 L53.244415,-113.29392 L53.351116,-111.49564 L53.45782,-109.725914 L53.56452,-107.98427 L53.671223,-106.27027 L53.777927,-104.58347 L53.88463,-102.923454 L53.99133,-101.28978 L54.098034,-99.682045 L54.204735,-98.09982 L54.311436,-96.54272 L54.41814,-95.01032 L54.52484,-93.50225 L54.631542,-92.01812 L54.738247,-90.55755 L54.844948,-89.120155 L54.95165,-87.70558 L55.058353,-86.31346 L55.165054,-84.943436 L55.27176,-83.59515 L55.37846,-82.26827 L55.48516,-80.962456 L55.591866,-79.67737 L55.698566,-78.412674 L55.805267,-77.16805 L55.911972,-75.94319 L56.018673,-74.73777 L56.125374,-73.551476 L56.23208,-72.38402 L56.33878,-71.23509 L56.44548,-70.1044 L56.552185,-68.99165 L56.658886,-67.89657 L56.765587,-66.81887 L56.87229,-65.75828 L56.978992,-64.714516 L57.085693,-63.687325 L57.192398,-62.676434 L57.2991,-61.68159 L57.405804,-60.70254 L57.512505,-59.73903 L57.619205,-58.79081 L57.72591,-57.857643 L57.83261,-56.939285 L57.939312,-56.035507 L58.046017,-55.146072 L58.152718,-54.270756 L58.25942,-53.409336 L58.366123,-52.561584 L58.472824,-51.72729 L58.579525,-50.906242 L58.68623,-50.098225 L58.79293,-49.303032 L58.89963,-48.52046 L59.006336,-47.75031 L59.113037,-46.992386 L59.219738,-46.24649 L59.326443,-45.512432 L59.433144,-44.790028 L59.53985,-44.07909 L59.64655,-43.379436 L59.75325,-42.69089 L59.859955,-42.01327 L59.966656,-41.34641 L60.073357,-40.69013 L60.18006,-40.04427 L60.286762,-39.408657 L60.393463,-38.78314 L60.500168,-38.167545 L60.60687,-84.85571 L60.71357,-83.50883 L60.820274,-82.18332 L60.926975,-127.90882 L61.033676,-125.87856 L61.14038,-123.88053 L61.24708,-121.914215 L61.353786,-119.97911 L61.460487,-118.07472 L61.56719,-116.20056 L61.673893,-114.35615 L61.780594,-112.54101 L61.887295,-110.75468 L61.994,-108.996704 L62.1007,-107.26664 L62.2074,-105.564026 L62.314106,-103.88844 L62.420807,-102.239456 L62.527508,-100.61664 L62.634212,-99.019585 L62.740913,-97.447876 L62.847614,-95.90112 L62.95432,-94.378914 L63.06102,-92.88087 L63.16772,-91.4066 L63.274426,-89.95573 L63.381126,-88.52789 L63.48783,-87.12272 L63.594532,-85.739845 L63.701233,-84.37892 L63.807938,-83.039604 L63.91464,-81.72154 L64.02134,-80.4244 L64.128044,-79.14785 L64.23474,-77.89156 L64.341446,-76.65522 L64.44815,-75.43849 L64.554855,-74.24108 L64.66155,-73.062675 L64.76826,-71.90298 L64.87496,-70.76168 L64.98166,-69.638504 L65.08836,-68.53316 L65.19507,-67.44535 L65.301765,-66.37481 L65.40847,-65.321266 L65.515175,-64.28445 L65.62187,-63.264076 L65.72858,-62.259907 L65.83528,-61.271675 L65.94198,-60.29913 L66.04868,-59.342022 L66.15539,-58.400105 L66.262085,-57.473137 L66.36879,-56.560886 L66.475494,-55.663113 L66.58219,-54.77959 L66.688896,-53.91009 L66.7956,-53.054394 L66.9023,-52.212276 L67.009,-51.38353 L67.11571,-50.567936 L67.222404,-49.765285 L67.32911,-48.975376 L67.435814,-48.198006 L67.54251,-47.432976 L67.649216,-46.680088 L67.75592,-45.939148 L67.86262,-45.209972 L67.96932,-44.492367 L68.07603,-43.786156 L68.182724,-43.091152 L68.28943,-42.40718 L68.39613,-41.734062 L68.50283,-41.071632 L68.609535,-40.419716 L68.71624,-39.778145 L68.822945,-39.14676 L68.92964,-38.525394 L69.03635,-37.913895 L69.14305,-37.3121 L69.24975,-36.719856 L69.35645,-36.137012 L69.46316,-35.563423 L69.569855,-34.998936 L69.67656,-34.44341 L69.783264,-33.8967 L69.88996,-33.35867 L69.996666,-32.829178 L70.10337,-32.30809 L70.21007,-31.795275 L70.31677,-31.290598 L70.42348,-30.793932 L70.530174,-30.30515 L70.63688,-29.824125 L70.74358,-29.350737 L70.85028,-28.884863 L70.956985,-28.426382 L71.06369,-27.97518 L71.17039,-27.531137 L71.27709,-27.094145 L71.3838,-26.66409 L71.49049,-26.240858 L71.5972,-25.824345 L71.7039,-25.414444 L71.8106,-25.01105 L71.917305,-24.614056 L72.02401,-24.223366 L72.13071,-23.838875 L72.23741,-23.46049 L72.34412,-23.088108 L72.45081,-22.721638 L72.55752,-22.360985 L72.66422,-22.006056 L72.77093,-21.656761 L72.877625,-21.31301 L72.98433,-20.974714 L73.091034,-20.64179 L73.19773,-20.31415 L73.304436,-19.991709 L73.41114,-19.674387 L73.51784,-19.362103 L73.62454,-19.054773 L73.73125,-18.752323 L73.837944,-18.454674 L73.94465,-18.161749 L74.05135,-17.873472 L74.15805,-17.589773 L74.264755,-17.310575 L74.37146,-17.03581 L74.47816,-16.765408 L74.58486,-16.499294 L74.69157,-16.237408 L74.79826,-15.979676 L74.90497,-15.726036 L75.01167,-15.476421 L75.11837,-15.230769 L75.225075,-14.989016 L75.33178,-14.751101 L75.43848,-14.51696 L75.54518,-14.286537 L75.651886,-14.059772 L75.75858,-13.836606 L75.86529,-13.6169815 L75.97199,-13.400844 L76.07869,-13.188136 L76.185394,-12.978806 L76.2921,-12.772797 L76.398796,-12.570058 L76.5055,-12.370538 L76.612206,-12.174184 L76.7189,-11.9809475 L76.82561,-11.790777 L76.93231,-11.603626 L77.03902,-59.006012 L77.14571,-58.069427 L77.25242,-57.147713 L77.35912,-56.240623 L77.46582,-55.347935 L77.572525,-54.469414 L77.67923,-53.60484 L77.78593,-52.753986 L77.89263,-51.91664 L77.99934,-51.092583 L78.10603,-50.28161 L78.21274,-49.483505 L78.31944,-48.698067 L78.42614,-47.9251 L78.532845,-47.1644 L78.63955,-46.415775 L78.74625,-45.67903 L78.85295,-44.953983 L78.959656,-44.24044 L79.06635,-43.538227 L79.17306,-42.84716 L79.27976,-42.16706 L79.38646,-41.497757 L79.493164,-40.839077 L79.59987,-40.19085 L79.706566,-39.552914 L79.81327,-38.925102 L79.919975,-38.30726 L80.02667,-37.69922 L80.13338,-37.10083 L80.24008,-36.51194 L80.34678,-35.9324 L80.45348,-35.362057 L80.56019,-34.800766 L80.666885,-34.248383 L80.77359,-33.70477 L80.880295,-33.169785 L80.98699,-32.64329 L81.0937,-32.125153 L81.2004,-31.615242 L81.307106,-78.34092 L81.4138,-77.09744 L81.52051,-75.873695 L81.62721,-74.66938 L81.73391,-73.48418 L81.840614,-72.31779 L81.94732,-71.16991 L82.054016,-70.04025 L82.16072,-68.92853 L82.267426,-67.83444 L82.37412,-66.75773 L82.48083,-65.698105 L82.58753,-64.655304 L82.69423,-63.629047 L82.800934,-62.619083 L82.90764,-61.625153 L83.014336,-60.646996 L83.12104,-59.684364 L83.227745,-58.737015 L83.33444,-57.8047 L83.44115,-56.887184 L83.54785,-55.984234 L83.65455,-55.09561 L83.76125,-54.221096 L83.86796,-53.360462 L83.974655,-52.51349 L84.08136,-51.67996 L84.188065,-50.85966 L84.29476,-50.05238 L84.40147,-49.257915 L84.50817,-48.476063 L84.61487,-47.706615 L84.72157,-46.949383 L84.82828,-46.20417 L84.934975,-45.470787 L85.04168,-44.749043 L85.148384,-44.038757 L85.25509,-43.339745 L85.361786,-42.651825 L85.46849,-41.974827 L85.575195,-41.308575 L85.68189,-40.652897 L85.7886,-40.007626 L85.8953,-39.372597 L86.002,-38.74765 L86.1087,-38.13262 L86.21541,-37.52735 L86.322105,-36.931694 L86.42881,-36.34549 L86.535515,-35.76859 L86.64221,-35.200844 L86.74892,-34.642113 L86.85562,-34.09225 L86.96232,-33.551113 L87.06902,-33.01857 L87.17573,-32.494476 L87.282425,-31.9787 L87.38913,-31.471113 L87.495834,-30.971582 L87.60253,-30.47998 L87.709236,-29.996181 L87.81594,-29.520061 L87.92264,-29.051498 L88.02934,-28.590374 L88.13605,-28.136568 L88.242744,-27.689966 L88.34945,-27.250452 L88.456154,-26.817913 L88.56285,-26.392242 L88.669556,-25.973326 L88.77626,-25.56106 L88.88296,-25.155336 L88.98966,-24.756054 L89.09637,-24.36311 L89.203064,-23.976402 L89.30977,-23.595833 L89.41647,-23.221302 L89.52318,-22.852718 L89.629875,-22.489985 L89.73658,-22.133009 L89.843285,-21.781698 L89.94998,-21.435965 L90.05669,-21.095718 L90.16339,-20.760872 L90.27009,-20.431341 L90.37679,-20.107042 L90.4835,-19.78789 L90.590195,-19.473803 L90.6969,-19.164701 L90.803604,-18.860506 L90.9103,-18.561138 L91.017006,-18.266523 L91.12371,-17.976585 L91.23041,-17.691248 L91.33711,-17.41044 L91.44382,-17.13409 L91.550514,-16.862127 L91.65722,-16.59448 L91.76392,-16.331081 L91.87062,-16.071863 L91.977325,-15.816759 L92.08403,-15.565705 L92.19073,-15.318635 L92.29743,-15.075487 L92.40414,-14.836199 L92.51083,-14.600709 L92.61754,-14.368957 L92.72424,-14.1408825 L92.83094,-13.916429 L92.937645,-13.695538 L93.04435,-13.478153 L93.15105,-13.264218 L93.25775,-13.05368 L93.364456,-12.846483 L93.47115,-12.642575 L93.57786,-12.441903 L93.68456,-12.244417 L93.79127,-12.050065 L93.897964,-11.858799 L94.00467,-11.6705675 L94.111374,-11.485325 L94.21807,-11.303021 L94.324776,-11.123612 L94.43148,-10.947051 L94.53818,-10.773292 L94.64488,-10.602291 L94.75159,-10.434004 L94.858284,-10.268389 L94.96499,-10.105402 L95.07169,-9.945002 L95.17839,-9.7871475 L95.285095,-9.6318 L95.3918,-9.478917 L95.4985,-57.028248 L95.6052,-56.12306 L95.71191,-55.232235 L95.8186,-54.355553 L95.92531,-53.492783 L96.03201,-52.643707 L96.13871,-51.808113 L96.245415,-50.98578 L96.35212,-50.1765 L96.45882,-49.380062 L96.56552,-48.596268 L96.672226,-47.824917 L96.77892,-47.065807 L96.88563,-46.318745 L96.99233,-45.58354 L97.09903,-44.86001 L97.205734,-44.14796 L97.31244,-43.447216 L97.419136,-42.75759 L97.52584,-42.078915 L97.632545,-41.411007 L97.73925,-40.753704 L97.84595,-40.106834 L97.95265,-39.47023 L98.05936,-38.843735 L98.16605,-38.22718 L98.27276,-37.62041 L98.37946,-37.023273 L98.48616,-36.435616 L98.592865,-35.857285 L98.69957,-35.28813 L98.80627,-34.728016 L98.91297,-34.17679 L99.01968,-33.63431 L99.12637,-33.100445 L99.23308,-32.575054 L99.33978,-32.058 L99.44648,-31.549152 L99.553185,-31.048384 L99.65989,-30.555563 L99.76659,-30.070564 L99.87329,-29.593264 L99.979996,-29.123539 L100.08669,-28.66127 L100.1934,-28.206339 L100.3001,-27.758629 L100.4068,-27.318026 L100.513504,-26.884415 L100.62021,-26.457687 L100.726906,-26.037733 L100.83361,-73.09385 L100.940315,-71.933655 L101.04701,-70.79187 L101.15372,-69.66821 L101.26042,-68.56239 L101.36712,-67.47412 L101.47382,-66.40313 L101.58053,-65.34914 L101.687225,-64.31187 L101.79393,-63.291065 L101.900635,-62.28647 L102.00734,-61.297813 L102.11404,-60.324852 L102.22074,-59.367336 L102.327446,-58.42502 L102.43414,-57.497658 L102.54085,-56.585014 L102.64755,-55.68686 L102.75425,-54.80296 L102.860954,-53.93309 L102.96766,-53.077026 L103.074356,-52.23455 L103.18106,-51.40545 L103.287766,-50.589508 L103.39446,-49.786514 L103.50117,-48.99627 L103.60787,-48.218567 L103.71457,-47.45321 L103.82127,-46.7 L103.92798,-45.958748 L104.034676,-45.22926 L104.14138,-44.51135 L104.248085,-43.804832 L104.35478,-43.109535 L104.46149,-42.42527 L104.56819,-41.75187 L104.67489,-41.089153 L104.78159,-40.43696 L104.8883,-39.795116 L104.994995,-39.16346 L105.1017,-38.541832 L105.208405,-37.93007 L105.3151,-37.32802 L105.42181,-36.735523 L105.52851,-36.15243 L105.63521,-35.578594 L105.74191,-35.013866 L105.84862,-34.458103 L105.955315,-33.91116 L106.06202,-33.3729 L106.168724,-32.84318 L106.27543,-32.321873 L106.382126,-31.808838 L106.48883,-31.303947 L106.595535,-30.80707 L106.70223,-30.318079 L106.80894,-29.83685 L106.91564,-29.363258 L107.02234,-28.897184 L107.12904,-28.438509 L107.23575,-27.987114 L107.342445,-27.542883 L107.44915,-27.105703 L107.555855,-26.675465 L107.66255,-26.252052 L107.76926,-25.835361 L107.87596,-25.425285 L107.98266,-25.021719 L108.08936,-24.624557 L108.19607,-24.2337 L108.302765,-23.849045 L108.40947,-23.470497 L108.516174,-23.097958 L108.62287,-22.73133 L108.729576,-22.370523 L108.83628,-22.015444 L108.94298,-21.665998 L109.04968,-21.322102 L109.15639,-20.983664 L109.263084,-20.650597 L109.36979,-20.322815 L109.476494,-20.000238 L109.58319,-19.682781 L109.689896,-19.370363 L109.7966,-19.062902 L109.9033,-18.760323 L110.01,-18.462547 L110.11671,-18.169497 L110.22341,-17.881098 L110.33011,-17.597277 L110.43681,-17.31796 L110.54352,-17.04308 L110.650215,-16.77256 L110.75692,-16.506334 L110.863625,-16.244333 L110.97032,-15.986493 L111.07703,-15.732744 L111.18373,-15.483024 L111.29043,-15.237267 L111.39713,-14.99541 L111.50384,-14.757393 L111.610535,-14.523153 L111.71724,-14.292632 L111.823944,-14.06577 L111.93064,-13.842508 L112.037346,-13.62279 L112.14405,-13.406561 L112.25075,-13.193763 L112.35745,-12.984343 L112.46416,-12.778246 L112.570854,-12.57542 L112.67756,-12.375815 L112.78426,-12.179378 L112.89096,-11.986058 L112.997665,-11.795808 L113.10437,-11.608577 L113.21107,-11.424317 L113.31777,-11.242983 L113.42448,-11.064527 L113.53117,-10.888903 L113.63788,-10.716066 L113.74458,-10.545974 L113.85128,-10.378581 L113.957985,-10.213845 L114.06469,-10.051724 L114.17139,-9.892177 L114.27809,-9.735161 L114.384796,-9.580638 L114.4915,-9.428568 L114.5982,-9.278911 L114.7049,-9.13163 L114.81161,-8.986687 L114.918304,-8.844044 L115.02501,-8.703665 L115.131714,-8.565515 L115.23841,-8.429557 L115.345116,-8.295757 L115.45182,-8.164082 L115.55852,-8.034495 L115.66522,-7.906966 L115.77193,-7.7814617 L115.878624,-7.657949 L115.98533,-7.5363965 L116.09203,-7.416774 L116.19873,-7.29905 L116.305435,-7.183194 L116.41214,-7.0691776 L116.51884,-6.956971 L116.62554,-6.846545 L116.73225,-6.737872 L116.83894,-6.630924 L116.94565,-6.5256734 L117.05235,-6.422094 L117.15905,-6.320158 L117.265755,-6.21984 L117.37246,-6.1211143 L117.47916,-6.023956 L117.58586,-5.9283395 L117.692566,-5.834241 L117.79926,-5.741636 L117.90597,-5.650501 L118.01267,-5.560812 L118.11937,-5.472547 L118.226074,-5.385683 L118.33278,-5.300198 L118.439476,-5.2160697 L118.54618,-5.1332765 L118.652885,-5.051798 L118.75959,-4.9716125 L118.86629,-4.8926992 L118.97299,-4.815039 L119.0797,-4.7386117 L119.18639,-4.6633973 L119.2931,-4.5893764 L119.3998,-4.516531 L119.5065,-4.4448414 L119.613205,-4.37429 L119.71991,-4.304858 L119.82661,-4.2365284 L119.93331,-4.1692834 L120.040016,-4.1031055 L120.14671,-4.0379786 L120.25342,-3.9738848 L120.36012,-3.9108088 L120.46682,-3.8487337 L120.573524,-3.787644 L120.68023,-3.7275238 L120.78693,-3.668358 L120.89363,-3.6101315 L121.000336,-3.552829 L121.10703,-3.496436 L121.21374,-3.4409382 L121.32044,-3.3863213 L121.42714,-3.3325713 L121.533844,-3.2796745 L121.64055,-3.2276173 L121.747246,-3.1763864 L121.85395,-3.1259687 L121.960655,-3.0763512 L122.06735,-50.364597 L122.17406,-49.565174 L122.28076,-48.778442 L122.38746,-95.22159 L122.49416,-93.71016 L122.60087,-92.22273 L122.70757,-90.75891 L122.81427,-89.31832 L122.920975,-87.900604 L123.02768,-86.50539 L123.13438,-85.13231 L123.24108,-83.78104 L123.347786,-82.4512 L123.45448,-81.14248 L123.56119,-79.85453 L123.66789,-78.58703 L123.77459,-77.33964 L123.881294,-76.11205 L123.988,-74.90395 L124.094696,-73.71503 L124.2014,-72.54497 L124.308105,-71.393486 L124.4148,-70.260284 L124.52151,-69.145065 L124.62821,-68.04755 L124.73491,-66.967445 L124.84161,-65.904495 L124.94832,-64.85841 L125.055016,-63.828938 L125.16172,-62.8158 L125.268425,-61.818745 L125.37512,-60.837517 L125.48183,-59.87186 L125.58853,-58.921535 L125.69523,-57.986294 L125.80193,-57.065895 L125.90864,-56.160107 L126.015335,-55.268696 L126.12204,-54.391434 L126.228745,-53.528095 L126.33544,-52.67846 L126.44215,-51.84231 L126.54885,-51.019436 L126.65555,-50.20962 L126.76225,-49.41266 L126.86896,-48.62835 L126.97566,-47.856487 L127.08236,-47.096874 L127.189064,-46.34932 L127.29577,-45.613632 L127.402466,-44.88962 L127.50917,-44.177105 L127.615875,-43.475895 L127.72257,-42.785816 L127.82928,-42.10669 L127.93598,-41.438343 L128.04268,-40.780605 L128.14938,-40.13331 L128.25609,-39.496284 L128.3628,-38.869373 L128.46948,-38.252415 L128.57619,-37.645245 L128.68289,-37.047714 L128.7896,-36.459667 L128.8963,-35.880955 L129.003,-35.311428 L129.10971,-34.750942 L129.2164,-34.19935 L129.3231,-33.656513 L129.42981,-33.122295 L129.53651,-32.596558 L129.64322,-32.079163 L129.74992,-31.569979 L129.85661,-31.068878 L129.96332,-30.575733 L130.07002,-30.090414 L130.17673,-29.612799 L130.28343,-29.142763 L130.39014,-28.680191 L130.49683,-28.224958 L130.60353,-27.776953 L130.71024,-27.336058 L130.81694,-26.902163 L130.92365,-26.475153 L131.03035,-26.05492 L131.13704,-25.64136 L131.24374,-25.234362 L131.35045,-24.833826 L131.45715,-24.439646 L131.56386,-24.051723 L131.67056,-23.669958 L131.77725,-23.294252 L131.88396,-22.924511 L131.99066,-22.560637 L132.09737,-22.20254 L132.20407,-21.850124 L132.31078,-21.503305 L132.41747,-21.16199 L132.52417,-20.826092 L132.63087,-20.495527 L132.73758,-20.170208 L132.84428,-19.850052 L132.95099,-19.534979 L133.0577,-19.224907 L133.16438,-18.919756 L133.27109,-18.619448 L133.37779,-18.323908 L133.4845,-18.033058 L133.5912,-17.746826 L133.6979,-17.465136 L133.8046,-17.187918 L133.9113,-16.915098 L134.018,-16.64661 L134.12471,-16.382385 L134.23141,-16.122353 L134.33812,-15.866447 L134.44481,-15.614604 L134.55151,-15.366758 L134.65822,-15.122847 L134.76492,-14.882807 L134.87163,-14.646577 L134.97833,-14.414097 L135.08502,-14.185306 L135.19173,-13.960147 L135.29843,-13.738563 L135.40514,-13.520494 L135.51184,-13.305888 L135.61855,-13.094687 L135.72523,-12.88684 L135.83194,-12.682291 L135.93864,-12.480989 L136.04535,-12.282883 L136.15205,-12.08792 L136.25876,-11.896052 L136.36545,-11.707231 L136.47215,-11.521405 L136.57886,-11.33853 L136.68556,-11.158557 L136.79227,-10.981441 L136.89897,-10.807136 L137.00566,-10.635597 L137.11237,-10.466783 L137.21907,-10.300647 L137.32578,-10.137148 L137.43248,-9.976244 L137.53918,-9.817894 L137.64589,-9.662058 L137.75258,-9.508695 L137.85928,-9.357766 L137.96599,-9.209233 L138.0727,-9.063059 L138.1794,-8.919204 L138.2861,-8.777632 L138.39279,-8.638308 L138.4995,-8.501194 L138.6062,-8.366258 L138.7129,-8.233462 L138.81961,-8.102776 L138.92632,-7.9741626 L139.033,-7.8475914 L139.13971,-7.723029 L139.24641,-7.600444 L139.35312,-7.4798045 L139.45982,-7.3610797 L139.56653,-7.24424 L139.67322,-7.1292543 L139.77992,-7.0160937 L139.88663,-6.90473 L139.99333,-6.795133 L140.10004,-6.6872764 L140.20674,-6.581131 L140.31343,-6.476671 L140.42014,-6.373869 L140.52684,-6.2726984 L140.63354,-6.173134 L140.74025,-6.07515 L140.84695,-5.9787207 L140.95364,-5.8838224 L141.06035,-5.7904305 L141.16705,-5.6985207 L141.27376,-5.60807 L141.38046,-5.519055 L141.48717,-5.4314528 L141.59387,-5.345241 L141.70056,-5.260398 L141.80727,-5.1769013 L141.91397,-5.09473 L142.02068,-5.0138626 L142.12738,-4.9342794 L142.23409,-4.855959 L142.34077,-4.778882 L142.44748,-4.703028 L142.55418,-4.628379 L142.66089,-51.6389 L142.7676,-50.819252 L142.8743,-50.012615 L142.98099,-49.21878 L143.08769,-48.437546 L143.1944,-47.668713 L143.3011,-46.912083 L143.4078,-46.16746 L143.51451,-45.43466 L143.6212,-44.71349 L143.7279,-44.00377 L143.83461,-43.30531 L143.94131,-42.61794 L144.04802,-41.94148 L144.15472,-41.275753 L144.26141,-40.620598 L144.36812,-39.975838 L144.47482,-39.341316 L144.58153,-38.71686 L144.68823,-38.10232 L144.79494,-37.497536 L144.90163,-36.90235 L145.00833,-36.316612 L145.11504,-35.74017 L145.22174,-35.17288 L145.32845,-34.61459 L145.43515,-34.065163 L145.54185,-33.524456 L145.64854,-32.992336 L145.75525,-32.46866 L145.86195,-79.252365 L145.96866,-77.994415 L146.07536,-76.75643 L146.18207,-75.5381 L146.28876,-74.33911 L146.39546,-73.15915 L146.50217,-71.99792 L146.60887,-70.85512 L146.71558,-69.73046 L146.82228,-68.62365 L146.92897,-67.53441 L147.03568,-66.462456 L147.14238,-65.40752 L147.24908,-64.36932 L147.35579,-63.347614 L147.4625,-62.342117 L147.56918,-61.35258 L147.67589,-60.37875 L147.7826,-59.420376 L147.8893,-58.477215 L147.996,-57.549026 L148.1027,-56.63557 L148.2094,-55.73661 L148.3161,-54.85192 L148.4228,-53.981274 L148.52951,-53.124447 L148.63622,-52.28122 L148.74292,-51.451378 L148.84961,-50.634705 L148.95631,-49.830997 L149.06302,-49.040047 L149.16972,-48.26165 L149.27643,-47.495605 L149.38313,-46.741726 L149.48982,-45.99981 L149.59653,-45.26967 L149.70323,-44.551117 L149.80994,-43.84397 L149.91664,-43.14805 L150.02335,-42.463173 L150.13005,-41.78917 L150.23674,-41.125866 L150.34344,-40.473087 L150.45015,-39.83067 L150.55685,-39.198452 L150.66356,-38.576267 L150.77026,-37.96396 L150.87695,-37.361366 L150.98366,-36.76834 L151.09036,-36.18473 L151.19707,-35.610382 L151.30377,-35.04515 L151.41048,-34.488888 L151.51717,-33.94146 L151.62387,-33.402718 L151.73058,-32.872524 L151.83728,-32.35075 L151.94398,-31.837257 L152.05069,-31.331915 L152.15738,-30.834593 L152.26408,-30.345165 L152.37079,-29.863506 L152.4775,-29.389492 L152.5842,-28.923002 L152.6909,-28.463917 L152.79759,-28.01212 L152.9043,-27.567492 L153.011,-27.129921 L153.1177,-26.699297 L153.22441,-26.275507 L153.33112,-25.858444 L153.4378,-25.448002 L153.54451,-25.044073 L153.65121,-24.646557 L153.75792,-24.25535 L153.86462,-23.870354 L153.97133,-23.491467 L154.07803,-23.118593 L154.18472,-22.75164 L154.29143,-22.39051 L154.39813,-22.035112 L154.50484,-21.685356 L154.61154,-21.341152 L154.71825,-21.00241 L154.82494,-20.669046 L154.93164,-20.340973 L155.03835,-20.018106 L155.14505,-19.700367 L155.25175,-19.387669 L155.35846,-19.079935 L155.46515,-18.777084 L155.57185,-18.479042 L155.67856,-18.18573 L155.78526,-17.897074 L155.89197,-17.612999 L155.99867,-17.333433 L156.10536,-17.058306 L156.21207,-16.787544 L156.31877,-16.521082 L156.42548,-16.258848 L156.53218,-16.000776 L156.63889,-15.7468 L156.74557,-15.496857 L156.85228,-15.25088 L156.95898,-15.008808 L157.06569,-14.770577 L157.1724,-14.536129 L157.2791,-14.305402 L157.38579,-14.078337 L157.4925,-13.854876 L157.5992,-13.634962 L157.7059,-13.418538 L157.8126,-13.20555 L157.91931,-12.995943 L158.02602,-12.789662 L158.1327,-12.586657 L158.23941,-12.386872 L158.34612,-12.190259 L158.45282,-11.996767 L158.55952,-11.806347 L158.66623,-11.618948 L158.77292,-11.434525 L158.87962,-11.253028 L158.98633,-11.074412 L159.09303,-10.898631 L159.19974,-10.725641 L159.30644,-10.555396 L159.41313,-10.387854 L159.51984,-10.222971 L159.62654,-10.060705 L159.73325,-9.901014 L159.83995,-9.743858 L159.94666,-9.589198 L160.05334,-9.436992 L160.16005,-9.287201 L160.26675,-9.139789 L160.37346,-8.994716 L160.48016,-8.851945 L160.58687,-8.711441 L160.69356,-8.573167 L160.80026,-8.437088 L160.90697,-8.303168 L161.01367,-8.171375 L161.12038,-8.041674 L161.22708,-7.9140306 L161.33377,-7.788414 L161.44048,-7.6647906 L161.54718,-7.54313 L161.65388,-7.4234004 L161.76059,-7.305571 L161.8673,-7.189612 L161.97398,-7.075494 L162.08069,-6.9631867 L162.1874,-6.852662 L162.2941,-6.743892 L162.4008,-6.6368484 L162.5075,-6.5315037 L162.61421,-6.427831 L162.7209,-6.3258047 L162.8276,-6.225397 L162.93431,-6.126583 L163.04102,-6.029338 L163.14772,-5.933636 L163.25443,-5.8394537 L163.36111,-5.7467656 L163.46782,-5.655549 L163.57452,-5.5657806 L163.68123,-5.4774365 L163.78793,-5.390495 L163.89464,-5.3049335 L164.00133,-5.22073 L164.10803,-5.137863 L164.21474,-52.441936 L164.32144,-51.60954 L164.42815,-50.79036 L164.53485,-49.98418 L164.64154,-49.190796 L164.74825,-48.410007 L164.85495,-47.64161 L164.96165,-46.88541 L165.06836,-46.141212 L165.17506,-45.40883 L165.28175,-44.68807 L165.38846,-43.97875 L165.49516,-43.28069 L165.60187,-42.593708 L165.70857,-41.917633 L165.81528,-41.25229 L165.92197,-40.597504 L166.02867,-39.95311 L166.13538,-39.318947 L166.24208,-38.69485 L166.34879,-38.08066 L166.45549,-37.47622 L166.5622,-36.88137 L166.66888,-36.295963 L166.77559,-35.71985 L166.8823,-35.15288 L166.989,-34.59491 L167.0957,-34.045795 L167.20241,-33.505398 L167.3091,-32.973576 L167.4158,-32.4502 L167.5225,-31.935127 L167.62921,-31.42823 L167.73592,-30.92938 L167.84262,-30.438448 L167.94931,-29.955309 L168.05602,-29.479837 L168.16272,-29.011913 L168.26942,-28.551416 L168.37613,-28.098228 L168.48283,-27.652235 L168.58952,-27.21332 L168.69623,-26.781372 L168.80293,-26.35628 L168.90964,-25.937935 L169.01634,-25.52623 L169.12305,-25.12106 L169.22974,-24.722322 L169.33644,-24.329912 L169.44315,-23.943731 L169.54985,-23.56368 L169.65656,-23.189661 L169.76326,-22.821579 L169.86995,-22.45934 L169.97665,-22.10285 L170.08336,-21.752018 L170.19006,-21.406755 L170.29677,-21.066973 L170.40347,-20.732584 L170.51018,-20.403502 L170.61687,-20.079643 L170.72357,-19.760925 L170.83028,-19.447268 L170.93698,-19.138586 L171.04369,-18.834806 L171.15039,-18.535847 L171.25708,-18.241634 L171.36378,-17.95209 L171.47049,-17.667143 L171.5772,-17.386717 L171.6839,-17.110744 L171.7906,-16.83915 L171.8973,-16.571867 L172.004,-16.308828 L172.1107,-16.049963 L172.2174,-15.795207 L172.32411,-15.544495 L172.43082,-15.297762 L172.5375,-15.054946 L172.64421,-14.815984 L172.75092,-14.580814 L172.85762,-14.349378 L172.96432,-14.121614 L173.07103,-13.897467 L173.17772,-13.676876 L173.28442,-13.459787 L173.39113,-13.246145 L173.49783,-13.035893 L173.60454,-12.828979 L173.71124,-12.625348 L173.81793,-12.42495 L173.92464,-12.227733 L174.03134,-12.033646 L174.13805,-11.84264 L174.24475,-11.654665 L174.35146,-11.469674 L174.45815,-11.28762 L174.56485,-11.108456 L174.67155,-10.932135 L174.77826,-10.758612 L174.88496,-10.587844 L174.99167,-10.419786 L175.09837,-10.254396 L175.20506,-10.091632 L175.31177,-9.931451 L175.41847,-9.773812 L175.52518,-9.618675 L175.63188,-9.4660015 L175.73859,-9.31575 L175.84528,-9.167885 L175.95198,-9.022366 L176.05869,-8.879156 L176.16539,-8.73822 L176.2721,-8.599522 L176.3788,-56.15585 L176.48549,-55.264507 L176.5922,-54.38731 L176.6989,-53.524036 L176.8056,-52.67447 L176.91231,-51.838383 L177.01901,-51.015568 L177.1257,-50.205814 L177.2324,-49.408913 L177.33911,-48.62466 L177.44582,-47.85286 L177.55252,-47.093304 L177.65923,-46.34581 L177.76591,-45.610176 L177.87262,-44.88622 L177.97932,-44.173756 L178.08603,-43.4726 L178.19273,-42.782574 L178.29944,-42.1035 L178.40613,-41.435204 L178.51283,-88.2413 L178.61954,-86.840675 L178.72624,-85.46228 L178.83295,-84.10577 L178.93965,-82.77078 L179.04636,-81.45699 L179.15305,-80.16405 L179.25975,-78.89163 L179.36646,-77.63941 L179.47316,-76.40707 L179.57986,-75.19428 L179.68657,-74.00075 L179.79326,-72.82616 L179.89996,-71.67021 L180.00667,-70.53261 L180.11337,-69.41307 L180.22008,-68.311295 L180.32678,-67.22701 L180.43347,-66.15994 L180.54018,-65.1098 L180.64688,-64.07634 L180.75359,-63.059277 L180.86029,-62.058353 L180.967,-61.073322 L181.07368,-60.103924 L181.18039,-59.149914 L181.2871,-58.21105 L181.3938,-57.287083 L181.5005,-56.37778 L181.60721,-55.482918 L181.7139,-54.602253 L181.8206,-53.73557 L181.9273,-52.88264 L182.03401,-52.04325 L182.14072,-51.217186 L182.24742,-50.404232 L182.35411,-49.604183 L182.46082,-48.81683 L182.56752,-48.041977 L182.67422,-47.279423 L182.78093,-94.080666 L182.88763,-92.58735 L182.99434,-91.117744 L183.10103,-89.67146 L183.20773,-88.24813 L183.31444,-86.8474 L183.42114,-85.468895 L183.52785,-84.112274 L183.63455,-82.77719 L183.74124,-81.463295 L183.84795,-80.17026 L183.95465,-78.897736 L184.06136,-77.64542 L184.16806,-76.41298 L184.27477,-75.200096 L184.38145,-74.00647 L184.48816,-72.83179 L184.59486,-71.67576 L184.70157,-70.53807 L184.80827,-69.41844 L184.91498,-68.31658 L185.02167,-67.232216 L185.12837,-66.16506 L185.23508,-65.114845 L185.34178,-64.0813 L185.44849,-63.064156 L185.55519,-62.06316 L185.66188,-61.07805 L185.76859,-60.108578 L185.87529,-59.15449 L185.982,-58.215553 L186.0887,-57.291515 L186.1954,-56.382145 L186.3021,-55.48721 L186.4088,-54.60648 L186.5155,-53.739727 L186.62221,-52.886734 L186.72891,-52.04728 L186.83562,-51.22115 L186.9423,-50.408134 L187.04901,-49.60802 L187.15572,-48.82061 L187.26242,-48.045696 L187.36913,-47.28308 L187.47583,-46.532574 L187.58253,-45.793976 L187.68922,-45.067104 L187.79593,-44.35177 L187.90263,-43.647785 L188.00934,-42.95498 L188.11604,-42.273167 L188.22275,-41.60218 L188.32944,-40.94184 L188.43614,-40.291985 L188.54285,-39.652443 L188.64955,-39.023052 L188.75626,-38.403652 L188.86296,-37.794083 L188.96965,-37.19419 L189.07635,-36.603817 L189.18306,-36.022816 L189.28976,-35.45104 L189.39647,-34.888336 L189.50317,-34.334564 L189.60986,-33.78958 L189.71657,-33.25325 L189.82327,-32.725433 L189.92998,-32.205994 L190.03668,-31.694798 L190.14339,-31.191715 L190.25008,-30.696619 L190.35678,-30.209383 L190.46349,-29.729877 L190.57019,-29.257986 L190.6769,-28.793583 L190.7836,-28.336552 L190.89029,-27.886774 L190.997,-27.444138 L191.1037,-27.008524 L191.2104,-26.579826 L191.31711,-26.157934 L191.42381,-25.742737 L191.53052,-25.334131 L191.6372,-24.93201 L191.74391,-24.536272 L191.85062,-24.146816 L191.95732,-23.763542 L192.06403,-23.38635 L192.17073,-23.015146 L192.27742,-22.649834 L192.38412,-22.290321 L192.49083,-21.936514 L192.59753,-21.588322 L192.70424,-21.245659 L192.81094,-20.908432 L192.91763,-20.57656 L193.02434,-20.249954 L193.13104,-19.928534 L193.23775,-19.612215 L193.34445,-19.300917 L193.45116,-18.994558 L193.55785,-18.693064 L193.66455,-18.396355 L193.77126,-18.104355 L193.87796,-17.816992 L193.98466,-17.534187 L194.09137,-17.255873 L194.19806,-16.981976 L194.30476,-16.712427 L194.41147,-16.447155 L194.51817,-16.186094 L194.62488,-15.929178 L194.73158,-15.67634 L194.83827,-15.427514 L194.94498,-15.182638 L195.05168,-14.941649 L195.15839,-14.704485 L195.26509,-14.471086 L195.3718,-14.24139 L195.4785,-14.015342 L195.58519,-13.79288 L195.6919,-13.573951 L195.7986,-13.358496 L195.9053,-13.146461 L196.01201,-12.937791 L196.11871,-12.732433 L196.2254,-12.530335 L196.3321,-12.331446 L196.43881,-12.135713 L196.54552,-11.943087 L196.65222,-11.753517 L196.75893,-11.566957 L196.86562,-11.383359 L196.97232,-11.202675 L197.07903,-11.024858 L197.18573,-10.849864 L197.29243,-10.677648 L197.39914,-10.508164 L197.50583,-10.341372 L197.61253,-10.177227 L197.71924,-10.015687 L197.82594,-9.856711 L197.93265,-9.700258 L198.03935,-9.546289 L198.14604,-9.394764 L198.25275,-9.245645 L198.35945,-9.098891 L198.46616,-8.954468 L198.57286,-8.812336 L198.67957,-8.672461 L198.78625,-56.251503 L198.89296,-55.358643 L198.99966,-54.479954 L199.10637,-53.615208 L199.21307,-52.76419 L199.31978,-51.92668 L199.42647,-51.102467 L199.53317,-50.291336 L199.63988,-49.493076 L199.74658,-48.70749 L199.85329,-47.93437 L199.95999,-47.173523 L200.0667,-46.42475 L200.17339,-45.687866 L200.28009,-44.962677 L200.3868,-44.249 L200.4935,-43.54665 L200.6002,-42.85545 L200.70691,-42.175217 L200.8136,-41.505783 L200.9203,-40.846977 L201.02701,-40.198624 L201.13371,-39.560566 L201.24042,-38.932632 L201.34712,-38.314667 L201.45381,-37.706512 L201.56052,-37.108006 L201.66722,-36.519005 L201.77393,-35.93935 L201.88063,-35.368896 L201.98734,-34.807495 L202.09402,-34.25501 L202.20073,-33.71129 L202.30743,-33.1762 L202.41414,-32.649605 L202.52084,-32.13137 L202.62755,-31.621359 L202.73424,-31.119442 L202.84094,-30.625494 L202.94765,-30.139385 L203.05435,-29.660992 L203.16106,-29.190193 L203.26776,-75.93115 L203.37445,-74.72592 L203.48116,-73.53982 L203.58786,-72.37255 L203.69456,-71.2238 L203.80127,-70.09329 L203.90797,-68.98072 L204.01468,-67.88581 L204.12137,-66.80828 L204.22807,-65.747856 L204.33478,-64.70426 L204.44148,-63.67723 L204.54819,-62.666504 L204.65489,-61.671818 L204.76158,-60.69292 L204.86829,-59.72956 L204.97499,-58.781494 L205.0817,-57.848473 L205.1884,-56.930264 L205.2951,-56.026627 L205.4018,-55.137333 L205.5085,-54.262157 L205.6152,-53.40087 L205.72191,-52.553257 L205.82861,-51.719093 L205.93532,-50.898174 L206.042,-50.090282 L206.14871,-49.295216 L206.25542,-48.512768 L206.36212,-47.74274 L206.46883,-46.984936 L206.57553,-46.23916 L206.68222,-45.50522 L206.78893,-44.78293 L206.89563,-44.072105 L207.00233,-43.372562 L207.10904,-42.684124 L207.21574,-42.00661 L207.32243,-41.339855 L207.42914,-40.68368 L207.53584,-40.03792 L207.64255,-39.402412 L207.74925,-38.77699 L207.85596,-38.161495 L207.96266,-37.55577 L208.06935,-36.95966 L208.17606,-36.373013 L208.28276,-35.795673 L208.38947,-35.2275 L208.49617,-34.668346 L208.60287,-34.118065 L208.70956,-33.576523 L208.81627,-33.04357 L208.92297,-32.51908 L209.02968,-32.00292 L209.13638,-31.494946 L209.24309,-30.995035 L209.34978,-30.503061 L209.45648,-30.018896 L209.56319,-29.542416 L209.66989,-29.073498 L209.7766,-28.612024 L209.8833,-28.157875 L209.98999,-27.710934 L210.0967,-27.271088 L210.2034,-26.83822 L210.3101,-26.412228 L210.41681,-25.992994 L210.52351,-25.580416 L210.6302,-25.174385 L210.73691,-24.774801 L210.84361,-24.38156 L210.95032,-23.994558 L211.05702,-23.613699 L211.16373,-23.238888 L211.27042,-22.870024 L211.37712,-22.507015 L211.48383,-22.149769 L211.59053,-21.798193 L211.69724,-21.452196 L211.80394,-21.111692 L211.91063,-20.776594 L212.01733,-20.446814 L212.12404,-20.122267 L212.23074,-19.802874 L212.33745,-19.488548 L212.44415,-19.179213 L212.55086,-18.874788 L212.65755,-18.575193 L212.76425,-18.280355 L212.87096,-17.990198 L212.97766,-17.704645 L213.08437,-17.423626 L213.19107,-17.147066 L213.29776,-16.874895 L213.40446,-16.607046 L213.51117,-16.343447 L213.61787,-16.084034 L213.72458,-15.828736 L213.83128,-15.577492 L213.93797,-15.3302355 L214.04468,-15.086904 L214.15138,-14.847434 L214.25809,-14.611765 L214.36479,-14.379837 L214.4715,-14.151591 L214.57819,-13.926968 L214.68489,-13.705909 L214.7916,-13.488359 L214.8983,-13.274263 L215.005,-13.063565 L215.11171,-12.856211 L215.2184,-12.652148 L215.3251,-12.451325 L215.43181,-12.253689 L215.53851,-12.059191 L215.64522,-11.867779 L215.75192,-11.679405 L215.85861,-11.494021 L215.96532,-11.311581 L216.07202,-11.132035 L216.17873,-10.95534 L216.28543,-10.78145 L216.39214,-10.610319 L216.49884,-10.441905 L216.60553,-10.276164 L216.71223,-10.113054 L216.81894,-9.952533 L216.92564,-9.7945595 L217.03235,-9.639093 L217.13905,-9.486095 L217.24574,-9.3355255 L217.35245,-9.1873455 L217.45915,-9.041517 L217.56586,-8.898005 L217.67256,-8.756769 L217.77927,-8.617776 L217.88596,-8.4809885 L217.99266,-8.346373 L218.09937,-8.213894 L218.20607,-8.083517 L218.31277,-7.9552097 L218.41948,-7.8289394 L218.52617,-7.7046733 L218.63287,-7.5823793 L218.73958,-7.4620266 L218.84628,-7.3435845 L218.95299,-7.227022 L219.0597,-7.11231 L219.16638,-6.9994183 L219.27309,-6.888319 L219.37979,-6.7789826 L219.4865,-6.671382 L219.5932,-6.5654893 L219.6999,-6.4612775 L219.8066,-6.35872 L219.9133,-6.2577896 L220.02,-6.158462 L220.12671,-6.0607104 L220.23341,-5.964511 L220.34012,-5.869838 L220.44682,-5.776668 L220.55351,-5.6849766 L220.66022,-5.594741 L220.76692,-5.5059376 L220.87363,-5.4185433 L220.98033,-5.3325367 L221.08704,-5.2478952 L221.19373,-5.164597 L221.30043,-5.082621 L221.40714,-5.001946 L221.51384,-4.9225516 L221.62054,-4.8444176 L221.72725,-4.767524 L221.83394,-4.69185 L221.94064,-4.617378 L222.04735,-4.544088 L222.15405,-4.471961 L222.26076,-4.400979 L222.36746,-4.331124 L222.47415,-4.2623773 L222.58086,-4.1947217 L222.68756,-4.1281404 L222.79427,-4.062616 L222.90097,-3.9981313 L223.00768,-51.39767 L223.11436,-50.581852 L223.22107,-49.77898 L223.32777,-48.988857 L223.43448,-48.21127 L223.54118,-47.44603 L223.64789,-46.692932 L223.75458,-45.95179 L223.86128,-45.222412 L223.96799,-44.504612 L224.07469,-91.32968 L224.1814,-89.880035 L224.2881,-88.4534 L224.39479,-134.49081 L224.5015,-132.35608 L224.6082,-130.25523 L224.7149,-128.18774 L224.82161,-126.15305 L224.92831,-124.150665 L225.03502,-122.18006 L225.14171,-120.24074 L225.24841,-118.3322 L225.35512,-116.45395 L225.46182,-114.605515 L225.56853,-112.786415 L225.67523,-110.99619 L225.78192,-109.23438 L225.88863,-107.50054 L225.99533,-105.79422 L226.10204,-104.11498 L226.20874,-102.4624 L226.31544,-100.836044 L226.42213,-99.23551 L226.52884,-97.66038 L226.63554,-96.110245 L226.74225,-94.58472 L226.84895,-93.083405 L226.95566,-91.60592 L227.06235,-90.151886 L227.16905,-88.72094 L227.27576,-87.3127 L227.38246,-85.92681 L227.48917,-84.56292 L227.59587,-83.22068 L227.70256,-129.20154 L227.80927,-127.150764 L227.91597,-125.132545 L228.02267,-123.146355 L228.12938,-168.20474 L228.23608,-165.53488 L228.34277,-162.9074 L228.44948,-160.32162 L228.55618,-157.77689 L228.66289,-155.27255 L228.76959,-152.80795 L228.8763,-150.38248 L228.983,-147.99551 L229.08969,-145.64642 L229.1964,-143.33463 L229.3031,-188.39084 L229.4098,-185.40057 L229.51651,-182.45778 L229.62321,-179.56168 L229.7299,-176.71155 L229.83661,-173.90666 L229.94331,-171.1463 L230.05002,-168.42975 L230.15672,-165.75632 L230.26343,-163.12532 L230.37012,-160.53609 L230.47682,-157.98795 L230.58353,-155.48026 L230.69023,-153.01237 L230.79694,-150.58365 L230.90364,-148.19348 L231.01033,-145.84126 L231.11703,-143.52637 L231.22374,-141.24821 L231.33044,-139.00623 L231.43715,-136.79984 L231.54385,-134.62845 L231.65054,-132.49153 L231.75725,-130.38853 L231.86395,-128.31892 L231.97066,-126.28216 L232.07736,-124.277725 L232.18407,-122.3051 L232.29076,-120.36379 L232.39746,-118.4533 L232.50417,-116.57313 L232.61087,-114.7228 L232.71758,-112.90184 L232.82428,-111.10979 L232.93098,-109.346176 L233.03767,-107.61056 L233.14438,-105.90249 L233.25108,-104.221535 L233.35779,-102.56726 L233.4645,-100.93924 L233.5712,-99.33707 L233.67789,-97.76032 L233.78459,-96.2086 L233.8913,-94.68151 L233.998,-93.178665 L234.1047,-91.69967 L234.21141,-90.24415 L234.3181,-88.81173 L234.4248,-87.402054 L234.53151,-86.01475 L234.63821,-84.64946 L234.74492,-83.30585 L234.85162,-81.98356 L234.95831,-80.68227 L235.06502,-79.40162 L235.17172,-78.141304 L235.27843,-76.90099 L235.38513,-75.68037 L235.49184,-74.47912 L235.59853,-73.296936 L235.70523,-72.133514 L235.81194,-70.98856 L235.91864,-69.861786 L236.02534,-68.75289 L236.13205,-67.6616 L236.23874,-66.58762 L236.34544,-65.5307 L236.45215,-64.490555 L236.55885,-63.466915 L236.66556,-62.459526 L236.77226,-61.468124 L236.87895,-60.492462 L236.98566,-59.532284 L237.09236,-58.58735 L237.19907,-57.65741 L237.30577,-56.742233 L237.41248,-55.84158 L237.51918,-54.955227 L237.62587,-54.08294 L237.73257,-53.2245 L237.83928,-52.37968 L237.94598,-51.548275 L238.05269,-50.73007 L238.1594,-49.924843 L238.26608,-49.132404 L238.37279,-48.35254 L238.47949,-47.585056 L238.5862,-46.829754 L238.6929,-46.08644 L238.7996,-45.354923 L238.9063,-44.63502 L239.013,-43.926544 L239.1197,-43.229313 L239.22641,-42.543144 L239.33311,-41.867874 L239.43982,-41.203316 L239.54651,-40.54931 L239.65321,-39.905685 L239.75992,-39.272274 L239.86662,-38.64892 L239.97333,-38.035454 L240.08003,-37.431732 L240.18672,-36.83759 L240.29343,-36.252876 L240.40013,-35.67745 L240.50684,-35.11115 L240.61354,-34.553844 L240.72025,-34.00538 L240.82693,-33.465626 L240.93364,-32.934433 L241.04034,-32.41168 L241.14705,-31.897217 L241.25375,-31.390923 L241.36046,-30.892664 L241.46716,-30.402315 L241.57385,-29.919748 L241.68056,-29.444843 L241.78726,-28.977474 L241.89397,-28.517523 L242.00067,-28.064875 L242.10738,-27.61941 L242.21407,-27.181015 L242.32077,-74.450096 L242.42747,-73.26837 L242.53418,-72.10541 L242.64088,-70.9609 L242.74759,-69.83456 L242.85428,-68.7261 L242.96098,-67.63523 L243.06769,-66.561676 L243.1744,-65.505165 L243.2811,-64.46542 L243.3878,-63.442184 L243.49449,-62.43519 L243.6012,-61.444176 L243.7079,-60.46889 L243.8146,-59.509087 L243.92131,-58.564518 L244.02802,-57.63494 L244.1347,-56.72012 L244.24141,-55.81982 L244.34811,-54.93381 L244.45482,-54.061863 L244.56152,-53.20376 L244.66823,-52.359272 L244.77492,-51.52819 L244.88162,-50.7103 L244.98833,-97.19429 L245.09503,-95.65156 L245.20174,-94.133316 L245.30844,-92.63917 L245.41515,-91.16873 L245.52184,-89.72164 L245.62854,-88.297516 L245.73524,-86.895996 L245.84195,-85.51672 L245.94865,-84.15935 L246.05536,-82.82352 L246.16205,-81.50888 L246.26875,-80.21512 L246.37546,-78.94189 L246.48216,-77.688866 L246.58887,-76.45574 L246.69557,-75.24218 L246.80226,-74.04789 L246.90897,-72.87255 L247.01567,-71.715866 L247.12238,-70.577545 L247.22908,-69.45729 L247.33578,-68.35481 L247.44247,-67.26984 L247.54918,-66.20209 L247.65588,-65.15128 L247.76259,-64.11716 L247.8693,-63.099445 L247.976,-62.09789 L248.08269,-61.11223 L248.18939,-60.142216 L248.2961,-59.187595 L248.4028,-58.24813 L248.5095,-57.323578 L248.61621,-56.413696 L248.7229,-55.51826 L248.8296,-54.63704 L248.93631,-53.769802 L249.04301,-52.916332 L249.14972,-52.07641 L249.25642,-51.249813 L249.36313,-50.436344 L249.46982,-49.635784 L249.57652,-48.84793 L249.68323,-48.072582 L249.78993,-47.30954 L249.89664,-46.558613 L250.00334,-45.819603 L250.11003,-45.092323 L250.21674,-44.376587 L250.32344,-43.67221 L250.43015,-42.979015 L250.53685,-42.296825 L250.64355,-41.62546 L250.75024,-40.964752 L250.85695,-40.314533 L250.96365,-39.674633 L251.07036,-39.04489 L251.17706,-38.425144 L251.28377,-37.81523 L251.39046,-37.215004 L251.49716,-36.624302 L251.60387,-36.042976 L251.71057,-35.47088 L251.81728,-34.90786 L251.92398,-34.35378 L252.03067,-33.80849 L252.13737,-33.27186 L252.24408,-32.743748 L252.35078,-32.224014 L252.45749,-31.712534 L252.5642,-31.209171 L252.67088,-30.713799 L252.77759,-30.226288 L252.8843,-29.746515 L252.991,-29.274359 L253.0977,-28.809696 L253.2044,-28.35241 L253.3111,-27.90238 L253.4178,-27.459496 L253.5245,-27.02364 L253.63121,-26.594702 L253.73792,-26.172571 L253.84462,-25.757143 L253.95132,-25.348309 L254.05801,-24.945963 L254.16472,-24.550003 L254.27142,-24.16033 L254.37813,-23.77684 L254.48483,-23.399437 L254.59154,-23.028027 L254.69823,-22.66251 L254.80493,-22.302795 L254.91164,-21.94879 L255.01834,-21.600403 L255.12505,-21.257547 L255.23175,-20.920134 L255.33844,-20.588074 L255.44514,-20.261286 L255.55185,-19.939686 L255.65855,-19.62319 L255.76526,-19.311716 L255.87196,-19.005188 L255.97865,-18.703526 L256.08536,-18.40665 L256.19208,-18.114487 L256.29877,-17.826962 L256.40546,-17.544 L256.51218,-17.26553 L256.61887,-16.99148 L256.7256,-16.721779 L256.83228,-16.45636 L256.93896,-16.195152 L257.0457,-15.938092 L257.15237,-15.685112 L257.2591,-15.436148 L257.36578,-15.191134 L257.4725,-14.95001 L257.5792,-14.712713 L257.68588,-14.479183 L257.7926,-14.24936 L257.8993,-14.023185 L258.006,-13.800599 L258.1127,-13.581547 L258.21942,-13.365971 L258.3261,-13.153817 L258.4328,-12.945031 L258.53952,-12.739558 L258.6462,-12.537348 L258.75293,-12.3383465 L258.85962,-12.142504 L258.9663,-11.94977 L259.07303,-11.760095 L259.17972,-11.57343 L259.28644,-11.3897295 L259.39313,-11.208943 L259.49985,-11.031028 L259.60654,-10.855936 L259.71323,-10.683623 L259.81995,-10.514045 L259.92664,-10.347159 L260.03336,-10.182922 L260.14005,-10.021292 L260.24673,-9.8622265 L260.35345,-9.705687 L260.46014,-9.551632 L260.56686,-9.400022 L260.67355,-9.250818 L260.78027,-9.103983 L260.88696,-8.959478 L260.99365,-8.817267 L261.10037,-8.677314 L261.20706,-8.539581 L261.31378,-8.404036 L261.42047,-8.27064 L261.52716,-8.139363 L261.63388,-8.01017 L261.74057,-7.883027 L261.8473,-7.7579026 L261.95398,-7.6347637 L262.0607,-7.5135794 L262.1674,-7.394319 L262.27408,-7.2769513 L262.3808,-7.1614466 L262.4875,-7.0477753 L262.5942,-6.9359083 L262.7009,-6.8258166 L262.80762,-6.7174726 L262.9143,-6.6108484 L263.021,-6.5059166 L263.12772,-6.4026504 L263.2344,-6.301023 L263.34113,-6.201009 L263.4478,-6.1025825 L263.5545,-6.0057178 L263.66122,-5.910391 L263.7679,-5.8165774 L263.87463,-5.7242527 L263.98132,-52.958973 L264.08804,-52.11837 L264.19473,-51.29111 L264.30142,-50.476986 L264.40814,-49.67578 L264.51483,-48.88729 L264.62155,-48.11132 L264.72824,-47.347664 L264.83493,-46.59613 L264.94165,-45.856525 L265.04834,-45.12866 L265.15506,-44.412346 L265.26175,-43.7074 L265.36847,-43.01365 L265.47516,-42.330906 L265.58185,-41.659004 L265.68857,-40.997765 L265.79526,-40.34702 L265.90198,-39.706604 L266.00867,-39.07635 L266.1154,-38.45611 L266.22208,-37.845703 L266.32877,-37.24499 L266.4355,-36.653812 L266.54218,-36.07202 L266.6489,-35.499462 L266.75558,-34.93599 L266.86227,-34.381462 L266.969,-33.835735 L267.07568,-33.29867 L267.1824,-32.770134 L267.2891,-32.24998 L267.3958,-31.738089 L267.5025,-31.23432 L267.6092,-30.738548 L267.7159,-30.250645 L267.8226,-29.770487 L267.92932,-29.297949 L268.036,-28.832912 L268.1427,-28.375256 L268.24942,-27.924864 L268.3561,-27.481623 L268.46283,-27.045416 L268.56952,-26.616133 L268.67624,-26.193663 L268.78293,-25.777899 L268.88962,-25.368734 L268.99634,-24.966064 L269.10303,-24.569786 L269.20975,-24.179798 L269.31644,-23.796 L269.42313,-23.418293 L269.52985,-23.046583 L269.63654,-22.68077 L269.74326,-22.320766 L269.84995,-21.966476 L269.95667,-21.61781 L270.06335,-21.274677 L270.17004,-20.93699 L270.27676,-20.604664 L270.38345,-20.277613 L270.49017,-19.955753 L270.59686,-19.639002 L270.70358,-19.327278 L270.81027,-19.020502 L270.91696,-18.718597 L271.02368,-18.421482 L271.13037,-18.129084 L271.2371,-17.841328 L271.34378,-65.01971 L271.45047,-63.987667 L271.5572,-62.97201 L271.66388,-109.41136 L271.7706,-107.674706 L271.8773,-105.96562 L271.984,-104.28366 L272.0907,-102.6284 L272.1974,-100.99941 L272.3041,-99.396286 L272.4108,-97.818596 L272.51752,-96.26595 L272.6242,-94.73795 L272.7309,-93.234215 L272.83762,-91.75433 L272.9443,-90.29795 L273.05103,-88.86468 L273.1577,-87.454155 L273.26443,-86.066025 L273.37112,-84.69993 L273.4778,-83.355515 L273.58453,-82.03243 L273.69122,-80.73036 L273.79794,-79.44895 L273.90463,-78.18789 L274.01132,-76.94684 L274.11804,-75.72548 L274.22473,-74.52351 L274.33145,-73.34063 L274.43814,-72.17651 L274.54486,-71.03088 L274.65155,-69.90343 L274.75824,-68.79388 L274.86496,-67.701935 L274.97165,-66.62732 L275.07837,-65.56977 L275.18506,-64.529 L275.29178,-63.504753 L275.39847,-62.49676 L275.50516,-61.50477 L275.61188,-60.528522 L275.71857,-59.567776 L275.8253,-58.622272 L275.93198,-57.69178 L276.03867,-56.77606 L276.1454,-55.87487 L276.25208,-54.987988 L276.3588,-54.11518 L276.46548,-53.256226 L276.5722,-52.410908 L276.6789,-51.579006 L276.78558,-50.760307 L276.8923,-49.954605 L276.999,-49.161694 L277.1057,-48.381367 L277.2124,-47.613422 L277.3191,-46.85767 L277.4258,-46.113914 L277.5325,-45.38196 L277.63922,-44.66163 L277.7459,-43.95273 L277.85263,-43.25508 L277.95932,-42.56851 L278.066,-41.89283 L278.17273,-41.22788 L278.27942,-40.573483 L278.38614,-39.929474 L278.49283,-39.295685 L278.59955,-38.67196 L278.70624,-38.05813 L278.81293,-37.454044 L278.91965,-36.85955 L279.02634,-36.27449 L279.13306,-35.698715 L279.23975,-35.132084 L279.34644,-34.57444 L279.45316,-34.025654 L279.55984,-33.485573 L279.66656,-32.954067 L279.77325,-32.431 L279.87997,-31.916233 L279.98666,-31.409636 L280.09335,-30.911081 L280.20007,-30.420439 L280.30676,-29.937586 L280.41348,-29.462397 L280.52017,-28.99475 L280.62686,-28.534525 L280.73358,-28.081604 L280.84027,-27.635874 L280.947,-27.19722 L281.05368,-26.765526 L281.1604,-26.340685 L281.2671,-25.922588 L281.37378,-25.511127 L281.4805,-25.106197 L281.5872,-24.707695 L281.6939,-24.315517 L281.8006,-23.929565 L281.9073,-23.549738 L282.014,-23.175941 L282.1207,-22.808077 L282.22742,-22.446053 L282.3341,-22.089773 L282.44083,-21.73915 L282.54752,-21.39409 L282.6542,-21.054508 L282.76093,-20.720318 L282.8676,-20.39143 L282.97433,-20.067764 L283.08102,-19.749235 L283.18774,-67.07161 L283.29443,-66.007 L283.40112,-64.9593 L283.50784,-63.92822 L283.61453,-62.91351 L283.72125,-61.9149 L283.82794,-60.932148 L283.93463,-59.96499 L284.04135,-59.013184 L284.14804,-58.07649 L284.25476,-57.15466 L284.36145,-56.24746 L284.46817,-55.354664 L284.57486,-54.476036 L284.68155,-53.611355 L284.78827,-52.7604 L284.89496,-51.92295 L285.00168,-51.098793 L285.10837,-50.28772 L285.21506,-49.489517 L285.32178,-48.703987 L285.42847,-95.101494 L285.5352,-93.59198 L285.64188,-92.10642 L285.7486,-90.64445 L285.8553,-89.20567 L285.96198,-87.78974 L286.0687,-86.396286 L286.17538,-85.02495 L286.2821,-83.67537 L286.3888,-82.34722 L286.49548,-81.040146 L286.6022,-79.75382 L286.7089,-78.487915 L286.8156,-77.2421 L286.9223,-76.01606 L287.02902,-74.80949 L287.1357,-73.622055 L287.2424,-72.453476 L287.34912,-71.303444 L287.4558,-70.17167 L287.56253,-69.05786 L287.66922,-67.96172 L287.77594,-66.88299 L287.88263,-65.82138 L287.98932,-64.77662 L288.09604,-63.748436 L288.20273,-62.73658 L288.30945,-61.74078 L288.41614,-60.76079 L288.52283,-59.796352 L288.62955,-58.847225 L288.73624,-57.913162 L288.84296,-56.993923 L288.94965,-56.08928 L289.05637,-55.19899 L289.16306,-54.322834 L289.26974,-53.460587 L289.37646,-52.612022 L289.48315,-51.776928 L289.58987,-50.95509 L289.69656,-50.146297 L289.80325,-49.35034 L289.90997,-48.56702 L290.01666,-47.79613 L290.12338,-47.03748 L290.23007,-46.290867 L290.3368,-45.556107 L290.44348,-44.833008 L290.55017,-44.121387 L290.6569,-43.421066 L290.76358,-42.731857 L290.8703,-42.053585 L290.977,-41.38608 L291.0837,-40.729176 L291.1904,-40.082695 L291.2971,-39.446476 L291.4038,-38.820354 L291.5105,-38.20417 L291.61722,-37.597767 L291.7239,-37.00099 L291.8306,-36.413685 L291.93732,-35.8357 L292.044,-35.266895 L292.15073,-34.707115 L292.25742,-34.15622 L292.36414,-33.614067 L292.47083,-33.080524 L292.5775,-32.555447 L292.68423,-32.038704 L292.79092,-31.530165 L292.89764,-31.029696 L293.00433,-30.537172 L293.11102,-30.052465 L293.21774,-29.57545 L293.32443,-29.10601 L293.43115,-28.64402 L293.53784,-28.189362 L293.64456,-27.741922 L293.75125,-27.301582 L293.85794,-26.868233 L293.96466,-26.441763 L294.07135,-26.02206 L294.17807,-25.60902 L294.28476,-25.202538 L294.39145,-24.802505 L294.49817,-24.408823 L294.60486,-24.021389 L294.71158,-23.640106 L294.81827,-70.71526 L294.925,-69.59283 L295.03168,-68.488205 L295.13837,-67.40111 L295.2451,-66.331276 L295.35178,-65.27842 L295.4585,-64.24228 L295.5652,-63.22258 L295.6719,-62.219067 L295.7786,-61.231483 L295.88528,-60.259575 L295.992,-59.303093 L296.0987,-58.361797 L296.2054,-57.435436 L296.3121,-56.523785 L296.4188,-55.6266 L296.5255,-54.743656 L296.6322,-53.87473 L296.73892,-53.019592 L296.8456,-52.17803 L296.95233,-51.349823 L297.05902,-50.534763 L297.1657,-49.732643 L297.27243,-48.943253 L297.37912,-48.16639 L297.48584,-47.40186 L297.59253,-46.649467 L297.69922,-45.909016 L297.80594,-45.180317 L297.91263,-44.463184 L298.01935,-43.75743 L298.12604,-43.062885 L298.23276,-42.37936 L298.33945,-41.706688 L298.44614,-41.04469 L298.55286,-40.3932 L298.65955,-39.752052 L298.76627,-39.121082 L298.87296,-38.500126 L298.97964,-37.889027 L299.08636,-84.81739 L299.19305,-83.47111 L299.29977,-82.146194 L299.40646,-80.842316 L299.51318,-79.559135 L299.61987,-78.29632 L299.72656,-77.05354 L299.83328,-75.8305 L299.93997,-74.62686 L300.0467,-73.44234 L300.15338,-72.27661 L300.2601,-71.12939 L300.3668,-70.000374 L300.47348,-68.88928 L300.5802,-67.79582 L300.6869,-66.71972 L300.7936,-65.6607 L300.9003,-64.618484 L301.007,-63.59282 L301.1137,-62.58343 L301.2204,-61.590065 L301.32712,-60.612465 L301.4338,-59.650383 L301.54053,-58.70357 L301.64722,-57.77179 L301.7539,-56.854794 L301.86063,-55.95236 L301.96732,-55.064243 L302.07404,-54.190228 L302.18073,-53.330082 L302.2874,-52.48359 L302.39413,-51.650536 L302.50082,-50.830704 L302.60754,-50.023884 L302.71423,-49.22987 L302.82095,-48.44846 L302.92764,-47.679455 L303.03433,-46.922653 L303.14105,-46.177864 L303.24774,-45.444897 L303.35446,-44.723564 L303.46115,-44.013683 L303.56787,-43.315067 L303.67456,-42.62754 L303.78125,-41.950928 L303.88797,-41.285053 L303.99466,-40.62975 L304.10138,-39.984848 L304.20807,-39.35018 L304.31476,-38.725586 L304.42148,-38.11091 L304.52817,-37.505985 L304.6349,-36.910667 L304.74158,-36.324795 L304.8483,-35.748222 L304.955,-35.1808 L305.06168,-34.62239 L305.1684,-34.072838 L305.2751,-33.532013 L305.3818,-32.999767 L305.4885,-32.475975 L305.59518,-31.960493 L305.7019,-31.453196 L305.8086,-30.953949 L305.9153,-30.462626 L306.022,-29.979103 L306.12872,-77.12405 L306.2354,-75.89988 L306.3421,-74.695145 L306.44882,-73.50954 L306.5555,-72.34274 L306.66223,-71.194466 L306.76892,-117.302765 L306.8756,-115.44086 L306.98233,-113.6085 L307.08902,-111.80523 L307.19574,-110.03058 L307.30243,-108.284096 L307.40915,-106.56534 L307.51584,-104.87386 L307.62253,-103.209236 L307.72925,-149.05077 L307.83594,-146.68492 L307.94266,-144.35664 L308.04935,-142.0653 L308.15607,-139.81036 L308.26276,-137.59119 L308.36945,-135.40726 L308.47617,-133.25798 L308.58286,-131.14282 L308.68958,-129.06123 L308.79626,-127.01268 L308.90295,-124.99665 L309.00967,-123.01262 L309.11636,-121.060074 L309.22308,-119.13853 L309.32977,-117.24748 L309.4365,-115.38645 L309.54318,-113.554955 L309.64987,-111.75253 L309.7566,-109.97872 L309.86328,-108.23306 L309.97,-106.515114 L310.0767,-104.82444 L310.18338,-103.16059 L310.2901,-101.523155 L310.3968,-99.91171 L310.5035,-98.32584 L310.6102,-96.76515 L310.71692,-95.229225 L310.8236,-93.71768 L310.9303,-92.23013 L311.03702,-90.7662 L311.1437,-89.32549 L311.25043,-87.90765 L311.35712,-86.51233 L311.4638,-85.139145 L311.57053,-83.78776 L311.67722,-82.457825 L311.78394,-81.148994 L311.89063,-79.86095 L311.99734,-78.59334 L312.10403,-77.34585 L312.21072,-76.118164 L312.31744,-74.909966 L312.42413,-73.72094 L312.53085,-72.5508 L312.63754,-71.399216 L312.74426,-70.26592 L312.85095,-69.15061 L312.95764,-68.05301 L313.06436,-66.972824 L313.17105,-65.90978 L313.27777,-64.86362 L313.38446,-63.83406 L313.49115,-62.820843 L313.59787,-61.823708 L313.70456,-60.8424 L313.81128,-59.876667 L313.91797,-58.926266 L314.0247,-57.990948 L314.13138,-57.070477 L314.23807,-56.164616 L314.3448,-55.273132 L314.45148,-54.395798 L314.5582,-53.53239 L314.6649,-52.68269 L314.77158,-51.846474 L314.8783,-51.02353 L314.985,-50.21365 L315.0917,-49.416626 L315.1984,-48.63225 L315.3051,-47.86033 L315.4118,-47.100655 L315.5185,-46.353043 L315.6252,-45.617294 L315.7319,-44.893227 L315.83862,-44.18065 L315.9453,-43.479385 L316.05203,-42.78925 L316.15872,-42.11007 L316.2654,-41.44167 L316.37213,-40.783882 L316.47882,-40.13653 L316.58554,-39.49946 L316.69223,-38.872494 L316.79892,-38.255486 L316.90564,-37.648266 L317.01233,-37.05069 L317.11905,-36.462593 L317.22574,-35.883835 L317.33246,-35.314262 L317.43915,-34.75373 L317.54584,-34.202095 L317.65256,-33.659218 L317.75925,-33.124954 L317.86597,-32.599174 L317.97266,-32.081738 L318.07935,-31.572514 L318.18607,-31.071373 L318.29276,-30.578188 L318.39948,-30.092829 L318.50616,-29.615175 L318.61288,-29.145103 L318.71957,-28.682493 L318.82626,-28.227224 L318.93298,-27.779182 L319.03967,-27.338253 L319.1464,-26.904322 L319.25308,-26.477278 L319.35977,-26.057013 L319.4665,-25.643417 L319.57318,-25.236387 L319.6799,-24.83582 L319.7866,-24.441608 L319.8933,-24.053654 L320,-23.671858" fill="none" stroke="#0971B2" stroke-linejoin="round" stroke-width="1.2"/>
</g>
<g>
<path d="M17.900795,-63.342632 l2.4,2.4 m-2.4,0 l2.4,-2.4 z" fill="none" stroke="#FF0000" stroke-width="2"/>
<path d="M18.46569,-106.03116 l2.4,2.4 m-2.4,0 l2.4,-2.4 z" fill="none" stroke="#FF0000" stroke-width="2"/>
<path d="M21.84509,-112.09174 l2.4,2.4 m-2.4,0 l2.4,-2.4 z" fill="none" stroke="#FF0000" stroke-width="2"/>
<path d="M26.857977,-101.2291 l2.4,2.4 m-2.4,0 l2.4,-2.4 z" fill="none" stroke="#FF0000" stroke-width="2"/>
<path d="M34.887894,-78.94094 l2.4,2.4 m-2.4,0 l2.4,-2.4 z" fill="none" stroke="#FF0000" stroke-width="2"/>
<path d="M48.276352,-59.37705 l2.4,2.4 m-2.4,0 l2.4,-2.4 z" fill="none" stroke="#FF0000" stroke-width="2"/>
<path d="M49.710423,-95.855995 l2.4,2.4 m-2.4,0 l2.4,-2.4 z" fill="none" stroke="#FF0000" stroke-width="2"/>
<path d="M51.8947,-117.15417 l2.4,2.4 m-2.4,0 l2.4,-2.4 z" fill="none" stroke="#FF0000" stroke-width="2"/>
<path d="M59.344887,-86.87689 l2.4,2.4 m-2.4,0 l2.4,-2.4 z" fill="none" stroke="#FF0000" stroke-width="2"/>
<path d="M59.62766,-131.05557 l2.4,2.4 m-2.4,0 l2.4,-2.4 z" fill="none" stroke="#FF0000" stroke-width="2"/>
<path d="M75.81816,-60.393257 l2.4,2.4 m-2.4,0 l2.4,-2.4 z" fill="none" stroke="#FF0000" stroke-width="2"/>
<path d="M80.035736,-80.38507 l2.4,2.4 m-2.4,0 l2.4,-2.4 z" fill="none" stroke="#FF0000" stroke-width="2"/>
<path d="M94.293495,-58.271225 l2.4,2.4 m-2.4,0 l2.4,-2.4 z" fill="none" stroke="#FF0000" stroke-width="2"/>
<path d="M99.59631,-74.70382 l2.4,2.4 m-2.4,0 l2.4,-2.4 z" fill="none" stroke="#FF0000" stroke-width="2"/>
<path d="M120.81145,-51.98862 l2.4,2.4 m-2.4,0 l2.4,-2.4 z" fill="none" stroke="#FF0000" stroke-width="2"/>
<path d="M121.11467,-97.46667 l2.4,2.4 m-2.4,0 l2.4,-2.4 z" fill="none" stroke="#FF0000" stroke-width="2"/>
<path d="M141.36923,-53.55356 l2.4,2.4 m-2.4,0 l2.4,-2.4 z" fill="none" stroke="#FF0000" stroke-width="2"/>
<path d="M144.6007,-81.18381 l2.4,2.4 m-2.4,0 l2.4,-2.4 z" fill="none" stroke="#FF0000" stroke-width="2"/>
<path d="M162.96567,-54.029263 l2.4,2.4 m-2.4,0 l2.4,-2.4 z" fill="none" stroke="#FF0000" stroke-width="2"/>
<path d="M175.17282,-57.406223 l2.4,2.4 m-2.4,0 l2.4,-2.4 z" fill="none" stroke="#FF0000" stroke-width="2"/>
<path d="M177.27475,-89.946655 l2.4,2.4 m-2.4,0 l2.4,-2.4 z" fill="none" stroke="#FF0000" stroke-width="2"/>
<path d="M181.55519,-95.64454 l2.4,2.4 m-2.4,0 l2.4,-2.4 z" fill="none" stroke="#FF0000" stroke-width="2"/>
<path d="M197.58362,-57.473793 l2.4,2.4 m-2.4,0 l2.4,-2.4 z" fill="none" stroke="#FF0000" stroke-width="2"/>
<path d="M201.99312,-77.98582 l2.4,2.4 m-2.4,0 l2.4,-2.4 z" fill="none" stroke="#FF0000" stroke-width="2"/>
<path d="M221.76947,-52.892876 l2.4,2.4 m-2.4,0 l2.4,-2.4 z" fill="none" stroke="#FF0000" stroke-width="2"/>
<path d="M222.84612,-92.92191 l2.4,2.4 m-2.4,0 l2.4,-2.4 z" fill="none" stroke="#FF0000" stroke-width="2"/>
<path d="M223.15356,-136.52483 l2.4,2.4 m-2.4,0 l2.4,-2.4 z" fill="none" stroke="#FF0000" stroke-width="2"/>
<path d="M226.44168,-131.58647 l2.4,2.4 m-2.4,0 l2.4,-2.4 z" fill="none" stroke="#FF0000" stroke-width="2"/>
<path d="M226.82767,-171.98993 l2.4,2.4 m-2.4,0 l2.4,-2.4 z" fill="none" stroke="#FF0000" stroke-width="2"/>
<path d="M228.04639,-191.2 l2.4,2.4 m-2.4,0 l2.4,-2.4 z" fill="none" stroke="#FF0000" stroke-width="2"/>
<path d="M241.11588,-75.704865 l2.4,2.4 m-2.4,0 l2.4,-2.4 z" fill="none" stroke="#FF0000" stroke-width="2"/>
<path d="M243.72563,-99.312416 l2.4,2.4 m-2.4,0 l2.4,-2.4 z" fill="none" stroke="#FF0000" stroke-width="2"/>
<path d="M262.7238,-54.61781 l2.4,2.4 m-2.4,0 l2.4,-2.4 z" fill="none" stroke="#FF0000" stroke-width="2"/>
<path d="M270.10538,-66.59512 l2.4,2.4 m-2.4,0 l2.4,-2.4 z" fill="none" stroke="#FF0000" stroke-width="2"/>
<path d="M270.4223,-111.29571 l2.4,2.4 m-2.4,0 l2.4,-2.4 z" fill="none" stroke="#FF0000" stroke-width="2"/>
<path d="M281.9738,-68.41207 l2.4,2.4 m-2.4,0 l2.4,-2.4 z" fill="none" stroke="#FF0000" stroke-width="2"/>
<path d="M284.14908,-97.440674 l2.4,2.4 m-2.4,0 l2.4,-2.4 z" fill="none" stroke="#FF0000" stroke-width="2"/>
<path d="M293.5783,-72.340324 l2.4,2.4 m-2.4,0 l2.4,-2.4 z" fill="none" stroke="#FF0000" stroke-width="2"/>
<path d="M297.85754,-86.38472 l2.4,2.4 m-2.4,0 l2.4,-2.4 z" fill="none" stroke="#FF0000" stroke-width="2"/>
<path d="M304.91266,-78.509995 l2.4,2.4 m-2.4,0 l2.4,-2.4 z" fill="none" stroke="#FF0000" stroke-width="2"/>
<path d="M305.49908,-119.73758 l2.4,2.4 m-2.4,0 l2.4,-2.4 z" fill="none" stroke="#FF0000" stroke-width="2"/>
<path d="M306.4934,-151.05402 l2.4,2.4 m-2.4,0 l2.4,-2.4 z" fill="none" stroke="#FF0000" stroke-width="2"/>
</g>
<g>
<g>
<line stroke="black" stroke-width="1" x1="0" x2="0" y1="0" y2="10"/>
<line stroke="black" stroke-width="1" x1="53.351117039013005" x2="53.351117039013005" y1="0" y2="10"/>
<line stroke="black" stroke-width="1" x1="106.70223407802601" x2="106.70223407802601" y1="0" y2="10"/>
<line stroke="black" stroke-width="1" x1="160.05335111703903" x2="160.05335111703903" y1="0" y2="10"/>
<line stroke="black" stroke-width="1" x1="213.40446815605202" x2="213.40446815605202" y1="0" y2="10"/>
<line stroke="black" stroke-width="1" x1="266.755585195065" x2="266.755585195065" y1="0" y2="10"/>
</g>
<line stroke="black" stroke-width="1" x1="0" x2="320" y1="0" y2="0"/>
<g>
<text font-size="12" text-anchor="middle" x="0" y="20">
0
</text>
<text font-size="12" text-anchor="middle" x="53.351117039013005" y="20">
10
</text>
<text font-size="12" text-anchor="middle" x="106.70223407802601" y="20">
20
</text>
<text font-size="12" text-anchor="middle" x="160.05335111703903" y="20">
30
</text>
<text font-size="12" text-anchor="middle" x="213.40446815605202" y="20">
40
</text>
<text font-size="12" text-anchor="middle" x="266.755585195065" y="20">
50
</text>
</g>
<text font-size="12" text-anchor="middle" x="160" y="30">
Time t
</text>
</g>
<g>
<g>
<line stroke="black" stroke-width="1" x1="0" x2="-10" y1="-0.0000000000000264985851826415" y2="-0.0000000000000264985851826415"/>
<line stroke="black" stroke-width="1" x1="0" x2="-10" y1="-47.73560734175586" y2="-47.73560734175586"/>
<line stroke="black" stroke-width="1" x1="0" x2="-10" y1="-95.47121468351169" y2="-95.47121468351169"/>
<line stroke="black" stroke-width="1" x1="0" x2="-10" y1="-143.20682202526757" y2="-143.20682202526757"/>
</g>
<line stroke="black" stroke-width="1" x1="0" x2="0" y1="0" y2="-190"/>
<g>
<text dominant-baseline="middle" font-size="12" text-anchor="end" x="-15" y="-0.0000000000000264985851826415">
0.6000000000000001
</text>
<text dominant-baseline="middle" font-size="12" text-anchor="end" x="-15" y="-47.73560734175586">
0.8
</text>
<text dominant-baseline="middle" font-size="12" text-anchor="end" x="-15" y="-95.47121468351169">
1
</text>
<text dominant-baseline="middle" font-size="12" text-anchor="end" x="-15" y="-143.20682202526757">
1.2000000000000002
</text>
</g>
<text font-size="12" text-anchor="middle" transform="rotate(-90 -30 -95)" x="-30" y="-95">
(t)
</text>
</g>
</g>
</svg>