<svg viewBox="0 0 600 300" xmlns="http://www.w3.org/2000/svg">
<g transform="translate(48, 264)">
<g>
<path d="M0,0 L0,0 L0.17339113,0 L0.34678227,0 L0.5201734,0 L0.69356453,0 L0.86695564,0 L1.0403467,0 L1.213738,0 L1.3871291,0 L1.5605202,0 L1.7339113,0 L1.9073024,0 L2.0806935,0 L2.2540846,0 L2.427476,0 L2.600867,0 L2.7742581,0 L2.9476492,0 L3.1210403,0 L3.2944314,0 L3.4678226,0 L3.6412137,0 L3.8146048,0 L3.987996,0 L4.161387,0 L4.3347783,0 L4.508169,0 L4.6815605,0 L4.854952,0 L5.0283427,0 L5.201734,0 L5.375125,0 L5.5485163,0 L5.721907,0 L5.8952985,0 L6.0686893,0 L6.2420807,0 L6.415472,0 L6.588863,0 L6.762254,0 L6.935645,0 L7.1090364,0 L7.2824273,0 L7.4558187,0 L7.6292095,0 L7.802601,0 L7.975992,0 L8.149384,0 L8.322774,0 L8.496165,0 L8.669557,0 L8.842948,0 L9.016338,0 L9.18973,0 L9.363121,0 L9.536512,0 L9.709904,0 L9.883294,0 L10.056685,0 L10.230077,0 L10.403468,0 L10.5768585,0 L10.75025,0 L10.923641,0 L11.097033,0 L11.270424,0 L11.443814,0 L11.617206,0 L11.790597,0 L11.963988,0 L12.137379,0 L12.31077,0 L12.484161,0 L12.657553,0 L12.830944,0 L13.004334,0 L13.177726,0 L13.351117,0 L13.524508,0 L13.697899,0 L13.87129,0 L14.044682,0 L14.218073,0 L14.391464,0 L14.564855,0 L14.738246,0 L14.911637,0 L15.085029,0 L15.258419,0 L15.43181,0 L15.605202,0 L15.778593,0 L15.951984,0 L16.125376,0 L16.298767,0 L16.472157,0 L16.645548,0 L16.81894,0 L16.99233,0 L17.165722,0 L17.339113,0 L17.512505,0 L17.685896,0 L17.859287,0 L18.032677,0 L18.206068,0 L18.37946,0 L18.55285,0 L18.726242,0 L18.899633,0 L19.073025,0 L19.246416,0 L19.419807,0 L19.593197,0 L19.766588,0 L19.93998,0 L20.11337,0 L20.286762,0 L20.460154,0 L20.633545,0 L20.806936,0 L20.980328,0 L21.153717,0 L21.327108,0 L21.5005,0 L21.673891,0 L21.847282,0 L22.020674,0 L22.194065,0 L22.367456,0 L22.540848,0 L22.714237,0 L22.887629,0 L23.06102,0 L23.234411,0 L23.407803,0 L23.581194,0 L23.754585,0 L23.927977,0 L24.101368,0 L24.274757,0 L24.448149,-53.567017 L24.62154,-51.98387 L24.794931,-50.447517 L24.968323,-48.956566 L25.141714,-47.50968 L25.315105,-46.10556 L25.488497,-44.74293 L25.661888,-43.420578 L25.835278,-42.137306 L26.008669,-40.89196 L26.18206,-39.683422 L26.355452,-38.5106 L26.528843,-37.37244 L26.702234,-36.267918 L26.875626,-35.196037 L27.049017,-34.155838 L27.222408,-33.14638 L27.395798,-32.166756 L27.56919,-31.216085 L27.74258,-30.29351 L27.915972,-29.398203 L28.089363,-28.529354 L28.262754,-27.686184 L28.436146,-26.867933 L28.609537,-26.073866 L28.782928,-25.303267 L28.956318,-24.555443 L29.12971,-23.82972 L29.3031,-23.125444 L29.476492,-22.441984 L29.649883,-21.778723 L29.823275,-21.135065 L29.996666,-20.51043 L30.170057,-19.904255 L30.343449,-19.315994 L30.516838,-18.745121 L30.69023,-18.191118 L30.86362,-17.65349 L31.037012,-17.13175 L31.210403,-16.625431 L31.383795,-16.134075 L31.557186,-15.657242 L31.730577,-15.1945 L31.903969,-14.745435 L32.07736,-14.309641 L32.25075,-13.886727 L32.42414,-13.476313 L32.597534,-13.078028 L32.770924,-12.691513 L32.944313,-12.316422 L33.117706,-11.952417 L33.291096,-11.59917 L33.46449,-11.256362 L33.63788,-10.923687 L33.81127,-10.600842 L33.98466,-10.28754 L34.158054,-9.983498 L34.331444,-9.688441 L34.504833,-9.402104 L34.678226,-9.12423 L34.851616,-8.8545685 L35.02501,-8.592876 L35.1984,-8.338919 L35.37179,-8.092466 L35.54518,-7.8532977 L35.718575,-7.6211977 L35.891964,-7.395957 L36.065353,-7.1773734 L36.238747,-6.96525 L36.412136,-6.759396 L36.58553,-6.5596256 L36.75892,-6.3657594 L36.932312,-6.177623 L37.1057,-5.995046 L37.279095,-5.817866 L37.452484,-5.645922 L37.625874,-5.4790597 L37.799267,-5.317129 L37.972656,-59.645847 L38.14605,-57.88305 L38.31944,-56.172344 L38.492832,-54.5122 L38.66622,-52.901123 L38.839615,-51.337658 L39.013004,-49.8204 L39.186394,-48.347984 L39.359787,-46.919086 L39.533176,-45.532417 L39.70657,-44.18673 L39.87996,-42.880817 L40.053352,-41.613495 L40.22674,-40.383633 L40.400135,-39.190117 L40.573524,-38.03187 L40.746914,-36.90786 L40.920307,-35.81707 L41.093697,-34.758514 L41.26709,-33.731243 L41.44048,-32.734337 L41.613873,-31.76689 L41.787262,-30.828037 L41.960655,-29.91693 L42.134045,-29.032751 L42.307434,-28.174704 L42.480827,-27.342016 L42.654217,-26.533937 L42.82761,-25.74974 L43.001,-24.98872 L43.174393,-24.250193 L43.347782,-23.533491 L43.521175,-22.83797 L43.694565,-22.163008 L43.867954,-21.507992 L44.041348,-20.872334 L44.214737,-20.255463 L44.38813,-19.656824 L44.56152,-19.075876 L44.734913,-18.5121 L44.908302,-17.964985 L45.081696,-17.434038 L45.255085,-16.918785 L45.428474,-16.41876 L45.601868,-15.933512 L45.775257,-15.462605 L45.94865,-15.005616 L46.12204,-14.562133 L46.295433,-14.131757 L46.468822,-13.714101 L46.642216,-13.308787 L46.815605,-12.915454 L46.988995,-12.533744 L47.162388,-12.163316 L47.335777,-11.803836 L47.50917,-11.45498 L47.68256,-11.116434 L47.855953,-10.787893 L48.029343,-10.469063 L48.202736,-10.159656 L48.376125,-9.859392 L48.549515,-9.568004 L48.722908,-9.285226 L48.896297,-9.010806 L49.06969,-8.744496 L49.24308,-8.486057 L49.416473,-8.235257 L49.589863,-7.991868 L49.763256,-7.755673 L49.936646,-7.526458 L50.110035,-7.3040175 L50.28343,-7.0881515 L50.456818,-61.00975 L50.63021,-59.206642 L50.8036,-57.45682 L50.976994,-55.758713 L51.150383,-54.110794 L51.323776,-52.51158 L51.497166,-50.95963 L51.670555,-49.453545 L51.84395,-47.99197 L52.017338,-46.573593 L52.19073,-45.197136 L52.36412,-43.86136 L52.537514,-42.56506 L52.710903,-41.30707 L52.884296,-40.08626 L53.057686,-38.901535 L53.231075,-37.75182 L53.40447,-36.636086 L53.577858,-35.553326 L53.75125,-34.502567 L53.92464,-33.48286 L54.098034,-32.493294 L54.271423,-31.532972 L54.444817,-30.601032 L54.618206,-29.696634 L54.791595,-28.818966 L54.96499,-27.967237 L55.13838,-27.14068 L55.31177,-26.338552 L55.48516,-25.56013 L55.658554,-24.804714 L55.831944,-24.071625 L56.005337,-23.360199 L56.178726,-22.669802 L56.352116,-21.999807 L56.52551,-21.349615 L56.6989,-20.71864 L56.87229,-20.10631 L57.04568,-19.51208 L57.219074,-18.93541 L57.392464,-18.375784 L57.565857,-17.832697 L57.739246,-17.305662 L57.912636,-16.794203 L58.08603,-16.29786 L58.25942,-15.816184 L58.43281,-15.348745 L58.6062,-14.895121 L58.779594,-14.454904 L58.952984,-14.027697 L59.126377,-13.613115 L59.299767,-13.210787 L59.473156,-12.82035 L59.64655,-12.441451 L59.81994,-12.0737505 L59.993332,-11.716917 L60.16672,-11.37063 L60.340115,-11.034577 L60.513504,-10.708456 L60.686897,-10.3919735 L60.860287,-10.084845 L61.033676,-9.786792 L61.20707,-9.497548 L61.38046,-9.216853 L61.553852,-8.944454 L61.72724,-8.680106 L61.900635,-8.42357 L62.074024,-8.174616 L62.247417,-7.933019 L62.420807,-7.698563 L62.594196,-7.4710364 L62.76759,-7.2502337 L62.94098,-7.035957 L63.114372,-6.828013 L63.28776,-6.626215 L63.461155,-6.4303803 L63.634544,-6.240334 L63.807938,-6.0559044 L63.981327,-5.8769255 L64.15472,-5.703236 L64.32811,-5.53468 L64.5015,-5.371105 L64.67489,-5.212365 L64.84828,-5.0583167 L65.021675,-4.9088206 L65.19507,-4.763743 L65.368454,-4.622953 L65.54185,-4.4863243 L65.71524,-4.3537335 L65.888626,-4.225061 L66.06202,-4.1001916 L66.23541,-3.9790127 L66.408806,-3.8614151 L66.58219,-3.747293 L66.755585,-3.6365438 L66.92898,-3.5290678 L67.10237,-3.424768 L67.27576,-3.3235507 L67.44915,-3.2253249 L67.62254,-3.1300023 L67.79593,-3.0374966 L67.96932,-2.947725 L68.142715,-2.8606067 L68.31611,-2.776063 L68.489494,-2.694018 L68.66289,-2.6143975 L68.83628,-2.5371306 L69.00967,-2.462147 L69.18306,-2.3893795 L69.35645,-2.3187628 L69.52985,-2.250233 L69.70323,-2.1837285 L69.876625,-2.1191895 L70.05002,-2.056558 L70.22341,-1.9957775 L70.3968,-1.9367934 L70.57019,-1.8795525 L70.74358,-1.8240033 L70.91697,-1.7700958 L71.09036,-1.7177817 L71.263756,-1.6670135 L71.43715,-1.6177459 L71.610535,-1.5699342 L71.78393,-1.5235356 L71.95732,-1.4785084 L72.13071,-1.4348118 L72.3041,-1.3924067 L72.47749,-1.3512549 L72.65089,-1.3113192 L72.82427,-1.2725639 L72.997665,-55.639774 L73.17106,-53.995373 L73.34445,-52.399567 L73.51784,-50.850925 L73.69123,-49.348053 L73.864624,-47.8896 L74.03801,-46.474247 L74.2114,-45.100727 L74.384796,-43.7678 L74.55819,-42.474262 L74.731575,-41.21896 L74.90497,-40.000755 L75.07836,-38.818554 L75.25175,-37.67129 L75.42514,-36.557938 L75.59853,-35.477486 L75.77193,-34.42897 L75.94531,-33.411438 L76.118706,-32.42398 L76.2921,-31.465708 L76.46549,-30.535757 L76.63888,-29.633287 L76.81227,-28.757492 L76.985664,-27.90758 L77.15905,-27.082787 L77.33244,-26.28237 L77.50584,-25.505608 L77.67923,-24.751802 L77.852615,-24.020277 L78.02601,-23.31037 L78.1994,-22.621445 L78.37279,-21.95288 L78.54618,-21.304073 L78.719574,-20.674444 L78.89297,-20.063421 L79.06635,-19.470457 L79.239746,-18.89502 L79.41314,-18.336586 L79.58653,-17.794659 L79.75992,-17.268747 L79.93331,-71.22083 L80.106705,-69.11594 L80.28009,-67.07325 L80.45348,-65.09094 L80.62688,-63.16721 L80.80027,-61.30034 L80.973656,-59.48864 L81.14705,-57.730484 L81.32044,-56.024292 L81.49383,-54.368523 L81.66722,-52.76169 L81.840614,-51.202347 L82.01401,-49.689087 L82.18739,-48.220554 L82.36079,-46.79542 L82.53418,-45.412407 L82.70757,-44.070267 L82.88096,-42.767796 L83.05435,-41.503815 L83.227745,-40.27719 L83.40113,-39.086823 L83.574524,-37.93163 L83.74792,-36.81058 L83.92131,-35.722664 L84.094696,-34.6669 L84.26809,-33.642338 L84.44148,-32.648056 L84.61487,-31.68316 L84.78826,-30.746782 L84.961655,-29.838078 L85.13505,-28.95623 L85.30843,-28.100443 L85.48183,-27.269949 L85.65522,-26.464 L85.82861,-25.681871 L86.002,-24.922857 L86.17539,-24.186275 L86.348785,-23.471464 L86.52217,-22.777777 L86.695564,-22.104591 L86.86896,-21.451302 L87.04235,-20.81732 L87.21574,-20.202076 L87.38913,-19.605015 L87.56252,-19.025599 L87.73591,-18.463306 L87.9093,-17.917633 L88.082695,-17.388088 L88.25609,-16.874191 L88.429474,-16.375484 L88.60287,-15.891516 L88.77626,-15.42185 L88.94965,-14.966065 L89.12304,-14.523751 L89.29643,-14.09451 L89.469826,-13.677954 L89.64321,-13.273709 L89.816605,-12.8814125 L89.99,-12.500709 L90.16339,-12.131257 L90.33678,-11.772724 L90.51017,-11.4247875 L90.68356,-11.087134 L90.85695,-10.7594595 L91.03034,-10.44147 L91.203735,-10.132877 L91.37713,-9.8334055 L91.550514,-9.542785 L91.72391,-9.260753 L91.8973,-8.987057 L92.070694,-8.721449 L92.24408,-8.463691 L92.41747,-8.213551 L92.590866,-7.9708037 L92.76425,-7.735231 L92.937645,-7.5066204 L93.11104,-7.284766 L93.28443,-7.069469 L93.45782,-6.8605347 L93.63121,-6.657775 L93.8046,-6.461008 L93.97799,-6.2700562 L94.15138,-6.0847483 L94.324776,-5.904917 L94.49817,-5.7304 L94.671555,-5.5610414 L94.84495,-5.3966875 L95.01834,-5.237191 L95.191734,-5.082409 L95.36512,-4.932201 L95.53851,-4.7864323 L95.71191,-4.644972 L95.88529,-4.5076923 L96.058685,-4.3744698 L96.23208,-4.245185 L96.40547,-4.1197205 L96.57886,-3.9979644 L96.75225,-3.8798068 L96.925644,-3.7651412 L97.09903,-3.6538644 L97.27242,-3.5458765 L97.445816,-3.4410799 L97.61921,-3.3393807 L97.792595,-3.2406871 L97.96599,-3.1449103 L98.13938,-3.051964 L98.312775,-2.961765 L98.48616,-2.8742316 L98.65955,-2.7892852 L98.83295,-2.7068493 L99.00633,-55.714333 L99.179726,-54.067726 L99.35312,-52.469784 L99.52651,-50.919067 L99.6999,-49.41418 L99.87329,-47.95377 L100.046684,-46.536522 L100.22007,-45.16116 L100.39346,-43.826447 L100.56686,-42.531178 L100.74025,-41.274193 L100.913635,-40.054356 L101.08703,-92.71966 L101.26042,-89.97938 L101.433815,-87.32008 L101.6072,-84.73939 L101.780594,-82.234955 L101.95399,-79.80455 L102.12737,-77.44597 L102.300766,-75.1571 L102.47416,-72.93587 L102.64755,-70.78028 L102.82094,-68.68841 L102.99433,-66.65836 L103.167725,-64.68831 L103.34111,-62.77648 L103.5145,-114.323715 L103.6879,-164.84814 L103.86129,-159.97615 L104.034676,-155.24814 L104.20807,-150.65987 L104.38146,-146.20718 L104.554855,-141.88611 L104.72824,-137.69275 L104.901634,-133.6233 L105.07503,-129.67415 L105.24841,-125.8417 L105.42181,-122.12251 L105.5952,-118.513245 L105.76859,-115.01065 L105.94198,-111.61157 L106.11537,-108.31295 L106.288765,-105.11182 L106.46215,-102.005295 L106.635544,-98.990585 L106.80894,-96.06497 L106.98233,-93.22582 L107.155716,-90.47058 L107.32911,-87.79677 L107.5025,-85.20198 L107.675896,-82.68388 L107.84928,-80.240204 L108.022675,-77.86875 L108.19607,-129.27309 L108.36945,-125.452484 L108.54285,-121.744804 L108.71624,-118.1467 L108.88963,-114.65494 L109.06302,-111.26637 L109.23641,-107.97795 L109.409805,-104.78672 L109.58319,-101.68981 L109.756584,-98.68442 L109.92998,-95.76785 L110.10337,-92.937485 L110.27676,-90.190765 L110.45015,-87.52523 L110.62354,-84.93847 L110.796936,-82.428154 L110.97032,-79.992035 L111.143715,-77.627914 L111.31711,-75.333664 L111.49049,-73.107216 L111.66389,-70.94657 L111.83728,-68.849785 L112.01067,-66.814964 L112.18406,-64.84029 L112.35745,-62.923965 L112.530846,-61.06428 L112.70423,-59.25956 L112.877625,-57.508175 L113.05102,-55.80855 L113.22441,-54.159157 L113.3978,-52.558514 L113.57119,-51.005173 L113.74458,-103.11149 L113.91798,-100.06409 L114.09136,-97.10674 L114.264755,-94.23681 L114.43815,-91.45169 L114.611534,-88.74888 L114.78493,-86.12595 L114.95832,-83.58055 L115.131714,-81.110374 L115.3051,-78.713196 L115.47849,-76.38687 L115.651886,-74.129295 L115.82527,-71.938446 L115.998665,-69.81234 L116.17206,-67.74908 L116.34545,-65.74679 L116.51884,-63.803677 L116.69223,-61.917995 L116.86562,-60.08804 L117.03902,-58.312172 L117.2124,-56.588787 L117.385796,-54.916332 L117.55919,-53.293312 L117.732574,-51.718254 L117.90597,-50.18975 L118.07936,-48.706417 L118.252754,-47.266926 L118.42614,-45.869976 L118.59953,-44.514317 L118.77293,-43.19872 L118.94631,-41.922005 L119.119705,-40.68302 L119.2931,-39.480656 L119.46649,-38.313828 L119.63988,-37.18148 L119.81327,-36.082603 L119.986664,-35.0162 L120.16006,-33.981316 L120.33344,-32.977016 L120.506836,-85.92986 L120.68023,-83.39025 L120.853615,-80.9257 L121.02701,-78.53398 L121.2004,-76.21295 L121.373795,-73.96052 L121.54718,-71.77465 L121.72057,-69.65339 L121.89397,-67.59482 L122.06735,-65.59709 L122.240746,-63.658405 L122.41414,-61.777016 L122.58753,-59.95123 L122.76092,-58.1794 L122.93431,-56.45994 L123.107704,-54.791298 L123.2811,-53.17197 L123.45448,-51.600502 L123.62788,-50.075474 L123.80127,-48.59552 L123.974655,-47.159306 L124.14805,-45.765537 L124.32144,-44.412964 L124.494835,-96.8686 L124.66822,-94.0057 L124.84161,-91.22741 L125.01501,-88.531235 L125.18839,-85.91474 L125.361786,-83.37558 L125.53518,-80.91145 L125.70857,-78.520164 L125.88196,-76.19954 L126.05535,-73.9475 L126.228745,-71.762024 L126.40214,-69.641136 L126.57552,-67.58293 L126.74892,-65.58555 L126.92231,-63.647205 L127.095695,-61.766148 L127.26909,-59.94068 L127.44248,-58.169167 L127.615875,-56.45001 L127.78926,-54.78166 L127.962654,-53.162617 L128.13605,-51.591423 L128.30943,-50.066666 L128.48283,-48.58697 L128.65622,-47.15101 L128.8296,-45.75749 L129.003,-44.405148 L129.17639,-43.092777 L129.34978,-41.819195 L129.52318,-40.583252 L129.69656,-39.383835 L129.86995,-38.219864 L130.04335,-37.090298 L130.21674,-35.994114 L130.39014,-34.93033 L130.56352,-33.89798 L130.73691,-32.896145 L130.91031,-31.923916 L131.0837,-30.980421 L131.25708,-30.064812 L131.43048,-29.176262 L131.60387,-28.313972 L131.77725,-27.477169 L131.95065,-26.665096 L132.12404,-25.877022 L132.29744,-25.112242 L132.47083,-24.370062 L132.64421,-23.649818 L132.81761,-22.950861 L132.991,-22.27256 L133.16438,-21.614305 L133.33778,-20.975508 L133.51117,-20.355587 L133.68456,-19.753988 L133.85796,-19.17017 L134.03134,-18.603605 L134.20474,-18.053785 L134.37813,-17.520216 L134.55151,-17.002415 L134.72491,-16.499918 L134.8983,-16.012272 L135.07169,-15.539038 L135.24509,-15.07979 L135.41847,-14.634114 L135.59186,-14.2016115 L135.76526,-13.78189 L135.93864,-13.374574 L136.11203,-12.979296 L136.28543,-12.595699 L136.45882,-12.22344 L136.63222,-11.862183 L136.8056,-11.511602 L136.97899,-11.171383 L137.15239,-10.841219 L137.32578,-10.520812 L137.49916,-10.209875 L137.67256,-9.908128 L137.84595,-9.615298 L138.01933,-9.331123 L138.19273,-9.055347 L138.36612,-8.787721 L138.53952,-8.528005 L138.7129,-8.275964 L138.88629,-8.031372 L139.0597,-7.7940097 L139.23308,-7.5636616 L139.40646,-7.3401217 L139.57986,-7.1231885 L139.75325,-6.9126663 L139.92664,-6.708366 L140.10004,-6.5101037 L140.27342,-6.3177013 L140.44682,-6.130985 L140.62021,-5.949787 L140.7936,-5.7739444 L140.967,-5.603298 L141.14038,-5.437696 L141.31377,-5.2769876 L141.48717,-5.121029 L141.66055,-4.96968 L141.83394,-4.8228035 L142.00734,-4.6802683 L142.18073,-4.5419455 L142.35411,-4.4077106 L142.52751,-4.277443 L142.7009,-4.151026 L142.8743,-4.028344 L143.04768,-3.9092886 L143.22107,-3.7937517 L143.39447,-3.6816294 L143.56786,-3.572821 L143.74124,-3.467228 L143.91464,-3.3647559 L144.08803,-3.2653124 L144.26141,-3.1688077 L144.43481,-56.512104 L144.6082,-54.84192 L144.7816,-53.221096 L144.95499,-51.648174 L145.12837,-50.12174 L145.30177,-48.64042 L145.47516,-47.202877 L145.64854,-45.80782 L145.82195,-44.453995 L145.99533,-43.140182 L146.16872,-41.865196 L146.34212,-40.62789 L146.5155,-39.42716 L146.6889,-38.26191 L146.86229,-37.131096 L147.03568,-36.033707 L147.20908,-34.96875 L147.38246,-33.93527 L147.55585,-32.93233 L147.72925,-31.959032 L147.90263,-31.0145 L148.07602,-30.097883 L148.24942,-29.208357 L148.4228,-28.34512 L148.59619,-27.507393 L148.76959,-26.694427 L148.94298,-25.905487 L149.11638,-25.139866 L149.28976,-24.39687 L149.46315,-23.675833 L149.63655,-22.976107 L149.80994,-22.29706 L149.98332,-21.638083 L150.15672,-20.99858 L150.33011,-20.37798 L150.5035,-19.775719 L150.6769,-19.191257 L150.85028,-18.62407 L151.02368,-18.073647 L151.19707,-17.539488 L151.37045,-17.021118 L151.54385,-16.518068 L151.71724,-16.029886 L151.89063,-15.556131 L152.06403,-15.096377 L152.23741,-14.650212 L152.4108,-14.217234 L152.5842,-13.79705 L152.75758,-13.389286 L152.93098,-12.993573 L153.10437,-12.609554 L153.27776,-12.236886 L153.45116,-11.875232 L153.62454,-65.1278 L153.79793,-63.20298 L153.97133,-61.33505 L154.14471,-59.522327 L154.3181,-57.763176 L154.4915,-56.056015 L154.66489,-54.39931 L154.83827,-52.79157 L155.01167,-51.23134 L155.18506,-49.717224 L155.35846,-48.24786 L155.53185,-46.82192 L155.70523,-45.43812 L155.87863,-44.095222 L156.05202,-42.79201 L156.2254,-41.527317 L156.3988,-40.3 L156.57219,-39.108955 L156.74557,-37.95311 L156.91898,-36.831425 L157.09236,-35.742893 L157.26576,-34.68653 L157.43915,-33.66139 L157.61253,-32.666546 L157.78593,-31.701103 L157.95932,-30.764193 L158.1327,-29.854975 L158.3061,-28.972626 L158.47949,-28.116356 L158.65288,-27.285393 L158.82628,-26.478987 L158.99966,-25.696415 L159.17307,-24.93697 L159.34645,-24.199972 L159.51984,-23.484755 L159.69324,-22.790674 L159.86662,-22.11711 L160.04001,-21.46345 L160.21341,-20.82911 L160.3868,-20.213516 L160.56018,-19.616116 L160.73358,-19.036371 L160.90697,-18.473763 L161.08035,-17.92778 L161.25375,-17.397934 L161.42714,-16.883747 L161.60054,-16.384758 L161.77393,-15.900515 L161.94731,-15.430583 L162.12071,-14.974541 L162.2941,-14.531976 L162.46748,-14.102491 L162.64088,-13.685699 L162.81427,-13.281226 L162.98766,-12.888706 L163.16106,-12.507788 L163.33444,-12.138126 L163.50784,-11.77939 L163.68123,-11.431257 L163.85461,-11.093412 L164.02802,-10.7655525 L164.2014,-10.447382 L164.37479,-10.138616 L164.54819,-9.838974 L164.72157,-9.548188 L164.89496,-9.265997 L165.06836,-8.992146 L165.24174,-8.726387 L165.41515,-8.468484 L165.58853,-8.218202 L165.76192,-7.9753175 L165.93532,-7.739611 L166.1087,-7.5108714 L166.28209,-7.2888913 L166.45549,-7.073472 L166.62888,-61.0627 L166.80226,-59.258022 L166.97566,-57.506683 L167.14905,-110.18143 L167.32243,-106.92507 L167.49583,-103.76496 L167.66922,-100.69824 L167.84262,-97.72216 L168.016,-94.83404 L168.18939,-92.031265 L168.3628,-89.31133 L168.53618,-86.67178 L168.70956,-84.110245 L168.88297,-81.62441 L169.05635,-79.21204 L169.22974,-129.99059 L169.40314,-179.81554 L169.57652,-174.50117 L169.74992,-169.34389 L169.92331,-164.33902 L170.0967,-159.48207 L170.2701,-154.76866 L170.44348,-150.19455 L170.61687,-145.75563 L170.79027,-141.4479 L170.96365,-137.26749 L171.13704,-133.21062 L171.31044,-129.27365 L171.48383,-125.45304 L171.65723,-121.74534 L171.83061,-118.147224 L172.004,-114.65544 L172.1774,-111.26686 L172.35078,-107.97843 L172.52417,-104.787186 L172.69757,-101.690254 L172.87096,-98.68485 L173.04434,-95.76828 L173.21774,-92.9379 L173.39113,-90.19117 L173.56451,-87.52561 L173.73792,-84.93884 L173.9113,-82.42852 L174.0847,-79.992386 L174.25809,-77.62826 L174.43147,-75.33399 L174.60487,-73.10754 L174.77826,-70.946884 L174.95164,-68.85009 L175.12505,-66.81526 L175.29843,-64.84057 L175.47182,-62.92424 L175.64522,-61.06455 L175.8186,-59.25982 L175.992,-57.508427 L176.16539,-55.808796 L176.33878,-54.159397 L176.51218,-52.558746 L176.68556,-51.005398 L176.85895,-49.497963 L177.03235,-48.035076 L177.20573,-100.35276 L177.37912,-97.38689 L177.55252,-94.50867 L177.7259,-91.715515 L177.8993,-89.00491 L178.0727,-86.37442 L178.24608,-137.3553 L178.41948,-133.29584 L178.59286,-129.35634 L178.76625,-125.53329 L178.93965,-121.82322 L179.11304,-118.22279 L179.28642,-114.72878 L179.45982,-111.338036 L179.63321,-108.0475 L179.8066,-104.85422 L179.98,-101.7553 L180.15338,-98.74798 L180.32678,-95.82954 L180.50017,-92.997345 L180.67355,-90.248856 L180.84695,-87.581604 L181.02034,-84.99317 L181.19373,-82.48125 L181.36713,-80.04356 L181.54051,-77.67791 L181.7139,-75.38219 L181.8873,-73.154305 L182.06068,-70.99226 L182.23409,-68.89413 L182.40747,-66.858 L182.58086,-64.88205 L182.75426,-117.1757 L182.92764,-113.71263 L183.10103,-110.35191 L183.27443,-107.09052 L183.44781,-103.92552 L183.6212,-100.85406 L183.7946,-97.87337 L183.96799,-94.980774 L184.14139,-92.17367 L184.31477,-89.449524 L184.48816,-86.80589 L184.66156,-84.24039 L184.83495,-81.75071 L185.00833,-79.33461 L185.18173,-76.98992 L185.35512,-74.71452 L185.5285,-72.50638 L185.7019,-70.36349 L185.87529,-68.283936 L186.04868,-66.26584 L186.22208,-64.30739 L186.39546,-62.406815 L186.56886,-114.5353 L186.74225,-111.150276 L186.91563,-107.86529 L187.08904,-104.67738 L187.26242,-101.5837 L187.4358,-98.58145 L187.6092,-95.66793 L187.7826,-92.840515 L187.95598,-90.096664 L188.12938,-87.43391 L188.30276,-84.84984 L188.47617,-82.34215 L188.64955,-79.90857 L188.82294,-77.54691 L188.99634,-75.25506 L189.16972,-73.03094 L189.34311,-70.87254 L189.51651,-68.77795 L189.6899,-66.74525 L189.86328,-64.77263 L190.03668,-62.858307 L190.21007,-61.000565 L190.38347,-59.197723 L190.55685,-57.44817 L190.73024,-55.750317 L190.90364,-54.102646 L191.07703,-52.503674 L191.25041,-50.951954 L191.42381,-49.446095 L191.5972,-47.984745 L191.77058,-46.56658 L191.94398,-45.19033 L192.11737,-43.85475 L192.29076,-42.55865 L192.46416,-41.30085 L192.63754,-40.080227 L192.81094,-38.895676 L192.98433,-37.746136 L193.15771,-36.63057 L193.33112,-35.547974 L193.5045,-34.49737 L193.67789,-33.477818 L193.85129,-32.4884 L194.02467,-31.528223 L194.19806,-30.596424 L194.37146,-29.692162 L194.54485,-28.814627 L194.71825,-27.963026 L194.89163,-27.136593 L195.06502,-26.334585 L195.23842,-25.55628 L195.4118,-24.800978 L195.58519,-24.067999 L195.75859,-23.356682 L195.93198,-22.666388 L196.10536,-21.996494 L196.27876,-21.3464 L196.45215,-20.715519 L196.62555,-20.103283 L196.79893,-19.50914 L196.97232,-18.932558 L197.14572,-18.373016 L197.3191,-17.830011 L197.4925,-17.303055 L197.6659,-16.791674 L197.83928,-16.295404 L198.01266,-15.813802 L198.18607,-15.346434 L198.35945,-14.892878 L198.53284,-14.452727 L198.70624,-14.025584 L198.87962,-13.611066 L199.05302,-13.208797 L199.22641,-12.8184185 L199.3998,-12.439577 L199.5732,-12.071932 L199.74658,-11.715153 L199.91997,-11.368917 L200.09337,-11.032915 L200.26675,-10.706843 L200.44014,-10.3904085 L200.61354,-10.083325 L200.78693,-9.785318 L200.96033,-9.496119 L201.13371,-9.215466 L201.3071,-8.943108 L201.4805,-8.678799 L201.65388,-8.422301 L201.82727,-8.173385 L202.00067,-7.9318247 L202.17406,-7.697404 L202.34744,-7.469911 L202.52084,-7.249142 L202.69423,-7.0348973 L202.86763,-6.826985 L203.04102,-6.625217 L203.2144,-6.4294124 L203.3878,-6.239394 L203.56119,-6.054992 L203.73457,-5.8760405 L203.90797,-5.702377 L204.08136,-5.5338464 L204.25475,-5.3702965 L204.42815,-5.2115803 L204.60153,-5.0575547 L204.77492,-4.9080815 L204.94832,-4.7630258 L205.1217,-4.622257 L205.2951,-57.987057 L205.46849,-56.27328 L205.64188,-54.610153 L205.81528,-52.996178 L205.98866,-51.429905 L206.16205,-49.90992 L206.33545,-48.43486 L206.50883,-100.77641 L206.68222,-97.79802 L206.85562,-149.18234 L207.029,-144.77335 L207.20241,-140.49464 L207.3758,-136.34239 L207.54918,-132.31287 L207.72258,-128.40244 L207.89597,-124.60757 L208.06935,-120.92486 L208.24275,-117.35099 L208.41614,-113.882744 L208.58952,-110.517 L208.76292,-107.250725 L208.93631,-104.08099 L209.10971,-154.5 L209.2831,-149.93384 L209.45648,-145.50261 L209.62988,-141.20236 L209.80327,-137.0292 L209.97665,-132.97939 L210.15005,-129.04924 L210.32344,-125.23526 L210.49683,-121.534004 L210.67023,-117.94213 L210.84361,-114.45641 L211.017,-111.073715 L211.1904,-107.79099 L211.36378,-104.605286 L211.53719,-101.51373 L211.71057,-98.51355 L211.88396,-95.60203 L212.05736,-92.776566 L212.23074,-90.0346 L212.40413,-87.37368 L212.57753,-84.7914 L212.75092,-82.28543 L212.9243,-79.85353 L213.0977,-77.4935 L213.27109,-75.203224 L213.44449,-72.98063 L213.61787,-70.82373 L213.79126,-68.73057 L213.96466,-66.69927 L214.13805,-64.72801 L214.31143,-62.81501 L214.48483,-60.958546 L214.65822,-59.156948 L214.8316,-57.408596 L215.005,-55.711918 L215.17839,-54.06538 L215.35179,-52.467506 L215.52518,-50.91686 L215.69856,-49.412037 L215.87196,-47.95169 L216.04535,-46.534504 L216.21873,-45.159203 L216.39214,-43.824547 L216.56552,-42.529335 L216.7389,-41.272404 L216.91231,-40.05262 L217.0857,-38.868885 L217.25908,-37.720135 L217.43248,-36.60534 L217.60587,-35.523487 L217.77927,-34.47361 L217.95265,-33.45476 L218.12604,-32.466022 L218.29944,-31.506506 L218.47282,-30.575348 L218.64621,-29.671711 L218.81961,-28.794779 L218.993,-27.943764 L219.16638,-27.1179 L219.33978,-26.316446 L219.51317,-25.538677 L219.68657,-24.783895 L219.85995,-24.05142 L220.03334,-23.340593 L220.20674,-22.650776 L220.38013,-21.981344 L220.55351,-21.331697 L220.72691,-20.70125 L220.9003,-20.089436 L221.07368,-19.495703 L221.24709,-18.919518 L221.42047,-18.360361 L221.59387,-17.81773 L221.76726,-71.91415 L221.94064,-69.78876 L222.11404,-67.72619 L222.28743,-65.72458 L222.46082,-63.782124 L222.63422,-61.897076 L222.8076,-60.06774 L222.98099,-58.292473 L223.15439,-56.569668 L223.32777,-54.89778 L223.50116,-53.275307 L223.67456,-51.700783 L223.84795,-50.172794 L224.02135,-103.2866 L224.19473,-100.23402 L224.36812,-97.27166 L224.54152,-94.39684 L224.7149,-145.28024 L224.88829,-140.98657 L225.06169,-136.81978 L225.23508,-132.77615 L225.40846,-128.85202 L225.58186,-125.04387 L225.75525,-121.34826 L225.92865,-117.76188 L226.10204,-114.28149 L226.27542,-110.90396 L226.44882,-107.62625 L226.62221,-104.44542 L226.7956,-101.35859 L226.969,-98.36299 L227.14238,-95.455925 L227.31577,-92.63477 L227.48917,-89.897 L227.66255,-87.24014 L227.83595,-84.66181 L228.00934,-82.159676 L228.18272,-79.73149 L228.35612,-77.37507 L228.52951,-75.08829 L228.7029,-72.869095 L228.8763,-70.715485 L229.04968,-68.62553 L229.22307,-66.597336 L229.39647,-64.62909 L229.56985,-62.71901 L229.74324,-60.865383 L229.91664,-59.06654 L230.09003,-57.32086 L230.26343,-55.626774 L230.43681,-53.982754 L230.6102,-52.38732 L230.7836,-50.839043 L230.95699,-49.33652 L231.13037,-47.878407 L231.30377,-46.463387 L231.47716,-45.090187 L231.65054,-43.75757 L231.82394,-42.464336 L231.99733,-41.209328 L232.17073,-39.991405 L232.34412,-38.809483 L232.5175,-37.662487 L232.6909,-36.549393 L232.86429,-35.469196 L233.03767,-34.42092 L233.21107,-33.40363 L233.38446,-32.416405 L233.55785,-31.458355 L233.73125,-30.52862 L233.90463,-29.626364 L234.07803,-28.750772 L234.25142,-27.901058 L234.4248,-27.076456 L234.5982,-26.276226 L234.77159,-25.499647 L234.94498,-24.74602 L235.11838,-24.014664 L235.29176,-23.304922 L235.46515,-22.616158 L235.63855,-21.94775 L235.81194,-21.299095 L235.98532,-20.669613 L236.15872,-20.058733 L236.3321,-19.465908 L236.50551,-18.890602 L236.6789,-18.332302 L236.85228,-17.7905 L237.02568,-17.264711 L237.19907,-16.754461 L237.37245,-16.259293 L237.54585,-15.778758 L237.71924,-15.312426 L237.89262,-14.859875 L238.06602,-14.420699 L238.23941,-13.994503 L238.41281,-13.580903 L238.5862,-13.179526 L238.75958,-12.790012 L238.93298,-12.41201 L239.10637,-12.04518 L239.27975,-11.689192 L239.45316,-11.343723 L239.62654,-11.008466 L239.79993,-10.683117 L239.97333,-10.367383 L240.14671,-10.06098 L240.32011,-9.763634 L240.4935,-9.475075 L240.66689,-9.195044 L240.84029,-8.923289 L241.01367,-8.659566 L241.18706,-8.403637 L241.36046,-8.1552725 L241.53384,-7.9142475 L241.70723,-7.680346 L241.88063,-7.4533577 L242.05402,-7.2330775 L242.2274,-7.0193076 L242.4008,-6.811856 L242.57419,-6.610535 L242.74759,-6.4151645 L242.92097,-6.2255673 L243.09436,-6.041574 L243.26776,-5.8630185 L243.44115,-5.68974 L243.61453,-5.521583 L243.78793,-5.3583956 L243.96132,-5.2000313 L244.1347,-5.046347 L244.3081,-4.897205 L244.48149,-4.7524705 L244.65489,-4.612014 L244.82828,-4.475708 L245.00166,-4.343431 L245.17506,-4.215063 L245.34845,-4.0904894 L245.52184,-3.969597 L245.69524,-3.8522778 L245.86862,-3.7384257 L246.042,-3.6279385 L246.21541,-3.520717 L246.3888,-3.416664 L246.5622,-3.3156862 L246.73558,-3.2176929 L246.90897,-3.1225958 L247.08237,-3.030309 L247.25575,-2.94075 L247.42914,-2.8538375 L247.60254,-2.7694938 L247.77592,-2.687643 L247.94931,-2.608211 L248.12271,-2.531127 L248.2961,-2.4563208 L248.46948,-2.3837254 L248.64288,-2.3132758 L248.81627,-2.244908 L248.98967,-2.178561 L249.16306,-2.1141748 L249.33644,-2.0516915 L249.50984,-1.9910549 L249.68323,-1.9322103 L249.85661,-1.8751049 L250.03001,-1.8196871 L250.2034,-1.7659073 L250.37679,-1.7137169 L250.55019,-1.6630689 L250.72357,-1.6139177 L250.89697,-1.5662192 L251.07036,-1.5199305 L251.24374,-1.4750098 L251.41714,-1.4314166 L251.59053,-1.3891119 L251.76392,-1.3480574 L251.93732,-1.3082163 L252.1107,-1.2695527 L252.28409,-1.2320317 L252.45749,-1.1956197 L252.63087,-1.1602838 L252.80428,-1.1259922 L252.97766,-1.0927141 L253.15105,-1.0604196 L253.32445,-1.0290794 L253.49783,-0.9986655 L253.67122,-0.9691505 L253.84462,-0.94050777 L254.018,-0.91271156 L254.19139,-0.8857368 L254.36479,-0.85955936 L254.53818,-0.83415556 L254.71156,-0.80950254 L254.88496,-0.78557813 L255.05835,-0.76236075 L255.23175,-0.7398296 L255.40514,-0.71796435 L255.57852,-0.6967453 L255.75192,-0.67615336 L255.92531,-0.65617 L256.0987,-0.6367772 L256.2721,-0.61795765 L256.4455,-0.5996942 L256.61887,-0.5819706 L256.79227,-0.56477076 L256.96567,-0.54807925 L257.13904,-0.53188103 L257.31244,-0.5161616 L257.48584,-0.5009067 L257.6592,-0.48610267 L257.8326,-0.4717362 L258.006,-0.45779428 L258.17938,-0.4442644 L258.35278,-0.4311344 L258.52618,-0.41839245 L258.69955,-0.40602708 L258.87296,-0.39402717 L259.04636,-0.38238192 L259.21973,-0.37108082 L259.39313,-0.36011374 L259.56653,-0.34947076 L259.7399,-0.33914232 L259.9133,-0.32911918 L260.0867,-0.31939223 L260.2601,-0.30995277 L260.43347,-0.30079228 L260.60687,-0.2919025 L260.78027,-0.28327549 L260.95364,-0.27490345 L261.12704,-0.2667788 L261.30045,-0.2588943 L261.47382,-0.25124282 L261.64722,-0.24381748 L261.82062,-0.23661157 L261.994,-0.22961865 L262.1674,-0.2228324 L262.3408,-0.2162467 L262.51416,-0.20985565 L262.68756,-0.20365347 L262.86096,-0.19763461 L263.03433,-0.19179362 L263.20773,-0.18612526 L263.38113,-0.18062443 L263.5545,-0.17528617 L263.7279,-0.17010568 L263.9013,-0.1650783 L264.07468,-0.1601995 L264.24808,-0.15546489 L264.42148,-0.1508702 L264.59488,-0.14641131 L264.76825,-0.14208421 L264.94165,-0.13788499 L265.11505,-0.13380986 L265.28842,-0.12985519 L265.46182,-0.12601739 L265.63522,-0.12229301 L265.8086,-0.118678704 L265.982,-0.11517122 L266.1554,-0.1117674 L266.32877,-0.10846417 L266.50217,-0.10525857 L266.67557,-0.102147706 L266.84894,-0.09912879 L267.02234,-0.09619909 L267.19574,-0.093355976 L267.3691,-0.09059689 L267.5425,-0.08791935 L267.7159,-0.085320935 L267.88928,-0.08279932 L268.06268,-0.08035223 L268.23608,-0.07797746 L268.4095,-0.07567288 L268.58286,-0.07343641 L268.75626,-0.07126604 L268.92966,-0.069159806 L269.10303,-0.06711583 L269.27643,-0.06513225 L269.44983,-0.063207306 L269.6232,-0.061339248 L269.7966,-0.0595264 L269.97,-0.057767127 L270.14337,-0.056059852 L270.31677,-0.054403033 L270.49017,-0.05279518 L270.66354,-0.051234845 L270.83694,-0.049720626 L271.01035,-0.04825116 L271.18372,-0.046825122 L271.35712,-0.045441233 L271.53052,-0.04409824 L271.7039,-0.04279494 L271.8773,-0.04153016 L272.0507,-0.040302757 L272.22406,-53.79614 L272.39746,-52.206223 L272.57086,-50.663296 L272.74426,-49.16597 L272.91763,-47.712894 L273.09103,-46.302765 L273.26443,-44.93431 L273.4378,-43.606304 L273.6112,-42.317543 L273.7846,-41.066868 L273.95798,-39.85316 L274.13138,-38.67532 L274.30478,-37.53229 L274.47815,-36.423046 L274.65155,-35.34658 L274.82495,-34.301933 L274.99832,-33.28816 L275.17172,-32.304344 L275.34512,-31.349606 L275.5185,-30.423086 L275.6919,-29.523947 L275.8653,-28.651382 L276.03867,-27.804607 L276.21207,-26.982857 L276.38547,-26.185392 L276.55884,-25.411497 L276.73224,-24.660473 L276.90564,-23.931646 L277.07904,-23.22436 L277.2524,-22.537975 L277.4258,-21.871878 L277.5992,-21.225466 L277.77258,-20.59816 L277.94598,-19.989391 L278.1194,-19.398615 L278.29276,-18.8253 L278.46616,-18.268929 L278.63956,-17.729 L278.81293,-17.205029 L278.98633,-16.696543 L279.15973,-16.203085 L279.3331,-15.724213 L279.5065,-15.259492 L279.6799,-14.808505 L279.85327,-14.370848 L280.02667,-13.946125 L280.20007,-13.533955 L280.37344,-13.133966 L280.54684,-12.745799 L280.72025,-12.369103 L280.89365,-12.003541 L281.06702,-11.648783 L281.24042,-11.304509 L281.41382,-10.97041 L281.5872,-10.646186 L281.7606,-10.331544 L281.934,-10.0262 L282.10736,-9.729881 L282.28076,-9.44232 L282.45416,-9.163258 L282.62753,-8.892442 L282.80093,-8.629631 L282.97433,-8.374586 L283.1477,-8.12708 L283.3211,-7.8868885 L283.4945,-7.6537957 L283.66788,-7.427592 L283.84128,-7.2080736 L284.01468,-6.995043 L284.18805,-6.788308 L284.36145,-6.587683 L284.53485,-6.3929877 L284.70822,-6.2040462 L284.88162,-6.020689 L285.05502,-5.8427505 L285.22842,-5.6700716 L285.4018,-5.5024953 L285.5752,-5.3398724 L285.7486,-5.182055 L285.92197,-5.028902 L286.09537,-4.8802757 L286.26877,-4.7360415 L286.44214,-4.596071 L286.61554,-4.460236 L286.78894,-4.3284163 L286.9623,-4.2004924 L287.1357,-4.076349 L287.3091,-3.9558747 L287.48248,-3.838961 L287.65588,-3.7255023 L287.82928,-3.6153972 L288.00266,-3.508546 L288.17606,-3.4048529 L288.34946,-3.3042243 L288.52283,-3.2065697 L288.69623,-3.1118011 L288.86963,-3.0198336 L289.043,-2.930584 L289.2164,-2.8439722 L289.3898,-2.7599201 L289.5632,-2.678352 L289.73657,-2.5991948 L289.90997,-2.522377 L290.08337,-2.4478295 L290.25674,-2.3754852 L290.43015,-2.305279 L290.60355,-2.2371478 L290.77692,-2.17103 L290.95032,-56.255974 L291.12372,-54.593357 L291.2971,-52.97988 L291.4705,-51.41409 L291.6439,-49.894573 L291.81726,-48.419964 L291.99066,-46.988937 L292.16406,-45.600204 L292.33743,-44.252514 L292.51083,-97.48178 L292.68423,-94.60076 L292.8576,-91.804886 L293.031,-89.091644 L293.2044,-86.45859 L293.3778,-83.90335 L293.55118,-81.42363 L293.72458,-79.0172 L293.89798,-76.681885 L294.07135,-74.415596 L294.24475,-72.21628 L294.41815,-70.08197 L294.59152,-68.010735 L294.76492,-66.00071 L294.93832,-64.050095 L295.1117,-62.157127 L295.2851,-60.320107 L295.4585,-58.53738 L295.63187,-56.80734 L295.80527,-55.12843 L295.97867,-53.499138 L296.15204,-51.918 L296.32544,-50.38359 L296.49884,-48.894527 L296.6722,-47.44948 L296.8456,-46.047134 L297.019,-44.686234 L297.19238,-43.36556 L297.36578,-42.08391 L297.53918,-40.840145 L297.7126,-39.633137 L297.88596,-38.4618 L298.05936,-37.32508 L298.23276,-36.22196 L298.40613,-35.151436 L298.57953,-34.112556 L298.75293,-33.104378 L298.9263,-32.125996 L299.0997,-31.176529 L299.2731,-30.255123 L299.44647,-29.360949 L299.61987,-28.493202 L299.79327,-81.47575 L299.96664,-79.06779 L300.14005,-76.73098 L300.31345,-74.463234 L300.48682,-72.26251 L300.66022,-70.12683 L300.83362,-68.054276 L301.007,-66.04296 L301.1804,-64.0911 L301.3538,-62.196922 L301.52716,-60.358727 L301.70056,-58.574856 L301.87396,-56.843708 L302.04736,-55.16372 L302.22073,-53.533386 L302.39413,-51.951237 L302.56754,-50.415844 L302.7409,-48.92583 L302.9143,-47.479855 L303.0877,-46.076614 L303.26108,-44.714844 L303.43448,-43.39332 L303.60788,-42.110855 L303.78125,-40.86629 L303.95465,-39.65851 L304.12805,-38.486423 L304.30142,-37.348976 L304.47482,-36.245148 L304.64822,-35.173943 L304.8216,-34.134396 L304.995,-87.36092 L305.1684,-84.779015 L305.34177,-82.273415 L305.51517,-79.84187 L305.68857,-77.482185 L305.86197,-75.192245 L306.03534,-72.96998 L306.20874,-70.813385 L306.38214,-68.720535 L306.5555,-66.68954 L306.7289,-64.71856 L306.9023,-62.80584 L307.07568,-60.949646 L307.24908,-59.14831 L307.4225,-57.400215 L307.59586,-55.703785 L307.76926,-54.057487 L307.94266,-52.459846 L308.11603,-50.909424 L308.28943,-49.404823 L308.46283,-101.292465 L308.6362,-98.29882 L308.8096,-95.39365 L308.983,-92.57434 L309.15637,-89.838356 L309.32977,-87.18323 L309.50317,-84.606575 L309.67654,-82.10607 L309.84995,-79.679474 L310.02335,-77.324585 L310.19675,-75.0393 L310.37012,-72.821556 L310.54352,-70.66935 L310.71692,-68.58076 L310.8903,-66.55389 L311.0637,-119.12942 L311.2371,-115.60861 L311.41046,-112.191864 L311.58386,-108.87609 L311.75726,-105.65832 L311.93063,-102.535645 L312.10403,-99.50526 L312.27744,-96.56443 L312.4508,-93.71052 L312.6242,-90.940956 L312.7976,-88.25324 L312.97098,-85.644966 L313.14438,-83.11378 L313.31778,-80.657394 L313.49115,-78.273605 L313.66455,-75.96027 L313.83795,-73.71531 L314.01132,-71.53669 L314.18472,-69.42246 L314.35812,-67.37072 L314.53152,-65.37961 L314.7049,-63.447353 L314.8783,-61.5722 L315.0517,-59.75247 L315.22507,-57.986515 L315.39847,-56.272755 L315.57187,-54.609642 L315.74524,-52.99568 L315.91864,-51.429424 L316.09204,-49.909454 L316.2654,-48.434406 L316.4388,-47.002956 L316.6122,-152.30322 L316.78558,-147.80199 L316.95898,-143.43378 L317.1324,-139.19467 L317.30576,-135.08084 L317.47916,-131.0886 L317.65256,-127.21435 L317.82593,-123.4546 L317.99933,-119.80596 L318.17273,-116.26516 L318.34613,-112.829 L318.5195,-109.4944 L318.6929,-106.258354 L318.8663,-103.11794 L319.03967,-100.07035 L319.21307,-97.11282 L319.38647,-94.24271 L319.55984,-91.45741 L319.73325,-88.75444 L319.90665,-86.13135 L320.08002,-83.585785 L320.25342,-81.11545 L320.42682,-78.718124 L320.6002,-76.391655 L320.7736,-74.13394 L320.947,-71.94295 L321.12036,-69.81671 L321.29376,-67.75332 L321.46716,-65.75091 L321.64053,-63.80767 L321.81393,-61.92187 L321.98734,-60.0918 L322.1607,-58.315823 L322.3341,-56.592327 L322.5075,-54.919773 L322.6809,-53.296646 L322.85428,-51.721493 L323.02768,-50.192894 L323.20108,-48.70947 L323.37445,-47.269886 L323.54785,-45.87285 L323.72125,-44.5171 L323.89462,-43.201424 L324.06802,-41.92463 L324.24142,-40.685566 L324.4148,-39.483128 L324.5882,-38.316223 L324.7616,-37.183807 L324.93497,-36.08486 L325.10837,-35.018394 L325.28177,-33.983444 L325.45514,-32.97908 L325.62854,-32.004402 L325.80194,-31.058529 L325.9753,-30.14061 L326.1487,-29.24982 L326.3221,-28.385357 L326.49548,-27.546444 L326.66888,-26.732323 L326.8423,-25.942263 L327.0157,-25.175554 L327.18906,-24.431503 L327.36246,-23.709444 L327.53586,-23.008724 L327.70923,-22.328712 L327.88263,-21.6688 L328.05603,-21.02839 L328.2294,-20.406908 L328.4028,-19.803791 L328.5762,-19.218502 L328.74957,-18.650509 L328.92297,-18.099302 L329.09637,-17.564388 L329.26974,-17.045282 L329.44315,-16.541517 L329.61655,-16.05264 L329.78992,-15.578215 L329.96332,-15.117808 L330.13672,-14.67101 L330.3101,-14.237416 L330.4835,-13.816637 L330.6569,-13.408294 L330.8303,-13.012018 L331.00366,-12.627456 L331.17706,-12.254257 L331.35046,-11.89209 L331.52383,-11.540626 L331.69724,-11.199548 L331.87064,-10.868551 L332.044,-10.547338 L332.2174,-10.235617 L332.3908,-9.933108 L332.56418,-9.639541 L332.73758,-9.354649 L332.91098,-9.078177 L333.08435,-8.809876 L333.25775,-8.549505 L333.43115,-8.296829 L333.60452,-8.0516205 L333.77792,-62.315887 L333.95132,-114.09588 L334.1247,-110.72384 L334.2981,-107.451454 L334.4715,-104.27579 L334.64487,-101.19397 L334.81827,-98.20323 L334.99167,-95.30089 L335.16507,-92.48432 L335.33844,-89.751 L335.51184,-87.09846 L335.68524,-84.52431 L335.8586,-82.02624 L336.032,-79.602 L336.2054,-77.2494 L336.37878,-74.96634 L336.5522,-72.75075 L336.7256,-70.60064 L336.89896,-68.51407 L337.07236,-66.489174 L337.24576,-64.524124 L337.41913,-62.617146 L337.59253,-60.76653 L337.76593,-112.388535 L337.9393,-109.06695 L338.1127,-105.84354 L338.2861,-102.715385 L338.45947,-99.67969 L338.63287,-96.73371 L338.80627,-93.874794 L338.97964,-91.10037 L339.15305,-88.40795 L339.32645,-85.795105 L339.49985,-136.507 L339.67322,-132.47261 L339.84662,-128.55745 L340.02002,-124.75801 L340.1934,-121.070854 L340.3668,-117.49267 L340.5402,-114.02023 L340.71356,-110.65043 L340.88696,-107.38021 L341.06036,-104.20665 L341.23373,-101.12688 L341.40714,-98.13812 L341.58054,-95.23771 L341.7539,-92.423004 L341.9273,-89.6915 L342.1007,-87.04071 L342.27408,-84.46827 L342.44748,-81.971855 L342.62088,-79.54922 L342.79425,-77.19818 L342.96765,-74.91663 L343.14105,-72.702515 L343.31445,-70.553825 L343.48782,-68.46865 L343.66122,-66.44509 L343.83463,-117.6785 L344.008,-114.20057 L344.1814,-110.82543 L344.3548,-107.55005 L344.52817,-104.37146 L344.70157,-101.28682 L344.87497,-98.29334 L345.04834,-95.388336 L345.22174,-92.56918 L345.39514,-89.83335 L345.5685,-87.178375 L345.7419,-84.60187 L345.9153,-82.1015 L346.08868,-79.67503 L346.2621,-77.32028 L346.4355,-75.035126 L346.60886,-72.8175 L346.78226,-70.66542 L346.95566,-68.576935 L347.12903,-66.550186 L347.30243,-118.06847 L347.47583,-114.57902 L347.64923,-111.192696 L347.8226,-107.906456 L347.996,-104.71734 L348.1694,-101.62247 L348.34277,-98.61907 L348.51617,-95.70444 L348.68958,-92.875946 L348.86295,-90.13104 L349.03635,-87.46727 L349.20975,-84.882225 L349.38312,-82.37357 L349.55652,-79.939064 L349.72992,-77.57651 L349.9033,-75.283775 L350.0767,-73.05881 L350.2501,-70.89959 L350.42346,-68.80419 L350.59686,-66.77072 L350.77026,-64.79735 L350.94363,-62.882298 L351.11703,-61.023846 L351.29044,-59.220318 L351.4638,-57.470093 L351.6372,-55.771595 L351.8106,-54.123295 L351.984,-52.52371 L352.15738,-50.971397 L352.33078,-49.464966 L352.50418,-48.003056 L352.67755,-46.58435 L352.85095,-45.207577 L353.02435,-43.87149 L353.19772,-42.57489 L353.37112,-41.316612 L353.54453,-40.095524 L353.7179,-38.910522 L353.8913,-37.76054 L354.0647,-36.64455 L354.23807,-35.56154 L354.41147,-34.510536 L354.58487,-33.490597 L354.75824,-32.500797 L354.93164,-31.540255 L355.10504,-30.608099 L355.2784,-29.703493 L355.4518,-28.825623 L355.6252,-27.973698 L355.7986,-27.14695 L355.972,-26.344635 L356.1454,-25.566034 L356.3188,-24.810444 L356.49216,-24.077185 L356.66556,-23.365595 L356.83896,-22.675037 L357.01233,-22.004889 L357.18573,-21.354548 L357.35913,-20.723425 L357.5325,-74.719406 L357.7059,-72.511116 L357.8793,-70.36809 L358.05267,-68.28839 L358.22607,-66.270164 L358.39948,-117.76911 L358.57285,-114.288506 L358.74625,-110.91077 L358.91965,-107.63286 L359.09302,-104.45183 L359.26642,-101.36481 L359.43982,-98.369026 L359.6132,-95.461784 L359.7866,-92.640465 L359.96,-89.90252 L360.1334,-87.2455 L360.30676,-84.66701 L360.48016,-82.16472 L360.65356,-79.73638 L360.82693,-130.81111 L361.00034,-126.94505 L361.17374,-123.19326 L361.3471,-119.55235 L361.5205,-116.01904 L361.6939,-112.590164 L361.86728,-109.26262 L362.04068,-106.033424 L362.21408,-102.89966 L362.38745,-153.1457 L362.56085,-148.61957 L362.73425,-144.22719 L362.90762,-139.96463 L363.08102,-135.82805 L363.25443,-131.81372 L363.4278,-127.918045 L363.6012,-124.13749 L363.7746,-120.46867 L363.94797,-116.90829 L364.12137,-113.453125 L364.29477,-110.100075 L364.46817,-106.84613 L364.64154,-103.68835 L364.81494,-100.62389 L364.98834,-97.65001 L365.1617,-149.39339 L365.3351,-198.96497 L365.5085,-193.08467 L365.6819,-187.37816 L365.8553,-235.48093 L366.0287,-228.52141 L366.20206,-221.76758 L366.37546,-215.21336 L366.54886,-208.85284 L366.72223,-202.68031 L366.89563,-196.6902 L367.06903,-190.87714 L367.2424,-185.23586 L367.4158,-179.7613 L367.5892,-174.44856 L367.76257,-169.29283 L367.93597,-164.28947 L368.10938,-159.43398 L368.28278,-154.722 L368.45615,-150.14926 L368.62955,-145.71169 L368.80295,-141.40526 L368.97632,-137.2261 L369.14972,-133.17046 L369.32312,-129.23466 L369.4965,-125.41521 L369.6699,-121.70863 L369.8433,-118.111595 L370.01666,-114.62087 L370.19006,-164.32083 L370.36346,-159.46442 L370.53683,-154.75153 L370.71024,-150.17793 L370.88364,-145.7395 L371.057,-141.43225 L371.2304,-137.25229 L371.4038,-133.19588 L371.57718,-129.25934 L371.75058,-125.43915 L371.92398,-121.731865 L372.09735,-118.13414 L372.27075,-114.642746 L372.44415,-111.25455 L372.61755,-107.96648 L372.79092,-104.77558 L372.96432,-101.679 L373.13773,-98.67393 L373.3111,-95.757675 L373.4845,-92.927605 L373.6579,-90.18118 L373.83127,-141.98392 L374.00467,-137.78766 L374.17807,-133.71542 L374.35144,-129.76353 L374.52484,-125.92844 L374.69824,-122.20669 L374.8716,-118.59494 L375.045,-115.08993 L375.2184,-111.68851 L375.39178,-108.38761 L375.5652,-105.18427 L375.7386,-102.07561 L375.91196,-99.058815 L376.08536,-96.13119 L376.25876,-93.290085 L376.43213,-90.53294 L376.60553,-87.85729 L376.77893,-85.26071 L376.95233,-82.74088 L377.1257,-80.29552 L377.2991,-77.922424 L377.4725,-130.24548 L377.64587,-126.39614 L377.81927,-122.660576 L377.99268,-119.03541 L378.16605,-115.51738 L378.33945,-166.2418 L378.51285,-161.32861 L378.68622,-156.56064 L378.85962,-151.93358 L379.03302,-147.44325 L379.2064,-143.08565 L379.3798,-138.85683 L379.5532,-134.75299 L379.72656,-130.77043 L379.89996,-126.90559 L380.07336,-123.15496 L380.24673,-119.51518 L380.42014,-115.98297 L380.59354,-112.55516 L380.76694,-109.22865 L380.9403,-106.00046 L381.1137,-102.86767 L381.2871,-99.82747 L381.46048,-150.61705 L381.63388,-146.16565 L381.80728,-141.84581 L381.98065,-137.65363 L382.15405,-133.58534 L382.32745,-129.6373 L382.50082,-125.80594 L382.67422,-122.087814 L382.84763,-118.479576 L383.021,-114.977974 L383.1944,-111.57986 L383.3678,-108.28218 L383.54117,-105.081955 L383.71457,-101.97631 L383.88797,-98.962456 L384.06134,-96.037674 L384.23474,-93.19933 L384.40814,-144.32027 L384.5815,-140.05496 L384.7549,-135.91571 L384.9283,-131.89879 L385.1017,-128.0006 L385.2751,-124.217606 L385.4485,-120.54642 L385.6219,-116.983734 L385.79526,-113.526344 L385.96866,-110.17113 L386.14206,-106.915085 L386.31543,-103.755264 L386.48883,-100.688835 L386.66223,-97.71303 L386.8356,-94.82517 L387.009,-92.02267 L387.1824,-89.302986 L387.35577,-86.66368 L387.52917,-84.10238 L387.70258,-81.61678 L387.87595,-79.20464 L388.04935,-76.86379 L388.22275,-74.592125 L388.39612,-72.38759 L388.56952,-70.248215 L388.74292,-68.172066 L388.9163,-66.15728 L389.0897,-64.202034 L389.2631,-62.304577 L389.4365,-60.4632 L389.60986,-58.67624 L389.78326,-56.942097 L389.95667,-55.2592 L390.13004,-53.626045 L390.30344,-52.041157 L390.47684,-50.50311 L390.6502,-49.010517 L390.8236,-47.562035 L390.997,-46.156364 L391.17038,-44.79224 L391.34378,-43.46843 L391.51718,-42.183743 L391.69055,-40.937023 L391.86395,-39.727154 L392.03735,-38.553036 L392.21072,-37.413624 L392.38412,-36.307884 L392.55753,-35.23482 L392.7309,-34.193478 L392.9043,-33.182907 L393.0777,-32.2022 L393.2511,-31.250484 L393.42447,-30.326893 L393.59787,-29.430597 L393.77127,-28.560793 L393.94464,-27.716694 L394.11804,-26.897541 L394.29144,-26.102598 L394.4648,-25.33115 L394.6382,-24.582502 L394.8116,-23.85598 L394.985,-23.150928 L395.1584,-22.466715 L395.3318,-21.802723 L395.50516,-21.158356 L395.67856,-20.533031 L395.85196,-19.92619 L396.02533,-19.33728 L396.19873,-18.765778 L396.37213,-18.211164 L396.5455,-17.672945 L396.7189,-17.150629 L396.8923,-16.643751 L397.06567,-16.151855 L397.23907,-15.674496 L397.41248,-15.211244 L397.58588,-14.761683 L397.75925,-14.32541 L397.93265,-13.90203 L398.10605,-13.491163 L398.27942,-13.092439 L398.45282,-12.705499 L398.62622,-12.329995 L398.7996,-11.965589 L398.973,-11.611952 L399.1464,-11.268766 L399.31976,-10.935724 L399.49316,-10.612525 L399.66656,-10.298878 L399.83994,-9.994499 L400.01334,-9.699118 L400.18674,-9.412465 L400.3601,-9.134285 L400.5335,-8.864326 L400.7069,-8.602345 L400.88028,-8.348107 L401.05368,-8.101384 L401.22708,-7.861952 L401.40045,-7.6295958 L401.57385,-7.404107 L401.74725,-7.1852827 L401.92065,-6.9729257 L402.09402,-6.7668447 L402.26743,-6.566854 L402.44083,-6.372774 L402.6142,-6.18443 L402.7876,-6.0016527 L402.961,-5.824277 L403.13437,-5.6521435 L403.30777,-5.4850974 L403.48117,-5.3229885 L403.65454,-5.1656704 L403.82794,-5.013002 L404.00134,-4.8648453 L404.1747,-4.7210674 L404.3481,-4.5815387 L404.5215,-4.4461336 L404.6949,-4.3147306 L404.8683,-4.187211 L405.0417,-4.0634604 L405.21506,-3.9433668 L405.38846,-3.8268228 L405.56186,-3.713723 L405.73526,-3.603966 L405.90863,-3.4974527 L406.08203,-3.3940873 L406.25543,-3.2937768 L406.4288,-3.1964312 L406.6022,-3.1019623 L406.7756,-3.0102854 L406.94897,-2.921318 L407.12238,-2.83498 L407.29578,-2.7511938 L407.46915,-2.6698837 L407.64255,-2.5909767 L407.81595,-2.5144017 L407.98932,-2.44009 L408.16272,-2.3679743 L408.33612,-2.29799 L408.5095,-2.2300742 L408.6829,-2.1641655 L408.8563,-2.100205 L409.02966,-2.0381343 L409.20306,-1.9778985 L409.37646,-1.9194427 L409.54984,-1.8627146 L409.72324,-1.8076631 L409.89664,-1.7542386 L410.07004,-1.7023929 L410.2434,-1.6520797 L410.4168,-1.6032534 L410.5902,-1.55587 L410.76358,-1.5098871 L410.93698,-1.4652632 L411.11038,-1.4219581 L411.28375,-1.3799329 L411.45715,-1.3391497 L411.63055,-1.2995719 L411.80392,-1.2611637 L411.97733,-1.2238907 L412.15073,-1.1877192 L412.3241,-1.1526169 L412.4975,-1.1185519 L412.6709,-1.0854937 L412.84427,-1.0534124 L413.01767,-1.0222795 L413.19107,-0.9920665 L413.36444,-0.9627465 L413.53784,-0.9342931 L413.71124,-0.9066805 L413.8846,-0.87988406 L414.058,-0.8538796 L414.2314,-0.8286436 L414.40482,-0.8041535 L414.5782,-0.78038716 L414.7516,-0.75732327 L414.925,-0.73494095 L415.09836,-0.7132202 L415.27176,-0.69214135 L415.44516,-0.67168546 L415.61853,-0.65183413 L415.79193,-0.63256955 L415.96533,-0.6138743 L416.1387,-0.59573156 L416.3121,-0.57812506 L416.4855,-0.56103885 L416.65887,-0.5444577 L416.83228,-0.5283665 L417.00568,-0.5127509 L417.17905,-0.49759683 L417.35245,-0.4828906 L417.52585,-0.46861905 L417.69922,-0.45476925 L417.87262,-0.4413288 L418.04602,-0.42828557 L418.21942,-0.4156278 L418.3928,-0.40334415 L418.5662,-0.39142352 L418.7396,-0.37985522 L418.91296,-0.3686288 L419.08636,-0.35773417 L419.25977,-0.34716153 L419.43314,-0.33690137 L419.60654,-0.3269444 L419.77994,-0.31728175 L419.9533,-53.40219 L420.1267,-51.82392 L420.3001,-50.29229 L420.47348,-48.80593 L420.64688,-47.363495 L420.82028,-45.96369 L420.99365,-44.60526 L421.16705,-43.286976 L421.34045,-42.007652 L421.51382,-40.76614 L421.68723,-39.561317 L421.86063,-38.392105 L422.034,-37.257446 L422.2074,-36.156322 L422.3808,-35.08774 L422.5542,-34.050743 L422.72757,-33.04439 L422.90097,-32.06778 L423.07437,-31.120035 L423.24774,-30.200298 L423.42114,-29.307745 L423.59454,-28.44157 L423.7679,-27.600994 L423.9413,-26.785261 L424.11472,-25.993637 L424.2881,-25.22541 L424.4615,-24.479887 L424.6349,-23.756395 L424.80826,-23.054289 L424.98166,-22.37293 L425.15506,-21.711712 L425.32843,-21.070034 L425.50183,-20.447319 L425.67523,-19.84301 L425.8486,-19.256561 L426.022,-18.687443 L426.1954,-18.135145 L426.36877,-17.59917 L426.54218,-17.079037 L426.71558,-16.574276 L426.88898,-16.08443 L427.06235,-15.609064 L427.23575,-15.147747 L427.40915,-14.700064 L427.58252,-14.265611 L427.75592,-13.843998 L427.92932,-13.434846 L428.1027,-13.0377865 L428.2761,-12.652462 L428.4495,-12.278525 L428.62286,-11.91564 L428.79626,-11.563479 L428.96967,-11.221727 L429.14304,-10.890075 L429.31644,-10.568225 L429.48984,-10.255886 L429.6632,-9.952779 L429.8366,-9.65863 L430.01,-9.373175 L430.18338,-9.096155 L430.35678,-8.827323 L430.53018,-8.566436 L430.70358,-8.31326 L430.87695,-8.067566 L431.05035,-7.829133 L431.22375,-7.5977473 L431.39713,-7.3732 L431.57053,-7.155289 L431.74393,-6.943818 L431.9173,-6.7385974 L432.0907,-6.5394416 L432.2641,-6.346172 L432.43747,-6.158614 L432.61087,-5.9765997 L432.78427,-5.7999644 L432.95764,-5.6285496 L433.13104,-5.462201 L433.30444,-5.3007684 L433.4778,-5.1441073 L433.6512,-4.992076 L433.82462,-4.8445377 L433.998,-4.7013597 L434.1714,-4.5624137 L434.3448,-4.427574 L434.51816,-4.2967196 L434.69156,-4.169732 L434.86496,-4.046498 L435.03836,-3.9269059 L435.21173,-3.8108482 L435.38513,-3.6982207 L435.55853,-3.5889218 L435.7319,-3.4828532 L435.9053,-3.3799193 L436.0787,-3.2800274 L436.25208,-3.183088 L436.42548,-3.0890136 L436.59888,-2.9977195 L436.77225,-56.344738 L436.94565,-54.6795 L437.11905,-53.063477 L437.29242,-51.495213 L437.46582,-49.9733 L437.63922,-48.496365 L437.8126,-47.063084 L437.986,-45.672157 L438.1594,-44.322342 L438.33276,-43.012417 L438.50616,-41.74121 L438.67957,-94.29453 L438.85294,-91.50771 L439.02634,-88.80325 L439.19974,-86.17872 L439.37314,-83.63175 L439.5465,-81.16006 L439.7199,-78.76141 L439.8933,-76.43366 L440.06668,-74.174706 L440.24008,-71.98251 L440.41348,-69.85511 L440.58685,-67.79058 L440.76025,-65.78706 L440.93365,-63.842762 L441.10703,-61.955925 L441.28043,-60.12485 L441.45383,-58.347893 L441.6272,-56.62345 L441.8006,-54.949974 L441.974,-53.32596 L442.14737,-51.74994 L442.32077,-50.220497 L442.49417,-48.736256 L442.66754,-47.295883 L442.84094,-45.89808 L443.01434,-44.541584 L443.18774,-43.22518 L443.3611,-41.947685 L443.53452,-40.707943 L443.70792,-39.50484 L443.8813,-38.337296 L444.0547,-37.204258 L444.2281,-36.104706 L444.40146,-35.03765 L444.57486,-34.002132 L444.74826,-32.99722 L444.92163,-32.022003 L445.09503,-31.07561 L445.26843,-30.157187 L445.4418,-29.265907 L445.6152,-28.400969 L445.7886,-27.561592 L445.96198,-26.747025 L446.13538,-25.956532 L446.30878,-25.1894 L446.48215,-24.44494 L446.65555,-23.722483 L446.82895,-76.39971 L447.00232,-74.14176 L447.17572,-71.95054 L447.34912,-69.82408 L447.52252,-67.76047 L447.6959,-65.75784 L447.8693,-63.814404 L448.0427,-61.928402 L448.21606,-60.09814 L448.38947,-58.321976 L448.56287,-56.598297 L448.73624,-54.925568 L448.90964,-53.30227 L449.08304,-51.72695 L449.2564,-50.19819 L449.4298,-48.714607 L449.6032,-47.27487 L449.77658,-45.87769 L449.94998,-98.88252 L450.12338,-95.960106 L450.29675,-93.124054 L450.47015,-144.93236 L450.64355,-140.64896 L450.81693,-136.49216 L450.99033,-132.4582 L451.16373,-128.54347 L451.3371,-124.74444 L451.5105,-121.057686 L451.6839,-117.47989 L451.8573,-167.45631 L452.03067,-162.50723 L452.20407,-157.70442 L452.37747,-153.04355 L452.55084,-148.52043 L452.72424,-144.13098 L452.89764,-139.87128 L453.071,-135.73746 L453.24442,-131.7258 L453.41782,-127.83272 L453.5912,-177.43436 L453.7646,-172.19038 L453.938,-167.10138 L454.11136,-162.1628 L454.28476,-157.37016 L454.45816,-152.71916 L454.63153,-148.20563 L454.80493,-143.8255 L454.97833,-139.57481 L455.1517,-135.44975 L455.3251,-131.44661 L455.4985,-127.561775 L455.6719,-123.79175 L455.84528,-120.133156 L456.01868,-116.58268 L456.19208,-113.13714 L456.36545,-109.793434 L456.53885,-106.548546 L456.71225,-103.39956 L456.88562,-100.34364 L457.05902,-97.378044 L457.23242,-94.500084 L457.4058,-91.707184 L457.5792,-88.996826 L457.7526,-140.46056 L457.92596,-136.30933 L458.09937,-132.28078 L458.27277,-128.37129 L458.44614,-124.57735 L458.61954,-120.89552 L458.79294,-117.322525 L458.9663,-113.85512 L459.1397,-164.67062 L459.3131,-159.80386 L459.48648,-155.08095 L459.65988,-150.49762 L459.83328,-146.04974 L460.00668,-141.73332 L460.18005,-137.54446 L460.35345,-187.924 L460.52686,-182.37001 L460.70023,-176.98016 L460.87363,-171.7496 L461.04703,-220.32594 L461.2204,-213.81433 L461.3938,-207.49516 L461.5672,-201.36275 L461.74057,-195.41158 L461.91397,-189.63629 L462.08737,-184.0317 L462.26074,-178.59274 L462.43414,-173.31453 L462.60754,-168.1923 L462.7809,-163.22147 L462.9543,-158.39755 L463.12772,-153.71619 L463.3011,-149.17319 L463.4745,-144.76447 L463.6479,-140.48602 L463.82126,-136.33403 L463.99466,-132.30475 L464.16806,-128.39456 L464.34146,-124.59992 L464.51483,-120.91744 L464.68823,-117.34379 L464.86163,-113.875755 L465.035,-110.51022 L465.2084,-107.24415 L465.3818,-104.07461 L465.55518,-100.99873 L465.72858,-98.01377 L465.90198,-95.11703 L466.07535,-92.30589 L466.24875,-89.57784 L466.42215,-86.93042 L466.59552,-84.36124 L466.76892,-81.86798 L466.94232,-79.44842 L467.1157,-77.100365 L467.2891,-74.8217 L467.4625,-72.61039 L467.63586,-70.464424 L467.80927,-68.38189 L467.98267,-66.3609 L468.15607,-64.399635 L468.32944,-62.49634 L468.50284,-60.649296 L468.67624,-58.85684 L468.8496,-57.117355 L469.023,-55.429283 L469.1964,-53.7911 L469.36978,-52.201332 L469.54318,-50.65855 L469.71658,-49.16136 L469.88995,-47.708424 L470.06335,-46.298428 L470.23676,-44.930103 L470.41013,-43.60222 L470.58353,-42.313576 L470.75693,-41.063023 L470.9303,-39.849426 L471.1037,-38.671696 L471.2771,-37.528778 L471.45047,-36.419632 L471.62387,-35.34327 L471.79727,-34.298717 L471.97064,-33.285038 L472.14404,-32.301315 L472.31744,-31.346668 L472.49084,-30.420235 L472.6642,-29.521181 L472.83762,-28.648699 L473.01102,-27.802002 L473.1844,-26.980328 L473.3578,-26.18294 L473.5312,-25.409117 L473.70456,-24.658163 L473.87796,-23.929403 L474.05136,-23.222183 L474.22473,-22.535864 L474.39813,-21.86983 L474.57153,-21.223478 L474.7449,-20.59623 L474.9183,-19.987518 L475.0917,-19.396797 L475.26508,-18.823536 L475.43848,-18.267216 L475.61188,-17.727339 L475.78525,-17.203417 L475.95865,-16.694979 L476.13205,-16.201567 L476.30542,-15.722739 L476.47882,-15.258061 L476.65222,-14.807117 L476.82562,-14.369501 L476.999,-13.9448185 L477.1724,-13.532687 L477.3458,-13.132735 L477.51917,-12.744604 L477.69257,-12.367945 L477.86597,-12.002417 L478.03934,-11.647692 L478.21274,-11.303451 L478.38614,-10.969382 L478.5595,-10.645188 L478.7329,-10.330576 L478.9063,-10.025261 L479.07968,-9.72897 L479.25308,-9.441435 L479.42648,-9.162398 L479.59985,-8.891609 L479.77325,-8.628822 L479.94666,-8.373802 L480.12003,-8.126319 L480.29343,-7.8861494 L480.46683,-7.6530786 L480.64023,-7.426896 L480.8136,-7.207398 L480.987,-60.206047 L481.1604,-58.42669 L481.33377,-56.69992 L481.50717,-55.024185 L481.68057,-53.397972 L481.85394,-51.819824 L482.02734,-50.28832 L482.20074,-48.802074 L482.3741,-47.359753 L482.54752,-45.96006 L482.72092,-44.601738 L482.8943,-43.283554 L483.0677,-42.004333 L483.2411,-40.762917 L483.41446,-39.558193 L483.58786,-38.38907 L483.76126,-37.2545 L483.93463,-36.153465 L484.10803,-35.08497 L484.28143,-34.04805 L484.4548,-33.04178 L484.6282,-32.065247 L484.8016,-31.117575 L484.975,-30.197912 L485.14838,-29.30543 L485.32178,-28.439323 L485.49518,-27.598814 L485.66855,-26.783146 L485.84195,-25.991583 L486.01535,-25.223417 L486.18872,-24.477951 L486.36212,-23.754519 L486.53552,-23.052467 L486.7089,-22.371164 L486.8823,-21.709995 L487.0557,-21.068369 L487.22906,-20.445704 L487.40247,-19.841442 L487.57587,-19.25504 L487.74924,-18.685966 L487.92264,-18.133713 L488.09604,-17.59778 L488.2694,-17.077688 L488.4428,-16.572966 L488.6162,-16.08316 L488.78958,-15.607831 L488.96298,-15.14655 L489.13638,-14.698902 L489.30978,-14.264483 L489.48315,-13.842904 L489.65656,-13.4337845 L489.82996,-13.0367565 L490.00333,-12.651462 L490.17673,-12.2775545 L490.35013,-11.914699 L490.5235,-11.562566 L490.6969,-11.22084 L490.8703,-10.8892145 L491.04367,-64.646866 L491.21707,-62.736267 L491.39047,-60.88213 L491.56384,-59.08279 L491.73724,-57.336628 L491.91064,-55.642075 L492.084,-53.997604 L492.25742,-52.401733 L492.43082,-50.853027 L492.6042,-49.350094 L492.7776,-47.89158 L492.951,-46.47617 L493.1244,-45.10259 L493.29776,-43.769608 L493.47116,-42.47602 L493.64456,-41.220665 L493.81793,-40.00241 L493.99133,-38.82016 L494.16473,-37.67285 L494.3381,-36.55945 L494.5115,-35.478954 L494.6849,-34.430393 L494.85828,-33.41282 L495.03168,-32.425323 L495.20508,-31.46701 L495.37845,-30.53702 L495.55185,-29.634514 L495.72525,-28.758682 L495.89862,-27.908733 L496.07202,-27.083906 L496.24542,-26.283455 L496.4188,-25.506662 L496.5922,-24.752827 L496.7656,-24.02127 L496.93896,-23.311335 L497.11237,-22.62238 L497.28577,-21.953787 L497.45917,-21.304955 L497.63254,-74.92467 L497.80594,-72.71031 L497.97934,-70.56139 L498.1527,-68.47599 L498.3261,-66.45222 L498.4995,-64.48826 L498.67288,-62.582344 L498.84628,-60.732754 L499.01968,-58.93783 L499.19305,-57.195953 L499.36646,-55.505558 L499.53986,-53.86512 L499.71323,-52.273167 L499.88663,-50.72826 L500.06003,-49.229015 L500.2334,-47.77408 L500.4068,-46.36214 L500.5802,-44.991932 L500.75357,-43.66222 L500.92697,-42.371803 L501.10037,-41.11953 L501.27374,-39.904263 L501.44714,-38.724915 L501.62054,-37.58042 L501.79395,-36.46975 L501.96732,-35.391907 L502.14072,-34.345917 L502.31412,-33.33084 L502.4875,-86.2036 L502.6609,-83.65589 L502.8343,-81.18349 L503.00766,-78.78416 L503.18106,-76.45573 L503.35446,-74.19612 L503.52783,-72.003296 L503.70123,-69.875275 L503.87463,-67.81015 L504.048,-65.80605 L504.2214,-63.861195 L504.3948,-61.973812 L504.56818,-60.14221 L504.74158,-58.364735 L504.91498,-56.639797 L505.08835,-54.96584 L505.26175,-53.341354 L505.43515,-51.764877 L505.60855,-50.234993 L505.78192,-48.750324 L505.95532,-47.309536 L506.12872,-45.911327 L506.3021,-44.554443 L506.4755,-43.23766 L506.6489,-41.959793 L506.82227,-40.719696 L506.99567,-39.516247 L507.16907,-38.348366 L507.34244,-37.215 L507.51584,-36.11513 L507.68924,-35.047768 L507.8626,-34.011948 L508.036,-33.006744 L508.2094,-32.031246 L508.38278,-31.08458 L508.55618,-30.165892 L508.72958,-29.274355 L508.90295,-28.409166 L509.07635,-27.56955 L509.24976,-26.754745 L509.42313,-25.964024 L509.59653,-25.19667 L509.76993,-24.451996 L509.94333,-23.729332 L510.1167,-23.028023 L510.2901,-22.347443 L510.4635,-21.686975 L510.63687,-21.046028 L510.81027,-20.424025 L510.98367,-19.820404 L511.15704,-19.234621 L511.33044,-18.666153 L511.50385,-18.114485 L511.67722,-17.57912 L511.85062,-17.05958 L512.024,-69.97734 L512.1974,-67.9092 L512.3708,-65.90218 L512.5442,-63.954475 L512.7176,-62.064335 L512.891,-60.230057 L513.06433,-58.44999 L513.23773,-56.72253 L513.41113,-55.046127 L513.58453,-53.41927 L513.75793,-51.840492 L513.93134,-103.43997 L514.1047,-100.38286 L514.2781,-97.4161 L514.4515,-94.53702 L514.6249,-91.74303 L514.7983,-89.03161 L514.9717,-86.40033 L515.145,-83.84681 L515.3184,-81.36877 L515.4918,-78.96395 L515.6652,-76.63022 L515.8386,-74.36545 L516.012,-125.44893 L516.1854,-121.74135 L516.35876,-118.14335 L516.53217,-114.65169 L516.70557,-164.73027 L516.87897,-159.86176 L517.05237,-155.13713 L517.22577,-150.55212 L517.3991,-146.10265 L517.5725,-141.78465 L517.7459,-137.59428 L517.9193,-133.52776 L518.0927,-129.58142 L518.2661,-125.75171 L518.43945,-122.03519 L518.61285,-118.4285 L518.78625,-114.928406 L518.95966,-111.53176 L519.13306,-108.2355 L519.30646,-105.03666 L519.4798,-101.93236 L519.6532,-98.9198 L519.8266,-95.99628 L520,-93.15916" fill="none" stroke="#0971B2" stroke-linejoin="round" stroke-width="1.2"/>
</g>
<g>
<path d="M23.130344,-60.499283 l2.4,2.4 m-2.4,0 l2.4,-2.4 z" fill="none" stroke="#FF0000" stroke-width="2"/>
<path d="M36.753155,-61.485874 l2.4,2.4 m-2.4,0 l2.4,-2.4 z" fill="none" stroke="#FF0000" stroke-width="2"/>
<path d="M49.19956,-62.868088 l2.4,2.4 m-2.4,0 l2.4,-2.4 z" fill="none" stroke="#FF0000" stroke-width="2"/>
<path d="M71.76956,-57.11204 l2.4,2.4 m-2.4,0 l2.4,-2.4 z" fill="none" stroke="#FF0000" stroke-width="2"/>
<path d="M78.71133,-72.692604 l2.4,2.4 m-2.4,0 l2.4,-2.4 z" fill="none" stroke="#FF0000" stroke-width="2"/>
<path d="M97.63656,-58.575214 l2.4,2.4 m-2.4,0 l2.4,-2.4 z" fill="none" stroke="#FF0000" stroke-width="2"/>
<path d="M99.799576,-95.33322 l2.4,2.4 m-2.4,0 l2.4,-2.4 z" fill="none" stroke="#FF0000" stroke-width="2"/>
<path d="M102.17893,-118.23714 l2.4,2.4 m-2.4,0 l2.4,-2.4 z" fill="none" stroke="#FF0000" stroke-width="2"/>
<path d="M102.40625,-168.39331 l2.4,2.4 m-2.4,0 l2.4,-2.4 z" fill="none" stroke="#FF0000" stroke-width="2"/>
<path d="M106.8932,-132.79431 l2.4,2.4 m-2.4,0 l2.4,-2.4 z" fill="none" stroke="#FF0000" stroke-width="2"/>
<path d="M112.431816,-106.342995 l2.4,2.4 m-2.4,0 l2.4,-2.4 z" fill="none" stroke="#FF0000" stroke-width="2"/>
<path d="M119.22779,-88.31312 l2.4,2.4 m-2.4,0 l2.4,-2.4 z" fill="none" stroke="#FF0000" stroke-width="2"/>
<path d="M123.1987,-99.69329 l2.4,2.4 m-2.4,0 l2.4,-2.4 z" fill="none" stroke="#FF0000" stroke-width="2"/>
<path d="M143.10295,-59.01616 l2.4,2.4 m-2.4,0 l2.4,-2.4 z" fill="none" stroke="#FF0000" stroke-width="2"/>
<path d="M152.31067,-67.6236 l2.4,2.4 m-2.4,0 l2.4,-2.4 z" fill="none" stroke="#FF0000" stroke-width="2"/>
<path d="M165.37878,-62.794212 l2.4,2.4 m-2.4,0 l2.4,-2.4 z" fill="none" stroke="#FF0000" stroke-width="2"/>
<path d="M165.9177,-111.98066 l2.4,2.4 m-2.4,0 l2.4,-2.4 z" fill="none" stroke="#FF0000" stroke-width="2"/>
<path d="M167.86346,-134.9847 l2.4,2.4 m-2.4,0 l2.4,-2.4 z" fill="none" stroke="#FF0000" stroke-width="2"/>
<path d="M168.09608,-184.37718 l2.4,2.4 m-2.4,0 l2.4,-2.4 z" fill="none" stroke="#FF0000" stroke-width="2"/>
<path d="M175.90628,-103.29456 l2.4,2.4 m-2.4,0 l2.4,-2.4 z" fill="none" stroke="#FF0000" stroke-width="2"/>
<path d="M176.92467,-141.47108 l2.4,2.4 m-2.4,0 l2.4,-2.4 z" fill="none" stroke="#FF0000" stroke-width="2"/>
<path d="M181.50554,-119.36746 l2.4,2.4 m-2.4,0 l2.4,-2.4 z" fill="none" stroke="#FF0000" stroke-width="2"/>
<path d="M185.29468,-117.21473 l2.4,2.4 m-2.4,0 l2.4,-2.4 z" fill="none" stroke="#FF0000" stroke-width="2"/>
<path d="M203.97021,-60.453674 l2.4,2.4 m-2.4,0 l2.4,-2.4 z" fill="none" stroke="#FF0000" stroke-width="2"/>
<path d="M205.21321,-103.65753 l2.4,2.4 m-2.4,0 l2.4,-2.4 z" fill="none" stroke="#FF0000" stroke-width="2"/>
<path d="M205.61366,-151.46902 l2.4,2.4 m-2.4,0 l2.4,-2.4 z" fill="none" stroke="#FF0000" stroke-width="2"/>
<path d="M207.78413,-159.09348 l2.4,2.4 m-2.4,0 l2.4,-2.4 z" fill="none" stroke="#FF0000" stroke-width="2"/>
<path d="M220.56229,-73.17607 l2.4,2.4 m-2.4,0 l2.4,-2.4 z" fill="none" stroke="#FF0000" stroke-width="2"/>
<path d="M222.81357,-104.62547 l2.4,2.4 m-2.4,0 l2.4,-2.4 z" fill="none" stroke="#FF0000" stroke-width="2"/>
<path d="M223.40855,-149.17833 l2.4,2.4 m-2.4,0 l2.4,-2.4 z" fill="none" stroke="#FF0000" stroke-width="2"/>
<path d="M270.92673,-55.90982 l2.4,2.4 m-2.4,0 l2.4,-2.4 z" fill="none" stroke="#FF0000" stroke-width="2"/>
<path d="M289.69498,-57.997177 l2.4,2.4 m-2.4,0 l2.4,-2.4 z" fill="none" stroke="#FF0000" stroke-width="2"/>
<path d="M291.29675,-98.919365 l2.4,2.4 m-2.4,0 l2.4,-2.4 z" fill="none" stroke="#FF0000" stroke-width="2"/>
<path d="M298.5032,-83.95544 l2.4,2.4 m-2.4,0 l2.4,-2.4 z" fill="none" stroke="#FF0000" stroke-width="2"/>
<path d="M303.74887,-89.261116 l2.4,2.4 m-2.4,0 l2.4,-2.4 z" fill="none" stroke="#FF0000" stroke-width="2"/>
<path d="M307.1213,-105.00309 l2.4,2.4 m-2.4,0 l2.4,-2.4 z" fill="none" stroke="#FF0000" stroke-width="2"/>
<path d="M309.8502,-120.60801 l2.4,2.4 m-2.4,0 l2.4,-2.4 z" fill="none" stroke="#FF0000" stroke-width="2"/>
<path d="M315.25616,-102.73198 l2.4,2.4 m-2.4,0 l2.4,-2.4 z" fill="none" stroke="#FF0000" stroke-width="2"/>
<path d="M315.28452,-156.9055 l2.4,2.4 m-2.4,0 l2.4,-2.4 z" fill="none" stroke="#FF0000" stroke-width="2"/>
<path d="M332.56015,-63.70776 l2.4,2.4 m-2.4,0 l2.4,-2.4 z" fill="none" stroke="#FF0000" stroke-width="2"/>
<path d="M332.6394,-117.52653 l2.4,2.4 m-2.4,0 l2.4,-2.4 z" fill="none" stroke="#FF0000" stroke-width="2"/>
<path d="M336.432,-116.22292 l2.4,2.4 m-2.4,0 l2.4,-2.4 z" fill="none" stroke="#FF0000" stroke-width="2"/>
<path d="M338.14746,-141.3538 l2.4,2.4 m-2.4,0 l2.4,-2.4 z" fill="none" stroke="#FF0000" stroke-width="2"/>
<path d="M342.47678,-122.13671 l2.4,2.4 m-2.4,0 l2.4,-2.4 z" fill="none" stroke="#FF0000" stroke-width="2"/>
<path d="M345.9758,-121.88415 l2.4,2.4 m-2.4,0 l2.4,-2.4 z" fill="none" stroke="#FF0000" stroke-width="2"/>
<path d="M356.326,-76.003685 l2.4,2.4 m-2.4,0 l2.4,-2.4 z" fill="none" stroke="#FF0000" stroke-width="2"/>
<path d="M357.06982,-121.64035 l2.4,2.4 m-2.4,0 l2.4,-2.4 z" fill="none" stroke="#FF0000" stroke-width="2"/>
<path d="M359.49448,-135.04384 l2.4,2.4 m-2.4,0 l2.4,-2.4 z" fill="none" stroke="#FF0000" stroke-width="2"/>
<path d="M361.0394,-158.31999 l2.4,2.4 m-2.4,0 l2.4,-2.4 z" fill="none" stroke="#FF0000" stroke-width="2"/>
<path d="M363.95743,-150.70462 l2.4,2.4 m-2.4,0 l2.4,-2.4 z" fill="none" stroke="#FF0000" stroke-width="2"/>
<path d="M364.06244,-202.6829 l2.4,2.4 m-2.4,0 l2.4,-2.4 z" fill="none" stroke="#FF0000" stroke-width="2"/>
<path d="M364.5454,-241.2 l2.4,2.4 m-2.4,0 l2.4,-2.4 z" fill="none" stroke="#FF0000" stroke-width="2"/>
<path d="M368.82028,-170.4192 l2.4,2.4 m-2.4,0 l2.4,-2.4 z" fill="none" stroke="#FF0000" stroke-width="2"/>
<path d="M372.60986,-143.7106 l2.4,2.4 m-2.4,0 l2.4,-2.4 z" fill="none" stroke="#FF0000" stroke-width="2"/>
<path d="M376.26782,-131.55048 l2.4,2.4 m-2.4,0 l2.4,-2.4 z" fill="none" stroke="#FF0000" stroke-width="2"/>
<path d="M377.08298,-169.07405 l2.4,2.4 m-2.4,0 l2.4,-2.4 z" fill="none" stroke="#FF0000" stroke-width="2"/>
<path d="M380.16132,-154.42387 l2.4,2.4 m-2.4,0 l2.4,-2.4 z" fill="none" stroke="#FF0000" stroke-width="2"/>
<path d="M383.1235,-147.64897 l2.4,2.4 m-2.4,0 l2.4,-2.4 z" fill="none" stroke="#FF0000" stroke-width="2"/>
<path d="M418.5843,-56.187088 l2.4,2.4 m-2.4,0 l2.4,-2.4 z" fill="none" stroke="#FF0000" stroke-width="2"/>
<path d="M435.44025,-58.84637 l2.4,2.4 m-2.4,0 l2.4,-2.4 z" fill="none" stroke="#FF0000" stroke-width="2"/>
<path d="M437.38544,-97.04267 l2.4,2.4 m-2.4,0 l2.4,-2.4 z" fill="none" stroke="#FF0000" stroke-width="2"/>
<path d="M445.49075,-79.44852 l2.4,2.4 m-2.4,0 l2.4,-2.4 z" fill="none" stroke="#FF0000" stroke-width="2"/>
<path d="M448.7172,-100.64517 l2.4,2.4 m-2.4,0 l2.4,-2.4 z" fill="none" stroke="#FF0000" stroke-width="2"/>
<path d="M449.25858,-146.42325 l2.4,2.4 m-2.4,0 l2.4,-2.4 z" fill="none" stroke="#FF0000" stroke-width="2"/>
<path d="M450.52667,-172.48352 l2.4,2.4 m-2.4,0 l2.4,-2.4 z" fill="none" stroke="#FF0000" stroke-width="2"/>
<path d="M452.25314,-182.92357 l2.4,2.4 m-2.4,0 l2.4,-2.4 z" fill="none" stroke="#FF0000" stroke-width="2"/>
<path d="M456.49136,-143.15634 l2.4,2.4 m-2.4,0 l2.4,-2.4 z" fill="none" stroke="#FF0000" stroke-width="2"/>
<path d="M457.88773,-167.35872 l2.4,2.4 m-2.4,0 l2.4,-2.4 z" fill="none" stroke="#FF0000" stroke-width="2"/>
<path d="M459.12958,-189.90219 l2.4,2.4 m-2.4,0 l2.4,-2.4 z" fill="none" stroke="#FF0000" stroke-width="2"/>
<path d="M459.7384,-225.70534 l2.4,2.4 m-2.4,0 l2.4,-2.4 z" fill="none" stroke="#FF0000" stroke-width="2"/>
<path d="M479.6307,-63.05613 l2.4,2.4 m-2.4,0 l2.4,-2.4 z" fill="none" stroke="#FF0000" stroke-width="2"/>
<path d="M489.7809,-66.55283 l2.4,2.4 m-2.4,0 l2.4,-2.4 z" fill="none" stroke="#FF0000" stroke-width="2"/>
<path d="M496.3879,-76.705666 l2.4,2.4 m-2.4,0 l2.4,-2.4 z" fill="none" stroke="#FF0000" stroke-width="2"/>
<path d="M501.201,-88.703606 l2.4,2.4 m-2.4,0 l2.4,-2.4 z" fill="none" stroke="#FF0000" stroke-width="2"/>
<path d="M510.69052,-72.81222 l2.4,2.4 m-2.4,0 l2.4,-2.4 z" fill="none" stroke="#FF0000" stroke-width="2"/>
<path d="M512.56635,-107.63511 l2.4,2.4 m-2.4,0 l2.4,-2.4 z" fill="none" stroke="#FF0000" stroke-width="2"/>
<path d="M514.66327,-129.91866 l2.4,2.4 m-2.4,0 l2.4,-2.4 z" fill="none" stroke="#FF0000" stroke-width="2"/>
<path d="M515.37695,-169.63664 l2.4,2.4 m-2.4,0 l2.4,-2.4 z" fill="none" stroke="#FF0000" stroke-width="2"/>
</g>
<g>
<g>
<line stroke="black" stroke-width="1" x1="0" x2="0" y1="0" y2="10"/>
<line stroke="black" stroke-width="1" x1="115.59408691786152" x2="115.59408691786152" y1="0" y2="10"/>
<line stroke="black" stroke-width="1" x1="231.18817383572303" x2="231.18817383572303" y1="0" y2="10"/>
<line stroke="black" stroke-width="1" x1="346.7822607535845" x2="346.7822607535845" y1="0" y2="10"/>
<line stroke="black" stroke-width="1" x1="462.37634767144607" x2="462.37634767144607" y1="0" y2="10"/>
</g>
<line stroke="black" stroke-width="1" x1="0" x2="520" y1="0" y2="0"/>
<g>
<text font-size="12" text-anchor="middle" x="0" y="20">
0
</text>
<text font-size="12" text-anchor="middle" x="115.59408691786152" y="20">
20
</text>
<text font-size="12" text-anchor="middle" x="231.18817383572303" y="20">
40
</text>
<text font-size="12" text-anchor="middle" x="346.7822607535845" y="20">
60
</text>
<text font-size="12" text-anchor="middle" x="462.37634767144607" y="20">
80
</text>
</g>
<text font-size="12" text-anchor="middle" x="260" y="30">
Time t
</text>
</g>
<g>
<g>
<line stroke="black" stroke-width="1" x1="0" x2="-10" y1="-0.00000000000003034797051316255" y2="-0.00000000000003034797051316255"/>
<line stroke="black" stroke-width="1" x1="0" x2="-10" y1="-54.67004347781188" y2="-54.67004347781188"/>
<line stroke="black" stroke-width="1" x1="0" x2="-10" y1="-109.34008695562373" y2="-109.34008695562373"/>
<line stroke="black" stroke-width="1" x1="0" x2="-10" y1="-164.01013043343565" y2="-164.01013043343565"/>
<line stroke="black" stroke-width="1" x1="0" x2="-10" y1="-218.6801739112475" y2="-218.6801739112475"/>
</g>
<line stroke="black" stroke-width="1" x1="0" x2="0" y1="0" y2="-240"/>
<g>
<text dominant-baseline="middle" font-size="12" text-anchor="end" x="-15" y="-0.00000000000003034797051316255">
0.6000000000000001
</text>
<text dominant-baseline="middle" font-size="12" text-anchor="end" x="-15" y="-54.67004347781188">
0.8
</text>
<text dominant-baseline="middle" font-size="12" text-anchor="end" x="-15" y="-109.34008695562373">
1
</text>
<text dominant-baseline="middle" font-size="12" text-anchor="end" x="-15" y="-164.01013043343565">
1.2000000000000002
</text>
<text dominant-baseline="middle" font-size="12" text-anchor="end" x="-15" y="-218.6801739112475">
1.4000000000000001
</text>
</g>
<text font-size="12" text-anchor="middle" transform="rotate(-90 -30 -120)" x="-30" y="-120">
(t)
</text>
</g>
</g>
</svg>