<svg viewBox="0 0 900 400" xmlns="http://www.w3.org/2000/svg">
<g transform="translate(48, 364)">
<g>
<path d="M0,0 L0,0 L0.27342448,0 L0.54684895,0 L0.8202734,0 L1.0936979,0 L1.3671224,0 L1.6405468,0 L1.9139713,0 L2.1873958,0 L2.4608202,0 L2.7342448,0 L3.0076692,0 L3.2810936,0 L3.5545182,0 L3.8279426,0 L4.101367,0 L4.3747916,0 L4.6482162,-62.4505 L4.9216404,-60.60481 L5.195065,-58.813667 L5.4684896,-57.075462 L5.741914,-55.388626 L6.0153384,-53.751644 L6.288763,-52.163044 L6.562187,-50.62139 L6.835612,-49.125305 L7.1090364,-47.67343 L7.3824606,-197.76167 L7.655885,-191.91693 L7.92931,-186.24493 L8.202734,-180.74055 L8.476159,-175.39886 L8.749583,-170.21504 L9.023007,-256.076 L9.2964325,-248.50778 L9.569857,-241.16327 L9.843281,-234.03581 L10.116706,-227.11902 L10.39013,-220.40663 L10.663554,-213.89264 L10.936979,-207.57115 L11.210403,-201.4365 L11.483828,-195.48315 L11.757253,-189.70575 L12.030677,-184.09909 L12.304101,-178.65814 L12.577526,-173.378 L12.85095,-168.2539 L13.124374,-163.28125 L13.3977995,-158.45557 L13.671224,-153.77249 L13.944648,-149.22783 L14.218073,-144.81747 L14.491497,-140.53748 L14.764921,-136.38396 L15.038346,-132.35321 L15.31177,-128.44157 L15.585196,-124.64556 L15.85862,-120.96172 L16.132044,-117.386765 L16.405468,-113.917465 L16.678892,-110.55069 L16.952318,-107.283424 L17.225742,-104.112724 L17.499166,-101.03573 L17.77259,-98.04967 L18.046015,-95.15186 L18.319439,-92.3397 L18.592865,-89.61065 L18.86629,-86.96226 L19.139713,-84.392136 L19.413137,-81.897964 L19.686562,-79.477516 L19.959986,-77.1286 L20.233412,-74.849106 L20.506836,-72.63698 L20.78026,-70.490234 L21.053684,-68.40693 L21.327108,-66.3852 L21.600534,-64.423225 L21.873959,-62.51923 L22.147383,-60.671505 L22.420807,-58.87839 L22.694231,-57.13827 L22.967655,-55.44958 L23.241081,-53.8108 L23.514505,-52.22045 L23.78793,-50.6771 L24.061354,-49.179367 L24.334778,-47.7259 L24.608202,-46.315384 L24.881628,-44.946556 L25.155052,-43.618187 L25.428476,-42.329075 L25.7019,-41.07806 L25.975325,-39.86402 L26.248749,-38.68586 L26.522175,-37.542522 L26.795599,-36.432972 L27.069023,-35.356213 L27.342447,-34.31128 L27.615871,-33.29723 L27.889296,-32.31315 L28.162722,-31.358149 L28.436146,-30.431376 L28.70957,-29.531992 L28.982994,-28.659191 L29.256418,-27.812183 L29.529842,-26.99021 L29.803268,-26.192528 L30.076693,-25.41842 L30.350117,-24.667194 L30.62354,-23.938168 L30.896965,-23.230688 L31.170391,-22.544117 L31.443815,-21.877838 L31.71724,-21.23125 L31.990664,-20.603771 L32.264088,-19.994839 L32.537514,-19.403902 L32.810936,-18.83043 L33.084362,-18.273907 L33.357784,-17.733831 L33.63121,-17.209717 L33.904636,-16.701094 L34.17806,-16.2075 L34.451485,-15.7284975 L34.724907,-15.26365 L34.998333,-14.812541 L35.27176,-14.374764 L35.54518,-13.949925 L35.818607,-13.537643 L36.09203,-13.137546 L36.365456,-12.749272 L36.638878,-12.372474 L36.912304,-12.006812 L37.18573,-11.6519575 L37.459152,-11.30759 L37.73258,-10.9734 L38.006,-10.649087 L38.279427,-10.334359 L38.552853,-10.028933 L38.826275,-9.7325325 L39.0997,-9.444893 L39.373123,-9.165754 L39.64655,-8.894865 L39.91997,-8.631982 L40.193398,-8.376868 L40.466824,-8.129294 L40.740246,-7.8890376 L41.01367,-7.6558814 L41.287094,-7.429616 L41.56052,-7.2100377 L41.833946,-6.9969487 L42.10737,-6.790158 L42.380795,-6.589478 L42.654217,-6.3947296 L42.927643,-6.205737 L43.20107,-6.02233 L43.47449,-5.8443427 L43.747917,-5.6716166 L44.02134,-5.503995 L44.294765,-5.341327 L44.568188,-5.1834674 L44.841614,-5.0302725 L45.11504,-4.8816056 L45.388462,-4.7373323 L45.66189,-4.597323 L45.93531,-4.4614515 L46.208736,-4.3295956 L46.482162,-4.201637 L46.755585,-4.07746 L47.02901,-3.9569526 L47.302433,-3.8400068 L47.57586,-3.7265177 L47.84928,-3.6163824 L48.122707,-3.5095022 L48.396133,-3.4057806 L48.669556,-3.3051245 L48.94298,-3.2074435 L49.216404,-3.1126492 L49.48983,-3.0206563 L49.763256,-2.9313827 L50.03668,-2.844747 L50.310104,-2.760672 L50.583527,-2.679082 L50.856953,-2.599903 L51.130375,-2.5230644 L51.4038,-2.4484966 L51.677227,-2.3761325 L51.95065,-65.50081 L52.224075,-63.564964 L52.497498,-61.686337 L52.770924,-59.863228 L53.04435,-58.094 L53.317772,-56.377064 L53.591198,-54.710873 L53.86462,-115.94115 L54.138046,-112.51457 L54.411472,-109.18926 L54.684895,-105.96223 L54.95832,-102.830574 L55.231743,-99.79147 L55.50517,-159.55673 L55.77859,-154.84111 L56.052017,-150.26486 L56.325443,-145.82387 L56.598866,-141.51413 L56.87229,-137.33176 L57.145714,-133.27298 L57.41914,-129.33417 L57.692566,-125.51177 L57.96599,-121.80234 L58.239414,-118.20253 L58.512836,-114.70912 L58.786263,-111.318954 L59.059685,-108.028984 L59.33311,-104.83624 L59.606537,-101.73786 L59.87996,-98.73106 L60.153385,-95.81311 L60.426807,-92.98141 L60.700233,-90.23339 L60.97366,-87.56659 L61.24708,-84.97861 L61.520508,-82.46711 L61.79393,-80.02984 L62.067356,-77.6646 L62.340782,-75.36926 L62.614204,-73.14176 L62.88763,-70.980095 L63.161053,-68.88232 L63.43448,-66.84654 L63.7079,-64.870926 L63.981327,-62.9537 L64.25475,-61.093136 L64.528175,-59.287563 L64.8016,-57.53535 L65.07503,-55.834923 L65.34845,-54.184753 L65.62187,-52.58335 L65.8953,-51.029278 L66.168724,-49.521133 L66.44215,-48.057564 L66.71557,-46.63725 L66.989,-45.258907 L67.26242,-43.921307 L67.53584,-42.623234 L67.80927,-41.36353 L68.082695,-102.914925 L68.35612,-99.87333 L68.62954,-96.92162 L68.90297,-94.05716 L69.17639,-91.27735 L69.449814,-88.5797 L69.72324,-85.96177 L69.996666,-83.42122 L70.27009,-80.95575 L70.54352,-78.56314 L70.81694,-76.24125 L71.09036,-73.98798 L71.363785,-71.80131 L71.637215,-69.67926 L71.91064,-67.61993 L72.18406,-65.62145 L72.45749,-63.682045 L72.73091,-125.199936 L73.00433,-121.49972 L73.277756,-117.90886 L73.551186,-114.424126 L73.82461,-111.04238 L74.09803,-107.76058 L74.37146,-104.575775 L74.64488,-101.48509 L74.918304,-98.485756 L75.191734,-95.57506 L75.46516,-92.75039 L75.73858,-90.0092 L76.012,-87.34903 L76.28543,-84.76748 L76.55885,-82.262215 L76.832275,-79.831 L77.105705,-77.47164 L77.37913,-75.18201 L77.65255,-72.960045 L77.92597,-70.80375 L78.1994,-130.37779 L78.472824,-126.52454 L78.74625,-122.78517 L79.01968,-119.15633 L79.2931,-115.63472 L79.56652,-112.2172 L79.83994,-108.90068 L80.11337,-105.68218 L80.386795,-102.5588 L80.66022,-99.527725 L80.93365,-96.58624 L81.20707,-93.73168 L81.48049,-90.961494 L81.75392,-88.27318 L82.02734,-85.66431 L82.300766,-83.132545 L82.57419,-80.675606 L82.84762,-78.29128 L83.12104,-75.977425 L83.39446,-73.73196 L83.66789,-71.55285 L83.941315,-130.97072 L84.21474,-127.099945 L84.48816,-123.343575 L84.76159,-119.69822 L85.03501,-116.16061 L85.30843,-112.72754 L85.58186,-109.395935 L85.855286,-167.95587 L86.12871,-162.99202 L86.40214,-158.17488 L86.67556,-153.5001 L86.94898,-148.96349 L87.222404,-144.56096 L87.495834,-140.28853 L87.76926,-136.14238 L88.04268,-132.11876 L88.31611,-128.21407 L88.58953,-124.42477 L88.86295,-120.74746 L89.136375,-180.42645 L89.409805,-175.09404 L89.68323,-169.91924 L89.95665,-164.89735 L90.23008,-160.02391 L90.5035,-155.29448 L90.776924,-150.70483 L91.05035,-146.25084 L91.32378,-141.92847 L91.5972,-199.64291 L91.87062,-193.74257 L92.14405,-188.01662 L92.41747,-182.45988 L92.690895,-177.06737 L92.964325,-171.83424 L93.23775,-166.75577 L93.51117,-161.8274 L93.78459,-157.04468 L94.05802,-152.4033 L94.33144,-147.89911 L94.604866,-206.38622 L94.878296,-200.28658 L95.15172,-194.36722 L95.42514,-188.62279 L95.69856,-183.04814 L95.97199,-177.63826 L96.245415,-172.38826 L96.51884,-167.29341 L96.79227,-162.34914 L97.06569,-157.551 L97.33911,-152.89467 L97.61254,-148.37595 L97.88596,-143.99077 L98.159386,-139.7352 L98.43281,-135.60541 L98.70624,-131.59766 L98.97966,-127.70836 L99.25308,-123.934006 L99.52651,-120.2712 L99.799934,-116.71665 L100.07336,-113.26715 L100.34678,-109.9196 L100.62021,-106.67099 L100.89363,-103.51839 L101.16705,-100.458954 L101.44048,-97.489944 L101.713905,-94.60868 L101.98733,-91.81257 L102.26075,-89.0991 L102.53418,-86.46582 L102.8076,-83.91037 L103.081024,-81.43044 L103.354454,-79.02381 L103.62788,-76.68831 L103.9013,-74.42182 L104.17473,-72.22233 L104.44815,-70.08784 L104.72157,-68.016426 L104.994995,-66.00623 L105.268425,-64.05546 L105.54185,-62.16233 L105.81527,-60.325157 L106.0887,-58.54228 L106.36212,-56.812096 L106.635544,-55.13304 L106.908966,-53.503616 L107.182396,-51.922344 L107.45582,-50.387806 L107.72924,-48.89862 L108.00267,-47.45345 L108.27609,-46.050987 L108.549515,-44.689976 L108.822945,-43.369186 L109.09637,-42.087433 L109.36979,-40.843563 L109.64321,-39.63645 L109.91664,-38.46502 L110.19006,-37.328205 L110.463486,-36.22499 L110.736916,-35.15438 L111.01034,-34.11541 L111.28376,-33.107147 L111.55718,-32.128685 L111.83061,-31.179138 L112.104034,-30.257656 L112.37746,-29.363407 L112.65089,-28.495586 L112.92431,-27.653416 L113.19773,-26.836132 L113.47115,-26.043005 L113.74458,-25.273317 L114.018005,-24.526379 L114.29143,-23.801516 L114.56486,-23.098074 L114.83828,-22.415422 L115.1117,-21.752947 L115.38513,-21.11005 L115.658554,-20.486153 L115.93198,-19.880695 L116.2054,-19.293133 L116.47883,-18.722935 L116.75225,-18.169588 L117.02567,-17.632595 L117.2991,-17.111473 L117.572525,-16.605753 L117.84595,-16.114979 L118.11937,-15.63871 L118.3928,-15.176516 L118.66622,-14.727982 L118.939644,-14.292705 L119.21307,-13.870291 L119.486496,-13.460362 L119.75992,-13.062549 L120.03335,-12.676492 L120.30677,-12.301845 L120.58019,-11.938271 L120.853615,-11.585441 L121.127045,-11.243039 L121.40047,-10.910757 L121.67389,-10.588296 L121.94732,-10.275364 L122.22074,-9.971682 L122.49416,-9.676973 L122.767586,-9.390976 L123.041016,-9.113431 L123.31444,-8.844088 L123.58786,-8.5827055 L123.86129,-8.329048 L124.13471,-8.082888 L124.408134,-7.8440022 L124.681564,-7.6121774 L124.95499,-7.387203 L125.22841,-7.1688786 L125.50183,-6.957006 L125.77526,-6.7513957 L126.04868,-6.551862 L126.322105,-6.358225 L126.595535,-6.170311 L126.86896,-5.987951 L127.14238,-5.81098 L127.4158,-5.6392393 L127.68923,-5.4725747 L127.962654,-5.310836 L128.23608,-5.153877 L128.5095,-5.001557 L128.78293,-4.8537383 L129.05635,-4.710289 L129.32977,-4.571079 L129.6032,-4.4359827 L129.87663,-4.3048797 L130.15005,-4.1776514 L130.42348,-4.054183 L130.6969,-3.9343638 L130.97032,-3.818086 L131.24374,-3.7052443 L131.51717,-3.595738 L131.7906,-3.4894679 L132.06403,-3.3863385 L132.33745,-3.286257 L132.61087,-3.1891334 L132.8843,-3.0948803 L133.15771,-3.0034127 L133.43114,-2.9146485 L133.70457,-2.8285077 L133.978,-2.7449126 L134.25142,-2.663788 L134.52484,-2.5850613 L134.79826,-2.5086613 L135.07169,-2.434519 L135.34511,-2.3625681 L135.61855,-2.2927437 L135.89197,-2.224983 L136.16539,-2.1592247 L136.43881,-2.0954099 L136.71223,-2.0334814 L136.98566,-1.9733828 L137.25908,-1.9150605 L137.53252,-1.858462 L137.80594,-1.803536 L138.07936,-1.7502335 L138.35278,-1.6985064 L138.6262,-1.6483078 L138.89963,-1.599593 L139.17307,-1.5523179 L139.44649,-1.5064399 L139.71991,-1.4619179 L139.99333,-1.4187118 L140.26675,-1.3767824 L140.54018,-1.3360924 L140.8136,-1.2966049 L141.08704,-1.2582844 L141.36046,-1.2210965 L141.63388,-1.1850077 L141.9073,-1.1499853 L142.18073,-1.1159981 L142.45415,-1.0830154 L142.72757,-1.0510075 L143.001,-1.0199455 L143.27443,-0.9898016 L143.54785,-0.9605485 L143.82127,-0.93216 L144.0947,-0.9046105 L144.36812,-0.87787527 L144.64154,-0.85193014 L144.91498,-0.82675177 L145.1884,-0.80231756 L145.46182,-0.7786055 L145.73524,-0.75559425 L146.00867,-0.7332631 L146.28209,-0.71159184 L146.55551,-0.6905611 L146.82895,-0.67015195 L147.10237,-0.650346 L147.3758,-0.63112533 L147.64922,-0.6124728 L147.92264,-0.5943715 L148.19606,-0.5768051 L148.46948,-0.55975795 L148.74292,-0.5432146 L149.01634,-0.5271602 L149.28976,-0.5115803 L149.56319,-0.4964608 L149.83661,-0.48178816 L150.11003,-0.46754918 L150.38347,-0.453731 L150.65689,-62.10877 L150.93031,-60.27318 L151.20374,-58.491837 L151.47716,-56.76314 L151.75058,-55.085537 L152.024,-53.45751 L152.29744,-51.877605 L152.57086,-50.34439 L152.84428,-48.856487 L153.1177,-47.41256 L153.39113,-46.011307 L153.66455,-44.65147 L153.93797,-43.331818 L154.21141,-42.05117 L154.48483,-40.80837 L154.75826,-39.6023 L155.03168,-38.431873 L155.3051,-37.296043 L155.57852,-36.193775 L155.85194,-35.12409 L156.12538,-34.086014 L156.3988,-33.07862 L156.67223,-32.101 L156.94565,-31.152273 L157.21907,-30.231585 L157.4925,-29.338106 L157.76591,-91.23845 L158.03935,-88.54195 L158.31277,-85.92513 L158.5862,-83.38566 L158.85962,-80.92124 L159.13304,-78.529655 L159.40646,-76.208755 L159.67989,-73.95645 L159.95332,-71.770706 L160.22675,-69.64956 L160.50017,-67.5911 L160.77359,-65.59348 L161.04701,-63.654903 L161.32043,-61.773617 L161.59387,-59.947933 L161.8673,-58.1762 L162.14072,-56.456837 L162.41414,-54.788284 L162.68756,-53.169044 L162.96098,-51.597664 L163.2344,-50.07272 L163.50784,-48.59285 L163.78127,-47.15671 L164.05469,-45.763023 L164.32811,-44.41052 L164.60153,-43.097992 L164.87495,-41.824253 L165.14838,-40.588158 L165.42181,-39.3886 L165.69524,-38.224487 L165.96866,-37.094784 L166.24208,-35.998466 L166.5155,-34.93455 L166.78893,-33.90208 L167.06235,-32.900124 L167.33578,-31.927776 L167.6092,-30.984169 L167.88263,-30.068447 L168.15605,-29.17979 L168.42947,-28.317398 L168.7029,-27.480492 L168.97632,-26.668322 L169.24976,-25.880154 L169.52318,-25.115278 L169.7966,-24.37301 L170.07002,-23.65268 L170.34344,-22.953636 L170.61687,-22.275253 L170.89029,-21.61692 L171.16373,-20.978045 L171.43715,-20.35805 L171.71057,-19.756378 L171.984,-19.17249 L172.25742,-18.605856 L172.53084,-18.05597 L172.80428,-17.522335 L173.0777,-17.004473 L173.35112,-16.501915 L173.62454,-16.014208 L173.89796,-15.540917 L174.17139,-15.081614 L174.44481,-14.635885 L174.71825,-14.203329 L174.99167,-13.783557 L175.26509,-13.376191 L175.53851,-12.9808655 L175.81194,-12.597222 L176.08536,-12.224918 L176.35878,-11.863618 L176.63222,-11.512995 L176.90564,-11.172734 L177.17906,-10.84253 L177.45248,-10.522085 L177.7259,-10.21111 L177.99933,-9.909327 L178.27275,-9.616462 L178.54619,-9.3322525 L178.81961,-9.056442 L179.09303,-8.788784 L179.36646,-8.5290365 L179.63988,-8.276965 L179.9133,-8.032344 L180.18672,-7.7949524 L180.46016,-70.5386 L180.73358,-68.453865 L181.007,-66.43075 L181.28043,-64.46742 L181.55385,-62.562122 L181.82727,-60.71313 L182.1007,-58.91879 L182.37413,-57.177475 L182.64755,-55.487625 L182.92097,-53.847717 L183.1944,-52.25628 L183.46782,-50.711872 L183.74124,-49.213108 L184.01468,-47.75864 L184.2881,-46.34716 L184.56152,-44.977394 L184.83495,-43.648113 L185.10837,-42.358116 L185.38179,-41.106243 L185.65521,-39.89137 L185.92865,-38.712402 L186.20207,-37.56828 L186.4755,-36.457966 L186.74892,-35.38047 L187.02234,-34.33482 L187.29576,-33.320072 L187.56918,-32.335316 L187.84262,-31.379663 L188.11604,-92.358055 L188.38947,-89.62846 L188.66289,-86.97954 L188.93631,-84.408905 L189.20973,-81.914246 L189.48315,-79.49332 L189.75659,-77.14393 L190.03001,-74.86398 L190.30344,-72.65142 L190.57686,-70.50424 L190.85028,-68.42053 L191.1237,-66.3984 L191.39713,-64.43603 L191.67056,-62.531654 L191.94398,-60.683567 L192.2174,-58.890095 L192.49083,-57.14963 L192.76425,-55.460606 L193.03767,-53.821495 L193.3111,-52.23083 L193.58453,-50.687176 L193.85796,-49.189144 L194.13138,-47.735386 L194.4048,-46.32459 L194.67822,-44.95549 L194.95164,-43.626858 L195.22508,-42.337486 L195.4985,-41.086227 L195.77193,-39.871944 L196.04535,-38.69355 L196.31877,-99.540535 L196.5922,-96.59867 L196.86562,-93.743744 L197.13905,-90.9732 L197.41248,-88.28454 L197.6859,-148.14241 L197.95932,-143.76413 L198.23274,-139.51526 L198.50616,-135.39197 L198.77959,-131.39052 L199.05302,-127.50735 L199.32645,-123.73894 L199.59987,-120.0819 L199.87329,-116.53294 L200.14671,-113.088875 L200.42014,-109.74659 L200.69356,-106.50309 L200.967,-103.355446 L201.24042,-100.300835 L201.51384,-97.336494 L201.78726,-94.45977 L202.06068,-91.66806 L202.3341,-88.958855 L202.60753,-86.32973 L202.88097,-83.7783 L203.15439,-81.30228 L203.42781,-78.89943 L203.70123,-76.5676 L203.97466,-74.30469 L204.24808,-72.10865 L204.5215,-69.977516 L204.79494,-67.90937 L205.06836,-65.90234 L205.34178,-63.954636 L205.6152,-62.064487 L205.88863,-60.230206 L206.16205,-58.450134 L206.43549,-56.72267 L206.70891,-55.046265 L206.98233,-53.4194 L207.25575,-51.84062 L207.52917,-50.3085 L207.8026,-48.821655 L208.07602,-47.378757 L208.34946,-45.978504 L208.62288,-44.619633 L208.8963,-43.300926 L209.16972,-42.02119 L209.44315,-40.779274 L209.71657,-39.574066 L209.98999,-38.404476 L210.26343,-98.85178 L210.53685,-95.930275 L210.81027,-93.0951 L211.0837,-90.34373 L211.35712,-87.67367 L211.63054,-85.08252 L211.90396,-82.56795 L212.1774,-80.1277 L212.45082,-77.75957 L212.72424,-75.461426 L212.99767,-73.2312 L213.27109,-71.066895 L213.54451,-68.96655 L213.81793,-66.928276 L214.09137,-64.95025 L214.36479,-63.03068 L214.63821,-61.167843 L214.91164,-59.360058 L215.18506,-57.605705 L215.45848,-55.9032 L215.7319,-54.25101 L216.00534,-52.647648 L216.27876,-51.091675 L216.55219,-49.581688 L216.8256,-48.11633 L217.09903,-46.694275 L217.37245,-45.31425 L217.64589,-43.975014 L217.91931,-42.675354 L218.19273,-41.41411 L218.46616,-40.190136 L218.73958,-39.00234 L219.013,-37.849644 L219.28642,-36.731018 L219.55986,-35.645454 L219.83328,-34.591972 L220.1067,-33.569622 L220.38013,-32.57749 L220.65355,-31.614681 L220.92697,-30.680326 L221.2004,-29.773584 L221.47383,-28.893642 L221.74725,-28.039707 L222.02068,-27.211008 L222.2941,-26.406801 L222.56752,-25.626362 L222.84094,-24.868988 L223.11436,-24.133999 L223.3878,-23.420732 L223.66122,-22.728544 L223.93465,-22.056814 L224.20807,-21.404938 L224.48149,-20.772326 L224.75491,-20.158411 L225.02834,-19.56264 L225.30177,-18.984476 L225.5752,-18.4234 L225.84862,-17.878906 L226.12204,-17.350504 L226.39546,-16.837719 L226.66888,-16.34009 L226.9423,-15.857167 L227.21574,-15.388517 L227.48917,-14.933718 L227.76259,-14.49236 L228.03601,-14.064046 L228.30943,-13.648391 L228.58286,-13.24502 L228.8563,-12.85357 L229.12971,-12.47369 L229.40314,-12.105037 L229.67656,-11.747278 L229.94998,-11.400094 L230.2234,-11.06317 L230.49683,-10.736204 L230.77026,-10.418901 L231.04369,-10.110976 L231.31711,-9.812152 L231.59053,-9.522159 L231.86395,-9.240737 L232.13737,-8.967631 L232.4108,-8.702598 L232.68423,-8.445397 L232.95766,-8.195798 L233.23108,-7.9535756 L233.5045,-7.718512 L233.77792,-70.19568 L234.05135,-68.121086 L234.32477,-66.1078 L234.5982,-64.15402 L234.87163,-62.25798 L235.14505,-60.41798 L235.41847,-58.63236 L235.6919,-56.89951 L235.96532,-55.217876 L236.23874,-53.58594 L236.51218,-52.00224 L236.7856,-50.46534 L237.05902,-48.97386 L237.33244,-47.526466 L237.60587,-46.121845 L237.87929,-44.75874 L238.15271,-43.43592 L238.42615,-42.152195 L238.69957,-40.90641 L238.97299,-39.69744 L239.24641,-38.524204 L239.51984,-37.385643 L239.79326,-36.28073 L240.0667,-35.208473 L240.34012,-34.167904 L240.61354,-33.15809 L240.88696,-32.17812 L241.16039,-31.227114 L241.4338,-30.304213 L241.70723,-29.408588 L241.98067,-28.539433 L242.25409,-27.695965 L242.52751,-26.877426 L242.80093,-26.083078 L243.07436,-25.312206 L243.34778,-24.564117 L243.6212,-23.838139 L243.89464,-23.133615 L244.16806,-22.449913 L244.44148,-21.786417 L244.7149,-21.142532 L244.98833,-20.517675 L245.26175,-19.911287 L245.53517,-19.322819 L245.80861,-18.751743 L246.08203,-18.197546 L246.35545,-17.659727 L246.62888,-17.137804 L246.9023,-16.631304 L247.17572,-16.139776 L247.44914,-15.662773 L247.72258,-15.199868 L247.996,-14.750644 L248.26942,-14.314696 L248.54285,-13.891633 L248.81627,-13.481073 L249.08969,-13.082647 L249.36313,-12.695997 L249.63655,-12.320773 L249.90997,-11.956639 L250.1834,-11.603268 L250.45682,-11.260339 L250.73024,-10.927546 L251.00366,-10.6045885 L251.2771,-10.291175 L251.55052,-9.987025 L251.82394,-9.691864 L252.09737,-9.405426 L252.37079,-9.127454 L252.64421,-8.857697 L252.91763,-8.595912 L253.19107,-71.14604 L253.4645,-69.04336 L253.73792,-67.00282 L254.01134,-65.02259 L254.28476,-63.10088 L254.55818,-61.235966 L254.8316,-59.42617 L255.10504,-57.66986 L255.37846,-55.96546 L255.65189,-54.31143 L255.92531,-52.706284 L256.19873,-51.14858 L256.47217,-49.63691 L256.74557,-48.169918 L257.019,-46.74628 L257.29242,-45.36472 L257.56586,-44.02399 L257.8393,-42.722885 L258.1127,-41.46023 L258.38614,-40.234898 L258.65955,-39.045776 L258.93298,-37.8918 L259.2064,-36.771927 L259.47983,-35.685154 L259.75327,-34.630497 L260.02667,-33.60701 L260.3001,-32.613773 L260.57352,-31.64989 L260.84695,-30.714495 L261.12036,-29.806746 L261.3938,-28.925823 L261.66724,-28.070936 L261.94064,-27.241314 L262.21408,-26.43621 L262.4875,-25.654903 L262.76093,-24.896687 L263.03433,-24.160877 L263.30777,-23.446815 L263.5812,-22.753859 L263.8546,-22.081379 L264.12805,-21.428776 L264.40146,-20.79546 L264.6749,-20.180862 L264.9483,-19.584427 L265.22174,-19.00562 L265.49518,-18.443918 L265.7686,-17.898819 L266.04202,-17.36983 L266.31543,-16.856472 L266.58887,-16.358288 L266.86227,-15.874828 L267.1357,-15.405656 L267.40915,-14.95035 L267.68256,-14.5085 L267.956,-14.079709 L268.2294,-13.663591 L268.50284,-13.259771 L268.77625,-12.867886 L269.04968,-12.487582 L269.32312,-12.118518 L269.59653,-11.760362 L269.86996,-11.41279 L270.14337,-11.075492 L270.4168,-10.748161 L270.69022,-10.430506 L270.96365,-10.122237 L271.2371,-9.82308 L271.5105,-9.532764 L271.78394,-9.251028 L272.05734,-8.977619 L272.33078,-8.712291 L272.6042,-8.454803 L272.87762,-8.2049265 L273.15106,-7.962434 L273.42447,-7.7271085 L273.6979,-7.498738 L273.9713,-7.277117 L274.24475,-7.062045 L274.51816,-6.85333 L274.7916,-6.650784 L275.06503,-6.4542236 L275.33844,-6.263472 L275.61188,-6.0783587 L275.88528,-5.898716 L276.15872,-5.724383 L276.43213,-5.5552015 L276.70557,-5.391021 L276.979,-5.231692 L277.2524,-5.077072 L277.52585,-4.927022 L277.79926,-4.7814064 L278.0727,-4.6400943 L278.34613,-4.502959 L278.61954,-4.3698764 L278.89297,-4.240727 L279.16638,-4.1153946 L279.43982,-3.9937663 L279.71323,-3.8757327 L279.98666,-3.7611873 L280.2601,-3.6500275 L280.5335,-3.542153 L280.80695,-3.4374664 L281.08035,-3.335874 L281.3538,-3.237284 L281.6272,-3.1416078 L281.90063,-3.0487592 L282.17407,-2.9586549 L282.44748,-2.8712134 L282.72092,-2.7863562 L282.99432,-2.704007 L283.26776,-2.6240914 L283.54117,-2.5465379 L283.8146,-2.4712763 L284.08804,-2.398239 L284.36145,-2.3273604 L284.6349,-2.2585764 L284.9083,-2.1918254 L285.18173,-2.127047 L285.45514,-2.0641835 L285.72858,-2.0031776 L286.002,-64.041 L286.27542,-62.148304 L286.54886,-60.311543 L286.82227,-58.529068 L287.0957,-56.79927 L287.3691,-55.120598 L287.64255,-53.49154 L287.916,-51.910625 L288.1894,-50.376434 L288.46283,-48.887585 L288.73624,-47.44274 L289.00967,-46.040596 L289.28308,-44.67989 L289.55652,-43.359398 L289.82996,-104.80728 L290.10336,-163.65009 L290.3768,-158.8135 L290.6502,-154.11986 L290.92365,-149.56493 L291.19705,-145.1446 L291.4705,-140.85493 L291.74393,-136.69205 L292.01733,-132.65219 L292.29077,-128.73172 L292.56418,-124.927124 L292.83762,-121.23497 L293.11102,-117.65193 L293.38446,-114.1748 L293.6579,-110.80042 L293.9313,-107.52577 L294.20474,-104.34791 L294.47815,-101.26396 L294.7516,-98.27116 L295.025,-95.366806 L295.29843,-92.54829 L295.57187,-89.81307 L295.84528,-87.1587 L296.1187,-84.58277 L296.39212,-82.08297 L296.66556,-79.65705 L296.93896,-77.30283 L297.2124,-75.01819 L297.48584,-72.80106 L297.75925,-70.64947 L298.03268,-68.56146 L298.3061,-128.92824 L298.57953,-125.117836 L298.85294,-121.42005 L299.12637,-117.83154 L299.3998,-114.3491 L299.67322,-110.96957 L299.94666,-107.68992 L300.22006,-104.5072 L300.4935,-101.41855 L300.76694,-98.42118 L301.04034,-95.51239 L301.31378,-92.689575 L301.5872,-89.95018 L301.86063,-87.291756 L302.13403,-84.71189 L302.40747,-82.208275 L302.6809,-79.778656 L302.9543,-77.42084 L303.22775,-75.132706 L303.50116,-72.9122 L303.7746,-70.757324 L304.048,-131.98604 L304.32144,-128.08527 L304.59488,-124.29977 L304.8683,-120.62616 L305.14172,-117.06111 L305.41513,-113.60143 L305.68857,-110.244 L305.96198,-106.9858 L306.2354,-103.8239 L306.50885,-100.75543 L306.78226,-97.777664 L307.0557,-94.88789 L307.3291,-92.083534 L307.60254,-89.36205 L307.87595,-86.72101 L308.14938,-84.15801 L308.42282,-81.67077 L308.69623,-79.257034 L308.96967,-76.914635 L309.24307,-74.641464 L309.5165,-72.43547 L309.78992,-70.294685 L310.06335,-68.21716 L310.3368,-66.201035 L310.6102,-64.2445 L310.88364,-62.34579 L311.15704,-60.503193 L311.43048,-58.715054 L311.7039,-56.979763 L311.97733,-55.295753 L312.25076,-53.66152 L312.52417,-52.07558 L312.7976,-50.536514 L313.071,-49.042934 L313.34445,-47.5935 L313.61786,-46.186897 L313.8913,-44.82187 L314.16473,-43.49718 L314.43814,-42.211647 L314.71158,-40.964104 L314.985,-39.75343 L315.25842,-38.57854 L315.53183,-37.43837 L315.80527,-36.3319 L316.0787,-35.25813 L316.3521,-34.216095 L316.62555,-33.204857 L316.89896,-32.223503 L317.1724,-31.271156 L317.4458,-30.346954 L317.71924,-29.450066 L317.99268,-28.579685 L318.26608,-27.735027 L318.53952,-26.915333 L318.81293,-26.119865 L319.08636,-25.347906 L319.35977,-24.598763 L319.6332,-23.87176 L319.90665,-23.166243 L320.18005,-22.481577 L320.4535,-21.817144 L320.7269,-21.172352 L321.00034,-20.546614 L321.27374,-19.93937 L321.54718,-19.350073 L321.82062,-18.77819 L322.09402,-18.223211 L322.36746,-17.684635 L322.64087,-17.161974 L322.9143,-16.654762 L323.18774,-16.162539 L323.46115,-15.684863 L323.7346,-15.221306 L324.008,-14.771448 L324.28143,-14.334886 L324.55484,-13.911226 L324.82828,-13.500087 L325.1017,-13.101099 L325.37512,-12.713903 L325.64856,-12.338151 L325.92197,-11.973503 L326.1954,-11.619633 L326.4688,-11.27622 L326.74225,-10.942958 L327.0157,-10.619545 L327.2891,-10.30569 L327.56253,-10.001111 L327.83594,-9.705533 L328.10938,-9.418692 L328.38278,-9.1403265 L328.65622,-8.87019 L328.92966,-8.608036 L329.20306,-8.35363 L329.4765,-8.106743 L329.7499,-7.867152 L330.02335,-7.6346426 L330.29675,-7.409005 L330.5702,-7.190036 L330.84363,-6.977538 L331.11703,-6.771321 L331.39047,-6.571198 L331.66388,-6.37699 L331.93732,-6.188521 L332.21072,-6.005623 L332.48416,-5.82813 L332.7576,-5.6558824 L333.031,-5.4887257 L333.30444,-5.3265095 L333.57785,-5.1690874 L333.8513,-5.016318 L334.1247,-4.868063 L334.39813,-4.72419 L334.67157,-4.584569 L334.94498,-4.4490747 L335.2184,-4.3175845 L335.49182,-4.189981 L335.76526,-4.0661483 L336.03867,-3.9459753 L336.3121,-3.829354 L336.58554,-3.7161796 L336.85895,-3.60635 L337.1324,-3.499766 L337.4058,-3.3963325 L337.67923,-3.2959557 L337.95264,-3.1985455 L338.22607,-3.1040142 L338.4995,-3.0122766 L338.77292,-2.9232504 L339.04636,-2.8368552 L339.31976,-2.7530136 L339.5932,-2.6716497 L339.8666,-2.5926905 L340.14005,-2.516065 L340.41348,-2.441704 L340.6869,-2.3695407 L340.96033,-2.2995102 L341.23373,-2.2315495 L341.50717,-2.1655972 L341.78058,-2.101594 L342.05402,-2.0394826 L342.32745,-1.9792068 L342.60086,-1.9207124 L342.8743,-1.8639468 L343.1477,-1.8088588 L343.42114,-1.755399 L343.69458,-1.7035191 L343.968,-1.6531725 L344.24142,-1.6043139 L344.51483,-1.5568992 L344.78827,-1.5108858 L345.06168,-1.4662324 L345.3351,-1.4228988 L345.60855,-1.3808457 L345.88196,-1.3400356 L346.1554,-1.3004315 L346.4288,-1.2619979 L346.70224,-1.2247003 L346.97565,-1.1885049 L347.24908,-1.1533793 L347.52252,-1.1192918 L347.79593,-1.0862117 L348.06937,-1.0541093 L348.34277,-1.0229557 L348.6162,-0.99272275 L348.88962,-0.9633834 L349.16306,-0.9349111 L349.4365,-0.90728027 L349.7099,-0.8804661 L349.98334,-0.8544444 L350.25674,-0.82919174 L350.53018,-0.8046854 L350.8036,-0.7809034 L351.07703,-0.7578242 L351.35046,-0.7354271 L351.62387,-0.71369195 L351.8973,-0.6925992 L352.17072,-0.67212975 L352.44415,-0.6522653 L352.71756,-0.632988 L352.991,-0.61428034 L353.26443,-0.5961256 L353.53784,-63.267376 L353.81128,-61.39754 L354.0847,-59.58297 L354.35812,-57.822025 L354.63153,-56.11313 L354.90497,-54.454735 L355.1784,-52.845352 L355.4518,-51.28354 L355.72525,-49.76788 L355.99866,-48.297016 L356.2721,-46.869625 L356.5455,-45.484417 L356.81894,-44.14015 L357.09238,-42.83561 L357.36578,-41.569626 L357.63922,-40.34106 L357.91263,-39.1488 L358.18607,-37.99178 L358.45947,-36.868954 L358.7329,-35.77931 L359.00635,-34.72187 L359.27975,-96.39622 L359.5532,-155.6138 L359.8266,-151.01472 L360.10004,-146.55156 L360.37344,-142.2203 L360.64688,-138.01706 L360.92032,-133.93803 L361.19373,-129.97957 L361.46716,-126.1381 L361.74057,-122.41016 L362.014,-118.79239 L362.2874,-115.28154 L362.56085,-111.87446 L362.8343,-108.56807 L363.1077,-105.3594 L363.38113,-102.24555 L363.65454,-99.22374 L363.92798,-96.29124 L364.2014,-93.445404 L364.47482,-90.68367 L364.74826,-88.00356 L365.02167,-85.402664 L365.2951,-82.87863 L365.5685,-80.4292 L365.84195,-78.05216 L366.1154,-75.74537 L366.3888,-135.1133 L366.66223,-131.1201 L366.93564,-127.24491 L367.20908,-123.48426 L367.48248,-119.83475 L367.75592,-116.2931 L368.02936,-112.85612 L368.30276,-109.52071 L368.5762,-106.28389 L368.8496,-103.14272 L369.12305,-100.0944 L369.39645,-97.13616 L369.6699,-94.26535 L369.94333,-153.7768 L370.21674,-149.232 L370.49017,-144.82153 L370.76358,-202.6353 L371.03702,-196.64651 L371.31042,-190.83473 L371.58386,-185.19472 L371.8573,-241.43764 L372.1307,-234.30208 L372.40414,-227.37741 L372.67755,-220.6574 L372.951,-214.13599 L373.2244,-207.80731 L373.49783,-201.66568 L373.77127,-195.70555 L374.04468,-189.92159 L374.3181,-247.55328 L374.59152,-240.23698 L374.86496,-233.1369 L375.13837,-226.24667 L375.4118,-219.56007 L375.68524,-213.07109 L375.95865,-206.7739 L376.2321,-200.6628 L376.5055,-257.23947 L376.77893,-249.6369 L377.05234,-242.25902 L377.32578,-235.09918 L377.5992,-228.15094 L377.87262,-221.40807 L378.14606,-214.86447 L378.41946,-208.51427 L378.6929,-202.35173 L378.9663,-259.3439 L379.23975,-251.67912 L379.51318,-244.24088 L379.7866,-237.02248 L380.06003,-292.27786 L380.33344,-283.63974 L380.60687,-338.30966 L380.88028,-328.3111 L381.15372,-318.60803 L381.42715,-309.19174 L381.70056,-300.05374 L381.974,-291.18582 L382.2474,-282.57996 L382.52084,-274.2285 L382.79425,-266.1238 L383.0677,-258.25864 L383.34113,-250.62595 L383.61453,-243.21884 L383.88797,-236.03064 L384.16138,-229.05487 L384.4348,-222.28528 L384.70822,-215.71576 L384.98166,-209.3404 L385.2551,-203.15344 L385.5285,-197.14935 L385.80194,-191.32271 L386.07535,-185.66827 L386.3488,-180.18094 L386.6222,-236.43575 L386.89563,-229.44801 L387.16907,-284.43536 L387.44247,-276.02905 L387.7159,-267.87115 L387.98932,-259.95438 L388.26276,-252.27155 L388.5362,-244.8158 L388.8096,-237.5804 L389.08304,-230.55884 L389.35645,-223.7448 L389.62988,-217.13214 L389.9033,-210.7149 L390.17673,-204.48735 L390.45016,-198.44383 L390.72357,-192.57893 L390.997,-186.88736 L391.27042,-181.364 L391.54385,-176.00389 L391.81726,-170.80219 L392.0907,-227.7626 L392.36414,-221.0312 L392.63754,-214.49875 L392.91098,-208.15935 L393.1844,-202.00731 L393.45782,-258.5731 L393.73123,-250.93109 L394.00467,-243.51495 L394.2781,-236.318 L394.5515,-229.33374 L394.82495,-222.55591 L395.09836,-215.9784 L395.3718,-209.59526 L395.6452,-203.40079 L395.91864,-197.38939 L396.19208,-191.55565 L396.46548,-185.89432 L396.73892,-180.40031 L397.01233,-175.06868 L397.28577,-169.89462 L397.55917,-164.87347 L397.8326,-160.00073 L398.10605,-155.27199 L398.37946,-150.68301 L398.6529,-146.22966 L398.9263,-141.90791 L399.19974,-137.7139 L399.47314,-133.64384 L399.74658,-129.69406 L400.02002,-125.86103 L400.29343,-122.14127 L400.56686,-118.531456 L400.84027,-115.02832 L401.1137,-111.628716 L401.38712,-108.32959 L401.66055,-105.12797 L401.934,-102.020966 L402.2074,-99.00579 L402.48083,-96.07973 L402.75424,-93.24014 L403.02768,-90.48448 L403.3011,-87.81026 L403.57452,-85.21507 L403.84796,-82.69659 L404.12137,-80.25253 L404.3948,-77.880714 L404.6682,-75.578995 L404.94165,-73.34529 L405.21506,-71.17761 L405.4885,-69.074 L405.76193,-67.032555 L406.03534,-65.05144 L406.30878,-63.12888 L406.58218,-61.26314 L406.85562,-59.45254 L407.12903,-57.695454 L407.40247,-55.990295 L407.6759,-54.33553 L407.9493,-52.72967 L408.22275,-51.171276 L408.49615,-49.658936 L408.7696,-48.19129 L409.043,-46.767025 L409.31644,-45.38485 L409.58987,-44.043526 L409.86328,-42.741844 L410.13672,-41.47863 L410.41013,-40.25275 L410.68356,-39.063103 L410.957,-37.908615 L411.2304,-36.788246 L411.50385,-35.70099 L411.77725,-34.645863 L412.0507,-33.621925 L412.3241,-32.628246 L412.59753,-31.663935 L412.87097,-30.728125 L413.14438,-29.819971 L413.41782,-28.938658 L413.69122,-28.083391 L413.96466,-27.253403 L414.23807,-26.447943 L414.5115,-25.666286 L414.78494,-24.907734 L415.05835,-24.171598 L415.3318,-23.45722 L415.6052,-22.763954 L415.87863,-22.091179 L416.15204,-21.438286 L416.42548,-20.804688 L416.6989,-20.189817 L416.97232,-19.593117 L417.24576,-19.014053 L417.51917,-18.452103 L417.7926,-17.906761 L418.066,-17.377537 L418.33945,-16.863953 L418.61288,-16.365547 L418.8863,-15.881872 L419.15973,-15.412492 L419.43314,-14.9569845 L419.70657,-14.514938 L419.97998,-14.085958 L420.25342,-13.669654 L420.52686,-13.265655 L420.80026,-12.873595 L421.0737,-12.493123 L421.3471,-12.123896 L421.62054,-11.76558 L421.89395,-11.417855 L422.1674,-11.080406 L422.44083,-72.53194 L422.71423,-70.3883 L422.98767,-68.30801 L423.26108,-66.2892 L423.53452,-64.33006 L423.80792,-62.428818 L424.08136,-60.583767 L424.3548,-58.793247 L424.6282,-57.055645 L424.90164,-55.369396 L425.17505,-53.732983 L425.4485,-52.14493 L425.7219,-50.603817 L425.99533,-49.10825 L426.26877,-47.65688 L426.54218,-46.248405 L426.8156,-44.88156 L427.08902,-43.555107 L427.36246,-42.26786 L427.63586,-41.018658 L427.9093,-39.806374 L428.18274,-38.629917 L428.45615,-37.488228 L428.72958,-36.380283 L429.003,-35.305084 L429.27643,-34.26166 L429.54984,-33.249077 L429.82327,-32.26642 L430.0967,-31.312801 L430.37012,-30.38737 L430.64355,-29.489286 L430.91696,-28.617746 L431.1904,-27.771963 L431.4638,-26.951178 L431.73724,-26.15465 L432.01068,-25.381664 L432.2841,-24.631521 L432.55753,-23.903551 L432.83093,-23.197094 L433.10437,-84.885635 L433.3778,-82.37689 L433.6512,-79.94228 L433.92465,-77.579636 L434.19806,-75.286804 L434.4715,-73.061745 L434.7449,-70.90244 L435.01834,-68.80696 L435.29178,-66.77341 L435.5652,-64.79996 L435.83862,-62.884827 L436.11203,-61.026302 L436.38547,-59.222702 L436.65887,-57.472404 L436.9323,-55.773838 L437.20575,-54.125473 L437.47916,-52.52582 L437.7526,-50.97345 L438.026,-49.466957 L438.29944,-48.00499 L438.57285,-46.586227 L438.84628,-45.209396 L439.11972,-43.873257 L439.39313,-42.576607 L439.66656,-103.55232 L439.93997,-100.49189 L440.2134,-159.13036 L440.48682,-154.42734 L440.76025,-149.86333 L441.0337,-145.43419 L441.3071,-141.13597 L441.58054,-136.96477 L441.85394,-132.91684 L442.12738,-128.98856 L442.4008,-125.17637 L442.67422,-121.47685 L442.94766,-117.886665 L443.22107,-114.40259 L443.4945,-111.021484 L443.7679,-107.7403 L444.04135,-104.55609 L444.31476,-101.465996 L444.5882,-98.467224 L444.86163,-95.557076 L445.13504,-92.73294 L445.40848,-89.99226 L445.6819,-87.33259 L445.95532,-84.751526 L446.22873,-82.246735 L446.50217,-79.81598 L446.7756,-77.45706 L447.049,-75.167854 L447.32245,-72.94631 L447.59586,-70.79042 L447.8693,-68.69825 L448.1427,-66.66791 L448.41614,-64.69758 L448.68958,-124.72574 L448.96298,-121.039536 L449.23642,-117.46227 L449.50983,-113.99074 L449.78326,-110.6218 L450.05667,-107.35244 L450.3301,-104.179695 L450.60355,-101.100716 L450.87695,-98.11274 L451.1504,-95.213066 L451.4238,-92.3991 L451.69724,-89.66829 L451.97064,-87.018196 L452.24408,-84.44642 L452.51752,-81.950645 L452.79092,-79.52864 L453.06436,-77.178215 L453.33777,-74.897255 L453.6112,-72.68371 L453.8846,-70.535576 L454.15805,-68.450935 L454.4315,-66.4279 L454.7049,-64.46466 L454.97833,-62.559444 L455.25174,-60.710533 L455.52518,-58.916267 L455.7986,-57.175026 L456.07202,-55.48525 L456.34546,-53.845413 L456.61887,-52.25404 L456.8923,-50.7097 L457.1657,-49.211002 L457.43915,-47.756596 L457.7126,-46.345177 L457.986,-44.975468 L458.25943,-43.646244 L458.53284,-42.3563 L458.80627,-41.104485 L459.07968,-39.889664 L459.35312,-38.710747 L459.62656,-37.56667 L459.89996,-36.456406 L460.1734,-35.378956 L460.4468,-34.33335 L460.72025,-33.318645 L460.99365,-32.33393 L461.2671,-31.37832 L461.54053,-30.45095 L461.81393,-29.55099 L462.08737,-28.677626 L462.36078,-27.830074 L462.63422,-27.00757 L462.90762,-26.209375 L463.18106,-25.434772 L463.4545,-24.683062 L463.7279,-23.953566 L464.00134,-23.245632 L464.27475,-22.558619 L464.5482,-21.89191 L464.8216,-84.306786 L465.09503,-81.81515 L465.36847,-79.39714 L465.64188,-77.050606 L465.9153,-74.773415 L466.18872,-72.56352 L466.46216,-70.418945 L466.73557,-68.33775 L467.009,-66.31807 L467.28244,-64.35807 L467.55585,-125.2315 L467.82928,-121.53035 L468.1027,-117.93858 L468.37613,-114.45297 L468.64954,-111.07037 L468.92297,-107.78775 L469.1964,-104.60214 L469.46982,-101.51068 L469.74326,-161.18079 L470.01666,-156.41718 L470.2901,-151.79434 L470.5635,-147.30815 L470.83694,-142.95453 L471.11038,-138.72958 L471.3838,-134.6295 L471.65723,-130.6506 L471.93063,-126.7893 L472.20407,-123.04211 L472.47748,-119.40566 L472.75092,-115.87669 L473.02435,-112.45202 L473.29776,-109.128555 L473.5712,-105.90332 L473.8446,-102.77341 L474.11804,-99.73599 L474.39145,-96.788345 L474.6649,-93.92782 L474.93832,-91.15183 L475.21173,-88.45789 L475.48517,-85.84357 L475.75858,-83.3065 L476.032,-80.84442 L476.30542,-78.45511 L476.57886,-76.13641 L476.8523,-73.88624 L477.1257,-71.702576 L477.39914,-69.58344 L477.67255,-67.52694 L477.94598,-65.53122 L478.21942,-63.594475 L478.49283,-61.714977 L478.76627,-59.89102 L479.03967,-58.120975 L479.3131,-56.40324 L479.58652,-54.736275 L479.85995,-53.118572 L480.1334,-51.54868 L480.4068,-112.15223 L480.68024,-108.83763 L480.95364,-105.620995 L481.22708,-102.49942 L481.5005,-99.47011 L481.77393,-96.53032 L482.04736,-93.677414 L482.32077,-90.90883 L482.5942,-88.22207 L482.8676,-85.614716 L483.14105,-83.08442 L483.41446,-80.6289 L483.6879,-78.24596 L483.96133,-75.93344 L484.23474,-73.68927 L484.50818,-71.51142 L484.7816,-69.397934 L485.05502,-67.34692 L485.32843,-65.356514 L485.60187,-63.42494 L485.8753,-61.55045 L486.1487,-59.731358 L486.42215,-57.96603 L486.69556,-56.252876 L486.969,-54.59035 L487.2424,-52.976963 L487.51584,-51.411255 L487.78928,-49.891823 L488.06268,-48.417297 L488.33612,-46.98635 L488.60953,-45.597694 L488.88297,-106.64932 L489.15637,-103.49735 L489.4298,-100.438545 L489.70325,-97.47014 L489.97665,-94.58946 L490.2501,-91.79392 L490.5235,-89.081 L490.79694,-86.44826 L491.07034,-83.893326 L491.34378,-81.4139 L491.61722,-79.00776 L491.89063,-76.67273 L492.16406,-74.40671 L492.43747,-72.20766 L492.7109,-70.07359 L492.9843,-68.00261 L493.25775,-65.99283 L493.5312,-64.04244 L493.8046,-62.149704 L494.07803,-60.312904 L494.35144,-58.530388 L494.62488,-56.800552 L494.8983,-55.12184 L495.17172,-53.49275 L495.44516,-51.911797 L495.71857,-50.37757 L495.992,-48.88869 L496.2654,-47.44381 L496.53885,-46.041634 L496.81226,-44.680897 L497.0857,-43.36038 L497.35913,-42.078884 L497.63254,-40.835266 L497.90598,-39.628403 L498.17938,-38.457207 L498.45282,-37.32062 L498.72626,-36.217632 L498.99966,-35.14724 L499.2731,-34.108482 L499.5465,-33.10042 L499.81995,-32.122158 L500.09335,-31.172804 L500.3668,-30.251509 L500.64023,-29.35744 L500.91364,-28.489798 L501.18707,-27.647797 L501.46048,-26.83068 L501.73392,-26.037716 L502.00732,-25.268185 L502.28076,-24.521397 L502.5542,-23.79668 L502.8276,-23.093382 L503.10104,-22.41087 L503.37445,-21.748528 L503.6479,-21.105762 L503.9213,-20.481993 L504.19473,-19.876657 L504.46817,-19.289213 L504.74158,-18.719131 L505.015,-18.165897 L505.28842,-17.629013 L505.56186,-17.107998 L505.83527,-16.60238 L506.1087,-16.111706 L506.38214,-15.635532 L506.65555,-15.173433 L506.929,-14.72499 L507.2024,-14.289801 L507.47583,-13.867474 L507.74924,-13.457627 L508.02267,-13.059895 L508.2961,-12.673917 L508.56952,-12.299346 L508.84296,-11.935845 L509.11636,-11.583088 L509.3898,-11.240756 L509.6632,-73.31731 L509.93665,-71.15045 L510.21008,-69.04764 L510.4835,-67.00697 L510.75693,-65.02662 L511.03033,-63.10479 L511.30377,-61.23976 L511.57718,-59.42985 L511.85062,-57.673435 L512.124,-55.968925 L512.39746,-54.314796 L512.6709,-52.70955 L512.94434,-51.15175 L513.2177,-49.639984 L513.49115,-48.1729 L513.7646,-46.749176 L514.038,-45.36753 L514.31146,-44.02672 L514.58484,-42.725533 L514.8583,-41.462803 L515.1317,-40.23739 L515.40515,-100.95534 L515.6786,-97.97166 L515.95197,-95.07616 L516.2254,-92.26623 L516.49884,-89.53935 L516.7723,-86.89306 L517.04565,-84.32498 L517.3191,-81.8328 L517.5925,-79.414276 L517.86597,-77.06723 L518.1394,-74.78955 L518.4128,-72.579185 L518.6862,-70.43415 L518.95966,-130.04109 L519.2331,-126.19779 L519.50653,-122.46808 L519.7799,-118.8486 L520.05334,-115.3361 L520.3268,-111.9274 L520.6002,-108.619446 L520.8736,-105.409256 L521.14703,-102.29394 L521.4205,-99.2707 L521.6939,-96.33681 L521.96735,-93.489624 L522.2407,-90.726585 L522.51416,-88.04521 L522.7876,-85.443085 L523.06104,-82.917854 L523.3345,-80.46726 L523.60785,-78.089096 L523.8813,-75.78121 L524.1547,-73.54154 L524.42816,-71.36806 L524.70154,-69.25881 L524.975,-67.21191 L525.2484,-65.225494 L525.52185,-63.29779 L525.7953,-61.42706 L526.06866,-59.611614 L526.3421,-57.849827 L526.61554,-56.140106 L526.889,-54.480915 L527.1624,-52.870758 L527.4358,-51.308193 L527.7092,-49.791805 L527.98267,-48.320236 L528.2561,-46.89216 L528.5295,-45.506283 L528.8029,-44.16137 L529.07635,-42.856205 L529.3498,-41.58961 L529.6232,-40.360455 L529.8966,-39.16762 L530.17004,-38.010044 L530.4435,-36.886677 L530.7169,-35.796513 L530.99036,-34.738564 L531.26373,-33.711884 L531.5372,-32.71555 L531.8106,-31.748657 L532.08405,-30.810343 L532.3575,-29.89976 L532.63086,-29.016088 L532.9043,-28.158533 L533.17773,-27.326323 L533.4512,-26.518707 L533.72455,-25.73496 L533.998,-24.974379 L534.2714,-24.236275 L534.54486,-23.519983 L534.8183,-22.824863 L535.0917,-22.150286 L535.3651,-21.495647 L535.63855,-20.860353 L535.912,-20.243837 L536.1854,-19.645542 L536.4588,-19.064928 L536.73224,-18.501474 L537.0057,-17.954674 L537.2791,-17.424032 L537.5525,-16.909075 L537.8259,-16.409336 L538.09937,-15.924367 L538.3728,-15.453731 L538.64624,-14.997004 L538.9196,-14.553776 L539.19305,-14.123647 L539.4665,-13.706229 L539.7399,-13.301149 L540.01337,-12.908041 L540.28674,-12.52655 L540.5602,-12.156335 L540.8336,-11.797061 L541.10706,-11.448405 L541.38043,-11.110054 L541.6539,-10.781702 L541.9273,-10.463055 L542.20074,-10.153825 L542.4742,-9.853734 L542.74756,-9.562511 L543.021,-9.279897 L543.29443,-9.005634 L543.5679,-8.739478 L543.8413,-8.481187 L544.1147,-8.23053 L544.3881,-7.9872813 L544.66156,-7.7512217 L544.935,-7.522138 L545.2084,-7.2998257 L545.4818,-7.084083 L545.75525,-6.8747168 L546.0287,-6.6715384 L546.3021,-6.4743643 L546.5755,-6.283018 L546.84894,-6.0973268 L547.1224,-5.9171233 L547.3958,-5.742246 L547.66925,-5.572537 L547.9426,-5.4078436 L548.21606,-5.248018 L548.4895,-5.0929155 L548.76294,-4.942397 L549.0363,-4.796327 L549.30975,-4.6545744 L549.5832,-4.5170107 L549.8566,-4.383513 L550.13007,-4.2539606 L550.40344,-4.128237 L550.6769,-4.006229 L550.9503,-3.8878272 L551.22375,-3.7729244 L551.4972,-3.6614177 L551.77057,-3.5532064 L552.044,-3.4481933 L552.31744,-3.346284 L552.5909,-3.2473862 L552.86426,-3.1514115 L553.1377,-3.058273 L553.41113,-2.9678876 L553.6846,-2.8801732 L553.958,-2.7950513 L554.2314,-2.712445 L554.5048,-2.63228 L554.77826,-2.5544846 L555.0517,-2.4789882 L555.32513,-2.4057229 L555.5985,-2.334623 L555.87195,-2.2656245 L556.1454,-2.1986651 L556.4188,-2.1336849 L556.69226,-2.0706248 L556.96564,-2.0094287 L557.2391,-1.950041 L557.5125,-1.8924086 L557.78595,-1.8364795 L558.0593,-1.7822033 L558.33276,-1.7295313 L558.6062,-1.6784159 L558.87964,-1.6288112 L559.1531,-1.5806726 L559.42645,-1.5339566 L559.6999,-1.4886214 L559.9733,-1.444626 L560.24677,-1.4019308 L560.5202,-1.3604975 L560.7936,-1.3202887 L561.067,-1.2812682 L561.34045,-1.243401 L561.6139,-1.206653 L561.88727,-1.1709911 L562.1607,-1.136383 L562.43414,-1.1027979 L562.7076,-1.0702052 L562.981,-1.0385759 L563.2544,-1.0078813 L563.52783,-0.9780939 L563.8013,-0.9491869 L564.0747,-0.9211342 L564.34814,-0.8939105 L564.6215,-0.8674915 L564.89496,-0.84185326 L565.1684,-0.81697273 L565.44183,-0.79282755 L565.7152,-0.76939595 L565.98865,-0.74665684 L566.2621,-0.7245898 L566.5355,-0.70317495 L566.80896,-0.682393 L567.08234,-0.66222525 L567.3558,-0.6426535 L567.6292,-0.6236602 L567.90265,-0.6052283 L568.1761,-62.808056 L568.44946,-60.951797 L568.7229,-59.150402 L568.99634,-57.40224 L569.2698,-55.70575 L569.54315,-54.059395 L569.8166,-52.4617 L570.09,-50.91122 L570.36346,-49.406567 L570.6369,-47.946384 L570.9103,-46.529354 L571.1837,-45.1542 L571.45715,-43.819695 L571.7306,-42.524628 L572.004,-41.267834 L572.2774,-40.048183 L572.55084,-38.864582 L572.8243,-37.71596 L573.0977,-36.601284 L573.3711,-35.519554 L573.64453,-34.46979 L573.91797,-33.451057 L574.1914,-32.46243 L574.46484,-31.503017 L574.7382,-30.571964 L575.01166,-29.668425 L575.2851,-28.791592 L575.55853,-27.94067 L575.832,-27.114899 L576.10535,-26.313532 L576.3788,-25.53585 L576.6522,-24.781153 L576.92566,-24.048758 L577.1991,-23.33801 L577.4725,-22.648268 L577.7459,-21.97891 L578.01935,-21.329334 L578.2928,-20.698957 L578.56616,-20.087212 L578.8396,-19.493544 L579.11304,-18.917423 L579.3865,-18.35833 L579.6599,-17.815758 L579.9333,-17.289223 L580.2067,-16.77825 L580.48016,-16.282377 L580.7536,-15.80116 L581.02704,-15.334166 L581.3004,-14.880972 L581.57385,-14.441173 L581.8473,-14.014372 L582.1207,-13.600184 L582.3941,-13.198238 L582.66754,-12.808171 L582.941,-12.429633 L583.2144,-12.062282 L583.48785,-11.705788 L583.7612,-11.359829 L584.03467,-11.024096 L584.3081,-10.698284 L584.58154,-10.382102 L584.855,-10.075265 L585.12836,-9.777495 L585.4018,-9.488526 L585.67523,-9.208098 L585.94867,-8.935958 L586.22205,-8.671861 L586.4955,-8.415568 L586.7689,-8.166851 L587.04236,-7.9254837 L587.3158,-7.6912503 L587.5892,-7.4639397 L587.8626,-7.2433467 L588.13605,-7.0292735 L588.4095,-6.821527 L588.6829,-6.6199203 L588.9563,-6.424272 L589.22974,-6.2344065 L589.5032,-6.050152 L589.7766,-5.8713427 L590.05,-5.6978183 L590.3234,-5.5294223 L590.59686,-5.366003 L590.8703,-5.2074137 L591.14374,-5.0535116 L591.4171,-4.9041576 L591.69055,-4.7592177 L591.964,-4.6185617 L592.2374,-4.482063 L592.51086,-4.349598 L592.78424,-4.221048 L593.0577,-4.096297 L593.3311,-3.975233 L593.60455,-3.857747 L593.8779,-3.7437334 L594.15137,-3.6330893 L594.4248,-3.5257154 L594.69824,-3.4215147 L594.9717,-3.3203938 L595.24506,-3.2222612 L595.5185,-3.127029 L595.79193,-65.36137 L596.06537,-63.429646 L596.3388,-61.555016 L596.6122,-59.73579 L596.8856,-57.97033 L597.15906,-56.25705 L597.4325,-117.470276 L597.7059,-113.998505 L597.9793,-110.62934 L598.25275,-107.35975 L598.5262,-104.18678 L598.7996,-101.107605 L599.073,-98.11942 L599.34644,-95.21955 L599.6199,-92.40539 L599.8933,-89.6744 L600.16675,-87.02412 L600.4401,-84.45217 L600.71356,-81.95623 L600.987,-79.53406 L601.26044,-77.18347 L601.5339,-74.90235 L601.80725,-72.68865 L602.0807,-70.54038 L602.3541,-68.4556 L602.62756,-66.43243 L602.90094,-64.469055 L603.1744,-62.563705 L603.4478,-60.71467 L603.72125,-58.920277 L603.9947,-57.17892 L604.26807,-55.48903 L604.5415,-53.84908 L604.81494,-52.2576 L605.0884,-50.713154 L605.3618,-49.21435 L605.6352,-47.75985 L605.9086,-46.34833 L606.18207,-44.97853 L606.4555,-43.649216 L606.7289,-42.359188 L607.0023,-41.107285 L607.27576,-101.79056 L607.5492,-98.78219 L607.82263,-95.86273 L608.096,-93.029564 L608.36945,-90.28012 L608.6429,-87.611946 L608.9163,-85.02262 L609.18976,-82.50982 L609.46313,-80.07129 L609.7366,-77.70483 L610.01,-75.408295 L610.28345,-73.17965 L610.5568,-71.01686 L610.83026,-68.918 L611.1037,-66.881165 L611.37714,-64.904526 L611.6506,-62.986305 L611.92395,-61.12478 L612.1974,-59.318268 L612.4708,-57.565147 L612.74426,-55.863842 L613.0177,-54.212814 L613.2911,-52.610584 L613.5645,-51.055706 L613.83795,-49.546783 L614.1114,-48.082455 L614.38477,-46.661404 L614.6582,-45.28235 L614.93164,-43.944054 L615.2051,-42.64531 L615.4785,-41.384953 L615.7519,-40.161842 L616.0253,-38.97488 L616.29877,-37.822998 L616.5722,-36.70516 L616.84564,-35.620358 L617.119,-34.567616 L617.39246,-33.54599 L617.6659,-32.554558 L617.93933,-31.592422 L618.2127,-30.658726 L618.48615,-29.752625 L618.7596,-28.8733 L619.033,-28.019966 L619.30646,-27.19185 L619.57983,-26.38821 L619.8533,-25.60832 L620.1267,-24.85148 L620.40015,-24.117008 L620.6736,-23.404243 L620.94696,-22.712543 L621.2204,-22.041286 L621.49384,-21.389868 L621.7673,-20.757702 L622.0407,-20.144218 L622.3141,-19.548866 L622.5875,-18.971111 L622.86096,-18.410429 L623.1344,-17.86632 L623.4078,-17.33829 L623.6812,-16.825865 L623.95465,-16.328587 L624.2281,-15.846004 L624.5015,-15.377684 L624.7749,-14.923204 L625.04834,-14.482157 L625.3218,-14.054145 L625.5952,-13.638782 L625.86865,-76.57961 L626.142,-74.316345 L626.41547,-72.119965 L626.6889,-69.988495 L626.96234,-67.92003 L627.2357,-65.91268 L627.50916,-63.964672 L627.7826,-62.07423 L628.056,-60.23966 L628.32947,-58.45931 L628.60284,-56.731575 L628.8763,-55.0549 L629.1497,-53.427784 L629.42316,-51.848755 L629.6966,-50.31639 L629.97,-48.82932 L630.2434,-47.386192 L630.51685,-45.98572 L630.7903,-44.626637 L631.06366,-43.30772 L631.3371,-42.027782 L631.61053,-40.785675 L631.884,-39.580276 L632.1574,-38.410503 L632.4308,-37.2753 L632.7042,-36.17365 L632.97766,-35.104557 L633.2511,-34.06706 L633.52454,-33.060226 L633.7979,-32.08315 L634.07135,-31.134949 L634.3448,-30.214771 L634.6182,-29.321789 L634.8916,-28.4552 L635.16504,-27.614222 L635.4385,-26.798098 L635.7119,-26.006094 L635.98535,-25.237497 L636.2587,-24.491617 L636.53217,-23.76778 L636.8056,-23.065336 L637.07904,-22.383654 L637.3525,-21.722116 L637.62585,-21.08013 L637.8993,-20.457119 L638.1727,-19.85252 L638.44617,-19.265789 L638.71954,-18.696398 L638.993,-18.143837 L639.2664,-17.607605 L639.53986,-17.087221 L639.8133,-16.582218 L640.0867,-16.09214 L640.3601,-15.616545 L640.63354,-15.155006 L640.907,-77.03021 L641.1804,-74.753624 L641.4538,-72.54433 L641.72723,-70.400314 L642.0007,-68.31967 L642.2741,-66.30052 L642.5475,-64.34104 L642.8209,-62.439476 L643.09436,-60.594112 L643.3678,-58.803288 L643.64124,-57.065388 L643.9146,-55.37885 L644.18805,-53.742157 L644.4615,-52.153835 L644.7349,-50.612457 L645.00836,-49.116634 L645.28174,-47.665016 L645.5552,-46.2563 L645.8286,-44.88922 L646.10205,-43.562546 L646.3755,-42.275078 L646.64886,-41.02566 L646.9223,-39.813168 L647.19574,-38.636513 L647.4692,-37.49463 L647.74255,-36.386497 L648.016,-35.31111 L648.2894,-34.267513 L648.56287,-33.254753 L648.8363,-32.271927 L649.1097,-31.318148 L649.3831,-30.392557 L649.65656,-29.494322 L649.93,-28.622631 L650.2034,-27.776705 L650.4768,-26.95578 L650.75024,-26.159117 L651.0237,-25.385998 L651.2971,-24.635727 L651.5705,-23.90763 L651.84393,-23.201054 L652.1174,-22.51536 L652.3908,-21.84993 L652.66425,-21.204166 L652.9376,-20.57749 L653.21106,-19.969334 L653.4845,-19.37915 L653.75793,-18.80641 L654.0314,-18.250595 L654.30475,-17.711208 L654.5782,-17.187763 L654.8516,-16.679789 L655.12506,-16.186827 L655.39844,-15.708433 L655.6719,-15.244179 L655.9453,-14.793646 L656.21875,-14.356427 L656.4922,-13.932131 L656.76556,-75.882225 L657.039,-73.63957 L657.31244,-71.46319 L657.5859,-69.351135 L657.8593,-67.3015 L658.1327,-127.79496 L658.4061,-124.01805 L658.67957,-120.35276 L658.953,-116.7958 L659.2264,-113.34396 L659.4998,-109.99414 L659.77325,-106.743324 L660.0467,-166.46132 L660.3201,-161.54164 L660.5935,-156.76736 L660.86694,-152.13419 L661.1404,-147.63794 L661.4138,-143.27458 L661.68726,-139.04018 L661.96063,-134.93092 L662.2341,-130.94312 L662.5075,-127.07316 L662.78094,-123.31758 L663.0543,-119.673 L663.32776,-116.13612 L663.6012,-112.70378 L663.87463,-109.37288 L664.1481,-106.14043 L664.42145,-103.0035 L664.6949,-99.95929 L664.9683,-97.00504 L665.24176,-94.13811 L665.5152,-91.35591 L665.7886,-88.65594 L666.062,-86.03575 L666.33545,-83.49301 L666.6089,-81.02542 L666.8823,-78.63076 L667.1557,-76.30687 L667.42914,-74.05166 L667.7026,-71.863106 L667.976,-69.73923 L668.2494,-67.67812 L668.5228,-65.67793 L668.79626,-63.736855 L669.0697,-61.853146 L669.34314,-60.02511 L669.6165,-58.2511 L669.88995,-56.52952 L670.1634,-54.858818 L670.4368,-53.237495 L670.71027,-51.66409 L670.98364,-50.137184 L671.2571,-48.655407 L671.5305,-47.217422 L671.80396,-45.821938 L672.07733,-44.467693 L672.35077,-43.153477 L672.6242,-41.878098 L672.89764,-40.64041 L673.1711,-39.43931 L673.44446,-38.2737 L673.7179,-37.14254 L673.99133,-36.04481 L674.2648,-34.979527 L674.5382,-33.945724 L674.8116,-32.94248 L675.085,-31.968882 L675.35846,-31.024057 L675.6319,-30.107159 L675.9053,-29.217358 L676.1787,-28.353853 L676.45215,-27.515871 L676.7256,-26.702654 L676.999,-25.913471 L677.2724,-25.147612 L677.54584,-24.404388 L677.8193,-23.68313 L678.0927,-22.983187 L678.36615,-22.303932 L678.6395,-21.64475 L678.91296,-21.005053 L679.1864,-20.384258 L679.45984,-19.781813 L679.7332,-19.197172 L680.00665,-18.62981 L680.2801,-80.4073 L680.5535,-78.03091 L680.82697,-75.72475 L681.10034,-73.48674 L681.3738,-71.31488 L681.6472,-69.20721 L681.92065,-67.16182 L682.1941,-65.176895 L682.46747,-63.25062 L682.7409,-61.381287 L683.01434,-59.567192 L683.2878,-57.806717 L683.56116,-56.09827 L683.8346,-54.440315 L684.10803,-52.83136 L684.3815,-51.26996 L684.6549,-49.754704 L684.9283,-48.28423 L685.2017,-46.857216 L685.47516,-45.472374 L685.7486,-44.128464 L686.02203,-42.82427 L686.2954,-41.55862 L686.56885,-40.33038 L686.8423,-39.138435 L687.1157,-37.98172 L687.38916,-36.85919 L687.66254,-35.769836 L687.936,-34.712677 L688.2094,-33.686764 L688.48285,-32.69117 L688.7562,-31.724998 L689.02966,-94.154884 L689.3031,-91.372185 L689.57654,-88.67173 L689.85,-86.05108 L690.12335,-83.50789 L690.3968,-81.039856 L690.6702,-78.64477 L690.94366,-76.320465 L691.2171,-74.06485 L691.4905,-71.87591 L691.7639,-69.75165 L692.03735,-67.69018 L692.3108,-65.68963 L692.58417,-63.74821 L692.8576,-61.864166 L693.13104,-60.0358 L693.4045,-58.26148 L693.6779,-56.53959 L693.9513,-54.86859 L694.22473,-53.24698 L694.49817,-51.673294 L694.7716,-50.14612 L695.04504,-48.664078 L695.3184,-47.225834 L695.59186,-45.8301 L695.8653,-44.475616 L696.13873,-43.161163 L696.4121,-41.88556 L696.68555,-40.64765 L696.959,-39.446335 L697.2324,-38.280518 L697.50586,-37.14916 L697.77924,-36.051235 L698.0527,-34.98576 L698.3261,-33.951775 L698.59955,-32.94835 L698.873,-31.974577 L699.14636,-31.029585 L699.4198,-30.112522 L699.69324,-29.222563 L699.9667,-28.358906 L700.24005,-27.520773 L700.5135,-26.70741 L700.7869,-25.918087 L701.06036,-25.152092 L701.3338,-24.408735 L701.6072,-23.68735 L701.8806,-22.987282 L702.15405,-22.307905 L702.4275,-21.648607 L702.7009,-21.008793 L702.9743,-20.38789 L703.24774,-19.785337 L703.5212,-19.200592 L703.7946,-18.63313 L704.068,-18.082436 L704.34143,-17.54802 L704.61487,-17.029398 L704.8883,-16.526102 L705.16174,-16.037682 L705.4351,-15.563697 L705.70856,-15.103721 L705.982,-14.657338 L706.25543,-14.224148 L706.5289,-13.8037615 L706.80225,-13.395799 L707.0757,-12.999892 L707.3491,-12.615687 L707.62256,-12.242838 L707.89594,-11.881007 L708.1694,-11.52987 L708.4428,-11.189112 L708.71625,-10.858423 L708.9897,-10.537508 L709.26306,-10.226078 L709.5365,-9.923851 L709.80994,-9.630557 L710.0834,-9.345931 L710.3568,-9.069717 L710.6302,-8.801666 L710.9036,-8.541538 L711.17706,-8.289098 L711.4505,-8.044118 L711.72394,-7.806378 L711.9973,-7.5756645 L712.27075,-7.35177 L712.5442,-7.1344924 L712.8176,-6.9236364 L713.091,-6.719012 L713.36444,-6.520435 L713.6379,-6.327727 L713.9113,-6.1407146 L714.18475,-5.959229 L714.4581,-5.7831073 L714.73157,-5.6121902 L715.005,-5.4463253 L715.27844,-5.285362 L715.5519,-5.1291556 L715.82526,-4.9775662 L716.0987,-4.830457 L716.37213,-4.6876955 L716.64557,-4.5491533 L716.91895,-4.4147053 L717.1924,-4.284231 L717.4658,-4.157613 L717.73926,-4.034737 L718.0127,-3.9154925 L718.2861,-3.799772 L718.5595,-3.6874719 L718.83295,-3.5784907 L719.1064,-3.4727302 L719.3798,-3.3700955 L719.6532,-3.2704942 L719.92664,-3.1738365 L720.2001,-3.0800354 L720.4735,-2.9890065 L720.7469,-2.9006681 L721.0203,-2.8149405 L721.29376,-2.7317464 L721.5672,-2.651011 L721.84064,-2.5726619 L722.114,-2.4966283 L722.38745,-2.4228418 L722.6609,-2.3512359 L722.9343,-2.2817464 L723.20776,-2.2143106 L723.48114,-2.1488678 L723.7546,-2.085359 L724.028,-2.0237274 L724.30145,-1.9639173 L724.5748,-1.9058747 L724.84827,-1.8495476 L725.1217,-1.7948853 L725.39514,-1.7418383 L725.6686,-1.6903592 L725.94196,-1.6404016 L726.2154,-1.5919204 L726.48883,-1.544872 L726.76227,-1.4992142 L727.0357,-1.4549057 L727.3091,-1.4119067 L727.5825,-1.3701786 L727.85596,-1.3296837 L728.1294,-1.2903856 L728.4028,-1.252249 L728.6762,-1.2152394 L728.94965,-1.1793237 L729.2231,-1.1444694 L729.4965,-1.1106452 L729.7699,-1.0778207 L730.04333,-1.0459663 L730.3168,-1.0150533 L730.5902,-0.9850539 L730.86365,-0.9559412 L731.137,-0.92768884 L731.41046,-0.9002715 L731.6839,-0.87366444 L731.95734,-0.84784377 L732.2308,-0.8227862 L732.50415,-0.7984692 L732.7776,-63.303696 L733.051,-61.43279 L733.32446,-59.617176 L733.59784,-57.85522 L733.8713,-56.145344 L734.1447,-54.485996 L734.41815,-52.87569 L734.6916,-51.31298 L734.96497,-49.79645 L735.2384,-48.324745 L735.51184,-46.89653 L735.7853,-45.51053 L736.0587,-44.16549 L736.3321,-42.860203 L736.6055,-41.59349 L736.87897,-40.36422 L737.1524,-39.171276 L737.4258,-38.013588 L737.6992,-36.890118 L737.97266,-98.12587 L738.2461,-95.225815 L738.51953,-92.41147 L738.7929,-89.6803 L739.06635,-87.02984 L739.3398,-84.45772 L739.6132,-81.96162 L739.88666,-79.53928 L740.16003,-77.188545 L740.4335,-74.90728 L740.7069,-72.693436 L740.98035,-70.54502 L741.2537,-68.4601 L741.52716,-66.4368 L741.8006,-64.47329 L742.07404,-62.567818 L742.3475,-60.71866 L742.62085,-58.924152 L742.8943,-57.182682 L743.1677,-55.492676 L743.44116,-53.85262 L743.7146,-52.261036 L743.988,-50.716488 L744.2614,-49.21759 L744.53485,-47.76299 L744.8083,-46.35138 L745.08167,-44.98149 L745.3551,-43.652084 L745.62854,-42.361973 L745.902,-41.109985 L746.1754,-39.895004 L746.4488,-38.715927 L746.7222,-37.571697 L746.99567,-36.46129 L747.2691,-35.383694 L747.54254,-34.337948 L747.8159,-33.32311 L748.08936,-32.33826 L748.3628,-31.38252 L748.6362,-30.455027 L748.9096,-29.554945 L749.18304,-28.681463 L749.4565,-27.8338 L749.7299,-27.011187 L750.00336,-26.212885 L750.27673,-25.438177 L750.5502,-24.686365 L750.8236,-23.956772 L751.09705,-23.248743 L751.3705,-22.561638 L751.64386,-21.894842 L751.9173,-21.247751 L752.19073,-20.619785 L752.4642,-20.010378 L752.73755,-19.418982 L753.011,-81.1749 L753.2844,-78.77582 L753.55786,-76.44764 L753.8313,-74.18827 L754.1047,-71.995674 L754.3781,-69.86788 L754.65155,-67.80298 L754.925,-65.799095 L755.1984,-63.85444 L755.4718,-61.967255 L755.74524,-60.135845 L756.0187,-58.358562 L756.2921,-56.633804 L756.56555,-116.82366 L756.8389,-113.370995 L757.11237,-110.02038 L757.3858,-106.76878 L757.65924,-103.61329 L757.9326,-162.85394 L758.20605,-158.04088 L758.4795,-153.37007 L758.7529,-148.8373 L759.02637,-144.43849 L759.29974,-140.1697 L759.5732,-136.02705 L759.8466,-132.00684 L760.12006,-128.10545 L760.3935,-124.31936 L760.6669,-120.645164 L760.9403,-117.07957 L761.21375,-113.61934 L761.4872,-110.26138 L761.76056,-107.00266 L762.034,-103.840256 L762.30743,-100.77132 L762.5809,-97.793076 L762.8543,-94.90285 L763.1277,-92.098045 L763.4011,-89.37614 L763.67456,-86.73467 L763.948,-84.17128 L764.22144,-81.68364 L764.4948,-79.26952 L764.76825,-76.92676 L765.0417,-74.65323 L765.3151,-72.44689 L765.5885,-70.30576 L765.86194,-68.22791 L766.1354,-66.21147 L766.4088,-64.25462 L766.68225,-62.355618 L766.9556,-60.51273 L767.22906,-58.724308 L767.5025,-56.988743 L767.77594,-55.30447 L768.0494,-53.669975 L768.32275,-52.08379 L768.5962,-50.54448 L768.8696,-49.050663 L769.14307,-47.600998 L769.41644,-46.194176 L769.6899,-44.828934 L769.9633,-43.504036 L770.23676,-42.2183 L770.5102,-40.97056 L770.78357,-39.759697 L771.057,-38.584618 L771.33044,-37.44427 L771.6039,-36.337627 L771.8773,-35.263687 L772.1507,-34.22149 L772.42413,-33.21009 L772.6976,-32.228584 L772.971,-31.276085 L773.2444,-30.351736 L773.5178,-29.454708 L773.79126,-28.584188 L774.0647,-27.739399 L774.33813,-26.919575 L774.6115,-26.123981 L774.88495,-25.351902 L775.1584,-86.37787 L775.4318,-83.82502 L775.70526,-81.34761 L775.97864,-78.94343 L776.2521,-76.6103 L776.5255,-74.34612 L776.79895,-72.14886 L777.0724,-70.01654 L777.34576,-67.947235 L777.6192,-65.939095 L777.89264,-63.9903 L778.1661,-62.0991 L778.43945,-60.263794 L778.7129,-58.48273 L778.9863,-56.754303 L779.25977,-55.07696 L779.5332,-53.449192 L779.8066,-51.86953 L780.08,-50.33655 L780.35345,-48.84888 L780.6269,-47.405178 L780.9003,-46.004147 L781.1737,-44.644516 L781.44714,-105.06888 L781.7206,-101.96362 L781.994,-98.95014 L782.2674,-96.02573 L782.54083,-93.18774 L782.8143,-90.433624 L783.0877,-87.7609 L783.36115,-85.167175 L783.6345,-82.65011 L783.90796,-80.20743 L784.1814,-77.83694 L784.45483,-75.53651 L784.7283,-73.30407 L785.00165,-71.1376 L785.2751,-69.03517 L785.5485,-66.99487 L785.82196,-65.01488 L786.09534,-63.093395 L786.3688,-61.228706 L786.6422,-59.419125 L786.91565,-57.66302 L787.1891,-55.958824 L787.46246,-54.30499 L787.7359,-52.700035 L788.00934,-51.142513 L788.2828,-49.631023 L788.5562,-48.164204 L788.8296,-46.740738 L789.103,-45.35934 L789.37646,-44.01877 L789.6499,-42.71782 L789.9233,-41.455315 L790.1967,-40.230125 L790.47015,-39.041145 L790.7436,-37.887306 L791.017,-36.767567 L791.2904,-35.68092 L791.56384,-34.62639 L791.8373,-33.603027 L792.1107,-32.609905 L792.38416,-31.646137 L792.65753,-30.710854 L792.93097,-29.803211 L793.2044,-28.922392 L793.47784,-28.067606 L793.7512,-27.238083 L794.02466,-26.433077 L794.2981,-25.651861 L794.57153,-24.893734 L794.845,-24.158012 L795.11835,-23.444036 L795.3918,-22.75116 L795.6652,-22.078762 L795.93866,-21.426235 L796.2121,-20.792994 L796.4855,-20.178469 L796.7589,-19.582104 L797.03235,-19.003366 L797.3058,-18.441732 L797.57916,-17.896696 L797.8526,-17.36777 L798.12604,-16.854473 L798.3995,-16.356348 L798.6729,-15.872946 L798.9463,-15.403829 L799.2197,-14.948577 L799.49316,-14.50678 L799.7666,-14.07804 L800.04004,-13.661971 L800.3134,-13.258199 L800.58685,-12.86636 L800.8603,-12.486101 L801.1337,-12.117081 L801.40717,-11.758967 L801.68054,-11.411437 L801.954,-11.074179 L802.2274,-10.746887 L802.50085,-10.429268 L802.77423,-10.121037 L803.04767,-9.821915 L803.3211,-9.531633 L803.59454,-9.249931 L803.868,-8.976555 L804.14136,-8.711257 L804.4148,-8.4538 L804.68823,-8.203953 L804.9617,-7.9614897 L805.2351,-7.726192 L805.5085,-7.4978485 L805.7819,-7.2762537 L806.05536,-7.061208 L806.3288,-6.8525176 L806.6022,-6.649995 L806.8756,-6.453458 L807.14905,-6.2627296 L807.4225,-6.0776377 L807.6959,-5.8980165 L807.9693,-5.723704 L808.24274,-5.554543 L808.5162,-5.3903813 L808.7896,-5.2310715 L809.06305,-5.07647 L809.3364,-4.9264374 L809.60986,-4.7808394 L809.8833,-4.639544 L810.15674,-4.5024247 L810.4301,-4.369358 L810.70355,-4.240224 L810.977,-4.1149063 L811.2504,-3.9932926 L811.52386,-3.875273 L811.79724,-3.7607415 L812.0707,-3.6495948 L812.3441,-3.5417328 L812.61755,-3.437059 L812.891,-3.3354783 L813.16437,-3.2369 L813.4378,-3.1412354 L813.71124,-3.0483978 L813.9847,-2.958304 L814.25806,-2.870873 L814.5315,-2.7860258 L814.80493,-2.7036862 L815.07837,-2.6237803 L815.3518,-2.5462358 L815.6252,-2.4709833 L815.8986,-2.3979545 L816.17206,-2.3270843 L816.4455,-2.2583086 L816.71893,-2.1915655 L816.9923,-2.1267948 L817.26575,-2.0639386 L817.5392,-2.00294 L817.8126,-1.9437442 L818.086,-1.886298 L818.35944,-1.8305494 L818.6329,-1.7764485 L818.9063,-1.7239465 L819.17975,-1.6729962 L819.4531,-1.6235516 L819.72656,-1.5755684 L820,-1.5290034" fill="none" stroke="#0971B2" stroke-width="1.2"/>
</g>
<g>
<circle cx="4.515320695504149" cy="-63.36777654858796" fill="#FF0000" r="1.2000000476837158"/>
<circle cx="5.97981895113632" cy="-117.32930959272177" fill="#FF0000" r="1.2000000476837158"/>
<circle cx="51.819565685752714" cy="-64.13534312576768" fill="#FF0000" r="1.2000000476837158"/>
<circle cx="53.69308430823032" cy="-115.58613029593793" fill="#FF0000" r="1.2000000476837158"/>
<circle cx="55.32181800211716" cy="-160.03864523255257" fill="#FF0000" r="1.2000000476837158"/>
<circle cx="67.97720828058469" cy="-103.28756175311261" fill="#FF0000" r="1.2000000476837158"/>
<circle cx="72.72330309741133" cy="-124.72897889177707" fill="#FF0000" r="1.2000000476837158"/>
<circle cx="77.94433783567196" cy="-133.70448491575104" fill="#FF0000" r="1.2000000476837158"/>
<circle cx="83.66969524908852" cy="-134.70716486009053" fill="#FF0000" r="1.2000000476837158"/>
<circle cx="85.62263114986108" cy="-172.093465908303" fill="#FF0000" r="1.2000000476837158"/>
<circle cx="89.11678393930461" cy="-180.6591248680924" fill="#FF0000" r="1.2000000476837158"/>
<circle cx="91.38304835849485" cy="-204.25483155341112" fill="#FF0000" r="1.2000000476837158"/>
<circle cx="94.52992733089832" cy="-207.98557111338246" fill="#FF0000" r="1.2000000476837158"/>
<circle cx="150.4091331395742" cy="-63.820003782523294" fill="#FF0000" r="1.2000000476837158"/>
<circle cx="157.67915946157788" cy="-92.11102601263734" fill="#FF0000" r="1.2000000476837158"/>
<circle cx="180.4033428007814" cy="-70.97964252899223" fill="#FF0000" r="1.2000000476837158"/>
<circle cx="187.90329992158763" cy="-94.53919108855142" fill="#FF0000" r="1.2000000476837158"/>
<circle cx="196.11850347313407" cy="-101.75199290767789" fill="#FF0000" r="1.2000000476837158"/>
<circle cx="197.5554175418754" cy="-150.27845438919016" fill="#FF0000" r="1.2000000476837158"/>
<circle cx="210.00293457897348" cy="-101.71777312067752" fill="#FF0000" r="1.2000000476837158"/>
<circle cx="233.6821382922949" cy="-70.93730949417683" fill="#FF0000" r="1.2000000476837158"/>
<circle cx="253.1096391523001" cy="-71.7844999231087" fill="#FF0000" r="1.2000000476837158"/>
<circle cx="285.8173717554139" cy="-65.35153272829663" fill="#FF0000" r="1.2000000476837158"/>
<circle cx="289.7376530117188" cy="-105.87395951151132" fill="#FF0000" r="1.2000000476837158"/>
<circle cx="289.89571138476333" cy="-167.42148963672625" fill="#FF0000" r="1.2000000476837158"/>
<circle cx="298.1648229483319" cy="-130.9423402581731" fill="#FF0000" r="1.2000000476837158"/>
<circle cx="304.04112907214585" cy="-132.0858081965135" fill="#FF0000" r="1.2000000476837158"/>
<circle cx="353.43967203688237" cy="-63.95254912608067" fill="#FF0000" r="1.2000000476837158"/>
<circle cx="359.1832819087813" cy="-97.42204268452305" fill="#FF0000" r="1.2000000476837158"/>
<circle cx="359.36407744569266" cy="-158.8763194409784" fill="#FF0000" r="1.2000000476837158"/>
<circle cx="366.13189243809273" cy="-138.97597139741066" fill="#FF0000" r="1.2000000476837158"/>
<circle cx="369.78804779028525" cy="-156.41893835045104" fill="#FF0000" r="1.2000000476837158"/>
<circle cx="370.5784991545199" cy="-206.79244973961318" fill="#FF0000" r="1.2000000476837158"/>
<circle cx="371.6165988994231" cy="-247.89847453380966" fill="#FF0000" r="1.2000000476837158"/>
<circle cx="374.3003927971402" cy="-248.03487350730526" fill="#FF0000" r="1.2000000476837158"/>
<circle cx="376.38087117403256" cy="-260.781230925602" fill="#FF0000" r="1.2000000476837158"/>
<circle cx="378.9092994633416" cy="-260.9715618728492" fill="#FF0000" r="1.2000000476837158"/>
<circle cx="379.899346137068" cy="-297.4761177869843" fill="#FF0000" r="1.2000000476837158"/>
<circle cx="380.56144381814823" cy="-340" fill="#FF0000" r="1.2000000476837158"/>
<circle cx="386.3613694649647" cy="-243.30006500448386" fill="#FF0000" r="1.2000000476837158"/>
<circle cx="386.9360917993909" cy="-291.799477243472" fill="#FF0000" r="1.2000000476837158"/>
<circle cx="391.8930488969452" cy="-232.7557745880898" fill="#FF0000" r="1.2000000476837158"/>
<circle cx="393.33739135421143" cy="-262.0123522847859" fill="#FF0000" r="1.2000000476837158"/>
<circle cx="422.20938862584194" cy="-74.3972400488393" fill="#FF0000" r="1.2000000476837158"/>
<circle cx="432.9603191217269" cy="-86.2379134796092" fill="#FF0000" r="1.2000000476837158"/>
<circle cx="439.50201578873595" cy="-105.43875459014737" fill="#FF0000" r="1.2000000476837158"/>
<circle cx="439.95678234510774" cy="-163.67457706281073" fill="#FF0000" r="1.2000000476837158"/>
<circle cx="448.48189695399617" cy="-127.60024063549844" fill="#FF0000" r="1.2000000476837158"/>
<circle cx="464.7775037199361" cy="-84.71573754610286" fill="#FF0000" r="1.2000000476837158"/>
<circle cx="467.47026395696696" cy="-126.41304707437409" fill="#FF0000" r="1.2000000476837158"/>
<circle cx="469.64235898540755" cy="-162.97488080764785" fill="#FF0000" r="1.2000000476837158"/>
<circle cx="480.2265781993627" cy="-114.39201146707657" fill="#FF0000" r="1.2000000476837158"/>
<circle cx="488.74258152370624" cy="-108.30468699914589" fill="#FF0000" r="1.2000000476837158"/>
<circle cx="509.5242324537725" cy="-74.44394516014468" fill="#FF0000" r="1.2000000476837158"/>
<circle cx="515.1925934163778" cy="-103.33727515750525" fill="#FF0000" r="1.2000000476837158"/>
<circle cx="518.714877871518" cy="-133.58087087745287" fill="#FF0000" r="1.2000000476837158"/>
<circle cx="568.0095661411845" cy="-63.96594547339795" fill="#FF0000" r="1.2000000476837158"/>
<circle cx="595.6409573604445" cy="-66.45307400800877" fill="#FF0000" r="1.2000000476837158"/>
<circle cx="597.3614512682337" cy="-118.38929164210329" fill="#FF0000" r="1.2000000476837158"/>
<circle cx="607.0618972743184" cy="-104.20728969738447" fill="#FF0000" r="1.2000000476837158"/>
<circle cx="625.8651909198785" cy="-76.60845615694522" fill="#FF0000" r="1.2000000476837158"/>
<circle cx="640.75546231401" cy="-78.32140760734252" fill="#FF0000" r="1.2000000476837158"/>
<circle cx="656.6197467340182" cy="-77.10623962172507" fill="#FF0000" r="1.2000000476837158"/>
<circle cx="658.004487589451" cy="-129.60556449998387" fill="#FF0000" r="1.2000000476837158"/>
<circle cx="659.9752012809946" cy="-167.77198380638168" fill="#FF0000" r="1.2000000476837158"/>
<circle cx="680.1293148791813" cy="-81.74857037268386" fill="#FF0000" r="1.2000000476837158"/>
<circle cx="689.029636442669" cy="-94.15529557700172" fill="#FF0000" r="1.2000000476837158"/>
<circle cx="732.6561207962994" cy="-64.15304386997059" fill="#FF0000" r="1.2000000476837158"/>
<circle cx="737.8215772786156" cy="-99.76600751690549" fill="#FF0000" r="1.2000000476837158"/>
<circle cx="752.8604808987449" cy="-82.5266572073778" fill="#FF0000" r="1.2000000476837158"/>
<circle cx="756.3465730420692" cy="-119.66408869487034" fill="#FF0000" r="1.2000000476837158"/>
<circle cx="757.7781802981019" cy="-165.63746278915616" fill="#FF0000" r="1.2000000476837158"/>
<circle cx="774.9264035939444" cy="-88.60466485620483" fill="#FF0000" r="1.2000000476837158"/>
<circle cx="781.2105292149882" cy="-107.83237398239106" fill="#FF0000" r="1.2000000476837158"/>
</g>
<g>
<g>
<line stroke="black" stroke-width="1" x1="0" x2="0" y1="0" y2="10"/>
<line stroke="black" stroke-width="1" x1="182.28298321662777" x2="182.28298321662777" y1="0" y2="10"/>
<line stroke="black" stroke-width="1" x1="364.56596643325554" x2="364.56596643325554" y1="0" y2="10"/>
<line stroke="black" stroke-width="1" x1="546.8489496498833" x2="546.8489496498833" y1="0" y2="10"/>
<line stroke="black" stroke-width="1" x1="729.1319328665111" x2="729.1319328665111" y1="0" y2="10"/>
</g>
<line stroke="black" stroke-width="1" x1="0" x2="820" y1="0" y2="0"/>
<g>
<text font-size="12" text-anchor="middle" x="0" y="20">
0
</text>
<text font-size="12" text-anchor="middle" x="182.28298321662777" y="20">
20
</text>
<text font-size="12" text-anchor="middle" x="364.56596643325554" y="20">
40
</text>
<text font-size="12" text-anchor="middle" x="546.8489496498833" y="20">
60
</text>
<text font-size="12" text-anchor="middle" x="729.1319328665111" y="20">
80
</text>
</g>
<text font-size="12" text-anchor="middle" x="410" y="30">
Time t
</text>
</g>
<g>
<g>
<line stroke="black" stroke-width="1" x1="0" x2="-10" y1="-0.00000000000003517618227177218" y2="-0.00000000000003517618227177218"/>
<line stroke="black" stroke-width="1" x1="0" x2="-10" y1="-63.36777654858796" y2="-63.36777654858796"/>
<line stroke="black" stroke-width="1" x1="0" x2="-10" y1="-126.73555309717588" y2="-126.73555309717588"/>
<line stroke="black" stroke-width="1" x1="0" x2="-10" y1="-190.10332964576386" y2="-190.10332964576386"/>
<line stroke="black" stroke-width="1" x1="0" x2="-10" y1="-253.47110619435182" y2="-253.47110619435182"/>
<line stroke="black" stroke-width="1" x1="0" x2="-10" y1="-316.8388827429397" y2="-316.8388827429397"/>
</g>
<line stroke="black" stroke-0="1" x1="0" x2="0" y1="0" y2="-340"/>
<g>
<text dominant-baseline="middle" font-size="12" text-anchor="end" x="-15" y="-0.00000000000003517618227177218">
0.6000000000000001
</text>
<text dominant-baseline="middle" font-size="12" text-anchor="end" x="-15" y="-63.36777654858796">
0.8
</text>
<text dominant-baseline="middle" font-size="12" text-anchor="end" x="-15" y="-126.73555309717588">
1
</text>
<text dominant-baseline="middle" font-size="12" text-anchor="end" x="-15" y="-190.10332964576386">
1.2000000000000002
</text>
<text dominant-baseline="middle" font-size="12" text-anchor="end" x="-15" y="-253.47110619435182">
1.4000000000000001
</text>
<text dominant-baseline="middle" font-size="12" text-anchor="end" x="-15" y="-316.8388827429397">
1.6
</text>
</g>
<text font-size="12" text-anchor="middle" transform="rotate(-90 -30 -170)" x="-30" y="-170">
Intensity (t)
</text>
</g>
</g>
</svg>