<svg viewBox="0 0 400 250" xmlns="http://www.w3.org/2000/svg">
<g transform="translate(48, 214)">
<g>
<path d="M0,0 L0,0 L0.10670223,0 L0.21340446,0 L0.32010671,0 L0.42680892,0 L0.53351116,0 L0.64021343,0 L0.74691564,0 L0.85361785,0 L0.9603201,0 L1.0670223,0 L1.1737245,0 L1.2804269,0 L1.3871291,0 L1.4938313,0 L1.6005335,0 L1.7072357,0 L1.813938,0 L1.9206402,0 L2.0273426,0 L2.1340446,0 L2.240747,0 L2.347449,0 L2.4541514,0 L2.5608537,0 L2.6675558,0 L2.7742581,0 L2.8809602,0 L2.9876626,0 L3.094365,0 L3.201067,0 L3.3077693,0 L3.4144714,0 L3.5211737,0 L3.627876,0 L3.7345781,0 L3.8412805,0 L3.9479825,0 L4.054685,0 L4.161387,0 L4.2680893,0 L4.3747916,0 L4.481494,0 L4.5881963,0 L4.694898,0 L4.8016005,0 L4.908303,0 L5.015005,0 L5.1217074,0 L5.2284093,0 L5.3351116,0 L5.441814,0 L5.5485163,0 L5.6552186,0 L5.7619205,0 L5.868623,0 L5.975325,0 L6.0820274,0 L6.18873,0 L6.2954316,0 L6.402134,0 L6.5088363,0 L6.6155386,0 L6.722241,0 L6.828943,0 L6.935645,0 L7.0423474,0 L7.1490498,0 L7.255752,0 L7.362454,0 L7.4691563,0 L7.5758586,0 L7.682561,0 L7.7892632,0 L7.895965,0 L8.002667,0 L8.10937,0 L8.216072,0 L8.322774,0 L8.429477,-39.96727 L8.536179,-39.332882 L8.642881,-38.708565 L8.749583,-38.094154 L8.856285,-37.4895 L8.962988,-77.05663 L9.06969,-75.833534 L9.176393,-74.62985 L9.283094,-73.445274 L9.389796,-72.2795 L9.496499,-71.13223 L9.603201,-70.003174 L9.709904,-68.89204 L9.816606,-67.79854 L9.923307,-66.72239 L10.03001,-65.66333 L10.136712,-64.62108 L10.243415,-63.595367 L10.350117,-62.585938 L10.456819,-61.59253 L10.563521,-60.61489 L10.670223,-59.65277 L10.776926,-58.70592 L10.883628,-57.7741 L10.99033,-97.02648 L11.097033,-95.486404 L11.203734,-93.97078 L11.310437,-92.47922 L11.417139,-91.01132 L11.523841,-89.56673 L11.630544,-88.145065 L11.737246,-86.745964 L11.843948,-85.36907 L11.95065,-84.01404 L12.057352,-82.68051 L12.164055,-81.36815 L12.270757,-80.07662 L12.37746,-118.75105 L12.484161,-116.86616 L12.590863,-115.01118 L12.697566,-113.18564 L12.804268,-111.389084 L12.910971,-109.62104 L13.017673,-107.88106 L13.124374,-106.16869 L13.231077,-104.48351 L13.337779,-102.82508 L13.444482,-101.19297 L13.551184,-99.58677 L13.657886,-98.00606 L13.764588,-96.45044 L13.87129,-94.91951 L13.977993,-93.41289 L14.084695,-91.930176 L14.191397,-90.47099 L14.2980995,-89.03498 L14.404801,-87.62176 L14.511504,-86.230965 L14.618206,-84.86224 L14.724908,-83.51525 L14.831611,-82.189644 L14.938313,-80.88507 L15.045015,-79.60121 L15.151717,-78.33772 L15.258419,-77.0943 L15.365122,-75.870605 L15.471824,-114.81778 L15.5785265,-112.995316 L15.685228,-111.201775 L15.79193,-109.43671 L15.898633,-107.69965 L16.005335,-105.99017 L16.112038,-104.30782 L16.21874,-102.652176 L16.325441,-101.02281 L16.432144,-99.41931 L16.538847,-97.84126 L16.645548,-96.28825 L16.75225,-94.7599 L16.858953,-93.25581 L16.965654,-91.77559 L17.072357,-90.31886 L17.17906,-88.88526 L17.285763,-87.47442 L17.392464,-86.08596 L17.499166,-84.71955 L17.60587,-83.374825 L17.71257,-82.05144 L17.819273,-80.74906 L17.925976,-79.46736 L18.032677,-78.206 L18.13938,-76.96466 L18.246082,-75.74303 L18.352785,-74.54078 L18.459486,-73.35762 L18.566189,-72.19324 L18.672892,-71.04733 L18.779593,-69.919624 L18.886295,-68.809814 L18.992998,-67.71761 L19.099699,-66.64275 L19.206402,-65.58496 L19.313105,-64.543945 L19.419807,-63.519463 L19.526508,-62.51124 L19.633211,-61.519016 L19.739914,-60.542545 L19.846615,-59.581573 L19.953318,-58.635857 L20.06002,-57.705147 L20.166721,-56.78921 L20.273424,-55.887814 L20.380127,-55.000725 L20.48683,-54.127716 L20.59353,-53.268562 L20.700233,-52.42305 L20.806936,-51.590954 L20.913637,-50.772068 L21.02034,-49.96618 L21.127043,-49.17308 L21.233744,-48.392574 L21.340446,-47.624454 L21.44715,-46.868526 L21.553852,-46.124596 L21.660553,-45.392475 L21.767256,-44.671974 L21.873959,-43.962914 L21.98066,-43.265102 L22.087362,-42.57837 L22.194065,-41.90254 L22.300766,-41.23743 L22.407469,-40.582882 L22.514172,-39.938725 L22.620874,-39.30479 L22.727575,-38.680916 L22.834278,-38.066948 L22.94098,-37.462723 L23.047682,-36.868088 L23.154385,-36.282894 L23.261087,-35.706985 L23.367788,-35.14022 L23.474491,-34.58245 L23.581194,-74.36326 L23.687897,-73.182915 L23.794598,-112.29292 L23.9013,-110.51054 L24.008003,-108.75644 L24.114704,-107.03018 L24.221407,-105.33132 L24.32811,-103.65943 L24.434813,-102.014084 L24.541513,-100.394844 L24.648216,-98.80131 L24.75492,-97.23307 L24.86162,-95.68972 L24.968323,-94.17087 L25.075026,-92.676125 L25.181726,-91.2051 L25.28843,-89.75743 L25.395132,-88.33274 L25.501835,-86.930664 L25.608536,-85.55084 L25.715239,-84.192924 L25.821941,-82.85655 L25.928642,-162.01712 L26.035345,-159.44547 L26.142048,-156.91464 L26.248749,-154.42398 L26.355452,-151.97287 L26.462154,-149.56064 L26.568857,-147.18672 L26.675558,-144.85046 L26.78226,-142.5513 L26.888964,-140.28864 L26.995665,-138.06187 L27.102367,-135.87047 L27.20907,-133.71384 L27.315771,-131.59145 L27.422474,-129.50273 L27.529177,-127.447174 L27.63588,-125.42425 L27.74258,-123.433426 L27.849283,-121.47421 L27.955986,-119.54609 L28.062687,-117.64857 L28.16939,-115.78117 L28.276093,-113.94341 L28.382793,-112.13483 L28.489496,-110.35495 L28.596199,-108.60332 L28.702902,-106.87949 L28.809603,-105.18303 L28.916306,-103.5135 L29.023008,-101.87045 L29.12971,-100.2535 L29.236412,-98.66221 L29.343115,-97.096176 L29.449816,-95.555 L29.556519,-94.038284 L29.663221,-92.54565 L29.769924,-91.0767 L29.876625,-89.631065 L29.983328,-88.20838 L30.09003,-86.80827 L30.196732,-85.4304 L30.303434,-84.07439 L30.410137,-82.7399 L30.516838,-81.4266 L30.62354,-80.13414 L30.730244,-78.8622 L30.836946,-77.61044 L30.943647,-76.378555 L31.05035,-75.16622 L31.157053,-73.97314 L31.263754,-72.79898 L31.370457,-71.64346 L31.47716,-70.506294 L31.58386,-69.38717 L31.690563,-68.28581 L31.797266,-67.20193 L31.903969,-66.135254 L32.01067,-65.08551 L32.11737,-64.05243 L32.224075,-63.035748 L32.330776,-62.0352 L32.43748,-61.050537 L32.54418,-60.0815 L32.650883,-59.127846 L32.757587,-58.189327 L32.86429,-57.26571 L32.97099,-56.356747 L33.077694,-55.462215 L33.184395,-94.794815 L33.291096,-93.29017 L33.3978,-91.8094 L33.5045,-90.35214 L33.611202,-88.918015 L33.717907,-87.506645 L33.824608,-86.11768 L33.93131,-84.75076 L34.038013,-83.40554 L34.144714,-82.08167 L34.251415,-80.77882 L34.35812,-79.496635 L34.46482,-78.23481 L34.571526,-76.99302 L34.678226,-75.770935 L34.784927,-74.568245 L34.891632,-73.38464 L34.998333,-72.21983 L35.105034,-71.07351 L35.21174,-69.94539 L35.31844,-68.83517 L35.42514,-67.74257 L35.531845,-66.66731 L35.638546,-65.60912 L35.745247,-64.567726 L35.85195,-63.542866 L35.958652,-62.53427 L36.065353,-61.541683 L36.17206,-60.564854 L36.27876,-59.603527 L36.385464,-58.65746 L36.492165,-57.726406 L36.598866,-56.810135 L36.70557,-55.908405 L36.81227,-55.02099 L36.918972,-54.14766 L37.025677,-53.28819 L37.132378,-52.442364 L37.23908,-51.609962 L37.345783,-50.790775 L37.452484,-49.98459 L37.559185,-49.1912 L37.66589,-48.410404 L37.77259,-47.642002 L37.87929,-46.885796 L37.985996,-46.14159 L38.092697,-45.4092 L38.199398,-44.688435 L38.306103,-43.97911 L38.412804,-43.281044 L38.51951,-42.594055 L38.62621,-41.917976 L38.73291,-41.252625 L38.839615,-40.597836 L38.946316,-39.953438 L39.053017,-39.31927 L39.15972,-38.695168 L39.266422,-38.08097 L39.373123,-37.476524 L39.479828,-36.88167 L39.58653,-36.29626 L39.69323,-35.720142 L39.799934,-35.153168 L39.906635,-34.595192 L40.013336,-34.046074 L40.12004,-33.505672 L40.22674,-32.973846 L40.333443,-32.450462 L40.440147,-31.935389 L40.54685,-31.428488 L40.653553,-30.929634 L40.760254,-30.438698 L40.866955,-29.955553 L40.97366,-29.480078 L41.08036,-29.01215 L41.18706,-28.551651 L41.293766,-28.09846 L41.400467,-27.65246 L41.507168,-27.213543 L41.613873,-26.781591 L41.720573,-26.356495 L41.827274,-25.938147 L41.93398,-25.52644 L42.04068,-25.121265 L42.14738,-24.722525 L42.254086,-24.33011 L42.360786,-23.943928 L42.467487,-23.563873 L42.574192,-23.189852 L42.680893,-22.821766 L42.787598,-22.459524 L42.8943,-22.103031 L43.001,-21.752195 L43.107704,-21.40693 L43.214405,-21.067144 L43.321106,-20.732754 L43.42781,-20.40367 L43.53451,-20.079807 L43.641212,-19.761087 L43.747917,-19.447426 L43.854618,-19.138744 L43.96132,-18.83496 L44.068024,-18.536 L44.174725,-18.241783 L44.281425,-17.952236 L44.38813,-17.667288 L44.49483,-17.38686 L44.601532,-17.110884 L44.708237,-16.839289 L44.814938,-16.572004 L44.921642,-16.308962 L45.028343,-16.050095 L45.135044,-15.795337 L45.24175,-15.544622 L45.34845,-15.297887 L45.45515,-55.445377 L45.561855,-54.565308 L45.668556,-53.69921 L45.775257,-52.84686 L45.88196,-52.00804 L45.988663,-51.182533 L46.095364,-50.37013 L46.20207,-49.57062 L46.30877,-48.783802 L46.41547,-48.00947 L46.522175,-47.247433 L46.628876,-46.49749 L46.735577,-45.75945 L46.84228,-45.033123 L46.948982,-44.31833 L47.055687,-43.614876 L47.162388,-42.922592 L47.26909,-42.241295 L47.375793,-41.570812 L47.482494,-40.910973 L47.589195,-40.261604 L47.6959,-39.622547 L47.8026,-38.99363 L47.9093,-38.3747 L48.016006,-37.765587 L48.122707,-37.166145 L48.22941,-36.57622 L48.336113,-35.99566 L48.442814,-35.42431 L48.549515,-34.86203 L48.65622,-34.308678 L48.76292,-33.764107 L48.869625,-33.22818 L48.976326,-32.70076 L49.083027,-32.18171 L49.18973,-71.72629 L49.296432,-70.5878 L49.403133,-69.467384 L49.50984,-68.364746 L49.61654,-67.27962 L49.72324,-66.21171 L49.829945,-65.16075 L49.936646,-64.12648 L50.043346,-63.108616 L50.15005,-62.106915 L50.256752,-61.121113 L50.363453,-60.150955 L50.470158,-59.196198 L50.57686,-58.256596 L50.68356,-57.33191 L50.790264,-56.421898 L50.896965,-95.72734 L51.00367,-94.20789 L51.11037,-92.71256 L51.21707,-91.24097 L51.323776,-89.792725 L51.430477,-88.36748 L51.537178,-86.96484 L51.643883,-85.58448 L51.750584,-84.22603 L51.857285,-82.88914 L51.96399,-81.57346 L52.07069,-80.27867 L52.17739,-79.00443 L52.284096,-77.75042 L52.390797,-76.51631 L52.497498,-75.301796 L52.604202,-74.10655 L52.710903,-72.93028 L52.817604,-71.77268 L52.92431,-70.63346 L53.03101,-69.51232 L53.137714,-68.40897 L53.244415,-67.323135 L53.351116,-66.25454 L53.45782,-65.2029 L53.56452,-64.16795 L53.671223,-63.14944 L53.777927,-62.147087 L53.88463,-61.16065 L53.99133,-60.189865 L54.098034,-59.23449 L54.204735,-58.29428 L54.311436,-57.36899 L54.41814,-56.458393 L54.52484,-55.56225 L54.631542,-54.680325 L54.738247,-53.812405 L54.844948,-52.958256 L54.95165,-52.11767 L55.058353,-51.29042 L55.165054,-50.476303 L55.27176,-49.67511 L55.37846,-48.88663 L55.48516,-48.11067 L55.591866,-47.347023 L55.698566,-46.5955 L55.805267,-45.855904 L55.911972,-45.128048 L56.018673,-44.411747 L56.125374,-43.706814 L56.23208,-43.01307 L56.33878,-42.330334 L56.44548,-41.65844 L56.552185,-40.997208 L56.658886,-40.346474 L56.765587,-39.706066 L56.87229,-79.568275 L56.978992,-78.30531 L57.085693,-77.06239 L57.192398,-75.83921 L57.2991,-74.63544 L57.405804,-73.450775 L57.512505,-72.28491 L57.619205,-71.13756 L57.72591,-70.008415 L57.83261,-108.9712 L57.939312,-107.24153 L58.046017,-105.53932 L58.152718,-103.864136 L58.25942,-102.21553 L58.366123,-100.593094 L58.472824,-98.996414 L58.579525,-97.42508 L58.68623,-95.87868 L58.79293,-94.35683 L58.89963,-92.85913 L59.006336,-91.38521 L59.113037,-89.93468 L59.219738,-88.50718 L59.326443,-87.10233 L59.433144,-85.71978 L59.53985,-84.35918 L59.64655,-83.02017 L59.75325,-81.70242 L59.859955,-80.40559 L59.966656,-79.12933 L60.073357,-77.87334 L60.18006,-76.637276 L60.286762,-75.42084 L60.393463,-74.22371 L60.500168,-73.04558 L60.60687,-71.886154 L60.71357,-70.745125 L60.820274,-69.62221 L60.926975,-68.51712 L61.033676,-67.429565 L61.14038,-66.35928 L61.24708,-65.305984 L61.353786,-64.2694 L61.460487,-63.24927 L61.56719,-62.24534 L61.673893,-61.257336 L61.780594,-60.28502 L61.887295,-59.328133 L61.994,-58.386436 L62.1007,-57.45969 L62.2074,-56.54765 L62.314106,-55.650085 L62.420807,-54.76677 L62.527508,-53.897476 L62.634212,-53.041977 L62.740913,-52.200058 L62.847614,-51.371506 L62.95432,-50.556103 L63.06102,-49.75364 L63.16772,-48.963917 L63.274426,-48.18673 L63.381126,-47.421875 L63.48783,-46.669163 L63.594532,-45.9284 L63.701233,-45.19939 L63.807938,-44.481956 L63.91464,-43.77591 L64.02134,-43.081066 L64.128044,-42.397255 L64.23474,-41.724297 L64.341446,-41.06202 L64.44815,-40.410255 L64.554855,-39.768837 L64.66155,-39.1376 L64.76826,-38.51638 L64.87496,-37.90502 L64.98166,-37.303368 L65.08836,-36.711266 L65.19507,-36.12856 L65.301765,-35.5551 L65.40847,-34.990746 L65.515175,-34.43535 L65.62187,-33.888767 L65.72858,-33.35086 L65.83528,-32.821495 L65.94198,-32.30053 L66.04868,-31.787834 L66.15539,-31.283276 L66.262085,-30.786726 L66.36879,-30.298058 L66.475494,-29.817146 L66.58219,-29.343868 L66.688896,-28.878103 L66.7956,-28.41973 L66.9023,-27.968634 L67.009,-27.524696 L67.11571,-27.087805 L67.222404,-26.657848 L67.32911,-66.63382 L67.435814,-65.576164 L67.54251,-64.53529 L67.649216,-63.51095 L67.75592,-62.502857 L67.86262,-61.51077 L67.96932,-60.534428 L68.07603,-59.573586 L68.182724,-58.627995 L68.28943,-57.69741 L68.39613,-56.781597 L68.50283,-55.88032 L68.609535,-54.99335 L68.71624,-54.12046 L68.822945,-53.26142 L68.92964,-92.64689 L69.03635,-91.17634 L69.14305,-89.729126 L69.24975,-88.304886 L69.35645,-86.90325 L69.46316,-85.52386 L69.569855,-84.16637 L69.67656,-82.83042 L69.783264,-81.51568 L69.88996,-80.22181 L69.996666,-78.94847 L70.10337,-77.69535 L70.21007,-76.46212 L70.31677,-75.24846 L70.42348,-74.05406 L70.530174,-72.878624 L70.63688,-71.72185 L70.74358,-70.58343 L70.85028,-69.46308 L70.956985,-68.36052 L71.06369,-67.27545 L71.17039,-66.20761 L71.27709,-65.156715 L71.3838,-64.122505 L71.49049,-63.10471 L71.5972,-62.10307 L71.7039,-61.11733 L71.8106,-60.147232 L71.917305,-59.19253 L72.02401,-58.25299 L72.13071,-57.328358 L72.23741,-56.418404 L72.34412,-55.522892 L72.45081,-54.641594 L72.55752,-53.77429 L72.66422,-52.920746 L72.77093,-52.08075 L72.877625,-51.25409 L72.98433,-50.440548 L73.091034,-49.639923 L73.19773,-89.17673 L73.304436,-87.76125 L73.41114,-86.36825 L73.51784,-84.99735 L73.62454,-83.64822 L73.73125,-82.320496 L73.837944,-81.01385 L73.94465,-79.72794 L74.05135,-78.46245 L74.15805,-77.21704 L74.264755,-75.991394 L74.37146,-74.78521 L74.47816,-73.59817 L74.58486,-72.42997 L74.69157,-71.28031 L74.79826,-70.1489 L74.90497,-69.035446 L75.01167,-67.939674 L75.11837,-66.86129 L75.225075,-65.80002 L75.33178,-64.7556 L75.43848,-63.727753 L75.54518,-62.71622 L75.651886,-61.72075 L75.75858,-60.741074 L75.86529,-59.77695 L75.97199,-58.82813 L76.07869,-57.89437 L76.185394,-56.97543 L76.2921,-56.07108 L76.398796,-55.18108 L76.5055,-54.30521 L76.612206,-53.443237 L76.7189,-52.59495 L76.82561,-51.760128 L76.93231,-50.938557 L77.03902,-50.130024 L77.14571,-49.334328 L77.25242,-48.551258 L77.35912,-47.78062 L77.46582,-47.022213 L77.572525,-46.275845 L77.67923,-45.541325 L77.78593,-44.818462 L77.89263,-44.10707 L77.99934,-43.406975 L78.10603,-42.71799 L78.21274,-42.03994 L78.31944,-41.372654 L78.42614,-40.715958 L78.532845,-40.069687 L78.63955,-39.433674 L78.74625,-38.80776 L78.85295,-38.191772 L78.959656,-37.585567 L79.06635,-36.988983 L79.17306,-36.40187 L79.27976,-35.824074 L79.38646,-35.25545 L79.493164,-34.69585 L79.59987,-34.145134 L79.706566,-33.60316 L79.81327,-33.06979 L79.919975,-32.544884 L80.02667,-32.02831 L80.13338,-31.519934 L80.24008,-31.019627 L80.34678,-30.527262 L80.45348,-30.042713 L80.56019,-29.565855 L80.666885,-29.096565 L80.77359,-28.634726 L80.880295,-28.180216 L80.98699,-27.73292 L81.0937,-27.292725 L81.2004,-26.859514 L81.307106,-26.433182 L81.4138,-26.013617 L81.52051,-25.600712 L81.62721,-25.194359 L81.73391,-24.794458 L81.840614,-24.400904 L81.94732,-24.013596 L82.054016,-23.632435 L82.16072,-23.257324 L82.267426,-22.888168 L82.37412,-22.524872 L82.48083,-22.167343 L82.58753,-21.815487 L82.69423,-21.469217 L82.800934,-21.128443 L82.90764,-20.793077 L83.014336,-20.463036 L83.12104,-60.414726 L83.227745,-59.45578 L83.33444,-58.51206 L83.44115,-57.583317 L83.54785,-56.669315 L83.65455,-55.76982 L83.76125,-94.845924 L83.86796,-93.34046 L83.974655,-91.8589 L84.08136,-90.400856 L84.188065,-129.2977 L84.29476,-127.24539 L84.40147,-125.22566 L84.50817,-123.238 L84.61487,-121.28188 L84.72157,-119.35681 L84.82828,-117.4623 L84.934975,-115.59786 L85.04168,-113.76301 L85.148384,-111.95729 L85.25509,-110.18022 L85.361786,-108.43137 L85.46849,-106.71027 L85.575195,-105.016495 L85.68189,-103.3496 L85.7886,-101.70917 L85.8953,-100.09477 L86.002,-98.506 L86.1087,-96.942444 L86.21541,-95.40371 L86.322105,-93.8894 L86.42881,-92.39912 L86.535515,-90.932495 L86.64221,-89.48915 L86.74892,-88.06872 L86.85562,-86.67084 L86.96232,-85.295135 L87.06902,-83.94128 L87.17573,-82.6089 L87.282425,-81.297676 L87.38913,-80.00726 L87.495834,-78.737335 L87.60253,-77.487564 L87.709236,-76.25763 L87.81594,-75.04721 L87.92264,-73.85601 L88.02934,-72.68372 L88.13605,-71.53004 L88.242744,-70.39466 L88.34945,-69.27731 L88.456154,-68.1777 L88.56285,-67.09553 L88.669556,-66.03055 L88.77626,-64.98246 L88.88296,-63.951015 L88.98966,-62.935944 L89.09637,-61.93698 L89.203064,-60.953876 L89.30977,-59.986374 L89.41647,-59.03423 L89.52318,-58.0972 L89.629875,-57.17504 L89.73658,-56.267517 L89.843285,-55.3744 L89.94998,-54.49546 L90.05669,-53.630474 L90.16339,-52.779213 L90.27009,-51.941467 L90.37679,-51.117016 L90.4835,-50.305653 L90.590195,-49.507168 L90.6969,-48.721355 L90.803604,-47.948017 L90.9103,-47.186954 L91.017006,-46.43797 L91.12371,-45.700874 L91.23041,-44.97548 L91.33711,-44.261597 L91.44382,-43.559048 L91.550514,-42.86765 L91.65722,-42.187225 L91.76392,-41.5176 L91.87062,-40.858604 L91.977325,-80.18057 L92.08403,-78.90789 L92.19073,-77.65541 L92.29743,-76.42281 L92.40414,-75.20978 L92.51083,-74.01599 L92.61754,-72.84116 L92.72424,-71.684975 L92.83094,-70.54714 L92.937645,-69.427376 L93.04435,-68.32537 L93.15105,-67.24087 L93.25775,-66.17358 L93.364456,-65.12322 L93.47115,-64.08955 L93.57786,-63.07227 L93.68456,-62.071144 L93.79127,-61.085907 L93.897964,-60.11631 L94.00467,-59.162106 L94.111374,-58.22304 L94.21807,-57.29889 L94.324776,-56.3894 L94.43148,-55.49435 L94.53818,-54.613506 L94.64488,-53.746643 L94.75159,-52.89354 L94.858284,-52.053978 L94.96499,-51.22774 L95.07169,-50.41462 L95.17839,-49.614407 L95.285095,-48.826893 L95.3918,-48.051876 L95.4985,-47.289165 L95.6052,-46.53856 L95.71191,-45.79987 L95.8186,-45.072903 L95.92531,-44.357475 L96.03201,-43.6534 L96.13871,-42.960506 L96.245415,-42.278606 L96.35212,-41.607533 L96.45882,-40.94711 L96.56552,-40.29717 L96.672226,-39.657543 L96.77892,-39.028072 L96.88563,-38.408592 L96.99233,-37.798946 L97.09903,-37.198975 L97.205734,-36.60853 L97.31244,-36.02745 L97.419136,-35.4556 L97.52584,-34.892826 L97.632545,-34.33898 L97.73925,-33.79393 L97.84595,-33.25753 L97.95265,-32.729645 L98.05936,-32.210136 L98.16605,-31.698875 L98.27276,-71.510895 L98.37946,-70.37583 L98.48616,-69.25877 L98.592865,-68.159454 L98.69957,-67.07758 L98.80627,-66.01288 L98.91297,-64.96508 L99.01968,-63.933907 L99.12637,-62.919106 L99.23308,-61.92041 L99.33978,-60.93757 L99.44648,-59.970325 L99.553185,-59.018436 L99.65989,-58.081654 L99.76659,-57.159744 L99.87329,-56.252464 L99.979996,-55.35959 L100.08669,-54.48088 L100.1934,-53.616123 L100.3001,-52.765095 L100.4068,-51.92757 L100.513504,-51.10334 L100.62021,-50.292194 L100.726906,-49.493923 L100.83361,-48.70832 L100.940315,-47.93519 L101.04701,-47.174328 L101.15372,-46.425545 L101.26042,-45.68865 L101.36712,-44.963448 L101.47382,-44.249756 L101.58053,-43.547394 L101.687225,-42.85618 L101.79393,-42.175938 L101.900635,-41.506493 L102.00734,-40.84767 L102.11404,-40.19931 L102.22074,-39.56124 L102.327446,-38.933296 L102.43414,-38.315323 L102.54085,-37.707153 L102.64755,-37.108643 L102.75425,-36.519627 L102.860954,-35.939964 L102.96766,-35.3695 L103.074356,-34.80809 L103.18106,-34.255592 L103.287766,-33.711864 L103.39446,-33.17677 L103.50117,-32.65016 L103.60787,-32.131916 L103.71457,-31.621899 L103.82127,-31.119974 L103.92798,-30.626017 L104.034676,-30.1399 L104.14138,-29.661499 L104.248085,-29.190691 L104.35478,-28.727356 L104.46149,-28.271376 L104.56819,-27.822634 L104.67489,-27.381014 L104.78159,-26.946404 L104.8883,-26.518692 L104.994995,-26.09777 L105.1017,-25.683529 L105.208405,-25.275862 L105.3151,-24.874666 L105.42181,-24.47984 L105.52851,-24.091278 L105.63521,-23.708885 L105.74191,-23.332561 L105.84862,-22.962212 L105.955315,-22.597738 L106.06202,-22.239052 L106.168724,-21.886059 L106.27543,-21.53867 L106.382126,-21.196793 L106.48883,-20.860342 L106.595535,-20.529232 L106.70223,-20.203379 L106.80894,-19.882698 L106.91564,-19.567106 L107.02234,-19.256523 L107.12904,-18.95087 L107.23575,-18.65007 L107.342445,-18.354042 L107.44915,-18.062716 L107.555855,-17.77601 L107.66255,-17.493858 L107.76926,-17.216185 L107.87596,-16.942917 L107.98266,-16.673986 L108.08936,-16.409327 L108.19607,-16.148867 L108.302765,-15.892541 L108.40947,-15.640284 L108.516174,-15.392031 L108.62287,-15.147717 L108.729576,-14.907283 L108.83628,-14.670664 L108.94298,-14.437801 L109.04968,-14.208634 L109.15639,-13.983106 L109.263084,-13.761156 L109.36979,-13.54273 L109.476494,-13.32777 L109.58319,-13.116223 L109.689896,-12.908033 L109.7966,-12.703148 L109.9033,-12.501515 L110.01,-12.303082 L110.11671,-12.1078 L110.22341,-11.915617 L110.33011,-11.726484 L110.43681,-11.540353 L110.54352,-11.357177 L110.650215,-11.176908 L110.75692,-10.9995 L110.863625,-10.824909 L110.97032,-10.653089 L111.07703,-10.483995 L111.18373,-10.317587 L111.29043,-10.153819 L111.39713,-9.99265 L111.50384,-9.834041 L111.610535,-9.677948 L111.71724,-9.524333 L111.823944,-9.373156 L111.93064,-9.224379 L112.037346,-9.077963 L112.14405,-8.933871 L112.25075,-8.792068 L112.35745,-8.6525135 L112.46416,-8.515175 L112.570854,-8.380016 L112.67756,-8.247003 L112.78426,-8.116101 L112.89096,-7.9872766 L112.997665,-7.860497 L113.10437,-7.73573 L113.21107,-7.612943 L113.31777,-7.4921055 L113.42448,-7.3731856 L113.53117,-7.2561536 L113.63788,-7.140979 L113.74458,-7.027632 L113.85128,-47.151897 L113.957985,-46.403473 L114.06469,-85.96799 L114.17139,-84.60345 L114.27809,-83.26057 L114.384796,-81.938995 L114.4915,-80.638405 L114.5982,-79.35846 L114.7049,-78.09882 L114.81161,-76.85919 L114.918304,-75.63923 L115.02501,-74.43863 L115.131714,-73.25709 L115.23841,-72.0943 L115.345116,-70.949974 L115.45182,-69.82381 L115.55852,-68.715515 L115.66522,-67.62482 L115.77193,-66.55143 L115.878624,-65.49508 L115.98533,-64.4555 L116.09203,-63.432415 L116.19873,-62.425575 L116.305435,-61.43471 L116.41214,-60.45958 L116.51884,-59.499924 L116.62554,-58.5555 L116.73225,-57.62607 L116.83894,-56.711388 L116.94565,-55.811226 L117.05235,-54.92535 L117.15905,-54.05354 L117.265755,-53.195564 L117.37246,-52.351208 L117.47916,-51.520256 L117.58586,-50.70249 L117.692566,-49.897705 L117.79926,-49.105694 L117.90597,-48.326256 L118.01267,-47.55919 L118.11937,-46.8043 L118.226074,-46.061386 L118.33278,-85.634575 L118.439476,-84.27532 L118.54618,-82.93765 L118.652885,-81.62121 L118.75959,-80.32566 L118.86629,-79.050674 L118.97299,-77.79593 L119.0797,-76.5611 L119.18639,-75.34587 L119.2931,-74.149925 L119.3998,-72.97297 L119.5065,-71.8147 L119.613205,-70.674805 L119.71991,-69.553 L119.82661,-68.44901 L119.93331,-67.36254 L120.040016,-66.29332 L120.14671,-65.241066 L120.25342,-64.20551 L120.36012,-63.1864 L120.46682,-62.183464 L120.573524,-61.196445 L120.68023,-60.225094 L120.78693,-59.26916 L120.89363,-58.3284 L121.000336,-57.402573 L121.10703,-56.49144 L121.21374,-55.59477 L121.32044,-54.71233 L121.42714,-53.8439 L121.533844,-52.989254 L121.64055,-52.14817 L121.747246,-51.32044 L121.85395,-50.505848 L121.960655,-49.704185 L122.06735,-48.915245 L122.17406,-48.13883 L122.28076,-47.374737 L122.38746,-46.622772 L122.49416,-45.882744 L122.60087,-45.15446 L122.70757,-44.43774 L122.81427,-43.732395 L122.920975,-43.038242 L123.02768,-42.35511 L123.13438,-41.682823 L123.24108,-41.021206 L123.347786,-40.370087 L123.45448,-39.729305 L123.56119,-39.098698 L123.66789,-38.478096 L123.77459,-37.867344 L123.881294,-37.26629 L123.988,-36.67477 L124.094696,-36.092644 L124.2014,-35.519756 L124.308105,-34.955963 L124.4148,-34.40112 L124.52151,-33.855083 L124.62821,-33.31771 L124.73491,-32.788868 L124.84161,-32.26842 L124.94832,-31.756235 L125.055016,-31.25218 L125.16172,-30.756123 L125.268425,-30.26794 L125.37512,-29.787508 L125.48183,-29.314701 L125.58853,-28.849398 L125.69523,-28.39148 L125.80193,-27.940832 L125.90864,-27.497335 L126.015335,-27.060879 L126.12204,-26.63135 L126.228745,-26.20864 L126.33544,-25.792639 L126.44215,-25.38324 L126.54885,-24.98034 L126.65555,-24.583836 L126.76225,-24.193624 L126.86896,-23.809607 L126.97566,-23.431684 L127.08236,-23.05976 L127.189064,-22.693739 L127.29577,-22.333529 L127.402466,-21.979036 L127.50917,-21.63017 L127.615875,-21.286842 L127.72257,-20.948963 L127.82928,-20.616446 L127.93598,-20.289207 L128.04268,-19.967163 L128.14938,-19.65023 L128.25609,-19.33833 L128.3628,-19.031378 L128.46948,-18.7293 L128.57619,-18.432014 L128.68289,-18.13945 L128.7896,-17.851528 L128.8963,-17.568176 L129.003,-17.289322 L129.10971,-17.014894 L129.2164,-16.744823 L129.3231,-16.479038 L129.42981,-16.21747 L129.53651,-15.960056 L129.64322,-15.706727 L129.74992,-15.457419 L129.85661,-15.212069 L129.96332,-14.970613 L130.07002,-14.732988 L130.17673,-14.499137 L130.28343,-14.268996 L130.39014,-14.042509 L130.49683,-13.819617 L130.60353,-13.600263 L130.71024,-13.38439 L130.81694,-13.171944 L130.92365,-12.96287 L131.03035,-12.757114 L131.13704,-12.554625 L131.24374,-12.35535 L131.35045,-12.159237 L131.45715,-11.966237 L131.56386,-11.7763 L131.67056,-11.589379 L131.77725,-11.405425 L131.88396,-11.22439 L131.99066,-11.046229 L132.09737,-10.870895 L132.20407,-10.698345 L132.31078,-10.528534 L132.41747,-10.361418 L132.52417,-10.196955 L132.63087,-10.035102 L132.73758,-9.875817 L132.84428,-9.719062 L132.95099,-9.564795 L133.0577,-9.412975 L133.16438,-9.263566 L133.27109,-9.1165285 L133.37779,-8.971825 L133.4845,-8.829418 L133.5912,-8.689272 L133.6979,-8.55135 L133.8046,-8.415617 L133.9113,-8.282039 L134.018,-8.15058 L134.12471,-8.021209 L134.23141,-7.8938904 L134.33812,-7.7685933 L134.44481,-7.645285 L134.55151,-7.523934 L134.65822,-7.4045086 L134.76492,-7.286979 L134.87163,-7.1713157 L134.97833,-7.0574875 L135.08502,-6.945466 L135.19173,-6.835223 L135.29843,-6.72673 L135.40514,-6.6199584 L135.51184,-6.514882 L135.61855,-6.4114733 L135.72523,-6.309706 L135.83194,-6.209554 L135.93864,-6.110992 L136.04535,-6.013994 L136.15205,-5.9185357 L136.25876,-5.824593 L136.36545,-5.732141 L136.47215,-45.738712 L136.57886,-45.01272 L136.68556,-44.298244 L136.79227,-43.59511 L136.89897,-42.90314 L137.00566,-42.222153 L137.11237,-41.551975 L137.21907,-40.892433 L137.32578,-40.243362 L137.43248,-39.60459 L137.53918,-38.97596 L137.64589,-38.357307 L137.75258,-37.748474 L137.85928,-37.149303 L137.96599,-76.631325 L138.0727,-75.41498 L138.1794,-74.21794 L138.2861,-73.0399 L138.39279,-71.88056 L138.4995,-70.739624 L138.6062,-69.6168 L138.7129,-68.511795 L138.81961,-67.42433 L138.92632,-66.354126 L139.033,-65.3009 L139.13971,-64.264404 L139.24641,-63.244358 L139.35312,-62.2405 L139.45982,-61.252575 L139.56653,-60.280334 L139.67322,-59.323524 L139.77992,-58.3819 L139.88663,-57.455223 L139.99333,-56.543255 L140.10004,-55.645763 L140.20674,-54.762516 L140.31343,-53.893288 L140.42014,-53.037857 L140.52684,-52.196003 L140.63354,-51.36751 L140.74025,-50.552174 L140.84695,-49.749775 L140.95364,-48.96011 L141.06035,-88.33957 L141.16705,-86.937386 L141.27376,-85.55746 L141.38046,-84.19943 L141.48717,-82.86296 L141.59387,-81.5477 L141.70056,-80.25332 L141.80727,-78.979485 L141.91397,-77.72587 L142.02068,-76.49215 L142.12738,-75.278015 L142.23409,-74.08315 L142.34077,-72.90726 L142.44748,-71.75002 L142.55418,-70.61115 L142.66089,-69.490364 L142.7676,-68.38737 L142.8743,-67.30188 L142.98099,-66.23362 L143.08769,-65.18231 L143.1944,-64.14769 L143.3011,-63.129498 L143.4078,-62.127464 L143.51451,-61.141335 L143.6212,-60.170856 L143.7279,-59.215786 L143.83461,-58.27587 L143.94131,-57.350876 L144.04802,-56.440563 L144.15472,-55.5447 L144.26141,-54.66306 L144.36812,-53.79541 L144.47482,-52.941532 L144.58153,-52.101208 L144.68823,-51.274223 L144.79494,-50.46036 L144.90163,-49.65942 L145.00833,-48.871193 L145.11504,-48.095478 L145.22174,-47.332073 L145.32845,-46.580788 L145.43515,-45.841423 L145.54185,-45.113796 L145.64854,-44.39772 L145.75525,-43.69301 L145.86195,-42.999485 L145.96866,-42.316967 L146.07536,-41.645283 L146.18207,-40.98426 L146.28876,-40.333733 L146.39546,-39.693527 L146.50217,-39.063484 L146.60887,-38.443443 L146.71558,-37.83324 L146.82228,-37.232727 L146.92897,-36.641743 L147.03568,-36.060143 L147.14238,-35.48777 L147.24908,-34.924484 L147.35579,-34.37014 L147.4625,-33.824593 L147.56918,-33.287704 L147.67589,-32.759342 L147.7826,-32.23936 L147.8893,-31.727636 L147.996,-31.224035 L148.1027,-30.728426 L148.2094,-30.240683 L148.3161,-29.760683 L148.4228,-29.2883 L148.52951,-28.823416 L148.63622,-28.365911 L148.74292,-27.915668 L148.84961,-27.472572 L148.95631,-27.036509 L149.06302,-26.607367 L149.16972,-26.185038 L149.27643,-25.769411 L149.38313,-25.36038 L149.48982,-24.957844 L149.59653,-24.561695 L149.70323,-24.171835 L149.80994,-23.788164 L149.91664,-23.410582 L150.02335,-63.463623 L150.13005,-62.456284 L150.23674,-61.464935 L150.34344,-60.489323 L150.45015,-59.529194 L150.55685,-58.584305 L150.66356,-138.14598 L150.77026,-135.95325 L150.87695,-133.7953 L150.98366,-131.67162 L151.09036,-129.58163 L151.19707,-127.52482 L151.30377,-125.500656 L151.41048,-123.50863 L151.51717,-121.54822 L151.62387,-119.61892 L151.73058,-117.720245 L151.83728,-115.85171 L151.94398,-114.01283 L152.05069,-112.20314 L152.15738,-110.42218 L152.26408,-108.66948 L152.37079,-106.94461 L152.4775,-105.24711 L152.5842,-103.57655 L152.6909,-101.93252 L152.79759,-100.314575 L152.9043,-98.72231 L153.011,-97.15533 L153.1177,-95.61321 L153.22441,-94.09557 L153.33112,-92.60203 L153.4378,-91.13218 L153.54451,-89.68567 L153.65121,-88.262115 L153.75792,-86.86116 L153.86462,-85.482445 L153.97133,-84.12561 L154.07803,-82.790306 L154.18472,-81.476204 L154.29143,-80.18296 L154.39813,-78.91024 L154.50484,-77.65772 L154.61154,-76.42509 L154.71825,-75.21201 L154.82494,-74.0182 L154.93164,-72.84333 L155.03835,-71.68711 L155.14505,-70.54925 L155.25175,-69.42944 L155.35846,-68.32741 L155.46515,-67.242874 L155.57185,-66.175545 L155.67856,-65.12516 L155.78526,-64.09145 L155.89197,-63.07415 L155.99867,-62.072994 L156.10536,-61.08773 L156.21207,-60.118103 L156.31877,-59.163868 L156.42548,-58.224777 L156.53218,-57.300594 L156.63889,-96.75992 L156.74557,-95.22408 L156.85228,-93.712616 L156.95898,-92.22515 L157.06569,-90.76129 L157.1724,-89.32066 L157.2791,-87.90291 L157.38579,-86.50765 L157.4925,-85.134544 L157.5992,-83.783226 L157.7059,-82.45336 L157.8126,-81.14461 L157.91931,-79.85663 L158.02602,-78.58909 L158.1327,-77.34167 L158.23941,-76.11405 L158.34612,-74.905914 L158.45282,-73.71696 L158.55952,-72.54687 L158.66623,-71.395355 L158.77292,-70.26212 L158.87962,-69.14687 L158.98633,-68.049324 L159.09303,-66.9692 L159.19974,-65.90622 L159.30644,-64.860115 L159.41313,-63.83061 L159.51984,-62.817448 L159.62654,-61.820366 L159.73325,-60.83911 L159.83995,-59.873432 L159.94666,-58.92308 L160.05334,-57.987812 L160.16005,-57.06739 L160.26675,-56.16158 L160.37346,-55.27014 L160.48016,-54.392857 L160.58687,-53.5295 L160.69356,-52.67984 L160.80026,-51.84367 L160.90697,-51.02077 L161.01367,-50.210938 L161.12038,-49.413956 L161.22708,-48.629623 L161.33377,-47.85774 L161.44048,-47.09811 L161.54718,-46.350536 L161.65388,-45.61483 L161.76059,-44.8908 L161.8673,-44.17826 L161.97398,-43.477036 L162.08069,-42.786938 L162.1874,-42.107796 L162.2941,-41.43943 L162.4008,-40.781677 L162.5075,-40.13436 L162.61421,-39.497322 L162.7209,-38.87039 L162.8276,-38.253414 L162.93431,-37.646233 L163.04102,-37.048683 L163.14772,-36.460625 L163.25443,-35.881893 L163.36111,-35.312355 L163.46782,-34.75185 L163.57452,-34.200245 L163.68123,-33.6574 L163.78793,-33.123165 L163.89464,-32.597412 L164.00133,-32.08 L164.10803,-31.570807 L164.21474,-31.069693 L164.32144,-30.576534 L164.42815,-30.091202 L164.53485,-69.99866 L164.64154,-68.88759 L164.74825,-67.79416 L164.85495,-66.71808 L164.96165,-65.65909 L165.06836,-64.6169 L165.17506,-63.59126 L165.28175,-62.581894 L165.38846,-61.58855 L165.49516,-60.610977 L165.60187,-59.64892 L165.70857,-58.70213 L165.81528,-57.77037 L165.92197,-56.853397 L166.02867,-55.950985 L166.13538,-55.062893 L166.24208,-54.188896 L166.34879,-53.328773 L166.45549,-52.482304 L166.5622,-51.649265 L166.66888,-50.829456 L166.77559,-50.022655 L166.8823,-49.22866 L166.989,-48.44727 L167.0957,-47.678284 L167.20241,-46.9215 L167.3091,-46.17673 L167.4158,-45.443783 L167.5225,-44.72247 L167.62921,-44.012604 L167.73592,-43.314003 L167.84262,-42.626495 L167.94931,-41.949898 L168.05602,-41.284042 L168.16272,-40.628754 L168.26942,-39.983864 L168.37613,-39.349213 L168.48283,-38.724636 L168.58952,-38.109974 L168.69623,-37.505066 L168.80293,-36.90976 L168.90964,-36.323902 L169.01634,-35.747345 L169.12305,-35.17994 L169.22974,-34.62154 L169.33644,-34.072002 L169.44315,-33.53119 L169.54985,-32.99896 L169.65656,-32.475178 L169.76326,-31.95971 L169.86995,-31.452423 L169.97665,-30.953188 L170.08336,-30.461878 L170.19006,-29.978367 L170.29677,-29.50253 L170.40347,-29.034245 L170.51018,-28.573395 L170.61687,-28.119858 L170.72357,-27.673521 L170.83028,-27.234268 L170.93698,-26.801987 L171.04369,-26.376568 L171.15039,-25.957901 L171.25708,-25.54588 L171.36378,-25.140398 L171.47049,-24.741352 L171.5772,-24.34864 L171.6839,-23.962162 L171.7906,-23.581818 L171.8973,-23.207512 L172.004,-22.839146 L172.1107,-22.476627 L172.2174,-22.119864 L172.32411,-21.768763 L172.43082,-21.423233 L172.5375,-21.083189 L172.64421,-20.748543 L172.75092,-20.419209 L172.85762,-20.0951 L172.96432,-19.776136 L173.07103,-19.462236 L173.17772,-19.153318 L173.28442,-18.849304 L173.39113,-18.550116 L173.49783,-18.255674 L173.60454,-17.965908 L173.71124,-17.680742 L173.81793,-17.4001 L173.92464,-17.123915 L174.03134,-16.852112 L174.13805,-16.584623 L174.24475,-16.321383 L174.35146,-16.062317 L174.45815,-15.807365 L174.56485,-15.55646 L174.67155,-15.309538 L174.77826,-15.066534 L174.88496,-14.827388 L174.99167,-14.592037 L175.09837,-14.360423 L175.20506,-14.132484 L175.31177,-13.908164 L175.41847,-13.687405 L175.52518,-13.470148 L175.63188,-13.256341 L175.73859,-13.045927 L175.84528,-12.838854 L175.95198,-12.635067 L176.05869,-12.434514 L176.16539,-12.237145 L176.2721,-12.042909 L176.3788,-11.851755 L176.48549,-11.663636 L176.5922,-11.478503 L176.6989,-51.31093 L176.8056,-50.496483 L176.91231,-49.69497 L177.01901,-48.906178 L177.1257,-48.129906 L177.2324,-47.365955 L177.33911,-46.614132 L177.44582,-45.87424 L177.55252,-45.14609 L177.65923,-44.429504 L177.76591,-43.72429 L177.87262,-43.030266 L177.97932,-42.34726 L178.08603,-41.675095 L178.19273,-41.0136 L178.29944,-40.362606 L178.40613,-39.721943 L178.51283,-39.09145 L178.61954,-38.470963 L178.72624,-37.860325 L178.83295,-37.25938 L178.93965,-36.667973 L179.04636,-36.085953 L179.15305,-35.513172 L179.25975,-34.949486 L179.36646,-34.39474 L179.47316,-33.848804 L179.57986,-33.311535 L179.68657,-32.78279 L179.79326,-32.26244 L179.89996,-31.750349 L180.00667,-31.246386 L180.11337,-30.750422 L180.22008,-30.262331 L180.32678,-29.781986 L180.43347,-29.309267 L180.54018,-28.84405 L180.64688,-28.386217 L180.75359,-27.935652 L180.86029,-27.492239 L180.967,-27.055862 L181.07368,-26.626413 L181.18039,-26.203781 L181.2871,-25.787857 L181.3938,-25.378534 L181.5005,-24.97571 L181.60721,-24.579277 L181.7139,-24.189138 L181.8206,-23.805193 L181.9273,-23.42734 L182.03401,-23.055485 L182.14072,-22.689533 L182.24742,-22.32939 L182.35411,-21.974962 L182.46082,-21.62616 L182.56752,-21.282896 L182.67422,-20.94508 L182.78093,-20.612625 L182.88763,-20.285446 L182.99434,-19.963463 L183.10103,-19.64659 L183.20773,-19.334745 L183.31444,-19.027851 L183.42114,-18.725828 L183.52785,-18.428598 L183.63455,-18.136087 L183.74124,-17.848219 L183.84795,-17.56492 L183.95465,-17.286118 L184.06136,-17.01174 L184.16806,-16.741718 L184.27477,-16.475983 L184.38145,-16.214464 L184.48816,-15.957098 L184.59486,-15.703815 L184.70157,-15.454554 L184.80827,-15.209249 L184.91498,-14.967837 L185.02167,-14.730258 L185.12837,-14.4964485 L185.23508,-14.266352 L185.34178,-14.0399065 L185.44849,-13.817056 L185.55519,-13.597742 L185.66188,-13.381909 L185.76859,-13.169502 L185.87529,-12.960467 L185.982,-12.754749 L186.0887,-12.552298 L186.1954,-12.353059 L186.3021,-12.156982 L186.4088,-11.964019 L186.5155,-11.774117 L186.62221,-11.587231 L186.72891,-11.403311 L186.83562,-11.222309 L186.9423,-11.044182 L187.04901,-10.86888 L187.15572,-10.6963625 L187.26242,-10.526583 L187.36913,-10.359497 L187.47583,-10.195065 L187.58253,-10.033241 L187.68922,-9.873987 L187.79593,-9.71726 L187.90263,-49.973076 L188.00934,-49.17987 L188.11604,-48.399254 L188.22275,-47.631027 L188.32944,-46.874996 L188.43614,-46.130962 L188.54285,-45.398743 L188.64955,-44.678143 L188.75626,-43.96898 L188.86296,-43.271072 L188.96965,-42.584248 L189.07635,-41.90832 L189.18306,-41.243122 L189.28976,-40.58848 L189.39647,-39.944237 L189.50317,-39.310215 L189.60986,-38.686256 L189.71657,-38.0722 L189.82327,-37.46789 L189.92998,-36.873177 L190.03668,-36.2879 L190.14339,-35.711914 L190.25008,-35.14507 L190.35678,-34.587223 L190.46349,-34.03823 L190.57019,-33.497955 L190.6769,-32.96625 L190.7836,-32.44299 L190.89029,-31.928032 L190.997,-31.42125 L191.1037,-30.922508 L191.2104,-30.431686 L191.31711,-29.948654 L191.42381,-29.473288 L191.53052,-29.005468 L191.6372,-28.545074 L191.74391,-28.091988 L191.85062,-27.646091 L191.95732,-27.207273 L192.06403,-26.775421 L192.17073,-26.350424 L192.27742,-25.932173 L192.38412,-25.52056 L192.49083,-25.11548 L192.59753,-24.71683 L192.70424,-24.324507 L192.81094,-23.938412 L192.91763,-23.558445 L193.02434,-23.18451 L193.13104,-22.81651 L193.23775,-22.45435 L193.34445,-22.09794 L193.45116,-21.747187 L193.55785,-21.402 L193.66455,-21.062292 L193.77126,-20.727978 L193.87796,-20.39897 L193.98466,-20.075182 L194.09137,-19.756536 L194.19806,-19.442947 L194.30476,-19.134335 L194.41147,-18.830622 L194.51817,-18.531729 L194.62488,-18.237581 L194.73158,-17.948101 L194.83827,-17.663218 L194.94498,-17.382854 L195.05168,-17.106943 L195.15839,-57.106796 L195.26509,-56.200356 L195.3718,-55.308308 L195.4785,-54.430416 L195.58519,-53.56646 L195.6919,-52.716217 L195.7986,-51.879467 L195.9053,-51.056004 L196.01201,-50.245605 L196.11871,-49.448074 L196.2254,-48.6632 L196.3321,-47.890785 L196.43881,-47.13063 L196.54552,-46.38254 L196.65222,-45.646324 L196.75893,-44.921795 L196.86562,-44.208767 L196.97232,-43.507053 L197.07903,-42.816483 L197.18573,-42.136868 L197.29243,-41.468044 L197.39914,-40.809834 L197.50583,-40.162075 L197.61253,-39.524593 L197.71924,-38.897232 L197.82594,-38.27983 L197.93265,-37.672226 L198.03935,-37.07427 L198.14604,-76.847145 L198.25275,-115.74498 L198.35945,-113.9078 L198.46616,-112.09978 L198.57286,-110.32045 L198.67957,-108.56937 L198.78625,-106.846085 L198.89296,-105.15015 L198.99966,-103.48113 L199.10637,-101.83861 L199.21307,-100.22216 L199.31978,-98.63136 L199.42647,-97.06582 L199.53317,-95.52512 L199.63988,-94.00889 L199.74658,-92.516716 L199.85329,-91.048225 L199.95999,-89.60304 L200.0667,-88.18081 L200.17339,-86.78114 L200.28009,-85.403694 L200.3868,-84.0481 L200.4935,-82.714035 L200.6002,-81.401146 L200.70691,-80.109085 L200.8136,-78.83754 L200.9203,-77.58618 L201.02701,-76.35468 L201.13371,-75.14272 L201.24042,-73.95001 L201.34712,-72.77622 L201.45381,-71.62107 L201.56052,-70.48425 L201.66722,-69.36548 L201.77393,-68.264465 L201.88063,-67.18092 L201.98734,-66.11458 L202.09402,-65.06516 L202.20073,-64.03241 L202.30743,-63.01604 L202.41414,-62.01581 L202.52084,-61.031452 L202.62755,-60.062717 L202.73424,-59.109364 L202.84094,-58.17114 L202.94765,-57.247807 L203.05435,-56.33913 L203.16106,-55.444878 L203.26776,-94.84938 L203.37445,-93.343864 L203.48116,-91.86225 L203.58786,-90.40415 L203.69456,-88.96919 L203.80127,-87.557014 L203.90797,-86.16725 L204.01468,-84.799545 L204.12137,-83.45355 L204.22807,-82.128914 L204.33478,-80.82531 L204.44148,-79.5424 L204.54819,-78.27985 L204.65489,-77.03734 L204.76158,-75.814545 L204.86829,-74.61117 L204.97499,-73.42689 L205.0817,-72.261406 L205.1884,-71.114426 L205.2951,-69.98565 L205.4018,-68.87479 L205.5085,-67.78156 L205.6152,-66.70568 L205.72191,-65.64689 L205.82861,-64.6049 L205.93532,-63.57944 L206.042,-62.570267 L206.14871,-61.577106 L206.25542,-60.599712 L206.36212,-59.637833 L206.46883,-58.691223 L206.57553,-57.759636 L206.68222,-56.842834 L206.78893,-55.940586 L206.89563,-55.052658 L207.00233,-54.178825 L207.10904,-53.318863 L207.21574,-52.47255 L207.32243,-51.63967 L207.42914,-50.82001 L207.53584,-90.143105 L207.64255,-88.712296 L207.74925,-87.30419 L207.85596,-85.91844 L207.96266,-84.55469 L208.06935,-83.21258 L208.17606,-81.89177 L208.28276,-80.59193 L208.38947,-79.31271 L208.49617,-78.05381 L208.60287,-76.81489 L208.70956,-75.59563 L208.81627,-114.42569 L208.92297,-112.60945 L209.02968,-110.82204 L209.13638,-109.062996 L209.24309,-107.33187 L209.34978,-105.62823 L209.45648,-103.95162 L209.56319,-102.301636 L209.66989,-100.67783 L209.7766,-99.0798 L209.8833,-97.50714 L209.98999,-95.95944 L210.0967,-94.43631 L210.2034,-92.937355 L210.3101,-91.46219 L210.41681,-90.01044 L210.52351,-88.58173 L210.6302,-87.175705 L210.73691,-85.79199 L210.84361,-84.430244 L210.95032,-83.09011 L211.05702,-81.77125 L211.16373,-80.47331 L211.27042,-79.19599 L211.37712,-77.938934 L211.48383,-76.701836 L211.59053,-75.484375 L211.69724,-74.28623 L211.80394,-73.10711 L211.91063,-71.94671 L212.01733,-70.80472 L212.12404,-69.680855 L212.23074,-68.57484 L212.33745,-67.48637 L212.44415,-66.41518 L212.55086,-65.36099 L212.65755,-64.32354 L212.76425,-63.30255 L212.87096,-62.29777 L212.97766,-61.308937 L213.08437,-60.3358 L213.19107,-59.37811 L213.29776,-58.43562 L213.40446,-57.50809 L213.51117,-56.595284 L213.61787,-55.696964 L213.72458,-54.812904 L213.83128,-53.942875 L213.93797,-53.08666 L214.04468,-52.24403 L214.15138,-51.41478 L214.25809,-50.598686 L214.36479,-49.79555 L214.4715,-49.00516 L214.57819,-48.227318 L214.68489,-47.461823 L214.7916,-46.708477 L214.8983,-45.967087 L215.005,-45.237465 L215.11171,-44.51943 L215.2184,-43.812782 L215.3251,-43.11736 L215.43181,-82.826065 L215.53851,-81.5114 L215.64522,-80.21759 L215.75192,-78.94432 L215.85861,-77.69127 L215.96532,-76.4581 L216.07202,-75.2445 L216.17873,-74.05017 L216.28543,-72.874794 L216.39214,-71.71808 L216.49884,-70.57972 L216.60553,-69.45943 L216.71223,-68.356926 L216.81894,-67.27192 L216.92564,-66.20413 L217.03235,-65.15329 L217.13905,-64.11913 L217.24574,-63.101395 L217.35245,-62.099804 L217.45915,-61.114113 L217.56586,-60.14407 L217.67256,-59.189423 L217.77927,-58.249928 L217.88596,-57.325344 L217.99266,-56.41544 L218.09937,-55.519974 L218.20607,-54.63872 L218.31277,-53.77146 L218.41948,-52.917965 L218.52617,-52.078014 L218.63287,-51.251396 L218.73958,-50.4379 L218.84628,-49.637314 L218.95299,-48.849438 L219.0597,-48.074066 L219.16638,-47.311 L219.27309,-46.560047 L219.37979,-45.821014 L219.4865,-45.09371 L219.5932,-44.377956 L219.6999,-43.673557 L219.8066,-83.142784 L219.9133,-81.82308 L220.02,-80.52433 L220.12671,-79.24619 L220.23341,-77.98835 L220.34012,-76.750465 L220.44682,-75.53223 L220.55351,-74.33333 L220.66022,-113.170715 L220.76692,-151.55516 L220.87363,-149.14957 L220.98033,-146.78217 L221.08704,-144.45233 L221.19373,-182.47923 L221.30043,-179.58281 L221.40714,-176.73235 L221.51384,-173.92712 L221.62054,-171.16644 L221.72725,-168.44957 L221.83394,-165.77582 L221.94064,-163.14452 L222.04735,-160.55498 L222.15405,-158.00653 L222.26076,-155.49855 L222.36746,-153.03036 L222.47415,-150.60136 L222.58086,-188.42741 L222.68756,-185.43657 L222.79427,-182.4932 L222.90097,-179.59654 L223.00768,-176.74586 L223.11436,-173.94043 L223.22107,-171.17953 L223.32777,-168.46245 L223.43448,-165.7885 L223.54118,-163.157 L223.64789,-160.56726 L223.75458,-158.01862 L223.86128,-155.51044 L223.96799,-153.04207 L224.07469,-150.61288 L224.1814,-148.22226 L224.2881,-145.86957 L224.39479,-143.55423 L224.5015,-141.27563 L224.6082,-139.03322 L224.7149,-136.82639 L224.82161,-134.65459 L224.92831,-132.51726 L225.03502,-130.41385 L225.14171,-128.34384 L225.24841,-126.30668 L225.35512,-124.30185 L225.46182,-122.32885 L225.56853,-120.38716 L225.67523,-159.00334 L225.78192,-156.47954 L225.88863,-153.99579 L225.99533,-151.55147 L226.10204,-149.14594 L226.20874,-146.7786 L226.31544,-144.44882 L226.42213,-142.15604 L226.52884,-139.89963 L226.63554,-137.67905 L226.74225,-135.49371 L226.84895,-133.34306 L226.95566,-131.22656 L227.06235,-129.14365 L227.16905,-127.09378 L227.27576,-125.07646 L227.38246,-123.09116 L227.48917,-121.13738 L227.59587,-119.21461 L227.70256,-117.32235 L227.80927,-115.46013 L227.91597,-113.627464 L228.02267,-111.82389 L228.12938,-110.04895 L228.23608,-108.30218 L228.34277,-106.58313 L228.44948,-104.89137 L228.55618,-103.22646 L228.66289,-101.58798 L228.76959,-99.97551 L228.8763,-98.38863 L228.983,-96.82694 L229.08969,-95.29004 L229.1964,-93.77753 L229.3031,-92.28903 L229.4098,-90.82416 L229.51651,-89.38253 L229.62321,-87.96379 L229.7299,-86.56757 L229.83661,-85.19351 L229.94331,-123.92747 L230.05002,-121.96041 L230.15672,-120.024574 L230.26343,-118.11946 L230.37012,-116.24459 L230.47682,-114.399475 L230.58353,-112.58365 L230.69023,-110.796646 L230.79694,-109.038 L230.90364,-107.30728 L231.01033,-105.60403 L231.11703,-103.9278 L231.22374,-102.27819 L231.33044,-100.65476 L231.43715,-99.057106 L231.54385,-97.4848 L231.65054,-95.937454 L231.75725,-94.41467 L231.86395,-92.91606 L231.97066,-91.44123 L232.07736,-89.989815 L232.18407,-88.56143 L232.29076,-87.15572 L232.39746,-85.77233 L232.50417,-84.4109 L232.61087,-83.07107 L232.71758,-81.75251 L232.82428,-80.45488 L232.93098,-79.17784 L233.03767,-77.921074 L233.14438,-76.68426 L233.25108,-75.46708 L233.35779,-74.26921 L233.4645,-73.09036 L233.5712,-71.93022 L233.67789,-70.7885 L233.78459,-69.664894 L233.8913,-68.55912 L233.998,-67.47091 L234.1047,-66.39996 L234.21141,-65.346016 L234.3181,-64.3088 L234.4248,-63.288048 L234.53151,-62.283497 L234.63821,-61.29489 L234.74492,-60.321976 L234.85162,-59.364506 L234.95831,-58.42223 L235.06502,-57.494915 L235.17172,-56.582314 L235.27843,-55.6842 L235.38513,-54.800346 L235.49184,-53.930515 L235.59853,-53.074493 L235.70523,-52.23206 L235.81194,-51.402996 L235.91864,-50.587093 L236.02534,-49.78414 L236.13205,-48.993935 L236.23874,-48.216267 L236.34544,-87.990585 L236.45215,-86.59394 L236.55885,-85.21946 L236.66556,-83.8668 L236.77226,-82.53561 L236.87895,-81.22555 L236.98566,-79.93628 L237.09236,-78.66748 L237.19907,-77.418816 L237.30577,-76.18997 L237.41248,-74.98063 L237.51918,-73.79049 L237.62587,-72.61923 L237.73257,-71.466576 L237.83928,-70.33221 L237.94598,-69.21584 L238.05269,-68.1172 L238.1594,-67.036 L238.26608,-65.97196 L238.37279,-105.20253 L238.47949,-103.532684 L238.5862,-101.88934 L238.6929,-100.27209 L238.7996,-98.6805 L238.9063,-97.114174 L239.013,-95.57271 L239.1197,-94.05572 L239.22641,-92.5628 L239.33311,-91.09358 L239.43982,-89.64768 L239.54651,-88.22473 L239.65321,-86.82437 L239.75992,-125.570694 L239.86662,-123.57755 L239.97333,-121.61604 L240.08003,-119.68567 L240.18672,-117.78594 L240.29343,-115.91636 L240.40013,-114.076454 L240.50684,-112.26576 L240.61354,-110.4838 L240.72025,-108.730125 L240.82693,-107.00429 L240.93364,-105.30584 L241.04034,-103.63435 L241.14705,-101.9894 L241.25375,-100.37056 L241.36046,-98.777405 L241.46716,-97.20954 L241.57385,-95.66657 L241.68056,-134.17755 L241.78726,-132.04779 L241.89397,-129.95184 L242.00067,-127.88915 L242.10738,-125.859215 L242.21407,-123.86149 L242.32077,-121.89548 L242.42747,-119.96067 L242.53418,-118.05657 L242.64088,-116.18269 L242.74759,-114.33856 L242.85428,-112.523705 L242.96098,-110.737656 L243.06769,-108.97995 L243.1744,-107.250145 L243.2811,-105.5478 L243.3878,-103.872475 L243.49449,-102.22374 L243.6012,-100.60117 L243.7079,-99.004364 L243.8146,-97.4329 L243.92131,-95.886375 L244.02802,-94.3644 L244.1347,-92.866585 L244.24141,-91.39255 L244.34811,-89.9419 L244.45482,-88.51428 L244.56152,-87.10932 L244.66823,-85.72666 L244.77492,-84.36595 L244.88162,-83.02684 L244.98833,-81.708984 L245.09503,-80.41204 L245.20174,-79.13569 L245.30844,-77.87959 L245.41515,-76.64343 L245.52184,-75.426895 L245.62854,-74.22967 L245.73524,-73.051445 L245.84195,-71.89192 L245.94865,-70.75081 L246.05536,-69.6278 L246.16205,-68.52262 L246.26875,-67.43498 L246.37546,-66.36461 L246.48216,-65.311226 L246.58887,-64.27456 L246.69557,-63.254353 L246.80226,-62.250336 L246.90897,-61.262257 L247.01567,-60.28986 L247.12238,-59.332897 L247.22908,-58.391125 L247.33578,-57.464302 L247.44247,-56.55219 L247.54918,-55.654556 L247.65588,-54.771168 L247.76259,-53.901802 L247.8693,-53.046238 L247.976,-52.20425 L248.08269,-51.37563 L248.18939,-50.56016 L248.2961,-49.757633 L248.4028,-48.96785 L248.5095,-48.190598 L248.61621,-87.415825 L248.7229,-86.028305 L248.8296,-84.6628 L248.93631,-83.31898 L249.04301,-81.99648 L249.14972,-80.69498 L249.25642,-79.41413 L249.36313,-78.15362 L249.46982,-76.91311 L249.57652,-75.69229 L249.68323,-74.49085 L249.78993,-73.30849 L249.89664,-72.14488 L250.00334,-70.99975 L250.11003,-69.872795 L250.21674,-68.763725 L250.32344,-108.14234 L250.43015,-106.425835 L250.53685,-104.73657 L250.64355,-103.07412 L250.75024,-101.43806 L250.85695,-99.827965 L250.96365,-98.24343 L251.07036,-96.684044 L251.17706,-95.14941 L251.28377,-93.63913 L251.39046,-92.152824 L251.49716,-90.69012 L251.60387,-89.25062 L251.71057,-87.83397 L251.81728,-86.43981 L251.92398,-85.06778 L252.03067,-83.71753 L252.13737,-82.3887 L252.24408,-121.37597 L252.35078,-119.4494 L252.45749,-117.55342 L252.5642,-156.13934 L252.67088,-153.661 L252.77759,-151.22198 L252.8843,-148.82169 L252.991,-146.45949 L253.0977,-144.13478 L253.2044,-141.84698 L253.3111,-139.59549 L253.4178,-137.37973 L253.5245,-135.19914 L253.63121,-133.05318 L253.73792,-130.94127 L253.84462,-128.86287 L253.95132,-126.817474 L254.05801,-124.80454 L254.16472,-122.82356 L254.27142,-120.87402 L254.37813,-118.95543 L254.48483,-117.06728 L254.59154,-115.209114 L254.69823,-113.38044 L254.80493,-111.58079 L254.91164,-109.8097 L255.01834,-108.06673 L255.12505,-106.35142 L255.23175,-104.66333 L255.33844,-103.002045 L255.44514,-101.36713 L255.55185,-140.08585 L255.65855,-137.8623 L255.76526,-135.67407 L255.87196,-133.52055 L255.97865,-131.40123 L256.08536,-129.31554 L256.19208,-127.262955 L256.29877,-125.24295 L256.40546,-123.255005 L256.51218,-121.29862 L256.61887,-119.37328 L256.7256,-117.47851 L256.83228,-115.613815 L256.93896,-113.77871 L257.0457,-111.97274 L257.15237,-110.195435 L257.2591,-108.446335 L257.36578,-106.725 L257.4725,-105.03099 L257.5792,-103.36387 L257.68588,-101.723206 L257.7926,-100.10858 L257.8993,-98.51959 L258.006,-96.955826 L258.1127,-95.41687 L258.21942,-93.90235 L258.3261,-92.41187 L258.4328,-90.945045 L258.53952,-89.5015 L258.6462,-88.08088 L258.75293,-86.68279 L258.85962,-85.30691 L258.9663,-83.95286 L259.07303,-82.6203 L259.17972,-81.3089 L259.28644,-80.0183 L259.39313,-78.7482 L259.49985,-77.49825 L259.60654,-76.26815 L259.71323,-75.05757 L259.81995,-73.8662 L259.92664,-72.69375 L260.03336,-71.53991 L260.14005,-70.40438 L260.24673,-69.28687 L260.35345,-68.1871 L260.46014,-67.10479 L260.56686,-66.03966 L260.67355,-64.99143 L260.78027,-63.959843 L260.88696,-62.94463 L260.99365,-61.94553 L261.10037,-60.962288 L261.20706,-59.99465 L261.31378,-59.042377 L261.42047,-58.105217 L261.52716,-57.18293 L261.63388,-56.275284 L261.74057,-55.382046 L261.8473,-54.502983 L261.95398,-53.637875 L262.0607,-92.7278 L262.1674,-91.25596 L262.27408,-89.80748 L262.3808,-88.381996 L262.4875,-86.97913 L262.5942,-85.59854 L262.7009,-84.23987 L262.80762,-82.902756 L262.9143,-81.58687 L263.021,-80.29186 L263.12772,-79.01742 L263.2344,-77.7632 L263.34113,-76.528885 L263.4478,-75.31417 L263.5545,-74.11873 L263.66122,-72.94227 L263.7679,-71.78448 L263.87463,-70.645065 L263.98132,-69.52374 L264.08804,-68.42021 L264.19473,-67.3342 L264.30142,-66.26543 L264.40814,-65.213615 L264.51483,-64.178505 L264.62155,-63.159817 L264.72824,-62.1573 L264.83493,-61.170696 L264.94165,-60.199757 L265.04834,-59.244225 L265.15506,-98.28892 L265.26175,-96.728806 L265.36847,-95.19347 L265.47516,-93.68249 L265.58185,-92.195496 L265.68857,-90.73211 L265.79526,-89.29195 L265.90198,-87.87464 L266.00867,-86.479836 L266.1154,-85.10717 L266.22208,-83.75629 L266.32877,-82.42686 L266.4355,-81.118515 L266.54218,-79.83095 L266.6489,-78.56382 L266.75558,-77.3168 L266.86227,-76.08958 L266.969,-115.426865 L267.07568,-113.59473 L267.1824,-111.79168 L267.2891,-110.01724 L267.3958,-108.27097 L267.5025,-106.55242 L267.6092,-104.86115 L267.7159,-103.196724 L267.8226,-101.558716 L267.92932,-99.94671 L268.036,-98.36028 L268.1427,-96.79904 L268.24942,-95.26258 L268.3561,-93.75051 L268.46283,-92.262436 L268.56952,-90.79799 L268.67624,-89.35678 L268.78293,-87.938446 L268.88962,-86.54263 L268.99634,-85.16897 L269.10303,-83.81711 L269.20975,-82.4867 L269.31644,-81.17742 L269.42313,-79.888916 L269.52985,-78.620865 L269.63654,-77.37294 L269.74326,-76.14482 L269.84995,-74.9362 L269.95667,-73.746765 L270.06335,-72.5762 L270.17004,-71.424225 L270.27676,-70.290535 L270.38345,-69.174835 L270.49017,-68.07684 L270.59686,-66.996284 L270.70358,-65.93287 L270.81027,-105.117615 L270.91696,-103.44912 L271.02368,-101.8071 L271.13037,-100.19115 L271.2371,-98.600845 L271.34378,-97.03579 L271.45047,-95.49557 L271.5572,-93.9798 L271.66388,-92.48809 L271.7706,-91.02006 L271.8773,-89.575325 L271.984,-88.15352 L272.0907,-86.75429 L272.1974,-85.377266 L272.3041,-84.0221 L272.4108,-82.688446 L272.51752,-81.37595 L272.6242,-80.084305 L272.7309,-78.81315 L272.83762,-117.87687 L272.9443,-116.00585 L273.05103,-114.16453 L273.1577,-112.35243 L273.26443,-110.56909 L273.37112,-108.814064 L273.4778,-107.0869 L273.58453,-105.38714 L273.69122,-103.71436 L273.79794,-102.06814 L273.90463,-100.448044 L274.01132,-98.85367 L274.11804,-97.28459 L274.22473,-95.740425 L274.33145,-94.22077 L274.43814,-92.725235 L274.54486,-91.25343 L274.65155,-89.805 L274.75824,-88.379555 L274.86496,-86.97673 L274.97165,-85.596176 L275.07837,-84.23753 L275.18506,-82.90046 L275.29178,-81.58461 L275.39847,-80.28964 L275.50516,-79.01523 L275.61188,-77.76105 L275.71857,-76.52677 L275.8253,-75.31209 L275.93198,-74.116684 L276.03867,-72.940254 L276.1454,-71.78249 L276.25208,-70.64311 L276.3588,-69.52182 L276.46548,-68.41832 L276.5722,-67.33234 L276.6789,-66.263596 L276.78558,-65.211815 L276.8923,-64.17673 L276.999,-63.15807 L277.1057,-62.155582 L277.2124,-61.169006 L277.3191,-60.19809 L277.4258,-59.242584 L277.5325,-58.302246 L277.63922,-57.376835 L277.7459,-56.46611 L277.85263,-55.56984 L277.95932,-54.687798 L278.066,-53.819756 L278.17273,-52.965492 L278.27942,-52.12479 L278.38614,-51.29743 L278.49283,-50.4832 L278.59955,-49.681896 L278.70624,-48.89331 L278.81293,-48.117245 L278.91965,-47.353497 L279.02634,-46.601868 L279.13306,-45.86217 L279.23975,-45.134216 L279.34644,-44.417816 L279.45316,-43.712784 L279.55984,-43.018948 L279.66656,-42.33612 L279.77325,-41.66413 L279.87997,-41.00281 L279.98666,-40.351986 L280.09335,-39.71149 L280.20007,-39.081165 L280.30676,-38.460842 L280.41348,-37.850365 L280.52017,-37.249577 L280.62686,-36.65833 L280.73358,-36.07646 L280.84027,-35.50383 L280.947,-34.940292 L281.05368,-34.385696 L281.1604,-33.8399 L281.2671,-33.302773 L281.37378,-32.774166 L281.4805,-32.253952 L281.5872,-31.741997 L281.6939,-31.238167 L281.8006,-30.742332 L281.9073,-30.25437 L282.014,-29.77415 L282.1207,-29.301556 L282.22742,-28.836462 L282.3341,-28.37875 L282.44083,-27.928303 L282.54752,-27.485006 L282.6542,-27.048746 L282.76093,-26.61941 L282.8676,-26.196888 L282.97433,-25.781073 L283.08102,-25.371859 L283.18774,-24.96914 L283.29443,-24.572811 L283.40112,-24.182775 L283.50784,-23.79893 L283.61453,-23.421177 L283.72125,-23.049421 L283.82794,-22.683565 L283.93463,-22.323515 L284.04135,-21.969181 L284.14804,-21.620472 L284.25476,-21.277296 L284.36145,-20.93957 L284.46817,-20.607203 L284.57486,-20.280111 L284.68155,-19.95821 L284.78827,-19.64142 L284.89496,-19.329659 L285.00168,-19.022844 L285.10837,-18.720901 L285.21506,-18.42375 L285.32178,-18.131317 L285.42847,-17.843523 L285.5352,-17.560299 L285.64188,-17.28157 L285.7486,-17.007265 L285.8553,-16.737314 L285.96198,-16.47165 L286.0687,-16.2102 L286.17538,-15.9529 L286.2821,-15.699685 L286.3888,-15.450488 L286.49548,-15.205248 L286.6022,-14.9639 L286.7089,-14.726382 L286.8156,-14.492636 L286.9223,-14.262599 L287.02902,-14.036213 L287.1357,-13.81342 L287.2424,-13.594165 L287.34912,-13.378388 L287.4558,-13.166038 L287.56253,-12.957058 L287.66922,-12.751394 L287.77594,-12.548996 L287.88263,-12.34981 L287.98932,-12.153785 L288.09604,-11.960872 L288.20273,-11.771021 L288.30945,-11.584183 L288.41614,-11.4003105 L288.52283,-11.2193575 L288.62955,-11.041276 L288.73624,-10.866021 L288.84296,-10.693548 L288.94965,-10.523813 L289.05637,-10.356772 L289.16306,-10.192383 L289.26974,-10.030602 L289.37646,-9.871389 L289.48315,-9.7147045 L289.58987,-9.560506 L289.69656,-9.408755 L289.80325,-9.259413 L289.90997,-9.112441 L290.01666,-8.967802 L290.12338,-8.8254595 L290.23007,-8.685375 L290.3368,-8.547515 L290.44348,-8.411843 L290.55017,-8.278325 L290.6569,-8.146926 L290.76358,-8.017612 L290.8703,-7.890351 L290.977,-7.76511 L291.0837,-7.641857 L291.1904,-7.5205603 L291.2971,-7.401189 L291.4038,-47.629856 L291.5105,-46.87384 L291.61722,-46.12983 L291.7239,-45.397625 L291.8306,-44.67704 L291.93732,-43.967896 L292.044,-43.270008 L292.15073,-42.5832 L292.25742,-41.907288 L292.36414,-41.242107 L292.47083,-40.587486 L292.5775,-39.943253 L292.68423,-39.309246 L292.79092,-38.685303 L292.89764,-38.071262 L293.00433,-37.466972 L293.11102,-36.87227 L293.21774,-36.287006 L293.32443,-35.711037 L293.43115,-35.144207 L293.53784,-34.586372 L293.64456,-34.037395 L293.75125,-33.49713 L293.85794,-32.96544 L293.96466,-32.442192 L294.07135,-31.927246 L294.17807,-31.420475 L294.28476,-30.92175 L294.39145,-30.430937 L294.49817,-29.947916 L294.60486,-29.472563 L294.71158,-29.004755 L294.81827,-28.54437 L294.925,-28.091295 L295.03168,-27.64541 L295.13837,-27.206604 L295.2451,-26.774763 L295.35178,-26.349775 L295.4585,-25.931534 L295.5652,-25.519932 L295.6719,-25.114862 L295.7786,-24.71622 L295.88528,-24.323908 L295.992,-23.937822 L296.0987,-23.557865 L296.2054,-23.183939 L296.3121,-22.815948 L296.4188,-22.453798 L296.5255,-22.097395 L296.6322,-21.74665 L296.73892,-21.401474 L296.8456,-21.061775 L296.95233,-20.727468 L297.05902,-20.398468 L297.1657,-20.074688 L297.27243,-19.75605 L297.37912,-19.442469 L297.48584,-19.133863 L297.59253,-18.830158 L297.69922,-18.531273 L297.80594,-18.237133 L297.91263,-17.94766 L298.01935,-17.662783 L298.12604,-17.382427 L298.23276,-17.106522 L298.33945,-16.834995 L298.44614,-16.56778 L298.55286,-16.304804 L298.65955,-16.046003 L298.76627,-15.791309 L298.87296,-15.540659 L298.97964,-15.293987 L299.08636,-15.05123 L299.19305,-14.812327 L299.29977,-14.577216 L299.40646,-14.345837 L299.51318,-14.11813 L299.61987,-13.894037 L299.72656,-13.673502 L299.83328,-13.456467 L299.93997,-13.242876 L300.0467,-13.032677 L300.15338,-12.825812 L300.2601,-12.622232 L300.3668,-12.421885 L300.47348,-12.224715 L300.5802,-12.030677 L300.6869,-11.839718 L300.7936,-11.65179 L300.9003,-11.466845 L301.007,-11.284835 L301.1137,-11.105714 L301.2204,-10.929437 L301.32712,-10.755958 L301.4338,-10.585232 L301.54053,-10.417215 L301.64722,-10.251866 L301.7539,-10.089142 L301.86063,-9.929 L301.96732,-9.7714 L302.07404,-9.616302 L302.18073,-9.463665 L302.2874,-9.313452 L302.39413,-9.165622 L302.50082,-49.369938 L302.60754,-48.586304 L302.71423,-47.81511 L302.82095,-47.056156 L302.92764,-46.30925 L303.03433,-45.574196 L303.14105,-44.85081 L303.24774,-44.13891 L303.35446,-43.43831 L303.46115,-42.748825 L303.56787,-42.070286 L303.67456,-41.40252 L303.78125,-40.74535 L303.88797,-40.09861 L303.99466,-39.46214 L304.10138,-38.83577 L304.20807,-38.21934 L304.31476,-37.612698 L304.42148,-37.015682 L304.52817,-36.428146 L304.6349,-35.849934 L304.74158,-35.2809 L304.8483,-34.720898 L304.955,-34.169785 L305.06168,-33.62742 L305.1684,-33.09366 L305.2751,-32.568375 L305.3818,-32.051426 L305.4885,-31.542685 L305.59518,-31.042019 L305.7019,-30.549297 L305.8086,-30.064398 L305.9153,-29.587196 L306.022,-29.117569 L306.12872,-28.655394 L306.2354,-28.200556 L306.3421,-27.752937 L306.44882,-27.312424 L306.5555,-26.878902 L306.66223,-26.452263 L306.76892,-26.032394 L306.8756,-25.61919 L306.98233,-25.212545 L307.08902,-24.812355 L307.19574,-24.418516 L307.30243,-24.03093 L307.40915,-23.649494 L307.51584,-23.274113 L307.62253,-22.90469 L307.72925,-22.541132 L307.83594,-22.183344 L307.94266,-21.831234 L308.04935,-21.484715 L308.15607,-21.143694 L308.26276,-20.808086 L308.36945,-20.477806 L308.47617,-20.15277 L308.58286,-19.832891 L308.68958,-19.51809 L308.79626,-19.208284 L308.90295,-18.903399 L309.00967,-18.60335 L309.11636,-18.308065 L309.22308,-18.017467 L309.32977,-17.731482 L309.4365,-17.450035 L309.54318,-17.173058 L309.64987,-16.900475 L309.7566,-16.63222 L309.86328,-16.368221 L309.97,-16.108414 L310.0767,-15.85273 L310.18338,-15.601105 L310.2901,-15.353473 L310.3968,-15.109773 L310.5035,-14.86994 L310.6102,-14.633914 L310.71692,-14.401634 L310.8236,-14.173042 L310.9303,-13.948078 L311.03702,-13.726685 L311.1437,-13.508805 L311.25043,-13.294384 L311.35712,-13.083366 L311.4638,-12.875699 L311.57053,-12.671327 L311.67722,-12.470199 L311.78394,-12.272264 L311.89063,-12.07747 L311.99734,-11.885768 L312.10403,-11.697109 L312.21072,-11.511444 L312.31744,-11.328727 L312.42413,-11.14891 L312.53085,-10.971947 L312.63754,-10.797792 L312.74426,-10.626403 L312.85095,-10.457733 L312.95764,-10.29174 L313.06436,-10.128384 L313.17105,-9.967619 L313.27777,-9.809406 L313.38446,-9.653705 L313.49115,-9.500474 L313.59787,-49.558334 L313.70456,-48.771713 L313.81128,-47.997574 L313.91797,-47.235725 L314.0247,-46.485966 L314.13138,-45.748108 L314.23807,-45.021965 L314.3448,-44.307346 L314.45148,-43.60407 L314.5582,-42.911957 L314.6649,-42.230827 L314.77158,-41.560513 L314.8783,-40.900833 L314.985,-40.25163 L315.0917,-39.61273 L315.1984,-38.983967 L315.3051,-38.36519 L315.4118,-37.75623 L315.5185,-37.156937 L315.6252,-36.567158 L315.7319,-35.986736 L315.83862,-35.41553 L315.9453,-34.853394 L316.05203,-34.300175 L316.15872,-33.75574 L316.2654,-33.219944 L316.37213,-32.692657 L316.47882,-32.173737 L316.58554,-31.663052 L316.69223,-31.160475 L316.79892,-30.665874 L316.90564,-30.179125 L317.01233,-29.700102 L317.11905,-29.228682 L317.22574,-28.764744 L317.33246,-28.30817 L317.43915,-27.858843 L317.54584,-27.416649 L317.65256,-26.981474 L317.75925,-26.553205 L317.86597,-26.131735 L317.97266,-25.716953 L318.07935,-25.308758 L318.18607,-24.90704 L318.29276,-24.511698 L318.39948,-24.122631 L318.50616,-23.73974 L318.61288,-23.362926 L318.71957,-22.992096 L318.82626,-22.62715 L318.93298,-22.267996 L319.03967,-21.914543 L319.1464,-21.5667 L319.25308,-21.224379 L319.35977,-20.887491 L319.4665,-20.55595 L319.57318,-20.229673 L319.6799,-19.908573 L319.7866,-19.592571 L319.8933,-19.281584 L320,-18.975534" fill="none" stroke="#0971B2" stroke-linejoin="round" stroke-width="1.2"/>
</g>
<g>
<path d="M7.1325936,-80.853226 l2.4,2.4 m-2.4,0 l2.4,-2.4 z" fill="none" stroke="#FF0000" stroke-width="2"/>
<path d="M7.6985497,-114.92447 l2.4,2.4 m-2.4,0 l2.4,-2.4 z" fill="none" stroke="#FF0000" stroke-width="2"/>
<path d="M9.727091,-125.649895 l2.4,2.4 m-2.4,0 l2.4,-2.4 z" fill="none" stroke="#FF0000" stroke-width="2"/>
<path d="M11.076937,-143.39789 l2.4,2.4 m-2.4,0 l2.4,-2.4 z" fill="none" stroke="#FF0000" stroke-width="2"/>
<path d="M14.205603,-130.7023 l2.4,2.4 m-2.4,0 l2.4,-2.4 z" fill="none" stroke="#FF0000" stroke-width="2"/>
<path d="M22.344517,-79.96867 l2.4,2.4 m-2.4,0 l2.4,-2.4 z" fill="none" stroke="#FF0000" stroke-width="2"/>
<path d="M22.548307,-118.15018 l2.4,2.4 m-2.4,0 l2.4,-2.4 z" fill="none" stroke="#FF0000" stroke-width="2"/>
<path d="M24.652195,-127.06027 l2.4,2.4 m-2.4,0 l2.4,-2.4 z" fill="none" stroke="#FF0000" stroke-width="2"/>
<path d="M24.70123,-166.6904 l2.4,2.4 m-2.4,0 l2.4,-2.4 z" fill="none" stroke="#FF0000" stroke-width="2"/>
<path d="M31.92838,-97.74377 l2.4,2.4 m-2.4,0 l2.4,-2.4 z" fill="none" stroke="#FF0000" stroke-width="2"/>
<path d="M44.228485,-57.017635 l2.4,2.4 m-2.4,0 l2.4,-2.4 z" fill="none" stroke="#FF0000" stroke-width="2"/>
<path d="M47.907536,-73.90227 l2.4,2.4 m-2.4,0 l2.4,-2.4 z" fill="none" stroke="#FF0000" stroke-width="2"/>
<path d="M49.638973,-97.83013 l2.4,2.4 m-2.4,0 l2.4,-2.4 z" fill="none" stroke="#FF0000" stroke-width="2"/>
<path d="M55.662468,-80.91258 l2.4,2.4 m-2.4,0 l2.4,-2.4 z" fill="none" stroke="#FF0000" stroke-width="2"/>
<path d="M56.553516,-111.494995 l2.4,2.4 m-2.4,0 l2.4,-2.4 z" fill="none" stroke="#FF0000" stroke-width="2"/>
<path d="M66.1039,-68.09187 l2.4,2.4 m-2.4,0 l2.4,-2.4 z" fill="none" stroke="#FF0000" stroke-width="2"/>
<path d="M67.6766,-94.59119 l2.4,2.4 m-2.4,0 l2.4,-2.4 z" fill="none" stroke="#FF0000" stroke-width="2"/>
<path d="M71.96023,-90.88198 l2.4,2.4 m-2.4,0 l2.4,-2.4 z" fill="none" stroke="#FF0000" stroke-width="2"/>
<path d="M81.87556,-62.028717 l2.4,2.4 m-2.4,0 l2.4,-2.4 z" fill="none" stroke="#FF0000" stroke-width="2"/>
<path d="M82.46338,-97.44868 l2.4,2.4 m-2.4,0 l2.4,-2.4 z" fill="none" stroke="#FF0000" stroke-width="2"/>
<path d="M82.95172,-131.20468 l2.4,2.4 m-2.4,0 l2.4,-2.4 z" fill="none" stroke="#FF0000" stroke-width="2"/>
<path d="M90.680984,-82.54746 l2.4,2.4 m-2.4,0 l2.4,-2.4 z" fill="none" stroke="#FF0000" stroke-width="2"/>
<path d="M97.033676,-73.13128 l2.4,2.4 m-2.4,0 l2.4,-2.4 z" fill="none" stroke="#FF0000" stroke-width="2"/>
<path d="M112.59906,-48.722595 l2.4,2.4 m-2.4,0 l2.4,-2.4 z" fill="none" stroke="#FF0000" stroke-width="2"/>
<path d="M112.82327,-87.70356 l2.4,2.4 m-2.4,0 l2.4,-2.4 z" fill="none" stroke="#FF0000" stroke-width="2"/>
<path d="M117.091896,-87.361145 l2.4,2.4 m-2.4,0 l2.4,-2.4 z" fill="none" stroke="#FF0000" stroke-width="2"/>
<path d="M135.19698,-47.457245 l2.4,2.4 m-2.4,0 l2.4,-2.4 z" fill="none" stroke="#FF0000" stroke-width="2"/>
<path d="M136.68651,-78.75013 l2.4,2.4 m-2.4,0 l2.4,-2.4 z" fill="none" stroke="#FF0000" stroke-width="2"/>
<path d="M139.79498,-90.40973 l2.4,2.4 m-2.4,0 l2.4,-2.4 z" fill="none" stroke="#FF0000" stroke-width="2"/>
<path d="M148.80234,-64.8638 l2.4,2.4 m-2.4,0 l2.4,-2.4 z" fill="none" stroke="#FF0000" stroke-width="2"/>
<path d="M149.38391,-100.099205 l2.4,2.4 m-2.4,0 l2.4,-2.4 z" fill="none" stroke="#FF0000" stroke-width="2"/>
<path d="M149.44193,-139.79471 l2.4,2.4 m-2.4,0 l2.4,-2.4 z" fill="none" stroke="#FF0000" stroke-width="2"/>
<path d="M155.40866,-98.39926 l2.4,2.4 m-2.4,0 l2.4,-2.4 z" fill="none" stroke="#FF0000" stroke-width="2"/>
<path d="M163.30731,-71.488205 l2.4,2.4 m-2.4,0 l2.4,-2.4 z" fill="none" stroke="#FF0000" stroke-width="2"/>
<path d="M175.40991,-53.200188 l2.4,2.4 m-2.4,0 l2.4,-2.4 z" fill="none" stroke="#FF0000" stroke-width="2"/>
<path d="M186.67923,-51.348778 l2.4,2.4 m-2.4,0 l2.4,-2.4 z" fill="none" stroke="#FF0000" stroke-width="2"/>
<path d="M193.91205,-58.70491 l2.4,2.4 m-2.4,0 l2.4,-2.4 z" fill="none" stroke="#FF0000" stroke-width="2"/>
<path d="M196.9146,-78.4104 l2.4,2.4 m-2.4,0 l2.4,-2.4 z" fill="none" stroke="#FF0000" stroke-width="2"/>
<path d="M196.98091,-118.19866 l2.4,2.4 m-2.4,0 l2.4,-2.4 z" fill="none" stroke="#FF0000" stroke-width="2"/>
<path d="M202.0236,-96.679375 l2.4,2.4 m-2.4,0 l2.4,-2.4 z" fill="none" stroke="#FF0000" stroke-width="2"/>
<path d="M206.26602,-92.291916 l2.4,2.4 m-2.4,0 l2.4,-2.4 z" fill="none" stroke="#FF0000" stroke-width="2"/>
<path d="M207.52985,-117.1183 l2.4,2.4 m-2.4,0 l2.4,-2.4 z" fill="none" stroke="#FF0000" stroke-width="2"/>
<path d="M214.20561,-84.35217 l2.4,2.4 m-2.4,0 l2.4,-2.4 z" fill="none" stroke="#FF0000" stroke-width="2"/>
<path d="M218.5422,-85.14951 l2.4,2.4 m-2.4,0 l2.4,-2.4 z" fill="none" stroke="#FF0000" stroke-width="2"/>
<path d="M219.37167,-115.88338 l2.4,2.4 m-2.4,0 l2.4,-2.4 z" fill="none" stroke="#FF0000" stroke-width="2"/>
<path d="M219.50557,-154.15591 l2.4,2.4 m-2.4,0 l2.4,-2.4 z" fill="none" stroke="#FF0000" stroke-width="2"/>
<path d="M219.9554,-184.73097 l2.4,2.4 m-2.4,0 l2.4,-2.4 z" fill="none" stroke="#FF0000" stroke-width="2"/>
<path d="M221.32544,-191.2 l2.4,2.4 m-2.4,0 l2.4,-2.4 z" fill="none" stroke="#FF0000" stroke-width="2"/>
<path d="M224.4711,-160.30174 l2.4,2.4 m-2.4,0 l2.4,-2.4 z" fill="none" stroke="#FF0000" stroke-width="2"/>
<path d="M228.66624,-126.56789 l2.4,2.4 m-2.4,0 l2.4,-2.4 z" fill="none" stroke="#FF0000" stroke-width="2"/>
<path d="M235.14339,-89.217705 l2.4,2.4 m-2.4,0 l2.4,-2.4 z" fill="none" stroke="#FF0000" stroke-width="2"/>
<path d="M237.1275,-107.119286 l2.4,2.4 m-2.4,0 l2.4,-2.4 z" fill="none" stroke="#FF0000" stroke-width="2"/>
<path d="M238.48921,-128.10912 l2.4,2.4 m-2.4,0 l2.4,-2.4 z" fill="none" stroke="#FF0000" stroke-width="2"/>
<path d="M240.39404,-137.12952 l2.4,2.4 m-2.4,0 l2.4,-2.4 z" fill="none" stroke="#FF0000" stroke-width="2"/>
<path d="M247.32314,-89.84431 l2.4,2.4 m-2.4,0 l2.4,-2.4 z" fill="none" stroke="#FF0000" stroke-width="2"/>
<path d="M249.10994,-109.56159 l2.4,2.4 m-2.4,0 l2.4,-2.4 z" fill="none" stroke="#FF0000" stroke-width="2"/>
<path d="M251.00166,-123.35053 l2.4,2.4 m-2.4,0 l2.4,-2.4 z" fill="none" stroke="#FF0000" stroke-width="2"/>
<path d="M251.34767,-157.72658 l2.4,2.4 m-2.4,0 l2.4,-2.4 z" fill="none" stroke="#FF0000" stroke-width="2"/>
<path d="M254.31483,-142.0655 l2.4,2.4 m-2.4,0 l2.4,-2.4 z" fill="none" stroke="#FF0000" stroke-width="2"/>
<path d="M260.75946,-95.34592 l2.4,2.4 m-2.4,0 l2.4,-2.4 z" fill="none" stroke="#FF0000" stroke-width="2"/>
<path d="M263.86115,-100.88287 l2.4,2.4 m-2.4,0 l2.4,-2.4 z" fill="none" stroke="#FF0000" stroke-width="2"/>
<path d="M265.76782,-116.64708 l2.4,2.4 m-2.4,0 l2.4,-2.4 z" fill="none" stroke="#FF0000" stroke-width="2"/>
<path d="M269.55728,-107.15597 l2.4,2.4 m-2.4,0 l2.4,-2.4 z" fill="none" stroke="#FF0000" stroke-width="2"/>
<path d="M271.59845,-119.77112 l2.4,2.4 m-2.4,0 l2.4,-2.4 z" fill="none" stroke="#FF0000" stroke-width="2"/>
<path d="M290.16983,-49.073036 l2.4,2.4 m-2.4,0 l2.4,-2.4 z" fill="none" stroke="#FF0000" stroke-width="2"/>
<path d="M301.2675,-50.817505 l2.4,2.4 m-2.4,0 l2.4,-2.4 z" fill="none" stroke="#FF0000" stroke-width="2"/>
<path d="M312.34113,-51.18168 l2.4,2.4 m-2.4,0 l2.4,-2.4 z" fill="none" stroke="#FF0000" stroke-width="2"/>
</g>
<g>
<g>
<line stroke="black" stroke-width="1" x1="0" x2="0" y1="0" y2="10"/>
<line stroke="black" stroke-width="1" x1="53.351117039013005" x2="53.351117039013005" y1="0" y2="10"/>
<line stroke="black" stroke-width="1" x1="106.70223407802601" x2="106.70223407802601" y1="0" y2="10"/>
<line stroke="black" stroke-width="1" x1="160.05335111703903" x2="160.05335111703903" y1="0" y2="10"/>
<line stroke="black" stroke-width="1" x1="213.40446815605202" x2="213.40446815605202" y1="0" y2="10"/>
<line stroke="black" stroke-width="1" x1="266.755585195065" x2="266.755585195065" y1="0" y2="10"/>
</g>
<line stroke="black" stroke-width="1" x1="0" x2="320" y1="0" y2="0"/>
<g>
<text font-size="12" text-anchor="middle" x="0" y="20">
0
</text>
<text font-size="12" text-anchor="middle" x="53.351117039013005" y="20">
10
</text>
<text font-size="12" text-anchor="middle" x="106.70223407802601" y="20">
20
</text>
<text font-size="12" text-anchor="middle" x="160.05335111703903" y="20">
30
</text>
<text font-size="12" text-anchor="middle" x="213.40446815605202" y="20">
40
</text>
<text font-size="12" text-anchor="middle" x="266.755585195065" y="20">
50
</text>
</g>
<text font-size="12" text-anchor="middle" x="160" y="30">
Time t
</text>
</g>
<g>
<g>
<line stroke="black" stroke-width="1" x1="0" x2="-10" y1="-0.000000000000022510956661983286" y2="-0.000000000000022510956661983286"/>
<line stroke="black" stroke-width="1" x1="0" x2="-10" y1="-40.55213441386454" y2="-40.55213441386454"/>
<line stroke="black" stroke-width="1" x1="0" x2="-10" y1="-81.10426882772906" y2="-81.10426882772906"/>
<line stroke="black" stroke-width="1" x1="0" x2="-10" y1="-121.65640324159362" y2="-121.65640324159362"/>
<line stroke="black" stroke-width="1" x1="0" x2="-10" y1="-162.20853765545814" y2="-162.20853765545814"/>
</g>
<line stroke="black" stroke-width="1" x1="0" x2="0" y1="0" y2="-190"/>
<g>
<text dominant-baseline="middle" font-size="12" text-anchor="end" x="-15" y="-0.000000000000022510956661983286">
0.6000000000000001
</text>
<text dominant-baseline="middle" font-size="12" text-anchor="end" x="-15" y="-40.55213441386454">
0.8
</text>
<text dominant-baseline="middle" font-size="12" text-anchor="end" x="-15" y="-81.10426882772906">
1
</text>
<text dominant-baseline="middle" font-size="12" text-anchor="end" x="-15" y="-121.65640324159362">
1.2000000000000002
</text>
<text dominant-baseline="middle" font-size="12" text-anchor="end" x="-15" y="-162.20853765545814">
1.4000000000000001
</text>
</g>
<text font-size="12" text-anchor="middle" transform="rotate(-90 -30 -95)" x="-30" y="-95">
(t)
</text>
</g>
</g>
</svg>