<svg viewBox="0 0 900 400" xmlns="http://www.w3.org/2000/svg">
<g transform="translate(48, 364)">
<g>
<path d="M0,0 L0,0 L0.27294526,0 L0.5458905,0 L0.8188358,0 L1.091781,0 L1.3647263,0 L1.6376716,0 L1.9106169,0 L2.183562,0 L2.4565074,0 L2.7294526,0 L3.0023978,0 L3.2753432,0 L3.5482883,0 L3.8212337,0 L4.094179,0 L4.367124,0 L4.6400695,0 L4.913015,0 L5.18596,0 L5.458905,0 L5.7318506,0 L6.0047956,0 L6.277741,0 L6.5506864,0 L6.823632,0 L7.0965767,0 L7.369522,0 L7.6424675,0 L7.9154124,0 L8.188358,0 L8.461303,0 L8.734248,0 L9.007194,0 L9.280139,0 L9.553084,0 L9.82603,0 L10.098974,0 L10.37192,0 L10.644865,0 L10.91781,0 L11.190756,0 L11.463701,0 L11.736647,-9.6407175 L12.009591,-9.355791 L12.2825365,-9.079286 L12.555482,-8.810952 L12.828427,-8.5505495 L13.101373,-8.297842 L13.374318,-8.052604 L13.647264,-7.8146133 L13.920208,-74.467545 L14.193153,-72.26669 L14.466099,-70.13089 L14.739044,-68.058205 L15.01199,-66.04678 L15.284935,-64.0948 L15.55788,-62.20052 L15.830825,-60.362217 L16.103771,-58.578243 L16.376717,-56.846992 L16.64966,-55.166912 L16.922606,-53.536484 L17.19555,-51.95424 L17.468496,-50.418762 L17.741442,-48.92866 L18.014387,-47.4826 L18.287333,-46.079277 L18.560278,-44.71743 L18.833223,-43.39583 L19.106169,-42.11329 L19.379114,-40.868652 L19.65206,-39.6608 L19.925005,-38.488647 L20.197948,-37.351135 L20.470894,-163.00046 L20.74384,-158.18307 L21.016785,-153.50806 L21.28973,-148.9712 L21.562675,-144.56844 L21.83562,-237.86394 L22.108566,-230.834 L22.381512,-232.1735 L22.654457,-225.31172 L22.927402,-340 L23.200348,-329.95148 L23.473293,-320.19995 L23.746239,-310.7366 L24.019182,-301.55295 L24.292128,-292.64072 L24.565073,-283.99188 L24.838018,-275.59863 L25.110964,-267.45346 L25.38391,-259.54904 L25.656855,-251.87819 L25.9298,-244.43407 L26.202745,-237.20995 L26.47569,-230.19934 L26.748636,-267.68274 L27.021582,-259.7715 L27.294527,-252.09412 L27.56747,-244.6436 L27.840416,-237.41328 L28.113361,-230.39667 L28.386307,-223.58742 L28.659252,-216.97942 L28.932198,-210.5667 L29.205143,-204.3435 L29.478088,-198.30424 L29.751034,-192.44347 L30.02398,-186.7559 L30.296925,-181.23643 L30.56987,-175.8801 L30.842815,-170.68205 L31.11576,-165.63763 L31.388704,-160.7423 L31.66165,-155.99165 L31.934595,-151.3814 L32.207542,-146.9074 L32.480488,-142.56563 L32.753433,-138.35217 L33.026375,-134.26326 L33.29932,-130.29518 L33.572266,-126.444374 L33.84521,-122.707375 L34.118156,-119.080826 L34.3911,-115.561455 L34.664047,-112.146095 L34.936993,-108.83168 L35.209938,-105.61522 L35.482883,-102.49381 L35.75583,-99.46467 L36.028774,-96.52504 L36.30172,-93.672295 L36.574665,-143.82051 L36.84761,-139.56998 L37.120556,-135.44507 L37.3935,-131.44206 L37.666447,-127.55736 L37.939392,-123.78747 L38.212337,-120.12899 L38.485283,-116.57864 L38.75823,-113.133224 L39.031174,-109.789635 L39.30412,-106.54486 L39.577065,-103.39598 L39.85001,-100.34017 L40.122955,-97.37467 L40.395897,-94.49681 L40.668842,-91.70401 L40.941788,-88.993744 L41.214733,-86.36359 L41.48768,-83.81116 L41.760624,-81.33416 L42.03357,-106.92449 L42.306515,-103.7644 L42.57946,-100.69769 L42.852406,-97.72163 L43.12535,-94.83352 L43.398296,-92.03076 L43.67124,-89.310844 L43.944187,-86.67131 L44.217133,-84.10979 L44.490078,-81.62396 L44.763023,-79.21161 L45.03597,-76.87055 L45.308914,-74.59869 L45.58186,-72.39396 L45.854805,-70.254395 L46.12775,-68.17806 L46.400696,-66.1631 L46.67364,-79.37806 L46.946587,-77.03209 L47.219532,-74.75545 L47.492477,-72.54609 L47.76542,-70.40202 L48.038364,-68.321335 L48.31131,-66.30213 L48.584255,-64.342606 L48.8572,-62.440994 L49.130146,-60.595585 L49.40309,-58.804714 L49.676037,-57.066772 L49.948982,-55.380196 L50.221928,-53.74346 L50.494873,-52.1551 L50.76782,-50.613686 L51.040764,-62.31819 L51.31371,-60.47641 L51.586655,-58.689064 L51.8596,-56.95454 L52.132545,-55.27128 L52.40549,-53.637764 L52.678436,-52.05253 L52.95138,-50.514145 L53.224327,-49.021225 L53.497272,-58.411003 L53.770218,-56.6847 L54.043163,-55.00941 L54.31611,-53.38364 L54.589054,-75.8479 L54.862,-73.606255 L55.13494,-71.43086 L55.407887,-69.31976 L55.680832,-67.27106 L55.953777,-65.28289 L56.226723,-63.353493 L56.49967,-61.481113 L56.772614,-59.66407 L57.04556,-57.900734 L57.318504,-56.189507 L57.59145,-54.528854 L57.864395,-52.917286 L58.13734,-51.353344 L58.410286,-49.83562 L58.68323,-48.36276 L58.956177,-46.933422 L59.229122,-45.54633 L59.502068,-44.200233 L59.775013,-42.893917 L60.04796,-41.62621 L60.320904,-40.39597 L60.59385,-39.202087 L60.866795,-38.04349 L61.13974,-36.919136 L61.412685,-35.82801 L61.68563,-34.769135 L61.958576,-33.74155 L62.23152,-32.744335 L62.504463,-31.776596 L62.77741,-30.837456 L63.050354,-29.926071 L63.3233,-29.041622 L63.596245,-28.183311 L63.86919,-27.350368 L64.142136,-26.542044 L64.415085,-25.757608 L64.68803,-24.996355 L64.960976,-24.2576 L65.23392,-23.540682 L65.50687,-22.844948 L65.77981,-22.169779 L66.05275,-21.514563 L66.3257,-20.878712 L66.59864,-20.261652 L66.87159,-19.66283 L67.14453,-19.081705 L67.41748,-18.517756 L67.69042,-17.970472 L67.96337,-17.439365 L68.23631,-16.923954 L68.50926,-16.423777 L68.7822,-15.93838 L69.05515,-15.46733 L69.328094,-30.528437 L69.60104,-29.626184 L69.873985,-28.750599 L70.146935,-27.90089 L70.419876,-27.076294 L70.692825,-26.276068 L70.96577,-55.959904 L71.238716,-54.306038 L71.51166,-52.701054 L71.78461,-51.1435 L72.05755,-49.63198 L72.3305,-48.165134 L72.60344,-46.74164 L72.87639,-45.360214 L73.14933,-44.01962 L73.42227,-42.718643 L73.69522,-41.456116 L73.96816,-40.230904 L74.24111,-39.0419 L74.51405,-37.88804 L74.787,-36.768276 L75.059944,-35.68161 L75.33289,-34.62706 L75.605835,-68.33673 L75.878784,-66.31708 L76.151726,-64.35711 L76.424675,-62.45507 L76.69762,-60.609245 L76.970566,-58.81797 L77.24351,-57.079636 L77.51646,-68.7154 L77.7894,-66.68455 L78.06235,-64.71372 L78.33529,-62.801144 L78.60824,-60.94509 L78.88118,-59.14389 L79.15413,-57.395924 L79.42707,-55.69962 L79.70002,-54.053448 L79.97296,-52.455925 L80.24591,-50.90562 L80.51885,-49.40113 L80.791794,-47.941105 L81.06474,-46.52423 L81.337685,-45.149235 L81.610634,-43.814873 L81.883575,-42.519947 L82.156525,-41.263294 L82.42947,-40.043777 L82.702415,-38.860306 L82.97536,-37.71181 L83.24831,-36.597256 L83.52125,-65.50626 L83.7942,-63.570263 L84.06714,-61.69148 L84.34009,-59.86822 L84.61303,-58.098846 L84.88598,-56.381767 L85.15892,-54.71543 L85.43187,-53.098347 L85.70481,-51.529053 L85.97776,-50.00614 L86.2507,-48.528236 L86.52365,-47.09401 L86.79659,-45.70217 L87.06954,-44.351467 L87.34248,-43.040684 L87.61543,-41.76864 L87.888374,-40.53419 L88.161316,-39.336224 L88.434265,-38.173664 L88.70721,-37.04546 L88.980156,-35.9506 L89.2531,-34.8881 L89.52605,-33.857002 L89.79899,-32.856377 L90.07194,-31.885323 L90.34488,-30.942968 L90.61783,-30.028467 L90.89077,-29.140991 L91.16372,-28.279745 L91.43666,-27.443953 L91.70961,-26.63286 L91.98255,-25.845741 L92.2555,-25.081882 L92.52844,-24.340601 L92.80139,-23.62123 L93.07433,-22.923115 L93.34728,-22.245634 L93.620224,-21.588177 L93.89317,-20.95015 L94.166115,-20.33098 L94.439064,-19.730108 L94.712006,-19.146996 L94.984955,-18.581116 L95.2579,-18.031961 L95.53084,-17.499037 L95.80379,-16.981861 L96.07673,-16.47997 L96.34968,-31.634434 L96.62262,-30.699493 L96.89557,-29.792187 L97.16851,-28.911695 L97.44146,-61.778355 L97.7144,-59.95253 L97.98735,-58.180664 L98.26029,-56.461166 L98.53324,-54.792484 L98.80618,-53.173122 L99.07913,-51.60162 L99.35207,-50.07656 L99.62502,-48.596577 L99.897964,-47.160328 L100.17091,-45.76653 L100.443855,-44.413925 L100.716805,-43.101295 L100.989746,-118.98822 L101.262695,-115.47159 L101.53564,-112.05888 L101.808586,-108.74705 L102.08153,-105.53308 L102.35448,-102.41411 L102.62742,-99.387314 L102.90036,-96.449974 L103.17331,-93.59945 L103.44625,-90.83317 L103.7192,-88.14864 L103.99214,-85.54346 L104.26509,-83.01527 L104.53803,-80.56179 L104.81098,-78.18083 L105.08392,-75.87024 L105.35687,-73.62794 L105.629814,-71.4519 L105.90276,-69.34018 L106.175705,-67.29086 L106.448654,-65.30212 L106.721596,-63.37215 L106.994545,-61.49922 L107.26749,-59.681644 L107.540436,-57.917786 L107.81338,-56.206055 L108.08633,-54.544914 L108.35927,-52.93287 L108.63222,-51.368465 L108.90516,-49.8503 L109.17811,-48.377 L109.45105,-46.947243 L109.724,-45.559742 L109.99694,-44.21325 L110.26988,-42.90655 L110.54283,-41.63847 L110.81577,-40.407867 L111.08872,-39.213634 L111.361664,-38.054695 L111.63461,-74.55044 L111.907555,-72.347145 L112.180504,-70.20896 L112.453445,-68.13397 L112.726395,-66.12031 L112.99934,-64.16616 L113.272285,-62.269764 L113.54523,-60.429413 L113.81818,-58.643456 L114.09112,-56.91028 L114.36407,-55.228325 L114.63701,-53.59608 L114.90996,-52.012077 L115.1829,-76.54875 L115.45585,-74.28639 L115.72879,-72.0909 L116.00174,-179.28763 L116.27468,-173.98888 L116.54763,-168.84674 L116.82057,-163.85655 L117.09352,-159.01387 L117.36646,-235.90079 L117.639404,-228.92886 L117.91235,-222.163 L118.185295,-215.59709 L118.458244,-209.22523 L118.731186,-203.04169 L119.004135,-197.04091 L119.27708,-191.21747 L119.550026,-185.56613 L119.82297,-180.08182 L120.09592,-174.7596 L120.36886,-175.08728 L120.64181,-169.91267 L120.91475,-182.7082 L121.1877,-177.30836 L121.46064,-172.0681 L121.73359,-166.98273 L122.00653,-162.04764 L122.27948,-157.2584 L122.55242,-152.61072 L122.82537,-148.10039 L123.09831,-143.72336 L123.37126,-139.4757 L123.6442,-135.35356 L123.91715,-131.35326 L124.190094,-127.47119 L124.46304,-123.70384 L124.735985,-120.047844 L125.00893,-116.49989 L125.281876,-139.91656 L125.55482,-135.7814 L125.82777,-131.76846 L126.10071,-127.87411 L126.37366,-124.09486 L126.6466,-120.4273 L126.91955,-116.86813 L127.19249,-113.41416 L127.46544,-110.06226 L127.73838,-157.5255 L128.01132,-152.86992 L128.28427,-148.35193 L128.55722,-143.96747 L128.83017,-139.71259 L129.1031,-135.58345 L129.37605,-131.57635 L129.649,-127.68769 L129.92195,-123.91395 L130.19489,-120.25174 L130.46783,-116.69776 L130.74078,-113.248825 L131.01373,-109.90181 L131.28667,-106.653725 L131.55962,-103.50163 L131.83257,-100.442696 L132.1055,-97.47417 L132.37845,-94.59337 L132.6514,-91.797714 L132.92435,-89.08468 L133.19728,-86.45183 L133.47023,-83.89679 L133.74318,-140.31514 L134.01613,-136.1682 L134.28906,-132.14381 L134.56201,-128.23837 L134.83496,-124.44836 L135.10791,-120.770355 L135.38084,-117.20105 L135.6538,-113.737236 L135.92674,-110.37579 L136.19969,-107.11369 L136.47263,-103.948006 L136.74557,-100.87588 L137.01852,-97.89455 L137.29147,-95.00133 L137.5644,-115.163025 L137.83736,-111.759445 L138.1103,-108.45646 L138.38326,-105.25108 L138.65619,-102.14044 L138.92914,-99.121735 L139.20209,-96.192245 L139.47502,-99.106094 L139.74797,-96.17707 L140.02092,-93.3346 L140.29387,-90.57615 L140.5668,-87.89922 L140.83975,-85.30141 L141.1127,-82.780365 L141.38565,-80.33384 L141.65858,-77.95962 L141.93153,-75.65556 L142.20448,-73.4196 L142.47743,-71.249725 L142.75037,-69.143974 L143.02332,-67.100464 L143.29626,-65.11735 L143.56921,-63.192837 L143.84215,-61.325207 L144.1151,-59.51277 L144.38805,-57.753902 L144.661,-56.047016 L144.93393,-54.39058 L145.20688,-52.783092 L145.47983,-51.223118 L145.75278,-49.709244 L146.02571,-48.240116 L146.29866,-46.814404 L146.57161,-45.43083 L146.84454,-44.088146 L147.1175,-42.785145 L147.39044,-41.520653 L147.66339,-40.29353 L147.93633,-39.102676 L148.20927,-37.947018 L148.48222,-36.825516 L148.75517,-35.737156 L149.0281,-34.680965 L149.30106,-33.655987 L149.574,-32.6613 L149.84695,-31.696014 L150.11989,-71.456535 L150.39284,-96.99602 L150.66579,-94.12935 L150.93874,-91.34741 L151.21167,-88.64768 L151.48462,-86.02775 L151.75757,-83.485245 L152.03052,-81.01788 L152.30345,-78.62344 L152.5764,-76.29977 L152.84935,-74.04477 L153.1223,-71.856415 L153.39523,-69.732735 L153.66818,-67.67182 L153.94113,-65.67182 L154.21407,-63.730923 L154.48701,-61.84739 L154.75996,-60.019524 L155.03291,-58.245678 L155.30585,-56.524258 L155.5788,-63.3992 L155.85175,-61.52547 L156.1247,-59.70712 L156.39763,-57.942505 L156.67058,-56.230045 L156.94353,-54.5682 L157.21648,-52.955463 L157.48941,-51.390392 L157.76236,-49.87158 L158.03531,-48.39765 L158.30826,-46.96728 L158.58119,-79.95187 L158.85414,-77.588936 L159.12709,-75.29584 L159.40004,-73.07051 L159.67297,-70.91095 L159.94592,-123.23718 L160.21887,-119.59498 L160.49182,-135.25864 L160.76476,-131.26114 L161.0377,-127.38178 L161.31065,-123.61708 L161.58359,-119.963646 L161.85654,-116.41818 L162.12949,-112.9775 L162.40244,-109.63851 L162.67537,-150.84785 L162.94832,-146.38963 L163.22127,-142.06317 L163.49422,-181.31796 L163.76715,-175.9592 L164.0401,-170.75882 L164.31305,-165.71214 L164.586,-160.8146 L164.85893,-156.06181 L165.13188,-151.4495 L165.40483,-146.97348 L165.67778,-146.62175 L165.95071,-142.28842 L166.22366,-138.08316 L166.49661,-134.0022 L166.76956,-130.04182 L167.0425,-126.19851 L167.31544,-122.46878 L167.5884,-118.84928 L167.86134,-115.336754 L168.13428,-111.92804 L168.40723,-108.62006 L168.68018,-105.40986 L168.95311,-102.294525 L169.22606,-99.27126 L169.49901,-96.33736 L169.77196,-93.49016 L170.04489,-90.727104 L170.31784,-88.045715 L170.59079,-85.443565 L170.86374,-82.91833 L171.13667,-80.46772 L171.40962,-78.08954 L171.68257,-75.78165 L171.95552,-73.54196 L172.22845,-71.36847 L172.5014,-104.744095 L172.77435,-101.64844 L173.0473,-98.64427 L173.32024,-95.72889 L173.59319,-92.89967 L173.86613,-90.154076 L174.13908,-87.48962 L174.41202,-90.23879 L174.68497,-87.57183 L174.95792,-113.797775 L175.23087,-110.43455 L175.5038,-107.170715 L175.77675,-104.00334 L176.0497,-100.92957 L176.32263,-97.946655 L176.59558,-95.051895 L176.86853,-92.24268 L177.14148,-89.5165 L177.41441,-86.87089 L177.68736,-84.30347 L177.96031,-81.81193 L178.23326,-79.39402 L178.5062,-77.04757 L178.77914,-74.77047 L179.0521,-72.56067 L179.32504,-70.416176 L179.59798,-68.33506 L179.87093,-66.31546 L180.14388,-64.35554 L180.41682,-62.453545 L180.68976,-60.607765 L180.9627,-58.816532 L181.23566,-86.548676 L181.5086,-83.990776 L181.78154,-81.50848 L182.05449,-79.09953 L182.32744,-76.76179 L182.60039,-74.49313 L182.87332,-72.29153 L183.14627,-70.15499 L183.41922,-68.0816 L183.69215,-66.06948 L183.9651,-64.11684 L184.23805,-62.221897 L184.511,-60.38296 L184.78394,-58.598377 L185.05688,-56.86653 L185.32983,-55.18587 L185.60278,-53.554882 L185.87572,-51.972095 L186.14867,-50.43609 L186.42162,-48.945477 L186.69456,-47.49892 L186.9675,-46.095116 L187.24045,-44.7328 L187.5134,-43.410744 L187.78635,-42.12776 L188.05928,-40.882698 L188.33223,-39.674435 L188.60518,-38.501877 L188.87813,-37.363976 L189.15106,-114.17478 L189.42401,-110.80041 L189.69696,-107.525764 L189.96991,-104.34789 L190.24284,-134.95113 L190.5158,-130.9627 L190.78874,-127.09218 L191.06168,-123.33604 L191.33463,-119.69091 L191.60757,-116.15351 L191.88052,-112.72065 L192.15346,-109.38925 L192.4264,-106.15631 L192.69936,-103.01892 L192.9723,-99.97425 L193.24524,-97.01956 L193.51819,-94.15221 L193.79114,-91.36958 L194.06409,-88.669205 L194.33702,-86.04864 L194.60997,-83.505516 L194.88292,-81.03755 L195.15587,-78.64253 L195.4288,-76.31829 L195.70175,-74.062744 L195.9747,-71.87386 L196.24765,-69.74967 L196.52058,-67.688255 L196.79353,-65.68777 L197.06648,-63.746395 L197.33943,-61.862408 L197.61237,-60.034096 L197.88531,-58.25982 L198.15826,-56.537983 L198.4312,-54.86703 L198.70415,-65.909386 L198.9771,-63.96147 L199.25005,-62.071125 L199.52298,-60.236645 L199.79593,-58.456383 L200.06888,-70.32803 L200.34183,-68.24953 L200.61476,-66.23245 L200.88771,-64.27499 L201.16066,-169.7221 L201.43361,-164.70607 L201.70654,-159.83827 L201.97949,-155.11433 L202.25244,-150.53001 L202.52539,-146.08118 L202.79832,-141.76382 L203.07127,-137.57407 L203.34422,-133.50815 L203.61717,-129.56238 L203.8901,-125.73324 L204.16306,-122.01726 L204.436,-118.4111 L204.70895,-114.91152 L204.98189,-111.51537 L205.25484,-228.44446 L205.52779,-221.69292 L205.80072,-215.1409 L206.07367,-208.78252 L206.34662,-202.61206 L206.61957,-196.62398 L206.8925,-190.81285 L207.16545,-185.17348 L207.4384,-179.70078 L207.71135,-174.38982 L207.98428,-169.23582 L208.25723,-164.23415 L208.53018,-159.3803 L208.80313,-154.66989 L209.07607,-150.09871 L209.34901,-145.66263 L209.62196,-141.35764 L209.89491,-137.17989 L210.16785,-133.12561 L210.4408,-129.19116 L210.71375,-125.37298 L210.9867,-121.66765 L211.25963,-118.07182 L211.53258,-114.582275 L211.80553,-124.34103 L212.07848,-120.66619 L212.35141,-117.09997 L212.62436,-113.63914 L212.89731,-110.280594 L213.17024,-107.02131 L213.44319,-103.85835 L213.71614,-100.78887 L213.98909,-97.81011 L214.26202,-94.91939 L214.53497,-92.1141 L214.80792,-89.391716 L215.08087,-86.74979 L215.3538,-84.18594 L215.62675,-81.697876 L215.8997,-79.28334 L216.17265,-76.94016 L216.44559,-74.66624 L216.71854,-72.45951 L216.99149,-70.31801 L217.26443,-68.2398 L217.53737,-66.22301 L217.81032,-64.26582 L218.08327,-62.36648 L218.35622,-60.523273 L218.62915,-58.73454 L218.9021,-56.998672 L219.17505,-55.314106 L219.448,-53.67933 L219.72093,-52.092865 L219.99388,-50.553288 L220.26683,-49.05921 L220.53976,-47.609295 L220.81271,-46.202225 L221.08566,-44.836742 L221.35861,-43.51162 L221.63155,-42.225655 L221.9045,-40.9777 L222.17744,-39.766624 L222.4504,-38.591343 L222.72333,-37.450798 L222.99628,-36.34396 L223.26923,-35.269833 L223.54218,-34.22745 L223.81511,-33.215878 L224.08806,-32.2342 L224.36101,-31.281534 L224.63396,-30.357025 L224.90689,-29.45984 L225.17984,-28.58917 L225.45279,-27.744232 L225.72574,-26.924267 L225.99867,-42.333042 L226.27162,-41.081913 L226.54457,-39.86776 L226.81752,-38.689487 L227.09045,-37.54604 L227.3634,-36.43639 L227.63635,-35.35953 L227.90929,-34.3145 L228.18224,-33.30035 L228.45518,-32.316177 L228.72813,-31.36109 L229.00107,-30.434229 L229.27402,-29.534761 L229.54697,-28.661879 L229.81992,-27.81479 L230.09285,-26.99274 L230.3658,-26.194984 L230.63875,-25.420805 L230.9117,-24.669508 L231.18463,-23.940413 L231.45758,-23.232866 L231.73053,-22.546232 L232.00348,-21.87989 L232.27641,-21.233242 L232.54936,-20.605705 L232.82231,-19.996714 L233.09526,-19.405722 L233.3682,-18.832195 L233.64114,-18.27562 L233.9141,-17.735495 L234.18704,-17.21133 L234.45998,-16.70266 L234.73293,-16.20902 L235.00587,-15.729972 L235.27881,-15.265081 L235.55176,-14.81393 L235.8247,-14.376112 L236.09766,-13.951234 L236.37059,-13.538913 L236.64354,-13.138777 L236.91649,-12.750467 L237.18944,-12.373634 L237.46237,-12.007938 L237.73532,-11.65305 L238.00827,-11.30865 L238.28122,-10.974429 L238.55415,-10.650085 L238.8271,-10.335328 L239.10005,-10.029873 L239.373,-9.733445 L239.64594,-9.445779 L239.91888,-9.166614 L240.19183,-8.8956995 L240.46478,-8.6327915 L240.73772,-8.377654 L241.01067,-8.130057 L241.28362,-7.8897777 L241.55656,-54.597248 L241.8295,-52.983654 L242.10245,-51.41775 L242.3754,-49.898125 L242.64833,-48.423412 L242.92128,-46.992287 L243.19423,-45.603455 L243.46718,-44.25567 L243.74011,-42.947716 L244.01306,-41.678417 L244.28601,-40.446636 L244.55896,-39.251255 L244.8319,-38.091206 L245.10484,-36.965443 L245.37779,-35.872948 L245.65074,-34.81274 L245.92368,-33.78387 L246.19662,-32.785404 L246.46957,-101.7527 L246.74252,-98.74545 L247.01546,-95.82709 L247.2884,-92.994965 L247.56136,-90.24655 L247.8343,-87.57936 L248.10724,-84.991 L248.38019,-82.47913 L248.65314,-80.04151 L248.92609,-77.67593 L249.19902,-75.38026 L249.47197,-73.15243 L249.74492,-70.99045 L250.01785,-68.892365 L250.2908,-66.856285 L250.56375,-64.88039 L250.8367,-62.96288 L251.10963,-61.102047 L251.38258,-59.296207 L251.65553,-57.54374 L251.92848,-55.843067 L252.20142,-54.192654 L252.47437,-52.59102 L252.74731,-76.40983 L253.02026,-74.15157 L253.2932,-71.96006 L253.56615,-69.83332 L253.8391,-67.76943 L254.11205,-65.76655 L254.38498,-63.82285 L254.65793,-61.9366 L254.93088,-60.1061 L255.20383,-58.329693 L255.47676,-56.60579 L255.74971,-54.93284 L256.02264,-53.309326 L256.2956,-51.7338 L256.56854,-50.204834 L256.8415,-48.721054 L257.11444,-47.28113 L257.3874,-45.883762 L257.66034,-44.52769 L257.93326,-88.59491 L258.2062,-85.97653 L258.47916,-83.43554 L258.7521,-80.96965 L259.02505,-78.57663 L259.298,-86.99203 L259.57095,-84.42102 L259.8439,-81.926 L260.11682,-79.50472 L260.38977,-86.16925 L260.66272,-83.62257 L260.93567,-81.151146 L261.20862,-78.75277 L261.48157,-76.42527 L261.75452,-74.166565 L262.02747,-71.97461 L262.30038,-69.84744 L262.57333,-67.783134 L262.84628,-65.77984 L263.11923,-63.835754 L263.39218,-61.94912 L263.66513,-60.118248 L263.93808,-58.341484 L264.211,-56.617233 L264.48395,-54.943943 L264.7569,-53.320103 L265.02985,-51.744255 L265.3028,-50.21498 L265.57574,-111.32016 L265.8487,-108.03015 L266.12164,-134.68913 L266.39456,-130.70847 L266.6675,-157.40959 L266.94046,-152.75745 L267.2134,-148.24278 L267.48636,-143.86154 L267.7593,-139.60979 L268.03226,-135.4837 L268.3052,-131.47955 L268.57813,-127.59374 L268.85107,-123.82278 L269.12402,-120.16326 L269.39697,-116.6119 L269.66992,-113.1655 L269.94287,-109.82095 L270.21582,-106.57525 L270.48877,-103.425476 L270.7617,-100.36879 L271.03464,-97.40244 L271.3076,-98.244225 L271.58054,-95.340675 L271.8535,-92.52293 L272.12643,-89.78847 L272.39938,-87.13481 L272.6723,-84.55959 L272.94525,-82.06048 L273.2182,-79.63522 L273.49115,-77.28165 L273.7641,-74.99763 L274.03705,-72.78111 L274.31,-70.630104 L274.58295,-68.54267 L274.85587,-66.51693 L275.1288,-64.551056 L275.40176,-62.643284 L275.6747,-60.791897 L275.94766,-58.995224 L276.2206,-57.25165 L276.49356,-55.55961 L276.7665,-53.917576 L277.03943,-52.32407 L277.31238,-50.77766 L277.58533,-49.276955 L277.85828,-54.023373 L278.13123,-52.426743 L278.40417,-50.877296 L278.67712,-49.373646 L278.95004,-47.914433 L279.223,-46.49835 L279.49594,-45.124115 L279.7689,-43.790497 L280.04184,-42.496292 L280.3148,-41.240334 L280.58774,-40.0215 L280.8607,-38.838684 L281.1336,-37.69083 L281.40656,-36.576897 L281.6795,-35.495884 L281.95245,-34.446823 L282.2254,-33.428764 L282.49835,-32.440796 L282.7713,-31.482027 L283.04425,-30.551592 L283.31717,-29.648657 L283.59012,-28.772406 L283.86307,-27.922052 L284.13602,-27.09683 L284.40897,-26.296 L284.68192,-25.518835 L284.95486,-24.764639 L285.2278,-24.032734 L285.50073,-23.322458 L285.77368,-22.633177 L286.04663,-21.964264 L286.31958,-21.315123 L286.59253,-20.685165 L286.86548,-20.073826 L287.13843,-19.480555 L287.41135,-18.904818 L287.6843,-18.346096 L287.95724,-17.803886 L288.2302,-17.277702 L288.50314,-16.767069 L288.7761,-16.271528 L289.04904,-15.790631 L289.322,-15.323947 L289.5949,-14.871057 L289.86786,-14.43155 L290.1408,-14.0050335 L290.41376,-13.591122 L290.6867,-13.189444 L290.95966,-12.799637 L291.2326,-12.4213505 L291.50555,-12.054244 L291.77847,-11.697988 L292.05142,-11.35226 L292.32437,-11.016749 L292.59732,-10.691155 L292.87027,-10.375184 L293.14322,-10.068551 L293.41617,-9.77098 L293.6891,-9.482204 L293.96204,-9.201962 L294.235,-8.930003 L294.50793,-46.50582 L294.78088,-45.131367 L295.05383,-43.797535 L295.32678,-42.50312 L295.59973,-41.246964 L295.87265,-40.02793 L296.1456,-38.84493 L296.41855,-37.696888 L296.6915,-36.582775 L296.96445,-35.50159 L297.2374,-34.452362 L297.51035,-33.43414 L297.7833,-32.44601 L298.0562,-31.487087 L298.32916,-30.556503 L298.6021,-29.653421 L298.87506,-28.77703 L299.148,-27.92654 L299.42096,-27.101187 L299.6939,-26.300226 L299.96686,-25.522936 L300.23978,-24.76862 L300.51273,-24.036596 L300.78568,-23.326208 L301.05862,-22.636814 L301.33157,-21.967794 L301.60452,-21.318548 L301.87747,-20.68849 L302.1504,-20.077053 L302.42334,-19.483686 L302.6963,-18.907856 L302.96924,-25.800825 L303.2422,-25.038296 L303.51514,-24.298304 L303.7881,-23.58018 L304.06104,-22.88328 L304.33395,-22.206976 L304.6069,-21.550661 L304.87985,-53.61314 L305.1528,-52.028633 L305.42575,-50.49095 L305.6987,-48.99872 L305.97165,-47.55059 L306.2446,-46.145256 L306.51752,-44.78146 L306.79047,-43.457966 L307.06342,-42.173588 L307.33636,-40.92717 L307.6093,-39.71759 L307.88226,-38.54376 L308.1552,-37.404617 L308.42813,-36.299145 L308.70108,-35.22634 L308.97403,-34.185246 L309.24698,-62.522606 L309.51993,-60.67478 L309.79288,-58.881573 L310.06583,-57.141357 L310.33878,-55.452576 L310.6117,-53.813705 L310.88464,-52.22327 L311.1576,-50.67984 L311.43054,-49.182022 L311.7035,-47.728474 L311.97644,-46.317886 L312.2494,-44.948986 L312.52234,-43.62054 L312.79526,-42.33136 L313.0682,-41.08028 L313.34116,-39.866173 L313.6141,-38.68795 L313.88705,-37.544548 L314.16,-36.43494 L314.43295,-35.358124 L314.7059,-34.313133 L314.97882,-33.299026 L315.25177,-32.31489 L315.52472,-31.359842 L315.79767,-59.825935 L316.07062,-58.05781 L316.34357,-56.341946 L316.61652,-54.67679 L316.88943,-53.060844 L317.16238,-51.49266 L317.43533,-49.97082 L317.70828,-48.49396 L317.98123,-47.06075 L318.25418,-45.66989 L318.52713,-44.320145 L318.80008,-43.010284 L319.073,-41.73914 L319.34595,-40.50556 L319.6189,-39.30844 L319.89185,-38.1467 L320.1648,-97.46364 L320.43774,-94.58315 L320.7107,-91.787796 L320.98364,-89.07506 L321.25656,-86.44249 L321.5295,-83.887726 L321.80246,-81.40847 L322.0754,-79.00249 L322.34836,-76.66761 L322.6213,-74.40174 L322.89426,-72.202835 L323.16718,-70.068924 L323.44012,-67.99807 L323.71307,-65.98843 L323.98602,-64.03817 L324.25897,-62.145557 L324.53192,-60.30888 L324.80487,-58.52648 L325.07782,-56.796764 L325.35074,-55.118164 L325.6237,-53.489178 L325.89664,-51.908333 L326.1696,-50.37421 L326.44254,-48.88543 L326.71548,-47.440643 L326.98843,-46.038563 L327.26138,-44.677917 L327.5343,-43.357487 L327.80725,-42.076077 L328.0802,-40.832542 L328.35315,-39.62576 L328.6261,-38.45464 L328.89905,-37.318134 L329.172,-96.14348 L329.44495,-93.30201 L329.71786,-90.54452 L329.9908,-87.86852 L330.26376,-85.27162 L330.5367,-92.89845 L330.80966,-90.15289 L331.0826,-87.48847 L331.35556,-84.902794 L331.62848,-82.39354 L331.90143,-79.95844 L332.17438,-77.595314 L332.44733,-75.302025 L332.72028,-73.076515 L332.99323,-70.91678 L333.26617,-68.82087 L333.53912,-66.7869 L333.81204,-64.81305 L334.085,-62.897537 L334.35794,-61.038635 L334.6309,-59.23467 L334.90384,-57.48402 L335.1768,-55.78511 L335.44974,-54.136414 L335.7227,-52.536438 L335.9956,-50.983753 L336.26855,-49.476955 L336.5415,-48.01469 L336.81445,-46.595642 L337.0874,-45.218533 L337.36035,-43.882122 L337.6333,-42.58521 L337.90622,-41.326626 L338.17917,-40.10524 L338.45212,-71.03628 L338.72507,-68.936844 L338.99802,-66.89945 L339.27097,-64.92227 L339.5439,-187.59163 L339.81686,-182.04747 L340.08978,-176.66714 L340.36273,-171.44585 L340.63568,-166.37886 L340.90863,-161.46162 L341.18158,-156.68971 L341.45453,-152.05882 L341.72748,-147.5648 L342.00043,-143.20361 L342.27335,-138.9713 L342.5463,-134.86407 L342.81924,-130.87825 L343.0922,-127.01021 L343.36514,-123.256485 L343.6381,-119.61371 L343.91104,-116.07859 L344.184,-112.64795 L344.4569,-109.318695 L344.72986,-106.087845 L345.0028,-102.95247 L345.27576,-99.90977 L345.5487,-96.956985 L345.82166,-94.09148 L346.0946,-91.31065 L346.36752,-108.205574 L346.64047,-105.007614 L346.91342,-101.90417 L347.18637,-98.89245 L347.45932,-95.969734 L347.73227,-93.1334 L348.00522,-90.38089 L348.27817,-87.70973 L348.5511,-85.117516 L348.82404,-82.60191 L349.097,-80.16066 L349.36993,-77.79155 L349.64288,-75.49246 L349.91583,-73.26133 L350.18878,-71.09613 L350.46173,-68.99492 L350.73465,-66.95581 L351.0076,-73.75874 L351.28055,-71.57885 L351.5535,-69.46337 L351.82645,-67.410416 L352.0994,-65.41814 L352.37234,-63.48474 L352.64526,-61.608482 L352.9182,-59.787678 L353.19116,-58.020683 L353.4641,-56.305916 L353.73706,-54.641823 L354.01,-53.026913 L354.28296,-94.503265 L354.5559,-91.71027 L354.82883,-88.999825 L355.10178,-86.369484 L355.37473,-83.81688 L355.64767,-81.339714 L355.92062,-78.93577 L356.19357,-76.60286 L356.46652,-74.338905 L356.73947,-72.14186 L357.0124,-70.00974 L357.28534,-67.94064 L357.5583,-65.93269 L357.83124,-63.98409 L358.1042,-69.68316 L358.37714,-67.62371 L358.6501,-65.62513 L358.92303,-63.68561 L359.19595,-61.803417 L359.4689,-59.97685 L359.74185,-58.204266 L360.0148,-56.48407 L360.28775,-54.814713 L360.5607,-53.194695 L360.83365,-51.622555 L361.10657,-50.096878 L361.37952,-48.61629 L361.65247,-47.179462 L361.9254,-45.7851 L362.19836,-44.431942 L362.4713,-83.02335 L362.74426,-80.56965 L363.0172,-78.18845 L363.29013,-75.87763 L363.56308,-73.63511 L363.83603,-79.98451 L364.10898,-77.62061 L364.38193,-75.32658 L364.65488,-73.10034 L364.92783,-70.939896 L365.20078,-68.84331 L365.4737,-97.22721 L365.74664,-94.353714 L366.0196,-91.56514 L366.29254,-88.85898 L366.5655,-86.2328 L366.83844,-83.684235 L367.1114,-81.211 L367.3843,-78.810844 L367.65726,-76.481636 L367.9302,-74.22126 L368.20316,-72.027695 L368.4761,-69.89895 L368.74905,-67.83312 L369.022,-65.828354 L369.29495,-63.88283 L369.56787,-61.99481 L369.84082,-60.162586 L370.11377,-58.38451 L370.38672,-56.65899 L370.65967,-54.984463 L370.93262,-53.359425 L371.20557,-51.782417 L371.47852,-50.252014 L371.75143,-48.76684 L372.02438,-47.325565 L372.29733,-45.926884 L372.57028,-44.56954 L372.84323,-43.25231 L373.11618,-41.97401 L373.38913,-40.73349 L373.66208,-39.529636 L373.935,-38.36136 L374.20795,-37.227608 L374.4809,-36.127365 L374.75385,-35.059643 L375.0268,-34.02347 L375.29974,-33.017925 L375.5727,-32.0421 L375.8456,-31.095112 L376.11856,-30.176113 L376.3915,-48.6748 L376.66446,-47.236244 L376.9374,-45.840202 L377.21036,-44.48542 L377.4833,-43.170677 L377.75626,-41.89479 L378.02917,-40.656612 L378.30212,-39.45503 L378.57507,-38.288956 L378.84802,-53.285988 L379.12097,-51.711147 L379.39392,-114.96643 L379.66687,-111.56866 L379.93982,-108.27131 L380.21274,-105.0714 L380.4857,-101.96608 L380.75864,-98.95252 L381.0316,-96.02804 L381.30453,-93.18998 L381.57748,-90.4358 L381.85043,-87.763016 L382.12335,-85.16923 L382.3963,-82.6521 L382.66925,-80.20936 L382.9422,-77.83881 L383.21515,-85.133255 L383.4881,-82.61719 L383.76105,-80.17548 L384.034,-91.26112 L384.30692,-109.909424 L384.57986,-106.66111 L384.8528,-103.5088 L385.12576,-100.449646 L385.3987,-97.48091 L385.67166,-94.599915 L385.9446,-91.80407 L386.21756,-89.09084 L386.49048,-86.45782 L386.76343,-83.9026 L387.03638,-81.422905 L387.30933,-79.016495 L387.58228,-76.681206 L387.85522,-74.41493 L388.12817,-72.21564 L388.40112,-70.081345 L388.67404,-68.010124 L388.947,-66.00012 L389.21994,-64.04952 L389.4929,-62.156574 L389.76584,-60.31957 L390.0388,-75.471 L390.31174,-73.2405 L390.58466,-71.07591 L390.8576,-68.9753 L391.13055,-66.936775 L391.4035,-87.12665 L391.67645,-84.55167 L391.9494,-82.05279 L392.22235,-79.62776 L392.4953,-77.27441 L392.76822,-74.9906 L393.04117,-72.77429 L393.31412,-70.62349 L393.58707,-68.53625 L393.86002,-66.5107 L394.13297,-64.54501 L394.4059,-62.637417 L394.67886,-60.7862 L394.95178,-58.989697 L395.22473,-57.24629 L395.49768,-55.554405 L395.77063,-53.912525 L396.04358,-52.319168 L396.31653,-50.772903 L396.58948,-66.84341 L396.8624,-64.86788 L397.13535,-62.95075 L397.4083,-119.63882 L397.68124,-116.10295 L397.9542,-112.67159 L398.22714,-109.341644 L398.5001,-106.11011 L398.77304,-102.97408 L399.04596,-99.93074 L399.3189,-96.97734 L399.59186,-94.11122 L399.8648,-91.32982 L400.13776,-88.630615 L400.4107,-86.011185 L400.68365,-109.90733 L400.9566,-106.65908 L401.22952,-103.50683 L401.50247,-100.44774 L401.77542,-97.47906 L402.04837,-94.598114 L402.32132,-91.80232 L402.59427,-94.20408 L402.86722,-91.41993 L403.14017,-88.71806 L403.4131,-86.09605 L403.68604,-96.9686 L403.95898,-94.102745 L404.23193,-91.32159 L404.50488,-88.62263 L404.77783,-86.00343 L405.05078,-83.46165 L405.3237,-80.99498 L405.59665,-78.60122 L405.8696,-76.278206 L406.14255,-74.02384 L406.4155,-71.836105 L406.68845,-69.71303 L406.9614,-67.652695 L407.23434,-65.65326 L407.50726,-63.71291 L407.7802,-61.82991 L408.05316,-60.00256 L408.3261,-58.229218 L408.59906,-56.50828 L408.872,-54.83821 L409.14496,-53.217495 L409.4179,-51.64468 L409.69083,-50.11835 L409.96378,-48.63713 L410.23672,-47.199684 L410.50967,-45.80472 L410.78262,-44.45099 L411.05557,-43.137264 L411.32852,-41.862366 L411.60144,-40.625145 L411.8744,-39.42449 L412.14734,-38.25932 L412.4203,-37.128586 L412.69324,-36.031273 L412.9662,-34.966385 L413.23914,-33.932972 L413.5121,-32.930103 L413.785,-31.956871 L414.05795,-47.97499 L414.3309,-55.636574 L414.60385,-53.992264 L414.8768,-52.39655 L415.14975,-50.848 L415.4227,-49.345215 L415.69565,-47.88684 L415.96857,-46.471573 L416.24152,-45.09813 L416.51447,-43.765278 L416.7874,-42.471817 L417.06036,-41.216587 L417.3333,-39.99845 L417.60626,-38.81632 L417.8792,-37.669125 L418.15213,-36.555832 L418.42508,-35.475445 L418.69803,-34.426987 L418.97098,-33.409515 L419.24393,-32.422115 L419.51688,-31.463898 L419.78983,-30.533998 L420.06274,-29.631582 L420.3357,-28.755836 L420.60864,-27.905973 L420.8816,-27.081226 L421.15454,-26.280855 L421.4275,-25.504139 L421.70044,-24.750378 L421.9734,-116.87032 L422.2463,-113.41628 L422.51926,-110.06432 L422.7922,-106.81143 L423.06516,-103.65468 L423.3381,-100.59122 L423.61105,-97.6183 L423.884,-94.733246 L424.15695,-91.93345 L424.42987,-89.21641 L424.70282,-86.579666 L424.97577,-84.02085 L425.24872,-81.53766 L425.52167,-79.12785 L425.79462,-76.789276 L426.06757,-74.519806 L426.34048,-72.31741 L426.61343,-70.180115 L426.88638,-68.10598 L427.15933,-66.09314 L427.43228,-64.13979 L427.70523,-62.244175 L427.97818,-60.404583 L428.25113,-58.619358 L428.52405,-56.886894 L428.797,-55.20563 L429.06995,-53.57406 L429.3429,-51.990707 L429.61584,-50.454147 L429.8888,-48.963 L430.16174,-98.73455 L430.4347,-95.8165 L430.7076,-92.984695 L430.98056,-90.23658 L431.2535,-87.56969 L431.52646,-84.98161 L431.7994,-82.470024 L432.07236,-80.03267 L432.3453,-77.66734 L432.61826,-75.371925 L432.89117,-73.14435 L433.16412,-70.98261 L433.43707,-68.88476 L433.71002,-90.83478 L433.98297,-88.15021 L434.25592,-85.544975 L434.52887,-83.01674 L434.8018,-80.56322 L435.07474,-78.18222 L435.3477,-75.87158 L435.62064,-73.62924 L435.8936,-71.45316 L436.16653,-118.36567 L436.43948,-114.86743 L436.71243,-111.47259 L436.98535,-108.17808 L437.2583,-104.980934 L437.53125,-101.87827 L437.8042,-98.86732 L438.07715,-95.94534 L438.3501,-93.10973 L438.62305,-90.357925 L438.896,-87.68745 L439.1689,-85.09589 L439.44186,-82.580925 L439.7148,-80.14029 L439.98776,-77.77179 L440.2607,-75.47328 L440.53366,-119.645584 L440.8066,-134.62704 L441.07953,-130.64822 L441.35248,-126.78698 L441.62543,-123.03986 L441.89838,-119.40348 L442.17133,-115.87458 L442.44427,-112.44997 L442.71722,-109.126564 L442.99017,-105.90139 L443.2631,-102.77153 L443.53604,-99.73418 L443.809,-96.78658 L444.08194,-93.92611 L444.3549,-91.15017 L444.62784,-88.456276 L444.9008,-85.841995 L445.17374,-83.304985 L445.44666,-80.84295 L445.7196,-78.45368 L445.99255,-76.135025 L446.2655,-73.884895 L446.53845,-71.70126 L446.8114,-69.58217 L447.08435,-67.52571 L447.3573,-65.53002 L447.63022,-63.593315 L447.90317,-61.71385 L448.17612,-59.88993 L448.44907,-58.119915 L448.72202,-56.40221 L448.99496,-54.735275 L449.2679,-53.117603 L449.54083,-51.54774 L449.81378,-50.024273 L450.08673,-48.545834 L450.35968,-47.111088 L450.63263,-45.718746 L450.90558,-44.36755 L451.17853,-43.056293 L451.45148,-41.783787 L451.7244,-40.54889 L451.99734,-39.350487 L452.2703,-38.187504 L452.54324,-37.058895 L452.8162,-35.96364 L453.08914,-34.900753 L453.3621,-33.869278 L453.63504,-32.86829 L453.90796,-31.896885 L454.1809,-30.95419 L454.45386,-30.039356 L454.7268,-29.151558 L454.99976,-28.289999 L455.2727,-27.453903 L455.54565,-26.642519 L455.81857,-25.855112 L456.09152,-25.090979 L456.36447,-24.349428 L456.63742,-23.629793 L456.91037,-22.931429 L457.18332,-22.253702 L457.45627,-21.596006 L457.72922,-20.957747 L458.00214,-20.338352 L458.2751,-19.737263 L458.54803,-28.868753 L458.82098,-28.015553 L459.09393,-27.187567 L459.36688,-26.384054 L459.63983,-25.604286 L459.91278,-24.847567 L460.1857,-24.113209 L460.45865,-23.400557 L460.7316,-22.708965 L461.00455,-43.569595 L461.2775,-46.420597 L461.55045,-45.04866 L461.8234,-43.717274 L462.09634,-42.425232 L462.36926,-41.171375 L462.6422,-39.95458 L462.91516,-38.773743 L463.1881,-37.627804 L463.46106,-36.515736 L463.734,-35.43653 L464.00696,-34.389225 L464.27988,-33.372868 L464.55283,-32.38655 L464.82578,-31.429384 L465.09872,-30.500505 L465.37167,-29.59908 L465.64462,-28.724295 L465.91757,-27.875362 L466.19052,-27.051521 L466.46344,-26.252028 L466.7364,-25.476164 L467.00934,-24.723228 L467.2823,-48.86925 L467.55524,-47.424946 L467.8282,-46.023327 L468.10114,-44.66313 L468.37408,-43.34314 L468.647,-42.062157 L468.91995,-40.81903 L469.1929,-39.612644 L469.46585,-38.441914 L469.7388,-37.305786 L470.01175,-36.20323 L470.2847,-35.133266 L470.55762,-34.09492 L470.83057,-56.10935 L471.10352,-54.451065 L471.37646,-52.841793 L471.6494,-51.280083 L471.92236,-49.764526 L472.1953,-48.293762 L472.46826,-46.866467 L472.74118,-45.481354 L473.01413,-44.137177 L473.28708,-42.832726 L473.56003,-59.046654 L473.83298,-57.30156 L474.10593,-55.608044 L474.37888,-53.964577 L474.65182,-52.369682 L474.92474,-50.821926 L475.1977,-49.319912 L475.47064,-47.862286 L475.7436,-46.447742 L476.01654,-45.075005 L476.2895,-43.742836 L476.56244,-42.45004 L476.83536,-137.45445 L477.1083,-133.39206 L477.38126,-129.44972 L477.6542,-141.53427 L477.92715,-137.3513 L478.2001,-133.29196 L478.47305,-129.35258 L478.746,-125.52964 L479.01892,-121.81968 L479.29187,-118.21936 L479.56482,-114.72545 L479.83777,-111.3348 L480.11072,-108.044365 L480.38367,-104.851166 L480.65662,-101.75235 L480.92957,-98.74511 L481.20248,-95.82675 L481.47543,-92.994644 L481.74838,-90.24624 L482.02133,-87.579056 L482.29428,-84.99071 L482.56723,-82.47885 L482.84018,-80.04123 L483.11313,-77.67566 L483.38605,-75.37999 L483.659,-73.152176 L483.93195,-70.990204 L484.2049,-68.89213 L484.47784,-66.85606 L484.7508,-64.880165 L485.02374,-62.96266 L485.29666,-61.101833 L485.5696,-59.296 L485.84256,-57.54354 L486.1155,-55.842873 L486.38846,-65.489334 L486.6614,-63.553833 L486.93436,-61.675533 L487.2073,-59.852745 L487.48022,-58.08383 L487.75317,-56.367195 L488.02612,-54.70129 L488.29907,-53.084625 L488.57202,-51.515736 L488.84497,-49.993217 L489.11792,-48.515694 L489.39087,-47.081837 L489.6638,-45.69036 L489.93674,-53.58919 L490.2097,-52.00539 L490.48264,-50.4684 L490.75558,-48.976833 L491.02853,-47.529346 L491.30148,-46.12464 L491.5744,-44.761456 L491.84735,-88.051186 L492.1203,-85.44888 L492.39325,-82.923485 L492.6662,-80.472725 L492.93915,-78.0944 L493.2121,-75.78636 L493.48505,-73.54653 L493.75797,-71.3729 L494.0309,-69.26352 L494.30386,-67.21647 L494.5768,-65.22992 L494.84976,-63.302086 L495.1227,-61.43123 L495.39566,-59.61566 L495.6686,-57.853752 L495.94153,-56.143913 L496.21448,-54.48461 L496.48743,-52.874348 L496.76038,-51.311676 L497.03333,-49.795185 L497.30627,-48.323517 L497.57922,-46.89534 L497.85217,-45.509373 L498.1251,-44.164368 L498.39804,-42.85911 L498.671,-41.592434 L498.94394,-40.363194 L499.2169,-39.17028 L499.48984,-38.012623 L499.7628,-36.88918 L500.0357,-35.79894 L500.30865,-34.74092 L500.5816,-33.714172 L500.85455,-32.71777 L501.1275,-31.750813 L501.40045,-30.812433 L501.6734,-29.901789 L501.94635,-29.018057 L502.21927,-47.72543 L502.49222,-46.31493 L502.76517,-44.946117 L503.03812,-43.61776 L503.31107,-42.32866 L503.584,-41.07766 L503.85696,-39.86363 L504.1299,-38.685482 L504.40283,-37.542152 L504.67578,-36.432613 L504.94873,-35.35587 L505.22168,-34.310944 L505.49463,-33.2969 L505.76758,-32.31283 L506.04053,-69.896164 L506.31345,-67.830414 L506.5864,-65.82573 L506.85934,-63.880283 L507.1323,-61.992332 L507.40524,-60.160183 L507.6782,-58.382183 L507.95114,-56.656727 L508.2241,-54.98227 L508.497,-53.357296 L508.76996,-71.148605 L509.0429,-69.045845 L509.31586,-81.17896 L509.5888,-78.77976 L509.86176,-76.45147 L510.1347,-74.191986 L510.40765,-71.99928 L510.68057,-69.87138 L510.95352,-67.80637 L511.22647,-65.80239 L511.49942,-63.857635 L511.77237,-61.97036 L512.0453,-60.13886 L512.31824,-58.361485 L512.5912,-56.636642 L512.86414,-54.962776 L513.1371,-53.338383 L513.41003,-51.761993 L513.683,-50.232197 L513.95593,-48.747612 L514.2289,-47.3069 L514.50183,-45.90877 L514.7748,-44.55196 L515.0477,-43.235252 L515.3207,-41.95746 L515.5936,-40.717426 L515.8665,-39.514046 L516.13947,-38.34623 L516.4124,-37.212925 L516.68536,-36.113117 L516.9583,-35.045815 L517.23126,-34.010056 L517.5042,-33.004906 L517.77716,-32.02946 L518.0501,-31.08285 L518.32306,-90.42446 L518.596,-87.752014 L518.86896,-85.15855 L519.1419,-82.64173 L519.41486,-80.1993 L519.6878,-77.829056 L519.96075,-75.528854 L520.23364,-73.29664 L520.5066,-71.1304 L520.77954,-69.028175 L521.0525,-66.98809 L521.32544,-65.00829 L521.5984,-63.087006 L521.87134,-61.2225 L522.1443,-59.413105 L522.41724,-57.65718 L522.6902,-55.95315 L522.96313,-54.299488 L523.2361,-52.694695 L523.50903,-51.137333 L523.782,-49.625996 L524.05493,-48.159325 L524.3278,-46.736004 L524.60077,-45.354744 L524.8737,-44.01431 L525.14667,-42.71349 L525.4196,-41.451115 L525.69257,-40.22605 L525.9655,-45.516216 L526.23846,-44.17101 L526.5114,-42.86556 L526.78436,-41.59869 L527.0573,-40.369263 L527.33026,-39.17617 L527.6032,-38.018337 L527.87616,-36.894726 L528.1491,-35.80432 L528.422,-34.746147 L528.69495,-33.719242 L528.9679,-32.722687 L529.24084,-31.755587 L529.5138,-30.817066 L529.78674,-29.906284 L530.0597,-29.02242 L530.33264,-28.164679 L530.6056,-27.332287 L530.87854,-26.524494 L531.1515,-25.740578 L531.42444,-24.979828 L531.6974,-24.241564 L531.97034,-23.525116 L532.2433,-22.829844 L532.51624,-22.15512 L532.7891,-70.60001 L533.0621,-68.513466 L533.335,-66.48859 L533.608,-64.52355 L533.8809,-62.616592 L534.1539,-60.76599 L534.4268,-58.970085 L534.69977,-57.227257 L534.9727,-55.535934 L535.24567,-53.8946 L535.5186,-52.301773 L535.79156,-50.756023 L536.0645,-49.25596 L536.33746,-47.800224 L536.6104,-46.387512 L536.8833,-45.016556 L537.15625,-43.686115 L537.4292,-42.394997 L537.70215,-56.959965 L537.9751,-55.276543 L538.24805,-53.64287 L538.521,-52.057487 L538.79395,-50.518955 L539.0669,-49.025894 L539.33984,-47.57696 L539.6128,-46.17085 L539.88574,-44.806293 L540.1587,-43.482067 L540.43164,-42.19698 L540.7046,-40.94987 L540.97754,-39.739616 L541.2504,-38.565136 L541.5234,-37.42536 L541.7963,-36.319275 L542.0693,-35.24588 L542.3422,-34.204205 L542.6152,-33.193317 L542.8881,-54.518513 L543.1611,-52.907246 L543.434,-51.3436 L543.707,-49.826168 L543.9799,-48.353584 L544.25287,-46.92452 L544.5258,-45.53769 L544.79877,-44.19185 L545.0717,-42.88578 L545.3446,-41.618313 L545.61755,-65.46409 L545.8905,-63.52933 L546.16345,-61.651756 L546.4364,-59.82967 L546.70935,-58.06144 L546.9823,-56.345463 L547.25525,-92.60479 L547.5282,-89.867905 L547.80115,-87.21191 L548.0741,-84.63441 L548.34705,-82.13308 L548.62,-79.70568 L548.89294,-77.35002 L549.1659,-75.06399 L549.43884,-72.84551 L549.71173,-70.6926 L549.9847,-68.60332 L550.2576,-66.57578 L550.5306,-64.60817 L550.8035,-62.69871 L551.0765,-60.845684 L551.3494,-59.04742 L551.6224,-57.302307 L551.8953,-55.60877 L552.1683,-53.96528 L552.4412,-52.370365 L552.7142,-50.822586 L552.9871,-49.320553 L553.2601,-47.86291 L553.533,-46.44835 L553.8059,-83.57153 L554.07886,-81.10162 L554.3518,-78.704704 L554.62476,-76.37863 L554.8977,-74.1213 L555.17065,-71.93069 L555.4436,-69.80481 L555.71655,-67.74177 L555.9895,-65.73969 L556.26245,-63.796795 L556.5354,-61.911316 L556.80835,-60.08156 L557.0813,-58.30588 L557.35425,-56.58268 L557.6272,-54.910408 L557.9001,-53.287563 L558.17303,-51.712677 L558.446,-50.184338 L558.71893,-48.701164 L558.9919,-47.26183 L559.26483,-45.86503 L559.5378,-44.509514 L559.8107,-43.194057 L560.0837,-41.91748 L560.3566,-40.67863 L560.6296,-39.4764 L560.9025,-38.309692 L561.1755,-37.17747 L561.4484,-36.07871 L561.7214,-35.012424 L561.9943,-33.97765 L562.2672,-32.973457 L562.54016,-31.998945 L562.8131,-31.053234 L563.08606,-30.135471 L563.359,-29.244835 L563.63196,-28.380518 L563.9049,-27.541748 L564.17786,-26.727766 L564.4508,-25.937841 L564.72375,-25.171263 L564.9967,-24.42734 L565.26965,-23.705402 L565.5426,-23.0048 L565.81555,-22.324907 L566.0885,-21.665106 L566.3614,-21.024805 L566.63434,-20.403429 L566.9073,-19.800415 L567.18024,-19.215225 L567.4532,-18.64733 L567.72614,-32.921375 L567.9991,-31.9484 L568.27203,-31.004183 L568.545,-30.087872 L568.81793,-29.19864 L569.0909,-28.33569 L569.36383,-27.498243 L569.6368,-26.685547 L569.9097,-25.89687 L570.1827,-25.131502 L570.4556,-24.388754 L570.7285,-23.667957 L571.00146,-22.968464 L571.2744,-22.289642 L571.54736,-21.630884 L571.8203,-20.991596 L572.09326,-20.3712 L572.3662,-19.76914 L572.63916,-19.184874 L572.9121,-76.18152 L573.18506,-73.930016 L573.458,-71.745056 L573.73096,-69.624664 L574.0039,-67.56695 L574.27686,-65.570045 L574.5498,-88.25117 L574.8227,-85.64295 L575.09564,-83.11182 L575.3686,-80.655495 L575.64154,-78.27177 L575.9145,-75.95848 L576.18744,-73.71357 L576.4604,-71.535 L576.73334,-69.42083 L577.0063,-67.36913 L577.27924,-65.378075 L577.5522,-63.445858 L577.82513,-61.57075 L578.0981,-59.75106 L578.37103,-57.98515 L578.644,-56.271427 L578.91693,-54.608356 L579.1898,-52.994434 L579.46277,-51.428215 L579.7357,-49.90828 L580.00867,-48.433266 L580.2816,-47.001846 L580.55457,-45.612732 L580.8275,-44.264675 L581.10046,-42.956455 L581.3734,-41.6869 L581.64636,-40.454865 L581.9193,-39.259243 L582.19226,-38.098957 L582.4652,-36.97296 L582.73816,-69.87714 L583.0111,-67.81195 L583.284,-65.80781 L583.55695,-63.862892 L583.8299,-115.30123 L584.10284,-111.89356 L584.3758,-137.06389 L584.64874,-133.01303 L584.9217,-129.08191 L585.19464,-125.26696 L585.4676,-121.56476 L585.74054,-117.97198 L586.0135,-114.48538 L586.28644,-111.10182 L586.5594,-107.81827 L586.83234,-104.63176 L587.1053,-101.53942 L587.3782,-98.53848 L587.6511,-95.62623 L587.9241,-92.80004 L588.197,-90.05739 L588.47,-87.39579 L588.7429,-84.81286 L589.01587,-100.35708 L589.2888,-97.39108 L589.56177,-94.51274 L589.8347,-91.71947 L590.10767,-89.00874 L590.3806,-86.37814 L590.65356,-83.82528 L590.9265,-81.34787 L591.19946,-78.94367 L591.4724,-76.610535 L591.7453,-74.34635 L592.01825,-72.149086 L592.2912,-70.01676 L592.56415,-67.94745 L592.8371,-65.9393 L593.11005,-63.9905 L593.383,-62.099297 L593.65594,-60.263985 L593.9289,-58.482914 L594.20184,-56.754482 L594.4748,-55.077133 L594.74774,-53.44936 L595.0207,-51.86969 L595.29364,-50.33671 L595.5666,-48.849037 L595.8395,-47.405327 L596.1124,-46.004288 L596.3854,-44.644657 L596.6583,-43.325207 L596.9313,-42.044754 L597.2042,-40.802143 L597.4772,-39.59626 L597.7501,-38.426014 L598.0231,-37.29035 L598.296,-36.188255 L598.569,-35.118732 L598.8419,-34.080814 L599.11487,-33.073574 L599.3878,-32.096104 L599.66077,-31.14752 L599.9337,-30.226973 L600.2066,-29.33363 L600.47955,-28.46669 L600.7525,-27.625372 L601.02545,-26.80892 L601.2984,-26.016596 L601.57135,-25.247688 L601.8443,-24.501507 L602.11725,-23.777378 L602.3902,-23.07465 L602.66315,-22.39269 L602.9361,-21.730888 L603.20905,-40.3227 L603.482,-39.130985 L603.75494,-37.974487 L604.0279,-36.852173 L604.3008,-35.763027 L604.5737,-34.70607 L604.8467,-135.07118 L605.1196,-131.07922 L605.3926,-127.20525 L605.6655,-123.44577 L605.9385,-119.79739 L606.2114,-116.25684 L606.4844,-112.82094 L606.7573,-109.48657 L607.0303,-106.250755 L607.3032,-103.11057 L607.5762,-100.063194 L607.8491,-97.10588 L608.1221,-94.23597 L608.395,-91.450874 L608.6679,-88.74809 L608.94086,-86.12519 L609.2138,-83.5798 L609.48676,-81.10965 L609.7597,-78.712494 L610.03265,-76.38619 L610.3056,-74.12864 L610.57855,-117.66317 L610.8515,-114.1857 L611.12445,-110.811005 L611.3974,-107.53604 L611.67035,-104.35787 L611.9433,-101.27363 L612.21625,-98.28054 L612.4892,-95.375916 L612.7621,-92.55713 L613.03503,-89.821655 L613.308,-87.16702 L613.58093,-84.59084 L613.8539,-82.09081 L614.12683,-79.66466 L614.3998,-77.31021 L614.6727,-82.199524 L614.9457,-79.77016 L615.2186,-77.41259 L615.4916,-75.1247 L615.7645,-72.904434 L616.0375,-70.74979 L616.3104,-68.65881 L616.5834,-66.62964 L616.85626,-64.66043 L617.1292,-62.749428 L617.40216,-60.8949 L617.6751,-59.09519 L617.94806,-85.573944 L618.221,-83.04485 L618.49396,-80.59051 L618.7669,-78.208694 L619.03986,-75.89728 L619.3128,-73.654175 L619.58575,-71.47736 L619.8587,-69.36489 L620.13165,-67.31485 L620.4046,-65.32539 L620.67755,-63.394737 L620.9505,-61.521137 L621.2234,-59.702915 L621.49634,-57.938427 L621.7693,-56.226086 L622.04224,-54.564354 L622.3152,-52.951733 L622.58813,-51.386776 L622.8611,-49.868065 L623.13403,-48.39424 L623.407,-46.963974 L623.67993,-45.57598 L623.9529,-44.229008 L624.2258,-42.92184 L624.4988,-110.79516 L624.7717,-107.52067 L625.0447,-104.34296 L625.31757,-101.259155 L625.5905,-98.266495 L625.86346,-95.36228 L626.1364,-92.5439 L626.40936,-89.808815 L626.6823,-160.785 L626.95526,-156.03308 L627.2282,-151.42162 L627.50116,-164.0573 L627.7741,-159.20866 L628.04706,-154.50334 L628.32,-149.93707 L628.59296,-145.50577 L628.8659,-141.20543 L629.13885,-137.03217 L629.4118,-132.98225 L629.6847,-129.05203 L629.95764,-125.237976 L630.2306,-121.53664 L630.50354,-117.94469 L630.7765,-114.45889 L631.04944,-111.07612 L631.3224,-107.79333 L631.59534,-104.60755 L631.8683,-101.51593 L632.14124,-98.51568 L632.4142,-95.6041 L632.68713,-92.77857 L632.9601,-90.03655 L633.23303,-87.37557 L633.506,-273.40375 L633.7789,-265.32346 L634.0518,-257.48193 L634.32477,-249.87221 L634.5977,-242.48737 L634.87067,-235.32079 L635.1436,-228.366 L635.41656,-221.61676 L635.6895,-215.067 L635.96246,-208.71082 L636.2354,-202.54248 L636.50836,-196.55644 L636.7813,-190.74731 L637.05426,-185.10988 L637.3272,-179.63905 L637.60016,-174.32993 L637.8731,-169.17769 L638.146,-164.17773 L638.41895,-159.32555 L638.6919,-154.61678 L638.96484,-150.04715 L639.2378,-145.6126 L639.51074,-141.30908 L639.7837,-204.34647 L640.05664,-198.30711 L640.3296,-192.44624 L640.60254,-186.7586 L640.8755,-181.23906 L641.14844,-175.88263 L641.4214,-170.68451 L641.69434,-165.64001 L641.9673,-160.74461 L642.2402,-155.9939 L642.5131,-151.38358 L642.7861,-146.90952 L643.059,-142.56769 L643.332,-138.35417 L643.6049,-134.2652 L643.87787,-130.29706 L644.1508,-126.4462 L644.42377,-122.709145 L644.6967,-119.08254 L644.96967,-115.563126 L645.2426,-112.14771 L645.51556,-108.83325 L645.7885,-105.61674 L646.06146,-102.49529 L646.33435,-99.4661 L646.6073,-96.526436 L646.88025,-93.673645 L647.1532,-90.905174 L647.42615,-88.21852 L647.6991,-85.61127 L647.97205,-83.08107 L648.245,-80.625656 L648.51794,-78.242805 L648.7909,-75.93038 L649.06384,-73.6863 L649.3368,-71.50854 L649.60974,-75.42859 L649.8827,-73.19934 L650.15564,-71.03597 L650.4286,-68.93654 L650.7015,-66.899155 L650.9744,-64.92199 L651.2474,-120.749565 L651.5203,-117.18088 L651.7933,-113.71766 L652.0662,-110.3568 L652.3392,-107.09526 L652.6121,-103.930115 L652.8851,-100.85851 L653.158,-97.87769 L653.43097,-94.98497 L653.7039,-92.17774 L653.97687,-89.453476 L654.2498,-86.80973 L654.52277,-84.24411 L654.79565,-107.400696 L655.0686,-104.226524 L655.34155,-101.146164 L655.6145,-98.156845 L655.88745,-95.25587 L656.1604,-92.440636 L656.43335,-89.7086 L656.7063,-87.05731 L656.97925,-84.484375 L657.2522,-81.98749 L657.52515,-79.56439 L657.7981,-77.212906 L658.07104,-74.93092 L658.344,-72.71638 L658.61694,-70.56728 L658.8899,-68.481705 L659.1628,-66.45776 L659.4357,-64.493645 L659.7087,-62.587566 L659.9816,-60.737823 L660.2546,-58.94275 L660.5275,-57.20073 L660.8005,-55.510193 L661.0734,-53.869617 L661.3464,-52.27753 L661.6193,-50.732494 L661.8923,-49.233124 L662.1652,-47.778065 L662.4382,-46.36601 L662.7111,-44.995686 L662.9841,-43.665863 L663.25696,-42.375343 L663.5299,-41.122963 L663.80286,-39.907593 L664.0758,-38.728146 L664.34875,-58.641983 L664.6217,-56.90885 L664.89465,-55.22694 L665.1676,-53.594738 L665.44055,-52.010773 L665.7135,-84.253006 L665.98645,-81.762955 L666.2594,-79.3465 L666.53235,-77.00145 L666.8053,-74.725716 L667.07825,-72.517235 L667.3512,-70.37403 L667.6241,-68.29416 L667.89703,-66.275764 L668.17,-64.31702 L668.44293,-62.416164 L668.7159,-60.571487 L668.98883,-58.78133 L669.2618,-57.04408 L669.5347,-55.35817 L669.8077,-53.722088 L670.0806,-52.13436 L670.3536,-50.59356 L670.6265,-49.098293 L670.8995,-47.64722 L671.1724,-46.239033 L671.4454,-44.87246 L671.71826,-43.54628 L671.9912,-42.259293 L672.26416,-41.01034 L672.5371,-39.7983 L672.81006,-38.622086 L673.083,-37.48063 L673.35596,-36.37291 L673.6289,-35.297928 L673.90186,-34.254715 L674.1748,-33.242336 L674.44775,-32.259876 L674.7207,-31.306454 L674.99365,-30.381208 L675.2666,-29.483307 L675.53955,-28.611944 L675.81244,-27.766335 L676.0854,-26.945715 L676.35834,-26.149347 L676.6313,-25.376518 L676.90424,-24.62653 L677.1772,-23.898705 L677.45013,-23.19239 L677.7231,-22.506952 L677.99603,-21.841772 L678.269,-21.196249 L678.54193,-20.569805 L678.8149,-19.961876 L679.0878,-19.371914 L679.3608,-18.799387 L679.6337,-18.243782 L679.9067,-17.704596 L680.17957,-28.848715 L680.4525,-27.996107 L680.72546,-27.168697 L680.9984,-26.36574 L681.27136,-25.586515 L681.5443,-24.830318 L681.81726,-44.334026 L682.0902,-43.023758 L682.36316,-41.752216 L682.6361,-40.51825 L682.90906,-39.320755 L683.182,-38.15865 L683.45496,-37.03089 L683.7279,-35.936466 L684.00085,-34.874382 L684.27374,-33.84369 L684.5467,-32.843456 L684.81964,-87.640625 L685.0926,-85.05045 L685.36554,-82.53683 L685.6385,-80.097496 L685.91144,-77.730255 L686.1844,-144.65344 L686.45734,-140.3783 L686.7303,-162.97578 L687.00323,-158.15913 L687.2762,-153.48482 L687.54913,-148.94865 L687.8221,-144.54655 L688.09503,-140.27457 L688.368,-136.12881 L688.64087,-132.1056 L688.9138,-128.2013 L689.18677,-124.41238 L689.4597,-120.735435 L689.73267,-117.16716 L690.0056,-131.28648 L690.27856,-127.40637 L690.5515,-123.640945 L690.82446,-119.98681 L691.0974,-116.44066 L691.37036,-112.99932 L691.6433,-109.65968 L691.91626,-106.41875 L692.1892,-103.2736 L692.46216,-100.221405 L692.73505,-97.259415 L693.008,-94.384964 L693.28094,-98.3807 L693.5539,-95.473114 L693.82684,-92.65145 L694.0998,-89.91319 L694.37274,-94.273384 L694.6457,-91.48718 L694.91864,-99.73694 L695.1916,-96.78926 L695.46454,-93.92871 L695.7375,-91.152695 L696.01044,-88.458725 L696.2834,-85.844376 L696.55634,-83.30729 L696.8293,-80.84519 L697.1022,-78.45585 L697.3751,-76.13713 L697.6481,-73.88694 L697.921,-71.70325 L698.194,-69.5841 L698.4669,-134.58649 L698.73987,-130.60886 L699.0128,-126.74878 L699.28577,-123.002785 L699.5587,-119.3675 L699.83167,-115.83966 L700.1046,-121.0538 L700.37756,-117.47612 L700.6505,-114.00417 L700.92346,-110.63484 L701.19635,-107.36509 L701.4693,-104.19197 L701.74225,-117.47048 L702.0152,-113.9987 L702.28815,-110.62953 L702.5611,-107.35993 L702.83405,-104.18697 L703.107,-101.10778 L703.37994,-98.11959 L703.6529,-95.21972 L703.92584,-92.405556 L704.1988,-89.67455 L704.47174,-87.02427 L704.7447,-99.92322 L705.01764,-96.97004 L705.2905,-94.10414 L705.5635,-91.322945 L705.8364,-88.62394 L706.1094,-86.00471 L706.3823,-83.46288 L706.6553,-91.29844 L706.9282,-88.60016 L707.2012,-85.98163 L707.4741,-83.44049 L707.7471,-80.97445 L708.02,-78.58129 L708.29297,-76.258865 L708.5659,-74.00507 L708.83887,-71.817894 L709.1118,-69.69536 L709.38477,-67.635544 L709.65765,-65.63661 L709.9306,-63.69676 L710.20355,-61.814236 L710.4765,-59.98735 L710.74945,-58.214455 L711.0224,-72.84387 L711.29535,-122.049385 L711.5683,-118.442276 L711.84125,-114.94178 L712.1142,-111.54474 L712.38715,-108.24809 L712.6601,-105.048874 L712.93304,-101.944214 L713.206,-98.931305 L713.47894,-96.00745 L713.75183,-179.83575 L714.0248,-188.79686 L714.2977,-183.21707 L714.5707,-177.80219 L714.8436,-172.54733 L715.1166,-167.44778 L715.3895,-238.59955 L715.6625,-231.54787 L715.9354,-224.70459 L716.2084,-218.06357 L716.4813,-211.61882 L716.7543,-205.36453 L717.0272,-199.29509 L717.3002,-193.40503 L717.5731,-187.68906 L717.84607,-182.142 L718.11896,-176.7589 L718.3919,-203.44606 L718.66486,-197.43332 L718.9378,-291.74127 L719.21075,-283.11902 L719.4837,-274.7516 L719.75665,-266.63144 L720.0296,-258.7513 L720.30255,-251.10405 L720.5755,-243.6828 L720.84845,-236.48088 L721.1214,-229.49182 L721.39435,-222.7093 L721.6673,-216.12726 L721.94025,-209.73973 L722.21313,-237.07288 L722.4861,-230.06631 L722.75903,-223.26683 L723.032,-216.66829 L723.30493,-210.26477 L723.5779,-204.0505 L723.8508,-198.01991 L724.1238,-192.16754 L724.3967,-186.48813 L724.6697,-180.97658 L724.9426,-175.6279 L725.2156,-170.43732 L725.4885,-165.40013 L725.7615,-160.51183 L726.0344,-155.76797 L726.3073,-151.16434 L726.58026,-146.69676 L726.8532,-142.3612 L727.12616,-138.15381 L727.3991,-134.07074 L727.67206,-130.10835 L727.945,-126.26307 L728.21796,-122.53143 L728.4909,-118.91008 L728.76385,-115.39576 L729.0368,-111.9853 L729.30975,-108.67563 L729.5827,-105.46378 L729.85565,-102.346855 L730.1286,-99.322044 L730.40155,-96.386635 L730.67444,-93.53798 L730.9474,-90.77351 L731.22034,-88.09075 L731.4933,-85.48728 L731.76624,-98.53484 L732.0392,-95.6227 L732.31213,-92.79662 L732.5851,-90.05407 L732.85803,-87.39257 L733.131,-84.80973 L733.40393,-82.30322 L733.6769,-79.8708 L733.9498,-77.510254 L734.2228,-75.21948 L734.4957,-72.99641 L734.7686,-92.00309 L735.04156,-89.28399 L735.3145,-86.64525 L735.58746,-84.084496 L735.8604,-81.59943 L736.13336,-79.1878 L736.4063,-76.84744 L736.67926,-74.576256 L736.9522,-72.3722 L737.22516,-70.23328 L737.4981,-68.15757 L737.77106,-66.1432 L738.044,-64.18838 L738.31696,-62.29133 L738.5899,-60.45034 L738.86285,-58.66376 L739.13574,-56.929985 L739.4087,-87.411385 L739.68164,-115.92579 L739.9546,-112.499664 L740.22754,-109.1748 L740.5005,-105.94819 L740.77344,-102.81695 L741.0464,-99.77825 L741.31934,-96.82935 L741.5923,-93.96761 L741.86523,-91.19045 L742.1382,-88.49537 L742.41113,-85.87994 L742.6841,-83.3418 L742.95703,-80.87868 L743.2299,-78.48835 L743.50287,-101.21874 L743.7758,-98.22727 L744.04877,-95.32422 L744.3217,-92.506966 L744.59467,-89.77297 L744.8676,-87.119774 L745.14056,-113.035225 L745.4135,-109.69453 L745.68646,-106.45257 L745.9594,-103.30642 L746.23236,-100.25325 L746.5053,-97.29032 L746.77826,-94.414955 L747.0512,-113.94804 L747.32416,-110.58036 L747.59705,-107.31222 L747.87,-104.14066 L748.14294,-101.06284 L748.4159,-98.07598 L748.68884,-95.1774 L748.9618,-123.975845 L749.23474,-120.311806 L749.5077,-116.75605 L749.78064,-113.30539 L750.0536,-109.95671 L750.32654,-106.707 L750.5995,-103.55333 L750.87244,-100.49287 L751.1454,-97.52285 L751.41833,-136.66516 L751.6912,-132.6261 L751.9642,-128.7064 L752.2371,-124.90255 L752.5101,-121.21112 L752.783,-117.62879 L753.05597,-161.57112 L753.3289,-156.79597 L753.60187,-152.16196 L753.8748,-147.66489 L754.14777,-143.30074 L754.4207,-139.06555 L754.69366,-155.02792 L754.9666,-150.44615 L755.23956,-145.9998 L755.5125,-141.68484 L755.7854,-137.49744 L756.05835,-133.43376 L756.3313,-129.4902 L756.60425,-125.66319 L756.8772,-121.94928 L757.15015,-118.34514 L757.4231,-114.84751 L757.69604,-111.453255 L757.969,-108.15931 L758.24194,-104.96272 L758.5149,-101.8606 L758.78784,-98.85017 L759.0608,-95.9287 L759.33374,-111.644196 L759.6067,-108.34461 L759.87964,-105.14254 L760.1525,-102.03511 L760.4255,-99.019516 L760.6984,-96.09305 L760.9714,-93.25307 L761.2443,-90.497025 L761.5173,-87.82243 L761.7902,-112.086136 L762.0632,-108.77349 L762.3361,-105.55875 L762.6091,-102.43901 L762.882,-99.41148 L763.15497,-96.47343 L763.4279,-93.62221 L763.70087,-90.855255 L763.9738,-88.170074 L764.2467,-85.564255 L764.51965,-83.03545 L764.7926,-80.58138 L765.06555,-78.199844 L765.3385,-75.88869 L765.61145,-84.46627 L765.8844,-81.96992 L766.15735,-79.54734 L766.4303,-77.19636 L766.70325,-74.91486 L766.9762,-72.70079 L767.24915,-70.55216 L767.5221,-68.467026 L767.79504,-66.44352 L768.068,-64.47982 L768.34094,-62.574154 L768.61383,-60.724808 L768.8868,-58.93012 L769.1597,-57.18847 L769.4327,-55.498295 L769.7056,-53.858074 L769.9786,-52.266327 L770.2515,-50.721622 L770.5245,-93.55843 L770.7974,-90.793365 L771.0704,-88.110016 L771.3433,-85.505974 L771.6163,-82.97889 L771.8892,-80.52649 L772.1622,-78.146576 L772.4351,-75.83699 L772.708,-73.59567 L772.98096,-120.0344 L773.2539,-116.48685 L773.52686,-113.044136 L773.7998,-109.70318 L774.07275,-106.46096 L774.3457,-103.31457 L774.61865,-100.261154 L774.8916,-103.79186 L775.16455,-100.72435 L775.4375,-97.74749 L775.71045,-94.85862 L775.9834,-92.05512 L776.25635,-89.33448 L776.5293,-86.69425 L776.80225,-84.13205 L777.07513,-81.64557 L777.3481,-79.232574 L777.62103,-76.8909 L777.894,-74.61843 L778.16693,-72.413124 L778.4399,-70.272995 L778.7128,-68.19611 L778.9858,-66.18061 L779.2587,-94.248795 L779.5317,-91.463326 L779.8046,-88.76018 L780.0776,-239.44966 L780.3505,-232.37285 L780.6235,-225.5052 L780.8964,-218.84052 L781.1693,-212.3728 L781.44226,-206.09624 L781.7152,-200.00517 L781.98816,-194.09412 L782.2611,-188.35777 L782.53406,-182.79095 L782.807,-177.38867 L783.07996,-172.14604 L783.3529,-167.05836 L783.62585,-162.12103 L783.8988,-157.32964 L784.17175,-152.67984 L784.4447,-148.16747 L784.71765,-143.78847 L784.9906,-139.53886 L785.2635,-135.41487 L785.53644,-131.41277 L785.8094,-127.52892 L786.08234,-123.75987 L786.3553,-120.10222 L786.62823,-116.552666 L786.9012,-113.10801 L787.17413,-109.76517 L787.4471,-106.52111 L787.72003,-103.37294 L787.993,-130.01523 L788.2659,-126.1727 L788.5389,-122.44373 L788.8118,-118.824974 L789.0848,-115.31316 L789.3577,-111.90514 L789.6306,-108.59785 L789.90356,-105.3883 L790.1765,-102.273605 L790.44946,-99.25096 L790.7224,-96.31765 L790.99536,-93.47103 L791.2683,-90.70855 L791.54126,-88.0277 L791.8142,-85.426094 L792.08716,-82.901375 L792.3601,-96.5109 L792.63306,-93.65858 L792.906,-90.89054 L793.17896,-88.20432 L793.4519,-85.59749 L793.7248,-83.0677 L793.99774,-80.61268 L794.2707,-78.23022 L794.54364,-75.91817 L794.8166,-73.674446 L795.08954,-71.49703 L795.3625,-69.38398 L795.63544,-67.333374 L795.9084,-65.34337 L796.18134,-63.41218 L796.4543,-61.538067 L796.72723,-59.719345 L797.0002,-57.95437 L797.27313,-56.241558 L797.5461,-54.57937 L797.81903,-52.966305 L798.0919,-51.400913 L798.36487,-49.88179 L798.6378,-48.40756 L798.91077,-46.9769 L799.1837,-45.588524 L799.45667,-44.241177 L799.7296,-42.933655 L800.00256,-41.664772 L800.2755,-40.43339 L800.54846,-39.238403 L800.8214,-38.078735 L801.09436,-36.95334 L801.3673,-35.861202 L801.64026,-34.801342 L801.9132,-33.772808 L802.1861,-32.77467 L802.45905,-31.806032 L802.732,-30.866022 L803.00494,-29.953793 L803.2779,-29.068525 L803.55084,-28.209421 L803.8238,-27.375706 L804.09674,-97.94922 L804.3697,-95.05438 L804.64264,-92.2451 L804.9156,-89.51885 L805.18854,-86.87317 L805.4615,-84.30568 L805.73444,-81.814064 L806.0074,-79.396095 L806.28033,-77.04959 L806.5532,-74.77243 L806.8262,-72.56257 L807.0991,-70.41802 L807.3721,-68.33685 L807.645,-66.31719 L807.91797,-64.35722 L808.1909,-74.74825 L808.46387,-72.53911 L808.7368,-70.395256 L809.00977,-68.31476 L809.2827,-66.29575 L809.55566,-64.33642 L809.8286,-62.43499 L810.10156,-60.58976 L810.3745,-58.79906 L810.6474,-57.061287 L810.92035,-55.37487 L811.1933,-53.738297 L811.46625,-52.15009 L811.7392,-50.60882 L812.01215,-49.113102 L812.2851,-47.66159 L812.55804,-46.25298 L812.831,-44.885998 L813.10394,-43.559414 L813.3769,-42.27204 L813.64984,-41.022713 L813.9228,-39.810307 L814.19574,-38.633736 L814.4687,-37.491936 L814.7416,-36.38388 L815.0145,-35.308575 L815.2875,-34.26505 L815.5604,-33.252365 L815.8334,-32.269608 L816.1063,-31.315897 L816.3793,-30.390373 L816.6522,-29.4922 L816.9252,-28.620575 L817.1981,-27.77471 L817.47107,-26.953842 L817.744,-26.157236 L818.01697,-25.384172 L818.2899,-24.633957 L818.56287,-23.905914" fill="none" stroke="#0971B2" stroke-width="1.2"/>
</g>
<g>
<circle cx="11.736335598185821" cy="0" fill="#FF0000" r="1.2000000476837158"/>
<circle cx="13.77922573044369" cy="-7.7020861262459634" fill="#FF0000" r="1.2000000476837158"/>
<circle cx="13.875102310083046" cy="-13.435108508672643" fill="#FF0000" r="1.2000000476837158"/>
<circle cx="20.32687719861564" cy="-36.82557601545682" fill="#FF0000" r="1.2000000476837158"/>
<circle cx="21.668710535606873" cy="-142.89334418850763" fill="#FF0000" r="1.2000000476837158"/>
<circle cx="21.673725609246826" cy="-217.5935856419448" fill="#FF0000" r="1.2000000476837158"/>
<circle cx="22.23856529351588" cy="-227.55918828601526" fill="#FF0000" r="1.2000000476837158"/>
<circle cx="22.89531256385803" cy="-219.42530947878103" fill="#FF0000" r="1.2000000476837158"/>
<circle cx="26.67198585361202" cy="-225.28592326195397" fill="#FF0000" r="1.2000000476837158"/>
<circle cx="36.33262466155072" cy="-93.354647413493" fill="#FF0000" r="1.2000000476837158"/>
<circle cx="41.908901209866954" cy="-80.01937282361564" fill="#FF0000" r="1.2000000476837158"/>
<circle cx="46.59313399047732" cy="-64.77835133252823" fill="#FF0000" r="1.2000000476837158"/>
<circle cx="51.01606375594051" cy="-49.25135596675841" fill="#FF0000" r="1.2000000476837158"/>
<circle cx="53.340077969451876" cy="-48.401502563914015" fill="#FF0000" r="1.2000000476837158"/>
<circle cx="54.45971567606948" cy="-52.54762923927672" fill="#FF0000" r="1.2000000476837158"/>
<circle cx="69.18583158136674" cy="-15.246754826631607" fill="#FF0000" r="1.2000000476837158"/>
<circle cx="70.82195810946095" cy="-25.90575225668575" fill="#FF0000" r="1.2000000476837158"/>
<circle cx="75.5925270743056" cy="-33.65287218394711" fill="#FF0000" r="1.2000000476837158"/>
<circle cx="77.45550812252063" cy="-55.76498495644483" fill="#FF0000" r="1.2000000476837158"/>
<circle cx="83.29509611780814" cy="-36.409523926559466" fill="#FF0000" r="1.2000000476837158"/>
<circle cx="96.25437875010357" cy="-16.16131303705962" fill="#FF0000" r="1.2000000476837158"/>
<circle cx="97.21997463371099" cy="-28.748625537470854" fill="#FF0000" r="1.2000000476837158"/>
<circle cx="100.74771104567996" cy="-42.955115348921176" fill="#FF0000" r="1.2000000476837158"/>
<circle cx="111.4877067501387" cy="-37.5311477151983" fill="#FF0000" r="1.2000000476837158"/>
<circle cx="115.02096880500436" cy="-51.38129673503866" fill="#FF0000" r="1.2000000476837158"/>
<circle cx="115.8754575540428" cy="-70.93808124766777" fill="#FF0000" r="1.2000000476837158"/>
<circle cx="117.26787161955632" cy="-155.99559402029473" fill="#FF0000" r="1.2000000476837158"/>
<circle cx="120.27544581512964" cy="-171.34494538424963" fill="#FF0000" r="1.2000000476837158"/>
<circle cx="120.88144155434804" cy="-165.49578613745956" fill="#FF0000" r="1.2000000476837158"/>
<circle cx="125.26120473423508" cy="-113.31395263863551" fill="#FF0000" r="1.2000000476837158"/>
<circle cx="127.71417698347244" cy="-107.09397927562861" fill="#FF0000" r="1.2000000476837158"/>
<circle cx="133.5376327817946" cy="-83.2775767647866" fill="#FF0000" r="1.2000000476837158"/>
<circle cx="137.40121657693453" cy="-93.86222456048814" fill="#FF0000" r="1.2000000476837158"/>
<circle cx="139.46229673568075" cy="-93.48006309835922" fill="#FF0000" r="1.2000000476837158"/>
<circle cx="150.0024918855174" cy="-31.15874291823454" fill="#FF0000" r="1.2000000476837158"/>
<circle cx="150.18622590117602" cy="-70.9374633685788" fill="#FF0000" r="1.2000000476837158"/>
<circle cx="155.51494735743267" cy="-55.240038612646835" fill="#FF0000" r="1.2000000476837158"/>
<circle cx="158.3609384167164" cy="-46.696087512393156" fill="#FF0000" r="1.2000000476837158"/>
<circle cx="159.6732291855268" cy="-70.90899612733016" fill="#FF0000" r="1.2000000476837158"/>
<circle cx="159.85079559075967" cy="-108.23025674005586" fill="#FF0000" r="1.2000000476837158"/>
<circle cx="160.25601639911645" cy="-119.10767026244623" fill="#FF0000" r="1.2000000476837158"/>
<circle cx="162.65113197504732" cy="-106.68210765263674" fill="#FF0000" r="1.2000000476837158"/>
<circle cx="163.2876391174074" cy="-141.03056807177484" fill="#FF0000" r="1.2000000476837158"/>
<circle cx="165.60729111116467" cy="-143.73899334195758" fill="#FF0000" r="1.2000000476837158"/>
<circle cx="172.27817355380958" cy="-70.97956832143925" fill="#FF0000" r="1.2000000476837158"/>
<circle cx="174.28812927228228" cy="-86.06798593655714" fill="#FF0000" r="1.2000000476837158"/>
<circle cx="174.84035373566994" cy="-86.08890945186297" fill="#FF0000" r="1.2000000476837158"/>
<circle cx="181.13931766051425" cy="-57.685828915889374" fill="#FF0000" r="1.2000000476837158"/>
<circle cx="189.00922582684095" cy="-36.82942073573541" fill="#FF0000" r="1.2000000476837158"/>
<circle cx="190.08613610751576" cy="-103.02328006387594" fill="#FF0000" r="1.2000000476837158"/>
<circle cx="198.44210674738483" cy="-54.80133150602696" fill="#FF0000" r="1.2000000476837158"/>
<circle cx="199.97981540788726" cy="-57.28677873537478" fill="#FF0000" r="1.2000000476837158"/>
<circle cx="201.15817449062158" cy="-62.39240353271547" fill="#FF0000" r="1.2000000476837158"/>
<circle cx="205.24657668231785" cy="-108.31789734561036" fill="#FF0000" r="1.2000000476837158"/>
<circle cx="211.72063785872896" cy="-112.23816572257465" fill="#FF0000" r="1.2000000476837158"/>
<circle cx="225.7519786259677" cy="-26.84670608891926" fill="#FF0000" r="1.2000000476837158"/>
<circle cx="241.46345092707998" cy="-7.735355439018888" fill="#FF0000" r="1.2000000476837158"/>
<circle cx="246.23200470111024" cy="-32.65816639662774" fill="#FF0000" r="1.2000000476837158"/>
<circle cx="252.68862910627905" cy="-51.366972131212464" fill="#FF0000" r="1.2000000476837158"/>
<circle cx="257.8420025110813" cy="-43.647368602500066" fill="#FF0000" r="1.2000000476837158"/>
<circle cx="259.1197132143818" cy="-77.76334258600092" fill="#FF0000" r="1.2000000476837158"/>
<circle cx="260.3387884454702" cy="-77.5886433282973" fill="#FF0000" r="1.2000000476837158"/>
<circle cx="265.3060751808327" cy="-50.196879691153484" fill="#FF0000" r="1.2000000476837158"/>
<circle cx="265.88135998325004" cy="-107.6428761684815" fill="#FF0000" r="1.2000000476837158"/>
<circle cx="266.42454279569654" cy="-130.27865356914018" fill="#FF0000" r="1.2000000476837158"/>
<circle cx="271.19512533781193" cy="-95.69945530955219" fill="#FF0000" r="1.2000000476837158"/>
<circle cx="277.85407856355516" cy="-47.84267105101776" fill="#FF0000" r="1.2000000476837158"/>
<circle cx="294.35455719718396" cy="-8.81341671733709" fill="#FF0000" r="1.2000000476837158"/>
<circle cx="302.9418046881351" cy="-18.404461513091757" fill="#FF0000" r="1.2000000476837158"/>
<circle cx="304.7873127003395" cy="-21.127559559087924" fill="#FF0000" r="1.2000000476837158"/>
<circle cx="309.06761580816254" cy="-33.835437202687714" fill="#FF0000" r="1.2000000476837158"/>
<circle cx="315.66643497020306" cy="-30.8751701301304" fill="#FF0000" r="1.2000000476837158"/>
<circle cx="320.08291674184426" cy="-37.35394094536031" fill="#FF0000" r="1.2000000476837158"/>
<circle cx="329.00067066924044" cy="-36.90359601413892" fill="#FF0000" r="1.2000000476837158"/>
<circle cx="330.5279382744415" cy="-82.83130369624206" fill="#FF0000" r="1.2000000476837158"/>
<circle cx="338.40329929305557" cy="-39.129378634397916" fill="#FF0000" r="1.2000000476837158"/>
<circle cx="339.43051993182866" cy="-63.79362387309207" fill="#FF0000" r="1.2000000476837158"/>
<circle cx="346.3514611682598" cy="-88.76872997653741" fill="#FF0000" r="1.2000000476837158"/>
<circle cx="350.9493263612436" cy="-65.39453010691226" fill="#FF0000" r="1.2000000476837158"/>
<circle cx="354.15161968472813" cy="-52.20793049328556" fill="#FF0000" r="1.2000000476837158"/>
<circle cx="358.09820445560047" cy="-62.13389417056738" fill="#FF0000" r="1.2000000476837158"/>
<circle cx="362.3629747971472" cy="-43.6352713886534" fill="#FF0000" r="1.2000000476837158"/>
<circle cx="362.39553374030487" cy="-47.92909276449786" fill="#FF0000" r="1.2000000476837158"/>
<circle cx="363.8103096109049" cy="-71.661199076486" fill="#FF0000" r="1.2000000476837158"/>
<circle cx="365.2326852048228" cy="-68.60216711644713" fill="#FF0000" r="1.2000000476837158"/>
<circle cx="376.2371912536272" cy="-29.785236655253023" fill="#FF0000" r="1.2000000476837158"/>
<circle cx="378.70380255923743" cy="-37.751044374276496" fill="#FF0000" r="1.2000000476837158"/>
<circle cx="379.2326381047904" cy="-51.080336313744326" fill="#FF0000" r="1.2000000476837158"/>
<circle cx="383.0262056541005" cy="-77.12343914083114" fill="#FF0000" r="1.2000000476837158"/>
<circle cx="383.86551332441485" cy="-79.26008718179216" fill="#FF0000" r="1.2000000476837158"/>
<circle cx="384.10272454592337" cy="-90.57420139621715" fill="#FF0000" r="1.2000000476837158"/>
<circle cx="389.95599813071266" cy="-59.07189621268506" fill="#FF0000" r="1.2000000476837158"/>
<circle cx="391.2503724546999" cy="-66.0610785630322" fill="#FF0000" r="1.2000000476837158"/>
<circle cx="396.49288454581006" cy="-49.798171425834596" fill="#FF0000" r="1.2000000476837158"/>
<circle cx="397.313296155679" cy="-61.73153482686988" fill="#FF0000" r="1.2000000476837158"/>
<circle cx="400.4354506766642" cy="-85.7775115273678" fill="#FF0000" r="1.2000000476837158"/>
<circle cx="402.42015702005557" cy="-90.81039566040455" fill="#FF0000" r="1.2000000476837158"/>
<circle cx="403.66617143600837" cy="-83.7342065622457" fill="#FF0000" r="1.2000000476837158"/>
<circle cx="413.8505009765227" cy="-31.727689117492854" fill="#FF0000" r="1.2000000476837158"/>
<circle cx="414.21854248334597" cy="-47.13567636908581" fill="#FF0000" r="1.2000000476837158"/>
<circle cx="421.91382731405804" cy="-24.17661398928696" fill="#FF0000" r="1.2000000476837158"/>
<circle cx="430.04250877525703" cy="-48.1426830995614" fill="#FF0000" r="1.2000000476837158"/>
<circle cx="433.52719098989485" cy="-68.20584062747541" fill="#FF0000" r="1.2000000476837158"/>
<circle cx="435.96651787125785" cy="-70.88266212133138" fill="#FF0000" r="1.2000000476837158"/>
<circle cx="440.33074997280124" cy="-74.8944836752637" fill="#FF0000" r="1.2000000476837158"/>
<circle cx="440.6110759497681" cy="-118.63175601211272" fill="#FF0000" r="1.2000000476837158"/>
<circle cx="458.4362952760502" cy="-19.390640839324792" fill="#FF0000" r="1.2000000476837158"/>
<circle cx="460.863063707746" cy="-22.38319846204666" fill="#FF0000" r="1.2000000476837158"/>
<circle cx="461.1174834411937" cy="-43.03211014245258" fill="#FF0000" r="1.2000000476837158"/>
<circle cx="467.1989301424502" cy="-24.213380263946355" fill="#FF0000" r="1.2000000476837158"/>
<circle cx="470.58631752955256" cy="-33.98759149478037" fill="#FF0000" r="1.2000000476837158"/>
<circle cx="473.3481355025371" cy="-42.54626996547156" fill="#FF0000" r="1.2000000476837158"/>
<circle cx="476.617111967061" cy="-42.19566087528398" fill="#FF0000" r="1.2000000476837158"/>
<circle cx="477.6090692145616" cy="-126.2487204145433" fill="#FF0000" r="1.2000000476837158"/>
<circle cx="486.2622784453157" cy="-54.949273801427495" fill="#FF0000" r="1.2000000476837158"/>
<circle cx="489.8221522644395" cy="-44.90200756166599" fill="#FF0000" r="1.2000000476837158"/>
<circle cx="491.7813426088486" cy="-43.75490558756068" fill="#FF0000" r="1.2000000476837158"/>
<circle cx="502.1996798989565" cy="-28.221182363154604" fill="#FF0000" r="1.2000000476837158"/>
<circle cx="505.8390795754886" cy="-32.05985690360621" fill="#FF0000" r="1.2000000476837158"/>
<circle cx="508.7553840844262" cy="-51.86342109126389" fill="#FF0000" r="1.2000000476837158"/>
<circle cx="509.1439292243322" cy="-68.28347967306208" fill="#FF0000" r="1.2000000476837158"/>
<circle cx="518.224515089133" cy="-30.492680298283645" fill="#FF0000" r="1.2000000476837158"/>
<circle cx="525.9606443176835" cy="-39.0581164718997" fill="#FF0000" r="1.2000000476837158"/>
<circle cx="532.7481845407607" cy="-21.597367323187743" fill="#FF0000" r="1.2000000476837158"/>
<circle cx="537.5289876588002" cy="-41.93264969509443" fill="#FF0000" r="1.2000000476837158"/>
<circle cx="542.6729681245076" cy="-32.9831599261471" fill="#FF0000" r="1.2000000476837158"/>
<circle cx="545.5385690229128" cy="-40.74057273852136" fill="#FF0000" r="1.2000000476837158"/>
<circle cx="547.0289717425444" cy="-56.05719508354196" fill="#FF0000" r="1.2000000476837158"/>
<circle cx="553.7658970538906" cy="-45.27439954944272" fill="#FF0000" r="1.2000000476837158"/>
<circle cx="567.6356383524536" cy="-18.277133544929157" fill="#FF0000" r="1.2000000476837158"/>
<circle cx="572.664821945203" cy="-19.130837574177274" fill="#FF0000" r="1.2000000476837158"/>
<circle cx="574.5073421933644" cy="-63.92963348350017" fill="#FF0000" r="1.2000000476837158"/>
<circle cx="582.5885095400007" cy="-36.475198597010866" fill="#FF0000" r="1.2000000476837158"/>
<circle cx="583.5657204246262" cy="-63.80150174619999" fill="#FF0000" r="1.2000000476837158"/>
<circle cx="584.2625927775567" cy="-109.946250467367" fill="#FF0000" r="1.2000000476837158"/>
<circle cx="588.8305164555853" cy="-84.0002983051737" fill="#FF0000" r="1.2000000476837158"/>
<circle cx="603.1236795167152" cy="-21.287405590029508" fill="#FF0000" r="1.2000000476837158"/>
<circle cx="604.7921048941843" cy="-33.883065434735116" fill="#FF0000" r="1.2000000476837158"/>
<circle cx="604.8143772079522" cy="-99.18549696569957" fill="#FF0000" r="1.2000000476837158"/>
<circle cx="610.5514265849795" cy="-72.15259696024683" fill="#FF0000" r="1.2000000476837158"/>
<circle cx="614.6274833329624" cy="-75.39939508093434" fill="#FF0000" r="1.2000000476837158"/>
<circle cx="617.7026484032004" cy="-58.916705135347975" fill="#FF0000" r="1.2000000476837158"/>
<circle cx="624.4201545302695" cy="-42.01473941390165" fill="#FF0000" r="1.2000000476837158"/>
<circle cx="626.6208631418122" cy="-87.7452874952377" fill="#FF0000" r="1.2000000476837158"/>
<circle cx="627.260477797246" cy="-150.88556716872444" fill="#FF0000" r="1.2000000476837158"/>
<circle cx="633.4345688029478" cy="-85.46113923230311" fill="#FF0000" r="1.2000000476837158"/>
<circle cx="639.5519641956155" cy="-140.67040217238176" fill="#FF0000" r="1.2000000476837158"/>
<circle cx="649.4542326452023" cy="-70.59132506665527" fill="#FF0000" r="1.2000000476837158"/>
<circle cx="651.0642292375004" cy="-64.28450054936279" fill="#FF0000" r="1.2000000476837158"/>
<circle cx="654.5356155597773" cy="-84.12496361666885" fill="#FF0000" r="1.2000000476837158"/>
<circle cx="664.2129466751704" cy="-38.14882853612574" fill="#FF0000" r="1.2000000476837158"/>
<circle cx="665.6358026420829" cy="-50.90647653790647" fill="#FF0000" r="1.2000000476837158"/>
<circle cx="680.0972440261166" cy="-17.33756337551723" fill="#FF0000" r="1.2000000476837158"/>
<circle cx="681.6226487394889" cy="-24.617464402135298" fill="#FF0000" r="1.2000000476837158"/>
<circle cx="684.7197867136595" cy="-32.22459828982657" fill="#FF0000" r="1.2000000476837158"/>
<circle cx="686.1579901384457" cy="-75.65217245872378" fill="#FF0000" r="1.2000000476837158"/>
<circle cx="686.5276545259901" cy="-139.29748503976086" fill="#FF0000" r="1.2000000476837158"/>
<circle cx="689.7474585936302" cy="-116.97696344226593" fill="#FF0000" r="1.2000000476837158"/>
<circle cx="693.2365120076595" cy="-92.04409834115205" fill="#FF0000" r="1.2000000476837158"/>
<circle cx="694.3184628016395" cy="-87.7780201988988" fill="#FF0000" r="1.2000000476837158"/>
<circle cx="694.6834337292839" cy="-91.10845501204477" fill="#FF0000" r="1.2000000476837158"/>
<circle cx="698.2191457791076" cy="-69.3918969815053" fill="#FF0000" r="1.2000000476837158"/>
<circle cx="699.8593555785055" cy="-115.48746960816787" fill="#FF0000" r="1.2000000476837158"/>
<circle cx="701.4850393794594" cy="-104.01215016872872" fill="#FF0000" r="1.2000000476837158"/>
<circle cx="704.5610760363813" cy="-86.17377769633543" fill="#FF0000" r="1.2000000476837158"/>
<circle cx="706.5494054652469" cy="-81.94426756912084" fill="#FF0000" r="1.2000000476837158"/>
<circle cx="710.9066499265431" cy="-57.21733339705154" fill="#FF0000" r="1.2000000476837158"/>
<circle cx="711.2144196182377" cy="-71.32265332255686" fill="#FF0000" r="1.2000000476837158"/>
<circle cx="713.495887749189" cy="-95.8285103947892" fill="#FF0000" r="1.2000000476837158"/>
<circle cx="713.8976141709197" cy="-176.97772384309363" fill="#FF0000" r="1.2000000476837158"/>
<circle cx="715.306286148067" cy="-163.99260370932953" fill="#FF0000" r="1.2000000476837158"/>
<circle cx="718.3706015265581" cy="-171.9374695409023" fill="#FF0000" r="1.2000000476837158"/>
<circle cx="718.7516197832799" cy="-195.55987619443815" fill="#FF0000" r="1.2000000476837158"/>
<circle cx="721.9508146395926" cy="-209.4955945075644" fill="#FF0000" r="1.2000000476837158"/>
<circle cx="731.520359759889" cy="-85.23342401405782" fill="#FF0000" r="1.2000000476837158"/>
<circle cx="734.6956438700091" cy="-71.4097227380181" fill="#FF0000" r="1.2000000476837158"/>
<circle cx="739.1709056698526" cy="-56.71055480565363" fill="#FF0000" r="1.2000000476837158"/>
<circle cx="739.4226030477888" cy="-87.27805680178338" fill="#FF0000" r="1.2000000476837158"/>
<circle cx="743.2386647689476" cy="-78.41319521677381" fill="#FF0000" r="1.2000000476837158"/>
<circle cx="745.0230442643833" cy="-85.6441509897688" fill="#FF0000" r="1.2000000476837158"/>
<circle cx="746.8827743303372" cy="-93.33634491544677" fill="#FF0000" r="1.2000000476837158"/>
<circle cx="748.7774919774096" cy="-94.25464553896329" fill="#FF0000" r="1.2000000476837158"/>
<circle cx="751.3307406666727" cy="-95.55588880544761" fill="#FF0000" r="1.2000000476837158"/>
<circle cx="752.9279369477565" cy="-115.77019372409659" fill="#FF0000" r="1.2000000476837158"/>
<circle cx="754.6693274813189" cy="-135.31680873460638" fill="#FF0000" r="1.2000000476837158"/>
<circle cx="759.328281626905" cy="-93.14923592493359" fill="#FF0000" r="1.2000000476837158"/>
<circle cx="761.5553339951495" cy="-87.45588740361353" fill="#FF0000" r="1.2000000476837158"/>
<circle cx="765.5027901047861" cy="-74.53075052787167" fill="#FF0000" r="1.2000000476837158"/>
<circle cx="770.3393368529363" cy="-50.234459099516926" fill="#FF0000" r="1.2000000476837158"/>
<circle cx="772.869526267822" cy="-72.30089984586952" fill="#FF0000" r="1.2000000476837158"/>
<circle cx="774.8372176642389" cy="-97.88130232000843" fill="#FF0000" r="1.2000000476837158"/>
<circle cx="779.0775482337767" cy="-65.51642635251599" fill="#FF0000" r="1.2000000476837158"/>
<circle cx="779.8629081820307" cy="-88.19328322729282" fill="#FF0000" r="1.2000000476837158"/>
<circle cx="787.9392800630706" cy="-100.91156845699807" fill="#FF0000" r="1.2000000476837158"/>
<circle cx="792.3515395626378" cy="-80.52696116138866" fill="#FF0000" r="1.2000000476837158"/>
<circle cx="803.9929369481964" cy="-26.871478196378675" fill="#FF0000" r="1.2000000476837158"/>
<circle cx="807.9184120546181" cy="-64.3541398183943" fill="#FF0000" r="1.2000000476837158"/>
<circle cx="820" cy="-20.412850904340946" fill="#FF0000" r="1.2000000476837158"/>
</g>
<g>
<g>
<line stroke="black" stroke-width="1" x1="0" x2="0" y1="0" y2="10"/>
<line stroke="black" stroke-width="1" x1="181.96350808002128" x2="181.96350808002128" y1="0" y2="10"/>
<line stroke="black" stroke-width="1" x1="363.92701616004257" x2="363.92701616004257" y1="0" y2="10"/>
<line stroke="black" stroke-width="1" x1="545.8905242400639" x2="545.8905242400639" y1="0" y2="10"/>
<line stroke="black" stroke-width="1" x1="727.8540323200851" x2="727.8540323200851" y1="0" y2="10"/>
</g>
<line stroke="black" stroke-width="1" x1="0" x2="820" y1="0" y2="0"/>
<g>
<text font-size="12" text-anchor="middle" x="0" y="20">
0
</text>
<text font-size="12" text-anchor="middle" x="181.96350808002128" y="20">
20
</text>
<text font-size="12" text-anchor="middle" x="363.92701616004257" y="20">
40
</text>
<text font-size="12" text-anchor="middle" x="545.8905242400639" y="20">
60
</text>
<text font-size="12" text-anchor="middle" x="727.8540323200851" y="20">
80
</text>
</g>
<text font-size="12" text-anchor="middle" x="410" y="30">
Time t
</text>
</g>
<g>
<g>
<line stroke="black" stroke-width="1" x1="0" x2="-10" y1="-85.15525232402608" y2="-85.15525232402608"/>
<line stroke="black" stroke-width="1" x1="0" x2="-10" y1="-178.7324526800987" y2="-178.7324526800987"/>
<line stroke="black" stroke-width="1" x1="0" x2="-10" y1="-272.3096530361713" y2="-272.3096530361713"/>
</g>
<line stroke="black" stroke-0="1" x1="0" x2="0" y1="0" y2="-340"/>
<g>
<text dominant-baseline="middle" font-size="12" text-anchor="end" x="-15" y="-85.15525232402608">
10
</text>
<text dominant-baseline="middle" font-size="12" text-anchor="end" x="-15" y="-178.7324526800987">
20
</text>
<text dominant-baseline="middle" font-size="12" text-anchor="end" x="-15" y="-272.3096530361713">
30
</text>
</g>
<text font-size="12" text-anchor="middle" transform="rotate(-90 -30 -170)" x="-30" y="-170">
Intensity (t)
</text>
</g>
</g>
</svg>