<svg viewBox="0 0 400 250" xmlns="http://www.w3.org/2000/svg">
<g transform="translate(48, 214)">
<g>
<path d="M0,-89.64969 L0,-89.64969 L0.10670223,-89.64883 L0.21340446,-89.64623 L0.32010671,-89.64191 L0.42680892,-89.63585 L0.53351116,-108.579895 L0.64021343,-108.26956 L0.74691564,-107.96227 L0.85361785,-107.65796 L0.9603201,-107.35654 L1.0670223,-107.05794 L1.1737245,-106.762085 L1.2804269,-106.468925 L1.3871291,-106.17837 L1.4938313,-105.89036 L1.6005335,-124.807755 L1.7072357,-124.21983 L1.813938,-123.63909 L1.9206402,-123.06539 L2.0273426,-122.4986 L2.1340446,-121.938576 L2.240747,-121.38519 L2.347449,-120.83831 L2.4541514,-120.297806 L2.5608537,-119.76356 L2.6675558,-119.23542 L2.7742581,-118.713295 L2.8809602,-118.197044 L2.9876626,-117.686554 L3.094365,-117.18172 L3.201067,-116.6824 L3.3077693,-116.18851 L3.4144714,-115.69991 L3.5211737,-115.21652 L3.627876,-114.73821 L3.7345781,-114.26489 L3.8412805,-113.79645 L3.9479825,-113.33279 L4.054685,-132.0526 L4.161387,-131.29376 L4.2680893,-130.54425 L4.3747916,-129.80388 L4.481494,-129.07248 L4.5881963,-128.34987 L4.694898,-127.63592 L4.8016005,-126.93044 L4.908303,-126.23329 L5.015005,-125.544304 L5.1217074,-124.86333 L5.2284093,-124.190216 L5.3351116,-123.52482 L5.441814,-122.86699 L5.5485163,-122.21658 L5.6552186,-121.57346 L5.7619205,-120.93749 L5.868623,-139.27232 L5.975325,-138.34924 L6.0820274,-137.43767 L6.18873,-136.5374 L6.2954316,-135.64827 L6.402134,-134.77003 L6.5088363,-133.90253 L6.6155386,-133.04555 L6.722241,-132.19891 L6.828943,-131.36243 L6.935645,-130.53592 L7.0423474,-129.7192 L7.1490498,-128.91208 L7.255752,-128.11441 L7.362454,-127.326004 L7.4691563,-126.54671 L7.5758586,-125.77634 L7.682561,-125.01475 L7.7892632,-124.261765 L7.895965,-123.517235 L8.002667,-122.78101 L8.10937,-122.05294 L8.216072,-121.33286 L8.322774,-120.620636 L8.429477,-119.916115 L8.536179,-119.21917 L8.642881,-118.52964 L8.749583,-117.847404 L8.856285,-117.17232 L8.962988,-116.50425 L9.06969,-115.84308 L9.176393,-115.18867 L9.283094,-114.540886 L9.389796,-113.89962 L9.496499,-113.26474 L9.603201,-112.63613 L9.709904,-112.01367 L9.816606,-111.397255 L9.923307,-110.78675 L10.03001,-110.18206 L10.136712,-109.58308 L10.243415,-108.98968 L10.350117,-108.401764 L10.456819,-107.81923 L10.563521,-107.241974 L10.670223,-106.6699 L10.776926,-106.102905 L10.883628,-105.540886 L10.99033,-104.98376 L11.097033,-104.43142 L11.203734,-103.88377 L11.310437,-122.458206 L11.417139,-121.61624 L11.523841,-120.78353 L11.630544,-119.95991 L11.737246,-119.14521 L11.843948,-118.33928 L11.95065,-117.54196 L12.057352,-116.753105 L12.164055,-115.97256 L12.270757,-115.20018 L12.37746,-114.43582 L12.484161,-113.67935 L12.590863,-112.93061 L12.697566,-112.189476 L12.804268,-111.45581 L12.910971,-110.729485 L13.017673,-110.01036 L13.124374,-109.29832 L13.231077,-108.59322 L13.337779,-107.89496 L13.444482,-107.2034 L13.551184,-106.518425 L13.657886,-105.83992 L13.764588,-105.16777 L13.87129,-104.50187 L13.977993,-103.84209 L14.084695,-103.18833 L14.191397,-102.54049 L14.2980995,-101.89845 L14.404801,-101.262115 L14.511504,-100.63138 L14.618206,-100.00615 L14.724908,-99.386314 L14.831611,-98.77179 L14.938313,-98.16247 L15.045015,-97.55827 L15.151717,-96.95909 L15.258419,-96.36485 L15.365122,-95.77546 L15.471824,-95.19083 L15.5785265,-94.61086 L15.685228,-94.03549 L15.79193,-93.46462 L15.898633,-92.898186 L16.005335,-92.33609 L16.112038,-91.77827 L16.21874,-91.22463 L16.325441,-90.67512 L16.432144,-90.12965 L16.538847,-89.58814 L16.645548,-89.050545 L16.75225,-88.51677 L16.858953,-87.986755 L16.965654,-87.460434 L17.072357,-86.93774 L17.17906,-86.4186 L17.285763,-85.90297 L17.392464,-85.39077 L17.499166,-84.88194 L17.60587,-84.37643 L17.71257,-83.87417 L17.819273,-83.37511 L17.925976,-82.87919 L18.032677,-82.386345 L18.13938,-81.89654 L18.246082,-81.409706 L18.352785,-80.92579 L18.459486,-80.44475 L18.566189,-79.96653 L18.672892,-79.49107 L18.779593,-79.01835 L18.886295,-78.54829 L18.992998,-78.08086 L19.099699,-77.61601 L19.206402,-77.153694 L19.313105,-76.69387 L19.419807,-76.236496 L19.526508,-75.781525 L19.633211,-75.328926 L19.739914,-93.844795 L19.846615,-93.09576 L19.953318,-92.35374 L20.06002,-91.61862 L20.166721,-109.948235 L20.273424,-108.92411 L20.380127,-107.911354 L20.48683,-106.909805 L20.59353,-105.919266 L20.700233,-104.93957 L20.806936,-103.970535 L20.913637,-103.012 L21.02034,-102.06379 L21.127043,-101.12575 L21.233744,-100.19771 L21.340446,-99.27951 L21.44715,-98.370995 L21.553852,-97.47201 L21.660553,-96.582405 L21.767256,-95.702034 L21.873959,-94.83074 L21.98066,-93.9684 L22.087362,-93.11485 L22.194065,-92.269966 L22.300766,-91.4336 L22.407469,-90.60564 L22.514172,-89.78592 L22.620874,-88.974335 L22.727575,-88.17075 L22.834278,-87.375046 L22.94098,-86.5871 L23.047682,-85.80677 L23.154385,-85.033966 L23.261087,-84.268555 L23.367788,-83.51043 L23.474491,-82.75947 L23.581194,-82.01557 L23.687897,-81.278625 L23.794598,-80.548515 L23.9013,-79.82515 L24.008003,-79.10841 L24.114704,-78.39822 L24.221407,-77.69445 L24.32811,-76.99702 L24.434813,-76.30583 L24.541513,-75.62079 L24.648216,-74.941795 L24.75492,-74.26877 L24.86162,-73.60161 L24.968323,-72.94024 L25.075026,-72.28456 L25.181726,-71.63451 L25.28843,-70.989975 L25.395132,-70.35089 L25.501835,-69.71718 L25.608536,-69.08875 L25.715239,-68.46554 L25.821941,-67.847466 L25.928642,-67.23445 L26.035345,-66.62643 L26.142048,-66.023315 L26.248749,-65.42505 L26.355452,-64.83156 L26.462154,-64.242775 L26.568857,-63.658634 L26.675558,-63.07907 L26.78226,-62.504017 L26.888964,-61.93341 L26.995665,-61.36719 L27.102367,-60.805298 L27.20907,-60.24767 L27.315771,-59.694244 L27.422474,-59.144974 L27.529177,-58.599792 L27.63588,-58.05865 L27.74258,-57.521492 L27.849283,-56.988262 L27.955986,-56.45891 L28.062687,-55.933384 L28.16939,-55.411636 L28.276093,-54.893612 L28.382793,-73.58032 L28.489496,-72.76483 L28.596199,-71.95777 L28.702902,-71.159004 L28.809603,-89.34835 L28.916306,-88.264565 L29.023008,-87.193504 L29.12971,-86.13498 L29.236412,-85.0888 L29.343115,-84.05479 L29.449816,-83.03276 L29.556519,-82.022545 L29.663221,-81.02396 L29.769924,-80.03683 L29.876625,-79.061 L29.983328,-78.09628 L30.09003,-77.14253 L30.196732,-76.19959 L30.303434,-75.26729 L30.410137,-74.345474 L30.516838,-73.434 L30.62354,-72.53271 L30.730244,-71.64145 L30.836946,-70.76009 L30.943647,-69.88849 L31.05035,-69.02649 L31.157053,-68.173965 L31.263754,-67.33078 L31.370457,-66.4968 L31.47716,-65.6719 L31.58386,-64.855934 L31.690563,-64.0488 L31.797266,-63.25035 L31.903969,-62.460476 L32.01067,-61.679058 L32.11737,-60.90597 L32.224075,-60.141106 L32.330776,-59.384346 L32.43748,-58.63558 L32.54418,-57.894695 L32.650883,-57.161583 L32.757587,-56.436142 L32.86429,-55.718266 L32.97099,-55.00785 L33.077694,-54.304794 L33.184395,-53.608997 L33.291096,-71.970764 L33.3978,-70.986824 L33.5045,-70.01465 L33.611202,-69.054085 L33.717907,-68.10496 L33.824608,-67.16711 L33.93131,-66.24037 L34.038013,-65.324585 L34.144714,-64.41961 L34.251415,-63.525284 L34.35812,-62.641457 L34.46482,-61.767982 L34.571526,-60.904716 L34.678226,-60.051517 L34.784927,-78.16006 L34.891632,-77.02575 L34.998333,-75.905876 L35.105034,-74.80022 L35.21174,-73.70857 L35.31844,-72.63074 L35.42514,-71.56651 L35.531845,-70.5157 L35.638546,-69.47812 L35.745247,-68.45357 L35.85195,-67.441864 L35.958652,-66.44283 L36.065353,-65.45628 L36.17206,-64.48204 L36.27876,-63.519936 L36.385464,-62.569798 L36.492165,-61.631454 L36.598866,-60.70474 L36.70557,-59.789494 L36.81227,-58.885555 L36.918972,-57.992767 L37.025677,-57.110973 L37.132378,-56.240025 L37.23908,-55.379772 L37.345783,-54.530064 L37.452484,-53.690758 L37.559185,-52.86171 L37.66589,-52.042786 L37.77259,-51.23384 L37.87929,-50.434746 L37.985996,-49.64536 L38.092697,-48.865562 L38.199398,-48.095215 L38.306103,-47.334198 L38.412804,-46.582382 L38.51951,-45.83965 L38.62621,-45.105877 L38.73291,-44.380947 L38.839615,-43.664745 L38.946316,-42.957153 L39.053017,-42.258064 L39.15972,-41.56736 L39.266422,-40.88494 L39.373123,-40.210693 L39.479828,-39.544514 L39.58653,-38.8863 L39.69323,-38.235947 L39.799934,-37.59336 L39.906635,-36.95844 L40.013336,-36.33109 L40.12004,-54.786377 L40.22674,-53.871105 L40.333443,-52.96793 L40.440147,-52.076683 L40.54685,-51.197197 L40.653553,-50.32932 L40.760254,-49.472885 L40.866955,-48.62774 L40.97366,-47.79373 L41.08036,-46.970707 L41.18706,-46.15852 L41.293766,-45.357025 L41.400467,-44.56608 L41.507168,-43.785538 L41.613873,-43.015263 L41.720573,-42.255123 L41.827274,-41.50498 L41.93398,-40.764698 L42.04068,-40.034153 L42.14738,-39.313213 L42.254086,-38.601757 L42.360786,-56.955635 L42.467487,-55.960304 L42.574192,-54.978893 L42.680893,-54.011204 L42.787598,-53.05705 L42.8943,-52.116238 L43.001,-51.18859 L43.107704,-50.273922 L43.214405,-49.372055 L43.321106,-48.482815 L43.42781,-47.606026 L43.53451,-46.74152 L43.641212,-45.88913 L43.747917,-45.04869 L43.854618,-44.22004 L43.96132,-43.40302 L44.068024,-42.59747 L44.174725,-41.80324 L44.281425,-41.02018 L44.38813,-40.248135 L44.49483,-39.48696 L44.601532,-38.736515 L44.708237,-37.996655 L44.814938,-37.26724 L44.921642,-36.54813 L45.028343,-35.839195 L45.135044,-35.140297 L45.24175,-34.45131 L45.34845,-33.7721 L45.45515,-33.102543 L45.561855,-32.442513 L45.668556,-31.791891 L45.775257,-31.150553 L45.88196,-30.518381 L45.988663,-29.895258 L46.095364,-29.28107 L46.20207,-28.675703 L46.30877,-28.079048 L46.41547,-27.490993 L46.522175,-26.91143 L46.628876,-26.340256 L46.735577,-25.777365 L46.84228,-25.222654 L46.948982,-24.676023 L47.055687,-24.137373 L47.162388,-23.606606 L47.26909,-23.083626 L47.375793,-22.568338 L47.482494,-22.06065 L47.589195,-21.560469 L47.6959,-21.067705 L47.8026,-20.582273 L47.9093,-20.104082 L48.016006,-19.633047 L48.122707,-19.169085 L48.22941,-18.712112 L48.336113,-18.262047 L48.442814,-17.818808 L48.549515,-17.382317 L48.65622,-16.952496 L48.76292,-16.529268 L48.869625,-16.11256 L48.976326,-15.702295 L49.083027,-15.298402 L49.18973,-14.900808 L49.296432,-14.509442 L49.403133,-14.124236 L49.50984,-13.745121 L49.61654,-13.372028 L49.72324,-13.004893 L49.829945,-12.64365 L49.936646,-12.288235 L50.043346,-11.938583 L50.15005,-11.594635 L50.256752,-11.256328 L50.363453,-10.923601 L50.470158,-10.596396 L50.57686,-10.274654 L50.68356,-9.958319 L50.790264,-9.647332 L50.896965,-9.3416395 L51.00367,-9.041186 L51.11037,-8.745917 L51.21707,-8.455781 L51.323776,-8.170724 L51.430477,-7.8906946 L51.537178,-7.6156435 L51.643883,-7.3455195 L51.750584,-7.080275 L51.857285,-6.8198605 L51.96399,-6.5642285 L52.07069,-6.3133326 L52.17739,-6.0671268 L52.284096,-5.825565 L52.390797,-5.5886025 L52.497498,-5.356196 L52.604202,-5.1283016 L52.710903,-4.9048767 L52.817604,-4.685879 L52.92431,-4.4712677 L53.03101,-4.261001 L53.137714,-4.0550394 L53.244415,-3.8533435 L53.351116,-3.6558738 L53.45782,-3.462592 L53.56452,-3.2734601 L53.671223,-3.0884414 L53.777927,-2.9074986 L53.88463,-2.7305956 L53.99133,-2.557697 L54.098034,-2.3887675 L54.204735,-2.2237723 L54.311436,-2.0626776 L54.41814,-1.9054497 L54.52484,-1.7520554 L54.631542,-1.6024619 L54.738247,-1.4566373 L54.844948,-1.3145497 L54.95165,-1.1761678 L55.058353,-1.0414609 L55.165054,-0.9103984 L55.27176,-0.7829506 L55.37846,-0.6590878 L55.48516,-0.53878087 L55.591866,-0.42200106 L55.698566,-0.3087201 L55.805267,-0.19891006 L55.911972,-19.194752 L56.018673,-18.788597 L56.125374,-18.390646 L56.23208,-18.000793 L56.33878,-17.618938 L56.44548,-17.244982 L56.552185,-16.878824 L56.658886,-16.52037 L56.765587,-16.169525 L56.87229,-15.826195 L56.978992,-15.490285 L57.085693,-15.161706 L57.192398,-14.840368 L57.2991,-14.526183 L57.405804,-14.219065 L57.512505,-13.918926 L57.619205,-13.625684 L57.72591,-13.339253 L57.83261,-13.059555 L57.939312,-12.786506 L58.046017,-12.520028 L58.152718,-12.260044 L58.25942,-12.0064745 L58.366123,-30.878012 L58.472824,-30.33358 L58.579525,-29.800158 L58.68623,-29.277594 L58.79293,-28.765741 L58.89963,-28.264456 L59.006336,-27.773596 L59.113037,-27.29302 L59.219738,-26.822592 L59.326443,-26.362175 L59.433144,-25.911634 L59.53985,-25.470839 L59.64655,-25.03966 L59.75325,-24.617966 L59.859955,-24.205635 L59.966656,-23.80254 L60.073357,-23.408562 L60.18006,-23.023577 L60.286762,-41.577423 L60.393463,-40.909607 L60.500168,-40.255203 L60.60687,-39.61402 L60.71357,-38.98588 L60.820274,-38.370598 L60.926975,-37.767986 L61.033676,-37.177876 L61.14038,-36.600086 L61.24708,-36.034447 L61.353786,-35.480785 L61.460487,-34.938942 L61.56719,-34.408745 L61.673893,-33.890034 L61.780594,-33.382652 L61.887295,-32.88644 L61.994,-32.401245 L62.1007,-31.92691 L62.2074,-31.46329 L62.314106,-31.010235 L62.420807,-30.567598 L62.527508,-30.135239 L62.634212,-29.713015 L62.740913,-29.300785 L62.847614,-28.898415 L62.95432,-28.505768 L63.06102,-28.122713 L63.16772,-27.749117 L63.274426,-27.384851 L63.381126,-27.029789 L63.48783,-26.683807 L63.594532,-26.346779 L63.701233,-26.018583 L63.807938,-25.699104 L63.91464,-25.38822 L64.02134,-25.085815 L64.128044,-24.791777 L64.23474,-24.50599 L64.341446,-24.228346 L64.44815,-23.958733 L64.554855,-23.697044 L64.66155,-23.443172 L64.76826,-23.197016 L64.87496,-22.958467 L64.98166,-22.727428 L65.08836,-22.503798 L65.19507,-22.287476 L65.301765,-22.078365 L65.40847,-21.876371 L65.515175,-21.681398 L65.62187,-21.493355 L65.72858,-21.312145 L65.83528,-21.137684 L65.94198,-20.96988 L66.04868,-20.808643 L66.15539,-20.653889 L66.262085,-20.505531 L66.36879,-20.363487 L66.475494,-20.22767 L66.58219,-20.098003 L66.688896,-19.974401 L66.7956,-19.856787 L66.9023,-19.745083 L67.009,-19.639208 L67.11571,-19.539091 L67.222404,-19.444653 L67.32911,-19.35582 L67.435814,-19.272518 L67.54251,-19.19468 L67.649216,-19.122229 L67.75592,-19.055098 L67.86262,-18.993217 L67.96932,-18.93652 L68.07603,-18.884935 L68.182724,-18.838398 L68.28943,-18.796844 L68.39613,-18.76021 L68.50283,-18.728428 L68.609535,-18.701439 L68.71624,-18.679178 L68.822945,-18.661587 L68.92964,-18.648603 L69.03635,-18.640167 L69.14305,-18.636223 L69.24975,-18.636707 L69.35645,-18.641567 L69.46316,-18.650745 L69.569855,-18.664185 L69.67656,-18.681831 L69.783264,-18.70363 L69.88996,-18.729528 L69.996666,-18.759474 L70.10337,-18.793411 L70.21007,-18.831291 L70.31677,-18.873064 L70.42348,-18.918676 L70.530174,-18.968082 L70.63688,-19.021229 L70.74358,-19.07807 L70.85028,-19.138557 L70.956985,-19.202644 L71.06369,-19.270283 L71.17039,-19.341429 L71.27709,-19.416035 L71.3838,-19.494057 L71.49049,-19.57545 L71.5972,-19.660173 L71.7039,-19.748178 L71.8106,-19.839428 L71.917305,-19.933876 L72.02401,-20.03148 L72.13071,-20.132202 L72.23741,-20.236 L72.34412,-20.342834 L72.45081,-20.452663 L72.55752,-20.565447 L72.66422,-20.68115 L72.77093,-20.79973 L72.877625,-20.921152 L72.98433,-21.045378 L73.091034,-21.172369 L73.19773,-21.30209 L73.304436,-21.434504 L73.41114,-21.569572 L73.51784,-21.707266 L73.62454,-21.847544 L73.73125,-21.990374 L73.837944,-22.135721 L73.94465,-22.283552 L74.05135,-22.433832 L74.15805,-22.586529 L74.264755,-22.74161 L74.37146,-22.89904 L74.47816,-23.05879 L74.58486,-23.220827 L74.69157,-23.385118 L74.79826,-23.551634 L74.90497,-23.720343 L75.01167,-23.891214 L75.11837,-24.064219 L75.225075,-24.239325 L75.33178,-24.416504 L75.43848,-24.595726 L75.54518,-24.776962 L75.651886,-24.960184 L75.75858,-25.145363 L75.86529,-25.33247 L75.97199,-25.521479 L76.07869,-25.71236 L76.185394,-25.905087 L76.2921,-26.099632 L76.398796,-26.295969 L76.5055,-45.709976 L76.612206,-64.63026 L76.7189,-64.22966 L76.82561,-63.840305 L76.93231,-63.462017 L77.03902,-63.09462 L77.14571,-62.737946 L77.25242,-62.39182 L77.35912,-62.056076 L77.46582,-61.73055 L77.572525,-61.41508 L77.67923,-61.10951 L77.78593,-60.813675 L77.89263,-60.527428 L77.99934,-60.25061 L78.10603,-59.983074 L78.21274,-59.724667 L78.31944,-59.47525 L78.42614,-59.234673 L78.532845,-59.002796 L78.63955,-58.77948 L78.74625,-58.564587 L78.85295,-58.35798 L78.959656,-58.159527 L79.06635,-57.969093 L79.17306,-57.786552 L79.27976,-57.611774 L79.38646,-57.444633 L79.493164,-57.285004 L79.59987,-57.132767 L79.706566,-56.987797 L79.81327,-56.84998 L79.919975,-56.719193 L80.02667,-56.59532 L80.13338,-56.478256 L80.24008,-56.36788 L80.34678,-56.264088 L80.45348,-56.166763 L80.56019,-56.0758 L80.666885,-55.991096 L80.77359,-55.912548 L80.880295,-55.840046 L80.98699,-55.773495 L81.0937,-55.712788 L81.2004,-55.657833 L81.307106,-55.60853 L81.4138,-55.56478 L81.52051,-55.526493 L81.62721,-55.493572 L81.73391,-55.46593 L81.840614,-55.443474 L81.94732,-55.42611 L82.054016,-55.413757 L82.16072,-55.406322 L82.267426,-55.403725 L82.37412,-55.405872 L82.48083,-74.54926 L82.58753,-74.25691 L82.69423,-73.97389 L82.800934,-73.70004 L82.90764,-73.4352 L83.014336,-73.17923 L83.12104,-72.93197 L83.227745,-72.69327 L83.33444,-72.46299 L83.44115,-72.24099 L83.54785,-72.02712 L83.65455,-71.82126 L83.76125,-90.61388 L83.86796,-90.12216 L83.974655,-108.62849 L84.08136,-107.85996 L84.188065,-107.10819 L84.29476,-106.372894 L84.40147,-105.65379 L84.50817,-104.95062 L84.61487,-104.26312 L84.72157,-103.59103 L84.82828,-102.93409 L84.934975,-102.292046 L85.04168,-101.66465 L85.148384,-101.05167 L85.25509,-100.45284 L85.361786,-99.86795 L85.46849,-99.29675 L85.575195,-98.73901 L85.68189,-98.19452 L85.7886,-97.66303 L85.8953,-97.14434 L86.002,-96.63823 L86.1087,-96.144485 L86.21541,-95.662895 L86.322105,-95.19325 L86.42881,-94.73535 L86.535515,-94.288994 L86.64221,-93.85399 L86.74892,-93.43013 L86.85562,-93.01723 L86.96232,-92.615105 L87.06902,-92.223564 L87.17573,-91.84243 L87.282425,-91.47151 L87.38913,-91.11064 L87.495834,-90.759636 L87.60253,-90.418335 L87.709236,-90.086555 L87.81594,-89.76414 L87.92264,-89.45092 L88.02934,-89.14673 L88.13605,-88.85142 L88.242744,-107.73908 L88.34945,-126.1129 L88.456154,-125.24287 L88.56285,-124.390625 L88.669556,-123.55587 L88.77626,-122.73831 L88.88296,-121.93765 L88.98966,-121.15361 L89.09637,-120.38591 L89.203064,-138.80638 L89.30977,-137.76622 L89.41647,-136.74638 L89.52318,-135.74657 L89.629875,-134.76642 L89.73658,-133.80562 L89.843285,-132.86383 L89.94998,-131.94072 L90.05669,-131.036 L90.16339,-130.14934 L90.27009,-129.28046 L90.37679,-128.42902 L90.4835,-127.59474 L90.590195,-126.77734 L90.6969,-125.97653 L90.803604,-125.19202 L90.9103,-124.42352 L91.017006,-123.67078 L91.12371,-122.9335 L91.23041,-122.21145 L91.33711,-121.50434 L91.44382,-120.81192 L91.550514,-120.13394 L91.65722,-119.470146 L91.76392,-118.8203 L91.87062,-118.18414 L91.977325,-117.561455 L92.08403,-116.95199 L92.19073,-116.355515 L92.29743,-115.771805 L92.40414,-115.200645 L92.51083,-114.6418 L92.61754,-114.095055 L92.72424,-113.5602 L92.83094,-113.037025 L92.937645,-112.52532 L93.04435,-112.02489 L93.15105,-111.535515 L93.25775,-111.05701 L93.364456,-110.58917 L93.47115,-110.13181 L93.57786,-109.684746 L93.68456,-109.24778 L93.79127,-108.82074 L93.897964,-108.403435 L94.00467,-107.99569 L94.111374,-107.59733 L94.21807,-107.20818 L94.324776,-106.82808 L94.43148,-106.45685 L94.53818,-106.09434 L94.64488,-105.74037 L94.75159,-105.39479 L94.858284,-105.05744 L94.96499,-104.72817 L95.07169,-104.40682 L95.17839,-104.093254 L95.285095,-103.78731 L95.3918,-103.48884 L95.4985,-103.19771 L95.6052,-102.91377 L95.71191,-102.63689 L95.8186,-102.36693 L95.92531,-102.10375 L96.03201,-101.84722 L96.13871,-101.59721 L96.245415,-101.3536 L96.35212,-101.11624 L96.45882,-100.88503 L96.56552,-100.659836 L96.672226,-100.44053 L96.77892,-100.227005 L96.88563,-100.019135 L96.99233,-99.8168 L97.09903,-99.6199 L97.205734,-99.428314 L97.31244,-99.241936 L97.419136,-99.060646 L97.52584,-98.88435 L97.632545,-98.71294 L97.73925,-98.5463 L97.84595,-98.38434 L97.95265,-98.22696 L98.05936,-98.07404 L98.16605,-97.925514 L98.27276,-97.781265 L98.37946,-97.641205 L98.48616,-97.50523 L98.592865,-97.37326 L98.69957,-97.2452 L98.80627,-116.191124 L98.91297,-115.76792 L99.01968,-115.35317 L99.12637,-114.94672 L99.23308,-133.77193 L99.33978,-133.07643 L99.44648,-132.39362 L99.553185,-150.79768 L99.65989,-149.83673 L99.76659,-148.8926 L99.87329,-147.96494 L99.979996,-147.05348 L100.08669,-146.15797 L100.1934,-145.27809 L100.3001,-144.41357 L100.4068,-143.56416 L100.513504,-142.72957 L100.62021,-141.90953 L100.726906,-141.1038 L100.83361,-140.31213 L100.940315,-139.53424 L101.04701,-138.76991 L101.15372,-138.01889 L101.26042,-137.28093 L101.36712,-136.55579 L101.47382,-135.84326 L101.58053,-135.1431 L101.687225,-134.45508 L101.79393,-133.77898 L101.900635,-133.11458 L102.00734,-132.46169 L102.11404,-131.82005 L102.22074,-150.3665 L102.327446,-149.44241 L102.43414,-148.53384 L102.54085,-147.64049 L102.64755,-146.76208 L102.75425,-145.89836 L102.860954,-145.04906 L102.96766,-144.21393 L103.074356,-143.3927 L103.18106,-142.58514 L103.287766,-141.791 L103.39446,-141.01003 L103.50117,-140.24199 L103.60787,-139.48665 L103.71457,-138.74377 L103.82127,-138.01315 L103.92798,-137.29456 L104.034676,-136.58774 L104.14138,-135.89252 L104.248085,-135.20866 L104.35478,-134.53596 L104.46149,-133.87422 L104.56819,-133.22322 L104.67489,-151.67432 L104.78159,-150.7412 L104.8883,-149.82304 L104.994995,-148.91959 L105.1017,-148.03058 L105.208405,-147.15575 L105.3151,-146.29485 L105.42181,-145.44762 L105.52851,-144.61382 L105.63521,-143.79321 L105.74191,-142.98555 L105.84862,-142.19061 L105.955315,-141.40814 L106.06202,-140.63794 L106.168724,-139.87976 L106.27543,-139.13339 L106.382126,-138.39862 L106.48883,-137.67525 L106.595535,-136.96303 L106.70223,-136.26178 L106.80894,-135.57129 L106.91564,-134.89136 L107.02234,-134.22179 L107.12904,-133.5624 L107.23575,-152.11263 L107.342445,-151.16826 L107.44915,-150.23834 L107.555855,-149.3226 L107.66255,-148.42079 L107.76926,-147.53267 L107.87596,-146.65797 L107.98266,-145.79648 L108.08936,-144.94795 L108.19607,-144.11212 L108.302765,-143.2888 L108.40947,-142.47774 L108.516174,-141.67871 L108.62287,-140.8915 L108.729576,-140.11589 L108.83628,-139.35167 L108.94298,-138.59863 L109.04968,-137.85658 L109.15639,-137.12529 L109.263084,-136.40456 L109.36979,-135.69421 L109.476494,-134.99405 L109.58319,-134.30388 L109.689896,-152.82979 L109.7966,-151.85419 L109.9033,-150.89285 L110.01,-149.94556 L110.11671,-149.01202 L110.22341,-148.09201 L110.33011,-147.18529 L110.43681,-146.2916 L110.54352,-164.50311 L110.650215,-163.33177 L110.75692,-162.17758 L110.863625,-161.04025 L110.97032,-159.9195 L111.07703,-158.81499 L111.18373,-157.72649 L111.29043,-156.65369 L111.39713,-155.5963 L111.50384,-173.68764 L111.610535,-172.3566 L111.71724,-171.045 L111.823944,-188.7394 L111.93064,-187.1643 L112.037346,-185.61246 L112.14405,-184.08345 L112.25075,-182.57689 L112.35745,-181.09239 L112.46416,-179.6296 L112.570854,-178.1881 L112.67756,-176.76756 L112.78426,-175.36761 L112.89096,-173.9879 L112.997665,-172.62808 L113.10437,-171.28781 L113.21107,-169.96675 L113.31777,-168.66457 L113.42448,-167.38094 L113.53117,-166.11554 L113.63788,-164.86806 L113.74458,-163.63818 L113.85128,-162.42561 L113.957985,-161.23003 L114.06469,-160.05116 L114.17139,-158.8887 L114.27809,-157.74237 L114.384796,-156.61188 L114.4915,-155.49696 L114.5982,-154.39732 L114.7049,-153.31273 L114.81161,-152.24289 L114.918304,-151.18756 L115.02501,-150.14647 L115.131714,-149.11937 L115.23841,-148.10603 L115.345116,-147.10619 L115.45182,-146.11963 L115.55852,-145.14609 L115.66522,-163.23825 L115.77193,-161.98767 L115.878624,-160.75423 L115.98533,-159.53763 L116.09203,-158.3376 L116.19873,-157.15384 L116.305435,-155.98607 L116.41214,-154.83401 L116.51884,-153.6974 L116.62554,-152.57596 L116.73225,-151.4694 L116.83894,-150.37752 L116.94565,-149.3 L117.05235,-148.23663 L117.15905,-147.18716 L117.265755,-146.15132 L117.37246,-145.1289 L117.47916,-144.11964 L117.58586,-143.12334 L117.692566,-142.13972 L117.79926,-141.16861 L117.90597,-140.20976 L118.01267,-139.26295 L118.11937,-138.32799 L118.226074,-137.40465 L118.33278,-136.49272 L118.439476,-135.59201 L118.54618,-134.70232 L118.652885,-133.82344 L118.75959,-132.9552 L118.86629,-132.09738 L118.97299,-150.41222 L119.0797,-149.27055 L119.18639,-148.14362 L119.2931,-147.03113 L119.3998,-145.93285 L119.5065,-144.84853 L119.613205,-143.77792 L119.71991,-142.72081 L119.82661,-141.67693 L119.93331,-140.64607 L120.040016,-139.628 L120.14671,-138.6225 L120.25342,-137.62935 L120.36012,-136.64832 L120.46682,-135.67921 L120.573524,-153.74214 L120.68023,-152.49434 L120.78693,-151.26265 L120.89363,-150.04677 L121.000336,-148.84644 L121.10703,-147.66139 L121.21374,-146.49138 L121.32044,-145.33614 L121.42714,-144.19539 L121.533844,-143.06892 L121.64055,-141.95647 L121.747246,-140.8578 L121.85395,-139.77267 L121.960655,-138.70087 L122.06735,-137.64214 L122.17406,-136.59627 L122.28076,-135.56302 L122.38746,-134.5422 L122.49416,-133.5336 L122.60087,-132.53697 L122.70757,-131.55214 L122.81427,-130.57889 L122.920975,-129.61702 L123.02768,-128.66635 L123.13438,-127.72666 L123.24108,-126.797775 L123.347786,-125.8795 L123.45448,-124.971664 L123.56119,-124.07407 L123.66789,-123.186554 L123.77459,-122.30894 L123.881294,-121.44104 L123.988,-120.582695 L124.094696,-119.73374 L124.2014,-118.89402 L124.308105,-118.063354 L124.4148,-117.2416 L124.52151,-116.42859 L124.62821,-115.62418 L124.73491,-114.828224 L124.84161,-114.040565 L124.94832,-113.261055 L125.055016,-112.48956 L125.16172,-111.72594 L125.268425,-110.970055 L125.37512,-110.22176 L125.48183,-109.480934 L125.58853,-108.747444 L125.69523,-108.02116 L125.80193,-107.30194 L125.90864,-106.58969 L126.015335,-105.88426 L126.12204,-105.18555 L126.228745,-104.49343 L126.33544,-103.807785 L126.44215,-103.12851 L126.54885,-102.455475 L126.65555,-101.78859 L126.76225,-101.12773 L126.86896,-119.637955 L126.97566,-118.68465 L127.08236,-117.74188 L127.189064,-116.809494 L127.29577,-115.88729 L127.402466,-114.97512 L127.50917,-114.0728 L127.615875,-113.18017 L127.72257,-112.297066 L127.82928,-111.42333 L127.93598,-110.5588 L128.04268,-128.66968 L128.14938,-127.52206 L128.25609,-126.38796 L128.3628,-125.26717 L128.46948,-124.15948 L128.57619,-123.06465 L128.68289,-121.98248 L128.7896,-120.91276 L128.8963,-119.855286 L129.003,-118.80986 L129.10971,-117.77628 L129.2164,-116.75435 L129.3231,-115.74387 L129.42981,-114.744675 L129.53651,-113.75656 L129.64322,-112.77935 L129.74992,-111.81286 L129.85661,-110.85692 L129.96332,-109.911354 L130.07002,-108.976 L130.17673,-108.050674 L130.28343,-107.13522 L130.39014,-106.229485 L130.49683,-105.3333 L130.60353,-104.4465 L130.71024,-103.568954 L130.81694,-102.7005 L130.92365,-120.872826 L131.03035,-119.720024 L131.13704,-118.580666 L131.24374,-117.45454 L131.35045,-135.49605 L131.45715,-134.09172 L131.56386,-132.7048 L131.67056,-131.33505 L131.77725,-129.98216 L131.88396,-128.64587 L131.99066,-127.32593 L132.09737,-126.02206 L132.20407,-124.734 L132.31078,-123.46151 L132.41747,-122.20433 L132.52417,-120.96223 L132.63087,-119.734955 L132.73758,-118.52227 L132.84428,-117.32396 L132.95099,-116.13977 L133.0577,-114.96949 L133.16438,-113.812904 L133.27109,-112.66978 L133.37779,-111.53991 L133.4845,-110.42309 L133.5912,-109.31911 L133.6979,-108.22775 L133.8046,-107.14884 L133.9113,-106.08216 L134.018,-105.02753 L134.12471,-103.98475 L134.23141,-102.95364 L134.33812,-101.93401 L134.44481,-100.92569 L134.55151,-119.12801 L134.65822,-117.83702 L134.76492,-116.56164 L134.87163,-115.301636 L134.97833,-114.056755 L135.08502,-112.826775 L135.19173,-111.61144 L135.29843,-129.5208 L135.40514,-128.03078 L135.51184,-126.55954 L135.61855,-125.10681 L135.72523,-123.672295 L135.83194,-122.25571 L135.93864,-120.85676 L136.04535,-119.47518 L136.15205,-118.1107 L136.25876,-116.763054 L136.36545,-115.431984 L136.47215,-114.11722 L136.57886,-112.818504 L136.68556,-111.53561 L136.79227,-110.268265 L136.89897,-109.01625 L137.00566,-107.77932 L137.11237,-106.557236 L137.21907,-105.34977 L137.32578,-104.15671 L137.43248,-102.97781 L137.53918,-101.812874 L137.64589,-100.661674 L137.75258,-99.524 L137.85928,-98.39965 L137.96599,-97.28842 L138.0727,-96.19011 L138.1794,-95.10451 L138.2861,-94.03144 L138.39279,-92.9707 L138.4995,-91.92212 L138.6062,-90.88549 L138.7129,-89.86065 L138.81961,-88.847404 L138.92632,-87.84559 L139.033,-86.855034 L139.13971,-85.87556 L139.24641,-84.907005 L139.35312,-83.94921 L139.45982,-83.00201 L139.56653,-82.06524 L139.67322,-81.138756 L139.77992,-80.2224 L139.88663,-79.31602 L139.99333,-78.419464 L140.10004,-77.5326 L140.20674,-76.65527 L140.31343,-75.78735 L140.42014,-74.92869 L140.52684,-74.079155 L140.63354,-73.23862 L140.74025,-72.40694 L140.84695,-71.584 L140.95364,-70.76966 L141.06035,-69.96381 L141.16705,-69.16632 L141.27376,-68.37707 L141.38046,-67.59594 L141.48717,-66.822815 L141.59387,-66.05759 L141.70056,-65.30014 L141.80727,-64.550354 L141.91397,-63.80814 L142.02068,-63.073376 L142.12738,-62.345963 L142.23409,-61.625797 L142.34077,-60.912777 L142.44748,-60.206806 L142.55418,-59.507786 L142.66089,-58.815617 L142.7676,-58.13021 L142.8743,-57.45147 L142.98099,-56.77931 L143.08769,-56.113632 L143.1944,-55.454357 L143.3011,-54.801395 L143.4078,-54.15466 L143.51451,-53.514072 L143.6212,-52.87955 L143.7279,-52.25101 L143.83461,-51.628376 L143.94131,-51.01157 L144.04802,-50.400517 L144.15472,-49.79514 L144.26141,-49.195366 L144.36812,-48.601124 L144.47482,-48.01234 L144.58153,-47.42895 L144.68823,-46.850883 L144.79494,-46.278072 L144.90163,-45.710453 L145.00833,-45.147957 L145.11504,-44.590527 L145.22174,-44.038094 L145.32845,-43.490597 L145.43515,-42.947983 L145.54185,-42.410183 L145.64854,-41.87715 L145.75525,-41.34882 L145.86195,-40.825138 L145.96866,-40.306053 L146.07536,-39.791504 L146.18207,-39.281445 L146.28876,-38.77582 L146.39546,-38.274582 L146.50217,-37.77768 L146.60887,-37.28506 L146.71558,-36.79668 L146.82228,-36.31249 L146.92897,-35.832443 L147.03568,-35.3565 L147.14238,-34.8846 L147.24908,-34.41672 L147.35579,-33.952805 L147.4625,-33.492813 L147.56918,-33.036705 L147.67589,-32.584442 L147.7826,-32.13598 L147.8893,-31.691282 L147.996,-31.25031 L148.1027,-30.813028 L148.2094,-30.379396 L148.3161,-29.949379 L148.4228,-29.522942 L148.52951,-29.100048 L148.63622,-28.680666 L148.74292,-28.264761 L148.84961,-27.8523 L148.95631,-27.443253 L149.06302,-27.037584 L149.16972,-26.635265 L149.27643,-26.236265 L149.38313,-25.840555 L149.48982,-25.448105 L149.59653,-25.058886 L149.70323,-24.67287 L149.80994,-24.29003 L149.91664,-23.91034 L150.02335,-42.52331 L150.13005,-41.848427 L150.23674,-41.181393 L150.34344,-40.522118 L150.45015,-39.8705 L150.55685,-39.226433 L150.66356,-38.589832 L150.77026,-56.887104 L150.87695,-55.964733 L150.98366,-55.054317 L151.09036,-54.155685 L151.19707,-53.26868 L151.30377,-52.39314 L151.41048,-51.528908 L151.51717,-50.67583 L151.62387,-49.833755 L151.73058,-49.00253 L151.83728,-48.18201 L151.94398,-47.37205 L152.05069,-65.71447 L152.15738,-64.621376 L152.26408,-63.54324 L152.37079,-62.47986 L152.4775,-61.431023 L152.5842,-60.396523 L152.6909,-59.37616 L152.79759,-58.369736 L152.9043,-57.377052 L153.011,-56.397923 L153.1177,-55.43215 L153.22441,-54.47956 L153.33112,-53.539963 L153.4378,-52.61318 L153.54451,-51.699028 L153.65121,-50.79734 L153.75792,-49.907948 L153.86462,-49.030678 L153.97133,-48.165363 L154.07803,-47.311848 L154.18472,-46.469963 L154.29143,-45.639557 L154.39813,-44.820473 L154.50484,-44.012558 L154.61154,-43.21566 L154.71825,-42.429638 L154.82494,-41.65434 L154.93164,-40.889626 L155.03835,-40.135357 L155.14505,-39.391388 L155.25175,-38.657593 L155.35846,-37.93383 L155.46515,-37.21997 L155.57185,-36.51589 L155.67856,-54.914425 L155.78526,-53.926453 L155.89197,-52.95269 L155.99867,-51.992935 L156.10536,-51.047 L156.21207,-50.114693 L156.31877,-49.195824 L156.42548,-48.290203 L156.53218,-47.397655 L156.63889,-46.517998 L156.74557,-45.65106 L156.85228,-44.796658 L156.95898,-43.954628 L157.06569,-43.1248 L157.1724,-42.307014 L157.2791,-60.67883 L157.38579,-59.58023 L157.4925,-58.49802 L157.5992,-57.43197 L157.7059,-56.381847 L157.8126,-55.347435 L157.91931,-54.328506 L158.02602,-53.324844 L158.1327,-52.336243 L158.23941,-51.362484 L158.34612,-50.403362 L158.45282,-49.45868 L158.55952,-48.52823 L158.66623,-47.611816 L158.77292,-46.709248 L158.87962,-45.820335 L158.98633,-44.944885 L159.09303,-44.082718 L159.19974,-43.233654 L159.30644,-42.397507 L159.41313,-41.574104 L159.51984,-40.763275 L159.62654,-39.964848 L159.73325,-39.17865 L159.83995,-38.404526 L159.94666,-37.642307 L160.05334,-36.891834 L160.16005,-36.15295 L160.26675,-35.425503 L160.37346,-34.709335 L160.48016,-34.004303 L160.58687,-33.310257 L160.69356,-32.62705 L160.80026,-31.95454 L160.90697,-31.29259 L161.01367,-30.641056 L161.12038,-29.999805 L161.22708,-29.368704 L161.33377,-28.74762 L161.44048,-28.136425 L161.54718,-27.534988 L161.65388,-26.943186 L161.76059,-26.360895 L161.8673,-25.787992 L161.97398,-25.224361 L162.08069,-24.66988 L162.1874,-24.124435 L162.2941,-23.587912 L162.4008,-23.060198 L162.5075,-22.541182 L162.61421,-22.030756 L162.7209,-21.528814 L162.8276,-21.035248 L162.93431,-20.549957 L163.04102,-20.072836 L163.14772,-19.603788 L163.25443,-19.14271 L163.36111,-18.689508 L163.46782,-18.244085 L163.57452,-17.806347 L163.68123,-17.376198 L163.78793,-16.953552 L163.89464,-16.538315 L164.00133,-16.1304 L164.10803,-15.729718 L164.21474,-15.336185 L164.32144,-14.9497175 L164.42815,-14.57023 L164.53485,-14.19764 L164.64154,-13.83187 L164.74825,-13.472837 L164.85495,-13.120466 L164.96165,-12.774678 L165.06836,-12.435398 L165.17506,-12.102551 L165.28175,-11.776065 L165.38846,-11.455865 L165.49516,-11.141881 L165.60187,-10.8340435 L165.70857,-10.532283 L165.81528,-29.2588 L165.92197,-28.667057 L166.02867,-28.085981 L166.13538,-27.515432 L166.24208,-26.955273 L166.34879,-26.405363 L166.45549,-25.865574 L166.5622,-25.335768 L166.66888,-24.815815 L166.77559,-24.30559 L166.8823,-23.804964 L166.989,-23.313812 L167.0957,-22.832014 L167.20241,-22.359446 L167.3091,-21.895992 L167.4158,-21.441534 L167.5225,-20.995956 L167.62921,-20.559147 L167.73592,-20.130993 L167.84262,-19.711386 L167.94931,-19.300215 L168.05602,-18.897375 L168.16272,-18.502762 L168.26942,-18.11627 L168.37613,-17.737799 L168.48283,-17.367249 L168.58952,-17.004519 L168.69623,-16.649515 L168.80293,-16.30214 L168.90964,-15.962297 L169.01634,-15.629897 L169.12305,-15.304846 L169.22974,-14.987056 L169.33644,-14.676435 L169.44315,-14.372899 L169.54985,-14.07636 L169.65656,-13.786733 L169.76326,-13.503935 L169.86995,-13.227883 L169.97665,-12.958498 L170.08336,-12.695698 L170.19006,-12.4394045 L170.29677,-12.18954 L170.40347,-11.946029 L170.51018,-11.708796 L170.61687,-30.467318 L170.72357,-29.941002 L170.83028,-29.42553 L170.93698,-28.920753 L171.04369,-28.426529 L171.15039,-27.94271 L171.25708,-27.469164 L171.36378,-27.005745 L171.47049,-26.55232 L171.5772,-26.108757 L171.6839,-25.674921 L171.7906,-25.250683 L171.8973,-24.835917 L172.004,-24.430494 L172.1107,-24.03429 L172.2174,-23.647186 L172.32411,-23.269058 L172.43082,-22.899788 L172.5375,-22.53926 L172.64421,-41.193787 L172.75092,-40.548717 L172.85762,-39.916836 L172.96432,-39.297962 L173.07103,-38.691906 L173.17772,-38.09849 L173.28442,-37.51754 L173.39113,-36.948875 L173.49783,-36.39233 L173.60454,-35.84773 L173.71124,-35.314907 L173.81793,-34.793697 L173.92464,-34.283943 L174.03134,-33.78548 L174.13805,-33.298157 L174.24475,-32.82181 L174.35146,-32.356297 L174.45815,-31.901459 L174.56485,-31.457151 L174.67155,-31.02323 L174.77826,-30.59955 L174.88496,-30.18597 L174.99167,-29.782352 L175.09837,-29.388557 L175.20506,-29.004454 L175.31177,-28.629904 L175.41847,-47.211094 L175.52518,-46.55454 L175.63188,-45.911922 L175.73859,-45.28305 L175.84528,-44.66772 L175.95198,-44.065742 L176.05869,-43.476917 L176.16539,-42.90106 L176.2721,-42.337986 L176.3788,-41.787506 L176.48549,-41.249447 L176.5922,-40.723625 L176.6989,-40.20987 L176.8056,-39.708004 L176.91231,-39.21786 L177.01901,-38.739273 L177.1257,-38.27207 L177.2324,-37.8161 L177.33911,-37.371197 L177.44582,-36.937202 L177.55252,-36.513966 L177.65923,-36.101326 L177.76591,-35.699142 L177.87262,-35.30726 L177.97932,-34.925533 L178.08603,-34.55382 L178.19273,-34.19198 L178.29944,-33.83987 L178.40613,-33.497356 L178.51283,-33.1643 L178.61954,-32.84057 L178.72624,-32.52603 L178.83295,-32.22056 L178.93965,-31.924023 L179.04636,-31.636295 L179.15305,-31.357256 L179.25975,-31.08678 L179.36646,-30.824749 L179.47316,-30.571043 L179.57986,-30.325544 L179.68657,-30.08814 L179.79326,-29.858717 L179.89996,-29.637161 L180.00667,-29.423363 L180.11337,-29.217213 L180.22008,-29.018606 L180.32678,-28.827436 L180.43347,-28.643599 L180.54018,-28.466991 L180.64688,-28.297514 L180.75359,-28.135065 L180.86029,-27.979548 L180.967,-27.830866 L181.07368,-27.688923 L181.18039,-27.553625 L181.2871,-27.424881 L181.3938,-27.302597 L181.5005,-27.186686 L181.60721,-27.077055 L181.7139,-26.973621 L181.8206,-26.876295 L181.9273,-26.784992 L182.03401,-26.699629 L182.14072,-26.620123 L182.24742,-26.546392 L182.35411,-26.478355 L182.46082,-26.415936 L182.56752,-26.35905 L182.67422,-26.307629 L182.78093,-26.26159 L182.88763,-26.220858 L182.99434,-26.185362 L183.10103,-26.155027 L183.20773,-26.129782 L183.31444,-26.109556 L183.42114,-26.094278 L183.52785,-26.08388 L183.63455,-26.078293 L183.74124,-26.077448 L183.84795,-26.081282 L183.95465,-26.089727 L184.06136,-26.10272 L184.16806,-26.120197 L184.27477,-26.142094 L184.38145,-26.16835 L184.48816,-26.198902 L184.59486,-26.23369 L184.70157,-45.197773 L184.80827,-44.940464 L184.91498,-44.691982 L185.02167,-44.452198 L185.12837,-44.220974 L185.23508,-43.998188 L185.34178,-43.783707 L185.44849,-43.577404 L185.55519,-43.37916 L185.66188,-43.188854 L185.76859,-43.006367 L185.87529,-42.83157 L185.982,-42.66436 L186.0887,-42.504612 L186.1954,-42.352215 L186.3021,-42.20706 L186.4088,-42.069035 L186.5155,-41.938034 L186.62221,-41.813946 L186.72891,-41.696667 L186.83562,-41.586094 L186.9423,-41.48212 L187.04901,-41.38465 L187.15572,-41.293587 L187.26242,-41.20882 L187.36913,-41.130264 L187.47583,-41.05782 L187.58253,-40.99139 L187.68922,-40.93089 L187.79593,-40.876217 L187.90263,-40.82729 L188.00934,-40.784016 L188.11604,-40.746307 L188.22275,-40.71408 L188.32944,-40.687244 L188.43614,-40.66572 L188.54285,-40.649426 L188.64955,-40.63827 L188.75626,-40.632183 L188.86296,-40.63108 L188.96965,-40.634884 L189.07635,-40.643517 L189.18306,-40.6569 L189.28976,-40.67496 L189.39647,-59.823906 L189.50317,-59.547512 L189.60986,-59.280396 L189.71657,-59.022404 L189.82327,-58.773396 L189.92998,-58.53323 L190.03668,-58.301758 L190.14339,-58.078842 L190.25008,-57.864346 L190.35678,-57.65814 L190.46349,-57.46008 L190.57019,-57.270042 L190.6769,-57.087894 L190.7836,-56.91351 L190.89029,-56.74676 L190.997,-56.587524 L191.1037,-56.43568 L191.2104,-56.291107 L191.31711,-56.153687 L191.42381,-56.0233 L191.53052,-55.89983 L191.6372,-55.78317 L191.74391,-55.673203 L191.85062,-55.569817 L191.95732,-55.472908 L192.06403,-55.382362 L192.17073,-55.298084 L192.27742,-55.21996 L192.38412,-55.14789 L192.49083,-55.08177 L192.59753,-55.02151 L192.70424,-54.967003 L192.81094,-54.91815 L192.91763,-54.874866 L193.02434,-54.837044 L193.13104,-54.8046 L193.23775,-54.77744 L193.34445,-54.755466 L193.45116,-54.7386 L193.55785,-54.726753 L193.66455,-54.71983 L193.77126,-54.71775 L193.87796,-54.720432 L193.98466,-54.72779 L194.09137,-54.73974 L194.19806,-54.756203 L194.30476,-54.7771 L194.41147,-54.802353 L194.51817,-54.83188 L194.62488,-54.86561 L194.73158,-54.90346 L194.83827,-54.94537 L194.94498,-54.99125 L195.05168,-55.04104 L195.15839,-55.094658 L195.26509,-55.15204 L195.3718,-55.213116 L195.4785,-55.277817 L195.58519,-55.346077 L195.6919,-55.417828 L195.7986,-55.493 L195.9053,-55.571533 L196.01201,-55.653362 L196.11871,-55.738422 L196.2254,-55.826653 L196.3321,-55.91799 L196.43881,-56.01238 L196.54552,-56.109753 L196.65222,-56.210056 L196.75893,-56.31323 L196.86562,-56.419212 L196.97232,-56.52795 L197.07903,-56.639393 L197.18573,-56.753475 L197.29243,-56.870148 L197.39914,-76.02475 L197.50583,-94.81523 L197.61253,-94.34088 L197.71924,-93.87841 L197.82594,-93.42761 L197.93265,-92.9883 L198.03935,-92.56026 L198.14604,-92.1433 L198.25275,-91.73724 L198.35945,-91.341896 L198.46616,-90.95708 L198.57286,-90.582596 L198.67957,-90.218285 L198.78625,-89.86396 L198.89296,-89.51945 L198.99966,-89.18458 L199.10637,-88.85919 L199.21307,-88.543106 L199.31978,-88.23617 L199.42647,-87.93822 L199.53317,-87.64909 L199.63988,-87.36864 L199.74658,-87.0967 L199.85329,-86.83313 L199.95999,-86.577774 L200.0667,-86.33048 L200.17339,-86.09112 L200.28009,-85.859535 L200.3868,-85.63559 L200.4935,-85.41915 L200.6002,-85.210075 L200.70691,-85.00823 L200.8136,-84.813484 L200.9203,-84.6257 L201.02701,-84.44476 L201.13371,-84.27054 L201.24042,-84.1029 L201.34712,-83.94173 L201.45381,-83.786896 L201.56052,-83.63829 L201.66722,-83.4958 L201.77393,-83.35929 L201.88063,-83.22866 L201.98734,-83.1038 L202.09402,-82.98459 L202.20073,-82.87092 L202.30743,-82.762695 L202.41414,-82.6598 L202.52084,-82.562126 L202.62755,-82.469574 L202.73424,-82.38205 L202.84094,-82.29945 L202.94765,-82.22167 L203.05435,-82.14862 L203.16106,-82.0802 L203.26776,-82.01632 L203.37445,-81.95688 L203.48116,-81.901794 L203.58786,-81.850975 L203.69456,-81.80432 L203.80127,-81.76176 L203.90797,-81.7232 L204.01468,-81.688545 L204.12137,-81.65773 L204.22807,-81.63066 L204.33478,-81.607254 L204.44148,-81.58744 L204.54819,-81.57113 L204.65489,-81.55825 L204.76158,-81.54872 L204.86829,-81.54247 L204.97499,-81.53942 L205.0817,-81.539505 L205.1884,-81.54264 L205.2951,-81.54877 L205.4018,-81.5578 L205.5085,-81.56969 L205.6152,-81.58434 L205.72191,-81.601715 L205.82861,-100.84109 L205.93532,-100.55862 L206.042,-100.28349 L206.14871,-100.01559 L206.25542,-99.75475 L206.36212,-99.50086 L206.46883,-99.25378 L206.57553,-118.01634 L206.68222,-117.48084 L206.78893,-116.95654 L206.89563,-116.443245 L207.00233,-115.94075 L207.10904,-115.44886 L207.21574,-114.96738 L207.32243,-114.496124 L207.42914,-114.0349 L207.53584,-113.58352 L207.64255,-113.141815 L207.74925,-112.709595 L207.85596,-112.28669 L207.96266,-111.872925 L208.06935,-111.46813 L208.17606,-111.07214 L208.28276,-110.684784 L208.38947,-110.3059 L208.49617,-109.93533 L208.60287,-109.57292 L208.70956,-109.218506 L208.81627,-108.87194 L208.92297,-108.533066 L209.02968,-108.201744 L209.13638,-107.87782 L209.24309,-107.56116 L209.34978,-107.25161 L209.45648,-106.949036 L209.56319,-106.653305 L209.66989,-106.36427 L209.7766,-106.08182 L209.8833,-105.8058 L209.98999,-105.53609 L210.0967,-105.27256 L210.2034,-124.07719 L210.3101,-123.52309 L210.41681,-122.97961 L210.52351,-141.53423 L210.6302,-140.70842 L210.73691,-139.89746 L210.84361,-139.10107 L210.95032,-138.31903 L211.05702,-137.55104 L211.16373,-136.79688 L211.27042,-136.05627 L211.37712,-135.32901 L211.48383,-134.61484 L211.59053,-133.91351 L211.69724,-152.35132 L211.80394,-151.37141 L211.91063,-150.40851 L212.01733,-149.4623 L212.12404,-148.53247 L212.23074,-147.61874 L212.33745,-146.72086 L212.44415,-145.83852 L212.55086,-144.97144 L212.65755,-144.11935 L212.76425,-143.28201 L212.87096,-142.45914 L212.97766,-141.65047 L213.08437,-140.85576 L213.19107,-140.07477 L213.29776,-139.30722 L213.40446,-138.5529 L213.51117,-137.81157 L213.61787,-137.08298 L213.72458,-136.36691 L213.83128,-135.66312 L213.93797,-134.97139 L214.04468,-134.2915 L214.15138,-133.62326 L214.25809,-132.96642 L214.36479,-132.32077 L214.4715,-131.68613 L214.57819,-131.06229 L214.68489,-130.44902 L214.7916,-129.84616 L214.8983,-129.2535 L215.005,-128.67084 L215.11171,-128.098 L215.2184,-127.53482 L215.3251,-126.98108 L215.43181,-126.436615 L215.53851,-125.90125 L215.64522,-125.37481 L215.75192,-124.857124 L215.85861,-124.34803 L215.96532,-123.84735 L216.07202,-123.354935 L216.17873,-122.870605 L216.28543,-122.394226 L216.39214,-121.92563 L216.49884,-121.46466 L216.60553,-121.01118 L216.71223,-120.56502 L216.81894,-120.12605 L216.92564,-119.69413 L217.03235,-119.26911 L217.13905,-118.85086 L217.24574,-118.43923 L217.35245,-118.034096 L217.45915,-117.635315 L217.56586,-117.24277 L217.67256,-116.85632 L217.77927,-116.47586 L217.88596,-116.10124 L217.99266,-115.73235 L218.09937,-115.36907 L218.20607,-115.011284 L218.31277,-114.65887 L218.41948,-114.311714 L218.52617,-113.9697 L218.63287,-113.63273 L218.73958,-113.30068 L218.84628,-132.0078 L218.95299,-131.38316 L219.0597,-130.76793 L219.16638,-130.16193 L219.27309,-129.56496 L219.37979,-128.97688 L219.4865,-128.39752 L219.5932,-127.82669 L219.6999,-127.26424 L219.8066,-126.71 L219.9133,-126.16381 L220.02,-125.62553 L220.12671,-125.094986 L220.23341,-124.57204 L220.34012,-124.05653 L220.44682,-123.54832 L220.55351,-123.04726 L220.66022,-122.55321 L220.76692,-122.066025 L220.87363,-121.58557 L220.98033,-121.11172 L221.08704,-120.64432 L221.19373,-120.18326 L221.30043,-119.72839 L221.40714,-119.27961 L221.51384,-118.83677 L221.62054,-118.39976 L221.72725,-117.96845 L221.83394,-117.54273 L221.94064,-117.12249 L222.04735,-116.707596 L222.15405,-116.29794 L222.26076,-115.893425 L222.36746,-115.49392 L222.47415,-115.099335 L222.58086,-114.70956 L222.68756,-114.32448 L222.79427,-113.944 L222.90097,-113.56802 L223.00768,-113.19645 L223.11436,-112.82917 L223.22107,-112.4661 L223.32777,-112.10715 L223.43448,-111.752205 L223.54118,-111.4012 L223.64789,-111.05402 L223.75458,-110.7106 L223.86128,-110.37084 L223.96799,-110.03466 L224.07469,-109.70197 L224.1814,-109.372696 L224.2881,-109.04675 L224.39479,-108.72405 L224.5015,-108.404526 L224.6082,-108.08809 L224.7149,-107.77468 L224.82161,-126.45851 L224.92831,-125.84942 L225.03502,-125.24792 L225.14171,-124.65385 L225.24841,-124.06706 L225.35512,-142.67996 L225.46182,-141.8027 L225.56853,-140.93716 L225.67523,-140.08311 L225.78192,-139.24034 L225.88863,-138.40866 L225.99533,-137.58788 L226.10204,-136.77776 L226.20874,-135.97812 L226.31544,-135.18878 L226.42213,-134.40956 L226.52884,-133.64026 L226.63554,-132.88068 L226.74225,-151.09404 L226.84895,-150.05241 L226.95566,-149.02477 L227.06235,-148.01085 L227.16905,-147.01044 L227.27576,-146.02328 L227.38246,-145.04915 L227.48917,-144.0878 L227.59587,-143.139 L227.70256,-142.20256 L227.80927,-141.27823 L227.91597,-140.3658 L228.02267,-139.46506 L228.12938,-138.57579 L228.23608,-137.6978 L228.34277,-136.83087 L228.44948,-135.97482 L228.55618,-173.31195 L228.66289,-171.87099 L228.76959,-170.44995 L228.8763,-169.04848 L228.983,-167.66624 L229.08969,-166.30292 L229.1964,-164.95819 L229.3031,-163.63171 L229.4098,-162.3232 L229.51651,-161.03233 L229.62321,-159.75882 L229.7299,-158.50235 L229.83661,-157.26263 L229.94331,-156.03938 L230.05002,-154.83232 L230.15672,-153.64116 L230.26343,-152.46562 L230.37012,-151.30545 L230.47682,-169.32828 L230.58353,-167.89378 L230.69023,-166.4787 L230.79694,-165.0827 L230.90364,-163.70544 L231.01033,-162.34663 L231.11703,-161.00594 L231.22374,-159.68306 L231.33044,-158.37769 L231.43715,-157.08952 L231.54385,-155.81828 L231.65054,-154.56366 L231.75725,-153.3254 L231.86395,-152.1032 L231.97066,-150.89677 L232.07736,-149.70587 L232.18407,-167.61058 L232.29076,-166.14708 L232.39746,-164.70311 L232.50417,-163.27837 L232.61087,-161.8725 L232.71758,-160.48521 L232.82428,-159.11618 L232.93098,-157.76509 L233.03767,-156.43166 L233.14438,-155.11555 L233.25108,-153.81651 L233.35779,-152.53424 L233.4645,-151.26843 L233.5712,-150.01883 L233.67789,-148.78516 L233.78459,-147.56714 L233.8913,-146.36452 L233.998,-145.17702 L234.1047,-144.00438 L234.21141,-142.84637 L234.3181,-141.70273 L234.4248,-140.57321 L234.53151,-139.45757 L234.63821,-138.35558 L234.74492,-137.267 L234.85162,-136.19162 L234.95831,-135.12918 L235.06502,-134.07948 L235.17172,-133.04231 L235.27843,-132.01744 L235.38513,-131.00467 L235.49184,-130.00378 L235.59853,-129.01457 L235.70523,-128.03687 L235.81194,-127.07043 L235.91864,-126.11509 L236.02534,-125.17065 L236.13205,-124.23693 L236.23874,-123.313736 L236.34544,-122.400894 L236.45215,-121.49822 L236.55885,-120.60555 L236.66556,-119.7227 L236.77226,-118.8495 L236.87895,-117.9858 L236.98566,-117.13142 L237.09236,-116.2862 L237.19907,-115.44999 L237.30577,-114.62263 L237.41248,-113.80396 L237.51918,-112.99384 L237.62587,-112.19212 L237.73257,-111.39866 L237.83928,-110.613304 L237.94598,-109.835915 L238.05269,-109.06637 L238.1594,-127.25985 L238.26608,-126.20469 L238.37279,-125.161736 L238.47949,-124.13078 L238.5862,-123.11163 L238.6929,-122.104095 L238.7996,-121.10796 L238.9063,-120.12305 L239.013,-119.14917 L239.1197,-118.18613 L239.22641,-117.23376 L239.33311,-116.29187 L239.43982,-115.36029 L239.54651,-114.43885 L239.65321,-113.52738 L239.75992,-112.62571 L239.86662,-111.73367 L239.97333,-110.851105 L240.08003,-109.97786 L240.18672,-109.11377 L240.29343,-108.25869 L240.40013,-107.41247 L240.50684,-106.57494 L240.61354,-105.74599 L240.72025,-104.92545 L240.82693,-104.11319 L240.93364,-103.30907 L241.04034,-102.512955 L241.14705,-101.7247 L241.25375,-100.94419 L241.36046,-100.171295 L241.46716,-99.405876 L241.57385,-98.64781 L241.68056,-97.89699 L241.78726,-97.153275 L241.89397,-96.416565 L242.00067,-95.68673 L242.10738,-94.96366 L242.21407,-94.247246 L242.32077,-93.53738 L242.42747,-111.94154 L242.53418,-110.94115 L242.64088,-109.95179 L242.74759,-108.97329 L242.85428,-108.00547 L242.96098,-107.048164 L243.06769,-106.10119 L243.1744,-105.16439 L243.2811,-104.2376 L243.3878,-103.32065 L243.49449,-102.41339 L243.6012,-101.515656 L243.7079,-100.627304 L243.8146,-99.74817 L243.92131,-98.87811 L244.02802,-98.01699 L244.1347,-97.16465 L244.24141,-96.32096 L244.34811,-95.48577 L244.45482,-94.65896 L244.56152,-93.84038 L244.66823,-93.02991 L244.77492,-92.22741 L244.88162,-91.43276 L244.98833,-90.64584 L245.09503,-89.866516 L245.20174,-108.05513 L245.30844,-106.9897 L245.41515,-105.93629 L245.52184,-104.894714 L245.62854,-103.86478 L245.73524,-102.846306 L245.84195,-120.82408 L245.94865,-119.52666 L246.05536,-118.244934 L246.16205,-116.978676 L246.26875,-115.72764 L246.37546,-114.49158 L246.48216,-113.27026 L246.58887,-112.06346 L246.69557,-110.87095 L246.80226,-109.69249 L246.90897,-108.52788 L247.01567,-107.376884 L247.12238,-106.239296 L247.22908,-105.114914 L247.33578,-104.00353 L247.44247,-102.90494 L247.54918,-101.81893 L247.65588,-100.74533 L247.76259,-99.68393 L247.8693,-98.63455 L247.976,-97.59699 L248.08269,-96.57108 L248.18939,-95.55664 L248.2961,-94.55349 L248.4028,-93.561455 L248.5095,-92.58036 L248.61621,-91.61005 L248.7229,-90.650345 L248.8296,-89.70109 L248.93631,-88.76212 L249.04301,-87.83328 L249.14972,-86.91443 L249.25642,-86.005394 L249.36313,-85.10604 L249.46982,-84.21622 L249.57652,-83.33578 L249.68323,-82.464584 L249.78993,-81.60249 L249.89664,-80.749374 L250.00334,-79.90509 L250.11003,-79.0695 L250.21674,-78.24249 L250.32344,-77.42392 L250.43015,-76.61367 L250.53685,-75.811615 L250.64355,-75.01763 L250.75024,-74.231606 L250.85695,-73.453415 L250.96365,-72.68295 L251.07036,-71.92009 L251.17706,-71.164734 L251.28377,-70.41676 L251.39046,-69.67608 L251.49716,-68.942566 L251.60387,-68.216125 L251.71057,-67.49666 L251.81728,-66.784065 L251.92398,-66.07825 L252.03067,-65.3791 L252.13737,-64.68654 L252.24408,-64.000465 L252.35078,-63.320786 L252.45749,-62.647415 L252.5642,-61.980263 L252.67088,-61.319244 L252.77759,-60.664272 L252.8843,-60.015263 L252.991,-59.372135 L253.0977,-58.73481 L253.2044,-58.103203 L253.3111,-57.47724 L253.4178,-56.856846 L253.5245,-56.241943 L253.63121,-55.632458 L253.73792,-55.028316 L253.84462,-54.42945 L253.95132,-53.83579 L254.05801,-53.247265 L254.16472,-52.663807 L254.27142,-52.085354 L254.37813,-51.511837 L254.48483,-50.94319 L254.59154,-50.37936 L254.69823,-49.82028 L254.80493,-49.26589 L254.91164,-48.716125 L255.01834,-48.170937 L255.12505,-47.63026 L255.23175,-47.094048 L255.33844,-46.562237 L255.44514,-46.034775 L255.55185,-45.511616 L255.65855,-44.9927 L255.76526,-44.477974 L255.87196,-43.967396 L255.97865,-43.460915 L256.08536,-42.95848 L256.19208,-42.460045 L256.29877,-41.965565 L256.40546,-41.474995 L256.51218,-40.988285 L256.61887,-40.505398 L256.7256,-40.026287 L256.83228,-39.55091 L256.93896,-39.079227 L257.0457,-38.6112 L257.15237,-38.146782 L257.2591,-37.685944 L257.36578,-37.228638 L257.4725,-36.774834 L257.5792,-36.32449 L257.68588,-35.877575 L257.7926,-35.434048 L257.8993,-34.993877 L258.006,-34.55703 L258.1127,-34.123474 L258.21942,-33.693172 L258.3261,-33.266098 L258.4328,-32.842213 L258.53952,-32.421494 L258.6462,-32.003906 L258.75293,-31.589422 L258.85962,-31.178013 L258.9663,-30.769648 L259.07303,-30.364304 L259.17972,-29.961948 L259.28644,-29.56256 L259.39313,-29.166107 L259.49985,-28.77257 L259.60654,-28.38192 L259.71323,-27.994133 L259.81995,-27.609186 L259.92664,-27.227057 L260.03336,-26.84772 L260.14005,-26.471153 L260.24673,-26.097336 L260.35345,-25.726246 L260.46014,-25.35786 L260.56686,-24.992163 L260.67355,-24.62913 L260.78027,-24.268742 L260.88696,-23.91098 L260.99365,-23.555826 L261.10037,-23.20326 L261.20706,-22.853266 L261.31378,-22.505825 L261.42047,-22.16092 L261.52716,-21.818533 L261.63388,-21.478647 L261.74057,-21.141249 L261.8473,-20.80632 L261.95398,-20.473846 L262.0607,-20.143812 L262.1674,-19.816202 L262.27408,-19.491003 L262.3808,-19.168201 L262.4875,-18.84778 L262.5942,-18.52973 L262.7009,-18.214033 L262.80762,-17.90068 L262.9143,-17.589659 L263.021,-17.280954 L263.12772,-16.974558 L263.2344,-16.670454 L263.34113,-16.368633 L263.4478,-16.069086 L263.5545,-15.771798 L263.66122,-15.476761 L263.7679,-15.183965 L263.87463,-14.893398 L263.98132,-14.605051 L264.08804,-14.318915 L264.19473,-14.03498 L264.30142,-13.753238 L264.40814,-13.473678 L264.51483,-13.196292 L264.62155,-12.921073 L264.72824,-12.648011 L264.83493,-12.377099 L264.94165,-12.108329 L265.04834,-11.841693 L265.15506,-11.577184 L265.26175,-11.314794 L265.36847,-11.054516 L265.47516,-10.796345 L265.58185,-10.540272 L265.68857,-10.286291 L265.79526,-10.034396 L265.90198,-9.784582 L266.00867,-9.536841 L266.1154,-9.291169 L266.22208,-9.047559 L266.32877,-8.8060055 L266.4355,-8.566504 L266.54218,-8.329048 L266.6489,-8.093634 L266.75558,-7.860256 L266.86227,-7.6289096 L266.969,-7.39959 L267.07568,-7.172293 L267.1824,-6.947014 L267.2891,-6.723748 L267.3958,-6.5024924 L267.5025,-6.283242 L267.6092,-6.0659933 L267.7159,-5.850743 L267.8226,-5.637486 L267.92932,-5.4262204 L268.036,-5.2169414 L268.1427,-5.0096464 L268.24942,-4.8043323 L268.3561,-4.6009955 L268.46283,-4.399633 L268.56952,-4.200242 L268.67624,-4.0028195 L268.78293,-3.8073628 L268.88962,-3.6138692 L268.99634,-3.4223359 L269.10303,-3.232761 L269.20975,-3.0451412 L269.31644,-2.8594747 L269.42313,-2.6757588 L269.52985,-2.4939916 L269.63654,-2.314171 L269.74326,-2.1362946 L269.84995,-1.9603608 L269.95667,-1.7863672 L270.06335,-1.6143119 L270.17004,-1.4441935 L270.27676,-1.2760099 L270.38345,-1.1097594 L270.49017,-0.94544035 L270.59686,-0.7830512 L270.70358,-0.62259036 L270.81027,-0.46405622 L270.91696,-0.3074474 L271.02368,-0.15276247 L271.13037,0 L271.2371,-18.946411 L271.34378,-18.494366 L271.45047,-18.04905 L271.5572,-17.610386 L271.66388,-17.178299 L271.7706,-16.75271 L271.8773,-16.333551 L271.984,-15.920746 L272.0907,-15.514222 L272.1974,-15.113912 L272.3041,-14.719744 L272.4108,-14.331651 L272.51752,-13.949565 L272.6242,-13.5734215 L272.7309,-13.203154 L272.83762,-12.838699 L272.9443,-12.479995 L273.05103,-12.126978 L273.1577,-11.779588 L273.26443,-11.437764 L273.37112,-11.101449 L273.4778,-10.770583 L273.58453,-10.445109 L273.69122,-10.124973 L273.79794,-9.810118 L273.90463,-9.500488 L274.01132,-9.196032 L274.11804,-8.896694 L274.22473,-8.602426 L274.33145,-8.313174 L274.43814,-8.028889 L274.54486,-7.74952 L274.65155,-7.475019 L274.75824,-7.205338 L274.86496,-6.94043 L274.97165,-6.6802483 L275.07837,-6.4247465 L275.18506,-6.1738796 L275.29178,-5.9276032 L275.39847,-5.685874 L275.50516,-5.4486485 L275.61188,-5.215884 L275.71857,-4.98754 L275.8253,-4.763573 L275.93198,-4.543945 L276.03867,-4.328614 L276.1454,-4.1175423 L276.25208,-3.9106903 L276.3588,-3.7080202 L276.46548,-3.5094943 L276.5722,-3.3150754 L276.6789,-3.1247275 L276.78558,-2.9384146 L276.8923,-2.7561011 L276.999,-2.5777524 L277.1057,-2.403334 L277.2124,-2.232812 L277.3191,-2.0661533 L277.4258,-1.9033251 L277.5325,-1.7442949 L277.63922,-1.5890309 L277.7459,-1.4375014 L277.85263,-1.2896758 L277.95932,-1.1455234 L278.066,-1.0050142 L278.17273,-0.8681184 L278.27942,-0.7348068 L278.38614,-0.60505056 L278.49283,-0.47882134 L278.59955,-0.35609102 L278.70624,-0.236832 L278.81293,-0.12101704 L278.91965,-0.008619261 L279.02634,-19.033009 L279.13306,-18.623669 L279.23975,-18.222486 L279.34644,-17.829363 L279.45316,-17.444195 L279.55984,-17.066885 L279.66656,-16.697338 L279.77325,-16.335453 L279.87997,-15.98114 L279.98666,-15.634304 L280.09335,-15.294854 L280.20007,-14.9627 L280.30676,-14.637752 L280.41348,-14.319923 L280.52017,-14.009129 L280.62686,-13.705282 L280.73358,-13.408299 L280.84027,-13.1181 L280.947,-12.834601 L281.05368,-12.557725 L281.1604,-12.287391 L281.2671,-12.023521 L281.37378,-11.766041 L281.4805,-11.5148735 L281.5872,-11.269946 L281.6939,-11.031184 L281.8006,-10.798518 L281.9073,-10.571875 L282.014,-10.351185 L282.1207,-10.136379 L282.22742,-9.927391 L282.3341,-9.724153 L282.44083,-9.526599 L282.54752,-9.334664 L282.6542,-9.148286 L282.76093,-8.967399 L282.8676,-8.791942 L282.97433,-8.621854 L283.08102,-8.457075 L283.18774,-8.2975445 L283.29443,-8.143205 L283.40112,-7.9939976 L283.50784,-7.8498664 L283.61453,-7.710754 L283.72125,-7.5766063 L283.82794,-7.4473677 L283.93463,-7.3229847 L284.04135,-7.203404 L284.14804,-7.0885735 L284.25476,-6.9784417 L284.36145,-6.8729577 L284.46817,-6.772071 L284.57486,-6.675732 L284.68155,-6.5838923 L284.78827,-6.4965034 L284.89496,-6.413518 L285.00168,-6.334889 L285.10837,-6.2605705 L285.21506,-6.1905165 L285.32178,-6.1246824 L285.42847,-6.0630236 L285.5352,-6.0054965 L285.64188,-5.952058 L285.7486,-5.9026647 L285.8553,-5.857275 L285.96198,-5.815848 L286.0687,-5.7783413 L286.17538,-5.7447157 L286.2821,-5.7149305 L286.3888,-5.688947 L286.49548,-5.6667256 L286.6022,-5.6482286 L286.7089,-5.6334176 L286.8156,-5.622255 L286.9223,-5.614704 L287.02902,-5.6107283 L287.1357,-5.6102915 L287.2424,-5.6133585 L287.34912,-5.6198936 L287.4558,-5.6298623 L287.56253,-5.6432304 L287.66922,-5.6599636 L287.77594,-5.680029 L287.88263,-5.703393 L287.98932,-5.730023 L288.09604,-5.759887 L288.20273,-5.792953 L288.30945,-5.8291893 L288.41614,-5.8685646 L288.52283,-5.9110484 L288.62955,-5.95661 L288.73624,-6.0052195 L288.84296,-6.056847 L288.94965,-6.111463 L289.05637,-6.1690383 L289.16306,-6.2295446 L289.26974,-6.292953 L289.37646,-6.3592353 L289.48315,-6.4283643 L289.58987,-6.5003114 L289.69656,-6.5750504 L289.80325,-6.652554 L289.90997,-6.732795 L290.01666,-6.8157477 L290.12338,-6.9013853 L290.23007,-6.989683 L290.3368,-7.080614 L290.44348,-7.1741543 L290.55017,-7.2702775 L290.6569,-7.36896 L290.76358,-7.470176 L290.8703,-7.573902 L290.977,-7.6801143 L291.0837,-7.7887883 L291.1904,-7.8999004 L291.2971,-8.013428 L291.4038,-8.129346 L291.5105,-8.247634 L291.61722,-8.368267 L291.7239,-8.491224 L291.8306,-8.616483 L291.93732,-8.7440195 L292.044,-8.873814 L292.15073,-9.005844 L292.25742,-9.140087 L292.36414,-9.276524 L292.47083,-9.415131 L292.5775,-9.555888 L292.68423,-9.698775 L292.79092,-9.843771 L292.89764,-9.990855 L293.00433,-10.140007 L293.11102,-10.291207 L293.21774,-10.444435 L293.32443,-10.599671 L293.43115,-10.756896 L293.53784,-10.916089 L293.64456,-11.077232 L293.75125,-11.240306 L293.85794,-11.405291 L293.96466,-11.572166 L294.07135,-11.740917 L294.17807,-11.911522 L294.28476,-12.083963 L294.39145,-12.258223 L294.49817,-12.434281 L294.60486,-12.612122 L294.71158,-12.791725 L294.81827,-12.973075 L294.925,-13.156152 L295.03168,-13.340939 L295.13837,-13.527418 L295.2451,-13.715572 L295.35178,-13.905385 L295.4585,-14.096838 L295.5652,-14.289914 L295.6719,-14.484596 L295.7786,-14.680869 L295.88528,-14.878714 L295.992,-15.0781145 L296.0987,-15.279054 L296.2054,-15.481517 L296.3121,-15.685486 L296.4188,-15.890945 L296.5255,-16.097878 L296.6322,-16.306269 L296.73892,-16.516102 L296.8456,-16.72736 L296.95233,-16.940025 L297.05902,-17.154087 L297.1657,-17.369526 L297.27243,-17.586329 L297.37912,-17.804476 L297.48584,-18.023956 L297.59253,-18.244751 L297.69922,-18.466846 L297.80594,-18.690228 L297.91263,-18.914879 L298.01935,-19.140785 L298.12604,-19.36793 L298.23276,-19.5963 L298.33945,-19.82588 L298.44614,-20.056654 L298.55286,-20.288607 L298.65955,-20.521727 L298.76627,-20.755997 L298.87296,-20.991402 L298.97964,-21.227928 L299.08636,-21.46556 L299.19305,-21.704287 L299.29977,-21.94409 L299.40646,-22.184956 L299.51318,-22.42687 L299.61987,-22.66982 L299.72656,-22.91379 L299.83328,-23.158768 L299.93997,-23.404736 L300.0467,-23.651682 L300.15338,-23.899593 L300.2601,-24.148453 L300.3668,-24.39825 L300.47348,-24.64897 L300.5802,-24.900597 L300.6869,-25.153118 L300.7936,-25.406523 L300.9003,-25.660791 L301.007,-25.915915 L301.1137,-26.171879 L301.2204,-26.428667 L301.32712,-26.68627 L301.4338,-26.944672 L301.54053,-27.203857 L301.64722,-27.463816 L301.7539,-27.724535 L301.86063,-27.985998 L301.96732,-28.248194 L302.07404,-28.511106 L302.18073,-28.774727 L302.2874,-29.03904 L302.39413,-29.30403 L302.50082,-48.599125 L302.60754,-48.563385 L302.71423,-48.53308 L302.82095,-48.50812 L302.92764,-48.48842 L303.03433,-48.47389 L303.14105,-48.464443 L303.24774,-48.459995 L303.35446,-48.46047 L303.46115,-48.465775 L303.56787,-48.475834 L303.67456,-48.49057 L303.78125,-48.509903 L303.88797,-48.533752 L303.99466,-48.562046 L304.10138,-48.594704 L304.20807,-48.631657 L304.31476,-67.67476 L304.42148,-67.418465 L304.52817,-67.17103 L304.6349,-66.93231 L304.74158,-66.70216 L304.8483,-66.480446 L304.955,-66.26701 L305.06168,-66.06174 L305.1684,-65.86447 L305.2751,-65.67509 L305.3818,-65.49345 L305.4885,-65.31943 L305.59518,-65.1529 L305.7019,-64.99374 L305.8086,-83.78685 L305.9153,-83.34133 L306.022,-82.90758 L306.12872,-82.4854 L306.2354,-82.0746 L306.3421,-81.674995 L306.44882,-81.28639 L306.5555,-80.90861 L306.66223,-99.67509 L306.76892,-99.01471 L306.8756,-98.36944 L306.98233,-97.73902 L307.08902,-97.12322 L307.19574,-96.52179 L307.30243,-95.93449 L307.40915,-95.36109 L307.51584,-94.80135 L307.62253,-94.25506 L307.72925,-93.721985 L307.83594,-93.2019 L307.94266,-92.69459 L308.04935,-92.199844 L308.15607,-91.71745 L308.26276,-91.24721 L308.36945,-90.7889 L308.47617,-90.34234 L308.58286,-89.90731 L308.68958,-89.48363 L308.79626,-89.0711 L308.90295,-88.66953 L309.00967,-88.27875 L309.11636,-87.89855 L309.22308,-87.52876 L309.32977,-87.16921 L309.4365,-86.81972 L309.54318,-86.48011 L309.64987,-86.15021 L309.7566,-85.82986 L309.86328,-85.51889 L309.97,-85.21713 L310.0767,-84.92444 L310.18338,-84.64064 L310.2901,-84.365585 L310.3968,-84.09912 L310.5035,-83.841095 L310.6102,-83.591354 L310.71692,-83.349754 L310.8236,-83.11616 L310.9303,-82.89042 L311.03702,-82.672386 L311.1437,-82.46194 L311.25043,-82.25893 L311.35712,-82.063225 L311.4638,-81.8747 L311.57053,-81.693214 L311.67722,-81.51865 L311.78394,-81.35087 L311.89063,-81.18975 L311.99734,-81.03518 L312.10403,-80.88703 L312.21072,-80.745186 L312.31744,-80.60952 L312.42413,-80.47993 L312.53085,-80.35629 L312.63754,-80.238495 L312.74426,-80.126434 L312.85095,-80.01999 L312.95764,-79.91907 L313.06436,-79.823555 L313.17105,-79.733345 L313.27777,-79.64834 L313.38446,-79.56843 L313.49115,-79.49353 L313.59787,-79.42353 L313.70456,-79.35833 L313.81128,-79.29785 L313.91797,-79.24198 L314.0247,-79.190636 L314.13138,-79.14373 L314.23807,-79.10116 L314.3448,-79.06284 L314.45148,-79.028694 L314.5582,-78.99862 L314.6649,-78.97254 L314.77158,-78.95038 L314.8783,-78.93204 L314.985,-97.97537 L315.0917,-97.66194 L315.1984,-97.3569 L315.3051,-97.0601 L315.4118,-96.77138 L315.5185,-96.490585 L315.6252,-96.21758 L315.7319,-95.95222 L315.83862,-95.69435 L315.9453,-95.44384 L316.05203,-95.20055 L316.15872,-94.96433 L316.2654,-94.73507 L316.37213,-94.51262 L316.47882,-94.29685 L316.58554,-94.08764 L316.69223,-132.29068 L316.79892,-131.48459 L316.90564,-130.69437 L317.01233,-129.91972 L317.11905,-129.16039 L317.22574,-128.41609 L317.33246,-127.68659 L317.43915,-126.97162 L317.54584,-126.27091 L317.65256,-125.58423 L317.75925,-124.911316 L317.86597,-124.25194 L317.97266,-123.60586 L318.07935,-122.97283 L318.18607,-122.35264 L318.29276,-121.74504 L318.39948,-121.14982 L318.50616,-120.56676 L318.61288,-139.10773 L318.71957,-138.24496 L318.82626,-137.39853 L318.93298,-136.56813 L319.03967,-135.75351 L319.1464,-134.95436 L319.25308,-134.17044 L319.35977,-133.40147 L319.4665,-132.6472 L319.57318,-151.02686 L319.6799,-149.9977 L319.7866,-148.98729 L319.8933,-147.9953 L320,-147.02142" fill="none" stroke="#0971B2" stroke-linejoin="round" stroke-width="1.2"/>
</g>
<g>
<path d="M-0.76307654,-110.0635 l2.4,2.4 m-2.4,0 l2.4,-2.4 z" fill="none" stroke="#FF0000" stroke-width="2"/>
<path d="M0.3917253,-126.05661 l2.4,2.4 m-2.4,0 l2.4,-2.4 z" fill="none" stroke="#FF0000" stroke-width="2"/>
<path d="M2.837491,-133.37576 l2.4,2.4 m-2.4,0 l2.4,-2.4 z" fill="none" stroke="#FF0000" stroke-width="2"/>
<path d="M4.576247,-141.28094 l2.4,2.4 m-2.4,0 l2.4,-2.4 z" fill="none" stroke="#FF0000" stroke-width="2"/>
<path d="M10.071878,-123.96476 l2.4,2.4 m-2.4,0 l2.4,-2.4 z" fill="none" stroke="#FF0000" stroke-width="2"/>
<path d="M18.448364,-95.693146 l2.4,2.4 m-2.4,0 l2.4,-2.4 z" fill="none" stroke="#FF0000" stroke-width="2"/>
<path d="M18.907366,-111.72294 l2.4,2.4 m-2.4,0 l2.4,-2.4 z" fill="none" stroke="#FF0000" stroke-width="2"/>
<path d="M27.173332,-74.85304 l2.4,2.4 m-2.4,0 l2.4,-2.4 z" fill="none" stroke="#FF0000" stroke-width="2"/>
<path d="M27.522898,-91.43853 l2.4,2.4 m-2.4,0 l2.4,-2.4 z" fill="none" stroke="#FF0000" stroke-width="2"/>
<path d="M32.029106,-73.747894 l2.4,2.4 m-2.4,0 l2.4,-2.4 z" fill="none" stroke="#FF0000" stroke-width="2"/>
<path d="M33.488335,-80.39952 l2.4,2.4 m-2.4,0 l2.4,-2.4 z" fill="none" stroke="#FF0000" stroke-width="2"/>
<path d="M38.86671,-56.448402 l2.4,2.4 m-2.4,0 l2.4,-2.4 z" fill="none" stroke="#FF0000" stroke-width="2"/>
<path d="M41.100746,-58.721897 l2.4,2.4 m-2.4,0 l2.4,-2.4 z" fill="none" stroke="#FF0000" stroke-width="2"/>
<path d="M54.66809,-20.564184 l2.4,2.4 m-2.4,0 l2.4,-2.4 z" fill="none" stroke="#FF0000" stroke-width="2"/>
<path d="M57.12802,-32.27512 l2.4,2.4 m-2.4,0 l2.4,-2.4 z" fill="none" stroke="#FF0000" stroke-width="2"/>
<path d="M58.98247,-43.44329 l2.4,2.4 m-2.4,0 l2.4,-2.4 z" fill="none" stroke="#FF0000" stroke-width="2"/>
<path d="M75.3012,-46.914356 l2.4,2.4 m-2.4,0 l2.4,-2.4 z" fill="none" stroke="#FF0000" stroke-width="2"/>
<path d="M75.34147,-66.1021 l2.4,2.4 m-2.4,0 l2.4,-2.4 z" fill="none" stroke="#FF0000" stroke-width="2"/>
<path d="M81.24893,-75.838486 l2.4,2.4 m-2.4,0 l2.4,-2.4 z" fill="none" stroke="#FF0000" stroke-width="2"/>
<path d="M82.4783,-92.20482 l2.4,2.4 m-2.4,0 l2.4,-2.4 z" fill="none" stroke="#FF0000" stroke-width="2"/>
<path d="M82.689964,-110.45059 l2.4,2.4 m-2.4,0 l2.4,-2.4 z" fill="none" stroke="#FF0000" stroke-width="2"/>
<path d="M87.02398,-109.04292 l2.4,2.4 m-2.4,0 l2.4,-2.4 z" fill="none" stroke="#FF0000" stroke-width="2"/>
<path d="M87.0544,-128.10316 l2.4,2.4 m-2.4,0 l2.4,-2.4 z" fill="none" stroke="#FF0000" stroke-width="2"/>
<path d="M87.98355,-140.19888 l2.4,2.4 m-2.4,0 l2.4,-2.4 z" fill="none" stroke="#FF0000" stroke-width="2"/>
<path d="M97.55119,-117.61294 l2.4,2.4 m-2.4,0 l2.4,-2.4 z" fill="none" stroke="#FF0000" stroke-width="2"/>
<path d="M98.03142,-134.98282 l2.4,2.4 m-2.4,0 l2.4,-2.4 z" fill="none" stroke="#FF0000" stroke-width="2"/>
<path d="M98.29961,-152.4866 l2.4,2.4 m-2.4,0 l2.4,-2.4 z" fill="none" stroke="#FF0000" stroke-width="2"/>
<path d="M101.002914,-151.7224 l2.4,2.4 m-2.4,0 l2.4,-2.4 z" fill="none" stroke="#FF0000" stroke-width="2"/>
<path d="M103.427284,-153.29556 l2.4,2.4 m-2.4,0 l2.4,-2.4 z" fill="none" stroke="#FF0000" stroke-width="2"/>
<path d="M106.025795,-153.40143 l2.4,2.4 m-2.4,0 l2.4,-2.4 z" fill="none" stroke="#FF0000" stroke-width="2"/>
<path d="M108.48225,-154.10027 l2.4,2.4 m-2.4,0 l2.4,-2.4 z" fill="none" stroke="#FF0000" stroke-width="2"/>
<path d="M109.2962,-166.22804 l2.4,2.4 m-2.4,0 l2.4,-2.4 z" fill="none" stroke="#FF0000" stroke-width="2"/>
<path d="M110.27089,-175.30261 l2.4,2.4 m-2.4,0 l2.4,-2.4 z" fill="none" stroke="#FF0000" stroke-width="2"/>
<path d="M110.53967,-191.2 l2.4,2.4 m-2.4,0 l2.4,-2.4 z" fill="none" stroke="#FF0000" stroke-width="2"/>
<path d="M114.40411,-165.16234 l2.4,2.4 m-2.4,0 l2.4,-2.4 z" fill="none" stroke="#FF0000" stroke-width="2"/>
<path d="M117.750084,-151.85922 l2.4,2.4 m-2.4,0 l2.4,-2.4 z" fill="none" stroke="#FF0000" stroke-width="2"/>
<path d="M119.300995,-155.79964 l2.4,2.4 m-2.4,0 l2.4,-2.4 z" fill="none" stroke="#FF0000" stroke-width="2"/>
<path d="M125.64701,-121.03532 l2.4,2.4 m-2.4,0 l2.4,-2.4 z" fill="none" stroke="#FF0000" stroke-width="2"/>
<path d="M126.751205,-130.8645 l2.4,2.4 m-2.4,0 l2.4,-2.4 z" fill="none" stroke="#FF0000" stroke-width="2"/>
<path d="M129.65515,-122.82 l2.4,2.4 m-2.4,0 l2.4,-2.4 z" fill="none" stroke="#FF0000" stroke-width="2"/>
<path d="M130.12485,-137.0357 l2.4,2.4 m-2.4,0 l2.4,-2.4 z" fill="none" stroke="#FF0000" stroke-width="2"/>
<path d="M133.34152,-120.44974 l2.4,2.4 m-2.4,0 l2.4,-2.4 z" fill="none" stroke="#FF0000" stroke-width="2"/>
<path d="M134.05736,-131.29944 l2.4,2.4 m-2.4,0 l2.4,-2.4 z" fill="none" stroke="#FF0000" stroke-width="2"/>
<path d="M148.74,-44.25591 l2.4,2.4 m-2.4,0 l2.4,-2.4 z" fill="none" stroke="#FF0000" stroke-width="2"/>
<path d="M149.46475,-59.01105 l2.4,2.4 m-2.4,0 l2.4,-2.4 z" fill="none" stroke="#FF0000" stroke-width="2"/>
<path d="M150.82066,-67.22472 l2.4,2.4 m-2.4,0 l2.4,-2.4 z" fill="none" stroke="#FF0000" stroke-width="2"/>
<path d="M154.43146,-56.55516 l2.4,2.4 m-2.4,0 l2.4,-2.4 z" fill="none" stroke="#FF0000" stroke-width="2"/>
<path d="M156.06152,-62.061283 l2.4,2.4 m-2.4,0 l2.4,-2.4 z" fill="none" stroke="#FF0000" stroke-width="2"/>
<path d="M164.54343,-30.86333 l2.4,2.4 m-2.4,0 l2.4,-2.4 z" fill="none" stroke="#FF0000" stroke-width="2"/>
<path d="M169.33354,-32.08597 l2.4,2.4 m-2.4,0 l2.4,-2.4 z" fill="none" stroke="#FF0000" stroke-width="2"/>
<path d="M171.3668,-42.8701 l2.4,2.4 m-2.4,0 l2.4,-2.4 z" fill="none" stroke="#FF0000" stroke-width="2"/>
<path d="M174.11995,-49.029922 l2.4,2.4 m-2.4,0 l2.4,-2.4 z" fill="none" stroke="#FF0000" stroke-width="2"/>
<path d="M183.39557,-46.66225 l2.4,2.4 m-2.4,0 l2.4,-2.4 z" fill="none" stroke="#FF0000" stroke-width="2"/>
<path d="M188.16098,-61.117893 l2.4,2.4 m-2.4,0 l2.4,-2.4 z" fill="none" stroke="#FF0000" stroke-width="2"/>
<path d="M196.13188,-77.34225 l2.4,2.4 m-2.4,0 l2.4,-2.4 z" fill="none" stroke="#FF0000" stroke-width="2"/>
<path d="M196.21596,-96.42411 l2.4,2.4 m-2.4,0 l2.4,-2.4 z" fill="none" stroke="#FF0000" stroke-width="2"/>
<path d="M204.6255,-102.049416 l2.4,2.4 m-2.4,0 l2.4,-2.4 z" fill="none" stroke="#FF0000" stroke-width="2"/>
<path d="M205.2969,-119.618164 l2.4,2.4 m-2.4,0 l2.4,-2.4 z" fill="none" stroke="#FF0000" stroke-width="2"/>
<path d="M208.9455,-125.582375 l2.4,2.4 m-2.4,0 l2.4,-2.4 z" fill="none" stroke="#FF0000" stroke-width="2"/>
<path d="M209.27455,-143.11813 l2.4,2.4 m-2.4,0 l2.4,-2.4 z" fill="none" stroke="#FF0000" stroke-width="2"/>
<path d="M210.46182,-153.88025 l2.4,2.4 m-2.4,0 l2.4,-2.4 z" fill="none" stroke="#FF0000" stroke-width="2"/>
<path d="M217.57866,-133.60858 l2.4,2.4 m-2.4,0 l2.4,-2.4 z" fill="none" stroke="#FF0000" stroke-width="2"/>
<path d="M223.53995,-128.12987 l2.4,2.4 m-2.4,0 l2.4,-2.4 z" fill="none" stroke="#FF0000" stroke-width="2"/>
<path d="M224.1427,-143.98288 l2.4,2.4 m-2.4,0 l2.4,-2.4 z" fill="none" stroke="#FF0000" stroke-width="2"/>
<path d="M225.44972,-153.20882 l2.4,2.4 m-2.4,0 l2.4,-2.4 z" fill="none" stroke="#FF0000" stroke-width="2"/>
<path d="M227.27621,-156.19034 l2.4,2.4 m-2.4,0 l2.4,-2.4 z" fill="none" stroke="#FF0000" stroke-width="2"/>
<path d="M227.34058,-174.72433 l2.4,2.4 m-2.4,0 l2.4,-2.4 z" fill="none" stroke="#FF0000" stroke-width="2"/>
<path d="M229.25584,-170.81274 l2.4,2.4 m-2.4,0 l2.4,-2.4 z" fill="none" stroke="#FF0000" stroke-width="2"/>
<path d="M230.93254,-169.52426 l2.4,2.4 m-2.4,0 l2.4,-2.4 z" fill="none" stroke="#FF0000" stroke-width="2"/>
<path d="M236.86403,-129.4133 l2.4,2.4 m-2.4,0 l2.4,-2.4 z" fill="none" stroke="#FF0000" stroke-width="2"/>
<path d="M241.18549,-113.53835 l2.4,2.4 m-2.4,0 l2.4,-2.4 z" fill="none" stroke="#FF0000" stroke-width="2"/>
<path d="M243.90819,-110.19932 l2.4,2.4 m-2.4,0 l2.4,-2.4 z" fill="none" stroke="#FF0000" stroke-width="2"/>
<path d="M244.557,-123.06826 l2.4,2.4 m-2.4,0 l2.4,-2.4 z" fill="none" stroke="#FF0000" stroke-width="2"/>
<path d="M269.99146,-20.341717 l2.4,2.4 m-2.4,0 l2.4,-2.4 z" fill="none" stroke="#FF0000" stroke-width="2"/>
<path d="M277.79333,-20.361279 l2.4,2.4 m-2.4,0 l2.4,-2.4 z" fill="none" stroke="#FF0000" stroke-width="2"/>
<path d="M301.2315,-49.825302 l2.4,2.4 m-2.4,0 l2.4,-2.4 z" fill="none" stroke="#FF0000" stroke-width="2"/>
<path d="M303.0358,-69.07026 l2.4,2.4 m-2.4,0 l2.4,-2.4 z" fill="none" stroke="#FF0000" stroke-width="2"/>
<path d="M304.5096,-85.410805 l2.4,2.4 m-2.4,0 l2.4,-2.4 z" fill="none" stroke="#FF0000" stroke-width="2"/>
<path d="M305.4293,-101.08194 l2.4,2.4 m-2.4,0 l2.4,-2.4 z" fill="none" stroke="#FF0000" stroke-width="2"/>
<path d="M313.72565,-99.35342 l2.4,2.4 m-2.4,0 l2.4,-2.4 z" fill="none" stroke="#FF0000" stroke-width="2"/>
<path d="M315.47998,-114.336136 l2.4,2.4 m-2.4,0 l2.4,-2.4 z" fill="none" stroke="#FF0000" stroke-width="2"/>
<path d="M315.48685,-133.53174 l2.4,2.4 m-2.4,0 l2.4,-2.4 z" fill="none" stroke="#FF0000" stroke-width="2"/>
<path d="M317.37244,-140.63895 l2.4,2.4 m-2.4,0 l2.4,-2.4 z" fill="none" stroke="#FF0000" stroke-width="2"/>
<path d="M318.33536,-152.59642 l2.4,2.4 m-2.4,0 l2.4,-2.4 z" fill="none" stroke="#FF0000" stroke-width="2"/>
</g>
<g>
<g>
<line stroke="black" stroke-width="1" x1="0" x2="0" y1="0" y2="10"/>
<line stroke="black" stroke-width="1" x1="53.351117039013005" x2="53.351117039013005" y1="0" y2="10"/>
<line stroke="black" stroke-width="1" x1="106.70223407802601" x2="106.70223407802601" y1="0" y2="10"/>
<line stroke="black" stroke-width="1" x1="160.05335111703903" x2="160.05335111703903" y1="0" y2="10"/>
<line stroke="black" stroke-width="1" x1="213.40446815605202" x2="213.40446815605202" y1="0" y2="10"/>
<line stroke="black" stroke-width="1" x1="266.755585195065" x2="266.755585195065" y1="0" y2="10"/>
</g>
<line stroke="black" stroke-width="1" x1="0" x2="320" y1="0" y2="0"/>
<g>
<text font-size="12" text-anchor="middle" x="0" y="20">
0
</text>
<text font-size="12" text-anchor="middle" x="53.351117039013005" y="20">
10
</text>
<text font-size="12" text-anchor="middle" x="106.70223407802601" y="20">
20
</text>
<text font-size="12" text-anchor="middle" x="160.05335111703903" y="20">
30
</text>
<text font-size="12" text-anchor="middle" x="213.40446815605202" y="20">
40
</text>
<text font-size="12" text-anchor="middle" x="266.755585195065" y="20">
50
</text>
</g>
<text font-size="12" text-anchor="middle" x="160" y="30">
Time t
</text>
</g>
<g>
<g>
<line stroke="black" stroke-width="1" x1="0" x2="-10" y1="-22.35059362505139" y2="-22.35059362505139"/>
<line stroke="black" stroke-width="1" x1="0" x2="-10" y1="-60.807221128892" y2="-60.807221128892"/>
<line stroke="black" stroke-width="1" x1="0" x2="-10" y1="-99.2638486327326" y2="-99.2638486327326"/>
<line stroke="black" stroke-width="1" x1="0" x2="-10" y1="-137.7204761365732" y2="-137.7204761365732"/>
<line stroke="black" stroke-width="1" x1="0" x2="-10" y1="-176.17710364041383" y2="-176.17710364041383"/>
</g>
<line stroke="black" stroke-width="1" x1="0" x2="0" y1="0" y2="-190"/>
<g>
<text dominant-baseline="middle" font-size="12" text-anchor="end" x="-15" y="-22.35059362505139">
0.8
</text>
<text dominant-baseline="middle" font-size="12" text-anchor="end" x="-15" y="-60.807221128892">
1.2000000000000002
</text>
<text dominant-baseline="middle" font-size="12" text-anchor="end" x="-15" y="-99.2638486327326">
1.6
</text>
<text dominant-baseline="middle" font-size="12" text-anchor="end" x="-15" y="-137.7204761365732">
2
</text>
<text dominant-baseline="middle" font-size="12" text-anchor="end" x="-15" y="-176.17710364041383">
2.4000000000000004
</text>
</g>
<text font-size="12" text-anchor="middle" transform="rotate(-90 -30 -95)" x="-30" y="-95">
(t)
</text>
</g>
</g>
</svg>