<svg viewBox="0 0 400 250" xmlns="http://www.w3.org/2000/svg">
<g transform="translate(48, 214)">
<g>
<path d="M0,-95.383 L0,-95.383 L0.10670223,-95.381996 L0.21340446,-95.37898 L0.32010671,-95.37397 L0.42680892,-95.36694 L0.53351116,-95.35791 L0.64021343,-95.34688 L0.74691564,-95.33383 L0.85361785,-95.31879 L0.9603201,-95.301735 L1.0670223,-95.28268 L1.1737245,-95.26161 L1.2804269,-95.23855 L1.3871291,-95.213486 L1.4938313,-95.18642 L1.6005335,-95.15735 L1.7072357,-95.12628 L1.813938,-95.09322 L1.9206402,-95.05816 L2.0273426,-95.0211 L2.1340446,-94.982056 L2.240747,-94.94101 L2.347449,-94.89798 L2.4541514,-94.85295 L2.5608537,-94.80595 L2.6675558,-94.75694 L2.7742581,-94.70596 L2.8809602,-94.653 L2.9876626,-94.59805 L3.094365,-94.54112 L3.201067,-94.48222 L3.3077693,-94.42135 L3.4144714,-94.3585 L3.5211737,-94.29368 L3.627876,-116.51198 L3.7345781,-116.0895 L3.8412805,-115.67068 L3.9479825,-115.25542 L4.054685,-114.843636 L4.161387,-114.43525 L4.2680893,-114.03018 L4.3747916,-113.62834 L4.481494,-113.22966 L4.5881963,-112.83405 L4.694898,-112.441444 L4.8016005,-112.05176 L4.908303,-111.664925 L5.015005,-111.28087 L5.1217074,-110.89952 L5.2284093,-110.520805 L5.3351116,-110.14465 L5.441814,-109.771 L5.5485163,-109.39979 L5.6552186,-109.03094 L5.7619205,-108.6644 L5.868623,-108.30009 L5.975325,-107.93796 L6.0820274,-107.57795 L6.18873,-107.21999 L6.2954316,-106.864044 L6.402134,-106.51003 L6.5088363,-128.26251 L6.6155386,-127.561356 L6.722241,-126.86754 L6.828943,-126.18093 L6.935645,-125.50138 L7.0423474,-124.828766 L7.1490498,-124.16293 L7.255752,-123.50376 L7.362454,-122.85112 L7.4691563,-122.20487 L7.5758586,-121.5649 L7.682561,-120.93108 L7.7892632,-120.3033 L7.895965,-119.68142 L8.002667,-119.06533 L8.10937,-118.45492 L8.216072,-117.85007 L8.322774,-117.25067 L8.429477,-116.65662 L8.536179,-116.067795 L8.642881,-115.4841 L8.749583,-114.90543 L8.856285,-114.33168 L8.962988,-113.76276 L9.06969,-113.198555 L9.176393,-112.63898 L9.283094,-112.08392 L9.389796,-133.79268 L9.496499,-132.8931 L9.603201,-132.00339 L9.709904,-131.12335 L9.816606,-130.25282 L9.923307,-129.39163 L10.03001,-128.53961 L10.136712,-127.696594 L10.243415,-126.86241 L10.350117,-126.03691 L10.456819,-125.21993 L10.563521,-124.41132 L10.670223,-123.61092 L10.776926,-122.81858 L10.883628,-122.034164 L10.99033,-121.25751 L11.097033,-120.48849 L11.203734,-119.72695 L11.310437,-118.97277 L11.417139,-118.2258 L11.523841,-117.48591 L11.630544,-116.752975 L11.737246,-138.15355 L11.843948,-137.08292 L11.95065,-136.02444 L12.057352,-134.9779 L12.164055,-133.94308 L12.270757,-132.9198 L12.37746,-131.90785 L12.484161,-130.90701 L12.590863,-129.91713 L12.697566,-128.93799 L12.804268,-127.9694 L12.910971,-127.01119 L13.017673,-126.06318 L13.124374,-125.12518 L13.231077,-124.19703 L13.337779,-123.27855 L13.444482,-122.36957 L13.551184,-121.469925 L13.657886,-120.57945 L13.764588,-119.698 L13.87129,-118.82539 L13.977993,-117.961494 L14.084695,-117.10615 L14.191397,-116.25919 L14.2980995,-115.420494 L14.404801,-114.5899 L14.511504,-113.76727 L14.618206,-112.95247 L14.724908,-112.14535 L14.831611,-111.34579 L14.938313,-110.55365 L15.045015,-109.7688 L15.151717,-108.99111 L15.258419,-108.22046 L15.365122,-107.45672 L15.471824,-106.699776 L15.5785265,-105.9495 L15.685228,-105.20578 L15.79193,-104.4685 L15.898633,-103.73755 L16.005335,-103.01281 L16.112038,-102.29418 L16.21874,-101.58155 L16.325441,-100.87482 L16.432144,-100.17387 L16.538847,-99.47861 L16.645548,-98.78894 L16.75225,-98.10476 L16.858953,-97.42598 L16.965654,-96.752495 L17.072357,-96.08421 L17.17906,-95.42105 L17.285763,-94.76292 L17.392464,-94.10972 L17.499166,-93.46137 L17.60587,-92.817795 L17.71257,-92.1789 L17.819273,-91.54461 L17.925976,-113.07714 L18.032677,-112.10004 L18.13938,-111.13288 L18.246082,-110.175514 L18.352785,-109.22777 L18.459486,-108.28948 L18.566189,-107.36051 L18.672892,-106.44069 L18.779593,-105.52987 L18.886295,-104.627914 L18.992998,-103.73466 L19.099699,-102.849976 L19.206402,-101.97371 L19.313105,-101.105736 L19.419807,-100.24592 L19.526508,-99.39411 L19.633211,-98.55019 L19.739914,-97.71403 L19.846615,-96.8855 L19.953318,-96.064476 L20.06002,-95.25084 L20.166721,-94.44446 L20.273424,-93.64523 L20.380127,-92.85303 L20.48683,-92.06774 L20.59353,-91.28926 L20.700233,-90.51748 L20.806936,-89.75227 L20.913637,-88.99355 L21.02034,-88.24121 L21.127043,-87.49514 L21.233744,-86.75524 L21.340446,-86.021416 L21.44715,-85.29357 L21.553852,-84.5716 L21.660553,-83.85543 L21.767256,-83.14495 L21.873959,-82.44008 L21.98066,-81.74072 L22.087362,-81.0468 L22.194065,-80.35822 L22.300766,-79.67491 L22.407469,-78.99677 L22.514172,-78.32374 L22.620874,-77.65572 L22.727575,-76.99265 L22.834278,-76.33445 L22.94098,-75.68104 L23.047682,-75.03234 L23.154385,-74.38829 L23.261087,-73.74881 L23.367788,-73.11384 L23.474491,-72.48331 L23.581194,-71.85715 L23.687897,-71.23529 L23.794598,-70.617676 L23.9013,-70.004234 L24.008003,-69.394905 L24.114704,-68.789635 L24.221407,-68.18836 L24.32811,-67.59103 L24.434813,-66.99757 L24.541513,-88.65139 L24.648216,-87.71246 L24.75492,-86.78285 L24.86162,-85.86241 L24.968323,-84.95101 L25.075026,-84.048515 L25.181726,-83.15478 L25.28843,-82.26968 L25.395132,-81.39308 L25.501835,-80.52486 L25.608536,-79.66488 L25.715239,-78.81303 L25.821941,-77.969185 L25.928642,-77.133224 L26.035345,-76.30504 L26.142048,-75.484505 L26.248749,-74.67151 L26.355452,-73.865944 L26.462154,-73.067696 L26.568857,-72.276665 L26.675558,-71.492744 L26.78226,-70.71583 L26.888964,-69.94582 L26.995665,-91.15437 L27.102367,-90.049126 L27.20907,-88.956024 L27.315771,-87.87488 L27.422474,-86.80553 L27.529177,-85.74778 L27.63588,-84.70147 L27.74258,-83.66642 L27.849283,-82.64247 L27.955986,-81.629456 L28.062687,-80.62721 L28.16939,-79.63558 L28.276093,-78.65441 L28.382793,-77.68354 L28.489496,-76.722824 L28.596199,-75.77211 L28.702902,-74.83126 L28.809603,-73.900116 L28.916306,-72.97855 L29.023008,-72.06642 L29.12971,-71.1636 L29.236412,-70.269936 L29.343115,-69.38531 L29.449816,-68.50958 L29.556519,-67.64264 L29.663221,-66.78435 L29.769924,-65.93459 L29.876625,-65.09325 L29.983328,-64.26019 L30.09003,-63.43532 L30.196732,-62.618507 L30.303434,-61.809647 L30.410137,-61.008625 L30.516838,-60.21534 L30.62354,-59.429676 L30.730244,-58.651535 L30.836946,-57.88081 L30.943647,-57.117405 L31.05035,-56.36122 L31.157053,-55.612156 L31.263754,-54.870117 L31.370457,-54.13501 L31.47716,-75.69766 L31.58386,-74.62233 L31.690563,-73.55927 L31.797266,-72.50831 L31.903969,-71.46928 L32.01067,-70.44199 L32.11737,-69.4263 L32.224075,-68.42203 L32.330776,-67.42902 L32.43748,-66.44711 L32.54418,-87.54376 L32.650883,-86.233315 L32.757587,-84.939064 L32.86429,-83.660774 L32.97099,-82.39821 L33.077694,-81.151146 L33.184395,-79.91936 L33.291096,-78.70262 L33.3978,-77.50072 L33.5045,-76.31342 L33.611202,-75.14055 L33.717907,-73.981865 L33.824608,-72.83718 L33.93131,-71.70629 L34.038013,-70.589005 L34.144714,-69.485115 L34.251415,-68.39445 L34.35812,-67.316795 L34.46482,-66.25199 L34.571526,-65.19985 L34.678226,-64.16019 L34.784927,-63.13283 L34.891632,-62.11761 L34.998333,-61.114357 L35.105034,-60.1229 L35.21174,-59.143074 L35.31844,-58.174725 L35.42514,-57.21769 L35.531845,-56.271816 L35.638546,-55.336945 L35.745247,-76.39401 L35.85195,-75.13181 L35.958652,-73.885704 L36.065353,-72.655464 L36.17206,-71.44087 L36.27876,-70.2417 L36.385464,-69.05772 L36.492165,-67.888725 L36.598866,-66.7345 L36.70557,-65.59483 L36.81227,-64.46952 L36.918972,-63.358368 L37.025677,-62.261166 L37.132378,-61.177723 L37.23908,-60.107845 L37.345783,-59.051346 L37.452484,-58.008038 L37.559185,-56.97774 L37.66589,-55.96027 L37.77259,-54.95545 L37.87929,-53.963108 L37.985996,-52.98307 L38.092697,-52.015175 L38.199398,-51.05925 L38.306103,-50.115135 L38.412804,-49.18267 L38.51951,-48.2617 L38.62621,-47.352066 L38.73291,-46.45362 L38.839615,-45.566208 L38.946316,-44.68969 L39.053017,-43.82391 L39.15972,-42.968735 L39.266422,-42.124023 L39.373123,-41.289635 L39.479828,-40.465435 L39.58653,-39.651295 L39.69323,-38.847076 L39.799934,-38.052658 L39.906635,-37.26791 L40.013336,-36.492706 L40.12004,-35.72693 L40.22674,-34.97045 L40.333443,-34.223164 L40.440147,-33.484943 L40.54685,-32.75568 L40.653553,-32.035255 L40.760254,-31.323566 L40.866955,-30.6205 L40.97366,-29.92595 L41.08036,-29.23981 L41.18706,-28.561981 L41.293766,-27.892359 L41.400467,-27.230843 L41.507168,-26.577335 L41.613873,-25.931742 L41.720573,-25.293964 L41.827274,-24.663912 L41.93398,-24.04149 L42.04068,-23.426613 L42.14738,-22.819187 L42.254086,-22.219128 L42.360786,-21.62635 L42.467487,-21.04077 L42.574192,-20.462301 L42.680893,-19.890865 L42.787598,-19.326382 L42.8943,-18.768772 L43.001,-18.217957 L43.107704,-17.673862 L43.214405,-17.136412 L43.321106,-16.605532 L43.42781,-16.081152 L43.53451,-15.5632 L43.641212,-15.051606 L43.747917,-14.546301 L43.854618,-14.047217 L43.96132,-13.554289 L44.068024,-13.067451 L44.174725,-12.586637 L44.281425,-12.111786 L44.38813,-11.642836 L44.49483,-11.179724 L44.601532,-32.98406 L44.708237,-32.179096 L44.814938,-31.385403 L44.921642,-30.602833 L45.028343,-29.831245 L45.135044,-29.070498 L45.24175,-28.320452 L45.34845,-27.580967 L45.45515,-26.851913 L45.561855,-26.133156 L45.668556,-25.424566 L45.775257,-24.726013 L45.88196,-24.037373 L45.988663,-23.35852 L46.095364,-22.689337 L46.20207,-22.029697 L46.30877,-21.379486 L46.41547,-20.738586 L46.522175,-20.106886 L46.628876,-19.484268 L46.735577,-18.870626 L46.84228,-18.265852 L46.948982,-17.669834 L47.055687,-17.08247 L47.162388,-16.503656 L47.26909,-38.041298 L47.375793,-37.128365 L47.482494,-36.229248 L47.589195,-35.34377 L47.6959,-34.471737 L47.8026,-33.612976 L47.9093,-32.76731 L48.016006,-31.934565 L48.122707,-31.114567 L48.22941,-30.30715 L48.336113,-29.512148 L48.442814,-28.729397 L48.549515,-27.958736 L48.65622,-27.20001 L48.76292,-26.45306 L48.869625,-25.717735 L48.976326,-24.993885 L49.083027,-24.281363 L49.18973,-23.580017 L49.296432,-22.889711 L49.403133,-22.210299 L49.50984,-21.541645 L49.61654,-20.88361 L49.72324,-20.236061 L49.829945,-19.598866 L49.936646,-18.971893 L50.043346,-18.355015 L50.15005,-17.748104 L50.256752,-17.151037 L50.363453,-16.563694 L50.470158,-38.034004 L50.57686,-37.115784 L50.68356,-36.212482 L50.790264,-35.323902 L50.896965,-34.44984 L51.00367,-33.5901 L51.11037,-32.744488 L51.21707,-31.912815 L51.323776,-31.094893 L51.430477,-30.290539 L51.537178,-29.499569 L51.643883,-28.721806 L51.750584,-27.957073 L51.857285,-27.205198 L51.96399,-26.466011 L52.07069,-25.739342 L52.17739,-25.025028 L52.284096,-24.322908 L52.390797,-23.632818 L52.497498,-22.954605 L52.604202,-22.28811 L52.710903,-21.633184 L52.817604,-20.989676 L52.92431,-20.357435 L53.03101,-19.736319 L53.137714,-19.126184 L53.244415,-18.52689 L53.351116,-17.938295 L53.45782,-17.360266 L53.56452,-39.038055 L53.671223,-38.12766 L53.777927,-59.2982 L53.88463,-58.068893 L53.99133,-56.860493 L54.098034,-55.67269 L54.204735,-54.505196 L54.311436,-53.35772 L54.41814,-52.229977 L54.52484,-51.121685 L54.631542,-50.032566 L54.738247,-48.962357 L54.844948,-47.91078 L54.95165,-46.87758 L55.058353,-45.86249 L55.165054,-44.865265 L55.27176,-43.885647 L55.37846,-42.923386 L55.48516,-41.978245 L55.591866,-41.049984 L55.698566,-40.138363 L55.805267,-39.243153 L55.911972,-38.36412 L56.018673,-37.50105 L56.125374,-36.653713 L56.23208,-35.82189 L56.33878,-35.005375 L56.44548,-34.203945 L56.552185,-33.4174 L56.658886,-32.645535 L56.765587,-31.888147 L56.87229,-31.145035 L56.978992,-30.416006 L57.085693,-29.700867 L57.192398,-28.99943 L57.2991,-28.311504 L57.405804,-27.636911 L57.512505,-26.975468 L57.619205,-26.326996 L57.72591,-25.691319 L57.83261,-25.068266 L57.939312,-24.457668 L58.046017,-23.859356 L58.152718,-23.273165 L58.25942,-22.698933 L58.366123,-22.1365 L58.472824,-21.585709 L58.579525,-21.046406 L58.68623,-20.518436 L58.79293,-20.001652 L58.89963,-19.495903 L59.006336,-19.001043 L59.113037,-18.516932 L59.219738,-18.043427 L59.326443,-17.580387 L59.433144,-17.127676 L59.53985,-16.68516 L59.64655,-16.252703 L59.75325,-15.830178 L59.859955,-15.417454 L59.966656,-15.014403 L60.073357,-14.620901 L60.18006,-14.236824 L60.286762,-13.862052 L60.393463,-13.496463 L60.500168,-13.139941 L60.60687,-12.792369 L60.71357,-12.453632 L60.820274,-12.123619 L60.926975,-11.802218 L61.033676,-11.48932 L61.14038,-11.184815 L61.24708,-10.8886 L61.353786,-10.600569 L61.460487,-10.320618 L61.56719,-10.048647 L61.673893,-9.7845545 L61.780594,-9.528242 L61.887295,-9.2796135 L61.994,-9.038572 L62.1007,-8.805024 L62.2074,-8.578876 L62.314106,-8.360036 L62.420807,-8.148414 L62.527508,-7.9439206 L62.634212,-7.7464685 L62.740913,-7.5559707 L62.847614,-29.566296 L62.95432,-29.037174 L63.06102,-28.520348 L63.16772,-28.015642 L63.274426,-27.522894 L63.381126,-27.041935 L63.48783,-26.572603 L63.594532,-26.114738 L63.701233,-25.668182 L63.807938,-25.232779 L63.91464,-24.808374 L64.02134,-24.394817 L64.128044,-23.991962 L64.23474,-23.599659 L64.341446,-23.217764 L64.44815,-22.846134 L64.554855,-22.484632 L64.66155,-22.133116 L64.76826,-21.791454 L64.87496,-21.459507 L64.98166,-21.137148 L65.08836,-20.824244 L65.19507,-20.520666 L65.301765,-20.22629 L65.40847,-19.940989 L65.515175,-19.664642 L65.62187,-19.39713 L65.72858,-19.138329 L65.83528,-18.888124 L65.94198,-18.6464 L66.04868,-18.413042 L66.15539,-18.187939 L66.262085,-17.970978 L66.36879,-17.76205 L66.475494,-17.56105 L66.58219,-17.367868 L66.688896,-17.182404 L66.7956,-17.004553 L66.9023,-16.834211 L67.009,-16.67128 L67.11571,-16.515661 L67.222404,-16.367258 L67.32911,-16.225973 L67.435814,-16.091713 L67.54251,-15.964383 L67.649216,-15.843892 L67.75592,-15.730149 L67.86262,-15.623065 L67.96932,-15.522552 L68.07603,-15.428522 L68.182724,-15.34089 L68.28943,-15.259571 L68.39613,-15.184483 L68.50283,-15.115541 L68.609535,-15.052667 L68.71624,-14.995779 L68.822945,-14.944798 L68.92964,-14.899648 L69.03635,-14.8602495 L69.14305,-14.826529 L69.24975,-14.79841 L69.35645,-14.775821 L69.46316,-14.758687 L69.569855,-14.746937 L69.67656,-14.7405 L69.783264,-14.739307 L69.88996,-14.743289 L69.996666,-14.752377 L70.10337,-14.766504 L70.21007,-14.7856045 L70.31677,-14.809611 L70.42348,-14.838462 L70.530174,-14.872092 L70.63688,-14.910439 L70.74358,-14.953439 L70.85028,-15.001032 L70.956985,-15.053158 L71.06369,-15.109756 L71.17039,-15.170769 L71.27709,-15.2361355 L71.3838,-15.305801 L71.49049,-15.379708 L71.5972,-15.4578 L71.7039,-15.540022 L71.8106,-15.626318 L71.917305,-15.716636 L72.02401,-15.810921 L72.13071,-15.909121 L72.23741,-16.011183 L72.34412,-16.117058 L72.45081,-16.226692 L72.55752,-16.340038 L72.66422,-16.457045 L72.77093,-16.577662 L72.877625,-16.701843 L72.98433,-16.82954 L73.091034,-16.960705 L73.19773,-17.095291 L73.304436,-17.233252 L73.41114,-17.374544 L73.51784,-17.51912 L73.62454,-17.666935 L73.73125,-17.817945 L73.837944,-17.972109 L73.94465,-18.129381 L74.05135,-18.28972 L74.15805,-18.453083 L74.264755,-18.619429 L74.37146,-18.788713 L74.47816,-18.960901 L74.58486,-19.135948 L74.69157,-19.313816 L74.79826,-19.494465 L74.90497,-19.677855 L75.01167,-19.863949 L75.11837,-20.052706 L75.225075,-20.244091 L75.33178,-20.438066 L75.43848,-20.634594 L75.54518,-20.83364 L75.651886,-21.035162 L75.75858,-21.23913 L75.86529,-21.445507 L75.97199,-21.654257 L76.07869,-21.865345 L76.185394,-22.078737 L76.2921,-22.2944 L76.398796,-22.512299 L76.5055,-22.732399 L76.612206,-22.95467 L76.7189,-23.17908 L76.82561,-23.405592 L76.93231,-23.634176 L77.03902,-23.864801 L77.14571,-24.097435 L77.25242,-24.332047 L77.35912,-24.568604 L77.46582,-24.80708 L77.572525,-25.047438 L77.67923,-25.289654 L77.78593,-25.533695 L77.89263,-25.779531 L77.99934,-26.027136 L78.10603,-26.276476 L78.21274,-26.527527 L78.31944,-26.780258 L78.42614,-27.034641 L78.532845,-27.290648 L78.63955,-27.54825 L78.74625,-27.807423 L78.85295,-28.068136 L78.959656,-28.330364 L79.06635,-28.594078 L79.17306,-28.859255 L79.27976,-29.125864 L79.38646,-29.393883 L79.493164,-29.663284 L79.59987,-29.93404 L79.706566,-30.20613 L79.81327,-30.47952 L79.919975,-30.754194 L80.02667,-31.030123 L80.13338,-31.307281 L80.24008,-31.585648 L80.34678,-31.865192 L80.45348,-32.145897 L80.56019,-32.427734 L80.666885,-32.71068 L80.77359,-32.99471 L80.880295,-33.279804 L80.98699,-33.565937 L81.0937,-55.809044 L81.2004,-55.748684 L81.307106,-55.694828 L81.4138,-55.64736 L81.52051,-55.606174 L81.62721,-55.571167 L81.73391,-55.542225 L81.840614,-55.51925 L81.94732,-55.502132 L82.054016,-55.49078 L82.16072,-55.485085 L82.267426,-55.48495 L82.37412,-55.49028 L82.48083,-55.500977 L82.58753,-55.51695 L82.69423,-55.5381 L82.800934,-55.56434 L82.90764,-55.595573 L83.014336,-55.631718 L83.12104,-55.67268 L83.227745,-77.71283 L83.33444,-77.41406 L83.44115,-77.1254 L83.54785,-76.84666 L83.65455,-76.57768 L83.76125,-76.318306 L83.86796,-76.06836 L83.974655,-75.82768 L84.08136,-75.596115 L84.188065,-75.373505 L84.29476,-75.15969 L84.40147,-74.95452 L84.50817,-74.75785 L84.61487,-74.56953 L84.72157,-74.389404 L84.82828,-74.21735 L84.934975,-74.0532 L85.04168,-73.896835 L85.148384,-73.74811 L85.25509,-73.60689 L85.361786,-95.52194 L85.46849,-95.04536 L85.575195,-94.581436 L85.68189,-94.12997 L85.7886,-93.69073 L85.8953,-93.26353 L86.002,-92.84814 L86.1087,-92.44437 L86.21541,-92.05201 L86.322105,-91.670876 L86.42881,-91.300766 L86.535515,-90.9415 L86.64221,-90.592865 L86.74892,-90.25469 L86.85562,-89.9268 L86.96232,-89.609 L87.06902,-89.301125 L87.17573,-89.00299 L87.282425,-88.714424 L87.38913,-88.435265 L87.495834,-88.16534 L87.60253,-87.90448 L87.709236,-87.65253 L87.81594,-87.409325 L87.92264,-87.17471 L88.02934,-86.94853 L88.13605,-86.73064 L88.242744,-86.520874 L88.34945,-86.31909 L88.456154,-86.125145 L88.56285,-85.938896 L88.669556,-85.76019 L88.77626,-85.588905 L88.88296,-85.42488 L88.98966,-85.268005 L89.09637,-85.118126 L89.203064,-107.26783 L89.30977,-106.77772 L89.41647,-106.299835 L89.52318,-105.83397 L89.629875,-105.379906 L89.73658,-104.93744 L89.843285,-104.506355 L89.94998,-104.086464 L90.05669,-103.67755 L90.16339,-103.279434 L90.27009,-102.89191 L90.37679,-102.51479 L90.4835,-102.14789 L90.590195,-101.79102 L90.6969,-101.44401 L90.803604,-101.10666 L90.9103,-100.77881 L91.017006,-100.46027 L91.12371,-100.150894 L91.23041,-99.850494 L91.33711,-99.55891 L91.44382,-99.27597 L91.550514,-99.00152 L91.65722,-98.735405 L91.76392,-98.477455 L91.87062,-98.22753 L91.977325,-97.98547 L92.08403,-97.75114 L92.19073,-97.52436 L92.29743,-97.305016 L92.40414,-97.09295 L92.51083,-96.88803 L92.61754,-96.69011 L92.72424,-96.499054 L92.83094,-96.31473 L92.937645,-96.137 L93.04435,-95.965744 L93.15105,-95.80082 L93.25775,-95.64211 L93.364456,-95.48949 L93.47115,-95.34283 L93.57786,-117.26253 L93.68456,-116.777275 L93.79127,-116.303185 L93.897964,-115.84006 L94.00467,-115.38768 L94.111374,-114.94587 L94.21807,-114.51442 L94.324776,-114.09314 L94.43148,-113.68185 L94.53818,-113.28036 L94.64488,-112.88847 L94.75159,-112.50603 L94.858284,-112.132835 L94.96499,-111.76872 L95.07169,-111.41351 L95.17839,-111.067055 L95.285095,-110.72916 L95.3918,-110.399666 L95.4985,-110.07842 L95.6052,-109.76527 L95.71191,-109.46003 L95.8186,-109.16257 L95.92531,-108.87273 L96.03201,-108.590355 L96.13871,-108.31531 L96.245415,-108.04743 L96.35212,-107.78659 L96.45882,-107.53264 L96.56552,-107.28544 L96.672226,-107.04485 L96.77892,-106.810745 L96.88563,-106.582985 L96.99233,-106.36144 L97.09903,-106.14599 L97.205734,-105.93649 L97.31244,-105.73283 L97.419136,-105.534874 L97.52584,-105.342514 L97.632545,-105.155624 L97.73925,-104.97409 L97.84595,-104.79779 L97.95265,-126.61034 L98.05936,-126.09523 L98.16605,-125.59056 L98.27276,-125.09614 L98.37946,-124.61176 L98.48616,-124.13724 L98.592865,-123.672386 L98.69957,-123.21702 L98.80627,-122.77096 L98.91297,-122.334015 L99.01968,-121.90601 L99.12637,-121.486786 L99.23308,-121.076164 L99.33978,-120.67397 L99.44648,-120.280045 L99.553185,-119.894226 L99.65989,-119.51634 L99.76659,-119.14625 L99.87329,-118.78378 L99.979996,-118.42879 L100.08669,-118.081116 L100.1934,-117.74062 L100.3001,-117.40716 L100.4068,-117.080574 L100.513504,-116.760735 L100.62021,-116.447495 L100.726906,-116.140724 L100.83361,-115.84028 L100.940315,-115.546036 L101.04701,-115.25785 L101.15372,-114.9756 L101.26042,-114.699165 L101.36712,-114.428406 L101.47382,-114.163216 L101.58053,-113.90346 L101.687225,-113.64902 L101.79393,-113.39977 L101.900635,-113.155624 L102.00734,-112.916435 L102.11404,-112.68211 L102.22074,-112.45254 L102.327446,-112.2276 L102.43414,-112.007195 L102.54085,-111.791214 L102.64755,-111.57956 L102.75425,-111.37212 L102.860954,-111.16881 L102.96766,-110.96951 L103.074356,-110.77414 L103.18106,-110.582596 L103.287766,-110.39478 L103.39446,-110.21062 L103.50117,-110.02999 L103.60787,-109.85282 L103.71457,-109.67902 L103.82127,-109.508514 L103.92798,-109.341194 L104.034676,-109.17699 L104.14138,-109.01581 L104.248085,-108.857574 L104.35478,-108.7022 L104.46149,-108.54962 L104.56819,-108.39975 L104.67489,-108.2525 L104.78159,-108.10781 L104.8883,-107.96561 L104.994995,-107.825806 L105.1017,-107.68833 L105.208405,-107.55313 L105.3151,-107.42012 L105.42181,-107.28924 L105.52851,-107.16041 L105.63521,-107.03357 L105.74191,-106.90866 L105.84862,-106.78561 L105.955315,-106.66435 L106.06202,-106.54483 L106.168724,-106.42698 L106.27543,-106.310745 L106.382126,-106.19606 L106.48883,-106.08287 L106.595535,-105.971115 L106.70223,-105.86074 L106.80894,-105.751686 L106.91564,-105.643906 L107.02234,-105.53734 L107.12904,-105.43193 L107.23575,-105.32764 L107.342445,-105.224396 L107.44915,-105.12217 L107.555855,-105.02089 L107.66255,-104.920525 L107.76926,-104.82102 L107.87596,-104.72233 L107.98266,-104.624405 L108.08936,-104.5272 L108.19607,-104.430664 L108.302765,-104.33476 L108.40947,-104.239456 L108.516174,-104.144684 L108.62287,-104.05042 L108.729576,-103.95661 L108.83628,-103.86323 L108.94298,-103.770226 L109.04968,-103.67757 L109.15639,-103.585205 L109.263084,-103.4931 L109.36979,-103.40123 L109.476494,-103.309555 L109.58319,-103.218025 L109.689896,-103.12662 L109.7966,-103.035286 L109.9033,-102.94401 L110.01,-102.85275 L110.11671,-102.76147 L110.22341,-102.670135 L110.33011,-102.57873 L110.43681,-102.4872 L110.54352,-102.39552 L110.650215,-102.30368 L110.75692,-102.211624 L110.863625,-102.11934 L110.97032,-102.02679 L111.07703,-101.93395 L111.18373,-101.84079 L111.29043,-101.747284 L111.39713,-101.653404 L111.50384,-101.55913 L111.610535,-101.464424 L111.71724,-101.36928 L111.823944,-101.27365 L111.93064,-101.17753 L112.037346,-101.08088 L112.14405,-100.98368 L112.25075,-100.88592 L112.35745,-100.78757 L112.46416,-100.6886 L112.570854,-100.589 L112.67756,-100.48874 L112.78426,-100.3878 L112.89096,-100.28616 L112.997665,-122.45034 L113.10437,-121.99382 L113.21107,-121.54215 L113.31777,-121.09524 L113.42448,-120.652954 L113.53117,-120.21521 L113.63788,-119.7819 L113.74458,-119.35291 L113.85128,-118.92817 L113.957985,-118.50755 L114.06469,-118.09098 L114.17139,-117.67835 L114.27809,-117.26958 L114.384796,-116.86456 L114.4915,-116.46322 L114.5982,-116.06546 L114.7049,-115.6712 L114.81161,-115.28036 L114.918304,-114.89284 L115.02501,-114.50857 L115.131714,-114.127464 L115.23841,-135.94568 L115.345116,-135.21835 L115.45182,-134.49956 L115.55852,-133.78912 L115.66522,-133.08688 L115.77193,-132.39268 L115.878624,-153.70996 L115.98533,-152.68213 L116.09203,-151.6674 L116.19873,-150.66559 L116.305435,-149.6764 L116.41214,-148.69968 L116.51884,-147.73512 L116.62554,-146.78256 L116.73225,-145.84177 L116.83894,-144.9125 L116.94565,-143.9946 L117.05235,-143.08781 L117.15905,-142.19196 L117.265755,-141.30682 L117.37246,-140.43222 L117.47916,-139.56796 L117.58586,-138.71384 L117.692566,-137.86967 L117.79926,-137.0353 L117.90597,-136.2105 L118.01267,-135.39511 L118.11937,-134.58897 L118.226074,-133.79189 L118.33278,-133.00371 L118.439476,-132.22427 L118.54618,-131.45338 L118.652885,-130.6909 L118.75959,-129.93668 L118.86629,-129.19054 L118.97299,-128.45235 L119.0797,-127.72193 L119.18639,-126.99916 L119.2931,-126.28388 L119.3998,-125.57596 L119.5065,-124.87524 L119.613205,-124.181595 L119.71991,-123.49488 L119.82661,-122.81497 L119.93331,-122.14174 L120.040016,-121.47504 L120.14671,-120.81476 L120.25342,-120.16077 L120.36012,-119.51294 L120.46682,-118.87116 L120.573524,-118.23531 L120.68023,-117.60527 L120.78693,-116.980934 L120.89363,-116.362175 L121.000336,-115.748886 L121.10703,-115.14097 L121.21374,-114.53831 L121.32044,-113.9408 L121.42714,-113.34835 L121.533844,-112.76084 L121.64055,-112.178185 L121.747246,-111.60027 L121.85395,-111.02702 L121.960655,-110.458336 L122.06735,-109.89412 L122.17406,-109.334274 L122.28076,-108.77872 L122.38746,-108.22736 L122.49416,-107.68012 L122.60087,-107.13691 L122.70757,-106.59765 L122.81427,-106.06225 L122.920975,-105.530624 L123.02768,-105.002716 L123.13438,-104.478424 L123.24108,-103.957695 L123.347786,-103.44043 L123.45448,-102.926575 L123.56119,-102.41605 L123.66789,-101.90879 L123.77459,-101.40472 L123.881294,-100.90377 L123.988,-100.405876 L124.094696,-99.91097 L124.2014,-99.419 L124.308105,-98.929886 L124.4148,-98.44357 L124.52151,-97.96 L124.62821,-97.47911 L124.73491,-97.00085 L124.84161,-96.52514 L124.94832,-96.05194 L125.055016,-95.5812 L125.16172,-95.112854 L125.268425,-94.64686 L125.37512,-94.18315 L125.48183,-93.72169 L125.58853,-93.26242 L125.69523,-92.80529 L125.80193,-114.49719 L125.90864,-113.69268 L126.015335,-112.895744 L126.12204,-112.106255 L126.228745,-111.32407 L126.33544,-110.54909 L126.44215,-109.78116 L126.54885,-109.020164 L126.65555,-108.265976 L126.76225,-107.51848 L126.86896,-106.77756 L126.97566,-106.04309 L127.08236,-105.314964 L127.189064,-104.59307 L127.29577,-103.87729 L127.402466,-103.16752 L127.50917,-102.46365 L127.615875,-101.76559 L127.72257,-101.07322 L127.82928,-100.38644 L127.93598,-99.70516 L128.04268,-99.029274 L128.14938,-98.358696 L128.25609,-97.69332 L128.3628,-97.03307 L128.46948,-96.37784 L128.57619,-95.72755 L128.68289,-95.08211 L128.7896,-94.44142 L128.8963,-115.91134 L129.003,-114.929054 L129.10971,-113.956856 L129.2164,-112.994576 L129.3231,-134.22028 L129.42981,-132.9253 L129.53651,-131.64534 L129.64322,-130.38016 L129.74992,-129.12952 L129.85661,-127.89315 L129.96332,-126.67085 L130.07002,-125.46238 L130.17673,-124.26752 L130.28343,-123.08603 L130.39014,-121.91771 L130.49683,-120.76234 L130.60353,-119.6197 L130.71024,-118.48959 L130.81694,-117.37182 L130.92365,-116.26617 L131.03035,-115.17245 L131.13704,-114.090454 L131.24374,-113.02001 L131.35045,-111.96093 L131.45715,-110.91302 L131.56386,-109.8761 L131.67056,-108.85 L131.77725,-107.83453 L131.88396,-106.82954 L131.99066,-128.02107 L132.09737,-126.68435 L132.20407,-125.36319 L132.31078,-124.05734 L132.41747,-122.766556 L132.52417,-121.49059 L132.63087,-120.229225 L132.73758,-118.9822 L132.84428,-117.749306 L132.95099,-116.53032 L133.0577,-115.325005 L133.16438,-114.13315 L133.27109,-112.954544 L133.37779,-111.78897 L133.4845,-110.63623 L133.5912,-109.496124 L133.6979,-108.36844 L133.8046,-107.252975 L133.9113,-106.14956 L134.018,-105.05799 L134.12471,-103.97807 L134.23141,-102.90964 L134.33812,-101.8525 L134.44481,-100.80648 L134.55151,-99.7714 L134.65822,-98.7471 L134.76492,-97.7334 L134.87163,-96.73013 L134.97833,-95.73715 L135.08502,-94.75428 L135.19173,-93.78137 L135.29843,-92.81827 L135.40514,-91.864815 L135.51184,-90.92086 L135.61855,-89.98627 L135.72523,-89.06088 L135.83194,-110.34891 L135.93864,-109.08909 L136.04535,-107.84365 L136.15205,-106.61238 L136.25876,-105.39506 L136.36545,-104.19147 L136.47215,-103.00139 L136.57886,-101.82462 L136.68556,-100.660965 L136.79227,-99.5102 L136.89897,-98.37215 L137.00566,-97.246605 L137.11237,-96.13337 L137.21907,-95.03227 L137.32578,-93.94312 L137.43248,-92.86573 L137.53918,-91.79992 L137.64589,-90.745514 L137.75258,-89.70235 L137.85928,-88.67025 L137.96599,-87.64904 L138.0727,-86.638565 L138.1794,-85.63867 L138.2861,-84.64918 L138.39279,-83.66995 L138.4995,-82.70082 L138.6062,-81.74165 L138.7129,-80.79228 L138.81961,-79.85257 L138.92632,-100.90559 L139.033,-99.63583 L139.13971,-98.38087 L139.24641,-97.14044 L139.35312,-95.91436 L139.45982,-94.702385 L139.56653,-93.50432 L139.67322,-92.319954 L139.77992,-91.14907 L139.88663,-89.99148 L139.99333,-88.84697 L140.10004,-87.715355 L140.20674,-86.59644 L140.31343,-85.49004 L140.42014,-84.39597 L140.52684,-83.31405 L140.63354,-82.24409 L140.74025,-81.18591 L140.84695,-80.13935 L140.95364,-79.10424 L141.06035,-78.08041 L141.16705,-77.06768 L141.27376,-76.06591 L141.38046,-75.07493 L141.48717,-74.09458 L141.59387,-73.12472 L141.70056,-72.165184 L141.80727,-71.21583 L141.91397,-70.27651 L142.02068,-69.347084 L142.12738,-68.427414 L142.23409,-67.51735 L142.34077,-66.61677 L142.44748,-65.725525 L142.55418,-64.84349 L142.66089,-63.97054 L142.7676,-63.10654 L142.8743,-62.251373 L142.98099,-61.40491 L143.08769,-60.567036 L143.1944,-59.737625 L143.3011,-58.91657 L143.4078,-58.103745 L143.51451,-57.299046 L143.6212,-56.50236 L143.7279,-55.71358 L143.83461,-54.9326 L143.94131,-54.15931 L144.04802,-53.39361 L144.15472,-52.6354 L144.26141,-51.884575 L144.36812,-51.141045 L144.47482,-50.404713 L144.58153,-49.67548 L144.68823,-48.953255 L144.79494,-48.23795 L144.90163,-47.529472 L145.00833,-46.827732 L145.11504,-46.132652 L145.22174,-45.444138 L145.32845,-44.76211 L145.43515,-66.29328 L145.54185,-65.2715 L145.64854,-64.261566 L145.75525,-63.263298 L145.86195,-62.276546 L145.96866,-61.30114 L146.07536,-60.33693 L146.18207,-59.383755 L146.28876,-58.441463 L146.39546,-57.509907 L146.50217,-56.588936 L146.60887,-55.67841 L146.71558,-54.77818 L146.82228,-53.888107 L146.92897,-53.008053 L147.03568,-52.137886 L147.14238,-51.277473 L147.24908,-50.426678 L147.35579,-49.585377 L147.4625,-48.75344 L147.56918,-47.930744 L147.67589,-47.11717 L147.7826,-46.31259 L147.8893,-45.516895 L147.996,-44.72996 L148.1027,-43.95168 L148.2094,-43.181934 L148.3161,-42.420616 L148.4228,-41.667618 L148.52951,-40.922836 L148.63622,-40.186157 L148.74292,-39.45749 L148.84961,-38.73672 L148.95631,-38.023758 L149.06302,-37.3185 L149.16972,-36.620857 L149.27643,-35.93073 L149.38313,-35.248024 L149.48982,-34.572655 L149.59653,-33.904526 L149.70323,-33.24355 L149.80994,-32.589645 L149.91664,-31.942724 L150.02335,-31.302704 L150.13005,-30.6695 L150.23674,-30.043034 L150.34344,-29.423225 L150.45015,-28.809998 L150.55685,-28.203272 L150.66356,-27.602976 L150.77026,-27.009035 L150.87695,-26.421373 L150.98366,-25.839926 L151.09036,-25.264616 L151.19707,-24.695377 L151.30377,-24.132145 L151.41048,-23.574848 L151.51717,-23.023424 L151.62387,-22.477808 L151.73058,-21.937937 L151.83728,-21.403748 L151.94398,-20.875181 L152.05069,-20.352177 L152.15738,-19.834677 L152.26408,-19.32262 L152.37079,-18.815954 L152.4775,-18.314621 L152.5842,-17.818567 L152.6909,-17.327738 L152.79759,-16.842081 L152.9043,-16.361544 L153.011,-15.886077 L153.1177,-15.415628 L153.22441,-14.9501505 L153.33112,-14.489594 L153.4378,-14.033912 L153.54451,-13.583057 L153.65121,-13.136985 L153.75792,-12.695649 L153.86462,-12.259007 L153.97133,-11.827014 L154.07803,-11.399628 L154.18472,-10.976807 L154.29143,-10.558509 L154.39813,-32.169342 L154.50484,-31.410381 L154.61154,-30.661375 L154.71825,-29.922195 L154.82494,-29.19272 L154.93164,-28.472826 L155.03835,-27.762392 L155.14505,-27.0613 L155.25175,-26.369436 L155.35846,-25.686684 L155.46515,-25.01293 L155.57185,-24.348066 L155.67856,-23.691982 L155.78526,-23.04457 L155.89197,-22.405727 L155.99867,-21.775349 L156.10536,-21.153334 L156.21207,-20.53958 L156.31877,-19.933989 L156.42548,-19.336466 L156.53218,-18.746914 L156.63889,-18.165241 L156.74557,-17.591352 L156.85228,-17.02516 L156.95898,-16.466574 L157.06569,-15.915505 L157.1724,-15.371869 L157.2791,-14.835581 L157.38579,-14.306555 L157.4925,-13.784712 L157.5992,-13.269969 L157.7059,-12.762248 L157.8126,-12.26147 L157.91931,-11.767559 L158.02602,-11.280438 L158.1327,-10.800035 L158.23941,-10.326275 L158.34612,-9.859087 L158.45282,-9.398399 L158.55952,-8.944143 L158.66623,-8.49625 L158.77292,-8.054652 L158.87962,-7.619283 L158.98633,-7.1900787 L159.09303,-6.766974 L159.19974,-6.3499064 L159.30644,-5.9388137 L159.41313,-5.533635 L159.51984,-5.1343102 L159.62654,-26.898928 L159.73325,-26.159424 L159.83995,-25.431183 L159.94666,-24.71406 L160.05334,-24.007912 L160.16005,-23.312597 L160.26675,-22.62798 L160.37346,-21.953922 L160.48016,-21.290293 L160.58687,-20.63696 L160.69356,-19.99379 L160.80026,-19.36066 L160.90697,-18.737444 L161.01367,-18.124018 L161.12038,-17.52026 L161.22708,-16.926052 L161.33377,-16.341276 L161.44048,-15.765815 L161.54718,-15.199556 L161.65388,-14.642387 L161.76059,-14.094199 L161.8673,-13.554882 L161.97398,-13.024329 L162.08069,-12.502436 L162.1874,-11.989099 L162.2941,-11.484215 L162.4008,-10.987686 L162.5075,-10.499412 L162.61421,-10.019296 L162.7209,-9.547242 L162.8276,-9.083158 L162.93431,-8.626948 L163.04102,-8.178525 L163.14772,-7.737796 L163.25443,-7.3046737 L163.36111,-6.8790717 L163.46782,-6.4609036 L163.57452,-6.050086 L163.68123,-5.6465354 L163.78793,-5.25017 L163.89464,-4.8609104 L164.00133,-4.4786763 L164.10803,-4.1033907 L164.21474,-3.7349763 L164.32144,-3.373358 L164.42815,-3.0184612 L164.53485,-2.670213 L164.64154,-24.611404 L164.74825,-23.922548 L164.85495,-45.464508 L164.96165,-44.446922 L165.06836,-43.44667 L165.17506,-42.463512 L165.28175,-41.497208 L165.38846,-40.54752 L165.49516,-39.614223 L165.60187,-38.697086 L165.70857,-37.79589 L165.81528,-36.91041 L165.92197,-36.040436 L166.02867,-35.18575 L166.13538,-34.346138 L166.24208,-33.5214 L166.34879,-32.711334 L166.45549,-31.915735 L166.5622,-31.134407 L166.66888,-30.367157 L166.77559,-29.613792 L166.8823,-28.874128 L166.989,-28.147978 L167.0957,-27.435158 L167.20241,-48.79222 L167.3091,-47.75543 L167.4158,-46.736996 L167.5225,-45.73666 L167.62921,-44.75417 L167.73592,-43.789272 L167.84262,-42.841717 L167.94931,-41.911266 L168.05602,-40.997677 L168.16272,-40.10071 L168.26942,-39.22014 L168.37613,-38.355732 L168.48283,-37.507267 L168.58952,-36.674515 L168.69623,-35.857265 L168.80293,-35.055298 L168.90964,-34.268402 L169.01634,-33.496376 L169.12305,-32.739006 L169.22974,-31.996092 L169.33644,-31.267437 L169.44315,-30.552847 L169.54985,-29.852125 L169.65656,-29.165085 L169.76326,-28.491539 L169.86995,-49.869553 L169.97665,-48.872635 L170.08336,-47.894226 L170.19006,-68.898315 L170.29677,-67.60749 L170.40347,-66.33992 L170.51018,-65.09527 L170.61687,-63.8732 L170.72357,-62.67339 L170.83028,-83.494835 L170.93698,-81.98937 L171.04369,-80.51076 L171.15039,-79.05858 L171.25708,-77.632454 L171.36378,-76.232 L171.47049,-74.856834 L171.5772,-73.506584 L171.6839,-72.180885 L171.7906,-70.87938 L171.8973,-69.60169 L172.004,-68.347496 L172.1107,-67.11644 L172.2174,-65.90818 L172.32411,-64.72238 L172.43082,-63.558716 L172.5375,-62.416866 L172.64421,-61.296505 L172.75092,-60.197327 L172.85762,-59.11902 L172.96432,-58.06127 L173.07103,-57.023796 L173.17772,-56.006287 L173.28442,-55.00846 L173.39113,-54.03003 L173.49783,-53.070713 L173.60454,-52.130234 L173.71124,-51.208317 L173.81793,-50.304695 L173.92464,-49.4191 L174.03134,-48.551285 L174.13805,-47.700977 L174.24475,-46.86793 L174.35146,-46.0519 L174.45815,-45.252636 L174.56485,-44.4699 L174.67155,-43.70345 L174.77826,-42.953056 L174.88496,-42.21849 L174.99167,-41.499523 L175.09837,-40.795933 L175.20506,-40.1075 L175.31177,-39.434002 L175.41847,-38.775234 L175.52518,-38.13098 L175.63188,-37.501038 L175.73859,-36.8852 L175.84528,-36.283268 L175.95198,-35.695045 L176.05869,-35.12034 L176.16539,-34.558952 L176.2721,-34.010696 L176.3788,-33.47539 L176.48549,-32.95285 L176.5922,-32.442894 L176.6989,-31.945343 L176.8056,-31.460024 L176.91231,-30.986767 L177.01901,-30.525396 L177.1257,-30.07575 L177.2324,-29.637663 L177.33911,-29.21097 L177.44582,-28.795513 L177.55252,-28.391134 L177.65923,-27.99768 L177.76591,-27.614996 L177.87262,-27.242931 L177.97932,-26.88134 L178.08603,-26.530073 L178.19273,-26.188988 L178.29944,-25.857943 L178.40613,-25.536798 L178.51283,-25.225416 L178.61954,-24.923658 L178.72624,-24.631395 L178.83295,-24.348494 L178.93965,-24.074823 L179.04636,-23.810257 L179.15305,-23.554667 L179.25975,-23.30793 L179.36646,-23.069925 L179.47316,-22.840528 L179.57986,-22.619623 L179.68657,-22.407093 L179.79326,-22.20282 L179.89996,-22.006691 L180.00667,-21.818594 L180.11337,-21.638418 L180.22008,-21.466057 L180.32678,-21.3014 L180.43347,-21.144339 L180.54018,-20.994776 L180.64688,-20.852602 L180.75359,-20.717718 L180.86029,-20.590025 L180.967,-20.469421 L181.07368,-20.355812 L181.18039,-20.249102 L181.2871,-20.149193 L181.3938,-20.055994 L181.5005,-19.969414 L181.60721,-19.88936 L181.7139,-19.815742 L181.8206,-19.748476 L181.9273,-19.687471 L182.03401,-19.632643 L182.14072,-19.583906 L182.24742,-19.541176 L182.35411,-19.504374 L182.46082,-19.473415 L182.56752,-19.448221 L182.67422,-19.428713 L182.78093,-19.414812 L182.88763,-19.40644 L182.99434,-19.403524 L183.10103,-19.405987 L183.20773,-19.413755 L183.31444,-19.426758 L183.42114,-19.44492 L183.52785,-19.46817 L183.63455,-19.49644 L183.74124,-19.529663 L183.84795,-19.567766 L183.95465,-19.610685 L184.06136,-19.658352 L184.16806,-19.710701 L184.27477,-19.76767 L184.38145,-42.080162 L184.48816,-41.79299 L184.59486,-41.515854 L184.70157,-41.248604 L184.80827,-40.991085 L184.91498,-40.743156 L185.02167,-40.504673 L185.12837,-40.275494 L185.23508,-40.055477 L185.34178,-39.844486 L185.44849,-39.642387 L185.55519,-39.44904 L185.66188,-39.264317 L185.76859,-39.08809 L185.87529,-38.920223 L185.982,-38.7606 L186.0887,-38.60909 L186.1954,-38.46557 L186.3021,-38.329918 L186.4088,-38.202023 L186.5155,-38.081757 L186.62221,-37.969006 L186.72891,-37.863663 L186.83562,-37.765606 L186.9423,-37.67473 L187.04901,-37.59092 L187.15572,-37.514072 L187.26242,-37.44408 L187.36913,-37.38084 L187.47583,-37.32424 L187.58253,-37.27419 L187.68922,-37.23058 L187.79593,-37.193314 L187.90263,-37.162292 L188.00934,-37.13742 L188.11604,-37.118603 L188.22275,-37.105743 L188.32944,-37.09875 L188.43614,-37.097538 L188.54285,-37.102005 L188.64955,-59.301304 L188.75626,-58.964676 L188.86296,-58.63906 L188.96965,-58.324284 L189.07635,-58.020172 L189.18306,-57.72656 L189.28976,-57.44328 L189.39647,-57.170166 L189.50317,-56.90706 L189.60986,-56.653793 L189.71657,-56.41022 L189.82327,-56.17618 L189.92998,-55.951523 L190.03668,-55.7361 L190.14339,-55.529755 L190.25008,-55.33235 L190.35678,-55.143738 L190.46349,-54.96378 L190.57019,-54.79233 L190.6769,-54.629257 L190.7836,-54.474422 L190.89029,-54.327694 L190.997,-54.18894 L191.1037,-54.05802 L191.2104,-53.934826 L191.31711,-53.819214 L191.42381,-53.711067 L191.53052,-75.802284 L191.6372,-97.6003 L191.74391,-96.814095 L191.85062,-96.045975 L191.95732,-95.295654 L192.06403,-94.56285 L192.17073,-93.84727 L192.27742,-93.148636 L192.38412,-92.466675 L192.49083,-91.80112 L192.59753,-91.151695 L192.70424,-90.51815 L192.81094,-89.900215 L192.91763,-89.297646 L193.02434,-88.710175 L193.13104,-88.13757 L193.23775,-87.5796 L193.34445,-87.03599 L193.45116,-86.50653 L193.55785,-85.99098 L193.66455,-85.48911 L193.77126,-85.0007 L193.87796,-84.52552 L193.98466,-84.063354 L194.09137,-83.61399 L194.19806,-83.177216 L194.30476,-82.752815 L194.41147,-82.34059 L194.51817,-81.94033 L194.62488,-81.55184 L194.73158,-81.17492 L194.83827,-80.80938 L194.94498,-80.455025 L195.05168,-80.11167 L195.15839,-79.77912 L195.26509,-79.457214 L195.3718,-79.145744 L195.4785,-78.84456 L195.58519,-78.55346 L195.6919,-78.27229 L195.7986,-78.00088 L195.9053,-77.73905 L196.01201,-77.48666 L196.11871,-77.243515 L196.2254,-77.009476 L196.3321,-76.784386 L196.43881,-76.56808 L196.54552,-76.36041 L196.65222,-76.161224 L196.75893,-75.97038 L196.86562,-75.78772 L196.97232,-75.61311 L197.07903,-75.44641 L197.18573,-75.28747 L197.29243,-75.136154 L197.39914,-74.992325 L197.50583,-74.85586 L197.61253,-74.72661 L197.71924,-74.60446 L197.82594,-74.48927 L197.93265,-74.38093 L198.03935,-74.2793 L198.14604,-74.18426 L198.25275,-74.09569 L198.35945,-74.01347 L198.46616,-73.93749 L198.57286,-73.86762 L198.67957,-73.803764 L198.78625,-73.7458 L198.89296,-73.6936 L198.99966,-73.64709 L199.10637,-73.60613 L199.21307,-73.57064 L199.31978,-73.5405 L199.42647,-73.5156 L199.53317,-73.49585 L199.63988,-73.48115 L199.74658,-73.4714 L199.85329,-73.46649 L199.95999,-73.46635 L200.0667,-73.470856 L200.17339,-73.479935 L200.28009,-73.493484 L200.3868,-73.51141 L200.4935,-73.533646 L200.6002,-73.560074 L200.70691,-73.59063 L200.8136,-73.62521 L200.9203,-73.66374 L201.02701,-73.70614 L201.13371,-73.75231 L201.24042,-73.80219 L201.34712,-73.85569 L201.45381,-73.91273 L201.56052,-73.97323 L201.66722,-74.037125 L201.77393,-74.104324 L201.88063,-74.17477 L201.98734,-74.24837 L202.09402,-96.51443 L202.20073,-96.241936 L202.30743,-95.97798 L202.41414,-95.722404 L202.52084,-95.47505 L202.62755,-117.41606 L202.73424,-116.83264 L202.84094,-116.26258 L202.94765,-115.70564 L203.05435,-115.16159 L203.16106,-114.63021 L203.26776,-114.11126 L203.37445,-113.60452 L203.48116,-113.10979 L203.58786,-112.62684 L203.69456,-112.15545 L203.80127,-111.695435 L203.90797,-111.24657 L204.01468,-110.80866 L204.12137,-110.38151 L204.22807,-109.96492 L204.33478,-109.55869 L204.44148,-109.16264 L204.54819,-108.77659 L204.65489,-108.40033 L204.76158,-108.03371 L204.86829,-107.67652 L204.97499,-107.328606 L205.0817,-106.989784 L205.1884,-106.65988 L205.2951,-106.338745 L205.4018,-106.02619 L205.5085,-105.72207 L205.6152,-105.426216 L205.72191,-105.138466 L205.82861,-104.858665 L205.93532,-104.58667 L206.042,-104.32232 L206.14871,-104.06547 L206.25542,-103.81596 L206.36212,-103.57367 L206.46883,-103.33844 L206.57553,-103.11014 L206.68222,-102.88862 L206.78893,-124.62217 L206.89563,-124.06544 L207.00233,-123.52062 L207.10904,-122.987495 L207.21574,-122.46586 L207.32243,-121.95549 L207.42914,-121.456184 L207.53584,-120.967735 L207.64255,-120.489944 L207.74925,-120.02261 L207.85596,-119.565544 L207.96266,-119.118546 L208.06935,-118.68143 L208.17606,-118.254005 L208.28276,-117.83609 L208.38947,-117.42751 L208.49617,-117.028076 L208.60287,-116.63763 L208.70956,-116.25598 L208.81627,-115.882965 L208.92297,-115.51842 L209.02968,-115.16217 L209.13638,-114.814064 L209.24309,-114.47394 L209.34978,-136.37642 L209.45648,-135.69885 L209.56319,-135.03441 L209.66989,-134.38283 L209.7766,-133.74391 L209.8833,-133.11739 L209.98999,-132.50305 L210.0967,-131.90068 L210.2034,-131.31004 L210.3101,-130.73091 L210.41681,-130.1631 L210.52351,-129.60637 L210.6302,-129.06053 L210.73691,-128.52538 L210.84361,-128.00069 L210.95032,-127.48629 L211.05702,-126.98198 L211.16373,-126.48756 L211.27042,-126.00284 L211.37712,-125.52764 L211.48383,-125.06178 L211.59053,-124.60507 L211.69724,-124.15735 L211.80394,-123.718414 L211.91063,-123.28812 L212.01733,-122.86628 L212.12404,-122.452736 L212.23074,-122.04732 L212.33745,-121.64987 L212.44415,-121.26023 L212.55086,-120.87824 L212.65755,-120.503746 L212.76425,-120.136604 L212.87096,-119.77665 L212.97766,-119.423744 L213.08437,-119.07774 L213.19107,-118.7385 L213.29776,-118.40588 L213.40446,-118.07974 L213.51117,-117.75995 L213.61787,-117.446365 L213.72458,-117.13886 L213.83128,-116.83731 L213.93797,-116.54158 L214.04468,-116.25155 L214.15138,-115.96708 L214.25809,-115.68807 L214.36479,-115.41438 L214.4715,-115.14591 L214.57819,-114.88254 L214.68489,-114.62414 L214.7916,-114.37061 L214.8983,-114.12184 L215.005,-113.877716 L215.11171,-113.63814 L215.2184,-113.402985 L215.3251,-113.17217 L215.43181,-112.94558 L215.53851,-112.723114 L215.64522,-112.50468 L215.75192,-112.29017 L215.85861,-112.07949 L215.96532,-111.87256 L216.07202,-111.669266 L216.17873,-111.46953 L216.28543,-111.273254 L216.39214,-111.08035 L216.49884,-110.89073 L216.60553,-110.70432 L216.71223,-110.52102 L216.81894,-110.34075 L216.92564,-110.16344 L217.03235,-109.98898 L217.13905,-109.81733 L217.24574,-109.64838 L217.35245,-109.48206 L217.45915,-109.318306 L217.56586,-109.157036 L217.67256,-108.99817 L217.77927,-108.841644 L217.88596,-108.687386 L217.99266,-108.535324 L218.09937,-108.38539 L218.20607,-108.23752 L218.31277,-108.09164 L218.41948,-107.947685 L218.52617,-107.805595 L218.63287,-107.665306 L218.73958,-107.52676 L218.84628,-107.38988 L218.95299,-107.254616 L219.0597,-107.12091 L219.16638,-106.98871 L219.27309,-106.85794 L219.37979,-106.72855 L219.4865,-106.6005 L219.5932,-106.47372 L219.6999,-106.34815 L219.8066,-106.223755 L219.9133,-106.100464 L220.02,-105.97824 L220.12671,-105.85703 L220.23341,-105.73678 L220.34012,-105.61745 L220.44682,-105.49898 L220.55351,-105.381325 L220.66022,-105.26444 L220.76692,-105.14829 L220.87363,-105.03282 L220.98033,-104.917984 L221.08704,-104.80374 L221.19373,-126.696365 L221.30043,-126.23389 L221.40714,-125.77742 L221.51384,-125.326836 L221.62054,-124.88201 L221.72725,-124.44282 L221.83394,-124.00914 L221.94064,-123.58085 L222.04735,-123.15783 L222.15405,-122.73997 L222.26076,-122.32715 L222.36746,-121.91926 L222.47415,-121.51619 L222.58086,-121.11782 L222.68756,-120.72406 L222.79427,-120.33479 L222.90097,-119.94992 L223.00768,-119.569336 L223.11436,-119.19295 L223.22107,-118.82065 L223.32777,-118.45234 L223.43448,-118.08793 L223.54118,-117.72733 L223.64789,-117.370445 L223.75458,-117.01718 L223.86128,-116.66744 L223.96799,-116.32116 L224.07469,-115.97823 L224.1814,-115.63858 L224.2881,-115.30212 L224.39479,-114.968765 L224.5015,-136.69583 L224.6082,-136.01836 L224.7149,-135.34929 L224.82161,-134.6885 L224.92831,-134.03581 L225.03502,-133.39107 L225.14171,-132.7541 L225.24841,-154.31898 L225.35512,-153.34485 L225.46182,-152.38364 L225.56853,-151.43512 L225.67523,-150.49905 L225.78192,-149.57521 L225.88863,-148.66338 L225.99533,-147.76332 L226.10204,-146.87483 L226.20874,-145.99768 L226.31544,-145.1317 L226.42213,-144.27663 L226.52884,-143.4323 L226.63554,-142.59851 L226.74225,-141.77505 L226.84895,-140.96173 L226.95566,-140.15837 L227.06235,-161.31828 L227.16905,-182.31409 L227.27576,-180.8453 L227.38246,-179.39677 L227.48917,-177.96812 L227.59587,-176.55904 L227.70256,-175.16914 L227.80927,-173.79814 L227.91597,-172.44568 L228.02267,-171.11143 L228.12938,-169.7951 L228.23608,-168.49638 L228.34277,-189.3817 L228.44948,-187.7654 L228.55618,-186.17137 L228.66289,-184.59924 L228.76959,-183.04865 L228.8763,-181.51918 L228.983,-180.01051 L229.08969,-178.52228 L229.1964,-177.05412 L229.3031,-175.60571 L229.4098,-174.1767 L229.51651,-172.76672 L229.62321,-171.3755 L229.7299,-170.00269 L229.83661,-168.64796 L229.94331,-167.31102 L230.05002,-165.99155 L230.15672,-164.68924 L230.26343,-163.40381 L230.37012,-162.13495 L230.47682,-160.88239 L230.58353,-159.64583 L230.69023,-158.425 L230.79694,-157.21962 L230.90364,-156.02942 L231.01033,-154.85414 L231.11703,-153.69353 L231.22374,-152.5473 L231.33044,-151.41522 L231.43715,-150.29706 L231.54385,-149.19254 L231.65054,-148.10143 L231.75725,-147.0235 L231.86395,-145.95853 L231.97066,-144.90627 L232.07736,-143.8665 L232.18407,-142.839 L232.29076,-141.82356 L232.39746,-140.81996 L232.50417,-139.82799 L232.61087,-138.84744 L232.71758,-137.87811 L232.82428,-136.91982 L232.93098,-135.97234 L233.03767,-157.2138 L233.14438,-155.93536 L233.25108,-154.67278 L233.35779,-153.42575 L233.4645,-152.19402 L233.5712,-150.97733 L233.67789,-149.77542 L233.78459,-148.58804 L233.8913,-147.41492 L233.998,-146.25583 L234.1047,-145.11053 L234.21141,-143.97878 L234.3181,-142.86034 L234.4248,-141.75496 L234.53151,-140.66245 L234.63821,-139.58257 L234.74492,-138.51509 L234.85162,-137.45981 L234.95831,-136.41652 L235.06502,-135.385 L235.17172,-134.36505 L235.27843,-133.35648 L235.38513,-132.35905 L235.49184,-131.37262 L235.59853,-130.39696 L235.70523,-129.4319 L235.81194,-128.47725 L235.91864,-127.53283 L236.02534,-126.59845 L236.13205,-125.67395 L236.23874,-124.75914 L236.34544,-123.85387 L236.45215,-122.95795 L236.55885,-122.07123 L236.66556,-121.19355 L236.77226,-142.56734 L236.87895,-141.3542 L236.98566,-140.15524 L237.09236,-138.9702 L237.19907,-137.79886 L237.30577,-136.64099 L237.41248,-135.49634 L237.51918,-134.3647 L237.62587,-133.24586 L237.73257,-132.13959 L237.83928,-131.04567 L237.94598,-129.96391 L238.05269,-128.89409 L238.1594,-127.83601 L238.26608,-126.78948 L238.37279,-125.75429 L238.47949,-124.730255 L238.5862,-123.71718 L238.6929,-122.71488 L238.7996,-121.72318 L238.9063,-120.7419 L239.013,-119.77085 L239.1197,-118.80987 L239.22641,-117.85877 L239.33311,-116.917404 L239.43982,-115.9856 L239.54651,-115.063194 L239.65321,-114.15002 L239.75992,-113.245926 L239.86662,-112.35077 L239.97333,-111.46438 L240.08003,-110.58662 L240.18672,-109.71733 L240.29343,-108.856384 L240.40013,-108.00363 L240.50684,-107.158936 L240.61354,-106.32216 L240.72025,-105.49317 L240.82693,-104.67183 L240.93364,-103.85802 L241.04034,-103.0516 L241.14705,-102.25246 L241.25375,-101.46046 L241.36046,-100.67548 L241.46716,-99.89742 L241.57385,-99.12615 L241.68056,-98.361565 L241.78726,-97.60354 L241.89397,-96.85197 L242.00067,-118.32778 L242.10738,-117.236084 L242.21407,-116.15613 L242.32077,-115.087715 L242.42747,-114.030655 L242.53418,-112.98476 L242.64088,-111.94985 L242.74759,-110.92575 L242.85428,-109.912285 L242.96098,-108.90927 L243.06769,-107.91655 L243.1744,-128.9024 L243.2811,-127.58106 L243.3878,-126.27505 L243.49449,-124.984116 L243.6012,-123.70803 L243.7079,-122.44654 L243.8146,-121.19942 L243.92131,-119.96644 L244.02802,-140.95995 L244.1347,-139.402 L244.24141,-137.8631 L244.34811,-136.34297 L244.45482,-134.84131 L244.56152,-133.3578 L244.66823,-131.89218 L244.77492,-130.44415 L244.88162,-129.01344 L244.98833,-127.59977 L245.09503,-126.20286 L245.20174,-124.82245 L245.30844,-123.45829 L245.41515,-122.1101 L245.52184,-120.77765 L245.62854,-119.46068 L245.73524,-140.35144 L245.84195,-138.71245 L245.94865,-137.0938 L246.05536,-135.49518 L246.16205,-133.91628 L246.26875,-132.35678 L246.37546,-130.81638 L246.48216,-129.29477 L246.58887,-127.79166 L246.69557,-126.306755 L246.80226,-124.83978 L246.90897,-123.39045 L247.01567,-121.95848 L247.12238,-120.54361 L247.22908,-119.14556 L247.33578,-117.76408 L247.44247,-116.398895 L247.54918,-115.04976 L247.65588,-113.71643 L247.76259,-112.39866 L247.8693,-111.09619 L247.976,-109.80881 L248.08269,-108.53626 L248.18939,-107.27832 L248.2961,-106.034775 L248.4028,-104.80538 L248.5095,-103.58994 L248.61621,-102.38823 L248.7229,-101.200035 L248.8296,-100.02515 L248.93631,-98.86337 L249.04301,-97.7145 L249.14972,-96.57834 L249.25642,-95.45469 L249.36313,-94.34336 L249.46982,-93.24417 L249.57652,-92.15694 L249.68323,-91.081474 L249.78993,-90.0176 L249.89664,-88.96514 L250.00334,-87.923935 L250.11003,-86.8938 L250.21674,-85.87457 L250.32344,-84.8661 L250.43015,-83.8682 L250.53685,-82.88074 L250.64355,-81.90355 L250.75024,-80.93648 L250.85695,-79.97938 L250.96365,-79.0321 L251.07036,-78.0945 L251.17706,-77.16643 L251.28377,-76.24776 L251.39046,-97.5854 L251.49716,-118.53093 L251.60387,-116.93976 L251.71057,-115.36855 L251.81728,-113.81702 L251.92398,-112.28484 L252.03067,-110.771736 L252.13737,-109.277405 L252.24408,-107.801575 L252.35078,-106.343956 L252.45749,-104.90428 L252.5642,-103.48227 L252.67088,-102.07766 L252.77759,-100.69019 L252.8843,-99.3196 L252.991,-97.965645 L253.0977,-96.62807 L253.2044,-95.30662 L253.3111,-94.00106 L253.4178,-92.71117 L253.5245,-91.43669 L253.63121,-90.17741 L253.73792,-88.93309 L253.84462,-87.70352 L253.95132,-86.48848 L254.05801,-85.28775 L254.16472,-106.119545 L254.27142,-104.59732 L254.37813,-125.106 L254.48483,-123.27259 L254.59154,-121.463394 L254.69823,-119.67804 L254.80493,-117.91617 L254.91164,-116.17743 L255.01834,-114.461464 L255.12505,-112.767944 L255.23175,-111.09652 L255.33844,-109.44686 L255.44514,-107.81865 L255.55185,-106.21155 L255.65855,-104.62525 L255.76526,-103.05945 L255.87196,-101.513824 L255.97865,-99.98809 L256.08536,-98.48194 L256.19208,-96.99509 L256.29877,-95.527245 L256.40546,-94.07813 L256.51218,-92.64747 L256.61887,-91.234985 L256.7256,-89.84041 L256.83228,-88.463486 L256.93896,-87.10395 L257.0457,-85.76154 L257.15237,-84.43603 L257.2591,-83.12714 L257.36578,-81.83465 L257.4725,-80.55831 L257.5792,-79.29789 L257.68588,-78.05316 L257.7926,-76.8239 L257.8993,-75.60987 L258.006,-74.410866 L258.1127,-73.22666 L258.21942,-72.05705 L258.3261,-70.90183 L258.4328,-69.76078 L258.53952,-68.63371 L258.6462,-67.52042 L258.75293,-66.4207 L258.85962,-65.33438 L258.9663,-64.26126 L259.07303,-63.20116 L259.17972,-62.15389 L259.28644,-61.119274 L259.39313,-60.097137 L259.49985,-59.087303 L259.60654,-58.089603 L259.71323,-57.10387 L259.81995,-56.129936 L259.92664,-55.167645 L260.03336,-54.216827 L260.14005,-53.277336 L260.24673,-52.34901 L260.35345,-51.4317 L260.46014,-50.52526 L260.56686,-49.62954 L260.67355,-48.744392 L260.78027,-47.869682 L260.88696,-47.00527 L260.99365,-46.151012 L261.10037,-45.30678 L261.20706,-44.47244 L261.31378,-43.64786 L261.42047,-42.832912 L261.52716,-42.027473 L261.63388,-41.23142 L261.74057,-40.444622 L261.8473,-39.66697 L261.95398,-38.898342 L262.0607,-38.138622 L262.1674,-37.3877 L262.27408,-36.64546 L262.3808,-35.911793 L262.4875,-35.186592 L262.5942,-34.469753 L262.7009,-33.76117 L262.80762,-33.060734 L262.9143,-32.368355 L263.021,-31.683928 L263.12772,-31.007355 L263.2344,-30.338541 L263.34113,-29.677395 L263.4478,-29.023819 L263.5545,-28.377728 L263.66122,-27.739027 L263.7679,-27.107632 L263.87463,-26.483454 L263.98132,-25.86641 L264.08804,-25.256414 L264.19473,-24.653387 L264.30142,-24.057245 L264.40814,-23.467913 L264.51483,-22.88531 L264.62155,-22.30936 L264.72824,-21.739988 L264.83493,-21.177118 L264.94165,-20.620682 L265.04834,-20.070602 L265.15506,-19.526814 L265.26175,-18.989244 L265.36847,-18.457829 L265.47516,-17.932497 L265.58185,-17.413187 L265.68857,-16.899832 L265.79526,-16.392368 L265.90198,-15.890734 L266.00867,-15.394869 L266.1154,-14.904713 L266.22208,-14.420206 L266.32877,-13.94129 L266.4355,-13.467909 L266.54218,-13.000005 L266.6489,-12.537524 L266.75558,-12.080413 L266.86227,-11.628616 L266.969,-11.182082 L267.07568,-10.740761 L267.1824,-10.3046 L267.2891,-31.831223 L267.3958,-31.056707 L267.5025,-30.29274 L267.6092,-29.539185 L267.7159,-28.795906 L267.8226,-28.062778 L267.92932,-27.339668 L268.036,-26.626451 L268.1427,-25.923004 L268.24942,-25.229202 L268.3561,-24.544928 L268.46283,-23.87006 L268.56952,-23.204485 L268.67624,-22.548086 L268.78293,-21.900751 L268.88962,-21.26237 L268.99634,-20.632833 L269.10303,-20.012035 L269.20975,-19.399868 L269.31644,-18.796228 L269.42313,-18.201014 L269.52985,-17.614126 L269.63654,-17.035465 L269.74326,-16.464933 L269.84995,-15.902436 L269.95667,-15.347879 L270.06335,-14.801169 L270.17004,-14.262216 L270.27676,-13.730929 L270.38345,-13.207221 L270.49017,-12.691006 L270.59686,-12.182198 L270.70358,-11.680712 L270.81027,-11.186467 L270.91696,-10.699382 L271.02368,-10.219376 L271.13037,-9.746371 L271.2371,-9.28029 L271.34378,-8.821056 L271.45047,-8.368596 L271.5572,-7.9228354 L271.66388,-7.483701 L271.7706,-7.051122 L271.8773,-6.625029 L271.984,-6.2053523 L272.0907,-5.792024 L272.1974,-5.3849783 L272.3041,-4.984148 L272.4108,-26.694624 L272.51752,-25.955164 L272.6242,-25.2273 L272.7309,-24.51088 L272.83762,-23.805756 L272.9443,-23.111784 L273.05103,-22.428822 L273.1577,-21.756725 L273.26443,-21.095358 L273.37112,-20.444586 L273.4778,-19.80427 L273.58453,-19.174282 L273.69122,-18.554493 L273.79794,-17.94477 L273.90463,-17.344992 L274.01132,-16.755033 L274.11804,-16.174772 L274.22473,-15.604089 L274.33145,-15.042865 L274.43814,-14.490984 L274.54486,-13.948332 L274.65155,-13.414796 L274.75824,-12.890266 L274.86496,-12.374633 L274.97165,-11.867788 L275.07837,-11.369627 L275.18506,-10.880045 L275.29178,-10.39894 L275.39847,-9.926211 L275.50516,-9.46176 L275.61188,-9.005487 L275.71857,-8.557298 L275.8253,-8.117097 L275.93198,-7.6847906 L276.03867,-7.2602882 L276.1454,-6.8434987 L276.25208,-6.434334 L276.3588,-6.0327053 L276.46548,-5.638527 L276.5722,-5.2517147 L276.6789,-4.8721843 L276.78558,-4.4998536 L276.8923,-4.1346416 L276.999,-3.7764685 L277.1057,-3.4252558 L277.2124,-3.0809262 L277.3191,-2.7434034 L277.4258,-2.4126127 L277.5325,-2.0884798 L277.63922,-1.7709322 L277.7459,-1.4598982 L277.85263,-1.1553074 L277.95932,-0.85709 L278.066,-0.56517774 L278.17273,-0.27950323 L278.27942,0 L278.38614,-21.986834 L278.49283,-21.366148 L278.59955,-20.75705 L278.70624,-20.159386 L278.81293,-19.573006 L278.91965,-18.997766 L279.02634,-18.43352 L279.13306,-17.880125 L279.23975,-17.337442 L279.34644,-16.805332 L279.45316,-16.283659 L279.55984,-15.772291 L279.66656,-15.271093 L279.77325,-14.779939 L279.87997,-14.298697 L279.98666,-13.827245 L280.09335,-13.365457 L280.20007,-12.913211 L280.30676,-12.470387 L280.41348,-12.036868 L280.52017,-11.612535 L280.62686,-11.197276 L280.73358,-10.790976 L280.84027,-10.393523 L280.947,-10.004809 L281.05368,-9.624726 L281.1604,-9.253167 L281.2671,-8.890028 L281.37378,-8.535204 L281.4805,-8.188595 L281.5872,-30.13541 L281.6939,-29.451204 L281.8006,-28.78053 L281.9073,-28.123205 L282.014,-27.479046 L282.1207,-26.847874 L282.22742,-26.229513 L282.3341,-25.623787 L282.44083,-25.030529 L282.54752,-46.48978 L282.6542,-45.571114 L282.76093,-44.669968 L282.8676,-43.78609 L282.97433,-42.919243 L283.08102,-42.069176 L283.18774,-41.23566 L283.29443,-40.418457 L283.40112,-39.617336 L283.50784,-38.832073 L283.61453,-38.06244 L283.72125,-37.30822 L283.82794,-36.569195 L283.93463,-35.845154 L284.04135,-35.135887 L284.14804,-34.441185 L284.25476,-33.760845 L284.36145,-33.094666 L284.46817,-32.44245 L284.57486,-31.804008 L284.68155,-31.179142 L284.78827,-30.567667 L284.89496,-29.969395 L285.00168,-29.384144 L285.10837,-28.811735 L285.21506,-28.25199 L285.32178,-27.704733 L285.42847,-27.169794 L285.5352,-26.647003 L285.64188,-26.136192 L285.7486,-25.6372 L285.8553,-25.14986 L285.96198,-24.674015 L286.0687,-24.209509 L286.17538,-23.756187 L286.2821,-23.313894 L286.3888,-22.882484 L286.49548,-22.461805 L286.6022,-22.051716 L286.7089,-21.65207 L286.8156,-21.262726 L286.9223,-20.883545 L287.02902,-20.514389 L287.1357,-20.155127 L287.2424,-19.80562 L287.34912,-19.465742 L287.4558,-19.13536 L287.56253,-18.814348 L287.66922,-18.502583 L287.77594,-18.199936 L287.88263,-17.90629 L287.98932,-17.621523 L288.09604,-17.345516 L288.20273,-17.078156 L288.30945,-16.819323 L288.41614,-16.568907 L288.52283,-16.326796 L288.62955,-16.09288 L288.73624,-15.86705 L288.84296,-15.6492 L288.94965,-15.439224 L289.05637,-15.2370205 L289.16306,-15.042484 L289.26974,-14.8555155 L289.37646,-14.676016 L289.48315,-14.503887 L289.58987,-14.339031 L289.69656,-14.181355 L289.80325,-14.030764 L289.90997,-13.887165 L290.01666,-13.750467 L290.12338,-13.620581 L290.23007,-13.497417 L290.3368,-13.380889 L290.44348,-13.27091 L290.55017,-13.167396 L290.6569,-13.070261 L290.76358,-12.979424 L290.8703,-12.894803 L290.977,-12.8163185 L291.0837,-12.74389 L291.1904,-12.67744 L291.2971,-12.616891 L291.4038,-12.562167 L291.5105,-12.513193 L291.61722,-12.469894 L291.7239,-12.4321995 L291.8306,-12.400035 L291.93732,-12.373331 L292.044,-12.352016 L292.15073,-12.336021 L292.25742,-12.325279 L292.36414,-12.319722 L292.47083,-12.319283 L292.5775,-12.323895 L292.68423,-12.333497 L292.79092,-12.348022 L292.89764,-12.367409 L293.00433,-12.391593 L293.11102,-12.420515 L293.21774,-12.454113 L293.32443,-12.492329 L293.43115,-12.535101 L293.53784,-12.582373 L293.64456,-12.634086 L293.75125,-12.690183 L293.85794,-12.750608 L293.96466,-12.815308 L294.07135,-12.884225 L294.17807,-12.957306 L294.28476,-13.034497 L294.39145,-13.1157465 L294.49817,-13.201001 L294.60486,-13.29021 L294.71158,-13.383323 L294.81827,-13.480288 L294.925,-13.581057 L295.03168,-13.685579 L295.13837,-13.793808 L295.2451,-13.905695 L295.35178,-14.021192 L295.4585,-14.140253 L295.5652,-14.262832 L295.6719,-14.388882 L295.7786,-14.518359 L295.88528,-14.651219 L295.992,-14.787416 L296.0987,-14.9269085 L296.2054,-15.069652 L296.3121,-15.215604 L296.4188,-15.364722 L296.5255,-15.516966 L296.6322,-15.672293 L296.73892,-15.830663 L296.8456,-15.992035 L296.95233,-16.15637 L297.05902,-16.323627 L297.1657,-16.49377 L297.27243,-16.66676 L297.37912,-16.842554 L297.48584,-17.02112 L297.59253,-17.202417 L297.69922,-17.38641 L297.80594,-17.573063 L297.91263,-17.762337 L298.01935,-17.954197 L298.12604,-18.14861 L298.23276,-18.34554 L298.33945,-18.544949 L298.44614,-18.746805 L298.55286,-18.951075 L298.65955,-19.157724 L298.76627,-19.366718 L298.87296,-19.578026 L298.97964,-19.791615 L299.08636,-20.007448 L299.19305,-20.2255 L299.29977,-20.445734 L299.40646,-20.668121 L299.51318,-20.892628 L299.61987,-21.119226 L299.72656,-21.347883 L299.83328,-21.57857 L299.93997,-21.811255 L300.0467,-22.045908 L300.15338,-22.282501 L300.2601,-22.521006 L300.3668,-22.761393 L300.47348,-23.003632 L300.5802,-23.247694 L300.6869,-23.493553 L300.7936,-23.74118 L300.9003,-23.990547 L301.007,-24.241627 L301.1137,-24.494392 L301.2204,-24.748816 L301.32712,-25.00487 L301.4338,-25.26253 L301.54053,-25.521769 L301.64722,-25.78256 L301.7539,-26.044876 L301.86063,-26.308695 L301.96732,-26.573988 L302.07404,-26.84073 L302.18073,-27.108898 L302.2874,-27.378464 L302.39413,-27.649406 L302.50082,-27.921698 L302.60754,-50.46322 L302.71423,-50.384686 L302.82095,-50.31304 L302.92764,-50.248173 L303.03433,-50.18997 L303.14105,-50.138317 L303.24774,-50.09311 L303.35446,-50.054245 L303.46115,-50.02161 L303.56787,-49.995106 L303.67456,-49.974632 L303.78125,-49.960083 L303.88797,-49.951363 L303.99466,-49.94837 L304.10138,-49.951015 L304.20807,-49.959194 L304.31476,-49.972813 L304.42148,-49.991787 L304.52817,-50.016018 L304.6349,-50.045418 L304.74158,-50.079895 L304.8483,-50.11937 L304.955,-50.163742 L305.06168,-50.21294 L305.1684,-50.266872 L305.2751,-50.325455 L305.3818,-50.388607 L305.4885,-50.45625 L305.59518,-72.72017 L305.7019,-72.444305 L305.8086,-72.17829 L305.9153,-71.92195 L306.022,-71.675125 L306.12872,-71.43766 L306.2354,-71.20939 L306.3421,-70.99016 L306.44882,-70.779816 L306.5555,-92.63083 L306.66223,-92.08777 L306.76892,-91.558716 L306.8756,-91.04341 L306.98233,-90.54165 L307.08902,-90.05319 L307.19574,-89.57782 L307.30243,-89.11531 L307.40915,-88.66545 L307.51584,-88.22802 L307.62253,-87.802826 L307.72925,-87.38964 L307.83594,-86.98828 L307.94266,-86.59853 L308.04935,-86.2202 L308.15607,-85.853096 L308.26276,-85.497025 L308.36945,-85.151794 L308.47617,-84.81722 L308.58286,-84.493126 L308.68958,-84.17932 L308.79626,-83.87563 L308.90295,-83.58189 L309.00967,-83.29791 L309.11636,-83.02353 L309.22308,-82.75858 L309.32977,-82.50291 L309.4365,-82.256325 L309.54318,-82.01869 L309.64987,-81.78985 L309.7566,-81.56963 L309.86328,-81.357895 L309.97,-81.15448 L310.0767,-80.95924 L310.18338,-80.77204 L310.2901,-80.59273 L310.3968,-80.42116 L310.5035,-80.25719 L310.6102,-80.100685 L310.71692,-102.13184 L310.8236,-101.6378 L310.9303,-101.156425 L311.03702,-100.68748 L311.1437,-100.23074 L311.25043,-99.78602 L311.35712,-99.35309 L311.4638,-98.93175 L311.57053,-98.52179 L311.67722,-98.123024 L311.78394,-97.73525 L311.89063,-97.35827 L311.99734,-96.9919 L312.10403,-96.63594 L312.21072,-96.29022 L312.31744,-95.954544 L312.42413,-95.62874 L312.53085,-95.31263 L312.63754,-95.006035 L312.74426,-94.708786 L312.85095,-94.42072 L312.95764,-94.14166 L313.06436,-93.871445 L313.17105,-93.60992 L313.27777,-93.35691 L313.38446,-93.112274 L313.49115,-92.87585 L313.59787,-92.647484 L313.70456,-92.42703 L313.81128,-92.21434 L313.91797,-92.00927 L314.0247,-91.81167 L314.13138,-91.6214 L314.23807,-113.67378 L314.3448,-113.14482 L314.45148,-112.62839 L314.5582,-112.12425 L314.6649,-111.632195 L314.77158,-111.15201 L314.8783,-110.68347 L314.985,-110.22638 L315.0917,-109.780525 L315.1984,-109.3457 L315.3051,-108.92172 L315.4118,-108.50838 L315.5185,-108.105484 L315.6252,-107.712845 L315.7319,-107.33027 L315.83862,-106.95758 L315.9453,-106.59459 L316.05203,-106.24112 L316.15872,-105.896996 L316.2654,-105.56204 L316.37213,-105.23609 L316.47882,-104.91897 L316.58554,-104.610504 L316.69223,-104.31055 L316.79892,-104.01893 L316.90564,-103.73549 L317.01233,-103.460075 L317.11905,-103.19253 L317.22574,-102.9327 L317.33246,-102.680435 L317.43915,-102.4356 L317.54584,-102.19804 L317.65256,-124.15594 L317.75925,-123.580315 L317.86597,-123.017136 L317.97266,-122.46617 L318.07935,-121.927216 L318.18607,-121.40003 L318.29276,-120.88441 L318.39948,-120.38014 L318.50616,-119.887024 L318.61288,-119.40484 L318.71957,-118.93339 L318.82626,-118.47248 L318.93298,-118.02191 L319.03967,-117.58149 L319.1464,-117.151024 L319.25308,-116.73034 L319.35977,-116.31924 L319.4665,-115.917534 L319.57318,-115.52506 L319.6799,-115.14165 L319.7866,-114.767105 L319.8933,-114.40127 L320,-114.043976" fill="none" stroke="#0971B2" stroke-linejoin="round" stroke-width="1.2"/>
</g>
<g>
<path d="M2.4229515,-117.73156 l2.4,2.4 m-2.4,0 l2.4,-2.4 z" fill="none" stroke="#FF0000" stroke-width="2"/>
<path d="M5.249684,-129.85443 l2.4,2.4 m-2.4,0 l2.4,-2.4 z" fill="none" stroke="#FF0000" stroke-width="2"/>
<path d="M8.177173,-135.09978 l2.4,2.4 m-2.4,0 l2.4,-2.4 z" fill="none" stroke="#FF0000" stroke-width="2"/>
<path d="M10.484751,-139.8848 l2.4,2.4 m-2.4,0 l2.4,-2.4 z" fill="none" stroke="#FF0000" stroke-width="2"/>
<path d="M16.684208,-114.66236 l2.4,2.4 m-2.4,0 l2.4,-2.4 z" fill="none" stroke="#FF0000" stroke-width="2"/>
<path d="M23.324121,-90.005325 l2.4,2.4 m-2.4,0 l2.4,-2.4 z" fill="none" stroke="#FF0000" stroke-width="2"/>
<path d="M25.696312,-93.39458 l2.4,2.4 m-2.4,0 l2.4,-2.4 z" fill="none" stroke="#FF0000" stroke-width="2"/>
<path d="M30.273983,-76.92987 l2.4,2.4 m-2.4,0 l2.4,-2.4 z" fill="none" stroke="#FF0000" stroke-width="2"/>
<path d="M31.273859,-89.61639 l2.4,2.4 m-2.4,0 l2.4,-2.4 z" fill="none" stroke="#FF0000" stroke-width="2"/>
<path d="M34.448723,-78.74988 l2.4,2.4 m-2.4,0 l2.4,-2.4 z" fill="none" stroke="#FF0000" stroke-width="2"/>
<path d="M43.3896,-34.27481 l2.4,2.4 m-2.4,0 l2.4,-2.4 z" fill="none" stroke="#FF0000" stroke-width="2"/>
<path d="M46.010963,-39.744503 l2.4,2.4 m-2.4,0 l2.4,-2.4 z" fill="none" stroke="#FF0000" stroke-width="2"/>
<path d="M49.19392,-39.899307 l2.4,2.4 m-2.4,0 l2.4,-2.4 z" fill="none" stroke="#FF0000" stroke-width="2"/>
<path d="M52.347706,-40.38297 l2.4,2.4 m-2.4,0 l2.4,-2.4 z" fill="none" stroke="#FF0000" stroke-width="2"/>
<path d="M52.506863,-61.328655 l2.4,2.4 m-2.4,0 l2.4,-2.4 z" fill="none" stroke="#FF0000" stroke-width="2"/>
<path d="M61.615364,-30.92867 l2.4,2.4 m-2.4,0 l2.4,-2.4 z" fill="none" stroke="#FF0000" stroke-width="2"/>
<path d="M79.78954,-57.074337 l2.4,2.4 m-2.4,0 l2.4,-2.4 z" fill="none" stroke="#FF0000" stroke-width="2"/>
<path d="M81.93527,-79.18005 l2.4,2.4 m-2.4,0 l2.4,-2.4 z" fill="none" stroke="#FF0000" stroke-width="2"/>
<path d="M84.08581,-97.069145 l2.4,2.4 m-2.4,0 l2.4,-2.4 z" fill="none" stroke="#FF0000" stroke-width="2"/>
<path d="M88.00043,-108.48012 l2.4,2.4 m-2.4,0 l2.4,-2.4 z" fill="none" stroke="#FF0000" stroke-width="2"/>
<path d="M92.30539,-118.79857 l2.4,2.4 m-2.4,0 l2.4,-2.4 z" fill="none" stroke="#FF0000" stroke-width="2"/>
<path d="M96.65693,-128.2815 l2.4,2.4 m-2.4,0 l2.4,-2.4 z" fill="none" stroke="#FF0000" stroke-width="2"/>
<path d="M111.787186,-123.69544 l2.4,2.4 m-2.4,0 l2.4,-2.4 z" fill="none" stroke="#FF0000" stroke-width="2"/>
<path d="M114.00684,-137.3625 l2.4,2.4 m-2.4,0 l2.4,-2.4 z" fill="none" stroke="#FF0000" stroke-width="2"/>
<path d="M114.58893,-155.78435 l2.4,2.4 m-2.4,0 l2.4,-2.4 z" fill="none" stroke="#FF0000" stroke-width="2"/>
<path d="M124.55554,-116.04939 l2.4,2.4 m-2.4,0 l2.4,-2.4 z" fill="none" stroke="#FF0000" stroke-width="2"/>
<path d="M127.63754,-117.65662 l2.4,2.4 m-2.4,0 l2.4,-2.4 z" fill="none" stroke="#FF0000" stroke-width="2"/>
<path d="M128.08614,-135.8726 l2.4,2.4 m-2.4,0 l2.4,-2.4 z" fill="none" stroke="#FF0000" stroke-width="2"/>
<path d="M130.75609,-129.65755 l2.4,2.4 m-2.4,0 l2.4,-2.4 z" fill="none" stroke="#FF0000" stroke-width="2"/>
<path d="M134.60281,-111.89539 l2.4,2.4 m-2.4,0 l2.4,-2.4 z" fill="none" stroke="#FF0000" stroke-width="2"/>
<path d="M137.63043,-103.25934 l2.4,2.4 m-2.4,0 l2.4,-2.4 z" fill="none" stroke="#FF0000" stroke-width="2"/>
<path d="M144.20676,-67.767204 l2.4,2.4 m-2.4,0 l2.4,-2.4 z" fill="none" stroke="#FF0000" stroke-width="2"/>
<path d="M153.1148,-33.968994 l2.4,2.4 m-2.4,0 l2.4,-2.4 z" fill="none" stroke="#FF0000" stroke-width="2"/>
<path d="M158.38353,-28.400293 l2.4,2.4 m-2.4,0 l2.4,-2.4 z" fill="none" stroke="#FF0000" stroke-width="2"/>
<path d="M163.43596,-25.847822 l2.4,2.4 m-2.4,0 l2.4,-2.4 z" fill="none" stroke="#FF0000" stroke-width="2"/>
<path d="M163.63016,-46.903526 l2.4,2.4 m-2.4,0 l2.4,-2.4 z" fill="none" stroke="#FF0000" stroke-width="2"/>
<path d="M165.92879,-50.718327 l2.4,2.4 m-2.4,0 l2.4,-2.4 z" fill="none" stroke="#FF0000" stroke-width="2"/>
<path d="M168.59076,-51.82166 l2.4,2.4 m-2.4,0 l2.4,-2.4 z" fill="none" stroke="#FF0000" stroke-width="2"/>
<path d="M168.88843,-71.34971 l2.4,2.4 m-2.4,0 l2.4,-2.4 z" fill="none" stroke="#FF0000" stroke-width="2"/>
<path d="M169.53929,-86.00013 l2.4,2.4 m-2.4,0 l2.4,-2.4 z" fill="none" stroke="#FF0000" stroke-width="2"/>
<path d="M183.16632,-43.32173 l2.4,2.4 m-2.4,0 l2.4,-2.4 z" fill="none" stroke="#FF0000" stroke-width="2"/>
<path d="M187.41588,-60.609844 l2.4,2.4 m-2.4,0 l2.4,-2.4 z" fill="none" stroke="#FF0000" stroke-width="2"/>
<path d="M190.29768,-77.14205 l2.4,2.4 m-2.4,0 l2.4,-2.4 z" fill="none" stroke="#FF0000" stroke-width="2"/>
<path d="M190.41994,-98.92931 l2.4,2.4 m-2.4,0 l2.4,-2.4 z" fill="none" stroke="#FF0000" stroke-width="2"/>
<path d="M200.8604,-97.8021 l2.4,2.4 m-2.4,0 l2.4,-2.4 z" fill="none" stroke="#FF0000" stroke-width="2"/>
<path d="M201.39119,-118.81796 l2.4,2.4 m-2.4,0 l2.4,-2.4 z" fill="none" stroke="#FF0000" stroke-width="2"/>
<path d="M205.48248,-126.389626 l2.4,2.4 m-2.4,0 l2.4,-2.4 z" fill="none" stroke="#FF0000" stroke-width="2"/>
<path d="M208.12979,-137.70485 l2.4,2.4 m-2.4,0 l2.4,-2.4 z" fill="none" stroke="#FF0000" stroke-width="2"/>
<path d="M219.90486,-128.28625 l2.4,2.4 m-2.4,0 l2.4,-2.4 z" fill="none" stroke="#FF0000" stroke-width="2"/>
<path d="M223.22809,-138.36693 l2.4,2.4 m-2.4,0 l2.4,-2.4 z" fill="none" stroke="#FF0000" stroke-width="2"/>
<path d="M224.01624,-155.81529 l2.4,2.4 m-2.4,0 l2.4,-2.4 z" fill="none" stroke="#FF0000" stroke-width="2"/>
<path d="M225.75746,-163.6464 l2.4,2.4 m-2.4,0 l2.4,-2.4 z" fill="none" stroke="#FF0000" stroke-width="2"/>
<path d="M225.91704,-184.23758 l2.4,2.4 m-2.4,0 l2.4,-2.4 z" fill="none" stroke="#FF0000" stroke-width="2"/>
<path d="M227.10236,-191.2 l2.4,2.4 m-2.4,0 l2.4,-2.4 z" fill="none" stroke="#FF0000" stroke-width="2"/>
<path d="M231.80074,-158.86028 l2.4,2.4 m-2.4,0 l2.4,-2.4 z" fill="none" stroke="#FF0000" stroke-width="2"/>
<path d="M235.55461,-143.96938 l2.4,2.4 m-2.4,0 l2.4,-2.4 z" fill="none" stroke="#FF0000" stroke-width="2"/>
<path d="M240.77655,-119.77619 l2.4,2.4 m-2.4,0 l2.4,-2.4 z" fill="none" stroke="#FF0000" stroke-width="2"/>
<path d="M241.87404,-131.35936 l2.4,2.4 m-2.4,0 l2.4,-2.4 z" fill="none" stroke="#FF0000" stroke-width="2"/>
<path d="M242.80136,-142.55217 l2.4,2.4 m-2.4,0 l2.4,-2.4 z" fill="none" stroke="#FF0000" stroke-width="2"/>
<path d="M244.50255,-142.0577 l2.4,2.4 m-2.4,0 l2.4,-2.4 z" fill="none" stroke="#FF0000" stroke-width="2"/>
<path d="M250.17415,-98.97833 l2.4,2.4 m-2.4,0 l2.4,-2.4 z" fill="none" stroke="#FF0000" stroke-width="2"/>
<path d="M250.26642,-120.193275 l2.4,2.4 m-2.4,0 l2.4,-2.4 z" fill="none" stroke="#FF0000" stroke-width="2"/>
<path d="M252.87952,-108.549126 l2.4,2.4 m-2.4,0 l2.4,-2.4 z" fill="none" stroke="#FF0000" stroke-width="2"/>
<path d="M253.09088,-127.82347 l2.4,2.4 m-2.4,0 l2.4,-2.4 z" fill="none" stroke="#FF0000" stroke-width="2"/>
<path d="M265.98547,-33.793667 l2.4,2.4 m-2.4,0 l2.4,-2.4 z" fill="none" stroke="#FF0000" stroke-width="2"/>
<path d="M271.15182,-28.308447 l2.4,2.4 m-2.4,0 l2.4,-2.4 z" fill="none" stroke="#FF0000" stroke-width="2"/>
<path d="M277.17377,-23.259521 l2.4,2.4 m-2.4,0 l2.4,-2.4 z" fill="none" stroke="#FF0000" stroke-width="2"/>
<path d="M280.38232,-31.366879 l2.4,2.4 m-2.4,0 l2.4,-2.4 z" fill="none" stroke="#FF0000" stroke-width="2"/>
<path d="M281.26892,-48.377926 l2.4,2.4 m-2.4,0 l2.4,-2.4 z" fill="none" stroke="#FF0000" stroke-width="2"/>
<path d="M301.39746,-51.670986 l2.4,2.4 m-2.4,0 l2.4,-2.4 z" fill="none" stroke="#FF0000" stroke-width="2"/>
<path d="M304.3623,-74.00718 l2.4,2.4 m-2.4,0 l2.4,-2.4 z" fill="none" stroke="#FF0000" stroke-width="2"/>
<path d="M305.28067,-94.220276 l2.4,2.4 m-2.4,0 l2.4,-2.4 z" fill="none" stroke="#FF0000" stroke-width="2"/>
<path d="M309.48056,-103.50306 l2.4,2.4 m-2.4,0 l2.4,-2.4 z" fill="none" stroke="#FF0000" stroke-width="2"/>
<path d="M313.01828,-114.97328 l2.4,2.4 m-2.4,0 l2.4,-2.4 z" fill="none" stroke="#FF0000" stroke-width="2"/>
<path d="M316.4186,-125.541695 l2.4,2.4 m-2.4,0 l2.4,-2.4 z" fill="none" stroke="#FF0000" stroke-width="2"/>
</g>
<g>
<g>
<line stroke="black" stroke-width="1" x1="0" x2="0" y1="0" y2="10"/>
<line stroke="black" stroke-width="1" x1="53.351117039013005" x2="53.351117039013005" y1="0" y2="10"/>
<line stroke="black" stroke-width="1" x1="106.70223407802601" x2="106.70223407802601" y1="0" y2="10"/>
<line stroke="black" stroke-width="1" x1="160.05335111703903" x2="160.05335111703903" y1="0" y2="10"/>
<line stroke="black" stroke-width="1" x1="213.40446815605202" x2="213.40446815605202" y1="0" y2="10"/>
<line stroke="black" stroke-width="1" x1="266.755585195065" x2="266.755585195065" y1="0" y2="10"/>
</g>
<line stroke="black" stroke-width="1" x1="0" x2="320" y1="0" y2="0"/>
<g>
<text font-size="12" text-anchor="middle" x="0" y="20">
0
</text>
<text font-size="12" text-anchor="middle" x="53.351117039013005" y="20">
10
</text>
<text font-size="12" text-anchor="middle" x="106.70223407802601" y="20">
20
</text>
<text font-size="12" text-anchor="middle" x="160.05335111703903" y="20">
30
</text>
<text font-size="12" text-anchor="middle" x="213.40446815605202" y="20">
40
</text>
<text font-size="12" text-anchor="middle" x="266.755585195065" y="20">
50
</text>
</g>
<text font-size="12" text-anchor="middle" x="160" y="30">
Time t
</text>
</g>
<g>
<g>
<line stroke="black" stroke-width="1" x1="0" x2="-10" y1="-17.327590481908203" y2="-17.327590481908203"/>
<line stroke="black" stroke-width="1" x1="0" x2="-10" y1="-61.93068194208861" y2="-61.93068194208861"/>
<line stroke="black" stroke-width="1" x1="0" x2="-10" y1="-106.533773402269" y2="-106.533773402269"/>
<line stroke="black" stroke-width="1" x1="0" x2="-10" y1="-151.13686486244939" y2="-151.13686486244939"/>
</g>
<line stroke="black" stroke-width="1" x1="0" x2="0" y1="0" y2="-190"/>
<g>
<text dominant-baseline="middle" font-size="12" text-anchor="end" x="-15" y="-17.327590481908203">
0.8
</text>
<text dominant-baseline="middle" font-size="12" text-anchor="end" x="-15" y="-61.93068194208861">
1.2000000000000002
</text>
<text dominant-baseline="middle" font-size="12" text-anchor="end" x="-15" y="-106.533773402269">
1.6
</text>
<text dominant-baseline="middle" font-size="12" text-anchor="end" x="-15" y="-151.13686486244939">
2
</text>
</g>
<text font-size="12" text-anchor="middle" transform="rotate(-90 -30 -95)" x="-30" y="-95">
(t)
</text>
</g>
</g>
</svg>