<svg viewBox="0 0 600 400" xmlns="http://www.w3.org/2000/svg">
<g transform="translate(48, 364)">
<g>
<circle cx="80.36153953957215" cy="-24.100895465493256" fill="#9B2636" r="2.5"/>
<circle cx="42.680018677139635" cy="-224.01557096965587" fill="#9B2636" r="2.5"/>
<circle cx="191.56526070754768" cy="-35.093921875909" fill="#9B2636" r="2.5"/>
<circle cx="157.95392222301706" cy="-245.91774772466837" fill="#9B2636" r="2.5"/>
<circle cx="102.04122273155328" cy="-48.35869399507941" fill="#9B2636" r="2.5"/>
<circle cx="24.40727517040711" cy="-80.90126665742656" fill="#9B2636" r="2.5"/>
<circle cx="90.54047375565528" cy="-201.95158843631597" fill="#9B2636" r="2.5"/>
<circle cx="280.69732199512754" cy="-148.82005185552822" fill="#9B2636" r="2.5"/>
<circle cx="84.24515481955684" cy="-28.886767210918826" fill="#9B2636" r="2.5"/>
<circle cx="249.58776634595293" cy="-182.8419335239508" fill="#9B2636" r="2.5"/>
<circle cx="226.33148507672414" cy="-88.97203211006676" fill="#9B2636" r="2.5"/>
<circle cx="366.3977366211572" cy="-72.3716322124408" fill="#9B2636" r="2.5"/>
<circle cx="450.20187172429195" cy="-11.939711399966798" fill="#9B2636" r="2.5"/>
<circle cx="297.58057146115476" cy="-14.775256840174217" fill="#9B2636" r="2.5"/>
<circle cx="162.834787217768" cy="-77.81180044445966" fill="#9B2636" r="2.5"/>
<circle cx="496.55102273593974" cy="-79.94011498456311" fill="#9B2636" r="2.5"/>
<circle cx="61.29148017635833" cy="-327.52656479998365" fill="#9B2636" r="2.5"/>
<circle cx="302.07512554824535" cy="-193.44393228431343" fill="#9B2636" r="2.5"/>
<circle cx="297.221180086474" cy="-26.384330402950738" fill="#9B2636" r="2.5"/>
<circle cx="183.19999390622027" cy="-42.11068475134988" fill="#9B2636" r="2.5"/>
<circle cx="495.5226912986722" cy="-69.87778900092454" fill="#9B2636" r="2.5"/>
<circle cx="324.79301812642524" cy="-199.36731954403697" fill="#9B2636" r="2.5"/>
<circle cx="163.93857850968163" cy="-19.496194977739272" fill="#9B2636" r="2.5"/>
<circle cx="306.6834421374152" cy="-175.80679035526873" fill="#9B2636" r="2.5"/>
<circle cx="335.102163901205" cy="-55.453948525707645" fill="#9B2636" r="2.5"/>
<circle cx="397.2841793555853" cy="-124.02325002397798" fill="#9B2636" r="2.5"/>
<circle cx="170.02961767504232" cy="-216.93077928017175" fill="#9B2636" r="2.5"/>
<circle cx="24.102307726130096" cy="-88.18525560509674" fill="#9B2636" r="2.5"/>
<circle cx="228.56086861193918" cy="-263.6129102306495" fill="#9B2636" r="2.5"/>
<circle cx="312.32665986904925" cy="-156.62514048764558" fill="#9B2636" r="2.5"/>
<circle cx="247.06678754386672" cy="-132.0903953750045" fill="#9B2636" r="2.5"/>
<circle cx="495.1000886930482" cy="-76.82767886953832" fill="#9B2636" r="2.5"/>
<circle cx="229.5584540517075" cy="-75.31759015430522" fill="#9B2636" r="2.5"/>
<circle cx="289.89122329641276" cy="-150.1064980050517" fill="#9B2636" r="2.5"/>
<circle cx="321.03489061448386" cy="-29.684695774627517" fill="#9B2636" r="2.5"/>
<circle cx="59.40793631642938" cy="-310.1724893820509" fill="#9B2636" r="2.5"/>
<circle cx="331.95313190222527" cy="-146.61993823541778" fill="#9B2636" r="2.5"/>
<circle cx="247.848161433587" cy="-67.82878589988195" fill="#9B2636" r="2.5"/>
<circle cx="287.9840773020358" cy="-95.02225768910621" fill="#9B2636" r="2.5"/>
<circle cx="345.0797120350198" cy="-29.156866453879406" fill="#9B2636" r="2.5"/>
<circle cx="478.2397552772222" cy="-124.82932874437732" fill="#9B2636" r="2.5"/>
<circle cx="47.81855591539299" cy="-209.59468655411405" fill="#9B2636" r="2.5"/>
<circle cx="477.5395790947099" cy="-93.87594352734385" fill="#9B2636" r="2.5"/>
<circle cx="325.74673846795923" cy="-22.20056615463599" fill="#9B2636" r="2.5"/>
<circle cx="303.34828440181207" cy="-235.80598357920346" fill="#9B2636" r="2.5"/>
<circle cx="263.4753453061249" cy="-226.51654964381456" fill="#9B2636" r="2.5"/>
<circle cx="223.37627267112939" cy="-50.86747471912008" fill="#9B2636" r="2.5"/>
<circle cx="301.3798003102781" cy="-145.10802743072892" fill="#9B2636" r="2.5"/>
<circle cx="449.14033185072276" cy="-22.80641918036119" fill="#9B2636" r="2.5"/>
<circle cx="134.7256590007376" cy="-251.20901232612815" fill="#9B2636" r="2.5"/>
<circle cx="18.583578989999303" cy="-141.3794377199669" fill="#9B2636" r="2.5"/>
<circle cx="97.92665087590606" cy="-307.18034660076444" fill="#9B2636" r="2.5"/>
<circle cx="183.84627688150533" cy="-75.47524523912449" fill="#9B2636" r="2.5"/>
<circle cx="27.843900477777083" cy="-172.9122614032755" fill="#9B2636" r="2.5"/>
<circle cx="433.77394070629725" cy="-49.19442353158394" fill="#9B2636" r="2.5"/>
<circle cx="74.99153772505275" cy="-179.79127630667122" fill="#9B2636" r="2.5"/>
<circle cx="171.91345025008792" cy="-218.9455481165812" fill="#9B2636" r="2.5"/>
<circle cx="317.89221665209504" cy="-34.20610971101775" fill="#9B2636" r="2.5"/>
<circle cx="475.2433742850855" cy="-2.887311509019885" fill="#9B2636" r="2.5"/>
<circle cx="248.33439213352992" cy="-146.5874618587173" fill="#9B2636" r="2.5"/>
<circle cx="19.95643278568916" cy="-257.0153013457409" fill="#9B2636" r="2.5"/>
<circle cx="315.5598251712903" cy="-235.82374311718436" fill="#9B2636" r="2.5"/>
<circle cx="454.34185899864934" cy="-9.997784605217712" fill="#9B2636" r="2.5"/>
<circle cx="41.9460240622153" cy="-225.63431895525477" fill="#9B2636" r="2.5"/>
<circle cx="173.33005870929912" cy="-236.790546433211" fill="#9B2636" r="2.5"/>
<circle cx="146.49333018306316" cy="-147.0208371330104" fill="#9B2636" r="2.5"/>
<circle cx="285.1023094385921" cy="-142.50023033748596" fill="#9B2636" r="2.5"/>
<circle cx="259.1969828438097" cy="-98.48081870655186" fill="#9B2636" r="2.5"/>
<circle cx="183.39539461286157" cy="-246.1616581743324" fill="#9B2636" r="2.5"/>
<circle cx="286.8973582254191" cy="-189.83886735627243" fill="#9B2636" r="2.5"/>
<circle cx="159.06510206219198" cy="-80.85450266391986" fill="#9B2636" r="2.5"/>
<circle cx="249.57140985639697" cy="-279.94188600519425" fill="#9B2636" r="2.5"/>
<circle cx="246.2546131460245" cy="-152.49155177715247" fill="#9B2636" r="2.5"/>
<circle cx="67.45508565692936" cy="-33.04950409828595" fill="#9B2636" r="2.5"/>
<circle cx="297.8685391590268" cy="-161.54012308842195" fill="#9B2636" r="2.5"/>
<circle cx="314.3522331672878" cy="-93.18298540123494" fill="#9B2636" r="2.5"/>
<circle cx="71.91303291310187" cy="-64.82144818283548" fill="#9B2636" r="2.5"/>
<circle cx="457.1521342643302" cy="-96.10804167142757" fill="#9B2636" r="2.5"/>
<circle cx="152.2890541397538" cy="-162.03416785126512" fill="#9B2636" r="2.5"/>
<circle cx="42.39604176859129" cy="-86.85022442509123" fill="#9B2636" r="2.5"/>
<circle cx="97.96818607090329" cy="-290.16450281355577" fill="#9B2636" r="2.5"/>
<circle cx="262.6453564958331" cy="-117.26891141950213" fill="#9B2636" r="2.5"/>
<circle cx="58.18640955767575" cy="-50.43508238379409" fill="#9B2636" r="2.5"/>
<circle cx="451.35660226438296" cy="-28.536350792154348" fill="#9B2636" r="2.5"/>
<circle cx="203.24089478942707" cy="-147.31757943044445" fill="#9B2636" r="2.5"/>
<circle cx="281.88672989025997" cy="-34.766839615584026" fill="#9B2636" r="2.5"/>
<circle cx="396.62726402330725" cy="-81.84561853149906" fill="#9B2636" r="2.5"/>
<circle cx="112.66794922930089" cy="-46.01153297609105" fill="#9B2636" r="2.5"/>
<circle cx="189.56700189146264" cy="-185.65760917436765" fill="#9B2636" r="2.5"/>
<circle cx="77.02396434723575" cy="-23.80527321575507" fill="#9B2636" r="2.5"/>
<circle cx="271.72609810614506" cy="-25.32693494099301" fill="#9B2636" r="2.5"/>
<circle cx="426.78716508864125" cy="-67.16004215773118" fill="#9B2636" r="2.5"/>
<circle cx="104.34249400046033" cy="-296.7858352486056" fill="#9B2636" r="2.5"/>
<circle cx="316.2209130187033" cy="-240.45582271545803" fill="#9B2636" r="2.5"/>
<circle cx="134.38664641652915" cy="-67.48111517807264" fill="#9B2636" r="2.5"/>
<circle cx="278.4457778384337" cy="-33.35397211160503" fill="#9B2636" r="2.5"/>
<circle cx="23.017523927447478" cy="-88.97368315778489" fill="#9B2636" r="2.5"/>
<circle cx="402.81537048412105" cy="-57.45074419336834" fill="#9B2636" r="2.5"/>
<circle cx="311.98368235391285" cy="-194.19793361073914" fill="#9B2636" r="2.5"/>
<circle cx="81.73601182758485" cy="-199.81970407171627" fill="#9B2636" r="2.5"/>
<circle cx="362.1319088186518" cy="-122.68914880123705" fill="#9B2636" r="2.5"/>
<circle cx="150.87019510632985" cy="-178.57288233666563" fill="#9B2636" r="2.5"/>
<circle cx="90.91563434447791" cy="-277.621382311037" fill="#9B2636" r="2.5"/>
<circle cx="315.0490771109305" cy="-8.489288272706236" fill="#9B2636" r="2.5"/>
<circle cx="237.90108489138558" cy="-245.26520396284516" fill="#9B2636" r="2.5"/>
<circle cx="152.74397706426694" cy="-128.87870609022528" fill="#9B2636" r="2.5"/>
<circle cx="176.97407308890095" cy="-112.27083611409674" fill="#9B2636" r="2.5"/>
<circle cx="503.45393718509996" cy="-31.909225242808258" fill="#9B2636" r="2.5"/>
<circle cx="341.1135390644223" cy="-215.3223991856238" fill="#9B2636" r="2.5"/>
<circle cx="27.503417814448074" cy="-221.91698978971513" fill="#9B2636" r="2.5"/>
<circle cx="8.126252791670133" cy="-151.47661913497416" fill="#9B2636" r="2.5"/>
<circle cx="120.94162824843265" cy="-208.15284752888581" fill="#9B2636" r="2.5"/>
<circle cx="67.94428224249403" cy="-136.53129802828116" fill="#9B2636" r="2.5"/>
<circle cx="55.40264259753499" cy="-127.85697155141578" fill="#9B2636" r="2.5"/>
<circle cx="72.56051873548819" cy="-211.5626272226443" fill="#9B2636" r="2.5"/>
<circle cx="278.83749628040835" cy="-189.51674780728007" fill="#9B2636" r="2.5"/>
<circle cx="241.4214651829685" cy="-140.5566405606768" fill="#9B2636" r="2.5"/>
<circle cx="31.595023886356465" cy="-180.452697938166" fill="#9B2636" r="2.5"/>
<circle cx="3.0562073560926177" cy="-269.14783771631113" fill="#9B2636" r="2.5"/>
<circle cx="78.78549072279318" cy="-121.52019624014787" fill="#9B2636" r="2.5"/>
<circle cx="326.1008589513501" cy="-46.17127392862162" fill="#9B2636" r="2.5"/>
<circle cx="132.90502136913332" cy="-41.78829420841185" fill="#9B2636" r="2.5"/>
<circle cx="264.9699924296015" cy="-130.3744130936967" fill="#9B2636" r="2.5"/>
<circle cx="359.75431345229975" cy="-87.67298069264832" fill="#9B2636" r="2.5"/>
<circle cx="328.0775213123527" cy="-133.0116790877081" fill="#9B2636" r="2.5"/>
<circle cx="139.28814259315004" cy="-94.25114187569541" fill="#9B2636" r="2.5"/>
<circle cx="82.0522033725577" cy="-156.0071605664863" fill="#9B2636" r="2.5"/>
<circle cx="35.93795579113711" cy="-0.7669531897158738" fill="#9B2636" r="2.5"/>
<circle cx="475.80554927081744" cy="-26.454136457109012" fill="#9B2636" r="2.5"/>
<circle cx="423.4277524068892" cy="-105.63921612959561" fill="#9B2636" r="2.5"/>
<circle cx="456.18201578233334" cy="-120.84859807700808" fill="#9B2636" r="2.5"/>
<circle cx="301.33614065298457" cy="-215.35797714074062" fill="#9B2636" r="2.5"/>
<circle cx="190.08538457907088" cy="-127.93878355726659" fill="#9B2636" r="2.5"/>
<circle cx="19.51347529746984" cy="-44.814311013471475" fill="#9B2636" r="2.5"/>
<circle cx="235.08881230150374" cy="-19.032757126694467" fill="#9B2636" r="2.5"/>
<circle cx="86.74543352250082" cy="-291.997044260827" fill="#9B2636" r="2.5"/>
<circle cx="427.4984098666161" cy="-104.88890525985424" fill="#9B2636" r="2.5"/>
<circle cx="152.74800186146425" cy="-60.26185215205729" fill="#9B2636" r="2.5"/>
<circle cx="123.35673715760372" cy="-2.757220651399241" fill="#9B2636" r="2.5"/>
<circle cx="58.3226800023569" cy="-69.70131712596162" fill="#9B2636" r="2.5"/>
<circle cx="402.5244758730254" cy="-49.52356124904598" fill="#9B2636" r="2.5"/>
<circle cx="409.372663324917" cy="-140.9822450561051" fill="#9B2636" r="2.5"/>
<circle cx="65.72902871590786" cy="-118.80939776881067" fill="#9B2636" r="2.5"/>
<circle cx="73.46634663471848" cy="-323.4709971759516" fill="#9B2636" r="2.5"/>
<circle cx="327.2934839698748" cy="-171.8247642884216" fill="#9B2636" r="2.5"/>
<circle cx="364.40652362756015" cy="-175.1520118618878" fill="#9B2636" r="2.5"/>
<circle cx="95.61014161698732" cy="-65.95658482883172" fill="#9B2636" r="2.5"/>
<circle cx="227.35158980031235" cy="-206.84182279559337" fill="#9B2636" r="2.5"/>
<circle cx="473.5813195744953" cy="-109.87583905483181" fill="#9B2636" r="2.5"/>
<circle cx="262.61716546163626" cy="-106.16565155175763" fill="#9B2636" r="2.5"/>
<circle cx="178.84682578248646" cy="-144.36274682110684" fill="#9B2636" r="2.5"/>
<circle cx="75.78170742253181" cy="-98.48350269398783" fill="#9B2636" r="2.5"/>
<circle cx="35.94905559746038" cy="-1.4397202946097662" fill="#9B2636" r="2.5"/>
<circle cx="171.41711735379718" cy="-137.50309565659717" fill="#9B2636" r="2.5"/>
<circle cx="319.5559454481514" cy="-120.67717039161619" fill="#9B2636" r="2.5"/>
<circle cx="483.9415061939397" cy="-90.64320631140149" fill="#9B2636" r="2.5"/>
<circle cx="470.8853510640693" cy="-109.45839551369407" fill="#9B2636" r="2.5"/>
<circle cx="43.849897656198664" cy="-204.24347932992194" fill="#9B2636" r="2.5"/>
<circle cx="11.634630928933545" cy="-12.332775763118839" fill="#9B2636" r="2.5"/>
<circle cx="494.3488964343748" cy="-23.065654918446928" fill="#9B2636" r="2.5"/>
<circle cx="324.7220344522361" cy="-35.379496703717074" fill="#9B2636" r="2.5"/>
<circle cx="45.234022673969584" cy="-208.20346554761886" fill="#9B2636" r="2.5"/>
<circle cx="400.62454213455936" cy="-18.16298543960546" fill="#9B2636" r="2.5"/>
<circle cx="406.8645891530434" cy="-11.926575057431887" fill="#9B2636" r="2.5"/>
<circle cx="489.98548518821224" cy="-81.19560785778265" fill="#9B2636" r="2.5"/>
<circle cx="209.97380561573652" cy="-187.54296309025204" fill="#9B2636" r="2.5"/>
<circle cx="81.29504672558545" cy="-275.6174835355251" fill="#9B2636" r="2.5"/>
<circle cx="333.4243749417807" cy="-40.22009338518793" fill="#9B2636" r="2.5"/>
<circle cx="208.82254805341043" cy="-74.66038269592639" fill="#9B2636" r="2.5"/>
<circle cx="70.55348253811931" cy="-217.43562860825466" fill="#9B2636" r="2.5"/>
<circle cx="82.12800794132242" cy="-186.02734212081916" fill="#9B2636" r="2.5"/>
<circle cx="87.21668429978338" cy="-137.1462669617114" fill="#9B2636" r="2.5"/>
<circle cx="289.46410119147436" cy="0" fill="#9B2636" r="2.5"/>
<circle cx="70.47009735762475" cy="-212.4224085139146" fill="#9B2636" r="2.5"/>
<circle cx="26.45078700305218" cy="-107.49194927757" fill="#9B2636" r="2.5"/>
<circle cx="277.2805783604224" cy="-98.66452916760846" fill="#9B2636" r="2.5"/>
<circle cx="115.48448699994906" cy="-133.10627089749912" fill="#9B2636" r="2.5"/>
<circle cx="382.0488824984348" cy="-39.81855462349472" fill="#9B2636" r="2.5"/>
<circle cx="392.94482564188974" cy="-146.9661275049229" fill="#9B2636" r="2.5"/>
<circle cx="469.18193980382875" cy="-53.595772960408006" fill="#9B2636" r="2.5"/>
<circle cx="257.68471152012836" cy="-163.70812881882406" fill="#9B2636" r="2.5"/>
<circle cx="454.535748283655" cy="-59.92379577782966" fill="#9B2636" r="2.5"/>
<circle cx="246.86142187891377" cy="-90.59687342311848" fill="#9B2636" r="2.5"/>
<circle cx="96.23001306937049" cy="-273.8780671319368" fill="#9B2636" r="2.5"/>
<circle cx="48.888543517471376" cy="-190.32230276108416" fill="#9B2636" r="2.5"/>
<circle cx="470.84259468919134" cy="-118.55833352109397" fill="#9B2636" r="2.5"/>
<circle cx="430.94972958419544" cy="-56.7529209761367" fill="#9B2636" r="2.5"/>
<circle cx="427.71777685195696" cy="-3.6761045137616417" fill="#9B2636" r="2.5"/>
<circle cx="73.64788849727124" cy="-193.43097376343545" fill="#9B2636" r="2.5"/>
<circle cx="265.3528654885207" cy="-110.8790448174002" fill="#9B2636" r="2.5"/>
<circle cx="378.9517488955015" cy="-178.3195303652796" fill="#9B2636" r="2.5"/>
<circle cx="116.68165839142048" cy="-177.83135230153505" fill="#9B2636" r="2.5"/>
<circle cx="31.605086608145633" cy="-287.2149498154679" fill="#9B2636" r="2.5"/>
<circle cx="266.0863611300735" cy="-187.72387721139236" fill="#9B2636" r="2.5"/>
<circle cx="229.726773896969" cy="-257.35954445273643" fill="#9B2636" r="2.5"/>
<circle cx="261.18081884637263" cy="-98.03373800244634" fill="#9B2636" r="2.5"/>
<circle cx="70.2300640052793" cy="-81.46508979972563" fill="#9B2636" r="2.5"/>
<circle cx="71.12408026643486" cy="-147.87679020821713" fill="#9B2636" r="2.5"/>
<circle cx="121.56166995813646" cy="-72.58080762344864" fill="#9B2636" r="2.5"/>
<circle cx="183.7147037813663" cy="-179.4814914325713" fill="#9B2636" r="2.5"/>
<circle cx="447.8976653879421" cy="-20.240892898337222" fill="#9B2636" r="2.5"/>
<circle cx="260.51637533091946" cy="-116.50438625957571" fill="#9B2636" r="2.5"/>
<circle cx="31.42150474873155" cy="-177.86383624219508" fill="#9B2636" r="2.5"/>
<circle cx="330.4497366008063" cy="-109.19538304661586" fill="#9B2636" r="2.5"/>
<circle cx="176.14351486455791" cy="-249.9246637157789" fill="#9B2636" r="2.5"/>
<circle cx="198.24909331048497" cy="-250.84919017157077" fill="#9B2636" r="2.5"/>
<circle cx="45.87264483727832" cy="-69.29404833490453" fill="#9B2636" r="2.5"/>
<circle cx="70.27236553660495" cy="-73.63606592761957" fill="#9B2636" r="2.5"/>
<circle cx="157.84933333034135" cy="-4.610074428804378" fill="#9B2636" r="2.5"/>
<circle cx="157.32622681364646" cy="-61.49413183318669" fill="#9B2636" r="2.5"/>
<circle cx="271.66482743940946" cy="-19.415047692917938" fill="#9B2636" r="2.5"/>
<circle cx="345.63426283752983" cy="-12.4591081888581" fill="#9B2636" r="2.5"/>
<circle cx="443.4144064344777" cy="-103.434020073099" fill="#9B2636" r="2.5"/>
<circle cx="199.49891664542767" cy="-160.35330129519332" fill="#9B2636" r="2.5"/>
<circle cx="341.16515931728037" cy="-42.506816713981515" fill="#9B2636" r="2.5"/>
<circle cx="8.344023333467643" cy="-157.87416325944142" fill="#9B2636" r="2.5"/>
<circle cx="302.9507796495139" cy="-9.863612224358636" fill="#9B2636" r="2.5"/>
<circle cx="126.6715845250962" cy="-115.96468682769381" fill="#9B2636" r="2.5"/>
<circle cx="469.05101794964816" cy="-34.8058604366371" fill="#9B2636" r="2.5"/>
<circle cx="373.6431292830206" cy="-33.70332876353761" fill="#9B2636" r="2.5"/>
<circle cx="408.8416772953926" cy="-94.35339645308933" fill="#9B2636" r="2.5"/>
<circle cx="111.05227062192381" cy="-50.719126458547386" fill="#9B2636" r="2.5"/>
<circle cx="240.21408062594767" cy="-233.6310701081973" fill="#9B2636" r="2.5"/>
<circle cx="53.14460346704149" cy="-225.13361548473816" fill="#9B2636" r="2.5"/>
<circle cx="28.926813412535328" cy="-209.09416184460196" fill="#9B2636" r="2.5"/>
<circle cx="68.73442521002919" cy="-261.14967042710106" fill="#9B2636" r="2.5"/>
<circle cx="211.5828999959319" cy="-76.31469115294163" fill="#9B2636" r="2.5"/>
<circle cx="158.1480593497238" cy="-92.49000137523672" fill="#9B2636" r="2.5"/>
<circle cx="74.49193555136054" cy="-278.25427698004006" fill="#9B2636" r="2.5"/>
<circle cx="330.6151675342387" cy="-170.62602658807342" fill="#9B2636" r="2.5"/>
<circle cx="360.8971997356341" cy="-185.146729276928" fill="#9B2636" r="2.5"/>
<circle cx="24.77108023832942" cy="-155.083644269414" fill="#9B2636" r="2.5"/>
<circle cx="264.8156222647277" cy="-77.83299513740376" fill="#9B2636" r="2.5"/>
<circle cx="49.15686011785625" cy="-82.2871269299411" fill="#9B2636" r="2.5"/>
<circle cx="119.14699355184513" cy="-17.874839542287642" fill="#9B2636" r="2.5"/>
<circle cx="51.88861146498705" cy="-158.4344504554734" fill="#9B2636" r="2.5"/>
<circle cx="226.62912365923495" cy="-243.9499633510256" fill="#9B2636" r="2.5"/>
<circle cx="423.48733844556716" cy="-144.0763674441365" fill="#9B2636" r="2.5"/>
<circle cx="13.865343599409877" cy="-255.39541065949777" fill="#9B2636" r="2.5"/>
<circle cx="515.5685735759178" cy="-52.77310253476063" fill="#9B2636" r="2.5"/>
<circle cx="463.1785096875022" cy="-121.43090765961175" fill="#9B2636" r="2.5"/>
<circle cx="382.1827917392102" cy="-93.20928287905917" fill="#9B2636" r="2.5"/>
<circle cx="105.1947737264293" cy="-290.5388280140496" fill="#9B2636" r="2.5"/>
<circle cx="304.56189788185384" cy="-22.92582990925136" fill="#9B2636" r="2.5"/>
<circle cx="278.50250219669556" cy="-182.57881573058248" fill="#9B2636" r="2.5"/>
<circle cx="160.41128066640587" cy="-255.22743942538878" fill="#9B2636" r="2.5"/>
<circle cx="72.25782700834438" cy="-218.39686815348557" fill="#9B2636" r="2.5"/>
<circle cx="339.4628147658126" cy="-185.9042038553154" fill="#9B2636" r="2.5"/>
<circle cx="229.57260066364313" cy="-84.00692490523387" fill="#9B2636" r="2.5"/>
<circle cx="267.5321981048133" cy="-150.76381467057294" fill="#9B2636" r="2.5"/>
<circle cx="222.21003760885833" cy="-33.32386214404916" fill="#9B2636" r="2.5"/>
<circle cx="104.96223293149691" cy="-265.9012666181375" fill="#9B2636" r="2.5"/>
<circle cx="260.3149586268735" cy="-184.04609540172" fill="#9B2636" r="2.5"/>
<circle cx="390.22704476230393" cy="-85.5110393185698" fill="#9B2636" r="2.5"/>
<circle cx="153.69686703432305" cy="-108.02333382657824" fill="#9B2636" r="2.5"/>
<circle cx="195.85482943607514" cy="-24.56591074132374" fill="#9B2636" r="2.5"/>
<circle cx="11.726357288798361" cy="-281.1029786612304" fill="#9B2636" r="2.5"/>
<circle cx="4.600738004025913" cy="-11.81519190564933" fill="#9B2636" r="2.5"/>
<circle cx="356.1622642879645" cy="-81.4626986344785" fill="#9B2636" r="2.5"/>
<circle cx="20.36174681768038" cy="-54.5450138566951" fill="#9B2636" r="2.5"/>
<circle cx="432.40000397833177" cy="-67.04011634880688" fill="#9B2636" r="2.5"/>
<circle cx="58.19762877186009" cy="-306.817784286512" fill="#9B2636" r="2.5"/>
<circle cx="33.968312693495164" cy="-58.94486273726918" fill="#9B2636" r="2.5"/>
<circle cx="382.643845147899" cy="-69.34934021655509" fill="#9B2636" r="2.5"/>
<circle cx="339.56125920528785" cy="-79.99953241775665" fill="#9B2636" r="2.5"/>
<circle cx="184.56080513550017" cy="-228.35085070424634" fill="#9B2636" r="2.5"/>
<circle cx="213.03210202115534" cy="-181.51878470562673" fill="#9B2636" r="2.5"/>
<circle cx="272.2520084231034" cy="-136.35668550761147" fill="#9B2636" r="2.5"/>
<circle cx="205.03242439662665" cy="-189.02267601576875" fill="#9B2636" r="2.5"/>
<circle cx="259.4830781205951" cy="-203.09034353719323" fill="#9B2636" r="2.5"/>
<circle cx="79.9034350867794" cy="-307.90071331040303" fill="#9B2636" r="2.5"/>
<circle cx="458.5071891967746" cy="-23.69717765789862" fill="#9B2636" r="2.5"/>
<circle cx="234.13469731458062" cy="-205.3286294707438" fill="#9B2636" r="2.5"/>
<circle cx="8.078948338925839" cy="-149.64397014454573" fill="#9B2636" r="2.5"/>
<circle cx="25.538271926760743" cy="-105.04488992448516" fill="#9B2636" r="2.5"/>
<circle cx="335.5924799592292" cy="-146.2740693475564" fill="#9B2636" r="2.5"/>
<circle cx="111.25671826473118" cy="-131.2527835844914" fill="#9B2636" r="2.5"/>
<circle cx="433.53824493530766" cy="-145.7796738236633" fill="#9B2636" r="2.5"/>
<circle cx="180.08001024509184" cy="-35.16495293807128" fill="#9B2636" r="2.5"/>
<circle cx="109.75744735468238" cy="-186.57040198001576" fill="#9B2636" r="2.5"/>
<circle cx="209.87641573139166" cy="-113.25944150704653" fill="#9B2636" r="2.5"/>
</g>
<g>
<path d="M0,-318.10916 L0,-318.10916 L2.6,-320.04648 L5.2,-321.9616 L7.8,-323.8412 L10.4,-325.67215 L13,-327.44177 L15.6,-329.1376 L18.2,-330.74768 L20.8,-332.2606 L23.4,-333.66537 L26,-334.9518 L28.6,-336.11032 L31.2,-337.13208 L33.8,-338.00903 L36.4,-338.73395 L39,-339.30048 L41.6,-339.7032 L44.2,-339.93756 L46.8,-340 L49.4,-339.88794 L52,-339.5998 L54.6,-339.13486 L57.2,-338.4936 L59.8,-337.67728 L62.4,-336.68823 L65,-335.5298 L67.6,-334.20612 L70.2,-332.72235 L72.8,-331.0845 L75.4,-329.29938 L78,-327.3746 L80.6,-325.3186 L83.2,-323.1404 L85.8,-320.84982 L88.4,-318.4571 L91,-315.97308 L93.6,-313.40915 L96.2,-310.77695 L98.8,-308.08853 L101.4,-305.3562 L104,-302.59247 L106.6,-299.80988 L109.2,-297.02112 L111.8,-294.2388 L114.4,-291.47546 L117,-288.7434 L119.6,-286.05475 L122.2,-283.42126 L124.8,-280.8544 L127.4,-278.3651 L130,-275.96384 L132.6,-273.66052 L135.2,-271.46442 L137.8,-269.38416 L140.4,-267.42767 L143,-265.60205 L145.6,-263.91367 L148.2,-262.36807 L150.8,-260.96985 L153.4,-259.72287 L156,-258.6299 L158.6,-257.693 L161.2,-256.91312 L163.8,-256.2904 L166.4,-255.82405 L169,-255.5123 L171.6,-255.35254 L174.2,-255.34123 L176.8,-255.474 L179.4,-255.74565 L182,-256.15015 L184.6,-256.68073 L187.2,-257.32993 L189.8,-258.0895 L192.4,-258.95074 L195,-259.9042 L197.6,-260.94006 L200.2,-262.04794 L202.8,-263.2171 L205.4,-264.4365 L208,-265.6948 L210.6,-266.98038 L213.2,-268.28165 L215.8,-269.58685 L218.4,-270.8842 L221,-272.16202 L223.6,-273.4088 L226.2,-274.61322 L228.8,-275.76413 L231.4,-276.8508 L234,-277.8629 L236.6,-278.7905 L239.2,-279.62418 L241.8,-280.355 L244.4,-280.97482 L247,-281.47592 L249.6,-281.8514 L252.2,-282.09503 L254.8,-282.20135 L257.4,-282.16568 L260,-281.98416 L262.6,-281.65366 L265.2,-281.17203 L267.8,-280.53784 L270.4,-279.75058 L273,-278.81052 L275.6,-277.7188 L278.2,-276.47742 L280.8,-275.08908 L283.4,-273.55737 L286,-271.8866 L288.6,-270.0818 L291.2,-268.14865 L293.8,-266.09357 L296.4,-263.9235 L299,-261.64603 L301.6,-259.26923 L304.2,-256.80157 L306.8,-254.25203 L309.4,-251.62987 L312,-248.94464 L314.6,-246.20615 L317.2,-243.42436 L319.8,-240.60936 L322.4,-237.77122 L325,-234.92006 L327.6,-232.06587 L330.2,-229.2185 L332.8,-226.38763 L335.4,-223.5826 L338,-220.81248 L340.6,-218.08594 L343.2,-215.41122 L345.8,-212.79608 L348.4,-210.24774 L351,-207.77283 L353.6,-205.37737 L356.2,-203.06676 L358.8,-200.84564 L361.4,-198.718 L364,-196.68707 L366.6,-194.75531 L369.2,-192.9244 L371.8,-191.19522 L374.4,-189.56792 L377,-188.0418 L379.6,-186.61534 L382.2,-185.28633 L384.8,-184.05173 L387.4,-182.90771 L390,-181.84981 L392.6,-180.87274 L395.2,-179.97063 L397.8,-179.13692 L400.4,-178.36443 L403,-177.64543 L405.6,-176.97166 L408.2,-176.33437 L410.8,-175.72437 L413.4,-175.13208 L416,-174.54759 L418.6,-173.96071 L421.2,-173.361 L423.8,-172.73782 L426.4,-172.08047 L429,-171.3781 L431.6,-170.61984 L434.2,-169.79486 L436.8,-168.89241 L439.4,-167.90181 L442,-166.81256 L444.6,-165.61432 L447.2,-164.29698 L449.8,-162.8507 L452.4,-161.26582 L455,-159.5331 L457.6,-157.64345 L460.2,-155.58812 L462.8,-153.35867 L465.4,-150.94687 L468,-148.3447 L470.6,-145.54434 L473.2,-142.5381 L475.8,-139.31827 L478.4,-135.8771 L481,-132.20663 L483.6,-128.29858 L486.2,-124.14406 L488.8,-119.733444 L491.4,-115.05602 L494,-110.09962 L496.6,-104.8502 L499.2,-99.29125 L501.8,-93.4031 L504.4,-87.161964 L507,-80.53875 L509.6,-73.497475 L512.2,-65.993065 L514.8,-57.968445 L517.4,-49.350277 L520,-40.042904" fill="none" stroke="#2B2A2B" stroke-linejoin="round" stroke-width="2"/>
</g>
<g>
<g>
<line stroke="black" stroke-width="1" x1="0" x2="0" y1="0" y2="10"/>
<line stroke="black" stroke-width="1" x1="173.33333333333334" x2="173.33333333333334" y1="0" y2="10"/>
<line stroke="black" stroke-width="1" x1="346.6666666666667" x2="346.6666666666667" y1="0" y2="10"/>
<line stroke="black" stroke-width="1" x1="520" x2="520" y1="0" y2="10"/>
</g>
<line stroke="black" stroke-width="1" x1="0" x2="520" y1="0" y2="0"/>
<g>
<text font-size="12" text-anchor="middle" x="0" y="20">
0
</text>
<text font-size="12" text-anchor="middle" x="173.33333333333334" y="20">
10
</text>
<text font-size="12" text-anchor="middle" x="346.6666666666667" y="20">
20
</text>
<text font-size="12" text-anchor="middle" x="520" y="20">
30
</text>
</g>
<text font-size="12" text-anchor="middle" x="260" y="30">
Time t
</text>
</g>
<g>
<g>
<line stroke="black" stroke-width="1" x1="0" x2="-10" y1="-93.24900159193966" y2="-93.24900159193966"/>
<line stroke="black" stroke-width="1" x1="0" x2="-10" y1="-186.89401101746532" y2="-186.89401101746532"/>
<line stroke="black" stroke-width="1" x1="0" x2="-10" y1="-280.53902044299093" y2="-280.53902044299093"/>
</g>
<line stroke="black" stroke-width="1" x1="0" x2="0" y1="0" y2="-340"/>
<g>
<text dominant-baseline="middle" font-size="12" text-anchor="end" x="-15" y="-93.24900159193966">
4
</text>
<text dominant-baseline="middle" font-size="12" text-anchor="end" x="-15" y="-186.89401101746532">
8
</text>
<text dominant-baseline="middle" font-size="12" text-anchor="end" x="-15" y="-280.53902044299093">
12
</text>
</g>
<text font-size="12" text-anchor="middle" transform="rotate(-90 -30 -170)" x="-30" y="-170">
Intensity λ(t)
</text>
</g>
</g>
</svg>