<svg viewBox="0 0 600 400" xmlns="http://www.w3.org/2000/svg">
<g transform="translate(48, 364)">
<g>
<circle cx="160.30157241498623" cy="-3.0225923231643446" fill="#9B2636" r="2.5"/>
<circle cx="354.6066145372763" cy="-154.60590866831714" fill="#9B2636" r="2.5"/>
<circle cx="290.09338303284113" cy="-128.48205124153822" fill="#9B2636" r="2.5"/>
<circle cx="246.83276017898936" cy="-52.65328477859556" fill="#9B2636" r="2.5"/>
<circle cx="14.266590747201752" cy="-287.3380046439933" fill="#9B2636" r="2.5"/>
<circle cx="398.7785960670374" cy="-39.04349601675355" fill="#9B2636" r="2.5"/>
<circle cx="41.01973063189745" cy="-37.590516267749784" fill="#9B2636" r="2.5"/>
<circle cx="237.35453230490978" cy="-93.31833470250928" fill="#9B2636" r="2.5"/>
<circle cx="18.724220363364907" cy="-263.80252019737657" fill="#9B2636" r="2.5"/>
<circle cx="247.2241738612126" cy="-174.06289860844078" fill="#9B2636" r="2.5"/>
<circle cx="213.7953819289222" cy="-31.422572292700806" fill="#9B2636" r="2.5"/>
<circle cx="11.360032661176897" cy="-246.97344625327753" fill="#9B2636" r="2.5"/>
<circle cx="100.55616505521552" cy="-156.63404114848706" fill="#9B2636" r="2.5"/>
<circle cx="10.706376447864642" cy="-307.2393261010567" fill="#9B2636" r="2.5"/>
<circle cx="304.6880527464063" cy="-101.80257736866145" fill="#9B2636" r="2.5"/>
<circle cx="190.5528100722611" cy="-188.97139300937332" fill="#9B2636" r="2.5"/>
<circle cx="378.9854402124609" cy="-68.9087056849879" fill="#9B2636" r="2.5"/>
<circle cx="337.9518351545396" cy="-41.54815801696232" fill="#9B2636" r="2.5"/>
<circle cx="485.34291361773325" cy="-56.39618382514451" fill="#9B2636" r="2.5"/>
<circle cx="68.81776953690407" cy="-25.446411364468887" fill="#9B2636" r="2.5"/>
<circle cx="35.86155501455393" cy="-335.00171199084053" fill="#9B2636" r="2.5"/>
<circle cx="24.048897407676083" cy="-258.0248453293884" fill="#9B2636" r="2.5"/>
<circle cx="481.01626115105194" cy="-131.61803912916585" fill="#9B2636" r="2.5"/>
<circle cx="62.853491942519376" cy="-232.7985451997848" fill="#9B2636" r="2.5"/>
<circle cx="133.1724322401464" cy="-268.43591668636884" fill="#9B2636" r="2.5"/>
<circle cx="204.50344511884717" cy="-25.650734617522442" fill="#9B2636" r="2.5"/>
<circle cx="278.060207869795" cy="-193.27988305511954" fill="#9B2636" r="2.5"/>
<circle cx="25.987923419593468" cy="-113.78700291958036" fill="#9B2636" r="2.5"/>
<circle cx="278.6278581289913" cy="-183.54501077122939" fill="#9B2636" r="2.5"/>
<circle cx="321.0395757457831" cy="-178.9631103257971" fill="#9B2636" r="2.5"/>
<circle cx="115.53836319786608" cy="-9.315104208298864" fill="#9B2636" r="2.5"/>
<circle cx="281.7913082109195" cy="-241.49657872597172" fill="#9B2636" r="2.5"/>
<circle cx="1.0502698564127932" cy="-46.237364548108886" fill="#9B2636" r="2.5"/>
<circle cx="2.065481213537552" cy="-39.09060499642586" fill="#9B2636" r="2.5"/>
<circle cx="222.19742167266924" cy="-137.10072138869404" fill="#9B2636" r="2.5"/>
<circle cx="12.73441658677997" cy="-165.27428330694767" fill="#9B2636" r="2.5"/>
<circle cx="4.046810722959617" cy="-126.9090288670131" fill="#9B2636" r="2.5"/>
<circle cx="366.5773234085833" cy="-100.57839206102601" fill="#9B2636" r="2.5"/>
<circle cx="104.46772983826806" cy="-47.03122284776072" fill="#9B2636" r="2.5"/>
<circle cx="391.44514406019664" cy="-24.236989780474776" fill="#9B2636" r="2.5"/>
<circle cx="353.88832641716425" cy="-119.5015738202567" fill="#9B2636" r="2.5"/>
<circle cx="91.74422338893096" cy="-308.1265139195279" fill="#9B2636" r="2.5"/>
<circle cx="198.26010289981974" cy="-145.78570270268244" fill="#9B2636" r="2.5"/>
<circle cx="335.11972195016455" cy="-118.71765417222727" fill="#9B2636" r="2.5"/>
<circle cx="115.68292069730616" cy="-111.20078434397166" fill="#9B2636" r="2.5"/>
<circle cx="7.797614341008869" cy="-0.9563817918667918" fill="#9B2636" r="2.5"/>
<circle cx="431.647314253164" cy="-97.13671291849624" fill="#9B2636" r="2.5"/>
<circle cx="254.7934730805881" cy="-234.48016808838165" fill="#9B2636" r="2.5"/>
<circle cx="446.9817724609326" cy="-15.76706832182793" fill="#9B2636" r="2.5"/>
<circle cx="145.40897179475658" cy="-27.950800484346967" fill="#9B2636" r="2.5"/>
<circle cx="192.1333901319168" cy="-241.6222410336549" fill="#9B2636" r="2.5"/>
<circle cx="281.15210291375257" cy="-233.93740963455747" fill="#9B2636" r="2.5"/>
<circle cx="395.25898703876135" cy="-156.40890043350646" fill="#9B2636" r="2.5"/>
<circle cx="252.59317085311866" cy="-150.54523952738572" fill="#9B2636" r="2.5"/>
<circle cx="69.62564477284013" cy="-218.0950672570444" fill="#9B2636" r="2.5"/>
<circle cx="302.21205890077886" cy="-171.96094377540055" fill="#9B2636" r="2.5"/>
<circle cx="143.9813857318848" cy="-9.747206880902848" fill="#9B2636" r="2.5"/>
<circle cx="373.87274473913857" cy="-69.84802866845104" fill="#9B2636" r="2.5"/>
<circle cx="206.335370738153" cy="-124.03493223065813" fill="#9B2636" r="2.5"/>
<circle cx="155.61927355464397" cy="-233.18090809258806" fill="#9B2636" r="2.5"/>
<circle cx="77.37565775491736" cy="-300.6033668059326" fill="#9B2636" r="2.5"/>
<circle cx="112.97180450931728" cy="-240.9541699459391" fill="#9B2636" r="2.5"/>
<circle cx="448.7450875360111" cy="-84.90075306357443" fill="#9B2636" r="2.5"/>
<circle cx="64.63504379621664" cy="-266.2411988266077" fill="#9B2636" r="2.5"/>
<circle cx="252.5494379203256" cy="-31.9243124994749" fill="#9B2636" r="2.5"/>
<circle cx="20.337648743932256" cy="-313.2488281957819" fill="#9B2636" r="2.5"/>
<circle cx="496.4085831194287" cy="-7.263076558104379" fill="#9B2636" r="2.5"/>
<circle cx="120.14374866959916" cy="-192.8076943614743" fill="#9B2636" r="2.5"/>
<circle cx="442.0978327048631" cy="-19.552360516249582" fill="#9B2636" r="2.5"/>
<circle cx="419.513570512714" cy="-113.12891253817463" fill="#9B2636" r="2.5"/>
<circle cx="333.6992922913512" cy="-57.20786244183829" fill="#9B2636" r="2.5"/>
<circle cx="474.5188957419738" cy="-125.02192561867832" fill="#9B2636" r="2.5"/>
<circle cx="156.63532060373353" cy="-187.9029324382795" fill="#9B2636" r="2.5"/>
<circle cx="17.865764151064088" cy="-256.50368006378665" fill="#9B2636" r="2.5"/>
<circle cx="478.03395957264354" cy="-23.41252124265781" fill="#9B2636" r="2.5"/>
<circle cx="75.97329964036413" cy="-97.88128991251746" fill="#9B2636" r="2.5"/>
<circle cx="413.9827966483104" cy="-74.60672612474993" fill="#9B2636" r="2.5"/>
<circle cx="108.60625360271155" cy="-77.55121956640068" fill="#9B2636" r="2.5"/>
<circle cx="330.48795745012717" cy="-38.42219425444174" fill="#9B2636" r="2.5"/>
<circle cx="195.9286695806635" cy="-10.917470829165158" fill="#9B2636" r="2.5"/>
<circle cx="28.283671157763123" cy="-281.55346338974476" fill="#9B2636" r="2.5"/>
<circle cx="376.6047736219225" cy="-16.707103282442517" fill="#9B2636" r="2.5"/>
<circle cx="455.5821931257413" cy="-27.169252403892923" fill="#9B2636" r="2.5"/>
<circle cx="264.5764672707774" cy="-69.65405885409112" fill="#9B2636" r="2.5"/>
<circle cx="244.47171016507397" cy="-225.467988709843" fill="#9B2636" r="2.5"/>
<circle cx="38.69362037870997" cy="-325.0884485868013" fill="#9B2636" r="2.5"/>
<circle cx="324.99261271388247" cy="-187.62897881820794" fill="#9B2636" r="2.5"/>
<circle cx="336.4795446127892" cy="-2.298048746100246" fill="#9B2636" r="2.5"/>
<circle cx="305.73511977944713" cy="-11.962432345449669" fill="#9B2636" r="2.5"/>
<circle cx="107.56210902777586" cy="-53.7795862618957" fill="#9B2636" r="2.5"/>
<circle cx="507.0932973104378" cy="0" fill="#9B2636" r="2.5"/>
<circle cx="487.4636033157695" cy="-71.20418897351341" fill="#9B2636" r="2.5"/>
<circle cx="342.106639915324" cy="-209.47804126505176" fill="#9B2636" r="2.5"/>
<circle cx="102.82091431330917" cy="-185.9536336787765" fill="#9B2636" r="2.5"/>
<circle cx="114.90373246175723" cy="-196.1253248007034" fill="#9B2636" r="2.5"/>
<circle cx="252.40222293679838" cy="-252.05113952172613" fill="#9B2636" r="2.5"/>
<circle cx="12.972097047308285" cy="-292.272129027726" fill="#9B2636" r="2.5"/>
<circle cx="229.0610976381567" cy="-51.94856685478259" fill="#9B2636" r="2.5"/>
<circle cx="411.8410381267778" cy="-32.014618520654174" fill="#9B2636" r="2.5"/>
<circle cx="24.919256913126784" cy="-225.4121157468111" fill="#9B2636" r="2.5"/>
<circle cx="336.4432795852204" cy="-1.2648625608260697" fill="#9B2636" r="2.5"/>
<circle cx="36.89031191322999" cy="-51.00335389282335" fill="#9B2636" r="2.5"/>
<circle cx="84.6526486472931" cy="-85.87815202252663" fill="#9B2636" r="2.5"/>
<circle cx="445.5560797749411" cy="-159.21180758118572" fill="#9B2636" r="2.5"/>
<circle cx="70.115666894574" cy="-132.42252449657332" fill="#9B2636" r="2.5"/>
<circle cx="367.54146378879847" cy="-145.44082248040547" fill="#9B2636" r="2.5"/>
<circle cx="458.64633024223616" cy="-144.3756677016673" fill="#9B2636" r="2.5"/>
<circle cx="48.392883669339184" cy="-270.30673767234947" fill="#9B2636" r="2.5"/>
<circle cx="330.56848774675444" cy="-227.53668186420788" fill="#9B2636" r="2.5"/>
<circle cx="47.94322174581999" cy="-245.88427482789274" fill="#9B2636" r="2.5"/>
<circle cx="54.91517897010954" cy="-180.35874630673754" fill="#9B2636" r="2.5"/>
<circle cx="300.07770715090294" cy="-248.42505915555404" fill="#9B2636" r="2.5"/>
<circle cx="396.75843906726027" cy="-33.887298244116074" fill="#9B2636" r="2.5"/>
<circle cx="6.4663686067152115" cy="-139.48993621310532" fill="#9B2636" r="2.5"/>
<circle cx="12.673779323591372" cy="-92.81218792438554" fill="#9B2636" r="2.5"/>
<circle cx="5.735011524122919" cy="-155.34507819292756" fill="#9B2636" r="2.5"/>
<circle cx="77.80763364910881" cy="-45.397944379800116" fill="#9B2636" r="2.5"/>
<circle cx="191.36687481379127" cy="-139.68755793635114" fill="#9B2636" r="2.5"/>
<circle cx="251.91892884770397" cy="-246.60180637011203" fill="#9B2636" r="2.5"/>
<circle cx="2.8727728187050294" cy="-106.50240776699503" fill="#9B2636" r="2.5"/>
<circle cx="126.65098285641453" cy="-130.37270100207664" fill="#9B2636" r="2.5"/>
<circle cx="72.29224233501854" cy="-72.16786421420535" fill="#9B2636" r="2.5"/>
<circle cx="266.44629918095956" cy="-253.11085154678017" fill="#9B2636" r="2.5"/>
<circle cx="274.56024153920856" cy="-178.80453644918194" fill="#9B2636" r="2.5"/>
<circle cx="297.98510393787876" cy="-227.74794972341897" fill="#9B2636" r="2.5"/>
<circle cx="112.79058770543506" cy="-1.396168397383227" fill="#9B2636" r="2.5"/>
<circle cx="88.20161331377783" cy="-95.05459611810626" fill="#9B2636" r="2.5"/>
<circle cx="77.31339465493664" cy="-64.46754602516144" fill="#9B2636" r="2.5"/>
<circle cx="250.60270972200254" cy="-83.89649135293718" fill="#9B2636" r="2.5"/>
<circle cx="154.73004204641802" cy="-91.32854207453322" fill="#9B2636" r="2.5"/>
<circle cx="28.64882968010317" cy="-213.9284227527738" fill="#9B2636" r="2.5"/>
<circle cx="282.14917996947406" cy="-44.75418895465315" fill="#9B2636" r="2.5"/>
<circle cx="107.88884767326584" cy="-286.94042209593005" fill="#9B2636" r="2.5"/>
<circle cx="119.3636176579207" cy="-283.2673043960794" fill="#9B2636" r="2.5"/>
<circle cx="9.597110899632666" cy="-42.32241351415993" fill="#9B2636" r="2.5"/>
<circle cx="67.91451621812857" cy="-25.5859951817357" fill="#9B2636" r="2.5"/>
<circle cx="277.5914624343694" cy="-193.68276138284483" fill="#9B2636" r="2.5"/>
<circle cx="42.91543996341725" cy="-211.6770463487055" fill="#9B2636" r="2.5"/>
<circle cx="196.56575953310616" cy="-207.62198644775785" fill="#9B2636" r="2.5"/>
<circle cx="298.154464489747" cy="-35.95774517047723" fill="#9B2636" r="2.5"/>
<circle cx="36.729515808853236" cy="-145.94355825898265" fill="#9B2636" r="2.5"/>
<circle cx="483.52572798159656" cy="-43.90129563908831" fill="#9B2636" r="2.5"/>
<circle cx="92.18001652568795" cy="-232.7670332576458" fill="#9B2636" r="2.5"/>
<circle cx="114.81126613168168" cy="-116.21339750176573" fill="#9B2636" r="2.5"/>
<circle cx="44.866470624206876" cy="-246.12857850040467" fill="#9B2636" r="2.5"/>
<circle cx="168.15322041934127" cy="-42.01723961347496" fill="#9B2636" r="2.5"/>
<circle cx="306.4680268367127" cy="-195.34854585060197" fill="#9B2636" r="2.5"/>
<circle cx="102.24402055932006" cy="-153.2294112739466" fill="#9B2636" r="2.5"/>
<circle cx="31.92905141437976" cy="-231.1749217174965" fill="#9B2636" r="2.5"/>
<circle cx="210.28715831553166" cy="-184.20773693496656" fill="#9B2636" r="2.5"/>
<circle cx="363.96747120953216" cy="-126.15396464047207" fill="#9B2636" r="2.5"/>
<circle cx="79.01254816480144" cy="-218.7394066265718" fill="#9B2636" r="2.5"/>
<circle cx="193.91095389230208" cy="-186.94354570061859" fill="#9B2636" r="2.5"/>
<circle cx="368.1368156746591" cy="-8.5036515080935" fill="#9B2636" r="2.5"/>
<circle cx="41.65404266389383" cy="-338.61806173062087" fill="#9B2636" r="2.5"/>
<circle cx="354.6241032153409" cy="-189.68308207438287" fill="#9B2636" r="2.5"/>
<circle cx="440.7250690323516" cy="-155.1791122446605" fill="#9B2636" r="2.5"/>
<circle cx="14.794808022471152" cy="-144.01302797743443" fill="#9B2636" r="2.5"/>
<circle cx="266.28581395086815" cy="-194.80011198443242" fill="#9B2636" r="2.5"/>
<circle cx="70.01277710778508" cy="-242.36322521074317" fill="#9B2636" r="2.5"/>
<circle cx="22.10552459830379" cy="-48.86351229299903" fill="#9B2636" r="2.5"/>
<circle cx="72.79225922872841" cy="-93.43703107047396" fill="#9B2636" r="2.5"/>
<circle cx="165.20288241647557" cy="-168.1517542502348" fill="#9B2636" r="2.5"/>
<circle cx="31.053139180994027" cy="-336.4584634735097" fill="#9B2636" r="2.5"/>
<circle cx="79.711208207935" cy="-71.72201161302338" fill="#9B2636" r="2.5"/>
<circle cx="388.5553261505864" cy="-151.60114249406317" fill="#9B2636" r="2.5"/>
<circle cx="251.40366849924266" cy="-157.8871047598456" fill="#9B2636" r="2.5"/>
<circle cx="322.98242120982394" cy="-34.13307254578139" fill="#9B2636" r="2.5"/>
<circle cx="397.04595869015617" cy="-144.178507772135" fill="#9B2636" r="2.5"/>
<circle cx="120.77458495773277" cy="-263.52414268663165" fill="#9B2636" r="2.5"/>
<circle cx="47.56134860651009" cy="-129.8991031900539" fill="#9B2636" r="2.5"/>
<circle cx="136.59710570115703" cy="-131.41087240792726" fill="#9B2636" r="2.5"/>
<circle cx="171.83147088801647" cy="-69.40764459841625" fill="#9B2636" r="2.5"/>
<circle cx="254.2261001997313" cy="-222.947625770977" fill="#9B2636" r="2.5"/>
<circle cx="342.45345941062726" cy="-48.91916347536706" fill="#9B2636" r="2.5"/>
<circle cx="305.4978395553955" cy="-75.33952090590803" fill="#9B2636" r="2.5"/>
<circle cx="34.243144946461285" cy="-207.91821675181276" fill="#9B2636" r="2.5"/>
<circle cx="184.04478259321002" cy="-54.62064754715628" fill="#9B2636" r="2.5"/>
<circle cx="57.197462122600655" cy="-220.66575226960268" fill="#9B2636" r="2.5"/>
<circle cx="117.39218323731463" cy="-279.72722747028854" fill="#9B2636" r="2.5"/>
<circle cx="228.96081571453666" cy="-4.302278758647868" fill="#9B2636" r="2.5"/>
<circle cx="63.65653113468128" cy="-25.647922002703673" fill="#9B2636" r="2.5"/>
<circle cx="177.57423569885216" cy="-226.70649017227373" fill="#9B2636" r="2.5"/>
<circle cx="267.49192162780406" cy="-21.707613083027393" fill="#9B2636" r="2.5"/>
<circle cx="121.11911651725588" cy="-253.81462096537226" fill="#9B2636" r="2.5"/>
<circle cx="219.82159404406457" cy="-207.320456227282" fill="#9B2636" r="2.5"/>
<circle cx="198.5234734506657" cy="-181.02618406921158" fill="#9B2636" r="2.5"/>
<circle cx="69.54152542350015" cy="-315.3990171268953" fill="#9B2636" r="2.5"/>
<circle cx="318.7589850107535" cy="-46.373193142887544" fill="#9B2636" r="2.5"/>
<circle cx="308.901193622264" cy="-134.40368309616252" fill="#9B2636" r="2.5"/>
<circle cx="60.793086456188206" cy="-333.19104568623794" fill="#9B2636" r="2.5"/>
<circle cx="103.19248682114798" cy="-183.18174138966114" fill="#9B2636" r="2.5"/>
<circle cx="311.0685046034487" cy="-83.23672768350406" fill="#9B2636" r="2.5"/>
<circle cx="363.9877331718245" cy="-127.82180602317983" fill="#9B2636" r="2.5"/>
<circle cx="326.4455677199841" cy="-106.3107124808773" fill="#9B2636" r="2.5"/>
<circle cx="12.350668785203153" cy="-299.3138955949409" fill="#9B2636" r="2.5"/>
<circle cx="184.61376206618226" cy="-55.50227307073681" fill="#9B2636" r="2.5"/>
<circle cx="398.9673534206055" cy="-124.02247375008346" fill="#9B2636" r="2.5"/>
<circle cx="362.6450491573774" cy="-131.94383417999464" fill="#9B2636" r="2.5"/>
<circle cx="201.6190253269728" cy="-54.985952857870465" fill="#9B2636" r="2.5"/>
<circle cx="362.4735321080343" cy="-168.9071748533063" fill="#9B2636" r="2.5"/>
<circle cx="377.855364149936" cy="-44.69855027211547" fill="#9B2636" r="2.5"/>
<circle cx="25.20843961941672" cy="-333.39335633361765" fill="#9B2636" r="2.5"/>
<circle cx="164.81558245848322" cy="-70.75719670862512" fill="#9B2636" r="2.5"/>
<circle cx="356.9530594120751" cy="-152.91692069889822" fill="#9B2636" r="2.5"/>
<circle cx="483.2550613991005" cy="-67.68984285925539" fill="#9B2636" r="2.5"/>
<circle cx="119.55178771313525" cy="-244.6039133732616" fill="#9B2636" r="2.5"/>
<circle cx="242.30504193505857" cy="-103.15575623558576" fill="#9B2636" r="2.5"/>
<circle cx="190.23083236546742" cy="-9.978987794886667" fill="#9B2636" r="2.5"/>
<circle cx="490.9458661218881" cy="-20.190268440278498" fill="#9B2636" r="2.5"/>
<circle cx="125.63552322549539" cy="-143.63797752898037" fill="#9B2636" r="2.5"/>
<circle cx="65.76306053453736" cy="-63.54765890313034" fill="#9B2636" r="2.5"/>
<circle cx="308.8337974155211" cy="-142.12835198834372" fill="#9B2636" r="2.5"/>
<circle cx="136.3734997616976" cy="-203.61422516580063" fill="#9B2636" r="2.5"/>
<circle cx="301.79371139798224" cy="-120.21675700090832" fill="#9B2636" r="2.5"/>
<circle cx="205.0760705009433" cy="-171.95600466097852" fill="#9B2636" r="2.5"/>
<circle cx="264.7152160192889" cy="-122.18929145115646" fill="#9B2636" r="2.5"/>
<circle cx="278.34887148717564" cy="-102.65141470262951" fill="#9B2636" r="2.5"/>
<circle cx="189.3657604531584" cy="-9.883350775432183" fill="#9B2636" r="2.5"/>
<circle cx="440.87935715937965" cy="-118.97128169116125" fill="#9B2636" r="2.5"/>
<circle cx="115.58103613968954" cy="-218.9734027632195" fill="#9B2636" r="2.5"/>
<circle cx="122.13654261884616" cy="-134.6500735400118" fill="#9B2636" r="2.5"/>
<circle cx="306.58564255275667" cy="-131.34736673670324" fill="#9B2636" r="2.5"/>
<circle cx="300.77256404245225" cy="-110.08147296158585" fill="#9B2636" r="2.5"/>
<circle cx="307.8311346646957" cy="-43.30236435710894" fill="#9B2636" r="2.5"/>
<circle cx="103.50500849682615" cy="-54.76055341823163" fill="#9B2636" r="2.5"/>
<circle cx="229.03807290950968" cy="-182.66778239244965" fill="#9B2636" r="2.5"/>
<circle cx="269.955626290079" cy="-31.134503448522086" fill="#9B2636" r="2.5"/>
<circle cx="15.591759260135799" cy="-65.87158460700182" fill="#9B2636" r="2.5"/>
<circle cx="123.43209191635451" cy="-68.71857606604864" fill="#9B2636" r="2.5"/>
<circle cx="332.92484577200946" cy="-25.87289868478878" fill="#9B2636" r="2.5"/>
<circle cx="493.64288738567745" cy="-34.41025377442747" fill="#9B2636" r="2.5"/>
<circle cx="76.13897308112715" cy="-80.93819367991038" fill="#9B2636" r="2.5"/>
<circle cx="284.3465077877843" cy="-169.87242915330077" fill="#9B2636" r="2.5"/>
<circle cx="40.46395898469883" cy="-322.32748277376885" fill="#9B2636" r="2.5"/>
<circle cx="224.00686292484895" cy="-84.14050551123951" fill="#9B2636" r="2.5"/>
<circle cx="238.33177889638176" cy="-221.58579562286639" fill="#9B2636" r="2.5"/>
<circle cx="227.18463127192575" cy="-40.44329513200445" fill="#9B2636" r="2.5"/>
<circle cx="400.310327644327" cy="-102.23820512151607" fill="#9B2636" r="2.5"/>
<circle cx="416.40466623154197" cy="-75.43416085887675" fill="#9B2636" r="2.5"/>
<circle cx="266.6845290639776" cy="-68.64741287729983" fill="#9B2636" r="2.5"/>
<circle cx="268.66275208901016" cy="-27.791590975534394" fill="#9B2636" r="2.5"/>
<circle cx="105.94341077811644" cy="-114.61451942501444" fill="#9B2636" r="2.5"/>
<circle cx="196.0561792624919" cy="-202.12652865800146" fill="#9B2636" r="2.5"/>
<circle cx="137.01353676702857" cy="-185.76099566668412" fill="#9B2636" r="2.5"/>
<circle cx="197.71268345042432" cy="-257.23503097028515" fill="#9B2636" r="2.5"/>
<circle cx="247.02092107735118" cy="-222.62044080405883" fill="#9B2636" r="2.5"/>
<circle cx="211.191587974986" cy="-55.23762585263603" fill="#9B2636" r="2.5"/>
<circle cx="240.54554951173748" cy="-68.3601961338785" fill="#9B2636" r="2.5"/>
<circle cx="154.63130898786605" cy="-132.39607718138362" fill="#9B2636" r="2.5"/>
<circle cx="56.29236436318501" cy="-238.6437325792988" fill="#9B2636" r="2.5"/>
<circle cx="355.59552727490643" cy="-80.78344638503552" fill="#9B2636" r="2.5"/>
<circle cx="101.2804991845954" cy="-297.55087768488863" fill="#9B2636" r="2.5"/>
<circle cx="38.74695313894997" cy="-12.475876690485961" fill="#9B2636" r="2.5"/>
<circle cx="281.63773220452913" cy="-34.74793666822199" fill="#9B2636" r="2.5"/>
<circle cx="345.91396306939953" cy="-59.18345340016621" fill="#9B2636" r="2.5"/>
<circle cx="356.7255011117963" cy="-177.1612904273227" fill="#9B2636" r="2.5"/>
<circle cx="1.8471033435739104" cy="-113.90278661553525" fill="#9B2636" r="2.5"/>
<circle cx="101.323101192633" cy="-9.153746930612279" fill="#9B2636" r="2.5"/>
<circle cx="210.14004198723487" cy="-259.25540067781503" fill="#9B2636" r="2.5"/>
<circle cx="223.91433552013885" cy="-190.56790526905317" fill="#9B2636" r="2.5"/>
<circle cx="297.24934266709283" cy="-55.153442800133114" fill="#9B2636" r="2.5"/>
<circle cx="195.82133905172694" cy="-162.91416730874158" fill="#9B2636" r="2.5"/>
<circle cx="10.133531882476712" cy="-323.2434081634239" fill="#9B2636" r="2.5"/>
<circle cx="24.98801202734078" cy="-72.100500273518" fill="#9B2636" r="2.5"/>
<circle cx="291.2008528057026" cy="-187.76903515155044" fill="#9B2636" r="2.5"/>
<circle cx="149.72423613878905" cy="-23.974843923002457" fill="#9B2636" r="2.5"/>
<circle cx="90.80762917949203" cy="-78.95496894301264" fill="#9B2636" r="2.5"/>
<circle cx="15.626095066694976" cy="-175.24553967883696" fill="#9B2636" r="2.5"/>
<circle cx="207.3676262685538" cy="-112.28865649213694" fill="#9B2636" r="2.5"/>
<circle cx="158.97098822289" cy="-140.5349847788875" fill="#9B2636" r="2.5"/>
<circle cx="43.899447871027306" cy="-244.06678227802365" fill="#9B2636" r="2.5"/>
<circle cx="192.47039333185936" cy="-148.36898189772646" fill="#9B2636" r="2.5"/>
<circle cx="195.7567381745725" cy="-51.80205835002206" fill="#9B2636" r="2.5"/>
<circle cx="356.5005034649541" cy="-152.8432267979089" fill="#9B2636" r="2.5"/>
<circle cx="270.2687890768899" cy="-9.00836234292422" fill="#9B2636" r="2.5"/>
<circle cx="296.70701362263867" cy="-162.53836612221076" fill="#9B2636" r="2.5"/>
<circle cx="50.9344119771958" cy="-228.70602833394173" fill="#9B2636" r="2.5"/>
<circle cx="317.46775526606285" cy="-40.36074314116121" fill="#9B2636" r="2.5"/>
<circle cx="215.84628331007963" cy="-194.10971650188293" fill="#9B2636" r="2.5"/>
<circle cx="134.85051949971907" cy="-15.02676769786916" fill="#9B2636" r="2.5"/>
<circle cx="2.1040231376265295" cy="-117.4633199789165" fill="#9B2636" r="2.5"/>
<circle cx="48.91916660213262" cy="-210.64279463011107" fill="#9B2636" r="2.5"/>
<circle cx="309.6797148247567" cy="-196.09886756268395" fill="#9B2636" r="2.5"/>
<circle cx="33.953811791168775" cy="-284.9735811863703" fill="#9B2636" r="2.5"/>
<circle cx="367.26689250089987" cy="-109.98723588501045" fill="#9B2636" r="2.5"/>
<circle cx="99.17171406586408" cy="-190.82446524564816" fill="#9B2636" r="2.5"/>
<circle cx="257.76073066829144" cy="-31.190898414180396" fill="#9B2636" r="2.5"/>
<circle cx="74.26432769851891" cy="-36.94360253877399" fill="#9B2636" r="2.5"/>
<circle cx="500.51598106255443" cy="-22.644477234559794" fill="#9B2636" r="2.5"/>
<circle cx="45.338139128093864" cy="-142.84671250630254" fill="#9B2636" r="2.5"/>
<circle cx="35.64144195670922" cy="-140.26688461867334" fill="#9B2636" r="2.5"/>
<circle cx="64.26073823259469" cy="-251.66680702142992" fill="#9B2636" r="2.5"/>
<circle cx="331.4016242922813" cy="-225.6917495767826" fill="#9B2636" r="2.5"/>
<circle cx="192.58665473243568" cy="-160.467276738843" fill="#9B2636" r="2.5"/>
<circle cx="237.60891968460885" cy="-132.5994028123034" fill="#9B2636" r="2.5"/>
<circle cx="242.7570978602285" cy="-1.5823548734376205" fill="#9B2636" r="2.5"/>
<circle cx="241.90615396902624" cy="-76.82555193721075" fill="#9B2636" r="2.5"/>
<circle cx="37.69343769676675" cy="-263.9094430855348" fill="#9B2636" r="2.5"/>
<circle cx="182.40352777801658" cy="-82.27252796049873" fill="#9B2636" r="2.5"/>
<circle cx="419.51879806983237" cy="-69.06514501602284" fill="#9B2636" r="2.5"/>
<circle cx="75.62042744610771" cy="-118.5458904602284" fill="#9B2636" r="2.5"/>
<circle cx="507.6237005378802" cy="-30.19589380363612" fill="#9B2636" r="2.5"/>
<circle cx="477.9933782490951" cy="-66.52882832008105" fill="#9B2636" r="2.5"/>
<circle cx="191.9412342607735" cy="-23.21436691029598" fill="#9B2636" r="2.5"/>
<circle cx="195.4391989507356" cy="-203.99266497363078" fill="#9B2636" r="2.5"/>
</g>
<g>
<path d="M0,-318.1273 L0,-318.1273 L2.6,-320.06302 L5.2,-321.97653 L7.8,-323.85455 L10.4,-325.68402 L13,-327.45218 L15.6,-329.1466 L18.2,-330.75534 L20.8,-332.267 L23.4,-333.67062 L26,-334.956 L28.6,-336.11356 L31.2,-337.13446 L33.8,-338.01068 L36.4,-338.735 L39,-339.30106 L41.6,-339.70343 L44.2,-339.9376 L46.8,-340 L49.4,-339.88803 L52,-339.6001 L54.6,-339.1356 L57.2,-338.49484 L59.8,-337.6792 L62.4,-336.69098 L65,-335.5335 L67.6,-334.21094 L70.2,-332.7284 L72.8,-331.0919 L75.4,-329.30823 L78,-327.38507 L80.6,-325.33075 L83.2,-323.1544 L85.8,-320.86566 L88.4,-318.47495 L91,-315.993 L93.6,-313.43118 L96.2,-310.80115 L98.8,-308.11496 L101.4,-305.3849 L104,-302.62344 L106.6,-299.84317 L109.2,-297.05673 L111.8,-294.27673 L114.4,-291.51566 L117,-288.78586 L119.6,-286.09943 L122.2,-283.46814 L124.8,-280.9034 L127.4,-278.41617 L130,-276.01688 L132.6,-273.71548 L135.2,-271.52118 L137.8,-269.44266 L140.4,-267.4878 L143,-265.66367 L145.6,-263.9767 L148.2,-262.43237 L150.8,-261.03534 L153.4,-259.78937 L156,-258.69733 L158.6,-257.76117 L161.2,-256.98193 L163.8,-256.35974 L166.4,-255.89378 L169,-255.58229 L171.6,-255.42265 L174.2,-255.41136 L176.8,-255.54402 L179.4,-255.81544 L182,-256.2196 L184.6,-256.74976 L187.2,-257.3984 L189.8,-258.15738 L192.4,-259.01788 L195,-259.97055 L197.6,-261.00555 L200.2,-262.11252 L202.8,-263.28073 L205.4,-264.4991 L208,-265.75635 L210.6,-267.0409 L213.2,-268.34106 L215.8,-269.64517 L218.4,-270.94144 L221,-272.21823 L223.6,-273.464 L226.2,-274.66736 L228.8,-275.81732 L231.4,-276.90314 L234,-277.9144 L236.6,-278.84122 L239.2,-279.67416 L241.8,-280.40442 L244.4,-281.0237 L247,-281.5244 L249.6,-281.89957 L252.2,-282.143 L254.8,-282.24924 L257.4,-282.2136 L260,-282.0322 L262.6,-281.702 L265.2,-281.22076 L267.8,-280.5871 L270.4,-279.80048 L273,-278.8612 L275.6,-277.7704 L278.2,-276.53003 L280.8,-275.14285 L283.4,-273.61243 L286,-271.94302 L288.6,-270.1397 L291.2,-268.20816 L293.8,-266.1548 L296.4,-263.9865 L299,-261.71094 L301.6,-259.3361 L304.2,-256.8705 L306.8,-254.32306 L309.4,-251.70306 L312,-249.02007 L314.6,-246.28384 L317.2,-243.50436 L319.8,-240.69168 L322.4,-237.85591 L325,-235.00711 L327.6,-232.15529 L330.2,-229.31029 L332.8,-226.48174 L335.4,-223.67903 L338,-220.91121 L340.6,-218.18694 L343.2,-215.51443 L345.8,-212.90146 L348.4,-210.35522 L351,-207.88235 L353.6,-205.48889 L356.2,-203.18018 L358.8,-200.9609 L361.4,-198.83504 L364,-196.80579 L366.6,-194.87563 L369.2,-193.04622 L371.8,-191.3185 L374.4,-189.69254 L377,-188.16766 L379.6,-186.7424 L382.2,-185.4145 L384.8,-184.18091 L387.4,-183.03786 L390,-181.9808 L392.6,-181.00456 L395.2,-180.1032 L397.8,-179.27017 L400.4,-178.49832 L403,-177.77992 L405.6,-177.1067 L408.2,-176.46994 L410.8,-175.86044 L413.4,-175.26865 L416,-174.68465 L418.6,-174.09825 L421.2,-173.49904 L423.8,-172.87639 L426.4,-172.21957 L429,-171.51778 L431.6,-170.76015 L434.2,-169.93587 L436.8,-169.03416 L439.4,-168.04439 L442,-166.95602 L444.6,-165.75877 L447.2,-164.44254 L449.8,-162.99744 L452.4,-161.4139 L455,-159.68259 L457.6,-157.7945 L460.2,-155.74089 L462.8,-153.51329 L465.4,-151.10347 L468,-148.50346 L470.6,-145.70543 L473.2,-142.70168 L475.8,-139.48451 L478.4,-136.04619 L481,-132.37877 L483.6,-128.47395 L486.2,-124.322876 L488.8,-119.91592 L491.4,-115.24236 L494,-110.29006 L496.6,-105.04499 L499.2,-99.490654 L501.8,-93.607376 L504.4,-87.371414 L507,-80.753685 L509.6,-73.71824 L512.2,-66.22005 L514.8,-58.202072 L517.4,-49.591045 L520,-40.291386" fill="none" stroke="#2B2A2B" stroke-width="2"/>
</g>
<g>
<g>
<line stroke="black" stroke-width="1" x1="0" x2="0" y1="0" y2="10"/>
<line stroke="black" stroke-width="1" x1="173.33333333333334" x2="173.33333333333334" y1="0" y2="10"/>
<line stroke="black" stroke-width="1" x1="346.6666666666667" x2="346.6666666666667" y1="0" y2="10"/>
<line stroke="black" stroke-width="1" x1="520" x2="520" y1="0" y2="10"/>
</g>
<line stroke="black" stroke-width="1" x1="0" x2="520" y1="0" y2="0"/>
<g>
<text font-size="12" text-anchor="middle" x="0" y="20">
0
</text>
<text font-size="12" text-anchor="middle" x="173.33333333333334" y="20">
10
</text>
<text font-size="12" text-anchor="middle" x="346.6666666666667" y="20">
20
</text>
<text font-size="12" text-anchor="middle" x="520" y="20">
30
</text>
</g>
<text font-size="12" text-anchor="middle" x="260" y="30">
Time t
</text>
</g>
<g>
<g>
<line stroke="black" stroke-width="1" x1="0" x2="-10" y1="-93.45340604821807" y2="-93.45340604821807"/>
<line stroke="black" stroke-width="1" x1="0" x2="-10" y1="-187.02084149285486" y2="-187.02084149285486"/>
<line stroke="black" stroke-width="1" x1="0" x2="-10" y1="-280.58827693749157" y2="-280.58827693749157"/>
</g>
<line stroke="black" stroke-0="1" x1="0" x2="0" y1="0" y2="-340"/>
<g>
<text dominant-baseline="middle" font-size="12" text-anchor="end" x="-15" y="-93.45340604821807">
4
</text>
<text dominant-baseline="middle" font-size="12" text-anchor="end" x="-15" y="-187.02084149285486">
8
</text>
<text dominant-baseline="middle" font-size="12" text-anchor="end" x="-15" y="-280.58827693749157">
12
</text>
</g>
<text font-size="12" text-anchor="middle" transform="rotate(-90 -30 -170)" x="-30" y="-170">
Intensity λ(t)
</text>
</g>
</g>
</svg>