<svg viewBox="0 0 600 400" xmlns="http://www.w3.org/2000/svg">
<g transform="translate(48, 364)">
<g>
<circle cx="32.645711000316616" cy="-18.691630747585034" fill="#1C58CE" r="2.5"/>
<circle cx="4.590682721616655" cy="-215.1407108829393" fill="#1C58CE" r="2.5"/>
</g>
<g>
<path d="M0,-340 L0,-340 L2.6,-283.99188 L5.2,-237.20995 L7.8,-198.1344 L10.4,-165.49577 L13,-138.23369 L15.6,-115.46248 L18.2,-96.44237 L20.8,-80.555435 L23.4,-67.28556 L26,-56.201622 L28.6,-46.943542 L31.2,-39.21054 L33.8,-32.751396 L36.4,-27.356266 L39,-22.849874 L41.6,-19.08582 L44.2,-15.941816 L46.8,-13.315724 L49.4,-11.122228 L52,-9.290066 L54.6,-7.759715 L57.2,-6.4814587 L59.8,-5.4137697 L62.4,-4.5219603 L65,-3.7770588 L67.6,-3.1548648 L70.2,-2.6351645 L72.8,-2.2010744 L75.4,-1.8384919 L78,-1.5356375 L80.6,-1.2826723 L83.2,-1.071378 L85.8,-0.89489007 L88.4,-0.747475 L91,-0.62434363 L93.6,-0.52149564 L96.2,-0.43558976 L98.8,-0.36383516 L101.4,-0.30390066 L104,-0.25383916 L106.6,-0.2120243 L109.2,-0.17709759 L111.8,-0.14792433 L114.4,-0.12355679 L117,-0.103203304 L119.6,-0.08620265 L122.2,-0.07200251 L124.8,-0.06014155 L127.4,-0.05023444 L130,-0.041959334 L132.6,-0.035047382 L135.2,-0.029274033 L137.8,-0.024451729 L140.4,-0.0204238 L143,-0.017059391 L145.6,-0.014249202 L148.2,-0.011901934 L150.8,-0.009941331 L153.4,-0.008303697 L156,-0.006935831 L158.6,-0.005793293 L161.2,-0.0048389654 L163.8,-0.0040418436 L166.4,-0.0033760315 L169,-0.0028198985 L171.6,-0.0023553772 L174.2,-0.0019673763 L176.8,-0.001643291 L179.4,-0.0013725919 L182,-0.0011464852 L184.6,-0.0009576249 L187.2,-0.0007998756 L189.8,-0.00066811225 L192.4,-0.00055805425 L195,-0.00046612608 L197.6,-0.00038934124 L200.2,-0.00032520512 L202.8,-0.00027163417 L205.4,-0.00022688793 L208,-0.00018951272 L210.6,-0.00015829434 L213.2,-0.00013221854 L215.8,-0.00011043821 L218.4,-0.00009224575 L221,-0.00007705012 L223.6,-0.00006435767 L226.2,-0.000053756048 L228.8,-0.000044900826 L231.4,-0.00003750432 L234,-0.000031326243 L236.6,-0.000026165877 L239.2,-0.000021855578 L241.8,-0.000018255314 L244.4,-0.000015248119 L247,-0.0000127363 L249.6,-0.000010638252 L252.2,-0.000008885815 L254.8,-0.0000074220566 L257.4,-0.000006199423 L260,-0.000005178193 L262.6,-0.0000043251903 L265.2,-0.0000036127026 L267.8,-0.000003017583 L270.4,-0.000002520497 L273,-0.000002105296 L275.6,-0.0000017584912 L278.2,-0.0000014688153 L280.8,-0.0000012268576 L283.4,-0.0000010247576 L286,-0.0000008559495 L288.6,-0.00000071494907 L291.2,-0.00000059717564 L293.8,-0.00000049880305 L296.4,-0.00000041663532 L299,-0.00000034800306 L301.6,-0.00000029067655 L304.2,-0.00000024279345 L306.8,-0.00000020279813 L309.4,-0.00000016939123 L312,-0.00000014148743 L314.6,-0.000000118180225 L317.2,-0.000000098712405 L319.8,-0.00000008245152 L322.4,-0.000000068869284 L325,-0.00000005752445 L327.6,-0.000000048048445 L330.2,-0.000000040133422 L332.8,-0.00000003352224 L335.4,-0.000000028000116 L338,-0.00000002338765 L340.6,-0.000000019534994 L343.2,-0.000000016316985 L345.8,-0.000000013629079 L348.4,-0.000000011383951 L351,-0.000000009508662 L353.6,-0.000000007942289 L356.2,-0.0000000066339445 L358.8,-0.000000005541123 L361.4,-0.000000004628322 L364,-0.0000000038658867 L366.6,-0.000000003229047 L369.2,-0.0000000026971136 L371.8,-0.0000000022528057 L374.4,-0.0000000018816886 L377,-0.0000000015717054 L379.6,-0.0000000013127858 L382.2,-0.0000000010965178 L384.8,-0.00000000091587565 L387.4,-0.0000000007649907 L390,-0.00000000063896094 L392.6,-0.00000000053369204 L395.2,-0.00000000044576406 L397.8,-0.00000000037232045 L400.4,-0.0000000003109752 L403,-0.00000000025973532 L405.6,-0.00000000021693619 L408.2,-0.00000000018118734 L410.8,-0.00000000015132741 L413.4,-0.00000000012638628 L416,-0.000000000105553705 L418.6,-0.000000000088152874 L421.2,-0.00000000007361848 L423.8,-0.00000000006147833 L426.4,-0.000000000051338028 L429,-0.000000000042868133 L431.6,-0.000000000035793483 L434.2,-0.00000000002988424 L436.8,-0.000000000024948424 L439.4,-0.000000000020825683 L442,-0.000000000017382082 L444.6,-0.000000000014505745 L447.2,-0.000000000012103225 L449.8,-0.000000000010096472 L452.4,-0.000000000008420291 L455,-0.0000000000070202273 L457.6,-0.0000000000058507955 L460.2,-0.000000000004874004 L462.8,-0.000000000004058119 L465.4,-0.0000000000033766347 L468,-0.0000000000028074112 L470.6,-0.0000000000023319558 L473.2,-0.0000000000019348219 L475.8,-0.000000000001603108 L478.4,-0.000000000001326037 L481,-0.000000000001094608 L483.6,-0.0000000000009013023 L486.2,-0.0000000000007398397 L488.8,-0.0000000000006049749 L491.4,-0.0000000000004923263 L494,-0.00000000000039823426 L496.6,-0.00000000000031964202 L499.2,-0.00000000000025399623 L501.8,-0.00000000000019916428 L504.4,-0.00000000000015336477 L507,-0.00000000000011510981 L509.6,-0.000000000000083156585 L512.2,-0.000000000000056467004 L514.8,-0.000000000000034173995 L517.4,-0.000000000000015553305 L520,0" fill="none" stroke="#373AC6" stroke-width="1.5"/>
</g>
<g>
<g>
<line stroke="black" stroke-width="1" x1="0" x2="0" y1="0" y2="10"/>
<line stroke="black" stroke-width="1" x1="173.33333333333334" x2="173.33333333333334" y1="0" y2="10"/>
<line stroke="black" stroke-width="1" x1="346.6666666666667" x2="346.6666666666667" y1="0" y2="10"/>
<line stroke="black" stroke-width="1" x1="520" x2="520" y1="0" y2="10"/>
</g>
<line stroke="black" stroke-width="1" x1="0" x2="520" y1="0" y2="0"/>
<g>
<text font-size="12" text-anchor="middle" x="0" y="20">
0
</text>
<text font-size="12" text-anchor="middle" x="173.33333333333334" y="20">
10
</text>
<text font-size="12" text-anchor="middle" x="346.6666666666667" y="20">
20
</text>
<text font-size="12" text-anchor="middle" x="520" y="20">
30
</text>
</g>
<text font-size="12" text-anchor="middle" x="260" y="30">
Time t
</text>
</g>
<g>
<g>
<line stroke="black" stroke-width="1" x1="0" x2="-10" y1="-67.99999999999994" y2="-67.99999999999994"/>
<line stroke="black" stroke-width="1" x1="0" x2="-10" y1="-135.99999999999997" y2="-135.99999999999997"/>
<line stroke="black" stroke-width="1" x1="0" x2="-10" y1="-204" y2="-204"/>
<line stroke="black" stroke-width="1" x1="0" x2="-10" y1="-272" y2="-272"/>
<line stroke="black" stroke-width="1" x1="0" x2="-10" y1="-340" y2="-340"/>
</g>
<line stroke="black" stroke-0="1" x1="0" x2="0" y1="0" y2="-340"/>
<g>
<text dominant-baseline="middle" font-size="12" text-anchor="end" x="-15" y="-67.99999999999994">
0.2
</text>
<text dominant-baseline="middle" font-size="12" text-anchor="end" x="-15" y="-135.99999999999997">
0.4
</text>
<text dominant-baseline="middle" font-size="12" text-anchor="end" x="-15" y="-204">
0.6000000000000001
</text>
<text dominant-baseline="middle" font-size="12" text-anchor="end" x="-15" y="-272">
0.8
</text>
<text dominant-baseline="middle" font-size="12" text-anchor="end" x="-15" y="-340">
1
</text>
</g>
<text font-size="12" text-anchor="middle" transform="rotate(-90 -30 -170)" x="-30" y="-170">
Intensity λ(t)
</text>
</g>
</g>
</svg>