<svg viewBox="0 0 600 400" xmlns="http://www.w3.org/2000/svg">
<g transform="translate(48, 364)">
<g>
<circle cx="40.559760359850955" cy="-11.432888750586452" fill="#1C58CE" r="2.5"/>
<circle cx="192.06343206046733" cy="-106.2241062510955" fill="#1C58CE" r="2.5"/>
<circle cx="276.93483975621905" cy="-77.19115424454552" fill="#1C58CE" r="2.5"/>
<circle cx="69.00389718059859" cy="-46.60866890038943" fill="#1C58CE" r="2.5"/>
<circle cx="317.23505253227614" cy="-96.45608327238408" fill="#1C58CE" r="2.5"/>
<circle cx="211.67184002883513" cy="-47.05288739862569" fill="#1C58CE" r="2.5"/>
<circle cx="213.67811679279117" cy="-252.65643482449954" fill="#1C58CE" r="2.5"/>
<circle cx="381.6156702167402" cy="-46.17427688026252" fill="#1C58CE" r="2.5"/>
<circle cx="134.93172857952953" cy="-96.30048264656071" fill="#1C58CE" r="2.5"/>
<circle cx="2.0857146365728263" cy="-35.78283387991232" fill="#1C58CE" r="2.5"/>
<circle cx="210.63809407780337" cy="-70.59006213610579" fill="#1C58CE" r="2.5"/>
<circle cx="54.918153711505255" cy="-74.88078077833777" fill="#1C58CE" r="2.5"/>
<circle cx="66.50018637937882" cy="-157.7451021848603" fill="#1C58CE" r="2.5"/>
<circle cx="0.6598390610562509" cy="-115.32576825474983" fill="#1C58CE" r="2.5"/>
<circle cx="283.04399136507345" cy="-206.05134003972978" fill="#1C58CE" r="2.5"/>
<circle cx="171.56192797592342" cy="-220.30549723702546" fill="#1C58CE" r="2.5"/>
<circle cx="15.392072469673119" cy="-273.3758049666791" fill="#1C58CE" r="2.5"/>
<circle cx="172.38493850296405" cy="-51.10607368592351" fill="#1C58CE" r="2.5"/>
<circle cx="117.77121393539338" cy="-129.66399065765964" fill="#1C58CE" r="2.5"/>
<circle cx="86.87393133239725" cy="-62.10375934121123" fill="#1C58CE" r="2.5"/>
<circle cx="390.42611875741443" cy="-112.12145871310466" fill="#1C58CE" r="2.5"/>
<circle cx="387.51340389114046" cy="-134.19295262629234" fill="#1C58CE" r="2.5"/>
<circle cx="13.45330315588303" cy="-289.09280672396204" fill="#1C58CE" r="2.5"/>
<circle cx="48.54082144228491" cy="-320.80546447364696" fill="#1C58CE" r="2.5"/>
<circle cx="268.1580462200931" cy="-256.8876284882684" fill="#1C58CE" r="2.5"/>
<circle cx="71.62547136340021" cy="-40.52412540834063" fill="#1C58CE" r="2.5"/>
<circle cx="196.09078739497812" cy="-149.44161318189927" fill="#1C58CE" r="2.5"/>
<circle cx="202.3554880193944" cy="-173.26503721300114" fill="#1C58CE" r="2.5"/>
<circle cx="179.89640196721763" cy="-208.49665744058902" fill="#1C58CE" r="2.5"/>
<circle cx="413.99045549521907" cy="-117.65193845668584" fill="#1C58CE" r="2.5"/>
<circle cx="99.54442794823169" cy="-35.40796607549864" fill="#1C58CE" r="2.5"/>
<circle cx="68.04872109532138" cy="-245.1826131132676" fill="#1C58CE" r="2.5"/>
<circle cx="473.48283534758014" cy="-49.68708606374004" fill="#1C58CE" r="2.5"/>
<circle cx="15.596151412794919" cy="-291.8689128655663" fill="#1C58CE" r="2.5"/>
<circle cx="221.32714522952787" cy="-167.68314398883297" fill="#1C58CE" r="2.5"/>
<circle cx="2.2665518261429063" cy="-16.903949006673276" fill="#1C58CE" r="2.5"/>
<circle cx="426.85217301688886" cy="-29.19189891699694" fill="#1C58CE" r="2.5"/>
<circle cx="268.08443659006133" cy="-194.15038775939595" fill="#1C58CE" r="2.5"/>
<circle cx="222.8426835046794" cy="-177.42704438819482" fill="#1C58CE" r="2.5"/>
<circle cx="153.22146335717193" cy="-135.29032702888233" fill="#1C58CE" r="2.5"/>
<circle cx="256.30291009674255" cy="-35.67287711852954" fill="#1C58CE" r="2.5"/>
<circle cx="81.26285586358519" cy="-299.3106563990044" fill="#1C58CE" r="2.5"/>
<circle cx="53.86605353907706" cy="-5.015146118773681" fill="#1C58CE" r="2.5"/>
<circle cx="107.23402189522261" cy="-289.22145811255064" fill="#1C58CE" r="2.5"/>
<circle cx="47.72447475366191" cy="-149.50504415871043" fill="#1C58CE" r="2.5"/>
<circle cx="246.99195375035114" cy="-96.63281611765721" fill="#1C58CE" r="2.5"/>
<circle cx="357.0542035548723" cy="-169.05906166609853" fill="#1C58CE" r="2.5"/>
<circle cx="195.81878690113916" cy="-221.13775246028317" fill="#1C58CE" r="2.5"/>
<circle cx="362.8887140098779" cy="-42.60241772840544" fill="#1C58CE" r="2.5"/>
<circle cx="57.70441642382146" cy="-33.247956600646475" fill="#1C58CE" r="2.5"/>
<circle cx="13.45418616590719" cy="-66.6335727506832" fill="#1C58CE" r="2.5"/>
<circle cx="41.94292244250475" cy="-27.78462655475739" fill="#1C58CE" r="2.5"/>
<circle cx="64.35827979852054" cy="-240.85569515521857" fill="#1C58CE" r="2.5"/>
<circle cx="181.44938793265865" cy="-224.5338064524199" fill="#1C58CE" r="2.5"/>
<circle cx="258.97747430223086" cy="-116.19880063618044" fill="#1C58CE" r="2.5"/>
<circle cx="210.7641885386733" cy="-123.50149224443963" fill="#1C58CE" r="2.5"/>
<circle cx="395.8837304427028" cy="-56.56523908419754" fill="#1C58CE" r="2.5"/>
<circle cx="288.259004177833" cy="-79.8269875224527" fill="#1C58CE" r="2.5"/>
<circle cx="433.5996710067433" cy="-40.98722202579918" fill="#1C58CE" r="2.5"/>
<circle cx="293.7386028263303" cy="-204.61777328307542" fill="#1C58CE" r="2.5"/>
<circle cx="240.5830730881759" cy="-86.4143772310992" fill="#1C58CE" r="2.5"/>
<circle cx="323.88773947764497" cy="-217.41626301182407" fill="#1C58CE" r="2.5"/>
<circle cx="389.67324800605644" cy="-46.522661735510745" fill="#1C58CE" r="2.5"/>
<circle cx="50.03760622671931" cy="-27.980139339550348" fill="#1C58CE" r="2.5"/>
<circle cx="40.17040084760041" cy="-81.52701285661318" fill="#1C58CE" r="2.5"/>
<circle cx="381.27467538503265" cy="-182.242864321894" fill="#1C58CE" r="2.5"/>
<circle cx="412.2385727284278" cy="-147.91067874579534" fill="#1C58CE" r="2.5"/>
<circle cx="236.77412206245054" cy="-134.84509708259043" fill="#1C58CE" r="2.5"/>
<circle cx="416.5611472583894" cy="-83.06565068293726" fill="#1C58CE" r="2.5"/>
<circle cx="467.5026754853546" cy="-41.16534650507562" fill="#1C58CE" r="2.5"/>
<circle cx="467.21709119209174" cy="-84.36134284123959" fill="#1C58CE" r="2.5"/>
<circle cx="113.42112603690535" cy="-175.70893458737908" fill="#1C58CE" r="2.5"/>
<circle cx="18.78897443174825" cy="-27.3005950001058" fill="#1C58CE" r="2.5"/>
<circle cx="6.373511914366712" cy="-175.8305697762339" fill="#1C58CE" r="2.5"/>
<circle cx="63.714269642709574" cy="-321.2806352207971" fill="#1C58CE" r="2.5"/>
<circle cx="180.57249698743132" cy="-99.78205611701013" fill="#1C58CE" r="2.5"/>
<circle cx="222.55420707997368" cy="-73.27813464989867" fill="#1C58CE" r="2.5"/>
<circle cx="72.09877415232705" cy="-316.3025249909214" fill="#1C58CE" r="2.5"/>
<circle cx="27.89827805766036" cy="-79.77115515742146" fill="#1C58CE" r="2.5"/>
<circle cx="393.40899006209327" cy="-165.11307231474183" fill="#1C58CE" r="2.5"/>
<circle cx="37.25547413413548" cy="-106.4666766294911" fill="#1C58CE" r="2.5"/>
<circle cx="104.2659235529517" cy="-210.8897458055401" fill="#1C58CE" r="2.5"/>
<circle cx="24.083390368908866" cy="-208.275240181477" fill="#1C58CE" r="2.5"/>
<circle cx="238.02478111199562" cy="-245.64404944790178" fill="#1C58CE" r="2.5"/>
<circle cx="24.778823842585723" cy="-72.66567367544954" fill="#1C58CE" r="2.5"/>
<circle cx="336.25712392645676" cy="-144.72751849231557" fill="#1C58CE" r="2.5"/>
<circle cx="53.862965283837944" cy="-307.54635673126757" fill="#1C58CE" r="2.5"/>
<circle cx="330.5514439728648" cy="-117.54899928860436" fill="#1C58CE" r="2.5"/>
<circle cx="79.05833606451685" cy="-198.9888818412029" fill="#1C58CE" r="2.5"/>
<circle cx="263.656307428411" cy="-279.0652035142111" fill="#1C58CE" r="2.5"/>
<circle cx="332.73720010551875" cy="-44.013074911523525" fill="#1C58CE" r="2.5"/>
<circle cx="476.09011141712745" cy="-125.11210826340334" fill="#1C58CE" r="2.5"/>
<circle cx="294.4654468066891" cy="-198.86958959648965" fill="#1C58CE" r="2.5"/>
<circle cx="22.25045684676036" cy="-135.3827558738172" fill="#1C58CE" r="2.5"/>
<circle cx="283.57098098509147" cy="-21.286508473698422" fill="#1C58CE" r="2.5"/>
<circle cx="194.0370115500719" cy="-57.11031578977139" fill="#1C58CE" r="2.5"/>
<circle cx="33.341972244844335" cy="-157.96789509184484" fill="#1C58CE" r="2.5"/>
<circle cx="277.96481892298374" cy="-145.4319369948226" fill="#1C58CE" r="2.5"/>
<circle cx="386.94898174476367" cy="0" fill="#1C58CE" r="2.5"/>
<circle cx="402.0308156490602" cy="-64.7443478465841" fill="#1C58CE" r="2.5"/>
<circle cx="26.180887496544027" cy="-315.9730316893467" fill="#1C58CE" r="2.5"/>
<circle cx="490.7373525327805" cy="-82.58648549574689" fill="#1C58CE" r="2.5"/>
<circle cx="224.9206353274054" cy="-184.48587791256023" fill="#1C58CE" r="2.5"/>
<circle cx="184.4724476816925" cy="-180.2945065718118" fill="#1C58CE" r="2.5"/>
<circle cx="91.37001740218813" cy="-116.13663767215081" fill="#1C58CE" r="2.5"/>
<circle cx="153.3190351110211" cy="-182.999583007804" fill="#1C58CE" r="2.5"/>
<circle cx="256.5944015673575" cy="-119.99995351906941" fill="#1C58CE" r="2.5"/>
<circle cx="93.89497492195656" cy="-96.63421176117559" fill="#1C58CE" r="2.5"/>
<circle cx="77.29606482138644" cy="-140.64060196546208" fill="#1C58CE" r="2.5"/>
<circle cx="99.39066740829489" cy="-57.820623528740626" fill="#1C58CE" r="2.5"/>
<circle cx="230.27265929427728" cy="-46.947962743321476" fill="#1C58CE" r="2.5"/>
<circle cx="234.31712986507216" cy="-261.82994364026325" fill="#1C58CE" r="2.5"/>
<circle cx="438.77653723574804" cy="-75.72421578801264" fill="#1C58CE" r="2.5"/>
<circle cx="258.24124646002196" cy="-261.37205246893456" fill="#1C58CE" r="2.5"/>
<circle cx="454.1403296321075" cy="-101.21312981407578" fill="#1C58CE" r="2.5"/>
<circle cx="376.08977274495703" cy="-82.84196189681185" fill="#1C58CE" r="2.5"/>
<circle cx="424.0204239425493" cy="-56.36229206001186" fill="#1C58CE" r="2.5"/>
<circle cx="353.07368749990275" cy="-6.78939409877865" fill="#1C58CE" r="2.5"/>
<circle cx="75.45049434798528" cy="-114.08647103138874" fill="#1C58CE" r="2.5"/>
<circle cx="40.050664491206895" cy="-76.09851727395724" fill="#1C58CE" r="2.5"/>
<circle cx="492.94203009510977" cy="-52.51203727646372" fill="#1C58CE" r="2.5"/>
<circle cx="337.83660664284906" cy="-146.84655025512203" fill="#1C58CE" r="2.5"/>
<circle cx="17.057211046595647" cy="-50.55302874952779" fill="#1C58CE" r="2.5"/>
<circle cx="332.204276215084" cy="-45.72692380403225" fill="#1C58CE" r="2.5"/>
<circle cx="340.77723174466666" cy="-62.045349660823796" fill="#1C58CE" r="2.5"/>
<circle cx="438.76659570338467" cy="-54.481276508811696" fill="#1C58CE" r="2.5"/>
<circle cx="296.58838402264297" cy="-214.8791910987789" fill="#1C58CE" r="2.5"/>
<circle cx="351.96426276695206" cy="-122.72281495265676" fill="#1C58CE" r="2.5"/>
<circle cx="208.34416460877046" cy="-56.53626007306092" fill="#1C58CE" r="2.5"/>
<circle cx="354.26668466682275" cy="-80.74576757591815" fill="#1C58CE" r="2.5"/>
<circle cx="63.7694560487346" cy="-187.4804269061813" fill="#1C58CE" r="2.5"/>
<circle cx="4.8408525235073085" cy="-76.21085284276587" fill="#1C58CE" r="2.5"/>
<circle cx="427.6026755017541" cy="-34.76686848845909" fill="#1C58CE" r="2.5"/>
<circle cx="226.25800444244604" cy="-233.62699183701585" fill="#1C58CE" r="2.5"/>
<circle cx="98.23992448593359" cy="-250.28892092139952" fill="#1C58CE" r="2.5"/>
<circle cx="241.34393727389622" cy="-216.26811063746408" fill="#1C58CE" r="2.5"/>
<circle cx="256.57660451490244" cy="-49.135774247162466" fill="#1C58CE" r="2.5"/>
<circle cx="194.99678620332992" cy="-137.65808529844455" fill="#1C58CE" r="2.5"/>
<circle cx="222.37980059577032" cy="-188.69148363700074" fill="#1C58CE" r="2.5"/>
<circle cx="252.52511591157776" cy="-86.4713239341466" fill="#1C58CE" r="2.5"/>
<circle cx="210.7777003194501" cy="-37.35713246888764" fill="#1C58CE" r="2.5"/>
<circle cx="80.15652845938195" cy="-185.44833161153338" fill="#1C58CE" r="2.5"/>
<circle cx="210.75609972126935" cy="-24.852318903878157" fill="#1C58CE" r="2.5"/>
<circle cx="318.96016450293075" cy="-218.37327633217075" fill="#1C58CE" r="2.5"/>
<circle cx="254.27474536560246" cy="-98.49986001063179" fill="#1C58CE" r="2.5"/>
<circle cx="438.1880913543777" cy="-143.5008679272334" fill="#1C58CE" r="2.5"/>
<circle cx="189.78925743024985" cy="-213.07580470102732" fill="#1C58CE" r="2.5"/>
<circle cx="246.0248693059599" cy="-179.76024887545003" fill="#1C58CE" r="2.5"/>
<circle cx="377.0606845905071" cy="-35.02557561419034" fill="#1C58CE" r="2.5"/>
<circle cx="66.4239164561964" cy="-147.09144040867724" fill="#1C58CE" r="2.5"/>
<circle cx="154.08128954982698" cy="-190.71649254985218" fill="#1C58CE" r="2.5"/>
<circle cx="124.40958258989336" cy="-68.02977039899" fill="#1C58CE" r="2.5"/>
<circle cx="175.2347993920413" cy="-54.24691866026571" fill="#1C58CE" r="2.5"/>
<circle cx="262.6374886870523" cy="-16.576109303066662" fill="#1C58CE" r="2.5"/>
<circle cx="259.1787348850447" cy="-138.59519836783994" fill="#1C58CE" r="2.5"/>
<circle cx="59.985461371588784" cy="-280.74907018300735" fill="#1C58CE" r="2.5"/>
<circle cx="298.78725985960693" cy="-218.24983461600766" fill="#1C58CE" r="2.5"/>
<circle cx="154.0732440130219" cy="-41.8284237651878" fill="#1C58CE" r="2.5"/>
<circle cx="77.20723970035947" cy="-167.94692518510286" fill="#1C58CE" r="2.5"/>
<circle cx="435.39048174403945" cy="-27.372725385352815" fill="#1C58CE" r="2.5"/>
<circle cx="149.52564553187594" cy="-176.47735644168452" fill="#1C58CE" r="2.5"/>
<circle cx="175.27424280392916" cy="-11.348346259131912" fill="#1C58CE" r="2.5"/>
<circle cx="312.77187069958774" cy="-138.83984008300808" fill="#1C58CE" r="2.5"/>
<circle cx="160.01553205308159" cy="-211.21573082108688" fill="#1C58CE" r="2.5"/>
<circle cx="353.3682644526934" cy="-160.19997197883634" fill="#1C58CE" r="2.5"/>
<circle cx="114.83416213889103" cy="-86.08671968171618" fill="#1C58CE" r="2.5"/>
<circle cx="302.9124190452276" cy="-40.65889332737726" fill="#1C58CE" r="2.5"/>
<circle cx="422.61190256906656" cy="-165.03875628909972" fill="#1C58CE" r="2.5"/>
<circle cx="278.3578170758128" cy="-18.491509622639494" fill="#1C58CE" r="2.5"/>
<circle cx="418.6093191502451" cy="-124.20798224538369" fill="#1C58CE" r="2.5"/>
<circle cx="13.066431302880801" cy="-303.935021157715" fill="#1C58CE" r="2.5"/>
<circle cx="61.03382639654682" cy="-205.96721194426766" fill="#1C58CE" r="2.5"/>
<circle cx="79.56072285897959" cy="-114.17518828384037" fill="#1C58CE" r="2.5"/>
<circle cx="198.4008857752514" cy="-95.22698365975228" fill="#1C58CE" r="2.5"/>
<circle cx="44.85171122948639" cy="-245.95184965800587" fill="#1C58CE" r="2.5"/>
<circle cx="13.445474982252051" cy="-221.5621317376451" fill="#1C58CE" r="2.5"/>
<circle cx="316.8473495449935" cy="-153.05299509634162" fill="#1C58CE" r="2.5"/>
<circle cx="187.08693085545536" cy="-72.38254852398181" fill="#1C58CE" r="2.5"/>
<circle cx="242.29641317073543" cy="-56.20073970504425" fill="#1C58CE" r="2.5"/>
<circle cx="339.8182814822029" cy="-145.8505419344626" fill="#1C58CE" r="2.5"/>
<circle cx="32.15258519356235" cy="-29.336605953087034" fill="#1C58CE" r="2.5"/>
<circle cx="289.8304136963099" cy="-165.66431581854087" fill="#1C58CE" r="2.5"/>
<circle cx="398.18849023969466" cy="-5.425839616540622" fill="#1C58CE" r="2.5"/>
<circle cx="456.2780682024353" cy="-154.5037830864734" fill="#1C58CE" r="2.5"/>
<circle cx="309.7011250220999" cy="-7.174238146308066" fill="#1C58CE" r="2.5"/>
<circle cx="229.80578161782805" cy="-195.23242945170912" fill="#1C58CE" r="2.5"/>
<circle cx="208.5682431731" cy="-182.02031732073524" fill="#1C58CE" r="2.5"/>
<circle cx="128.99574415703654" cy="-176.38241435939784" fill="#1C58CE" r="2.5"/>
<circle cx="126.02700651353727" cy="-248.74353600330878" fill="#1C58CE" r="2.5"/>
<circle cx="62.37952616333681" cy="-13.53961589206992" fill="#1C58CE" r="2.5"/>
<circle cx="266.3016310647284" cy="-231.49022081342787" fill="#1C58CE" r="2.5"/>
<circle cx="233.4120901061361" cy="-60.60597519574833" fill="#1C58CE" r="2.5"/>
<circle cx="251.91352693301513" cy="-12.076129935023218" fill="#1C58CE" r="2.5"/>
<circle cx="285.6739453069079" cy="-220.1271057847724" fill="#1C58CE" r="2.5"/>
<circle cx="292.8860596450601" cy="-34.7523445764524" fill="#1C58CE" r="2.5"/>
<circle cx="343.8844240426038" cy="-2.4351762866739666" fill="#1C58CE" r="2.5"/>
<circle cx="122.87247121975065" cy="-12.265933463227029" fill="#1C58CE" r="2.5"/>
<circle cx="222.7696550905044" cy="-24.315724014598597" fill="#1C58CE" r="2.5"/>
<circle cx="335.9195338464607" cy="-146.38158063211466" fill="#1C58CE" r="2.5"/>
<circle cx="210.29492751443917" cy="-265.66843647246526" fill="#1C58CE" r="2.5"/>
<circle cx="238.81566165327655" cy="-36.57253150362682" fill="#1C58CE" r="2.5"/>
<circle cx="2.978887296098288" cy="-35.97479808773488" fill="#1C58CE" r="2.5"/>
<circle cx="91.18717185557149" cy="-50.53794033609195" fill="#1C58CE" r="2.5"/>
<circle cx="3.1103208141380776" cy="-29.566759305346924" fill="#1C58CE" r="2.5"/>
<circle cx="86.7111993577573" cy="-88.88039747441812" fill="#1C58CE" r="2.5"/>
<circle cx="20.585544102636728" cy="-171.29125038106204" fill="#1C58CE" r="2.5"/>
<circle cx="284.0499246859534" cy="-107.76729457199238" fill="#1C58CE" r="2.5"/>
<circle cx="472.767111677233" cy="-128.24466174258373" fill="#1C58CE" r="2.5"/>
<circle cx="229.90220165888675" cy="-141.90632585507302" fill="#1C58CE" r="2.5"/>
<circle cx="192.55651040742342" cy="-220.14592109365245" fill="#1C58CE" r="2.5"/>
<circle cx="179.33010598880887" cy="-31.600130278357906" fill="#1C58CE" r="2.5"/>
<circle cx="93.69943274386154" cy="-101.15255740014628" fill="#1C58CE" r="2.5"/>
<circle cx="151.84020751981478" cy="-83.3356245153305" fill="#1C58CE" r="2.5"/>
<circle cx="507.6711675980705" cy="-25.293284531761294" fill="#1C58CE" r="2.5"/>
<circle cx="407.00300706367256" cy="-125.21312495534144" fill="#1C58CE" r="2.5"/>
<circle cx="293.7899930740442" cy="-253.62489731822248" fill="#1C58CE" r="2.5"/>
<circle cx="267.26018858303524" cy="-16.055341857105446" fill="#1C58CE" r="2.5"/>
<circle cx="36.871377322780475" cy="-270.955175759107" fill="#1C58CE" r="2.5"/>
<circle cx="81.92922367405708" cy="-131.44770096943773" fill="#1C58CE" r="2.5"/>
<circle cx="154.20507056125552" cy="-256.1142484895943" fill="#1C58CE" r="2.5"/>
<circle cx="430.43659657666035" cy="-47.272542967487595" fill="#1C58CE" r="2.5"/>
<circle cx="311.7476139739043" cy="-3.6443631028255807" fill="#1C58CE" r="2.5"/>
<circle cx="101.2261750672154" cy="-2.8867341269194844" fill="#1C58CE" r="2.5"/>
<circle cx="247.232730087363" cy="-187.50065084559245" fill="#1C58CE" r="2.5"/>
<circle cx="41.443664940241206" cy="-275.31745412363864" fill="#1C58CE" r="2.5"/>
<circle cx="260.36278910662764" cy="-66.0691514144591" fill="#1C58CE" r="2.5"/>
<circle cx="311.13800823218475" cy="-57.87142705692818" fill="#1C58CE" r="2.5"/>
<circle cx="222.68352377070022" cy="-97.5383125039849" fill="#1C58CE" r="2.5"/>
<circle cx="134.47947690615302" cy="-63.79210664892482" fill="#1C58CE" r="2.5"/>
<circle cx="259.48443315031227" cy="-164.0107605589117" fill="#1C58CE" r="2.5"/>
<circle cx="335.09807282231446" cy="-181.27395535327125" fill="#1C58CE" r="2.5"/>
<circle cx="212.1501063610523" cy="-72.93351112647251" fill="#1C58CE" r="2.5"/>
<circle cx="364.58695969669793" cy="-57.932756235925616" fill="#1C58CE" r="2.5"/>
<circle cx="494.84850760798315" cy="-94.40258332596365" fill="#1C58CE" r="2.5"/>
<circle cx="393.9007971651459" cy="-146.85314174441692" fill="#1C58CE" r="2.5"/>
<circle cx="168.38380492122042" cy="-8.765444016133506" fill="#1C58CE" r="2.5"/>
<circle cx="279.1238743535908" cy="-70.05928618115801" fill="#1C58CE" r="2.5"/>
<circle cx="320.38057079865104" cy="-131.33734417684974" fill="#1C58CE" r="2.5"/>
<circle cx="29.761290843655104" cy="-175.4983336409325" fill="#1C58CE" r="2.5"/>
<circle cx="215.56221387986807" cy="-156.0986890203663" fill="#1C58CE" r="2.5"/>
<circle cx="98.82195172390696" cy="-184.9008684158795" fill="#1C58CE" r="2.5"/>
<circle cx="94.48504628356046" cy="-57.95825654540548" fill="#1C58CE" r="2.5"/>
<circle cx="262.13316312865214" cy="-114.82036881543466" fill="#1C58CE" r="2.5"/>
<circle cx="376.2398641311975" cy="-141.06887006058327" fill="#1C58CE" r="2.5"/>
<circle cx="135.0274318163544" cy="-169.0872663217585" fill="#1C58CE" r="2.5"/>
<circle cx="296.8307202350313" cy="-50.962415261839205" fill="#1C58CE" r="2.5"/>
<circle cx="102.28843111609004" cy="-290.55683086697627" fill="#1C58CE" r="2.5"/>
<circle cx="20.430139241095095" cy="-11.075220280121743" fill="#1C58CE" r="2.5"/>
<circle cx="346.51597468561016" cy="-149.9440424886776" fill="#1C58CE" r="2.5"/>
<circle cx="79.55763489060044" cy="-310.0103431597126" fill="#1C58CE" r="2.5"/>
<circle cx="243.77790713886642" cy="-186.21340421751944" fill="#1C58CE" r="2.5"/>
<circle cx="309.9912284990373" cy="-4.7029018245452425" fill="#1C58CE" r="2.5"/>
<circle cx="62.97379978956887" cy="-181.1081331526172" fill="#1C58CE" r="2.5"/>
<circle cx="220.51622041800292" cy="-86.09974648475438" fill="#1C58CE" r="2.5"/>
<circle cx="203.67429501015053" cy="-47.0727406982819" fill="#1C58CE" r="2.5"/>
<circle cx="451.91161457439233" cy="-15.529767924236145" fill="#1C58CE" r="2.5"/>
<circle cx="74.13730411060743" cy="-230.60541840899631" fill="#1C58CE" r="2.5"/>
<circle cx="323.3174084068351" cy="-24.811708691778122" fill="#1C58CE" r="2.5"/>
<circle cx="48.45836131417088" cy="-201.3882263226449" fill="#1C58CE" r="2.5"/>
<circle cx="481.6863503727307" cy="-52.57497658392593" fill="#1C58CE" r="2.5"/>
<circle cx="339.1200341801447" cy="-26.375784591269948" fill="#1C58CE" r="2.5"/>
<circle cx="32.38141165600028" cy="-257.15524981830174" fill="#1C58CE" r="2.5"/>
<circle cx="352.0046619683507" cy="-185.9199406393668" fill="#1C58CE" r="2.5"/>
<circle cx="186.06136896319714" cy="-168.54818127918438" fill="#1C58CE" r="2.5"/>
<circle cx="19.674948803963254" cy="-87.36990352111133" fill="#1C58CE" r="2.5"/>
<circle cx="187.83656849118495" cy="-160.92462381311103" fill="#1C58CE" r="2.5"/>
<circle cx="233.19237433199254" cy="-251.24302117190499" fill="#1C58CE" r="2.5"/>
<circle cx="450.6271102600908" cy="-159.55271823446367" fill="#1C58CE" r="2.5"/>
<circle cx="64.44311766642177" cy="-4.3029563886410696" fill="#1C58CE" r="2.5"/>
<circle cx="149.7317790517366" cy="-143.19276881487775" fill="#1C58CE" r="2.5"/>
<circle cx="402.6970939068463" cy="-63.9233796809683" fill="#1C58CE" r="2.5"/>
<circle cx="361.259236478851" cy="-50.371053492507315" fill="#1C58CE" r="2.5"/>
<circle cx="391.3046131305177" cy="-181.00141301551295" fill="#1C58CE" r="2.5"/>
<circle cx="242.23867378014634" cy="-107.76758885984161" fill="#1C58CE" r="2.5"/>
<circle cx="443.6235582981606" cy="-35.90780149961459" fill="#1C58CE" r="2.5"/>
<circle cx="215.0533348184185" cy="-249.74164112509106" fill="#1C58CE" r="2.5"/>
<circle cx="375.0844959746635" cy="-104.32862713358527" fill="#1C58CE" r="2.5"/>
<circle cx="414.83332329191177" cy="-133.91122298640653" fill="#1C58CE" r="2.5"/>
<circle cx="127.22007980546705" cy="-200.2418540531403" fill="#1C58CE" r="2.5"/>
<circle cx="338.14344569350163" cy="-36.808422512780055" fill="#1C58CE" r="2.5"/>
<circle cx="181.28834627428617" cy="-18.287448880100932" fill="#1C58CE" r="2.5"/>
<circle cx="6.7980585505388165" cy="-239.33293783296" fill="#1C58CE" r="2.5"/>
<circle cx="114.20950457211829" cy="-3.8248196967127" fill="#1C58CE" r="2.5"/>
<circle cx="125.16410919244801" cy="-25.455059255322322" fill="#1C58CE" r="2.5"/>
<circle cx="252.09050061854856" cy="-161.94046033036219" fill="#1C58CE" r="2.5"/>
<circle cx="453.39483009400345" cy="-77.58419392643931" fill="#1C58CE" r="2.5"/>
<circle cx="30.44900438728293" cy="-276.1414388907444" fill="#1C58CE" r="2.5"/>
<circle cx="401.8408187909878" cy="-8.559914923622" fill="#1C58CE" r="2.5"/>
<circle cx="234.54361728575776" cy="-42.18818256706839" fill="#1C58CE" r="2.5"/>
<circle cx="345.94560465315664" cy="-39.986764466674195" fill="#1C58CE" r="2.5"/>
<circle cx="397.5946839329957" cy="-0.8336723922362135" fill="#1C58CE" r="2.5"/>
<circle cx="149.83813075067044" cy="-241.14844483074552" fill="#1C58CE" r="2.5"/>
<circle cx="64.3046136066642" cy="-317.91671480825516" fill="#1C58CE" r="2.5"/>
<circle cx="237.30235865902085" cy="-28.280128047318733" fill="#1C58CE" r="2.5"/>
<circle cx="20.317266800683264" cy="-16.696902719152114" fill="#1C58CE" r="2.5"/>
<circle cx="167.13177010251925" cy="-112.89922474861675" fill="#1C58CE" r="2.5"/>
<circle cx="204.76502473202123" cy="-224.2190406938855" fill="#1C58CE" r="2.5"/>
<circle cx="495.07511608248" cy="-41.62965697527985" fill="#1C58CE" r="2.5"/>
<circle cx="359.68695456794376" cy="-117.49546477827914" fill="#1C58CE" r="2.5"/>
<circle cx="63.82250971739168" cy="-223.07490012179957" fill="#1C58CE" r="2.5"/>
<circle cx="118.29755825371798" cy="-271.6316168339679" fill="#1C58CE" r="2.5"/>
<circle cx="222.68094307892008" cy="-101.44041820331229" fill="#1C58CE" r="2.5"/>
<circle cx="126.53525804739593" cy="-101.27950412566851" fill="#1C58CE" r="2.5"/>
<circle cx="147.08462072596572" cy="-223.62928658330537" fill="#1C58CE" r="2.5"/>
<circle cx="151.7869850043722" cy="-10.687584880084284" fill="#1C58CE" r="2.5"/>
<circle cx="50.71146824721115" cy="-149.07206921105367" fill="#1C58CE" r="2.5"/>
<circle cx="273.54956515898704" cy="-205.97001852886686" fill="#1C58CE" r="2.5"/>
<circle cx="87.5252257177531" cy="-123.2964700541304" fill="#1C58CE" r="2.5"/>
<circle cx="436.7082606054213" cy="-29.05556142158004" fill="#1C58CE" r="2.5"/>
<circle cx="124.29923782816216" cy="-241.50911395299718" fill="#1C58CE" r="2.5"/>
<circle cx="222.96588957249944" cy="-97.02914520261044" fill="#1C58CE" r="2.5"/>
<circle cx="425.43594910979147" cy="-84.80413177594664" fill="#1C58CE" r="2.5"/>
<circle cx="481.40768718370833" cy="-72.63602137211778" fill="#1C58CE" r="2.5"/>
<circle cx="66.22743255339532" cy="-150.95288404330157" fill="#1C58CE" r="2.5"/>
<circle cx="382.8995653763867" cy="-143.77892770893678" fill="#1C58CE" r="2.5"/>
<circle cx="38.30187080786565" cy="-15.070619707885768" fill="#1C58CE" r="2.5"/>
<circle cx="363.4366718632843" cy="-161.03302815594824" fill="#1C58CE" r="2.5"/>
<circle cx="350.51543507079515" cy="-162.44091212466645" fill="#1C58CE" r="2.5"/>
<circle cx="71.31813003907413" cy="-219.27159853956547" fill="#1C58CE" r="2.5"/>
<circle cx="57.228176020977074" cy="-191.6474978764413" fill="#1C58CE" r="2.5"/>
<circle cx="171.51860628122557" cy="-180.74066211377848" fill="#1C58CE" r="2.5"/>
<circle cx="173.41318908387953" cy="-103.07396214542415" fill="#1C58CE" r="2.5"/>
<circle cx="279.64955243658" cy="-170.616790012454" fill="#1C58CE" r="2.5"/>
<circle cx="100.08935859318754" cy="-15.95490784323744" fill="#1C58CE" r="2.5"/>
<circle cx="461.232665153909" cy="-109.18295431649196" fill="#1C58CE" r="2.5"/>
<circle cx="265.48487926141644" cy="-214.09186924941247" fill="#1C58CE" r="2.5"/>
<circle cx="100.8856526952081" cy="-172.6469948113903" fill="#1C58CE" r="2.5"/>
<circle cx="45.349068155397454" cy="-46.780159847890765" fill="#1C58CE" r="2.5"/>
<circle cx="341.97423307130634" cy="-118.23095381778637" fill="#1C58CE" r="2.5"/>
<circle cx="471.2685340862174" cy="-43.483107941338716" fill="#1C58CE" r="2.5"/>
<circle cx="75.28158618411217" cy="-146.57374368349872" fill="#1C58CE" r="2.5"/>
<circle cx="475.0304650965133" cy="-115.7578371368705" fill="#1C58CE" r="2.5"/>
</g>
<g>
<path d="M0,-318.10007 L0,-318.10007 L2.6,-320.0382 L5.2,-321.9541 L7.8,-323.83447 L10.4,-325.6662 L13,-327.43655 L15.6,-329.1331 L18.2,-330.74384 L20.8,-332.25735 L23.4,-333.66275 L26,-334.9497 L28.6,-336.1087 L31.2,-337.1309 L33.8,-338.00818 L36.4,-338.7334 L39,-339.30017 L41.6,-339.70306 L44.2,-339.93753 L46.8,-340 L49.4,-339.8879 L52,-339.5996 L54.6,-339.13452 L57.2,-338.49295 L59.8,-337.6763 L62.4,-336.68686 L65,-335.52792 L67.6,-334.20374 L70.2,-332.71933 L72.8,-331.08078 L75.4,-329.29492 L78,-327.36935 L80.6,-325.3125 L83.2,-323.13342 L85.8,-320.84186 L88.4,-318.44815 L91,-315.9631 L93.6,-313.3981 L96.2,-310.7648 L98.8,-308.0753 L101.4,-305.34183 L104,-302.57693 L106.6,-299.79318 L109.2,-297.0033 L111.8,-294.21982 L114.4,-291.45532 L117,-288.7221 L119.6,-286.03235 L122.2,-283.39777 L124.8,-280.82983 L127.4,-278.3395 L130,-275.93726 L132.6,-273.63297 L135.2,-271.43597 L137.8,-269.35486 L140.4,-267.39752 L143,-265.57117 L145.6,-263.88208 L148.2,-262.33582 L150.8,-260.93704 L153.4,-259.6895 L156,-258.59613 L158.6,-257.6588 L161.2,-256.87863 L163.8,-256.25565 L166.4,-255.78911 L169,-255.47722 L171.6,-255.31738 L174.2,-255.30608 L176.8,-255.4389 L179.4,-255.71066 L182,-256.11533 L184.6,-256.64615 L187.2,-257.2956 L189.8,-258.0555 L192.4,-258.91708 L195,-259.87094 L197.6,-260.90723 L200.2,-262.01556 L202.8,-263.18524 L205.4,-264.40512 L208,-265.66394 L210.6,-266.95007 L213.2,-268.2519 L215.8,-269.55762 L218.4,-270.8555 L221,-272.13385 L223.6,-273.38116 L226.2,-274.58606 L228.8,-275.73746 L231.4,-276.8246 L234,-277.83713 L236.6,-278.76508 L239.2,-279.5991 L241.8,-280.33026 L244.4,-280.95032 L247,-281.45163 L249.6,-281.82727 L252.2,-282.07098 L254.8,-282.17737 L257.4,-282.1417 L260,-281.96005 L262.6,-281.62946 L265.2,-281.1476 L267.8,-280.51315 L270.4,-279.72556 L273,-278.7851 L275.6,-277.69296 L278.2,-276.45105 L280.8,-275.06213 L283.4,-273.5298 L286,-271.85834 L288.6,-270.05276 L291.2,-268.1188 L293.8,-266.06287 L296.4,-263.8919 L299,-261.6135 L301.6,-259.23572 L304.2,-256.76703 L306.8,-254.21643 L309.4,-251.59317 L312,-248.90683 L314.6,-246.1672 L317.2,-243.38426 L319.8,-240.56808 L322.4,-237.72878 L325,-234.87643 L327.6,-232.02106 L330.2,-229.17252 L332.8,-226.34045 L335.4,-223.53426 L338,-220.763 L340.6,-218.03532 L343.2,-215.3595 L345.8,-212.74327 L348.4,-210.19386 L351,-207.71793 L353.6,-205.32147 L356.2,-203.0099 L358.8,-200.78786 L361.4,-198.65935 L364,-196.62758 L366.6,-194.695 L369.2,-192.86333 L371.8,-191.13344 L374.4,-189.50546 L377,-187.9787 L379.6,-186.55167 L382.2,-185.2221 L384.8,-183.98697 L387.4,-182.8425 L390,-181.78413 L392.6,-180.80667 L395.2,-179.90419 L397.8,-179.07013 L400.4,-178.29732 L403,-177.57802 L405.6,-176.90398 L408.2,-176.26642 L410.8,-175.65616 L413.4,-175.06363 L416,-174.4789 L418.6,-173.89177 L421.2,-173.29181 L423.8,-172.66838 L426.4,-172.01076 L429,-171.30807 L431.6,-170.54951 L434.2,-169.7242 L436.8,-168.82138 L439.4,-167.83037 L442,-166.74066 L444.6,-165.54192 L447.2,-164.22403 L449.8,-162.77713 L452.4,-161.19162 L455,-159.45816 L457.6,-157.56773 L460.2,-155.51157 L462.8,-153.28117 L465.4,-150.86836 L468,-148.26512 L470.6,-145.46361 L473.2,-142.45612 L475.8,-139.23494 L478.4,-135.79234 L481,-132.12036 L483.6,-128.21068 L486.2,-124.05444 L488.8,-119.642 L491.4,-114.96262 L494,-110.004166 L496.6,-104.75256 L499.2,-99.191315 L501.8,-93.30072 L504.4,-87.05699 L507,-80.43103 L509.6,-73.386826 L512.2,-65.8793 L514.8,-57.851345 L517.4,-49.229603 L520,-39.918365" fill="none" stroke="#373AC6" stroke-width="1.5"/>
</g>
<g>
<g>
<line stroke="black" stroke-width="1" x1="0" x2="0" y1="0" y2="10"/>
<line stroke="black" stroke-width="1" x1="173.33333333333334" x2="173.33333333333334" y1="0" y2="10"/>
<line stroke="black" stroke-width="1" x1="346.6666666666667" x2="346.6666666666667" y1="0" y2="10"/>
<line stroke="black" stroke-width="1" x1="520" x2="520" y1="0" y2="10"/>
</g>
<line stroke="black" stroke-width="1" x1="0" x2="520" y1="0" y2="0"/>
<g>
<text font-size="12" text-anchor="middle" x="0" y="20">
0
</text>
<text font-size="12" text-anchor="middle" x="173.33333333333334" y="20">
10
</text>
<text font-size="12" text-anchor="middle" x="346.6666666666667" y="20">
20
</text>
<text font-size="12" text-anchor="middle" x="520" y="20">
30
</text>
</g>
<text font-size="12" text-anchor="middle" x="260" y="30">
Time t
</text>
</g>
<g>
<g>
<line stroke="black" stroke-width="1" x1="0" x2="-10" y1="-93.14655300597933" y2="-93.14655300597933"/>
<line stroke="black" stroke-width="1" x1="0" x2="-10" y1="-186.83044291774326" y2="-186.83044291774326"/>
<line stroke="black" stroke-width="1" x1="0" x2="-10" y1="-280.51433282950717" y2="-280.51433282950717"/>
</g>
<line stroke="black" stroke-0="1" x1="0" x2="0" y1="0" y2="-340"/>
<g>
<text dominant-baseline="middle" font-size="12" text-anchor="end" x="-15" y="-93.14655300597933">
4
</text>
<text dominant-baseline="middle" font-size="12" text-anchor="end" x="-15" y="-186.83044291774326">
8
</text>
<text dominant-baseline="middle" font-size="12" text-anchor="end" x="-15" y="-280.51433282950717">
12
</text>
</g>
<text font-size="12" text-anchor="middle" transform="rotate(-90 -30 -170)" x="-30" y="-170">
Intensity λ(t)
</text>
</g>
</g>
</svg>