<svg viewBox="0 0 600 400" xmlns="http://www.w3.org/2000/svg">
<g transform="translate(48, 364)">
<g>
<circle cx="28.582252736165742" cy="-5.430950827401543" fill="#1C58CE" r="2.5"/>
<circle cx="385.51161499800196" cy="-161.2146341518876" fill="#1C58CE" r="2.5"/>
<circle cx="232.4414827789598" cy="-2.740486399466623" fill="#1C58CE" r="2.5"/>
<circle cx="410.40068245261443" cy="-54.50338124773796" fill="#1C58CE" r="2.5"/>
<circle cx="161.3994922358416" cy="-232.91668060144818" fill="#1C58CE" r="2.5"/>
<circle cx="90.28272756507293" cy="-39.544210587045846" fill="#1C58CE" r="2.5"/>
<circle cx="330.96335492215684" cy="-185.92843576691712" fill="#1C58CE" r="2.5"/>
<circle cx="352.7325583118903" cy="-114.51080590111002" fill="#1C58CE" r="2.5"/>
<circle cx="163.2920406186144" cy="-214.3200456697785" fill="#1C58CE" r="2.5"/>
<circle cx="36.094191481308336" cy="-85.37177861639347" fill="#1C58CE" r="2.5"/>
<circle cx="475.9739873045377" cy="-132.25833715807866" fill="#1C58CE" r="2.5"/>
<circle cx="131.6913592696445" cy="-228.93505536650477" fill="#1C58CE" r="2.5"/>
<circle cx="485.97531938622006" cy="-31.45349778940515" fill="#1C58CE" r="2.5"/>
<circle cx="300.41495067771785" cy="-102.5875153485889" fill="#1C58CE" r="2.5"/>
<circle cx="106.83352951410494" cy="-138.9974125325425" fill="#1C58CE" r="2.5"/>
<circle cx="179.07863678121757" cy="-55.46213813384945" fill="#1C58CE" r="2.5"/>
<circle cx="317.3571154913487" cy="-210.14001109423708" fill="#1C58CE" r="2.5"/>
<circle cx="211.70561787509885" cy="-171.37502483479156" fill="#1C58CE" r="2.5"/>
<circle cx="264.8646731651216" cy="-221.96830955602127" fill="#1C58CE" r="2.5"/>
<circle cx="142.41146463454282" cy="-224.95755963578344" fill="#1C58CE" r="2.5"/>
<circle cx="104.16890996476222" cy="-92.44049791287813" fill="#1C58CE" r="2.5"/>
<circle cx="408.2134998689697" cy="-50.252170546329225" fill="#1C58CE" r="2.5"/>
<circle cx="333.12345647091126" cy="-102.92161500806472" fill="#1C58CE" r="2.5"/>
<circle cx="203.08067957075278" cy="-43.25034611327343" fill="#1C58CE" r="2.5"/>
<circle cx="90.24821067087397" cy="-153.50502215400627" fill="#1C58CE" r="2.5"/>
<circle cx="102.72288032651667" cy="-90.78505651563789" fill="#1C58CE" r="2.5"/>
<circle cx="234.64007000288944" cy="-97.51919454963996" fill="#1C58CE" r="2.5"/>
<circle cx="69.15926034955382" cy="-130.51852551402672" fill="#1C58CE" r="2.5"/>
<circle cx="281.0265447232589" cy="-119.54328818688799" fill="#1C58CE" r="2.5"/>
<circle cx="77.47100511570812" cy="-124.462610571989" fill="#1C58CE" r="2.5"/>
<circle cx="72.16090665608417" cy="-150.53543426022478" fill="#1C58CE" r="2.5"/>
<circle cx="288.52327901132776" cy="-64.00652068914764" fill="#1C58CE" r="2.5"/>
<circle cx="58.406365911337346" cy="-17.056828507184868" fill="#1C58CE" r="2.5"/>
<circle cx="434.5696100206264" cy="-163.49204816375428" fill="#1C58CE" r="2.5"/>
<circle cx="88.13667876038338" cy="-106.0391147780665" fill="#1C58CE" r="2.5"/>
<circle cx="332.341981066768" cy="-133.15615289361898" fill="#1C58CE" r="2.5"/>
<circle cx="230.1265325710315" cy="-18.228157052583928" fill="#1C58CE" r="2.5"/>
<circle cx="103.28965049020363" cy="-302.9034151957632" fill="#1C58CE" r="2.5"/>
<circle cx="369.6042568803832" cy="-149.28674976449295" fill="#1C58CE" r="2.5"/>
<circle cx="233.86097085433005" cy="-235.13691736203037" fill="#1C58CE" r="2.5"/>
<circle cx="429.7358637681656" cy="-53.66535845596451" fill="#1C58CE" r="2.5"/>
<circle cx="130.47914917443157" cy="-16.40315807368606" fill="#1C58CE" r="2.5"/>
<circle cx="124.61523792024958" cy="-49.781656334593656" fill="#1C58CE" r="2.5"/>
<circle cx="448.82567529526375" cy="-44.797903079811334" fill="#1C58CE" r="2.5"/>
<circle cx="413.3954473356007" cy="-149.29233986598786" fill="#1C58CE" r="2.5"/>
<circle cx="9.210404112712444" cy="-134.53378088617703" fill="#1C58CE" r="2.5"/>
<circle cx="54.51863646212981" cy="-267.4864984486407" fill="#1C58CE" r="2.5"/>
<circle cx="465.28893534150944" cy="-53.115972039023156" fill="#1C58CE" r="2.5"/>
<circle cx="59.260855571753524" cy="-108.46644985133432" fill="#1C58CE" r="2.5"/>
<circle cx="55.10219711004581" cy="-10.5326892640356" fill="#1C58CE" r="2.5"/>
<circle cx="483.148153310938" cy="-98.35105380333728" fill="#1C58CE" r="2.5"/>
<circle cx="41.59407696596674" cy="-200.19333991127385" fill="#1C58CE" r="2.5"/>
<circle cx="325.0429440009213" cy="-197.48978977581154" fill="#1C58CE" r="2.5"/>
<circle cx="110.08084072870074" cy="-246.91374821218835" fill="#1C58CE" r="2.5"/>
<circle cx="126.59011259231315" cy="-58.75799806679774" fill="#1C58CE" r="2.5"/>
<circle cx="33.70952076228132" cy="-65.92045844751578" fill="#1C58CE" r="2.5"/>
<circle cx="74.79294896410836" cy="-27.982833056431584" fill="#1C58CE" r="2.5"/>
<circle cx="21.117383858842974" cy="-290.8384157508659" fill="#1C58CE" r="2.5"/>
<circle cx="359.86540689114923" cy="-162.97393234998893" fill="#1C58CE" r="2.5"/>
<circle cx="345.66941488341996" cy="-194.11270239225283" fill="#1C58CE" r="2.5"/>
<circle cx="59.45128504865247" cy="-308.84604597215485" fill="#1C58CE" r="2.5"/>
<circle cx="102.60298189755933" cy="-76.52352556411718" fill="#1C58CE" r="2.5"/>
<circle cx="29.17227456942019" cy="-231.78618479249016" fill="#1C58CE" r="2.5"/>
<circle cx="237.00059704758584" cy="-6.235079147920089" fill="#1C58CE" r="2.5"/>
<circle cx="397.0618588594822" cy="-47.974899875549816" fill="#1C58CE" r="2.5"/>
<circle cx="325.3011771363996" cy="-188.43314722283813" fill="#1C58CE" r="2.5"/>
<circle cx="184.6094302617013" cy="-254.60043407888608" fill="#1C58CE" r="2.5"/>
<circle cx="108.37709988701354" cy="-59.21667113159321" fill="#1C58CE" r="2.5"/>
<circle cx="262.28123667960494" cy="-249.8498277881617" fill="#1C58CE" r="2.5"/>
<circle cx="208.89511244947093" cy="-21.524192738656566" fill="#1C58CE" r="2.5"/>
<circle cx="380.05132930559176" cy="-119.58232533911377" fill="#1C58CE" r="2.5"/>
<circle cx="171.0560088716313" cy="-59.47368522005783" fill="#1C58CE" r="2.5"/>
<circle cx="455.5039228799286" cy="-155.07910796627587" fill="#1C58CE" r="2.5"/>
<circle cx="333.26939589734747" cy="-146.99785639719232" fill="#1C58CE" r="2.5"/>
<circle cx="240.14319884257947" cy="-19.246404792914724" fill="#1C58CE" r="2.5"/>
<circle cx="57.09886673736188" cy="-178.7999000795197" fill="#1C58CE" r="2.5"/>
<circle cx="284.4976609442112" cy="-195.28953280417176" fill="#1C58CE" r="2.5"/>
<circle cx="132.88695738816713" cy="-173.98115505551277" fill="#1C58CE" r="2.5"/>
<circle cx="107.72788518129325" cy="-44.567973516832645" fill="#1C58CE" r="2.5"/>
<circle cx="282.8148597928212" cy="-72.21076006715926" fill="#1C58CE" r="2.5"/>
<circle cx="264.86903890470813" cy="-41.84093933365663" fill="#1C58CE" r="2.5"/>
<circle cx="55.66860547572147" cy="-326.6758622369682" fill="#1C58CE" r="2.5"/>
<circle cx="180.09081305515545" cy="-91.61828807615682" fill="#1C58CE" r="2.5"/>
<circle cx="129.75791744843727" cy="-72.88581585453552" fill="#1C58CE" r="2.5"/>
<circle cx="284.65267591867564" cy="-177.52798979243204" fill="#1C58CE" r="2.5"/>
<circle cx="246.90873370826048" cy="-101.64784041030909" fill="#1C58CE" r="2.5"/>
<circle cx="91.46937167781235" cy="-259.83570409571155" fill="#1C58CE" r="2.5"/>
<circle cx="430.2405653016085" cy="-146.8740791308131" fill="#1C58CE" r="2.5"/>
<circle cx="274.0265469635612" cy="-39.58345817583277" fill="#1C58CE" r="2.5"/>
<circle cx="399.8471341157253" cy="-108.86389262967622" fill="#1C58CE" r="2.5"/>
<circle cx="461.1664335745141" cy="-6.107294554192738" fill="#1C58CE" r="2.5"/>
<circle cx="95.9757610282679" cy="-74.23766026512175" fill="#1C58CE" r="2.5"/>
<circle cx="245.21599020757623" cy="-58.98056668932677" fill="#1C58CE" r="2.5"/>
<circle cx="22.818183007865006" cy="-103.361806285222" fill="#1C58CE" r="2.5"/>
<circle cx="385.111378021985" cy="-108.2632629012224" fill="#1C58CE" r="2.5"/>
<circle cx="461.29420791744565" cy="-106.82126182475712" fill="#1C58CE" r="2.5"/>
<circle cx="152.078611573992" cy="-46.27502188409006" fill="#1C58CE" r="2.5"/>
<circle cx="271.89993214990557" cy="-213.62673294566557" fill="#1C58CE" r="2.5"/>
<circle cx="15.75646428667358" cy="-80.79570472762774" fill="#1C58CE" r="2.5"/>
<circle cx="39.51649044979092" cy="-297.4424565931582" fill="#1C58CE" r="2.5"/>
<circle cx="413.77379323334975" cy="-96.74001060993339" fill="#1C58CE" r="2.5"/>
<circle cx="485.48307229098305" cy="-27.971141584465325" fill="#1C58CE" r="2.5"/>
<circle cx="243.5708042996761" cy="-96.50407380683937" fill="#1C58CE" r="2.5"/>
<circle cx="303.43573728006794" cy="-54.218255379176966" fill="#1C58CE" r="2.5"/>
<circle cx="63.14279398079643" cy="-224.59328464327555" fill="#1C58CE" r="2.5"/>
<circle cx="262.13372849098715" cy="-253.448302254834" fill="#1C58CE" r="2.5"/>
<circle cx="262.89815651091806" cy="-219.12550742481457" fill="#1C58CE" r="2.5"/>
<circle cx="325.9972881126549" cy="-48.32730194729165" fill="#1C58CE" r="2.5"/>
<circle cx="42.88717749031096" cy="-175.61094869543882" fill="#1C58CE" r="2.5"/>
<circle cx="7.626697296803414" cy="-41.61168298914343" fill="#1C58CE" r="2.5"/>
<circle cx="420.0886866169964" cy="-166.19902674664948" fill="#1C58CE" r="2.5"/>
<circle cx="100.4167660933038" cy="-189.79622071321322" fill="#1C58CE" r="2.5"/>
<circle cx="207.5412206838906" cy="-66.23323346178026" fill="#1C58CE" r="2.5"/>
<circle cx="159.80407957761793" cy="-86.79789530973328" fill="#1C58CE" r="2.5"/>
<circle cx="145.76247927761202" cy="-19.281223959460693" fill="#1C58CE" r="2.5"/>
<circle cx="175.84099629166286" cy="-83.54194983537076" fill="#1C58CE" r="2.5"/>
<circle cx="75.2703892981093" cy="-270.4670702261357" fill="#1C58CE" r="2.5"/>
<circle cx="39.2221435124915" cy="-299.2244767578798" fill="#1C58CE" r="2.5"/>
<circle cx="347.6200670512049" cy="-179.24769276007146" fill="#1C58CE" r="2.5"/>
<circle cx="62.339306234111824" cy="-167.3003693887087" fill="#1C58CE" r="2.5"/>
<circle cx="155.6890702637895" cy="-135.3807910002845" fill="#1C58CE" r="2.5"/>
<circle cx="190.3463544849602" cy="-120.20867335500515" fill="#1C58CE" r="2.5"/>
<circle cx="34.70344776532829" cy="-147.62750363227252" fill="#1C58CE" r="2.5"/>
<circle cx="314.0241876733349" cy="-122.10409173363874" fill="#1C58CE" r="2.5"/>
<circle cx="148.00433261599326" cy="-105.60991082591367" fill="#1C58CE" r="2.5"/>
<circle cx="105.5373679914806" cy="-292.7161496639523" fill="#1C58CE" r="2.5"/>
<circle cx="89.15358254348999" cy="-6.035059519569996" fill="#1C58CE" r="2.5"/>
<circle cx="74.46340700002139" cy="-188.5764066131547" fill="#1C58CE" r="2.5"/>
<circle cx="161.911775352956" cy="-84.57902352544788" fill="#1C58CE" r="2.5"/>
<circle cx="276.61150899961507" cy="-118.53018254649315" fill="#1C58CE" r="2.5"/>
<circle cx="250.17191241736975" cy="-75.34657448914953" fill="#1C58CE" r="2.5"/>
<circle cx="40.59582081496569" cy="-131.6435071219764" fill="#1C58CE" r="2.5"/>
<circle cx="179.02223982014172" cy="-167.52202048586864" fill="#1C58CE" r="2.5"/>
<circle cx="48.141912391178295" cy="-176.7827307341697" fill="#1C58CE" r="2.5"/>
<circle cx="77.18352547889677" cy="-267.0047475656551" fill="#1C58CE" r="2.5"/>
<circle cx="175.2325015867289" cy="-72.0102096860765" fill="#1C58CE" r="2.5"/>
<circle cx="452.51696813071163" cy="-56.66717036273436" fill="#1C58CE" r="2.5"/>
<circle cx="31.846176202290607" cy="-298.8044140431122" fill="#1C58CE" r="2.5"/>
<circle cx="38.55769036643464" cy="-196.42434784681726" fill="#1C58CE" r="2.5"/>
<circle cx="95.7798063546431" cy="-242.81983234499188" fill="#1C58CE" r="2.5"/>
<circle cx="3.544402708195321" cy="-160.73462719882139" fill="#1C58CE" r="2.5"/>
<circle cx="415.5823648650461" cy="-114.0528405219448" fill="#1C58CE" r="2.5"/>
<circle cx="104.85881861591024" cy="-65.76866027015582" fill="#1C58CE" r="2.5"/>
<circle cx="75.69183583758253" cy="-238.86663083668586" fill="#1C58CE" r="2.5"/>
<circle cx="73.91598718349017" cy="-247.6497809992306" fill="#1C58CE" r="2.5"/>
<circle cx="477.6588732962957" cy="-82.10865482822867" fill="#1C58CE" r="2.5"/>
<circle cx="24.464897929766018" cy="-27.20588809385029" fill="#1C58CE" r="2.5"/>
<circle cx="318.5745152798126" cy="0" fill="#1C58CE" r="2.5"/>
<circle cx="71.38245513652173" cy="-142.94154728200283" fill="#1C58CE" r="2.5"/>
<circle cx="90.41134559946794" cy="-95.91962900298715" fill="#1C58CE" r="2.5"/>
<circle cx="401.1629915425449" cy="-82.37112119391641" fill="#1C58CE" r="2.5"/>
<circle cx="22.9740407495231" cy="-325.1067854676502" fill="#1C58CE" r="2.5"/>
<circle cx="77.53095748888394" cy="-143.02774610272158" fill="#1C58CE" r="2.5"/>
<circle cx="420.9592675184162" cy="-73.33366423547886" fill="#1C58CE" r="2.5"/>
<circle cx="42.43440011026116" cy="-206.86598304764152" fill="#1C58CE" r="2.5"/>
<circle cx="425.19114587034534" cy="-99.66210562194979" fill="#1C58CE" r="2.5"/>
<circle cx="8.321917586040433" cy="-161.22476048816768" fill="#1C58CE" r="2.5"/>
<circle cx="292.6986102202644" cy="-37.28499088268084" fill="#1C58CE" r="2.5"/>
<circle cx="286.2500165341035" cy="-106.87961986566758" fill="#1C58CE" r="2.5"/>
<circle cx="12.439003915205243" cy="-3.412751060371877" fill="#1C58CE" r="2.5"/>
<circle cx="309.12196026770897" cy="-141.22346843614164" fill="#1C58CE" r="2.5"/>
<circle cx="132.0811226767541" cy="-116.3340540606782" fill="#1C58CE" r="2.5"/>
<circle cx="292.84076889091506" cy="-129.98189299947964" fill="#1C58CE" r="2.5"/>
<circle cx="33.103737515407715" cy="-50.21495131897267" fill="#1C58CE" r="2.5"/>
<circle cx="107.03597865207487" cy="-258.9767284300629" fill="#1C58CE" r="2.5"/>
<circle cx="143.67421352447047" cy="-202.64737226572888" fill="#1C58CE" r="2.5"/>
<circle cx="285.92607110577114" cy="-209.77683043123446" fill="#1C58CE" r="2.5"/>
<circle cx="53.600144144957426" cy="-176.8926482815795" fill="#1C58CE" r="2.5"/>
<circle cx="59.958650263565836" cy="-2.309060213279527" fill="#1C58CE" r="2.5"/>
<circle cx="128.23923328787293" cy="-228.87586802785134" fill="#1C58CE" r="2.5"/>
<circle cx="351.14835704623096" cy="-104.06088779813702" fill="#1C58CE" r="2.5"/>
<circle cx="245.35330344870928" cy="-64.37137412268828" fill="#1C58CE" r="2.5"/>
<circle cx="320.92990586887476" cy="-184.33977398458435" fill="#1C58CE" r="2.5"/>
<circle cx="335.11361895468343" cy="-85.1567494227996" fill="#1C58CE" r="2.5"/>
<circle cx="469.866941662584" cy="-11.547322458850221" fill="#1C58CE" r="2.5"/>
<circle cx="340.5085927384129" cy="-59.403866414664385" fill="#1C58CE" r="2.5"/>
<circle cx="397.6316413444132" cy="-50.80528113214572" fill="#1C58CE" r="2.5"/>
<circle cx="23.968028774880032" cy="-282.7151474537004" fill="#1C58CE" r="2.5"/>
<circle cx="420.08587231021204" cy="-105.43246771096841" fill="#1C58CE" r="2.5"/>
<circle cx="226.08706502853963" cy="-247.3199723640508" fill="#1C58CE" r="2.5"/>
<circle cx="281.3942952075328" cy="-71.08106864638476" fill="#1C58CE" r="2.5"/>
<circle cx="18.842751954162665" cy="-261.02237708332933" fill="#1C58CE" r="2.5"/>
<circle cx="188.28215307304524" cy="-247.85026689097504" fill="#1C58CE" r="2.5"/>
<circle cx="38.38069063656393" cy="-49.20050826516303" fill="#1C58CE" r="2.5"/>
<circle cx="67.72517376214856" cy="-241.1580309582777" fill="#1C58CE" r="2.5"/>
<circle cx="317.5284665285478" cy="-241.68371985922298" fill="#1C58CE" r="2.5"/>
<circle cx="92.96662339228072" cy="-185.14779798701363" fill="#1C58CE" r="2.5"/>
<circle cx="310.0222330290216" cy="-1.772787460780008" fill="#1C58CE" r="2.5"/>
<circle cx="415.1543520634622" cy="-148.86119972558078" fill="#1C58CE" r="2.5"/>
<circle cx="105.60692902076661" cy="-178.88359582297585" fill="#1C58CE" r="2.5"/>
<circle cx="36.86342082749954" cy="-36.03733146325847" fill="#1C58CE" r="2.5"/>
<circle cx="61.38269587621946" cy="-220.52000607998386" fill="#1C58CE" r="2.5"/>
<circle cx="379.51553016934633" cy="-18.14185992731751" fill="#1C58CE" r="2.5"/>
<circle cx="404.9814947978188" cy="-86.52986672529082" fill="#1C58CE" r="2.5"/>
<circle cx="366.70814945594077" cy="-83.18617068016813" fill="#1C58CE" r="2.5"/>
<circle cx="18.727507447030703" cy="-15.01439904170156" fill="#1C58CE" r="2.5"/>
<circle cx="168.7398905795475" cy="-150.10997123743937" fill="#1C58CE" r="2.5"/>
<circle cx="84.76920266214987" cy="-122.55297328282306" fill="#1C58CE" r="2.5"/>
<circle cx="475.47082033140646" cy="-13.44010392423136" fill="#1C58CE" r="2.5"/>
<circle cx="25.396175298263316" cy="-78.7000668534156" fill="#1C58CE" r="2.5"/>
<circle cx="477.19324656270993" cy="-78.80477474529948" fill="#1C58CE" r="2.5"/>
<circle cx="27.164424832589233" cy="-131.1044342465371" fill="#1C58CE" r="2.5"/>
<circle cx="58.73578016563679" cy="-335.0680734857731" fill="#1C58CE" r="2.5"/>
<circle cx="454.44997011861443" cy="-115.98220289812548" fill="#1C58CE" r="2.5"/>
<circle cx="155.50474369105797" cy="-28.433047325018283" fill="#1C58CE" r="2.5"/>
<circle cx="270.0844459817763" cy="-2.3721138359752203" fill="#1C58CE" r="2.5"/>
<circle cx="496.6131141584356" cy="-31.488397586967597" fill="#1C58CE" r="2.5"/>
<circle cx="111.11921312015964" cy="-38.48481899881944" fill="#1C58CE" r="2.5"/>
<circle cx="315.2070734699127" cy="-126.8522580210169" fill="#1C58CE" r="2.5"/>
<circle cx="226.5562709996456" cy="-153.2058166006311" fill="#1C58CE" r="2.5"/>
<circle cx="195.57650778922334" cy="-3.3177474655850467" fill="#1C58CE" r="2.5"/>
<circle cx="518.7988708718901" cy="-8.967198620045968" fill="#1C58CE" r="2.5"/>
<circle cx="73.69335816215464" cy="-111.92431616370659" fill="#1C58CE" r="2.5"/>
<circle cx="41.941171881054295" cy="-264.6272810521792" fill="#1C58CE" r="2.5"/>
<circle cx="97.99860654156363" cy="-194.5529028924567" fill="#1C58CE" r="2.5"/>
<circle cx="230.03299836977564" cy="-115.07218793499722" fill="#1C58CE" r="2.5"/>
<circle cx="447.1537439000033" cy="-37.28341049344597" fill="#1C58CE" r="2.5"/>
<circle cx="129.9583183710586" cy="-111.02391403887789" fill="#1C58CE" r="2.5"/>
<circle cx="169.9829971298901" cy="-250.7815674442343" fill="#1C58CE" r="2.5"/>
<circle cx="391.2409759879459" cy="-25.162302250803783" fill="#1C58CE" r="2.5"/>
<circle cx="55.057534426843596" cy="-308.3283156508845" fill="#1C58CE" r="2.5"/>
<circle cx="124.64985287894555" cy="-74.20785148206207" fill="#1C58CE" r="2.5"/>
<circle cx="5.877365291783538" cy="-233.91292435872876" fill="#1C58CE" r="2.5"/>
<circle cx="248.98178524388328" cy="-11.279727683701468" fill="#1C58CE" r="2.5"/>
<circle cx="55.73217434485915" cy="-86.10249457174703" fill="#1C58CE" r="2.5"/>
<circle cx="114.10901288054875" cy="-25.978776321192854" fill="#1C58CE" r="2.5"/>
<circle cx="2.0385978029325904" cy="-293.3451932135783" fill="#1C58CE" r="2.5"/>
<circle cx="36.1912006706373" cy="-175.8420318901996" fill="#1C58CE" r="2.5"/>
<circle cx="329.2491749295398" cy="-141.54659416299907" fill="#1C58CE" r="2.5"/>
<circle cx="171.16062229985425" cy="-75.13087867523775" fill="#1C58CE" r="2.5"/>
<circle cx="289.391459624576" cy="-55.71881921772363" fill="#1C58CE" r="2.5"/>
<circle cx="134.79570572765584" cy="-189.16361762870145" fill="#1C58CE" r="2.5"/>
<circle cx="360.7015598903957" cy="-152.79345533323158" fill="#1C58CE" r="2.5"/>
<circle cx="262.6418912710903" cy="-177.90910732882188" fill="#1C58CE" r="2.5"/>
<circle cx="393.5279610193215" cy="-147.97903935782605" fill="#1C58CE" r="2.5"/>
<circle cx="44.63760249277484" cy="-302.57934432425327" fill="#1C58CE" r="2.5"/>
<circle cx="66.02385807829444" cy="-98.08426587706096" fill="#1C58CE" r="2.5"/>
<circle cx="302.65095818696847" cy="-181.6565631921468" fill="#1C58CE" r="2.5"/>
<circle cx="310.566039957466" cy="-247.89298392965316" fill="#1C58CE" r="2.5"/>
<circle cx="279.64804078608216" cy="-10.40724168333735" fill="#1C58CE" r="2.5"/>
<circle cx="90.34645453726152" cy="-215.46616139906308" fill="#1C58CE" r="2.5"/>
<circle cx="112.2342449921412" cy="-241.3209603069086" fill="#1C58CE" r="2.5"/>
<circle cx="491.21823369694306" cy="-112.89908583291708" fill="#1C58CE" r="2.5"/>
<circle cx="426.88407560084426" cy="-18.378019837686594" fill="#1C58CE" r="2.5"/>
<circle cx="257.3815340797969" cy="-123.52677934319867" fill="#1C58CE" r="2.5"/>
<circle cx="395.38812468373067" cy="-136.81493901632768" fill="#1C58CE" r="2.5"/>
<circle cx="202.32681299779168" cy="-200.1271469584262" fill="#1C58CE" r="2.5"/>
<circle cx="381.0590156328562" cy="-12.321489391047873" fill="#1C58CE" r="2.5"/>
<circle cx="205.89375308941587" cy="-129.57776722304078" fill="#1C58CE" r="2.5"/>
<circle cx="296.67825470193014" cy="-92.76338245803194" fill="#1C58CE" r="2.5"/>
<circle cx="229.8108669243565" cy="-219.69616682441543" fill="#1C58CE" r="2.5"/>
<circle cx="253.33241368061178" cy="-74.44260878280669" fill="#1C58CE" r="2.5"/>
<circle cx="19.014164560032025" cy="-232.32920604014012" fill="#1C58CE" r="2.5"/>
<circle cx="239.61422040783344" cy="-182.22123929550628" fill="#1C58CE" r="2.5"/>
<circle cx="275.99177693590684" cy="-196.06885562510064" fill="#1C58CE" r="2.5"/>
<circle cx="27.101062985339084" cy="-33.58774441288618" fill="#1C58CE" r="2.5"/>
<circle cx="153.87644730867342" cy="-98.64632241150356" fill="#1C58CE" r="2.5"/>
<circle cx="16.71608109013373" cy="-282.08329606982" fill="#1C58CE" r="2.5"/>
<circle cx="81.5396878146808" cy="-138.8485547506662" fill="#1C58CE" r="2.5"/>
<circle cx="236.91502540833042" cy="-34.758682401486084" fill="#1C58CE" r="2.5"/>
<circle cx="425.738844946743" cy="-92.60586192784133" fill="#1C58CE" r="2.5"/>
<circle cx="42.43331742670346" cy="-84.91159364016747" fill="#1C58CE" r="2.5"/>
<circle cx="36.749856294216755" cy="-98.56395498072831" fill="#1C58CE" r="2.5"/>
<circle cx="366.451304460153" cy="-47.61652339992429" fill="#1C58CE" r="2.5"/>
<circle cx="23.621068726125984" cy="-101.56040308036556" fill="#1C58CE" r="2.5"/>
<circle cx="251.7788585429816" cy="-120.92626614060339" fill="#1C58CE" r="2.5"/>
<circle cx="271.3561047470791" cy="-73.22929161197568" fill="#1C58CE" r="2.5"/>
<circle cx="163.12663674975573" cy="-7.934998669191287" fill="#1C58CE" r="2.5"/>
<circle cx="288.27702364681716" cy="-24.280668382989486" fill="#1C58CE" r="2.5"/>
<circle cx="301.9058946484916" cy="-158.13020562344548" fill="#1C58CE" r="2.5"/>
<circle cx="127.43226797384014" cy="-113.13702081592301" fill="#1C58CE" r="2.5"/>
<circle cx="49.22974906727553" cy="-16.245213951900098" fill="#1C58CE" r="2.5"/>
<circle cx="271.8073632351202" cy="-51.07806492946684" fill="#1C58CE" r="2.5"/>
<circle cx="116.86608990354762" cy="-36.78317629139457" fill="#1C58CE" r="2.5"/>
<circle cx="20.824459878037214" cy="-197.52074610175043" fill="#1C58CE" r="2.5"/>
<circle cx="125.3819856902836" cy="-149.10585079195744" fill="#1C58CE" r="2.5"/>
<circle cx="484.3122968720412" cy="-2.6634712041477213" fill="#1C58CE" r="2.5"/>
<circle cx="76.52435415587675" cy="-139.00682300884807" fill="#1C58CE" r="2.5"/>
<circle cx="24.597610010089696" cy="-166.7262946782711" fill="#1C58CE" r="2.5"/>
<circle cx="306.12579841260776" cy="-17.282068306342875" fill="#1C58CE" r="2.5"/>
<circle cx="434.0935095567921" cy="-133.02116576415145" fill="#1C58CE" r="2.5"/>
<circle cx="376.3068079017876" cy="-125.40198679578201" fill="#1C58CE" r="2.5"/>
<circle cx="236.01169834235753" cy="-109.72737625304379" fill="#1C58CE" r="2.5"/>
<circle cx="484.19391889597176" cy="-71.39220766748019" fill="#1C58CE" r="2.5"/>
<circle cx="31.637796266408657" cy="-70.48438910592483" fill="#1C58CE" r="2.5"/>
<circle cx="167.38173408495172" cy="-178.51914840744362" fill="#1C58CE" r="2.5"/>
<circle cx="189.09577246365734" cy="-109.35737047482674" fill="#1C58CE" r="2.5"/>
<circle cx="420.5741173913413" cy="-74.77766785436323" fill="#1C58CE" r="2.5"/>
<circle cx="377.038474751514" cy="-130.98719295294813" fill="#1C58CE" r="2.5"/>
<circle cx="484.5402857989672" cy="-58.351617227968845" fill="#1C58CE" r="2.5"/>
<circle cx="7.130685312695486" cy="-233.32344861205374" fill="#1C58CE" r="2.5"/>
<circle cx="300.5641034926252" cy="-89.26926398416516" fill="#1C58CE" r="2.5"/>
<circle cx="260.9836236250764" cy="-269.75888316854724" fill="#1C58CE" r="2.5"/>
<circle cx="251.2061817454809" cy="-132.44967784025025" fill="#1C58CE" r="2.5"/>
<circle cx="298.5162902297664" cy="-25.138840734603676" fill="#1C58CE" r="2.5"/>
<circle cx="419.7987212005933" cy="-55.88212615151891" fill="#1C58CE" r="2.5"/>
<circle cx="128.18363485827712" cy="-34.24006096202552" fill="#1C58CE" r="2.5"/>
<circle cx="61.43286867965796" cy="-27.262601581577993" fill="#1C58CE" r="2.5"/>
<circle cx="207.16135287000913" cy="-4.828165052124333" fill="#1C58CE" r="2.5"/>
<circle cx="482.96476916791545" cy="-51.507272257672795" fill="#1C58CE" r="2.5"/>
<circle cx="174.0264353232224" cy="-109.86295256134416" fill="#1C58CE" r="2.5"/>
<circle cx="100.71321020058625" cy="-226.60299486289622" fill="#1C58CE" r="2.5"/>
<circle cx="469.5413730967343" cy="-121.66759017301558" fill="#1C58CE" r="2.5"/>
<circle cx="280.4402949269488" cy="-104.19357653489901" fill="#1C58CE" r="2.5"/>
<circle cx="452.634074037105" cy="-83.04245469454536" fill="#1C58CE" r="2.5"/>
</g>
<g>
<path d="M0,-318.11172 L0,-318.11172 L2.6,-320.04883 L5.2,-321.9637 L7.8,-323.84308 L10.4,-325.67386 L13,-327.44327 L15.6,-329.1389 L18.2,-330.74878 L20.8,-332.26147 L23.4,-333.6661 L26,-334.9524 L28.6,-336.11078 L31.2,-337.13242 L33.8,-338.00925 L36.4,-338.73407 L39,-339.30057 L41.6,-339.70322 L44.2,-339.93756 L46.8,-340 L49.4,-339.88797 L52,-339.59982 L54.6,-339.13498 L57.2,-338.49377 L59.8,-337.67755 L62.4,-336.68863 L65,-335.53033 L67.6,-334.20682 L70.2,-332.7232 L72.8,-331.08554 L75.4,-329.30063 L78,-327.3761 L80.6,-325.32034 L83.2,-323.14243 L85.8,-320.85208 L88.4,-318.45963 L91,-315.97592 L93.6,-313.4123 L96.2,-310.7804 L98.8,-308.0923 L101.4,-305.3603 L104,-302.59686 L106.6,-299.8146 L109.2,-297.02618 L111.8,-294.2442 L114.4,-291.48117 L117,-288.74945 L119.6,-286.0611 L122.2,-283.42795 L124.8,-280.8614 L127.4,-278.37238 L130,-275.9714 L132.6,-273.66833 L135.2,-271.4725 L137.8,-269.3925 L140.4,-267.43622 L143,-265.6108 L145.6,-263.92264 L148.2,-262.37723 L150.8,-260.9792 L153.4,-259.73233 L156,-258.6395 L158.6,-257.7027 L161.2,-256.9229 L163.8,-256.3003 L166.4,-255.83398 L169,-255.52226 L171.6,-255.36252 L174.2,-255.35121 L176.8,-255.48398 L179.4,-255.75558 L182,-256.16003 L184.6,-256.69058 L187.2,-257.33966 L189.8,-258.09918 L192.4,-258.9603 L195,-259.91367 L197.6,-260.94937 L200.2,-262.05713 L202.8,-263.22617 L205.4,-264.44543 L208,-265.70355 L210.6,-266.989 L213.2,-268.29013 L215.8,-269.59515 L218.4,-270.89233 L221,-272.17004 L223.6,-273.41666 L226.2,-274.6209 L228.8,-275.7717 L231.4,-276.85828 L234,-277.87024 L236.6,-278.79773 L239.2,-279.6313 L241.8,-280.36206 L244.4,-280.98178 L247,-281.48282 L249.6,-281.85828 L252.2,-282.10187 L254.8,-282.2082 L257.4,-282.17252 L260,-281.991 L262.6,-281.66055 L265.2,-281.17896 L267.8,-280.54486 L270.4,-279.7577 L273,-278.81772 L275.6,-277.72617 L278.2,-276.4849 L280.8,-275.09674 L283.4,-273.56522 L286,-271.89465 L288.6,-270.09003 L291.2,-268.1571 L293.8,-266.10226 L296.4,-263.93246 L299,-261.65527 L301.6,-259.27875 L304.2,-256.8114 L306.8,-254.26215 L309.4,-251.64029 L312,-248.95537 L314.6,-246.21721 L317.2,-243.43576 L319.8,-240.62108 L322.4,-237.78328 L325,-234.93246 L327.6,-232.07861 L330.2,-229.23158 L332.8,-226.40103 L335.4,-223.59633 L338,-220.82654 L340.6,-218.10033 L343.2,-215.42592 L345.8,-212.8111 L348.4,-210.26305 L351,-207.78842 L353.6,-205.39325 L356.2,-203.0829 L358.8,-200.86206 L361.4,-198.73466 L364,-196.70398 L366.6,-194.77245 L369.2,-192.94174 L371.8,-191.21278 L374.4,-189.58566 L377,-188.05971 L379.6,-186.63344 L382.2,-185.30458 L384.8,-184.07011 L387.4,-182.92625 L390,-181.86845 L392.6,-180.89151 L395.2,-179.9895 L397.8,-179.15588 L400.4,-178.3835 L403,-177.66458 L405.6,-176.99089 L408.2,-176.35367 L410.8,-175.74374 L413.4,-175.15152 L416,-174.56711 L418.6,-173.98029 L421.2,-173.38065 L423.8,-172.75755 L426.4,-172.10028 L429,-171.39798 L431.6,-170.63982 L434.2,-169.81494 L436.8,-168.9126 L439.4,-167.92212 L442,-166.833 L444.6,-165.63489 L447.2,-164.3177 L449.8,-162.87158 L452.4,-161.28691 L455,-159.55438 L457.6,-157.66495 L460.2,-155.60988 L462.8,-153.38069 L465.4,-150.96916 L468,-148.36731 L470.6,-145.56728 L473.2,-142.56139 L475.8,-139.34193 L478.4,-135.90118 L481,-132.23116 L483.6,-128.32355 L486.2,-124.169525 L488.8,-119.75943 L491.4,-115.08255 L494,-110.12674 L496.6,-104.87794 L499.2,-99.31965 L501.8,-93.43219 L504.4,-87.19179 L507,-80.56936 L509.6,-73.52891 L512.2,-66.02538 L514.8,-58.001713 L517.4,-49.38456 L520,-40.07829" fill="none" stroke="#373AC6" stroke-width="1.5"/>
</g>
<g>
<g>
<line stroke="black" stroke-width="1" x1="0" x2="0" y1="0" y2="10"/>
<line stroke="black" stroke-width="1" x1="173.33333333333334" x2="173.33333333333334" y1="0" y2="10"/>
<line stroke="black" stroke-width="1" x1="346.6666666666667" x2="346.6666666666667" y1="0" y2="10"/>
<line stroke="black" stroke-width="1" x1="520" x2="520" y1="0" y2="10"/>
</g>
<line stroke="black" stroke-width="1" x1="0" x2="520" y1="0" y2="0"/>
<g>
<text font-size="12" text-anchor="middle" x="0" y="20">
0
</text>
<text font-size="12" text-anchor="middle" x="173.33333333333334" y="20">
10
</text>
<text font-size="12" text-anchor="middle" x="346.6666666666667" y="20">
20
</text>
<text font-size="12" text-anchor="middle" x="520" y="20">
30
</text>
</g>
<text font-size="12" text-anchor="middle" x="260" y="30">
Time t
</text>
</g>
<g>
<g>
<line stroke="black" stroke-width="1" x1="0" x2="-10" y1="-93.27810803276634" y2="-93.27810803276634"/>
<line stroke="black" stroke-width="1" x1="0" x2="-10" y1="-186.9120712094697" y2="-186.9120712094697"/>
<line stroke="black" stroke-width="1" x1="0" x2="-10" y1="-280.54603438617306" y2="-280.54603438617306"/>
</g>
<line stroke="black" stroke-0="1" x1="0" x2="0" y1="0" y2="-340"/>
<g>
<text dominant-baseline="middle" font-size="12" text-anchor="end" x="-15" y="-93.27810803276634">
4
</text>
<text dominant-baseline="middle" font-size="12" text-anchor="end" x="-15" y="-186.9120712094697">
8
</text>
<text dominant-baseline="middle" font-size="12" text-anchor="end" x="-15" y="-280.54603438617306">
12
</text>
</g>
<text font-size="12" text-anchor="middle" transform="rotate(-90 -30 -170)" x="-30" y="-170">
Intensity λ(t)
</text>
</g>
</g>
</svg>